<svg xmlns="http://www.w3.org/2000/svg" width="145" height="91" viewBox="0 0 145 91">
  <g id="Grupo_58246" data-name="Grupo 58246" transform="translate(-974 -617)">
    <rect id="BG" width="145" height="91" transform="translate(974 617)" fill="#fff" opacity="0"/>
    <g id="Grupo_58226" data-name="Grupo 58226" transform="translate(1009 623)">
      <path id="Trazado_116939" data-name="Trazado 116939" d="M152.978,17.649a14.574,14.574,0,0,0,14.573-14.54,14.573,14.573,0,0,0-29.146,0A14.573,14.573,0,0,0,152.978,17.649Zm0-26.863A12.323,12.323,0,1,1,140.623,3.109,12.323,12.323,0,0,1,152.978-9.214Z" transform="translate(-115.437 11.432)" fill="#a0a603"/>
      <path id="Trazado_116940" data-name="Trazado 116940" d="M174.072,17.335h-.055a2.746,2.746,0,0,1-2.716-2.742,1.109,1.109,0,1,0-2.218,0,4.969,4.969,0,0,0,3.852,4.834v1.309a1.109,1.109,0,1,0,2.218,0V19.428a4.961,4.961,0,0,0-1.109-9.8,2.743,2.743,0,1,1,2.743-2.743,1.109,1.109,0,0,0,2.218,0,4.969,4.969,0,0,0-3.852-4.835V.92a1.109,1.109,0,0,0-2.218,0V2.054a4.961,4.961,0,0,0,1.109,9.8,2.743,2.743,0,0,1,.027,5.485Z" transform="translate(-136.503 3.712)" fill="#a0a603"/>
      <path id="Trazado_116941" data-name="Trazado 116941" d="M175.107,94.38v-2.85a8.232,8.232,0,1,0-16.465,0v2.85a8.232,8.232,0,0,0,16.465,0Zm-8.232,6.014a6.022,6.022,0,0,1-6.015-6.014v-2.85a6.015,6.015,0,1,1,12.029,0v2.85A6.021,6.021,0,0,1,166.875,100.395Z" transform="translate(-129.333 -53.618)" fill="#a0a603"/>
      <path id="Trazado_116942" data-name="Trazado 116942" d="M254.607,120.8l-4.662-.016a1.121,1.121,0,0,0-.916.479,1.108,1.108,0,0,0-.122,1.026l1.119,2.919a1.108,1.108,0,0,0,1.035.713h2.424a1.108,1.108,0,0,0,1.035-.71l1.119-2.9a1.109,1.109,0,0,0-1.03-1.508Zm-1.884,2.9h-.9l-.267-.7,1.434.005Z" transform="translate(-191.265 -79.356)" fill="#a0a603"/>
      <path id="Trazado_116943" data-name="Trazado 116943" d="M244.629,83.11a6.711,6.711,0,0,0,6.7-6.7V74.17a6.7,6.7,0,0,0-13.4,0v2.237A6.71,6.71,0,0,0,244.629,83.11Zm-4.485-8.94a4.485,4.485,0,1,1,8.97,0v2.237a4.485,4.485,0,1,1-8.97,0Z" transform="translate(-183.777 -42.748)" fill="#a0a603"/>
      <path id="Trazado_116944" data-name="Trazado 116944" d="M105.805,120.8l-4.662-.016h0a1.109,1.109,0,0,0-1.03,1.521l1.119,2.794a1.109,1.109,0,0,0,1.03.7h2.425a1.109,1.109,0,0,0,1.029-.694l1.118-2.778a1.109,1.109,0,0,0-1.025-1.524Zm-1.871,2.777h-.925L102.78,123l1.382.005Z" transform="translate(-89.086 -79.356)" fill="#a0a603"/>
      <path id="Trazado_116945" data-name="Trazado 116945" d="M95.826,83.11a6.71,6.71,0,0,0,6.7-6.7V74.17a6.7,6.7,0,0,0-13.4,0v2.237A6.71,6.71,0,0,0,95.826,83.11Zm-4.485-8.94a4.485,4.485,0,0,1,8.97,0v2.237a4.485,4.485,0,0,1-8.97,0Z" transform="translate(-81.596 -42.748)" fill="#a0a603"/>
      <path id="Trazado_116946" data-name="Trazado 116946" d="M133.2,119.486h-1.852a1.107,1.107,0,0,0-1.041.729l-2.5,6.86-.055-.691a1.109,1.109,0,0,0-1.105-1.02h-.953a1.108,1.108,0,0,0-1.105,1.02l-.085,1.056-2.93-7.26a1.108,1.108,0,0,0-1.028-.693h-1.853a6.983,6.983,0,0,0-6.975,6.975V128.9h-2.332a1.109,1.109,0,0,0-1.077.845l-2.672,10.921-.185-4a1.109,1.109,0,0,0-1.1-1.058l-2.85-.021H101.5a1.109,1.109,0,0,0-1.108,1.053l-.238,4.712-3.19-11.64a1.109,1.109,0,0,0-1.07-.816H93.558v-2.442a6.983,6.983,0,0,0-6.976-6.975H84.73a1.108,1.108,0,0,0-1.041.729l-2.5,6.861-.055-.692a1.109,1.109,0,0,0-1.105-1.02h-.953a1.109,1.109,0,0,0-1.105,1.02l-.085,1.056-2.929-7.261a1.109,1.109,0,0,0-1.028-.693H72.072a6.982,6.982,0,0,0-6.975,6.976v14.2a1.109,1.109,0,0,0,1.109,1.109H76.732l-.108,1.336a1.11,1.11,0,0,0,.5,1.015l1.842,1.212a1.108,1.108,0,0,0,1.23-.007l1.8-1.212a1.11,1.11,0,0,0,.485-1.008l-.107-1.336h2.454v12.1a1.109,1.109,0,0,0,1.109,1.109H99.462l0,.048a1.109,1.109,0,0,0,.5.984l2.36,1.544a1.109,1.109,0,0,0,1.224-.007l2.3-1.544a1.109,1.109,0,0,0,.49-.979l0-.046h13.014a1.108,1.108,0,0,0,1.109-1.109v-12.1h2.9l-.108,1.336a1.11,1.11,0,0,0,.5,1.015l1.842,1.212a1.108,1.108,0,0,0,1.23-.007l1.8-1.212a1.11,1.11,0,0,0,.485-1.008l-.108-1.336h10.085a1.109,1.109,0,0,0,1.109-1.109v-14.2A6.983,6.983,0,0,0,133.2,119.486Zm-65.89,20.069V126.46a4.762,4.762,0,0,1,4.757-4.757h1.1l4.309,10.679-.575,7.172Zm12.249,3.523-.676-.445.661-8.235.661,8.244Zm2.624-3.523-.576-7.175L85.506,121.7h1.077a4.763,4.763,0,0,1,4.758,4.758v2.694a8.593,8.593,0,0,0-6.522,8.328v2.071Zm4.849,13.212V137.483a6.369,6.369,0,0,1,6.362-6.362h1.645l4.749,17.322-.218,4.323ZM102.92,155.3l-1.213-.793.843-16.689.736.006.509,11.01.3,5.682Zm15.32-2.535H106.219l-.21-4.04-.01-.211,4.258-17.395h1.621a6.369,6.369,0,0,1,6.362,6.362v15.283Zm2.218-13.212v-2.071a8.594,8.594,0,0,0-6.522-8.329V126.46a4.762,4.762,0,0,1,4.757-4.757h1.1l4.308,10.679-.574,7.172Zm5.727,3.523-.676-.445.661-8.235.661,8.244Zm11.777-3.523h-9.154l-.576-7.176,3.9-10.677h1.077a4.763,4.763,0,0,1,4.757,4.759Z" transform="translate(-65.097 -78.467)" fill="#a0a603"/>
      <path id="Trazado_116947" data-name="Trazado 116947" d="M179.853,151.213l-5.937-.021h0a1.108,1.108,0,0,0-.991,1.6l1.544,3.087a1.107,1.107,0,0,0,.983.613l2.849.021h.008a1.109,1.109,0,0,0,.992-.613l1.544-3.087a1.109,1.109,0,0,0-.988-1.6Zm-2.23,3.082-1.479-.011-.435-.869,2.349.009Z" transform="translate(-139.057 -100.24)" fill="#a0a603"/>
    </g>
  </g>
</svg>
