<svg xmlns="http://www.w3.org/2000/svg" width="145" height="91" viewBox="0 0 145 91">
  <g id="Grupo_58228" data-name="Grupo 58228" transform="translate(-232 -617)">
    <rect id="BG" width="145" height="91" transform="translate(232 617)" fill="#fff" opacity="0"/>
    <g id="Grupo_58223" data-name="Grupo 58223" transform="translate(270 623)">
      <path id="Trazado_116919" data-name="Trazado 116919" d="M-945.385,16.272A6.666,6.666,0,0,0-951.6,20.55l-5.459-1.087q.025-.495.025-.995A19.316,19.316,0,0,0-963.82,3.763l6.3-8.894A8.53,8.53,0,0,0-946.27-8.2,8.53,8.53,0,0,0-948.6-19.63a8.532,8.532,0,0,0-11.558,1.579,8.532,8.532,0,0,0,.823,11.637l-6.252,8.831a19.241,19.241,0,0,0-10.806-3.3c-.554,0-1.11.027-1.663.074-.121-.16-.247-.316-.382-.465a7.124,7.124,0,0,0-5.277-2.344h-3.043a1.109,1.109,0,0,0-1.066.806l-1.584,5.58-.858-1.532,1.013-3.237a1.108,1.108,0,0,0-.164-.988,1.11,1.11,0,0,0-.893-.452H-994a1.11,1.11,0,0,0-.894.452,1.109,1.109,0,0,0-.164.988l1.02,3.254-.68,1.312-1.4-5.354a1.108,1.108,0,0,0-1.073-.829h-3.228a7.115,7.115,0,0,0-5.259,2.322,7.115,7.115,0,0,0-1.825,5.451V21.865a4.3,4.3,0,0,0,4.3,4.3h.05a4.2,4.2,0,0,0,2.29-.713l.8,26.784a4.562,4.562,0,0,0,3.049,4.144,4.561,4.561,0,0,0,4.969-1.332,4.561,4.561,0,0,0,4.973,1.331,4.562,4.562,0,0,0,3.047-4.15l.468-15.772a19.365,19.365,0,0,0,16.442-1l6.215,9.178a7.629,7.629,0,0,0-.562,10.374,7.63,7.63,0,0,0,10.305,1.316A7.629,7.629,0,0,0-949.1,46.142a7.63,7.63,0,0,0-10-2.8l-6.136-9.062a19.385,19.385,0,0,0,7.935-12.6l5.265,1.047c0,.069-.006.137-.006.206a6.658,6.658,0,0,0,6.658,6.658,6.657,6.657,0,0,0,6.657-6.658A6.657,6.657,0,0,0-945.385,16.272ZM-959.85-12.655a6.29,6.29,0,0,1,6.29-6.29,6.29,6.29,0,0,1,6.29,6.29,6.291,6.291,0,0,1-6.29,6.29A6.3,6.3,0,0,1-959.85-12.655Zm9.659,62.785a5.419,5.419,0,0,1-5.419,5.419,5.418,5.418,0,0,1-5.419-5.419,5.419,5.419,0,0,1,5.419-5.419A5.425,5.425,0,0,1-950.191,50.13ZM-991.818-1.228l-.336,1.073-.336-1.073Zm-9.306,23a2.133,2.133,0,0,1-2.055,2.169h-.024a2.08,2.08,0,0,1-2.079-2.079V4.1c0-.038,0-.075-.005-.112a4.894,4.894,0,0,1,1.239-3.777,4.9,4.9,0,0,1,3.634-1.613h2.373l1.908,7.32a1.109,1.109,0,0,0,.95.822,1.108,1.108,0,0,0,1.108-.593l1.908-3.681h.053l2.079,3.714a1.109,1.109,0,0,0,1.1.559,1.109,1.109,0,0,0,.937-.8l2.083-7.343h2.206A4.9,4.9,0,0,1-980.081.208a4.894,4.894,0,0,1,1.239,3.776,1.1,1.1,0,0,0-.006.112V21.861a2.083,2.083,0,0,1-2.083,2.083,2.083,2.083,0,0,1-2.083-2.083V17.988l.018-.614a1.087,1.087,0,0,0-.018-.234V9.971a1.108,1.108,0,0,0-1.109-1.109,1.109,1.109,0,0,0-1.109,1.109v7.983l-.039,1.324h-13.56l-.058-1.969a1.074,1.074,0,0,0-.019-.163V9.971a1.108,1.108,0,0,0-1.108-1.109,1.109,1.109,0,0,0-1.109,1.109Zm14.877,30.376a2.347,2.347,0,0,1-2.389,2.266,2.347,2.347,0,0,1-2.305-2.35V25.953a1.109,1.109,0,0,0-1.109-1.109,1.108,1.108,0,0,0-1.109,1.109V52.067a2.348,2.348,0,0,1-2.3,2.349,2.348,2.348,0,0,1-2.392-2.257l-.911-30.664h13.427Zm9.855-16.543a16.964,16.964,0,0,1-7.1-1.536l.255-8.581a4.3,4.3,0,0,0,4.377.139,4.3,4.3,0,0,0,2.23-3.769V4.151a7.108,7.108,0,0,0-.306-2.811c.182-.006.365-.009.545-.009a17.138,17.138,0,0,1,17.139,17.139,17.139,17.139,0,0,1-17.139,17.138Zm31.006-8.238a4.44,4.44,0,0,1-4.441-4.44,4.439,4.439,0,0,1,4.44-4.44,4.44,4.44,0,0,1,4.44,4.44A4.444,4.444,0,0,1-945.385,27.37Z" transform="translate(1007.53 21.204)" fill="#a0a603"/>
      <path id="Trazado_116920" data-name="Trazado 116920" d="M-973.915-1.43a6.9,6.9,0,0,0,6.889-6.889v-2.311a6.889,6.889,0,0,0-3.435-5.993,6.89,6.89,0,0,0-6.909,0,6.887,6.887,0,0,0-3.434,5.993v2.313A6.9,6.9,0,0,0-973.915-1.43Zm-4.671-9.2a4.671,4.671,0,0,1,2.328-4.069,4.674,4.674,0,0,1,4.687,0,4.673,4.673,0,0,1,2.328,4.069v2.313a4.678,4.678,0,0,1-4.672,4.672,4.676,4.676,0,0,1-4.671-4.672Z" transform="translate(989.177 18.696)" fill="#a0a603"/>
    </g>
  </g>
</svg>
