<svg xmlns="http://www.w3.org/2000/svg" width="145" height="91" viewBox="0 0 145 91">
  <g id="Grupo_58233" data-name="Grupo 58233" transform="translate(-478 -617)">
    <rect id="BG" width="145" height="91" transform="translate(478 617)" fill="#fff" opacity="0"/>
    <g id="Grupo_58224" data-name="Grupo 58224" transform="translate(512 624)">
      <path id="Trazado_116921" data-name="Trazado 116921" d="M-586.817,134.487a6.422,6.422,0,0,0,6.416-6.415v-2.123a6.416,6.416,0,0,0-6.416-6.416,6.416,6.416,0,0,0-6.416,6.416v2.124A6.423,6.423,0,0,0-586.817,134.487Zm-4.2-8.538a4.2,4.2,0,0,1,4.2-4.2,4.2,4.2,0,0,1,4.2,4.2v2.124a4.2,4.2,0,0,1-4.2,4.2,4.2,4.2,0,0,1-4.2-4.2Z" transform="translate(599.468 -75.438)" fill="#a0a603"/>
      <path id="Trazado_116922" data-name="Trazado 116922" d="M-430.625,125.949v2.124a6.416,6.416,0,0,0,6.416,6.416,6.416,6.416,0,0,0,6.416-6.416v-2.124a6.416,6.416,0,0,0-6.416-6.416A6.416,6.416,0,0,0-430.625,125.949Zm2.216,0a4.2,4.2,0,0,1,4.2-4.2,4.2,4.2,0,0,1,4.2,4.2v2.124a4.205,4.205,0,0,1-4.2,4.2,4.2,4.2,0,0,1-4.2-4.2Z" transform="translate(487.808 -75.438)" fill="#a0a603"/>
      <path id="Trazado_116923" data-name="Trazado 116923" d="M-543.135,142.3h-1.341a1.109,1.109,0,0,0-1.038.72l-1.286,3.44-1.033-1.845a1.107,1.107,0,0,0-.967-.566h-1.265a1.109,1.109,0,0,0-.984.6l-.846,1.633-1.11-3.23a1.107,1.107,0,0,0-1.047-.748h-1.511a6.62,6.62,0,0,0-4.893,2.159,6.623,6.623,0,0,0-1.7,5.071V153.6l-7.382-5.419a5.652,5.652,0,0,0-.328-4.754,5.654,5.654,0,0,0-3.846-2.814v-8.756a1.108,1.108,0,0,0-1.108-1.108,1.109,1.109,0,0,0-1.108,1.108v8.756a5.653,5.653,0,0,0-3.846,2.816,5.651,5.651,0,0,0-.327,4.755l-7.384,5.418v-4.073a6.623,6.623,0,0,0-1.7-5.072,6.625,6.625,0,0,0-4.893-2.161h-1.34a1.108,1.108,0,0,0-1.038.72l-1.286,3.44-1.033-1.845a1.108,1.108,0,0,0-.967-.566h-1.264a1.109,1.109,0,0,0-.984.6l-.846,1.633-1.11-3.229A1.108,1.108,0,0,0-605,142.3h-1.511a6.623,6.623,0,0,0-4.894,2.16,6.624,6.624,0,0,0-1.7,5.071v9.714A1.109,1.109,0,0,0-612,160.353l23.4,0a1.108,1.108,0,0,0,1.108-1.108v-2.89l8.573-6.291a5.644,5.644,0,0,0,4.093,1.757,5.645,5.645,0,0,0,4.092-1.759l8.571,6.292v2.892a1.108,1.108,0,0,0,1.108,1.108l23.4,0a1.109,1.109,0,0,0,1.108-1.108v-9.712a6.622,6.622,0,0,0-1.7-5.072A6.622,6.622,0,0,0-543.135,142.3Zm-46.563,7.066a1.029,1.029,0,0,0-.006.112v8.657l-21.184,0v-8.659a.943.943,0,0,0-.006-.112,4.409,4.409,0,0,1,1.115-3.4,4.406,4.406,0,0,1,3.27-1.451h.72l1.694,4.93a1.11,1.11,0,0,0,.923.742,1.109,1.109,0,0,0,1.066-.514q.024-.038.044-.078l1.7-3.277,1.853,3.31a1.108,1.108,0,0,0,1.051.564,1.108,1.108,0,0,0,.954-.717l1.853-4.958h.572a4.409,4.409,0,0,1,3.268,1.452A4.406,4.406,0,0,1-589.7,149.366Zm14.875.237a3.44,3.44,0,0,1-3.419-3.437,3.441,3.441,0,0,1,3.415-3.443h.01a3.441,3.441,0,0,1,3.415,3.443A3.44,3.44,0,0,1-574.824,149.6Zm36.072-.237a1.112,1.112,0,0,0-.006.112v8.657l-21.185,0v-8.659a1.093,1.093,0,0,0-.006-.112,4.407,4.407,0,0,1,1.116-3.4,4.4,4.4,0,0,1,3.269-1.451h.72l1.694,4.93a1.109,1.109,0,0,0,.923.742,1.109,1.109,0,0,0,1.066-.514c.016-.025.031-.051.044-.078l1.7-3.277,1.853,3.31a1.11,1.11,0,0,0,1.052.564,1.107,1.107,0,0,0,.953-.717l1.854-4.958h.571a4.409,4.409,0,0,1,3.269,1.452,4.409,4.409,0,0,1,1.115,3.4Z" transform="translate(613.134 -83.141)" fill="#a0a603"/>
      <path id="Trazado_116924" data-name="Trazado 116924" d="M-505.513,23.461a6.423,6.423,0,0,0,6.416-6.416V14.922a6.416,6.416,0,0,0-6.416-6.384,6.416,6.416,0,0,0-6.416,6.384v2.123A6.424,6.424,0,0,0-505.513,23.461Zm-4.2-8.539a4.2,4.2,0,0,1,4.2-4.2,4.2,4.2,0,0,1,4.2,4.2v2.124a4.2,4.2,0,0,1-4.2,4.2,4.2,4.2,0,0,1-4.2-4.2Z" transform="translate(543.638 0.781)" fill="#a0a603"/>
      <path id="Trazado_116925" data-name="Trazado 116925" d="M-564.027,3.132h2.388a19.894,19.894,0,0,0,18.727,18.731V24.11a1.108,1.108,0,0,0,1.108,1.108,1.108,1.108,0,0,0,1.108-1.108V21.862A19.894,19.894,0,0,0-521.967,3.132h2.267a1.108,1.108,0,0,0,1.108-1.108A1.108,1.108,0,0,0-519.7.915h-2.267A19.894,19.894,0,0,0-540.7-17.809V-20.1A1.108,1.108,0,0,0-541.8-21.2a1.108,1.108,0,0,0-1.108,1.108v2.287A19.894,19.894,0,0,0-561.639.915h-2.388a1.108,1.108,0,0,0-1.108,1.108A1.108,1.108,0,0,0-564.027,3.132Zm11.565,7.081a4.41,4.41,0,0,1,1.115-3.4,4.411,4.411,0,0,1,3.27-1.452h.719l1.694,4.931a1.108,1.108,0,0,0,.932.742,1.108,1.108,0,0,0,1.067-.532c.012-.02.023-.04.033-.06l1.7-3.277,1.854,3.31a1.107,1.107,0,0,0,1.051.563,1.107,1.107,0,0,0,.953-.717l1.854-4.959h.571a4.4,4.4,0,0,1,3.268,1.452,4.4,4.4,0,0,1,1.115,3.4c0,.038-.006.075-.006.112v5.857a17.614,17.614,0,0,1-21.184-.091V10.326A.912.912,0,0,0-552.461,10.213ZM-541.8-15.624A17.642,17.642,0,0,1-525.57-4.912a17.643,17.643,0,0,1-3.485,19.134V10.378a6.621,6.621,0,0,0-1.7-5.071,6.624,6.624,0,0,0-4.893-2.161h-1.34a1.108,1.108,0,0,0-1.038.72l-1.286,3.44-1.033-1.845a1.109,1.109,0,0,0-.967-.567h-1.264a1.108,1.108,0,0,0-.984.6l-.846,1.633L-545.517,3.9a1.109,1.109,0,0,0-1.048-.748h-1.511a6.624,6.624,0,0,0-4.894,2.16,6.625,6.625,0,0,0-1.7,5.072v3.714A17.641,17.641,0,0,1-558-4.994a17.641,17.641,0,0,1,16.2-10.631Z" transform="translate(580.174 21.204)" fill="#a0a603"/>
    </g>
  </g>
</svg>
