<svg xmlns="http://www.w3.org/2000/svg" width="801.3" height="295.679" viewBox="0 0 801.3 295.679">
  <g id="Grupo_58312" data-name="Grupo 58312" transform="translate(-591.268 -676.409)">
    <g id="Grupo_58267" data-name="Grupo 58267" transform="translate(995.85 709.1)">
      <g id="Grupo_58254" data-name="Grupo 58254" transform="translate(46.612 60.791)">
        <path id="Trazado_116972" data-name="Trazado 116972" d="M1094.391,780.42c-1.906-2.388-1.89-4.777.345-6.862,1.388-1.3,3.317-1.9,4.7-3.2a6.3,6.3,0,0,0-.246-9c-2.027-1.718-4.97-1.918-7.574-1.386a6.286,6.286,0,0,0-4.022,2.2c-1.118,1.591-.879,3.73-.593,5.653l.966,6.493a7.139,7.139,0,0,1,.017,2.993,2.427,2.427,0,0,1-2.105,1.867q-1.485-5.619-2.968-11.239a5.82,5.82,0,0,0-1.857-3.475,3.6,3.6,0,0,0-3.888.079,6.353,6.353,0,0,0-2.407,3.257c-1.932,5.252.684,11.242,4.66,15.18,1.032,1.021,2.2,2.689,1.161,3.7a1.965,1.965,0,0,1-2.357,0c-.717-.454-1.249-1.147-1.919-1.666a5.79,5.79,0,0,0-7.26.636,8.289,8.289,0,0,0-2.164,7.31,6.464,6.464,0,0,0,3.339,4.995c3.047,1.367,6.636-.866,9.891-.123-.7,2.008-2.821,3.06-4.521,4.334s-3.185,3.618-2.039,5.408c.957,1.495,3.183,1.547,4.82.862s3.019-1.909,4.692-2.5a1.845,1.845,0,0,1,1.7.047,2.08,2.08,0,0,1,.631,1.211,69.535,69.535,0,0,1,1.82,10.187,27.449,27.449,0,0,1-.368-11.409c1.312-.87,3.115-.23,4.345.752s2.226,2.293,3.646,2.973a4.879,4.879,0,0,0,6.888-5.39c-.57-2.746-3.331-4.457-5.995-5.337-2.052-.677-4.639-1.537-4.856-3.687-.191-1.888,1.851-3.364,3.748-3.4s3.659.883,5.417,1.6,3.8,1.229,5.508.405c2.67-1.288,3-4.971,2.429-7.881a9.96,9.96,0,0,0-1.8-4.43,4.562,4.562,0,0,0-4.234-1.792c-1.46.284-2.58,1.445-3.948,2.028s-3.462.122-3.546-1.362Z" transform="translate(-984.357 -759.711)" fill="#55583d"/>
        <g id="Grupo_58253" data-name="Grupo 58253" transform="translate(0 59.334)">
          <path id="Trazado_116973" data-name="Trazado 116973" d="M1049.139,886.916s-34.022-35.192-45.22-65.225" transform="translate(-992.036 -811.471)" fill="none" stroke="#55583d" stroke-linecap="round" stroke-miterlimit="10" stroke-width="1.16"/>
          <path id="Trazado_116974" data-name="Trazado 116974" d="M1006.058,823.907s7.052-5.96,5.382-8.857-5.259-3.814-6.815.433S1003.945,823.778,1006.058,823.907Z" transform="translate(-992.046 -812.584)" fill="#55583d"/>
          <path id="Trazado_116975" data-name="Trazado 116975" d="M1004.223,821.3s-9.223-7.974-10.754-2.1,10.022,7.149,11.136,5.669S1004.223,821.3,1004.223,821.3Z" transform="translate(-993.33 -812.04)" fill="#55583d"/>
          <path id="Trazado_116976" data-name="Trazado 116976" d="M1008.62,829.454s-12.125-6.628-12.815,1.017,13.81,6.765,15.53,4.382C1011.274,834.692,1008.62,829.454,1008.62,829.454Z" transform="translate(-993.03 -810.848)" fill="#55583d"/>
          <path id="Trazado_116977" data-name="Trazado 116977" d="M1009.909,836.261s12.156-15.085,7.979-19.13c-5.939-5.754-10.222,10.883-10.666,13.65A48.175,48.175,0,0,1,1009.909,836.261Z" transform="translate(-991.632 -812.175)" fill="#55583d"/>
          <path id="Trazado_116978" data-name="Trazado 116978" d="M1016.146,842.654s-13.146-7.316-14.507-.96,11.57,8.892,17.247,5.157C1018.994,847.031,1016.146,842.654,1016.146,842.654Z" transform="translate(-992.326 -809.344)" fill="#55583d"/>
          <path id="Trazado_116979" data-name="Trazado 116979" d="M1017.353,848.348s13.258-14.017,7.643-19.775-10.474,15.436-10.474,15.436Z" transform="translate(-990.74 -810.751)" fill="#55583d"/>
          <path id="Trazado_116980" data-name="Trazado 116980" d="M1026.093,855.826l-3.121-4.262s-15.87-2.966-19.324,4.561S1014.278,866.469,1026.093,855.826Z" transform="translate(-992.134 -807.891)" fill="#55583d"/>
          <path id="Trazado_116981" data-name="Trazado 116981" d="M1023.886,857.847s16.794-16.348,11.659-22.6-11.175,12.2-14.649,18.425Z" transform="translate(-989.961 -809.971)" fill="#55583d"/>
          <path id="Trazado_116982" data-name="Trazado 116982" d="M1034.54,867.174c.16-.165-13.959,10.781-19.754,3.888s15.253-9.7,15.253-9.7Z" transform="translate(-990.831 -806.623)" fill="#55583d"/>
          <path id="Trazado_116983" data-name="Trazado 116983" d="M1032.767,868.551s12.784-13.2,7.84-17.667-12.319,11.729-12.319,11.729Z" transform="translate(-989.058 -807.999)" fill="#55583d"/>
          <path id="Trazado_116984" data-name="Trazado 116984" d="M1041.726,875.456s-13.351,8.172-17.172,2.873,13.116-7.411,13.116-7.411Z" transform="translate(-989.583 -805.456)" fill="#55583d"/>
          <path id="Trazado_116985" data-name="Trazado 116985" d="M1040.076,876.152c.169.484,11.376-9.765,6.6-14.075s-10.562,9.915-10.562,9.915Z" transform="translate(-988.102 -806.635)" fill="#55583d"/>
        </g>
      </g>
      <g id="Grupo_58266" data-name="Grupo 58266">
        <g id="Grupo_58256" data-name="Grupo 58256" transform="translate(0 95.994)">
          <path id="Trazado_116986" data-name="Trazado 116986" d="M981.3,841.608l-7.314-5.954-2.414,19.45,9.729,2.11Z" transform="translate(-949.377 -785.634)" fill="#cc9475"/>
          <path id="Trazado_116987" data-name="Trazado 116987" d="M1030.1,791.081l-31.052,66.246,20.543,14.81,24.523-53.985S1053.507,801.75,1030.1,791.081Z" transform="translate(-946.019 -791.081)" fill="#f2d5cd"/>
          <path id="Trazado_116988" data-name="Trazado 116988" d="M980.323,841.031l48.569,10.192-7.006,14.81s-2.548,8.121-10.032,6.688-31.61-9.634-31.61-9.634Z" transform="translate(-948.317 -784.977)" fill="#f2d5cd"/>
          <g id="Grupo_58255" data-name="Grupo 58255" transform="translate(3.15 28.425)">
            <path id="Trazado_116989" data-name="Trazado 116989" d="M978.482,862.314a34.359,34.359,0,0,1-10.1,1.542A47.413,47.413,0,0,1,958,862.314l-2.535-37.357h25.548Z" transform="translate(-954.494 -815.366)" fill="#e6e8d2"/>
            <path id="Trazado_116990" data-name="Trazado 116990" d="M982.031,819.965v-3.555l-7.176.05-3.763,3.505H954.6v5.9h27.5v-5.9Z" transform="translate(-954.6 -816.411)" fill="#55583d"/>
          </g>
          <path id="Trazado_116991" data-name="Trazado 116991" d="M954.86,831.588s5.635-3.488,7.646-1.61,2.55,5.232-3.487,7.378C953.906,839.173,949.629,834,954.86,831.588Z" transform="translate(-951.71 -786.396)" fill="#cc9475"/>
          <path id="Trazado_116992" data-name="Trazado 116992" d="M955.285,837.191s8.645-1.5,9.918,1.078c1.694,3.426-.487,5.885-7.428,5.832C951.9,844.057,949.094,837.671,955.285,837.191Z" transform="translate(-951.794 -785.499)" fill="#cc9475"/>
          <path id="Trazado_116993" data-name="Trazado 116993" d="M957.471,843.393s7.6-.961,8.433,1.471c1.111,3.237-1.017,5.4-6.99,5.014C953.855,849.553,952.09,843.537,957.471,843.393Z" transform="translate(-951.501 -784.711)" fill="#cc9475"/>
          <path id="Trazado_116994" data-name="Trazado 116994" d="M978.573,840.67s5.232,1.476,5.365-4.561-9.926-5.232-13.815-3.353S970.256,840.4,978.573,840.67Z" transform="translate(-949.736 -786.156)" fill="#cc9475"/>
        </g>
        <path id="Trazado_116995" data-name="Trazado 116995" d="M1028.206,878.241l4.459,67.361,25.8,1.115-3.344-42.041,5.783,4.489,2.975,36.437,35.353,1.274-6.848-77.393Z" transform="translate(-942.456 -685.506)" fill="#42210b"/>
        <g id="Grupo_58257" data-name="Grupo 58257" transform="translate(77.05 73.382)">
          <path id="Trazado_116996" data-name="Trazado 116996" d="M1027.481,792.46s11.306-13.855,32.964-12.581,31.531,42.36,28.665,57.488c.637,2.069,4.3,42.837,4.3,42.837s-25.161,17.2-64.176,7.643c-2.548-1.592-1.752-50.48-1.752-50.48s-6.529-3.344-7.006-16.721S1027.481,792.46,1027.481,792.46Z" transform="translate(-1020.453 -769.848)" fill="#f2d5cd"/>
          <path id="Trazado_116997" data-name="Trazado 116997" d="M1028.277,777.618l6.37,15.925A24.322,24.322,0,0,0,1052,780.962c-.159.319-3.943-10.031-3.943-10.031Z" transform="translate(-1019.497 -770.931)" fill="#cc9475"/>
          <path id="Trazado_116998" data-name="Trazado 116998" d="M1028.277,777.618l3.851,9.628c5.223-.617,12.777-3.824,18.368-9.81-1.114-2.892-2.435-6.505-2.435-6.505Z" transform="translate(-1019.497 -770.931)" fill="#bf7051"/>
          <path id="Trazado_116999" data-name="Trazado 116999" d="M1027.366,849.949c.017-7.911.115-13.961.115-13.961s-6.529-3.344-7.006-16.721,7.006-28.186,7.006-28.186" transform="translate(-1020.453 -768.469)" fill="none" stroke="#42210b" stroke-linecap="round" stroke-linejoin="round" stroke-width="0.864"/>
        </g>
        <g id="Grupo_58260" data-name="Grupo 58260" transform="translate(47.595)">
          <path id="Trazado_117000" data-name="Trazado 117000" d="M1004.175,726.727s1.353,47.853-9.953,55.657c-.319,1.114,4.141,5.1,10.511,2.547a16.733,16.733,0,0,1-9.4,4.141c-.478,1.114,6.847,5.413,10.988,2.547.8-.8-4.937,5.415-4.937,5.415s16.562,10.67,19.109-5.255S1009.589,728.223,1004.175,726.727Z" transform="translate(-994.206 -702.951)" fill="#844415"/>
          <path id="Trazado_117001" data-name="Trazado 117001" d="M1003.018,729.539l4.777,42.837s1.434,13.217,21.021,14.65c6.529,1.434,24.524-5.413,28.663-21.657.8-6.051,7.326-39.015-16.72-43.155S1003.018,729.539,1003.018,729.539Z" transform="translate(-993.129 -703.613)" fill="#cc9475"/>
          <path id="Trazado_117002" data-name="Trazado 117002" d="M1000.322,729.236s1.752,11.625,19.746,14.173c1.752.955-4.3-6.051-4.3-6.051s3.5,4.777,10.987,3.821c1.433.319-6.848-6.051-6.848-6.051s17.836,7.962,35.512,10.511c2.388,2.069-3.344-10.511-3.344-10.511l12.341,18.074s7.247-44.184-13.694-46.978C1010.115,700.812,1000.322,729.236,1000.322,729.236Z" transform="translate(-993.458 -705.54)" fill="#844415"/>
          <path id="Trazado_117003" data-name="Trazado 117003" d="M1040.62,738.086s-6.9,37.947,18.623,45.648c10.464,1.375,14.623-4.056,14.623-4.056l-7.924-1.782s7.387,1.989,11.268-2.2l-7.3-1.642s9.411.974,10.925-3.582c.02-.811-20.3-3.977-20.256-15.166C1060.713,720.456,1052.8,725.318,1040.62,738.086Z" transform="translate(-988.638 -702.731)" fill="#844415"/>
          <g id="Grupo_58259" data-name="Grupo 58259" transform="translate(12.328 41.161)">
            <g id="Grupo_58258" data-name="Grupo 58258" transform="translate(2.418)">
              <path id="Trazado_117004" data-name="Trazado 117004" d="M1017.371,746.168l-6.051,16.084,5.972,1.672" transform="translate(-1006.86 -741.736)" fill="none" stroke="#42210b" stroke-linecap="round" stroke-linejoin="round" stroke-width="0.864"/>
              <path id="Trazado_117005" data-name="Trazado 117005" d="M1018.892,765.445c2.947.817,6.972.97,8.78-3.313" transform="translate(-1005.935 -739.785)" fill="none" stroke="#42210b" stroke-linecap="round" stroke-linejoin="round" stroke-width="0.864"/>
              <path id="Trazado_117006" data-name="Trazado 117006" d="M1030.579,744.835s-4.8-5.484-9.184-.572" transform="translate(-1005.629 -742.219)" fill="none" stroke="#42210b" stroke-linecap="round" stroke-linejoin="round" stroke-width="0.864"/>
              <path id="Trazado_117007" data-name="Trazado 117007" d="M1016.222,744.065s-6.313-3.635-8.875,2.434" transform="translate(-1007.346 -742.125)" fill="none" stroke="#42210b" stroke-linecap="round" stroke-linejoin="round" stroke-width="0.864"/>
              <path id="Trazado_117008" data-name="Trazado 117008" d="M1024.588,748.631a1.114,1.114,0,1,1,1.114,1.114A1.114,1.114,0,0,1,1024.588,748.631Z" transform="translate(-1005.239 -741.571)" fill="#42210b"/>
              <circle id="Elipse_4215" data-name="Elipse 4215" cx="1.115" cy="1.115" r="1.115" transform="translate(3.106 7.06)" fill="#42210b"/>
            </g>
            <path id="Trazado_117009" data-name="Trazado 117009" d="M1029.233,748.191c3.892-1.518,7.908-.541,8.972,2.184s-1.231,6.163-5.123,7.681-7.909.541-8.972-2.184S1025.341,749.709,1029.233,748.191Z" transform="translate(-1002.911 -741.576)" fill="#cc7c54"/>
            <path id="Trazado_117010" data-name="Trazado 117010" d="M1008.348,751.584c2.458.416,4.054,3.092,3.565,5.976s-3.029,5.409-5.336,4.465c-1.037-.424-1.515-3.928-1.356-6.795C1005.383,752.311,1005.89,751.167,1008.348,751.584Z" transform="translate(-1005.191 -741.084)" fill="#cc7c54"/>
          </g>
        </g>
        <g id="Grupo_58261" data-name="Grupo 58261" transform="translate(103.665 86.802)">
          <path id="Trazado_117011" data-name="Trazado 117011" d="M1132.551,834.787l3.344,58.6s2.07,17.2-13.217,20.065-45.067,10.033-45.067,10.033-17.2,1.114-20.065-14.65-13.058-45.226-13.376-60.354C1045.763,847.845,1132.551,834.787,1132.551,834.787Z" transform="translate(-1044.17 -776.547)" fill="#ac9176"/>
          <path id="Trazado_117012" data-name="Trazado 117012" d="M1044.17,848.176s64.017,3.822,88.381-13.377C1132.551,833.685,1080.8,840.693,1044.17,848.176Z" transform="translate(-1044.17 -776.56)" fill="#878356"/>
          <path id="Trazado_117013" data-name="Trazado 117013" d="M1047.15,857.213h6.371s-3.185-62.265,7.962-71.024,38.817,9,67.17,57.1a.037.037,0,0,1-.01.047c-.539.426,3.624-1.653,3.624-1.653s-36.387-68.077-72.376-57.726c-12.74,6.848-12.74,74.367-12.74,74.367" transform="translate(-1043.806 -782.889)" fill="#ac9176"/>
        </g>
        <g id="Grupo_58262" data-name="Grupo 58262" transform="translate(119.677 87.076)">
          <path id="Trazado_117014" data-name="Trazado 117014" d="M1060.1,795.556l27.39,41.4s17.2,5.573,22.931-7.326c0-.636-18.313-35.193-38.377-46.5C1064.084,784.25,1054.529,787.116,1060.1,795.556Z" transform="translate(-1058.438 -783.134)" fill="#f2d5cd"/>
          <path id="Trazado_117015" data-name="Trazado 117015" d="M1080.217,875.768s-2.28,4.83-2.414,15.838a17.093,17.093,0,0,0,3.7,11.417c1.769,2.15,3.111,4.417,4.682,3.59,1.685-.888-2.659-11.068-2.659-11.068s6.619,11.683,10.136,10.65c2.764-.775-3.3-6.057-3.369-11.3,1.163.545,5.542,8.6,7.2,8.133s1.789-1.972-1.776-10.1c-.011-1.51-1.334-10.643-1.334-10.643Z" transform="translate(-1056.072 -771.814)" fill="#cc9475"/>
          <path id="Trazado_117016" data-name="Trazado 117016" d="M1079.528,879.813s-7.484,12.358-6.268,13.435,3.3,1.087,6.047-3.313C1079.264,889.635,1080.326,882.7,1079.528,879.813Z" transform="translate(-1056.643 -771.32)" fill="#cc9475"/>
          <path id="Trazado_117017" data-name="Trazado 117017" d="M1086.878,826.6l-9.076,59.876,20.065,3.026s14.013-51.755,13.058-57.168S1106,821.023,1106,821.023Z" transform="translate(-1056.072 -778.504)" fill="#f2d5cd"/>
          <path id="Trazado_117018" data-name="Trazado 117018" d="M1067.321,783.921c-6.393,1.564-11.7,4.747-7.218,11.538l25.476,38.512" transform="translate(-1058.438 -783.038)" fill="none" stroke="#42210b" stroke-linecap="round" stroke-linejoin="round" stroke-width="0.864"/>
          <path id="Trazado_117019" data-name="Trazado 117019" d="M1085.081,832.772s.988-3.826,7.516-5.577" transform="translate(-1055.182 -777.75)" fill="none" stroke="#42210b" stroke-linecap="round" stroke-linejoin="round" stroke-width="0.864"/>
        </g>
        <g id="Grupo_58265" data-name="Grupo 58265" transform="translate(95.381 118.818)">
          <g id="Grupo_58263" data-name="Grupo 58263" transform="translate(0 12.926)">
            <path id="Trazado_117020" data-name="Trazado 117020" d="M1048.986,824.716s4.8-.553,6.462,2.584.553,8.677-4.431,12-14.03,3.323-13.661-5.169c-.185-.185-.185-2.4-.554-5.907S1043.264,820.47,1048.986,824.716Z" transform="translate(-1036.788 -822.938)" fill="#878356"/>
            <path id="Trazado_117021" data-name="Trazado 117021" d="M1056.268,849.161s.753-14.262-18.638-23.837" transform="translate(-1036.685 -822.646)" fill="none" stroke="#55583d" stroke-miterlimit="10" stroke-width="0.466"/>
            <path id="Trazado_117022" data-name="Trazado 117022" d="M1053.949,825.607s-4.464,5.784-3.31,9.852a11.378,11.378,0,0,0-11.123,4.359" transform="translate(-1036.455 -822.612)" fill="none" stroke="#55583d" stroke-miterlimit="10" stroke-width="0.466"/>
            <path id="Trazado_117023" data-name="Trazado 117023" d="M1048.924,824.522s-2.858,4.093-.506,8.323c.274.338-10.754-.57-11.123,2.753" transform="translate(-1036.726 -822.745)" fill="none" stroke="#55583d" stroke-miterlimit="10" stroke-width="0.466"/>
            <path id="Trazado_117024" data-name="Trazado 117024" d="M1045.3,823.063s-2.28,4.3-.588,6.753c.061.107-4.613-2.716-7.923.422" transform="translate(-1036.788 -822.923)" fill="none" stroke="#55583d" stroke-miterlimit="10" stroke-width="0.466"/>
            <path id="Trazado_117025" data-name="Trazado 117025" d="M1041.047,823.042s-1.477,2.616,0,4.354c.184.153-3.692-1.216-4.246.815" transform="translate(-1036.786 -822.925)" fill="none" stroke="#55583d" stroke-miterlimit="10" stroke-width="0.466"/>
          </g>
          <path id="Trazado_117026" data-name="Trazado 117026" d="M1111.872,844.173c.93-.853.672-2.448-.117-3.433a16.942,16.942,0,0,0-2.94-2.363,3.661,3.661,0,0,1-1.662-3.2c.214-1.342,1.595-2.28,1.774-3.628.361-2.711-4.173-4.328-3.589-7,.182-.835.857-1.484,1.107-2.3.456-1.49-.612-3.014-1.791-4.034s-2.593-1.9-3.209-3.335.238-3.577,1.792-3.45c.6,3.146,6.814,1.688,7.671,4.774.392,1.407-.707,2.732-1.431,4a1.808,1.808,0,0,0-.306.981c.059.91,1.181,1.261,2.06,1.5a6.675,6.675,0,0,1,3.571,2.22,3.976,3.976,0,0,1,.571,4.026,25.324,25.324,0,0,1-1.626,2.238,2.066,2.066,0,0,0,.016,2.551,2.6,2.6,0,0,0,1.318.514c1.818.346,1.786.847,3.6,1.193-1.064-1.395,1.776-3.518,2.7-5.007s1.718-3.624.43-4.813c-.723-.668-1.808-.7-2.731-1.038a4.356,4.356,0,0,1-2.058-6.187,4.643,4.643,0,0,1-3.936-6.389,1.753,1.753,0,0,1,2.167.254c.609.506,1.03,1.211,1.647,1.7,1.2.957,3.172,1.233,3.531,2.721.311,1.288-.83,2.939.164,3.814a2.662,2.662,0,0,0,1.454.439,7.141,7.141,0,0,1,5.049,3.293,3.884,3.884,0,0,1,.608,3.036c-.684,2.36-4.411,3.328-4.173,5.774.112,1.15,1.124,1.978,1.642,3.011,1.154,2.3-.469,5.211-2.764,6.375a14.783,14.783,0,0,1-7.4,1.772Z" transform="translate(-1028.911 -811.419)" fill="#55583d"/>
          <g id="Grupo_58264" data-name="Grupo 58264" transform="translate(89.055 5.534)">
            <path id="Trazado_117027" data-name="Trazado 117027" d="M1123.511,818.129s-4.8-.554-6.462,2.584-.553,8.676,4.43,12,14.03,3.323,13.661-5.169c.185-.184.185-2.4.554-5.907S1129.233,813.882,1123.511,818.129Z" transform="translate(-1116.123 -816.351)" fill="#878356"/>
            <path id="Trazado_117028" data-name="Trazado 117028" d="M1116.15,842.574s-.753-14.262,18.637-23.838" transform="translate(-1116.146 -816.059)" fill="none" stroke="#55583d" stroke-miterlimit="10" stroke-width="0.466"/>
            <path id="Trazado_117029" data-name="Trazado 117029" d="M1118.01,819.019s4.464,5.785,3.31,9.853a11.373,11.373,0,0,1,11.123,4.358" transform="translate(-1115.918 -816.025)" fill="none" stroke="#55583d" stroke-miterlimit="10" stroke-width="0.466"/>
            <path id="Trazado_117030" data-name="Trazado 117030" d="M1122.729,817.935s2.858,4.092.506,8.322c-.274.338,10.754-.569,11.123,2.754" transform="translate(-1115.341 -816.157)" fill="none" stroke="#55583d" stroke-miterlimit="10" stroke-width="0.466"/>
            <path id="Trazado_117031" data-name="Trazado 117031" d="M1126.015,816.475s2.28,4.3.588,6.753c-.061.107,4.614-2.716,7.922.423" transform="translate(-1114.94 -816.335)" fill="none" stroke="#55583d" stroke-miterlimit="10" stroke-width="0.466"/>
            <path id="Trazado_117032" data-name="Trazado 117032" d="M1129.8,816.454s1.477,2.616,0,4.354c-.184.153,3.692-1.215,4.246.815" transform="translate(-1114.477 -816.338)" fill="none" stroke="#55583d" stroke-miterlimit="10" stroke-width="0.466"/>
          </g>
          <path id="Trazado_117033" data-name="Trazado 117033" d="M1065.654,849.811a159.053,159.053,0,0,1-9.605-24.9,4.565,4.565,0,0,1-.249-2.375,1.6,1.6,0,0,1,1.759-1.281,2.037,2.037,0,0,1,.976.7c1.625,1.835,2.292,4.3,2.985,6.648a113.928,113.928,0,0,0,8.376,20.663,7.784,7.784,0,0,1-5.27.093" transform="translate(-1034.474 -810.222)" fill="#55583d"/>
          <path id="Trazado_117034" data-name="Trazado 117034" d="M1068.209,849.361q-2.515-6.967-4.381-14.148c-.595-2.287-1.131-4.748-.32-6.968.258-.706.821-1.459,1.569-1.381.983.1,1.219,1.407,1.229,2.395a79.375,79.375,0,0,0,1.143,10.977,14.468,14.468,0,0,0,1.846,6.028,3.622,3.622,0,0,1,.782,1.543,1.513,1.513,0,0,1-2.333,1.251" transform="translate(-1033.573 -809.532)" fill="#55583d"/>
          <path id="Trazado_117035" data-name="Trazado 117035" d="M1069.551,849.741a55.544,55.544,0,0,1-1.858-9.514q-.234-1.72-.467-3.442a72.321,72.321,0,0,1-.876-9.732c0-1.7.22-3.61,1.533-4.7a.675.675,0,0,1,.394-.187.709.709,0,0,1,.508.316c1.529,1.825,1.68,4.4,1.759,6.78l.565,17.115a4.563,4.563,0,0,1-.343,2.363,1.573,1.573,0,0,1-2.026.771" transform="translate(-1033.176 -810.105)" fill="#55583d"/>
          <path id="Trazado_117036" data-name="Trazado 117036" d="M1062.671,848.975a2.783,2.783,0,0,1-1.192-1.611c-2.059-4.786-6.022-8.622-7.727-13.546-.3-.869-.443-2.02.315-2.54a1.552,1.552,0,0,1,1.752.163,4.572,4.572,0,0,1,1.129,1.484l4.465,7.942a48.641,48.641,0,0,1,3.541,7.2.64.64,0,0,1,.027.534.611.611,0,0,1-.481.222,5.563,5.563,0,0,1-3.419-.725" transform="translate(-1034.745 -809.017)" fill="#55583d"/>
        </g>
      </g>
    </g>
    <g id="Grupo_58285" data-name="Grupo 58285" transform="translate(591.268 679.698)">
      <g id="Grupo_58270" data-name="Grupo 58270" transform="translate(0 61.469)">
        <g id="Grupo_58268" data-name="Grupo 58268" transform="translate(0 78.93)">
          <path id="Trazado_117037" data-name="Trazado 117037" d="M624.806,856.918s-18.661,1.1-33.538-25.375c3.214.475,20.074,12.433,27.951,20.668-2.128-3.976-15.565-11.326-20.432-30.323,7.753,2.439,22.186,21.647,24.388,26.834-.593-7.317-10.339-22.14-11.972-27.969C612.178,819.918,634.548,840.108,624.806,856.918Z" transform="translate(-591.268 -802.461)" fill="#878356"/>
          <path id="Trazado_117038" data-name="Trazado 117038" d="M629.459,851.137s-13.109-26.684-1.886-46.684c-.043-.355,2.169,29.362,1.491,32.672-.043-.354,5.953-20.872,17.613-26.506C647.587,810.437,629.642,838.347,629.459,851.137Z" transform="translate(-587.387 -804.45)" fill="#878356"/>
          <path id="Trazado_117039" data-name="Trazado 117039" d="M642.2,865.695s-13.535-12.036-13.535-23.369" transform="translate(-586.698 -799.822)" fill="none" stroke="#878356" stroke-linecap="round" stroke-miterlimit="10" stroke-width="0.804"/>
          <path id="Trazado_117040" data-name="Trazado 117040" d="M620.458,851.974A62.556,62.556,0,0,0,644.548,865" transform="translate(-587.701 -798.643)" fill="none" stroke="#878356" stroke-linecap="round" stroke-miterlimit="10" stroke-width="0.804"/>
        </g>
        <path id="Trazado_117041" data-name="Trazado 117041" d="M752.4,778.428c-1.674-4.235-.607-7.632,3.487-9.628,2.545-1.24,5.556-1.255,8.092-2.514a9.393,9.393,0,0,0,3.578-12.927c-2.137-3.334-6.244-4.9-10.186-5.282-2.324-.224-4.85-.05-6.693,1.384-2.287,1.779-2.881,4.931-3.313,7.795q-.729,4.838-1.459,9.674a10.615,10.615,0,0,1-1.282,4.272,3.619,3.619,0,0,1-3.815,1.742q.338-8.655.678-17.31c.079-2,.1-4.185-1.129-5.764a5.363,5.363,0,0,0-5.575-1.587,9.47,9.47,0,0,0-4.851,3.59c-5.048,6.639-3.933,16.318.013,23.665,1.024,1.905,1.961,4.792.038,5.784a2.93,2.93,0,0,1-3.358-1.036c-.824-.96-1.277-2.179-2.007-3.213-2.271-3.221-7.09-4.014-10.622-2.261s-5.743,5.565-6.275,9.471c-.419,3.083.237,6.527,2.577,8.575,3.746,3.279,9.833,1.663,14.149,4.143-1.871,2.555-5.355,3.129-8.336,4.2s-6.117,3.765-5.266,6.815c.712,2.549,3.858,3.6,6.491,3.333s5.135-1.4,7.779-1.517a2.751,2.751,0,0,1,2.4.81,3.1,3.1,0,0,1,.369,2,103.468,103.468,0,0,1-1.854,15.312,40.941,40.941,0,0,1,4.457-16.42c2.249-.664,4.538,1.034,5.864,2.969s2.172,4.239,3.9,5.829a7.271,7.271,0,0,0,12.169-4.673c.387-4.163-2.8-7.807-6.213-10.222-2.628-1.862-5.939-4.216-5.309-7.375.553-2.774,4.107-3.987,6.828-3.214s4.828,2.856,7.021,4.643,4.875,3.411,7.67,2.983c4.368-.67,6.44-5.776,6.9-10.169a14.856,14.856,0,0,0-.632-7.1,6.8,6.8,0,0,0-5.251-4.4c-2.2-.233-4.308.934-6.512,1.166s-4.986-1.337-4.456-3.489Z" transform="translate(-577.052 -732.419)" fill="#878356"/>
        <g id="Grupo_58269" data-name="Grupo 58269" transform="translate(23.14)">
          <path id="Trazado_117042" data-name="Trazado 117042" d="M611.888,772.753c2.066,6.992,4.313,13.408,6.685,19.3l4.851.341-2.809,4.527q2.35,5.387,4.824,10.147l4.824.339-2.486,4.006a132.6,132.6,0,0,0,11.166,16.93l3.561.249-1.463,2.359a102.425,102.425,0,0,0,9.74,10.275l6.017.423-1.925,3.1c11.265,9.115,19.8,11.294,20.034,11.381C651.671,789.016,611.888,772.753,611.888,772.753Z" transform="translate(-611.888 -729.393)" fill="#878356"/>
          <path id="Trazado_117043" data-name="Trazado 117043" d="M642.279,734.115c-1.237,9.051-1.969,17.534-2.287,25.48l5.366,2.884-5.537,3.727q-.084,7.361.293,14.072l5.336,2.867-4.9,3.3a166.272,166.272,0,0,0,4.049,25.08l3.94,2.118-2.885,1.943a128.58,128.58,0,0,0,5.842,16.745l6.656,3.578-3.793,2.553c8.181,16.206,16.807,23.083,17.032,23.3C679.36,773.152,642.279,734.115,642.279,734.115Z" transform="translate(-608.476 -734.115)" fill="#55583d"/>
        </g>
      </g>
      <g id="Grupo_58284" data-name="Grupo 58284" transform="translate(8.711)">
        <g id="Grupo_58272" data-name="Grupo 58272" transform="translate(122.957 109.303)">
          <path id="Trazado_117044" data-name="Trazado 117044" d="M724.778,841.31l13.866-7.76L727.5,789.341s-5.141-11.213-14.782-12.581c-7.026-1-3.464,37.125-1.015,57.882A8.824,8.824,0,0,0,724.778,841.31Z" transform="translate(-708.598 -776.741)" fill="#e6e8d2"/>
          <g id="Grupo_58271" data-name="Grupo 58271" transform="translate(4.328 50.812)">
            <path id="Trazado_117045" data-name="Trazado 117045" d="M712.455,825.376l5.938,19.015,16.1,36.97,15.7-4.151-12.021-39.84-2.325-11.722A21.381,21.381,0,0,0,712.455,825.376Z" transform="translate(-712.455 -822.02)" fill="#e6c9c3"/>
            <path id="Trazado_117046" data-name="Trazado 117046" d="M732.089,875.557l2.841,18.229,17.181-6.963-5.25-17.9Z" transform="translate(-710.056 -816.288)" fill="#e6c9c3"/>
            <path id="Trazado_117047" data-name="Trazado 117047" d="M756.623,890.82c1.713-1.3-.433-6.958-.921-7.853-1.928-3.534-7.059-13.059-11.129-11.651-4.858,1.681-.613,9.439,1.512,10.448C748,882.672,752.709,893.791,756.623,890.82Z" transform="translate(-708.804 -816.013)" fill="#e6c9c3"/>
            <path id="Trazado_117048" data-name="Trazado 117048" d="M750.79,884.873l.421,9.1c.052-6.214-.085-.031-.394,2.72-.356,3.18-3.8,9.983-6.551,9.873-3.515-.141.827-10.25.827-10.25l-.827-9.885Z" transform="translate(-708.736 -814.339)" fill="#e6c9c3"/>
            <path id="Trazado_117049" data-name="Trazado 117049" d="M746.882,882.338l-.544,11.375s-4.589,14.933-7.715,12.97,1.041-12.045,1.041-12.045l-1.228-6.764Z" transform="translate(-709.4 -814.649)" fill="#e6c9c3"/>
            <path id="Trazado_117050" data-name="Trazado 117050" d="M744.439,883.854l-3.226,8.241s-4.814,14.112-7.592,12.49c-3.189-1.861,1.262-12.625,1.262-12.625l-.127-5.237Z" transform="translate(-710.009 -814.464)" fill="#e6c9c3"/>
          </g>
        </g>
        <path id="Trazado_117051" data-name="Trazado 117051" d="M658.648,877.154l-10.032,68.157h29.142l5.414-46.022,21.339-2.707-2.229,48.729h32.645l-3.981-65.45Z" transform="translate(-592.971 -655.167)" fill="#55583d"/>
        <path id="Trazado_117052" data-name="Trazado 117052" d="M681.563,775.707h31.294a12.558,12.558,0,0,1,12.557,12.439c.244,25.666,8.016,84.366,4.194,104.112-2.389,0-70.048,1.114-70.048,1.114s2.607-74.927,6.131-106.967C666.339,780.5,675.622,775.707,681.563,775.707Z" transform="translate(-591.634 -667.564)" fill="#e6e8d2"/>
        <path id="Trazado_117053" data-name="Trazado 117053" d="M683.239,760.252l-.448,16.826s7.08,8.85,14.16,5.84,6.371-6.194,6.371-6.194l-.884-12.389S686.7,759.355,683.239,760.252Z" transform="translate(-588.795 -669.466)" fill="#e6c9c3"/>
        <path id="Trazado_117054" data-name="Trazado 117054" d="M683.962,773.828l-4.956,3.363s7.787,14.691,17.167,16.46c.532.708,10.974-11.5,12.036-16.815C705.378,775.422,700.6,773.12,683.962,773.828Z" transform="translate(-589.257 -667.81)" fill="#e6c9c3"/>
        <path id="Trazado_117055" data-name="Trazado 117055" d="M703.021,773.027l-.621-8.693s-15.742-4.979-19.2-4.083l-.1,3.864C688.312,770.056,694.909,773.452,703.021,773.027Z" transform="translate(-588.757 -669.466)" fill="#d39a7a"/>
        <g id="Grupo_58279" data-name="Grupo 58279" transform="translate(0 182.079)">
          <path id="Trazado_117056" data-name="Trazado 117056" d="M599.114,862.2l2.908,21.063a8.786,8.786,0,0,0,9.906,7.5L628,886.276a27.416,27.416,0,0,1,4.842-.893l54.87-5.08c10.624-1.467,32.9-13.317,31.434-23.941h0c-1.467-10.624-26.121-16-36.745-14.531l-53.13,10.477a30.69,30.69,0,0,1-7.055.559l-15.6-.573A8.786,8.786,0,0,0,599.114,862.2Z" transform="translate(-599.03 -841.592)" fill="#cbb39b"/>
          <path id="Trazado_117057" data-name="Trazado 117057" d="M599.443,864.585l2.908,21.063a8.787,8.787,0,0,0,9.907,7.5l16.076-4.488a27.3,27.3,0,0,1,4.843-.893l54.869-5.08c10.624-1.467,32.9-13.318,31.434-23.942h0c-1.467-10.624-26.12-16-36.744-14.53L629.6,854.694a30.681,30.681,0,0,1-7.055.559l-15.6-.575A8.788,8.788,0,0,0,599.443,864.585Z" transform="translate(-598.99 -841.3)" fill="#c99465"/>
          <g id="Grupo_58275" data-name="Grupo 58275" transform="translate(76.488 4.134)">
            <rect id="Rectángulo_6969" data-name="Rectángulo 6969" width="10.815" height="15.977" transform="translate(1.479 26.131) rotate(-97.86)" fill="#878356"/>
            <g id="Grupo_58273" data-name="Grupo 58273" transform="translate(4.756 28.123)">
              <rect id="Rectángulo_6970" data-name="Rectángulo 6970" width="8.357" height="15.732" transform="translate(1.145 11.169) rotate(-97.859)" fill="#878356"/>
              <path id="Trazado_117058" data-name="Trazado 117058" d="M679.02,870.689c-4.3.595-7.7,1.73-7.591,2.537s3.69.979,7.993.385,7.7-1.729,7.591-2.536S683.322,870.1,679.02,870.689Z" transform="translate(-671.427 -870.336)" fill="#e6e8d2"/>
              <path id="Trazado_117059" data-name="Trazado 117059" d="M680.038,878.068c-4.3.594-7.7,1.729-7.591,2.536s3.691.98,7.993.385,7.7-1.729,7.591-2.536S684.342,877.473,680.038,878.068Z" transform="translate(-671.302 -869.435)" fill="#878356"/>
              <path id="Trazado_117060" data-name="Trazado 117060" d="M678.868,871.538c-2.892.4-5.174,1.163-5.1,1.7s2.48.659,5.371.259,5.174-1.163,5.1-1.7S681.758,871.139,678.868,871.538Z" transform="translate(-671.141 -870.219)" fill="#55583d"/>
            </g>
            <rect id="Rectángulo_6971" data-name="Rectángulo 6971" width="22.368" height="3.195" transform="translate(11.156 30.626) rotate(-97.859)" fill="#55583d"/>
            <g id="Grupo_58274" data-name="Grupo 58274" transform="translate(0.874)">
              <rect id="Rectángulo_6972" data-name="Rectángulo 6972" width="8.357" height="15.731" transform="translate(1.145 11.168) rotate(-97.859)" fill="#878356"/>
              <path id="Trazado_117061" data-name="Trazado 117061" d="M675.56,845.628c-4.3.594-7.7,1.729-7.589,2.536s3.69.98,7.993.386,7.7-1.729,7.589-2.536S679.863,845.035,675.56,845.628Z" transform="translate(-667.968 -845.276)" fill="#e6e8d2"/>
              <path id="Trazado_117062" data-name="Trazado 117062" d="M676.579,853.005c-4.3.595-7.7,1.73-7.591,2.537s3.69.98,7.994.385,7.7-1.729,7.591-2.536S680.881,852.412,676.579,853.005Z" transform="translate(-667.843 -844.374)" fill="#878356"/>
              <path id="Trazado_117063" data-name="Trazado 117063" d="M675.407,846.477c-2.891.4-5.174,1.163-5.1,1.7s2.479.658,5.371.259,5.174-1.163,5.1-1.7S678.3,846.078,675.407,846.477Z" transform="translate(-667.682 -845.158)" fill="#55583d"/>
            </g>
            <rect id="Rectángulo_6973" data-name="Rectángulo 6973" width="8.357" height="8.357" transform="translate(5.085 24.393) rotate(-97.859)" fill="#55583d"/>
          </g>
          <g id="Grupo_58278" data-name="Grupo 58278" transform="translate(19.875 11.948)">
            <rect id="Rectángulo_6974" data-name="Rectángulo 6974" width="10.815" height="15.977" transform="translate(1.479 26.132) rotate(-97.86)" fill="#878356"/>
            <g id="Grupo_58276" data-name="Grupo 58276" transform="translate(4.755 28.124)">
              <rect id="Rectángulo_6975" data-name="Rectángulo 6975" width="8.357" height="15.732" transform="translate(1.145 11.169) rotate(-97.859)" fill="#878356"/>
              <path id="Trazado_117064" data-name="Trazado 117064" d="M628.572,877.653c-4.3.594-7.7,1.729-7.591,2.536s3.69.98,7.993.386,7.7-1.73,7.591-2.537S632.874,877.06,628.572,877.653Z" transform="translate(-620.979 -877.3)" fill="#e6e8d2"/>
              <path id="Trazado_117065" data-name="Trazado 117065" d="M629.59,885.03c-4.3.595-7.7,1.73-7.591,2.537s3.691.979,7.994.385,7.7-1.729,7.59-2.536S633.894,884.437,629.59,885.03Z" transform="translate(-620.854 -876.399)" fill="#878356"/>
              <path id="Trazado_117066" data-name="Trazado 117066" d="M628.42,878.5c-2.892.4-5.174,1.163-5.1,1.7s2.48.658,5.371.259,5.174-1.163,5.1-1.7S631.31,878.1,628.42,878.5Z" transform="translate(-620.693 -877.182)" fill="#55583d"/>
            </g>
            <rect id="Rectángulo_6976" data-name="Rectángulo 6976" width="22.368" height="3.195" transform="translate(11.156 30.627) rotate(-97.859)" fill="#55583d"/>
            <g id="Grupo_58277" data-name="Grupo 58277" transform="translate(0.874)">
              <rect id="Rectángulo_6977" data-name="Rectángulo 6977" width="8.357" height="15.731" transform="matrix(-0.137, -0.991, 0.991, -0.137, 1.145, 11.169)" fill="#878356"/>
              <path id="Trazado_117067" data-name="Trazado 117067" d="M625.112,852.593c-4.3.594-7.7,1.729-7.589,2.536s3.69.98,7.993.385,7.7-1.729,7.589-2.536S629.415,852,625.112,852.593Z" transform="translate(-617.52 -852.239)" fill="#e6e8d2"/>
              <path id="Trazado_117068" data-name="Trazado 117068" d="M626.131,859.97c-4.3.594-7.7,1.729-7.591,2.536s3.69.98,7.993.386,7.7-1.729,7.591-2.536S630.433,859.376,626.131,859.97Z" transform="translate(-617.395 -851.337)" fill="#878356"/>
              <path id="Trazado_117069" data-name="Trazado 117069" d="M624.959,853.441c-2.891.4-5.174,1.162-5.1,1.7s2.479.658,5.371.258,5.174-1.161,5.1-1.7S627.851,853.041,624.959,853.441Z" transform="translate(-617.234 -852.121)" fill="#55583d"/>
            </g>
            <rect id="Rectángulo_6978" data-name="Rectángulo 6978" width="8.357" height="8.357" transform="matrix(-0.137, -0.991, 0.991, -0.137, 5.085, 24.393)" fill="#55583d"/>
          </g>
        </g>
        <path id="Trazado_117070" data-name="Trazado 117070" d="M715.722,779.82a12.508,12.508,0,0,1,2.829,7.823c.156,16.405,3.387,46.309,4.7,70.907" transform="translate(-584.771 -667.061)" fill="none" stroke="#42210b" stroke-linecap="round" stroke-linejoin="round" stroke-width="0.804"/>
        <g id="Grupo_58280" data-name="Grupo 58280" transform="translate(43.075 111.7)">
          <path id="Trazado_117071" data-name="Trazado 117071" d="M644.693,837l15.642,2.8,19.429-41.244s3.138-11.93-3.447-19.1c-4.8-5.226-26.226,26.5-37.5,44.1A8.824,8.824,0,0,0,644.693,837Z" transform="translate(-637.415 -778.877)" fill="#e6e8d2"/>
          <path id="Trazado_117072" data-name="Trazado 117072" d="M638.444,822.282l5.841,61.673h16.243l.866-51.882S652.787,818.1,638.444,822.282Z" transform="translate(-637.289 -773.668)" fill="#e6c9c3"/>
          <path id="Trazado_117073" data-name="Trazado 117073" d="M660.3,867.1l2.111,9.942s1.653,8.543-2.229,10.576a3.5,3.5,0,0,1-4.282-.7,4.165,4.165,0,0,1-3.273,1.533,3.249,3.249,0,0,1-3.185-2.1s-3.562,2.269-5.39,1.107c-.94-.6-2.345-2.184-2.165-3.708.024-.193.919-.059,1.4-.129.184-1.188.506-2.706.506-2.706s-1.542-2.007-.719-9.253C643.992,863.532,660.3,867.1,660.3,867.1Z" transform="translate(-636.87 -768.191)" fill="#e6c9c3"/>
          <path id="Trazado_117074" data-name="Trazado 117074" d="M662.122,829.533l14.622-31.041s3.138-11.93-3.447-19.1" transform="translate(-634.396 -778.814)" fill="none" stroke="#42210b" stroke-linecap="round" stroke-linejoin="round" stroke-width="0.804"/>
        </g>
        <g id="Grupo_58283" data-name="Grupo 58283" transform="translate(70.81)">
          <path id="Trazado_117075" data-name="Trazado 117075" d="M675.966,712.632s-3.594,34.885,2.478,46.373c6.549,12.389,16.46,19.646,30.266,16.637s16.638-14.513,16.815-25.31,3.009-20,1.947-27.433-3.717-22.655-23.894-21.947S675.966,712.632,675.966,712.632Z" transform="translate(-660.568 -676.702)" fill="#e6c9c3"/>
          <circle id="Elipse_4216" data-name="Elipse 4216" cx="9.735" cy="9.735" r="9.735" transform="translate(0 62.833)" fill="#e6c9c3"/>
          <path id="Trazado_117076" data-name="Trazado 117076" d="M676.563,741.864s-11.218.771-12.987-14.451,6.549-19.469,12.921-20C677.381,707.945,684.063,711.889,676.563,741.864Z" transform="translate(-661.982 -675.909)" fill="#844415"/>
          <path id="Trazado_117077" data-name="Trazado 117077" d="M673.8,711.906s3.186-17.167,18.938-25.664c.708,2.478,0,7.257,0,7.257s4.956-10.8,12.92-14.16c.885.885,1.24,9.027,1.24,9.027l4.956-9.027s8.672,1.947,7.964,18.938c.531.708,4.425-13.1,4.425-13.1s14.364,13.716,1.961,33.5C726.354,719.3,673.094,718.1,673.8,711.906Z" transform="translate(-660.704 -679.34)" fill="#844415"/>
          <path id="Trazado_117078" data-name="Trazado 117078" d="M717.174,708.834s8.142,1.77,9.558,12.389-5.755,19.552-5.755,19.552Z" transform="translate(-655.403 -675.736)" fill="#844415"/>
          <path id="Trazado_117079" data-name="Trazado 117079" d="M677.281,744.641a5.841,5.841,0,1,1-5.841-5.841A5.841,5.841,0,0,1,677.281,744.641Z" transform="translate(-661.706 -672.074)" fill="#d39a7a"/>
          <g id="Grupo_58282" data-name="Grupo 58282" transform="translate(21.688 47.024)">
            <path id="Trazado_117080" data-name="Trazado 117080" d="M700.794,746.481s-4.956,11.858-14.691,6.9c0,0,4.778.177,5.31-1.062S697.961,742.587,700.794,746.481Z" transform="translate(-680.888 -718.283)" fill="#844415"/>
            <path id="Trazado_117081" data-name="Trazado 117081" d="M699.194,750.472s1.77,4.6,6.548,1.239" transform="translate(-679.289 -717.671)" fill="none" stroke="#42210b" stroke-linecap="round" stroke-linejoin="round" stroke-width="0.961"/>
            <path id="Trazado_117082" data-name="Trazado 117082" d="M698.563,763.378s.708-2.123,5.486-2.655c.531.355,0,10.8,0,10.8S698.916,770.989,698.563,763.378Z" transform="translate(-679.366 -716.418)" fill="#844415"/>
            <path id="Trazado_117083" data-name="Trazado 117083" d="M701.086,746.281H707.1l-.708-12.213" transform="translate(-679.057 -719.676)" fill="none" stroke="#42210b" stroke-linecap="round" stroke-linejoin="round" stroke-width="0.961"/>
            <path id="Trazado_117084" data-name="Trazado 117084" d="M695.2,731.315a1.239,1.239,0,1,1,1.239,1.239A1.238,1.238,0,0,1,695.2,731.315Z" transform="translate(-679.777 -720.164)" fill="#42210b"/>
            <path id="Trazado_117085" data-name="Trazado 117085" d="M710.18,731.419a1.239,1.239,0,1,1,1.239,1.239A1.239,1.239,0,0,1,710.18,731.419Z" transform="translate(-677.946 -720.151)" fill="#42210b"/>
            <path id="Trazado_117086" data-name="Trazado 117086" d="M694.57,724.076s2.655-2.655,5.309-2.832" transform="translate(-679.854 -721.243)" fill="none" stroke="#42210b" stroke-linecap="round" stroke-linejoin="round" stroke-width="0.961"/>
            <path id="Trazado_117087" data-name="Trazado 117087" d="M711.284,721.506a6.027,6.027,0,0,1,5.488,3.186" transform="translate(-677.811 -721.212)" fill="none" stroke="#42210b" stroke-linecap="round" stroke-linejoin="round" stroke-width="0.961"/>
            <path id="Trazado_117088" data-name="Trazado 117088" d="M704.241,746.625s4.425-2.3,7.787.531,3.894,5.664,7.788,5.133c0-.355-4.07,2.3-7.788,0S706.364,746.979,704.241,746.625Z" transform="translate(-678.672 -718.249)" fill="#844415"/>
            <g id="Grupo_58281" data-name="Grupo 58281" transform="translate(0 14.001)">
              <path id="Trazado_117089" data-name="Trazado 117089" d="M691.6,734.4c4.373,1.559,7.035,5.3,5.943,8.365s-5.521,4.28-9.894,2.721-7.035-5.3-5.944-8.365S687.222,732.839,691.6,734.4Z" transform="translate(-681.456 -733.719)" fill="#e5a49a"/>
              <path id="Trazado_117090" data-name="Trazado 117090" d="M714.44,734.849c3.578-.961,6.406.282,7.078,2.786s-1.065,5.321-4.641,6.282-7.023-.291-7.7-2.794S710.863,735.81,714.44,734.849Z" transform="translate(-678.082 -733.621)" fill="#e5a49a"/>
            </g>
          </g>
        </g>
      </g>
    </g>
    <g id="Grupo_58299" data-name="Grupo 58299" transform="translate(1215.833 683.027)">
      <g id="Grupo_58289" data-name="Grupo 58289" transform="translate(6.736 49.305)">
        <g id="Grupo_58286" data-name="Grupo 58286" transform="translate(115.276 155.385)">
          <path id="Trazado_117091" data-name="Trazado 117091" d="M1261.929,945.773s26.536-41.13,31.687-72.767" transform="translate(-1255.89 -863.693)" fill="none" stroke="#55583d" stroke-linecap="round" stroke-miterlimit="10" stroke-width="1.16"/>
          <path id="Trazado_117092" data-name="Trazado 117092" d="M1289.268,875.516s-8.075-4.476-7-7.642,4.417-4.764,6.769-.9S1291.317,874.98,1289.268,875.516Z" transform="translate(-1253.416 -864.707)" fill="#55583d"/>
          <path id="Trazado_117093" data-name="Trazado 117093" d="M1290.907,872.632s7.5-9.615,10.14-4.152-8.442,8.961-9.821,7.725S1290.907,872.632,1290.907,872.632Z" transform="translate(-1252.396 -864.451)" fill="#55583d"/>
          <path id="Trazado_117094" data-name="Trazado 117094" d="M1288.553,881.46s10.606-8.858,12.768-1.493-12.232,9.319-14.382,7.316C1286.967,887.113,1288.553,881.46,1288.553,881.46Z" transform="translate(-1252.833 -863.2)" fill="#55583d"/>
          <path id="Trazado_117095" data-name="Trazado 117095" d="M1288.286,888.295s-14.855-12.436-11.543-17.216c4.709-6.8,12.141,8.689,13.114,11.319A48.174,48.174,0,0,0,1288.286,888.295Z" transform="translate(-1254.138 -864.137)" fill="#55583d"/>
          <path id="Trazado_117096" data-name="Trazado 117096" d="M1283.933,895.876s11.475-9.729,14.044-3.758-9.622,10.971-15.917,8.409C1281.991,900.724,1283.933,895.876,1283.933,895.876Z" transform="translate(-1253.43 -861.594)" fill="#55583d"/>
          <path id="Trazado_117097" data-name="Trazado 117097" d="M1283.348,901.591s-15.729-11.175-11.34-17.914,13.273,13.106,13.273,13.106Z" transform="translate(-1254.752 -862.56)" fill="#55583d"/>
          <path id="Trazado_117098" data-name="Trazado 117098" d="M1277.4,910.586l2.234-4.787s14.992-5.993,19.842.719S1291.055,918.73,1277.4,910.586Z" transform="translate(-1253.999 -859.987)" fill="#55583d"/>
          <path id="Trazado_117099" data-name="Trazado 117099" d="M1279.2,912.095s-19.65-12.774-15.828-19.906,13.332,9.795,17.95,15.228Z" transform="translate(-1255.774 -861.56)" fill="#55583d"/>
          <path id="Trazado_117100" data-name="Trazado 117100" d="M1271.059,923.238c-.188-.131,15.787,7.863,20.134-.024s-16.846-6.548-16.846-6.548Z" transform="translate(-1254.774 -858.368)" fill="#55583d"/>
          <path id="Trazado_117101" data-name="Trazado 117101" d="M1272.343,924.363s-15.1-10.463-11.123-15.807,14.364,9.111,14.364,9.111Z" transform="translate(-1256.058 -859.494)" fill="#55583d"/>
          <path id="Trazado_117102" data-name="Trazado 117102" d="M1265.322,932.815s14.684,5.421,17.4-.518-14.3-4.722-14.3-4.722Z" transform="translate(-1255.475 -857.037)" fill="#55583d"/>
          <path id="Trazado_117103" data-name="Trazado 117103" d="M1266.467,933.277c-.073.508-13.057-7.368-9.207-12.525s12.287,7.674,12.287,7.674Z" transform="translate(-1256.547 -858.008)" fill="#55583d"/>
        </g>
        <g id="Grupo_58287" data-name="Grupo 58287" transform="translate(121.837)">
          <path id="Trazado_117104" data-name="Trazado 117104" d="M1267.722,733.835c2.361,1.108,5.139,1.072,5.227,4.57s.215,4.489,1.063,5.428,4.182,3.977,5.042,8.142a6.98,6.98,0,0,0,1.776,3.187c.1-1.457.093-2.957-.837-4.034-1.944-2.25.352-5.087,2.005-7.6s2.168-3.829,1.094-5.585.254-4.913,2.428-7.129a5.335,5.335,0,0,0,1.669-4.571,25.233,25.233,0,0,1,2.856,7.133c.708,3.619-2.494,3.185-2.921,8s1.335,5.353-.119,7.518-2.592,3.359-1.443,5.388a8.192,8.192,0,0,1,.779,4.4c.887-2.529,3.491-5.041,4.644-7.075,1.281-2.262-.958-3.989,1.437-7s1.031-2.634,2.661-4.7,3.521-.535,6.135-4.341,4.824-3.243,4.824-3.243c-2.115,4.547,1.359,4.906-.787,8.289s-2.47,2.738-2.063,5.266-1.82,4.025-3.722,6.167-.828,3.9-2.4,6.683-3.126-.162-4.581,2-.533,3.376-2.865,3.434a9.019,9.019,0,0,1-2.849-.16,69.049,69.049,0,0,1,.411,7.124,2.386,2.386,0,0,1,1.321-.93c2.18-.6,2.175-2.216,3.537-2.593a4.542,4.542,0,0,0,2.993-2.443c.788-1.393,2.092-4.1,3.629-4.38s2.482.486,4.158-2.472,1.409-1.27,3.189-2.791,1.9-2.14,3.264-2.518c-.319.969-2.591,3.359-1.866,4.919s-1,3.8-.254,4.913.14,4.217-2.139,4.995-2.772,1.647-3.856,3.562-.614,1.491-5,3.146-2.54,4.078-5.167,4.658c-2.436.539-2.883-1.352-4.087-.907a101.167,101.167,0,0,1-1.784,12.2c1.151-.773,1.587-2.165,2.353-3.858.91-2.013,2.673-1.475,4.407-2.1s2.825-.929,3.636-2.767,2.128-1.323,4.112-1.579,3.641-1.156,5.816-3.372,5.109-.094,5.109-.094-1.8,8.863-5.42,9.572-2.092,4.1-4.447,4.606-3.4-1.7-4.715-.6-4.349,4.433-6.013,3.72a11.688,11.688,0,0,0-5.542-.337c-.865,3.672-1.884,7.242-2.987,10.651,1.071-2.947,2.085-3.572,4.414-3.452,2.68.138,6.519-1.365,7.579-2.832s1.839.811,4.414-.489,4.93-1.8,6.5-.918c-.273.075-3.705,4.107-3.252,5.743s-3.5,5.372-5.341,4.56-3.573-.184-5.353,1.336-3.028-.336-5.656.245c-2.419.535-2.484,1.039-4.733.018a165.468,165.468,0,0,1-12.721,27.56,25.716,25.716,0,0,1-3.7-1.176A146.465,146.465,0,0,0,1278.9,801.7a4.836,4.836,0,0,1-2.04-2.017c-.975-1.931-4.5-3.009-5.819-3.525s-1.7-3.491-1.806-4.93-2.936-2.122-4.206-3.53-.942-6.05-.577-7.911-1.886-6.814-1.886-6.814,1.792,1.7,3.487,3.583,2.286.835,3.307,1.873a7.708,7.708,0,0,1,2.169,3.067c.3,1.091,1.248,1.856,2.443,2.992s.354,1.81,1.306,4.188,3.54,4.3,4.182,3.977.263,3.6-.126,5.905a5.487,5.487,0,0,0-.016,1.8,149.133,149.133,0,0,0,3.928-15.778c-1.391-.588-3.263-.825-3.847-1.155-.87-.493-1.375-2.847-1.654-4.384s-2.912-2.569-4.9-3.924-.958-3.991-1.289-6.246-1.422-1.955-3.313-3.486-2.032-5.747-1.493-7.51c.5-1.636-1.44-5.243-1.8-5.62,3.525,1.794,3.76,4.2,4.406,5.485s2.588,1.924,5.273,3.675,3,6.067,3.6,8.247,1.248,1.855,3.812,4.227.36,3.422,2.005,6.11a128.43,128.43,0,0,0,1.614-17.411,25.884,25.884,0,0,1-2.489-1.625c-1.72-.75-3.611-1.829-4.418-3.186-1.647-2.772-1.161-5.255-4.195-7.2s-6.19-3.276-7.1-6.547-.338-3.868-2.9-6.239-2.142-8.8-2.142-8.8S1265.361,732.728,1267.722,733.835Z" transform="translate(-1262.394 -726.243)" fill="#878356"/>
          <path id="Trazado_117105" data-name="Trazado 117105" d="M1264.675,749.428l-.056-.029C1264.627,749.386,1264.646,749.4,1264.675,749.428Z" transform="translate(-1262.122 -723.414)" fill="#878356"/>
        </g>
        <g id="Grupo_58288" data-name="Grupo 58288" transform="translate(0 57.816)">
          <path id="Trazado_117106" data-name="Trazado 117106" d="M1191.274,783.792c-2,1.67-4.7,2.34-3.9,5.746s.93,4.4.349,5.52-3.037,4.908-2.811,9.155a6.961,6.961,0,0,1-.909,3.533c-.466-1.384-.84-2.837-.214-4.114,1.308-2.669-1.632-4.831-3.867-6.841s-3.069-3.153-2.477-5.125-1.491-4.687-4.158-6.28a5.333,5.333,0,0,1-2.774-4,25.205,25.205,0,0,0-.952,7.624c.232,3.681,3.22,2.449,4.855,7s.066,5.517,2.023,7.24,3.359,2.591,2.763,4.847a8.179,8.179,0,0,0,.364,4.453c-1.5-2.221-4.657-3.989-6.288-5.665-1.812-1.864-.085-4.1-3.166-6.408s-1.665-2.286-3.766-3.869-3.541.376-7.035-2.642-5.49-1.913-5.49-1.913c3.2,3.863-.07,5.09,2.864,7.817s3.084,2.022,3.332,4.572,2.782,3.432,5.166,5.02,1.79,3.561,4.022,5.853,2.983-.949,4.939.774,1.372,3.13,3.643,2.6a9.1,9.1,0,0,0,2.716-.879,68.545,68.545,0,0,0,1.411,6.995,2.392,2.392,0,0,0-1.515-.566c-2.262-.03-2.665-1.591-4.079-1.61a4.536,4.536,0,0,1-3.515-1.6c-1.115-1.147-3.065-3.436-4.622-3.316s-2.277,1.1-4.648-1.335-1.686-.872-3.793-1.891-2.384-1.588-3.8-1.607c.554.856,3.36,2.591,3.054,4.285s1.933,3.421,1.493,4.687.934,4.114,3.336,4.288,3.1.891,4.633,2.468.972,1.286,5.632,1.773,3.491,3.3,6.18,3.2c2.494-.1,2.445-2.04,3.724-1.914a100.936,100.936,0,0,0,4.82,11.343c-1.31-.456-2.084-1.69-3.254-3.134-1.392-1.716-2.96-.747-4.8-.914s-2.967-.182-4.219-1.754-2.394-.741-4.378-.485-3.816-.193-6.482-1.784-4.966,1.205-4.966,1.205,3.991,8.116,7.671,7.882,3.065,3.436,5.471,3.327,2.863-2.507,4.408-1.779,5.332,3.184,6.761,2.072a11.687,11.687,0,0,1,5.275-1.73c1.768,3.331,3.66,6.526,5.592,9.544-1.783-2.58-2.923-2.927-5.145-2.22-2.557.814-6.651.333-8.051-.817s-1.572,1.251-4.392.647-5.226-.495-6.517.76c.283,0,4.626,3.033,4.6,4.73s4.75,4.308,6.323,3.056,3.409-1.085,5.517-.066,2.844-1.093,5.533-1.2c2.477-.1,2.666.374,4.583-1.184a165.483,165.483,0,0,0,19.3,23.429,25.737,25.737,0,0,0,3.28-2.076,146.552,146.552,0,0,1-23.25-28.236,4.834,4.834,0,0,0,1.462-2.468c.453-2.115,3.591-4.053,4.733-4.886s.76-3.809.5-5.226,2.3-2.8,3.172-4.483-.625-6.09-1.45-7.8.1-7.07.1-7.07-1.3,2.1-2.463,4.351-2,1.387-2.722,2.65a7.685,7.685,0,0,0-1.321,3.518c-.016,1.131-.736,2.112-1.6,3.515s.117,1.839-.2,4.381-2.332,5.06-3.037,4.908.659,3.545,1.619,5.68a5.5,5.5,0,0,1,.474,1.737,148.632,148.632,0,0,1-7.8-14.264c1.2-.922,2.947-1.626,3.426-2.093.717-.7.608-3.1.488-4.661s2.165-3.224,3.746-5.041-.087-4.1-.338-6.368.879-2.251,2.32-4.212.507-6.074-.461-7.643c-.9-1.456.061-5.436.317-5.894-2.954,2.63-2.57,5.022-2.869,6.425s-2.014,2.518-4.168,4.893-1.364,6.629-1.394,8.891-.736,2.112-2.615,5.057.52,3.4-.39,6.419a128.49,128.49,0,0,1-5.979-16.43,25.943,25.943,0,0,0,2-2.205c1.474-1.16,3.029-2.684,3.464-4.2.891-3.1-.21-5.376,2.231-8.03s5.155-4.739,5.2-8.133-.655-3.828,1.223-6.772-.16-9.053-.16-9.053S1193.276,782.122,1191.274,783.792Z" transform="translate(-1153.824 -777.763)" fill="#cbb39b"/>
          <path id="Trazado_117107" data-name="Trazado 117107" d="M1193.753,798.39l.046-.042C1193.789,798.338,1193.773,798.354,1193.753,798.39Z" transform="translate(-1148.945 -775.248)" fill="#cbb39b"/>
        </g>
      </g>
      <g id="Grupo_58298" data-name="Grupo 58298">
        <g id="Grupo_58297" data-name="Grupo 58297">
          <g id="Grupo_58291" data-name="Grupo 58291" transform="translate(0 113.243)">
            <g id="Grupo_58290" data-name="Grupo 58290" transform="translate(0 109.255)">
              <path id="Trazado_117108" data-name="Trazado 117108" d="M1163.238,912.8s-6.529,6.907-6.232,8.621,1.679,3.02,4.7,1.055,6.181-7.592,6.181-7.592Z" transform="translate(-1146.701 -876.638)" fill="#cc9475"/>
              <path id="Trazado_117109" data-name="Trazado 117109" d="M1159.85,888.657,1196.6,900.65a4.516,4.516,0,0,1,2.876,5.745l-6.33,18.667a4.518,4.518,0,0,1-5.688,2.84l-36.529-12a4.517,4.517,0,0,1-2.882-5.7l6.108-18.654A4.518,4.518,0,0,1,1159.85,888.657Z" transform="translate(-1147.822 -879.616)" fill="#55583d"/>
              <path id="Trazado_117110" data-name="Trazado 117110" d="M1161.953,891.967l29.787,9.719a3.663,3.663,0,0,1,2.332,4.657l-5.132,15.128a3.662,3.662,0,0,1-4.61,2.3l-29.607-9.73a3.661,3.661,0,0,1-2.336-4.618l4.951-15.119A3.661,3.661,0,0,1,1161.953,891.967Z" transform="translate(-1147.286 -879.206)" fill="#e6e8d2"/>
              <path id="Trazado_117111" data-name="Trazado 117111" d="M1174.484,924.072s-5.917-.044-6.218-1.881,4.092-10.853,6.612-9.273S1174.484,924.072,1174.484,924.072Z" transform="translate(-1145.325 -876.646)" fill="#cc9475"/>
              <path id="Trazado_117112" data-name="Trazado 117112" d="M1179.783,924.622s-5.207-.6-5.133-1.24,2.205-8.5,3.8-8.312C1181.5,915.423,1182.125,922.191,1179.783,924.622Z" transform="translate(-1144.544 -876.361)" fill="#cc9475"/>
              <path id="Trazado_117113" data-name="Trazado 117113" d="M1190.669,884.524s-5-6-10.836-3.205a19.66,19.66,0,0,0-8.45,8.035s-7.749,6.948-6.615,10.215,10.352-1.194,10.916-3.033c.277.7,10.783,4.442,15.721,4.262,2.345-.606,4.926-10.27,4.094-13.693S1190.669,884.524,1190.669,884.524Z" transform="translate(-1145.765 -880.576)" fill="#cc9475"/>
              <path id="Trazado_117114" data-name="Trazado 117114" d="M1151.028,903.81l2.549-7.484h0a.57.57,0,0,1,.54.753l-2.2,6.455a.578.578,0,0,1-.893.276Z" transform="translate(-1147.43 -878.651)" fill="#383819"/>
              <path id="Trazado_117115" data-name="Trazado 117115" d="M1153.724,895.384a.478.478,0,1,1,.478.478A.478.478,0,0,1,1153.724,895.384Z" transform="translate(-1147.1 -878.824)" fill="#383819"/>
              <circle id="Elipse_4217" data-name="Elipse 4217" cx="1.592" cy="1.592" r="1.592" transform="translate(44.206 34.555)" fill="#383819"/>
            </g>
            <path id="Trazado_117116" data-name="Trazado 117116" d="M1212.359,843.151c-.009-.076-.02-.15-.031-.224,2.285-17.477,5.122-48.616-2.466-55.64-10.689-9.9-16.786,1.372-16.786,1.372l-3.279,54.009-.066.03-17.468,54.29,22,7.1S1213.632,853.393,1212.359,843.151Z" transform="translate(-1144.835 -783.218)" fill="#55583d"/>
          </g>
          <path id="Trazado_117117" data-name="Trazado 117117" d="M1195.16,871.136l5.092,76.924,29.46,1.273-3.819-48.009,6.052.1,3.95,46.637,40.371,1.455-7.82-88.381Z" transform="translate(-1142.037 -660.454)" fill="#844415"/>
          <path id="Trazado_117118" data-name="Trazado 117118" d="M1192.965,886.286l-1.991-95.627s11.944-18.949,46.181-16.562a58.965,58.965,0,0,1,18.334,3.936,26.883,26.883,0,0,1,16.232,29.589l.548,78.664Z" transform="translate(-1142.548 -671.115)" fill="#55583d"/>
          <path id="Trazado_117119" data-name="Trazado 117119" d="M1204.526,764.852l14.969,18.313,4.141-.8,15.287-24.683Z" transform="translate(-1140.892 -673.095)" fill="#cc9475"/>
          <path id="Trazado_117120" data-name="Trazado 117120" d="M1221.625,782.093l4.14-14.014,13.217-7.484,4.3,11.943Z" transform="translate(-1138.803 -672.74)" fill="#98c1bd"/>
          <path id="Trazado_117121" data-name="Trazado 117121" d="M1229.455,787.029l-4.14-18.95,13.217-7.484,5.255,13.854Z" transform="translate(-1138.352 -672.74)" fill="#e6e8d2"/>
          <path id="Trazado_117122" data-name="Trazado 117122" d="M1219.862,782.4l-3.63-11.945-11.589-6.38-3.77,10.181Z" transform="translate(-1141.339 -672.315)" fill="#98c1bd"/>
          <path id="Trazado_117123" data-name="Trazado 117123" d="M1212.693,786.6l3.63-16.153-11.589-6.38-4.607,11.81Z" transform="translate(-1141.43 -672.315)" fill="#e6e8d2"/>
          <line id="Línea_408" data-name="Línea 408" x1="1.991" y1="95.626" transform="translate(48.426 119.545)" fill="none" stroke="#878356" stroke-linecap="round" stroke-miterlimit="10" stroke-width="0.804"/>
          <g id="Grupo_58292" data-name="Grupo 58292" transform="translate(108.063 111.476)">
            <path id="Trazado_117124" data-name="Trazado 117124" d="M1277.877,842.024c-.029-.077-.06-.153-.091-.228-2.289-19.026-7.612-52.584-17.108-57.9-13.377-7.485-16.562,6.051-16.562,6.051L1255,847.707l-.058.049L1251.6,909.7l24.045,1.433S1281.851,852.456,1277.877,842.024Z" transform="translate(-1244.117 -781.643)" fill="#55583d"/>
            <path id="Trazado_117125" data-name="Trazado 117125" d="M1253.013,895.919s-5.293,11.982.537,21.61c.627,1.036,3.6,1.577,3.6.366,0-2.069-1.716-6.25-2.23-10.192,1.275.319,1.752,12.1,8.121,11.784s-3.344-7.644-2.388-13.536c0,.159,4.777,12.262,10.988,11.147s-3.443-11.147-3.443-11.147a12.365,12.365,0,0,0,3.495-8.6C1271.8,891.779,1253.013,895.919,1253.013,895.919Z" transform="translate(-1243.299 -767.859)" fill="#cc9475"/>
            <path id="Trazado_117126" data-name="Trazado 117126" d="M1260.678,783.9c-13.377-7.485-16.562,6.051-16.562,6.051L1255,847.707l-.058.049L1251.6,909.7" transform="translate(-1244.117 -781.643)" fill="none" stroke="#878356" stroke-linecap="round" stroke-miterlimit="10" stroke-width="0.804"/>
          </g>
          <g id="Grupo_58296" data-name="Grupo 58296" transform="translate(35.057)">
            <g id="Grupo_58293" data-name="Grupo 58293" transform="translate(60.346 46.133)">
              <ellipse id="Elipse_4218" data-name="Elipse 4218" cx="10.112" cy="10.829" rx="10.112" ry="10.829" fill="#cc9475"/>
              <path id="Trazado_117127" data-name="Trazado 117127" d="M1247.344,735.589c1.825-3.161,2.069-6.436.547-7.316s-4.237.969-6.063,4.131-2.069,6.436-.546,7.316S1245.519,738.75,1247.344,735.589Z" transform="translate(-1231.926 -722.849)" fill="#bf7051"/>
            </g>
            <path id="Trazado_117128" data-name="Trazado 117128" d="M1246.65,725.862s2.385-17.995-24.209-21.657c-14.705-2.026-21.036-.107-24.752,4.463-3.006,3.694-4.3,9.124-6.937,15.6-5.893,14.491-7.007,39.014,3.185,41.722s31.371,8.758,39.97,0S1246.65,725.862,1246.65,725.862Z" transform="translate(-1178.179 -679.729)" fill="#cc9475"/>
            <g id="Grupo_58294" data-name="Grupo 58294" transform="translate(21.808 44.541)">
              <path id="Trazado_117129" data-name="Trazado 117129" d="M1205.166,723.771s-6.529,7.165-3.982,10.35,3.9,3.9,3.9,3.9" transform="translate(-1198.238 -721.78)" fill="none" stroke="#42210b" stroke-linecap="round" stroke-linejoin="round" stroke-width="0.864"/>
              <path id="Trazado_117130" data-name="Trazado 117130" d="M1216.971,728.255a1.433,1.433,0,1,1-1.433-1.434A1.433,1.433,0,0,1,1216.971,728.255Z" transform="translate(-1196.587 -721.408)" fill="#42210b"/>
              <path id="Trazado_117131" data-name="Trazado 117131" d="M1201.361,723.43a1.433,1.433,0,1,1-1.433-1.433A1.433,1.433,0,0,1,1201.361,723.43Z" transform="translate(-1198.495 -721.997)" fill="#42210b"/>
            </g>
            <g id="Grupo_58295" data-name="Grupo 58295" transform="translate(0 34.093)">
              <path id="Trazado_117132" data-name="Trazado 117132" d="M1204.5,737.025a8,8,0,0,1,8.468-1.241c4.944,2.116,4.092,6.584,9.278,6.61s6.167-2.636,6.167-2.636,2.071,14.763-10.161,12.249-11.348-8.409-16.129-8.2C1202.929,744.265,1202.45,737.428,1204.5,737.025Z" transform="translate(-1176.244 -709.95)" fill="#844415"/>
              <path id="Trazado_117133" data-name="Trazado 117133" d="M1206.134,744.415s2.712-9.394-3.654-9.6-15.737,1.1-15.628-4.738c-1.965,1.563-4.729,15.757,4.75,16S1201.481,744.611,1206.134,744.415Z" transform="translate(-1178.348 -710.562)" fill="#844415"/>
              <path id="Trazado_117134" data-name="Trazado 117134" d="M1212.523,716.6l-1.115,6.688s6.052.478,9.078,2.708,3.822-.956,3.663-3.822S1220.008,716.763,1212.523,716.6Z" transform="translate(-1175.109 -712.209)" fill="#844415"/>
              <path id="Trazado_117135" data-name="Trazado 117135" d="M1204.274,721.383l1.752-7.007s-8.6-4.458-10.351,1.114C1194.146,720.354,1203.8,717.4,1204.274,721.383Z" transform="translate(-1177.051 -712.687)" fill="#844415"/>
              <path id="Trazado_117136" data-name="Trazado 117136" d="M1242.911,722.283l4.618.636-1.274,17.677s3.821,11.466,3.185,14.172-3.185-.955-3.185-.955,1.114,16.88-13.377,19.268c-2.23.159-1.911-2.388-1.911-2.388s-7.962,7.484-21.339,6.847a3.3,3.3,0,0,1,0-2.388s-22.931-3.185-27.072-10.511c-.636-.8,0,2.23,0,2.23s-6.37-5.893-1.911-17.2,10.989-27.39,10.989-27.39l1.194-2.628s-6.768,29.54-.4,32.407,8.44-.956,8.44-.956l4.937.956s-6.37,8.121,12.581,8.758,21.02-16.879,21.02-16.879Z" transform="translate(-1179.062 -711.836)" fill="#844415"/>
            </g>
            <path id="Trazado_117137" data-name="Trazado 117137" d="M1231.01,690.129a4.3,4.3,0,1,1,1.176,5.966A4.3,4.3,0,0,1,1231.01,690.129Z" transform="translate(-1172.802 -681.584)" fill="#55583d"/>
            <path id="Trazado_117138" data-name="Trazado 117138" d="M1230.991,720.074l11.147,11.306,9.714-23.727-11.784-11.625Z" transform="translate(-1172.716 -680.63)" fill="#55583d"/>
            <path id="Trazado_117139" data-name="Trazado 117139" d="M1195.089,713.63l8.123-28.346s7.006-4.777,18.631-2.23,22.614,14.65,22.614,14.65l-8.5,23.043s-1.208-14.2-21.036-14.64S1195.089,713.63,1195.089,713.63Z" transform="translate(-1177.103 -682.307)" fill="#e6e8d2"/>
            <path id="Trazado_117140" data-name="Trazado 117140" d="M1236.7,720.67l-40.883-8.2s-20.267-12.983-5.457-19.671S1227.781,693.6,1236.7,720.67Z" transform="translate(-1178.343 -681.305)" fill="#344418"/>
            <path id="Trazado_117141" data-name="Trazado 117141" d="M1197.623,710.412c-15.838-4.948-19.037-22.92,7.716-19.735s32.645,27.868,32.645,27.868l-1.274,2.23s-5.891-24.683-32.645-27.868-23.554,14.786-7.716,19.735Z" transform="translate(-1178.435 -681.33)" fill="#55583d"/>
            <path id="Trazado_117142" data-name="Trazado 117142" d="M1218.824,696.563a11.084,11.084,0,0,1-5.875-3.973,26.378,26.378,0,0,1-3.064-6.587,2.3,2.3,0,0,1-.144-1.707.419.419,0,0,1,.217-.236.5.5,0,0,1,.261,0,22.128,22.128,0,0,1,11.57,6.14,4.488,4.488,0,0,1,1.2,1.732,3.366,3.366,0,0,1-.652,2.92c-.615.833,2.756,2.771,1.914,3.375h-1l-2.744-2.244A1.545,1.545,0,0,1,1218.824,696.563Z" transform="translate(-1175.327 -682.094)" fill="#55583d"/>
          </g>
        </g>
      </g>
    </g>
    <g id="Grupo_58311" data-name="Grupo 58311" transform="translate(814.394 676.409)">
      <g id="Grupo_58303" data-name="Grupo 58303">
        <g id="Grupo_58300" data-name="Grupo 58300">
          <path id="Trazado_117143" data-name="Trazado 117143" d="M825.71,732.124s-19.816,1.165-35.613-26.945c3.412.5,21.315,13.2,29.68,21.946-2.26-4.222-16.529-12.027-21.7-32.2,8.234,2.589,23.559,22.986,25.9,28.494-.631-7.769-10.979-23.51-12.713-29.7C812.3,692.834,836.055,714.274,825.71,732.124Z" transform="translate(-790.097 -674.297)" fill="#878356"/>
          <path id="Trazado_117144" data-name="Trazado 117144" d="M830.65,725.986s-13.921-28.336-2-49.573c-.046-.375,2.3,31.18,1.583,34.7-.045-.376,6.322-22.165,18.7-28.148C849.9,682.767,830.844,712.4,830.65,725.986Z" transform="translate(-785.975 -676.409)" fill="#878356"/>
          <path id="Trazado_117145" data-name="Trazado 117145" d="M844.176,741.444S829.8,728.664,829.8,716.629" transform="translate(-785.245 -671.494)" fill="none" stroke="#878356" stroke-linecap="round" stroke-miterlimit="10" stroke-width="0.854"/>
          <path id="Trazado_117146" data-name="Trazado 117146" d="M821.093,726.874a66.418,66.418,0,0,0,25.581,13.831" transform="translate(-786.309 -670.242)" fill="none" stroke="#878356" stroke-linecap="round" stroke-miterlimit="10" stroke-width="0.854"/>
        </g>
        <g id="Grupo_58301" data-name="Grupo 58301" transform="translate(3.581 201.098)">
          <path id="Trazado_117147" data-name="Trazado 117147" d="M828.622,945.13s-21.031-47.533-21.2-81.568" transform="translate(-791.561 -854.637)" fill="none" stroke="#55583d" stroke-linecap="round" stroke-miterlimit="10" stroke-width="1.232"/>
          <path id="Trazado_117148" data-name="Trazado 117148" d="M809.083,866.412s9.211-3.36,8.606-6.859-3.845-5.727-6.952-2.063S807.024,865.51,809.083,866.412Z" transform="translate(-791.505 -855.609)" fill="#55583d"/>
          <path id="Trazado_117149" data-name="Trazado 117149" d="M808.018,863.2s-6.274-11.324-9.949-6.032,7.373,10.794,9.025,9.727S808.018,863.2,808.018,863.2Z" transform="translate(-792.795 -855.591)" fill="#55583d"/>
          <path id="Trazado_117150" data-name="Trazado 117150" d="M809.467,872.9s-9.66-11.046-13.147-3.679,11.289,11.8,13.876,10.053C810.2,879.089,809.467,872.9,809.467,872.9Z" transform="translate(-792.982 -854.255)" fill="#55583d"/>
          <path id="Trazado_117151" data-name="Trazado 117151" d="M808.65,879.971s17.639-10.588,14.956-16.15c-3.814-7.908-14.172,7.107-15.628,9.7A51.1,51.1,0,0,1,808.65,879.971Z" transform="translate(-791.493 -854.884)" fill="#55583d"/>
          <path id="Trazado_117152" data-name="Trazado 117152" d="M812.1,888.821s-10.426-12.1-14.108-6.266,8.277,13.1,15.3,11.454C813.339,894.226,812.1,888.821,812.1,888.821Z" transform="translate(-792.797 -852.51)" fill="#55583d"/>
          <path id="Trazado_117153" data-name="Trazado 117153" d="M811.709,894.728s18.347-9.12,14.858-16.915-16.091,11.552-16.091,11.552Z" transform="translate(-791.188 -853.122)" fill="#55583d"/>
          <path id="Trazado_117154" data-name="Trazado 117154" d="M817.348,905.369l-1.551-5.391s-14.733-8.765-20.931-2.527S801.675,911.654,817.348,905.369Z" transform="translate(-793.288 -850.77)" fill="#55583d"/>
          <path id="Trazado_117155" data-name="Trazado 117155" d="M814.874,906.432s22.725-10.149,19.894-18.262-15.6,8.069-21.346,13Z" transform="translate(-790.828 -851.903)" fill="#55583d"/>
          <path id="Trazado_117156" data-name="Trazado 117156" d="M821.608,919.607c.22-.107-17.861,5.636-21.114-3.355s18.753-4.083,18.753-4.083Z" transform="translate(-792.448 -848.861)" fill="#55583d"/>
          <path id="Trazado_117157" data-name="Trazado 117157" d="M819.523,920.437S837.1,911.96,833.8,905.7s-16.574,7.181-16.574,7.181Z" transform="translate(-790.362 -849.691)" fill="#55583d"/>
          <path id="Trazado_117158" data-name="Trazado 117158" d="M825.677,930.585s-16.3,3.258-18.168-3.423,15.787-2.587,15.787-2.587Z" transform="translate(-791.567 -847.333)" fill="#55583d"/>
          <path id="Trazado_117159" data-name="Trazado 117159" d="M823.955,930.758c-.008.545,14.914-5.57,11.728-11.614s-14.158,6.016-14.158,6.016Z" transform="translate(-789.837 -848.052)" fill="#55583d"/>
        </g>
        <g id="Grupo_58302" data-name="Grupo 58302" transform="translate(96.864 83.844)">
          <path id="Trazado_117160" data-name="Trazado 117160" d="M907.912,757.525c2.127,1.773,4.99,2.486,4.138,6.1s-.988,4.668-.37,5.862,3.224,5.213,2.985,9.721a7.4,7.4,0,0,0,.965,3.752c.495-1.469.893-3.012.228-4.369-1.389-2.834,1.733-5.13,4.107-7.264s3.258-3.349,2.629-5.443,1.585-4.977,4.415-6.667a5.665,5.665,0,0,0,2.946-4.245,26.8,26.8,0,0,1,1.011,8.1c-.247,3.909-3.419,2.6-5.155,7.429s-.071,5.858-2.148,7.688-3.568,2.752-2.935,5.146a8.681,8.681,0,0,1-.386,4.729c1.594-2.359,4.946-4.236,6.676-6.016,1.926-1.978.092-4.356,3.362-6.8s1.77-2.426,4-4.108,3.759.4,7.47-2.805,5.83-2.031,5.83-2.031c-3.4,4.1.073,5.406-3.041,8.3s-3.275,2.148-3.538,4.855-2.955,3.644-5.484,5.33-1.9,3.781-4.271,6.216-3.168-1.009-5.245.821-1.457,3.324-3.867,2.756a9.618,9.618,0,0,1-2.884-.933,73.218,73.218,0,0,1-1.5,7.427,2.533,2.533,0,0,1,1.608-.6c2.4-.033,2.831-1.691,4.333-1.711a4.816,4.816,0,0,0,3.731-1.7c1.185-1.218,3.254-3.648,4.907-3.52s2.419,1.168,4.938-1.42,1.789-.925,4.028-2.007,2.529-1.687,4.031-1.707c-.588.909-3.566,2.752-3.242,4.549s-2.052,3.633-1.584,4.977-.992,4.37-3.542,4.554-3.291.946-4.921,2.62-1.032,1.366-5.981,1.883-3.708,3.5-6.563,3.393c-2.647-.1-2.6-2.166-3.954-2.033a107.23,107.23,0,0,1-5.118,12.046c1.39-.484,2.213-1.8,3.456-3.328,1.477-1.822,3.143-.793,5.093-.97s3.151-.193,4.48-1.864,2.543-.784,4.649-.513,4.052-.205,6.882-1.9,5.274,1.28,5.274,1.28-4.239,8.619-8.147,8.37-3.254,3.648-5.808,3.534-3.04-2.663-4.682-1.89-5.66,3.381-7.179,2.2a12.4,12.4,0,0,0-5.6-1.838c-1.877,3.537-3.886,6.93-5.938,10.135,1.893-2.739,3.1-3.107,5.463-2.357,2.715.864,7.063.355,8.549-.867s1.67,1.329,4.665.688,5.549-.526,6.92.807c-.3,0-4.913,3.221-4.888,5.023s-5.044,4.573-6.714,3.244-3.62-1.152-5.858-.071-3.02-1.16-5.875-1.271c-2.629-.1-2.831.4-4.867-1.257A175.624,175.624,0,0,1,879.9,862.432s-3.633-2.052-3.484-2.205a155.541,155.541,0,0,0,24.688-29.983,5.138,5.138,0,0,1-1.553-2.62c-.48-2.247-3.813-4.3-5.026-5.188s-.806-4.044-.526-5.55-2.443-2.969-3.368-4.759.663-6.467,1.54-8.281-.1-7.509-.1-7.509,1.381,2.234,2.616,4.62,2.122,1.473,2.891,2.815a8.157,8.157,0,0,1,1.4,3.736c.017,1.2.781,2.242,1.7,3.731s-.123,1.954.214,4.653,2.476,5.373,3.224,5.213-.7,3.764-1.72,6.031a5.832,5.832,0,0,0-.5,1.845,158.242,158.242,0,0,0,8.285-15.147c-1.27-.98-3.13-1.727-3.639-2.222-.761-.741-.645-3.3-.517-4.95s-2.3-3.423-3.978-5.352.092-4.356.359-6.764-.934-2.39-2.463-4.472-.539-6.45.49-8.116c.954-1.545-.065-5.773-.337-6.259,3.137,2.793,2.728,5.333,3.048,6.822s2.138,2.674,4.425,5.2,1.448,7.04,1.48,9.442.781,2.242,2.776,5.369-.551,3.611.413,6.816A136.386,136.386,0,0,0,918.59,791.9a27.606,27.606,0,0,1-2.119-2.341c-1.564-1.233-3.216-2.852-3.679-4.463-.946-3.291.222-5.71-2.369-8.528s-5.475-5.032-5.523-8.635.7-4.065-1.3-7.192.169-9.614.169-9.614S905.785,755.752,907.912,757.525Z" transform="translate(-876.413 -751.123)" fill="#cbb39b"/>
          <path id="Trazado_117161" data-name="Trazado 117161" d="M897.524,773.027l-.049-.045C897.485,772.972,897.5,772.989,897.524,773.027Z" transform="translate(-873.839 -748.452)" fill="#cbb39b"/>
        </g>
      </g>
      <g id="Grupo_58310" data-name="Grupo 58310" transform="translate(1.37 35.463)">
        <path id="Trazado_117162" data-name="Trazado 117162" d="M879.986,745.9s.542,13.36,13.224,19.278,21.138,14.88,16.911,18.6-14.882,4.059-14.543-1.183,23.335,14.88,12.682,26.21-24.519,5.072-25.2-2.2,8.286,8.792.677,10.653-19.784-1.861-19.109-19.615,5.581-52.195,5.581-52.195Z" transform="translate(-782.362 -703.435)" fill="#a3802b"/>
        <g id="Grupo_58304" data-name="Grupo 58304" transform="translate(70.592 104.018)">
          <path id="Trazado_117163" data-name="Trazado 117163" d="M874.125,800.968s10.948-3.931,17.354,18.388c3.142,11.34,20.268,48.223,20.268,48.223l-25.026,11.668Z" transform="translate(-851.791 -800.701)" fill="#878356"/>
          <path id="Trazado_117164" data-name="Trazado 117164" d="M856.516,835.7s34.834-8.624,81-3.72l2.706,60.2s-52.758,13.02-84.549-.339C856.178,891.673,851.613,860.221,856.516,835.7Z" transform="translate(-854.223 -797.063)" fill="#42210b"/>
          <path id="Trazado_117165" data-name="Trazado 117165" d="M913.012,891.006s-.676-7.065-2.939-6.659-4.549,6.6-1.019,8.393S913.012,891.006,913.012,891.006Z" transform="translate(-847.746 -790.482)" fill="#e6c9c3"/>
          <path id="Trazado_117166" data-name="Trazado 117166" d="M906.991,894.321a2.306,2.306,0,0,0,1.459-3.269c-1.291-2.546-3.456-6.3-4.511-5.213-1.558,1.614-2.2,3.461-.756,7C903.925,894.659,905.568,894.706,906.991,894.321Z" transform="translate(-848.339 -790.321)" fill="#e6c9c3"/>
          <path id="Trazado_117167" data-name="Trazado 117167" d="M899.18,893.478c1.937,1.293,4.462-.54,3.6-2.591-.879-2.09-2.113-4.3-3.588-4.953C896.8,884.868,894.661,890.462,899.18,893.478Z" transform="translate(-849.053 -790.302)" fill="#e6c9c3"/>
        </g>
        <path id="Trazado_117168" data-name="Trazado 117168" d="M933.378,836.249s-41.6-41.81-68.823-35.554" transform="translate(-782.368 -696.762)" fill="none" stroke="#42210b" stroke-miterlimit="10" stroke-width="2.136"/>
        <path id="Trazado_117169" data-name="Trazado 117169" d="M835.321,913.944l5.488-109.979A91.238,91.238,0,0,1,882.838,802c1.859,3.045,15.218,111.944,15.218,111.944Z" transform="translate(-785.941 -696.714)" fill="#878356"/>
        <path id="Trazado_117170" data-name="Trazado 117170" d="M826.581,941.633l5.411-43.966H898.2l.92,43.966Z" transform="translate(-787.009 -684.834)" fill="#42210b"/>
        <path id="Trazado_117171" data-name="Trazado 117171" d="M872.114,788.9l-5.6,18.651s-10.992,3.89-14.543-7.61c2.2-6.256,3.774-9.883,3.774-9.883Z" transform="translate(-783.906 -698.125)" fill="#e6c9c3"/>
        <path id="Trazado_117172" data-name="Trazado 117172" d="M852.583,798.742s5.919,6.509,11.5,8.243c1.691,3.638-.168,13.065-7.271,11.2S841.083,805.675,852.583,798.742Z" transform="translate(-784.516 -696.922)" fill="#98c1bd"/>
        <path id="Trazado_117173" data-name="Trazado 117173" d="M867.379,799.24l-5.161,7.727s4.9,10.146,10.315,6.426S867.379,799.24,867.379,799.24Z" transform="translate(-782.654 -696.862)" fill="#98c1bd"/>
        <path id="Trazado_117174" data-name="Trazado 117174" d="M852.824,797.278c4.609,1.589,10.117,1.909,16.65.073l2.536-8.448-16.368,1.158S854.508,792.67,852.824,797.278Z" transform="translate(-783.802 -698.125)" fill="#d39a7a"/>
        <g id="Grupo_58305" data-name="Grupo 58305" transform="translate(37.866 108.164)">
          <path id="Trazado_117175" data-name="Trazado 117175" d="M847.009,907.134a16,16,0,0,0-5.543-8.145H826.911l1.258,15.25c.034,2.8,1.239,7.394,3.2,9.693,2.744,3.208,4.512.458,3.334-1.8-1.005-1.922-1.176-5.018-1.152-7.191.446,2.748,1.564,7.95,3.869,9.942,3.195,2.762,4.53-.223,3.028-2.276-1.6-2.188-2.2-6.4-2.39-8.358.326,1.851,1.334,5.971,4.05,7.713,3.553,2.28,4.45-.86,2.673-2.682-1.229-1.261-1.984-3.653-2.391-5.354l.031,0-.407-6.358a6.919,6.919,0,0,1,1.637,2.522c.166,1.02,1.01,3.68,2.6,3.568C847.514,913.568,848.915,912.905,847.009,907.134Z" transform="translate(-824.835 -792.836)" fill="#e6c9c3"/>
          <path id="Trazado_117176" data-name="Trazado 117176" d="M825.752,910.756h18.77l1.268-61.13s10.315-42.1-3.213-45.15S822.878,884.884,825.752,910.756Z" transform="translate(-825.061 -804.396)" fill="#878356"/>
          <path id="Trazado_117177" data-name="Trazado 117177" d="M825.677,910.747h18.77l1.268-61.13s10.315-42.1-3.213-45.15" transform="translate(-824.985 -804.387)" fill="none" stroke="#42210b" stroke-linecap="round" stroke-linejoin="round" stroke-width="0.918"/>
        </g>
        <path id="Trazado_117178" data-name="Trazado 117178" d="M877.664,801.831c.654,1.073,2.736,15.272,5.158,33.219" transform="translate(-780.766 -696.545)" fill="none" stroke="#42210b" stroke-linecap="round" stroke-linejoin="round" stroke-width="0.918"/>
        <g id="Grupo_58309" data-name="Grupo 58309">
          <g id="Grupo_58306" data-name="Grupo 58306" transform="translate(4.823)">
            <path id="Trazado_117179" data-name="Trazado 117179" d="M824.025,744.857s-9.639,2.2-15.9,0-12.513,2.875-12.513,2.875l7.61,1.184s-5.75,2.2-5.243,4.565c0-.338,5.073-3.043,10.992,0s17.417-3.382,17.417-3.382Z" transform="translate(-795.616 -703.575)" fill="#98c1bd"/>
            <ellipse id="Elipse_4219" data-name="Elipse 4219" cx="34.284" cy="29.931" rx="34.284" ry="29.931" transform="translate(25.948 12.961) rotate(-10.896)" fill="#ac9176"/>
            <path id="Trazado_117180" data-name="Trazado 117180" d="M820.931,744.259s24.349-22.66,71.867-17.925c1.522.507,5.411,5.918,6.087,16.741,1.016.168-75.755,14.711-75.755,14.711Z" transform="translate(-792.523 -705.85)" fill="#98c1bd"/>
            <path id="Trazado_117181" data-name="Trazado 117181" d="M827.075,742.352s-9.528-2.641-13.99-7.546-12.378-3.409-12.378-3.409l6.135,4.654s-6.1-.794-6.781,1.53c.162-.3,5.911-.27,9.674,5.218s16.935,5.29,16.935,5.29Z" transform="translate(-795.073 -705.178)" fill="#98c1bd"/>
            <path id="Trazado_117182" data-name="Trazado 117182" d="M872.464,726.605s-8.792-2.875-7.778-6.765,9.3-3.043,12.005.339-5.411-.507-4.9-4.9,4.9-6.256,7.61-1.353,2.029,5.581,1.353,5.411,1.184-9.639,8.117-7.44.676,11.668-1.691,10.315,5.072-4.735,7.44-1.691-4.566,8.962-5.581,6.088,7.61-.846,7.1,4.4-6.426,4.058-8.285,1.352,6.908-.563,1.679,6.99-11.149-.734-8.106-3.1.677,7.44-3.381,6.256-7.61-6.6-3.72-9.131-1.014,7.61-6.257,4.735-.507-11.837,4.736-8.962-10.545,3.3-10.008-1.057S877.368,724.069,872.464,726.605Z" transform="translate(-787.408 -707.643)" fill="#a3802b"/>
            <path id="Trazado_117183" data-name="Trazado 117183" d="M873.068,726.511a6.426,6.426,0,1,1,6.426,6.426A6.425,6.425,0,0,1,873.068,726.511Z" transform="translate(-786.151 -706.534)" fill="#aa7546"/>
          </g>
          <ellipse id="Elipse_4220" data-name="Elipse 4220" cx="70.683" cy="9.216" rx="70.683" ry="9.216" transform="translate(0 50.821) rotate(-10.896)" fill="#966b3c"/>
          <path id="Trazado_117184" data-name="Trazado 117184" d="M897.6,742.992c.536,2.784-16.34,8.374-37.7,12.484s-39.1,5.187-39.637,2.4,16.342-8.374,37.7-12.484S897.064,740.207,897.6,742.992Z" transform="translate(-787.782 -703.924)" fill="#844415"/>
          <path id="Trazado_117185" data-name="Trazado 117185" d="M835.392,772.166s10.146,37.878,43.458,23.167,8.286-47.855,5.581-53.1c-.677.168-16.356-.177-51.467,8.45C831.9,751.2,833.871,767.939,835.392,772.166Z" transform="translate(-786.266 -703.828)" fill="#e6c9c3"/>
          <path id="Trazado_117186" data-name="Trazado 117186" d="M854.684,745.53s12.683,17.417,29.085,13.7,2.875-7.778-1.353-7.61,3.045,5.581,9.3-1.184-13.528-4.9-13.021-2.706,11.5-1.662,3.045-6.158C882.416,741.542,864.83,742.318,854.684,745.53Z" transform="translate(-783.575 -703.909)" fill="#a3802b"/>
          <path id="Trazado_117187" data-name="Trazado 117187" d="M827.848,753.786s1.753,20.836-6.871,26.923-38.047,13.021-27.055,28.409,28.409-1.183,24.688-7.44-19.277,19.784-1.691,26.549,33.143-4.9,30.1-16.91c-1.522-5.919-3.552,13.021,5.072,9.47s7.441-15.727-1.183-18.094,7.44,13.021,13.359-1.69-19.231-22.959-20.1-52.571A68.816,68.816,0,0,0,827.848,753.786Z" transform="translate(-791.296 -703.07)" fill="#a3802b"/>
          <g id="Grupo_58308" data-name="Grupo 58308" transform="translate(65.754 53.627)">
            <circle id="Elipse_4221" data-name="Elipse 4221" cx="1.353" cy="1.353" r="1.353" transform="translate(12.458 7.779)" fill="#42210b"/>
            <path id="Trazado_117188" data-name="Trazado 117188" d="M879.849,762.574a1.353,1.353,0,1,1,1.352,1.353A1.352,1.352,0,0,1,879.849,762.574Z" transform="translate(-846.253 -755.134)" fill="#42210b"/>
            <path id="Trazado_117189" data-name="Trazado 117189" d="M857.755,761.885s-2.536-3.213,3.551-6.088" transform="translate(-849.017 -755.797)" fill="none" stroke="#42210b" stroke-linecap="round" stroke-linejoin="round" stroke-width="0.918"/>
            <path id="Trazado_117190" data-name="Trazado 117190" d="M879.034,777.646c0,1.775-2.044,3.214-4.565,3.214s-4.566-1.439-4.566-3.214" transform="translate(-847.468 -753.127)" fill="none" stroke="#42210b" stroke-linecap="round" stroke-linejoin="round" stroke-width="0.918"/>
            <path id="Trazado_117191" data-name="Trazado 117191" d="M876.255,759.338s2.79,9.892,2.283,12.091-4.565,3.89-4.565,3.89" transform="translate(-846.971 -755.364)" fill="none" stroke="#42210b" stroke-linecap="round" stroke-linejoin="round" stroke-width="0.918"/>
            <g id="Grupo_58307" data-name="Grupo 58307" transform="translate(0 6.716)">
              <ellipse id="Elipse_4222" data-name="Elipse 4222" cx="5.622" cy="8.032" rx="5.622" ry="8.032" transform="matrix(0.253, -0.967, 0.967, 0.253, 0, 13.125)" fill="#e5a49a"/>
              <path id="Trazado_117192" data-name="Trazado 117192" d="M888.915,761.782a10.474,10.474,0,0,0-4.651,1.144c-3.97,1.977-6.067,5.834-4.682,8.614s5.726,3.428,9.7,1.451a5.755,5.755,0,0,0,1.223-.593A48.193,48.193,0,0,0,888.915,761.782Z" transform="translate(-846.338 -761.782)" fill="#e5a49a"/>
            </g>
          </g>
        </g>
      </g>
      <path id="Trazado_117193" data-name="Trazado 117193" d="M883.423,835.225c-1.709-5.283,4.373-10.836,4.9-16.363.569-5.917,2.936-12.292,8.266-14.923l-1.73,6.865c-1.724,6.841-3.659,14.059-8.736,18.958a77.709,77.709,0,0,1,16.866-20.516c1.794-1.543,3.756-3.051,6.078-3.506.322,1.725-.622,3.414-1.588,4.879a64.065,64.065,0,0,1-19.074,18.751q7.58-4.311,15.464-8.056c3.737-1.775,7.6-3.474,11.707-3.943-.34,3.047-2.878,5.381-5.522,6.934a51.959,51.959,0,0,1-7.721,3.465l-10.908,4.2a33.869,33.869,0,0,1,7.546-.828c1.157,0,2.566.238,2.972,1.322.5,1.347-1,2.557-2.336,3.1a20.634,20.634,0,0,1-16.123-.382" transform="translate(-778.729 -660.825)" fill="#e6e8d2"/>
    </g>
  </g>
</svg>
