<svg xmlns="http://www.w3.org/2000/svg" width="250.067" height="252.526" viewBox="0 0 250.067 252.526">
  <g id="Grupo_57345" data-name="Grupo 57345" transform="translate(-3741.39 -1163.417)">
    <path id="Trazado_114913" data-name="Trazado 114913" d="M4023.926,1350.023c-1.853-1.233-3.75-2.4-5.578-3.669a1.612,1.612,0,0,1-.6-1.227c.222-2.568.592-5.124.8-7.694a1.364,1.364,0,0,1,.942-1.426c2.519-1,5.011-2.077,7.512-3.126.406-.17.805-.355,1.5-.664l-3.673-11.533c-3.225.662-6.165,1.217-9.078,1.892a1.787,1.787,0,0,1-2.257-.827c-1.366-1.94-3-3.688-4.473-5.559a1.461,1.461,0,0,1-.2-1.205c.974-2.573,1.946-5.153,3.074-7.66a1.552,1.552,0,0,0-.816-2.4,7.5,7.5,0,0,1-1.126-.866l-5.585-2.955a3.816,3.816,0,0,1-.7-.14c-2.27-.911-1.833-.9-3.106,1-1.551,2.312-3.062,4.651-4.389,6.671l-10.061-.872-3.987-9.5a38.663,38.663,0,0,0-11.5,3.659c.658,3.17,1.292,6.263,1.948,9.351a1.07,1.07,0,0,1-.455,1.3c-2.119,1.607-4.2,3.27-6.2,5.018a1.259,1.259,0,0,1-1.576.251c-2.582-1.066-5.189-2.071-7.776-3.126a1.084,1.084,0,0,0-1.528.39,34.455,34.455,0,0,0-4.708,9.278c-.231.653.084.933.578,1.249,2.285,1.464,4.534,2.982,6.829,4.43a1.358,1.358,0,0,1,.739,1.63c-.435,2.943-.7,5.911-1.053,9.107l-9.113,3.826a36.036,36.036,0,0,0,3.581,11.663l9.863-2.1c1.916,2.179,3.645,4.251,5.5,6.2a1.728,1.728,0,0,1,.427,2.215c-1.068,2.449-2.042,4.94-3.028,7.424-.195.491-.581,1.063.186,1.462q4.681,2.431,9.359,4.864c.663.344,1.079.119,1.475-.506,1.473-2.326,3.048-4.589,4.48-6.939.553-.907,1.154-.945,2.092-.826a63.239,63.239,0,0,0,6.981.584,1.52,1.52,0,0,1,1.719,1.166c1.109,2.863,2.33,5.682,3.483,8.459,2.489-.017,9.256-2.187,11.69-3.723-.661-3.051-1.3-6.143-2.019-9.215a1.311,1.311,0,0,1,.631-1.568c1.89-1.507,3.672-3.148,5.547-4.675a1.6,1.6,0,0,1,1.321-.262c2.305.884,4.58,1.85,6.854,2.815,1.271.539,1.782.762,2.267.432l5.244-9.911C4025.979,1351.4,4025.426,1351.02,4023.926,1350.023Zm-19.757-3.331a18.147,18.147,0,0,1-24.527,7.554h0a18.147,18.147,0,0,1-7.554-24.527h0a18.147,18.147,0,0,1,24.527-7.554h0a18.147,18.147,0,0,1,7.554,24.527Z" transform="translate(-175.924 -114.648)" fill="#e57c0a"/>
    <path id="Trazado_114914" data-name="Trazado 114914" d="M4791.681,1451.393c-.68-.452-1.376-.881-2.047-1.347a.591.591,0,0,1-.218-.451c.081-.943.217-1.881.292-2.824a.5.5,0,0,1,.346-.524c.924-.368,1.839-.762,2.757-1.148.148-.062.3-.13.552-.243l-1.348-4.234c-1.184.243-2.263.447-3.333.694a.655.655,0,0,1-.828-.3c-.5-.712-1.1-1.354-1.642-2.041a.535.535,0,0,1-.072-.442c.357-.945.714-1.892,1.128-2.812a.57.57,0,0,0-.3-.88,2.744,2.744,0,0,1-.414-.318l-2.05-1.085a1.458,1.458,0,0,1-.256-.051c-.833-.335-.673-.329-1.141.368-.569.849-1.124,1.708-1.611,2.449l-3.693-.32c-.473-1.126-.967-2.3-1.464-3.486a14.2,14.2,0,0,0-4.22,1.343c.241,1.164.474,2.3.715,3.432a.392.392,0,0,1-.167.478c-.778.59-1.542,1.2-2.276,1.842a.463.463,0,0,1-.579.092c-.948-.391-1.9-.76-2.854-1.147a.4.4,0,0,0-.561.143,12.664,12.664,0,0,0-1.729,3.406c-.084.24.031.342.212.458.839.537,1.665,1.095,2.507,1.626a.5.5,0,0,1,.271.6c-.16,1.08-.256,2.169-.386,3.343l-3.346,1.4a13.223,13.223,0,0,0,1.315,4.281l3.62-.769c.7.8,1.338,1.561,2.02,2.277a.635.635,0,0,1,.157.813c-.392.9-.75,1.813-1.111,2.725-.072.18-.214.391.068.537l3.436,1.785c.243.126.4.044.542-.186.541-.854,1.119-1.685,1.644-2.547.2-.333.424-.347.768-.3a23.277,23.277,0,0,0,2.563.214.558.558,0,0,1,.632.428c.406,1.051.855,2.086,1.278,3.105a12.683,12.683,0,0,0,4.291-1.367c-.243-1.12-.476-2.255-.741-3.383a.481.481,0,0,1,.232-.576c.693-.553,1.348-1.156,2.037-1.716a.585.585,0,0,1,.485-.1c.846.325,1.681.679,2.516,1.033.466.2.654.28.832.159l1.925-3.638C4792.435,1451.9,4792.231,1451.759,4791.681,1451.393Zm-7.252-1.222a6.662,6.662,0,0,1-9,2.773h0a6.662,6.662,0,0,1-2.772-9h0a6.661,6.661,0,0,1,9-2.773h0a6.661,6.661,0,0,1,2.773,9Z" transform="translate(-869.333 -228.678)" fill="#ffd800"/>
    <g id="Grupo_57325" data-name="Grupo 57325" transform="translate(3752.982 1266.264)">
      <g id="Grupo_57324" data-name="Grupo 57324" transform="translate(0 0)">
        <path id="Trazado_114915" data-name="Trazado 114915" d="M3870.3,1932.387s-34.811-17.164-40.8-26.116,2.814-9.459,2.814-9.459-15.535-15.109-13.349-21.469,10.233-.527,10.233-.527-9.989-22.235-5.279-24.471c8.772-4.163,21.079,19.761,21.079,19.761s-2.645-10.393,3.4-10.055c9.11.509,8.734,24.019,8.734,24.019s1.029-9.014,6.52-6.086C3873.5,1883.237,3870.3,1932.387,3870.3,1932.387Z" transform="translate(-3818.758 -1849.858)" fill="#5b6b1a"/>
      </g>
      <path id="Trazado_114916" data-name="Trazado 114916" d="M3894.94,1874.347c-4.288-2.379-8.558,4.575-8.558,4.575s.433-18.362-8.677-18.872c-6.041-.338-3.4,10.055-3.4,10.055s-12.307-23.924-21.079-19.761l46.419,81.661C3899.976,1926.3,3903.434,1879.061,3894.94,1874.347Z" transform="translate(-3848.064 -1849.859)" fill="#748828"/>
    </g>
    <g id="Grupo_57327" data-name="Grupo 57327" transform="translate(3741.39 1309.704)">
      <g id="Grupo_57326" data-name="Grupo 57326" transform="translate(0 2.677)">
        <path id="Trazado_114917" data-name="Trazado 114917" d="M3803.626,2194.29s-28.471,3.536-35.842.385-2.089-7.043-2.089-7.043-15.829-3.111-17.05-7.967,6.081-4.468,6.081-4.468-15.178-9.829-13.149-13.137c3.78-6.161,21.177,3.76,21.177,3.76s-5.873-5.408-1.967-7.652c5.889-3.384,15.208,11.432,15.208,11.432s-.579-3.652,4.036-4.057C3788.31,2164.817,3803.626,2194.29,3803.626,2194.29Z" transform="translate(-3741.39 -2157.665)" fill="#5b6b1a"/>
      </g>
      <path id="Trazado_114918" data-name="Trazado 114918" d="M3781.277,2147.7c-4.614.405-4.223,6.711-4.223,6.711s-9.486-17.563-15.376-14.179c-3.9,2.244.715,9.614.715,9.614s-15.977-9.137-19.756-2.976l62.135,32.073C3802.66,2175.25,3789.011,2147.02,3781.277,2147.7Z" transform="translate(-3742.45 -2139.797)" fill="#748828"/>
    </g>
    <path id="Trazado_114919" data-name="Trazado 114919" d="M5154.563,2084.893l1.53-3.7a5.219,5.219,0,0,1,6.781-2.9h0c6.448,2.815,9.252,10.65,6.261,17.5l-2.186,5.008a6.288,6.288,0,0,0,.668,6.309,5.558,5.558,0,0,1,.551,5.558l-1.153,2.64a10.5,10.5,0,0,1-6.554,5.848,6.367,6.367,0,0,0-3.958,3.576l-1.633,3.738a7.936,7.936,0,0,1-10.311,4.408l-2.22-.969a7.937,7.937,0,0,1-3.777-10.559h0c2.917-4.941,2.685-8.63,1.65-11.131a14.961,14.961,0,0,1,.143-11.677l.23-.529a14.859,14.859,0,0,1,9.078-8.216C5151.427,2089.242,5153.262,2087.872,5154.563,2084.893Z" transform="translate(-1187.225 -777.467)" fill="#e57c0a"/>
    <path id="Trazado_114920" data-name="Trazado 114920" d="M3950.759,2316.085c-4.133-5.358-26.794-34.063-41.57-38.846-16.31-5.28-.938,15.691-.938,15.691s-28.934-31.638-39.551-28.786c-9.733,2.614,0,22.225,0,22.225s-10.962-10.86-24.256-10.86c-12.938,0,9.039,38.514,10.224,40.576Z" transform="translate(-84.157 -935.655)" fill="#f7971e"/>
    <g id="Grupo_57328" data-name="Grupo 57328" transform="translate(3941.502 1254.733)">
      <path id="Trazado_114921" data-name="Trazado 114921" d="M5165.207,1844.851a71.45,71.45,0,0,1-6.627,7.5c-2.456,2.114-4.8,4.136-7.928,10.859s-3.041,7.493-3.873,9.224-5.2,8.512-5.531,9.865-7.463,7.833-9.671,11.13-5.83,7.9-6.3,10.555l.644-.013a29.029,29.029,0,0,1,7.581-11.225c5.66-5.212,5.328-6.522,10.86-8.59s10.67-10.137,10.67-10.137,7.094-8.413,8.021-13.429S5166.309,1851.4,5165.207,1844.851Z" transform="translate(-5118.042 -1834.07)" fill="#5b6b1a"/>
      <path id="Trazado_114922" data-name="Trazado 114922" d="M5154.836,1772.894s-1.083,3.923-2.907,5.979-3.257,3.229-4.081,5.72-3.152,8.867-7.459,11.243-6.995,11.869-10.381,14.143-4.227,4.278-4.884,9.375-.562,12.4-6.59,20.49l-.368-2.448s4.538-6.758,4.866-11.256-.518-11.607,1.081-14.551-1.484-4.308,1.565-8.613,2.635-6.144,6.236-9.642c0,0,.316-.129,1.821-3.447s8.593-8.393,11.683-9.969S5153.041,1775.72,5154.836,1772.894Z" transform="translate(-5112 -1772.894)" fill="#5b6b1a"/>
      <path id="Trazado_114923" data-name="Trazado 114923" d="M5139.341,1887.441s-4.325,4.577-5.162,7.976-1.112,6.258-3.763,10.562-.23,7.978-1.726,10.347a24.854,24.854,0,0,0-2.784,7.725c-.512,2.32-5.863,9.149-7.309,12.9s-.754,3.926-.754,3.926,1.782-4.982,3-6.484a88.281,88.281,0,0,0,6.18-8.88c1.108-2.122,3.027-3.2,5.281-6.711s4.943-6.277,6.058-11.738S5142.99,1896.384,5139.341,1887.441Z" transform="translate(-5111.586 -1870.279)" fill="#748828"/>
      <path id="Trazado_114924" data-name="Trazado 114924" d="M5135.314,2113.3s3.006-6.386,9.246-5.643,9.533,2.777,14.973-1.134,9.748-11.124,11.433-12.147c0,0-1.9-1.613-6.271.908s-7.484,4.481-10.017,5.951-3.924-.2-6.418.582c-2.09.652-5.193,3.219-6.621,4.61a7.6,7.6,0,0,1-1.542,1.165c-.512.291-1.125.651-1.528.927-.808.552-3.729,4.695-3.729,4.695Z" transform="translate(-5126.175 -2045.78)" fill="#748828"/>
      <path id="Trazado_114925" data-name="Trazado 114925" d="M5084.287,2001.131s4.056-7.722,3.555-12.079-4.3-8.379-3.536-10.864,5.243-8.644,4.072-14.276c0,0-1.948,4.328-3.065,5.132s-8.117,3.465-8.293,9.088,5.417,8.248,6.5,10.167,3.039,2.372,2.807,3.427a41.737,41.737,0,0,1-2.268,8.591Z" transform="translate(-5077.016 -1935.293)" fill="#3c8f7c"/>
      <path id="Trazado_114926" data-name="Trazado 114926" d="M5122.483,1931.161l5.03-7.976s3.392-6.567,5.771-12.148,6.06-23.6,6.06-23.6-4.326,4.577-5.162,7.976-1.112,6.258-3.763,10.562-.231,7.978-1.725,10.347a24.869,24.869,0,0,0-2.785,7.725c-.51,2.32-5.862,9.149-7.308,12.9a9.85,9.85,0,0,0-.916,3.5C5117.99,1936.951,5122.483,1931.161,5122.483,1931.161Z" transform="translate(-5111.588 -1870.279)" fill="#748828"/>
      <path id="Trazado_114927" data-name="Trazado 114927" d="M5153.107,2107.827c-2.812-.088-5.171-.83-8.913.8a27.4,27.4,0,0,0-6.208,3.731s-2.029,2.229-2.936,3.442c-.134.186-.212.3-.212.3l.476.085s3.006-6.386,9.246-5.643,9.533,2.777,14.973-1.135,9.748-11.124,11.433-12.147a70.641,70.641,0,0,0-8.954,4.983C5158.456,2104.736,5155.919,2107.915,5153.107,2107.827Z" transform="translate(-5126.175 -2048.663)" fill="#748828"/>
      <path id="Trazado_114928" data-name="Trazado 114928" d="M5085.313,1969.044c-1.117.8-8.117,3.465-8.293,9.088s5.417,8.248,6.5,10.167,3.039,2.372,2.807,3.427a41.737,41.737,0,0,1-2.268,8.591l.1.356a49.286,49.286,0,0,0,2.162-5.209,11.374,11.374,0,0,0,.328-6.408c-.368-2.448-4.831-8.3-5.658-11.017s4.16-5.79,5.51-7.517,1.878-6.608,1.878-6.608S5086.43,1968.24,5085.313,1969.044Z" transform="translate(-5077.016 -1935.293)" fill="#327f6b"/>
    </g>
    <path id="Trazado_114929" data-name="Trazado 114929" d="M4632.877,2316.085c4.133-5.358,26.794-34.063,41.57-38.846,16.31-5.28.938,15.691.938,15.691s28.933-31.638,39.551-28.786c9.733,2.614,0,22.225,0,22.225s10.963-10.86,24.256-10.86c12.938,0-9.039,38.514-10.224,40.576Z" transform="translate(-757.919 -935.655)" fill="#f7971e"/>
    <g id="Grupo_57332" data-name="Grupo 57332" transform="translate(3748.924 1304.077)">
      <g id="Grupo_57329" data-name="Grupo 57329" transform="translate(4.636 27.147)">
        <path id="Trazado_114930" data-name="Trazado 114930" d="M3871.307,2332.472a238.249,238.249,0,0,0-48.367-49.007c-.191-.144-.448.188-.256.336a238.009,238.009,0,0,1,47.618,48.94Z" transform="translate(-3822.617 -2283.43)" fill="#ffd800"/>
      </g>
      <path id="Trazado_114931" data-name="Trazado 114931" d="M3874.6,2368.486a8.4,8.4,0,0,1,3.112-1.874,6.49,6.49,0,0,1,3.211-.121,7.006,7.006,0,0,0-3.143-1.735c-1.863-.544-4.423-.087-5.26.652-1.9,1.285-2.051,3.468-1.11,3.873C3872.349,2369.712,3873.6,2369.117,3874.6,2368.486Z" transform="translate(-3858.988 -2325.222)" fill="#ffd800"/>
      <path id="Trazado_114932" data-name="Trazado 114932" d="M3822.693,2322.753a8.41,8.41,0,0,1,3.112-1.873,6.477,6.477,0,0,1,3.21-.121,7,7,0,0,0-3.143-1.735c-1.863-.544-4.423-.087-5.26.652-1.9,1.285-2.051,3.468-1.11,3.873C3820.438,2323.979,3821.687,2323.385,3822.693,2322.753Z" transform="translate(-3814.854 -2286.341)" fill="#ffd800"/>
      <path id="Trazado_114933" data-name="Trazado 114933" d="M3957.28,2350.215a5.979,5.979,0,0,0-2.562,1.952,4.57,4.57,0,0,0-.719,2.738,7.571,7.571,0,0,1-1.265-3.421c-.235-1.834.721-3.873,1.66-4.3,1.714-1.134,4.061-.394,4.318.584C3959,2348.748,3958.136,2349.594,3957.28,2350.215Z" transform="translate(-3928.572 -2309.994)" fill="#ffd800"/>
      <g id="Grupo_57331" data-name="Grupo 57331" transform="translate(16.533 0)">
        <g id="Grupo_57330" data-name="Grupo 57330" transform="translate(4.159 4.981)">
          <path id="Trazado_114934" data-name="Trazado 114934" d="M3939.81,2146.238A190.653,190.653,0,0,1,3965.192,2207l.811-.217a191.877,191.877,0,0,0-25.284-60.249c-2.743-4.287-5.7-9.371-10.84-11.043-.1-.032-.137.118-.042.154C3934.526,2137.412,3937.243,2142.23,3939.81,2146.238Z" transform="translate(-3929.781 -2135.486)" fill="#ffd800"/>
        </g>
        <path id="Trazado_114935" data-name="Trazado 114935" d="M3967.135,2109.566a8.407,8.407,0,0,0-1.812,3.149,6.485,6.485,0,0,0-.057,3.212,7,7,0,0,1-1.8-3.109c-.581-1.852-.174-4.42.548-5.271,1.248-1.924,3.427-2.119,3.85-1.186C3968.316,2107.288,3967.747,2108.549,3967.135,2109.566Z" transform="translate(-3954.027 -2105.283)" fill="#ffd800"/>
        <path id="Trazado_114936" data-name="Trazado 114936" d="M3949.327,2218.31a8.415,8.415,0,0,1,3.112-1.873,6.49,6.49,0,0,1,3.21-.121,7.006,7.006,0,0,0-3.143-1.735c-1.863-.544-4.423-.087-5.26.652-1.9,1.285-2.051,3.468-1.11,3.873C3947.073,2219.536,3948.322,2218.942,3949.327,2218.31Z" transform="translate(-3939.048 -2197.546)" fill="#ffd800"/>
        <path id="Trazado_114937" data-name="Trazado 114937" d="M3977.813,2266.519a8.41,8.41,0,0,1,3.112-1.873,6.482,6.482,0,0,1,3.21-.121,7,7,0,0,0-3.143-1.735c-1.863-.544-4.423-.087-5.26.652-1.9,1.285-2.051,3.468-1.11,3.873C3975.558,2267.745,3976.807,2267.151,3977.813,2266.519Z" transform="translate(-3963.266 -2238.532)" fill="#ffd800"/>
        <path id="Trazado_114938" data-name="Trazado 114938" d="M4005.588,2163.915a8.41,8.41,0,0,0-2.285,2.823,6.487,6.487,0,0,0-.563,3.163,7,7,0,0,1-1.284-3.353c-.281-1.92.525-4.393,1.372-5.119,1.535-1.7,3.718-1.552,3.989-.564C4007.114,2161.851,4006.352,2163.006,4005.588,2163.915Z" transform="translate(-3986.509 -2151.458)" fill="#ffd800"/>
        <path id="Trazado_114939" data-name="Trazado 114939" d="M4039.028,2214.493c-.528.28-2.373.788-3.3,2.169a5.6,5.6,0,0,0-1.114,3.288,9.292,9.292,0,0,1-1.254-4.294c-.131-2.264,1.214-4.677,2.4-5.123,2.194-1.241,5-.134,5.232,1.084C4041.255,2212.845,4040.129,2213.807,4039.028,2214.493Z" transform="translate(-4013.674 -2193.845)" fill="#ffd800"/>
        <path id="Trazado_114940" data-name="Trazado 114940" d="M4081.891,2296.2c-.568.188-2.472.378-3.619,1.583a5.6,5.6,0,0,0-1.651,3.054,9.285,9.285,0,0,1-.514-4.444c.252-2.254,1.983-4.406,3.227-4.647,2.372-.854,4.953.709,4.975,1.949C4084.364,2294.947,4083.092,2295.706,4081.891,2296.2Z" transform="translate(-4049.931 -2263.143)" fill="#ffd800"/>
        <path id="Trazado_114941" data-name="Trazado 114941" d="M3904.261,2136.491a4.99,4.99,0,0,1,1.759-1.244,3.848,3.848,0,0,1,1.894-.212,4.156,4.156,0,0,0-1.935-.889,4.07,4.07,0,0,0-3.083.616c-1.067.843-1.062,2.141-.487,2.339C3902.98,2137.315,3903.693,2136.909,3904.261,2136.491Z" transform="translate(-3902.023 -2129.302)" fill="#ffd800"/>
        <path id="Trazado_114942" data-name="Trazado 114942" d="M3920.223,2104.156a4.985,4.985,0,0,0,.088,2.153,3.847,3.847,0,0,0,.988,1.629,4.149,4.149,0,0,1-1.885-.99,4.072,4.072,0,0,1-1.395-2.818c.017-1.36,1.048-2.147,1.556-1.814S3920.207,2103.452,3920.223,2104.156Z" transform="translate(-3915.615 -2102.24)" fill="#ffd800"/>
      </g>
      <path id="Trazado_114943" data-name="Trazado 114943" d="M3793.911,2284.958a4.98,4.98,0,0,1,1.759-1.245,3.849,3.849,0,0,1,1.894-.212,4.153,4.153,0,0,0-1.935-.888,4.07,4.07,0,0,0-3.083.615c-1.067.843-1.061,2.141-.487,2.34C3792.631,2285.782,3793.344,2285.376,3793.911,2284.958Z" transform="translate(-3791.673 -2255.526)" fill="#ffd800"/>
      <path id="Trazado_114944" data-name="Trazado 114944" d="M3813.1,2251.92a5,5,0,0,0-.088,2.153,3.853,3.853,0,0,0,.851,1.705,4.159,4.159,0,0,1-1.8-1.141,4.069,4.069,0,0,1-1.159-2.923c.127-1.354,1.22-2.055,1.7-1.68S3813.141,2251.217,3813.1,2251.92Z" transform="translate(-3808.002 -2227.805)" fill="#ffd800"/>
    </g>
    <g id="Grupo_57333" data-name="Grupo 57333" transform="translate(3756.521 1363.563)">
      <path id="Trazado_114945" data-name="Trazado 114945" d="M3842.421,2499.372c12.071,1.323,23.313,6.652,34.136,11.847,7.3,3.5,6.93,4.5,8.416,5.024a.3.3,0,0,0,.365-.409c-.572-1.133-2.072-1.9-3.115-2.551a40.518,40.518,0,0,0-3.771-2.054c-2.755-1.338-5.581-2.541-8.389-3.761a121.638,121.638,0,0,0-17.552-6.4,61.693,61.693,0,0,0-10.083-1.8.049.049,0,0,0-.008.1Z" transform="translate(-3842.378 -2499.273)" fill="#ffd800"/>
    </g>
    <path id="Trazado_114946" data-name="Trazado 114946" d="M3888.7,2456.017a7.8,7.8,0,0,0-.276,3.354,6.009,6.009,0,0,0,1.219,2.715,6.489,6.489,0,0,1-2.732-1.9c-1.217-1.323-1.89-3.637-1.621-4.635.287-2.1,2.037-3.128,2.759-2.513C3888.793,2453.641,3888.813,2454.922,3888.7,2456.017Z" transform="translate(-122.291 -1096.255)" fill="#ffd800"/>
    <path id="Trazado_114947" data-name="Trazado 114947" d="M3959.679,2481.43a7.792,7.792,0,0,0-.276,3.354,6.016,6.016,0,0,0,1.219,2.715,6.486,6.486,0,0,1-2.732-1.9c-1.217-1.323-1.89-3.636-1.621-4.635.287-2.1,2.037-3.128,2.759-2.513C3959.771,2479.054,3959.79,2480.336,3959.679,2481.43Z" transform="translate(-182.634 -1117.86)" fill="#ffd800"/>
    <path id="Trazado_114948" data-name="Trazado 114948" d="M4031.8,2513.577a7.787,7.787,0,0,0-.276,3.353,6,6,0,0,0,1.219,2.715,6.48,6.48,0,0,1-2.732-1.9c-1.217-1.323-1.89-3.636-1.621-4.635.287-2.1,2.036-3.128,2.759-2.513C4031.89,2511.2,4031.91,2512.482,4031.8,2513.577Z" transform="translate(-243.949 -1145.191)" fill="#ffd800"/>
    <path id="Trazado_114949" data-name="Trazado 114949" d="M3868.867,2516.239a7.206,7.206,0,0,1,1.668-2.626,5.551,5.551,0,0,1,2.414-1.321,6,6,0,0,0-3.072-.127,5.877,5.877,0,0,0-3.781,2.511c-.963,1.711-.245,3.442.631,3.392C3867.608,2518.041,3868.338,2517.107,3868.867,2516.239Z" transform="translate(-105.631 -1146.54)" fill="#ffd800"/>
    <path id="Trazado_114950" data-name="Trazado 114950" d="M3942.695,2542.37a7.2,7.2,0,0,1,1.668-2.626,5.554,5.554,0,0,1,2.413-1.32,5.994,5.994,0,0,0-3.072-.127,5.875,5.875,0,0,0-3.781,2.511c-.963,1.711-.245,3.441.631,3.391C3941.436,2544.172,3942.166,2543.239,3942.695,2542.37Z" transform="translate(-168.398 -1168.757)" fill="#ffd800"/>
    <path id="Trazado_114951" data-name="Trazado 114951" d="M3819.158,2499.546a4.625,4.625,0,0,1,1.394-1.428,3.563,3.563,0,0,1,1.69-.51,3.853,3.853,0,0,0-1.912-.486,3.77,3.77,0,0,0-2.706,1.078c-.831.947-.609,2.128-.052,2.213S3818.711,2500.022,3819.158,2499.546Z" transform="translate(-64.346 -1133.878)" fill="#ffd800"/>
    <path id="Trazado_114952" data-name="Trazado 114952" d="M3827.878,2469.526a4.617,4.617,0,0,0,.441,1.947,3.558,3.558,0,0,0,1.173,1.319,3.846,3.846,0,0,1-1.884-.586,3.768,3.768,0,0,1-1.742-2.334c-.213-1.242.595-2.132,1.114-1.913S3827.746,2468.887,3827.878,2469.526Z" transform="translate(-71.789 -1109.059)" fill="#ffd800"/>
    <circle id="Elipse_4151" data-name="Elipse 4151" cx="85.468" cy="85.468" r="85.468" transform="translate(3749.716 1295.073) rotate(-45)" fill="#c12925"/>
    <circle id="Elipse_4152" data-name="Elipse 4152" cx="77.94" cy="77.94" r="77.94" transform="translate(3760.363 1295.073) rotate(-45)" fill="#dc4437"/>
    <circle id="Elipse_4153" data-name="Elipse 4153" cx="65.541" cy="65.541" r="65.541" transform="translate(3777.898 1295.073) rotate(-45)" fill="#fffbf3"/>
    <circle id="Elipse_4154" data-name="Elipse 4154" cx="49.266" cy="49.266" r="49.266" transform="translate(3800.914 1295.073) rotate(-45)" fill="#dc4437"/>
    <circle id="Elipse_4155" data-name="Elipse 4155" cx="34.984" cy="34.984" r="34.984" transform="translate(3821.111 1295.073) rotate(-45)" fill="#fffbf3"/>
    <path id="Trazado_114953" data-name="Trazado 114953" d="M4562,1991.519a8.921,8.921,0,1,1-8.921-8.921A8.921,8.921,0,0,1,4562,1991.519Z" transform="translate(-682.49 -696.446)" fill="#c12925"/>
    <g id="Grupo_57334" data-name="Grupo 57334" transform="translate(3869.639 1229.648)">
      <path id="Trazado_114954" data-name="Trazado 114954" d="M4963.889,1626.615l-.317-5.8,19.621-15.347-1.026,8.392-19.229,15.04Z" transform="translate(-4908.167 -1605.472)" fill="#353535"/>
      <path id="Trazado_114955" data-name="Trazado 114955" d="M4965.056,1676.376l5.549,1.7,19.621-15.347-8.392-1.026-19.229,15.04Z" transform="translate(-4907.885 -1653.282)" fill="#282828"/>
      <path id="Trazado_114956" data-name="Trazado 114956" d="M4597.652,1791.287h0a1.311,1.311,0,0,0,1.841.225l55.279-43.237-1.616-2.066-55.279,43.237A1.311,1.311,0,0,0,4597.652,1791.287Z" transform="translate(-4597.374 -1725.123)" fill="#353535"/>
    </g>
    <path id="Trazado_114957" data-name="Trazado 114957" d="M5149.742,2148.53c0,.554.208,1,.463,1s.462-.449.462-1-.207-1-.462-1S5149.742,2147.976,5149.742,2148.53Z" transform="translate(-1197.344 -836.665)" fill="#f7a491"/>
    <path id="Trazado_114958" data-name="Trazado 114958" d="M5098.349,2567.258a28.639,28.639,0,0,0,.146-3.722h3.025c-.315,2.168-.561,3.855-.561,3.855l.075.685,0,2.024h-6.618a29.907,29.907,0,0,0,3.37-1.873A1.35,1.35,0,0,0,5098.349,2567.258Z" transform="translate(-1150.309 -1190.344)" fill="#f9c38a"/>
    <path id="Trazado_114959" data-name="Trazado 114959" d="M5201.767,2570.682l-.88-2.52h2.3c.12,1.618.165,2.709.165,2.709l.586,1.657.594,1.969a5.19,5.19,0,0,1-2.985-.063l.114-1.96Z" transform="translate(-1240.826 -1194.278)" fill="#f9c38a"/>
    <path id="Trazado_114960" data-name="Trazado 114960" d="M5121.275,2195.3c.8-1.092,4.094-4.254,4.46-4.247,1.066.019,4.569.02,5.254.368l-.033,6.02c-.111.506-2.529,8.376-2.389,10.1l-.017.016a4.845,4.845,0,0,1-7.076-.34h0a39.843,39.843,0,0,0-.277-4.565C5120.75,2199.239,5119.292,2198.013,5121.275,2195.3Z" transform="translate(-1172.28 -873.67)" fill="#fffbf3"/>
    <path id="Trazado_114961" data-name="Trazado 114961" d="M5150,2163.912a17.641,17.641,0,0,0,.107,3.063c.2.842.466.906-1.247,1.162-.672.1-1.321.251-1.321.251s.176-1.237.2-1.759c.044-.86-.2-3.514-.2-3.514Z" transform="translate(-1195.471 -849.917)" fill="#f9c38a"/>
    <path id="Trazado_114962" data-name="Trazado 114962" d="M5148.719,2165.017a3.046,3.046,0,0,1-.984.349c-.059-1.048-.168-2.252-.168-2.252l2.344.76A3.074,3.074,0,0,1,5148.719,2165.017Z" transform="translate(-1195.494 -849.917)" fill="#e5ac7a"/>
    <path id="Trazado_114963" data-name="Trazado 114963" d="M5205.415,2596.893a3.28,3.28,0,0,0,2.268.031l.13.35.5,1.662a5.323,5.323,0,0,1-3.011-.075Z" transform="translate(-1244.578 -1218.704)" fill="#dc4437"/>
    <path id="Trazado_114964" data-name="Trazado 114964" d="M5098.495,2596.347h-6.879c-.255-.023-.317-.231-.229-.359a8.349,8.349,0,0,1,1.887-.878,11.029,11.029,0,0,0,5.152-1.293A7.732,7.732,0,0,1,5098.495,2596.347Z" transform="translate(-1147.699 -1216.089)" fill="#dc4437"/>
    <path id="Trazado_114965" data-name="Trazado 114965" d="M5142.521,2301.207l4.032,28.681,3.671,13.225h3.995s-.927-10.655-2.915-14.429c0,0-.868-10.114-1.735-16.3-.129-.925.513-3.324.345-3.944a57.282,57.282,0,0,0-2.422-7.348Z" transform="translate(-1191.205 -967.222)" fill="#282828"/>
    <path id="Trazado_114966" data-name="Trazado 114966" d="M5116.129,2311.768l-.934,11.018s.954,6.3.3,10.474-1.521,8.013-1.521,8.013H5110.3l-.729-20.807s-1.412-11.305-.923-14.371a26.645,26.645,0,0,1,2.866-7.168l5.775.264s1.566,5.612,1.3,7.5C5118.4,2308.085,5116.129,2311.768,5116.129,2311.768Z" transform="translate(-1162.32 -965.381)" fill="#353535"/>
    <path id="Trazado_114967" data-name="Trazado 114967" d="M5149.286,2143.076c4.365-1.31,3.2-5.158,3.172-5.012.012-.119.424-.6.627-1.018a3.69,3.69,0,0,0-1.552-4.522,4.08,4.08,0,0,0-1.593-5.176,6.424,6.424,0,0,1-2.033-1.8,6.239,6.239,0,0,0-6.062-2.712c-2.62.671.889,2.188.541,4.709-.176,1.278.33,1.095,1.12,2.122a6.121,6.121,0,0,0,1.263,6.871C5143.914,2140.137,5144.831,2144.413,5149.286,2143.076Z" transform="translate(-1189.798 -815.586)" fill="#282828"/>
    <path id="Trazado_114968" data-name="Trazado 114968" d="M5136.295,2125.842c.516,2.126-2.275,3.671-4.486,3.727-1.436.037-2.1-.111-2.328-1.624-.376-2.455.635-3.952,2.052-4.571C5133.361,2122.574,5135.869,2124.088,5136.295,2125.842Z" transform="translate(-1180.051 -815.944)" fill="#282828"/>
    <path id="Trazado_114969" data-name="Trazado 114969" d="M5134.4,2131a2.906,2.906,0,0,1,1.49,1.308c.518.981.26,4.123-1.895,5.159s-3.146-1.317-2.989-3.052S5131.786,2130.4,5134.4,2131Z" transform="translate(-1181.401 -822.529)" fill="#f9c38a"/>
    <path id="Trazado_114970" data-name="Trazado 114970" d="M5136.086,2163.688l-1.529-.023a.675.675,0,0,0,.7.622C5136.075,2164.323,5136.086,2163.688,5136.086,2163.688Z" transform="translate(-1184.434 -850.384)" fill="#fff"/>
    <path id="Trazado_114971" data-name="Trazado 114971" d="M5144.035,2132.562c.319-1.624.194-2.854-.959-3.448s-2.139-1.183-3.171-.115l-.233.132s1.947.538,2.057,1.573,1.144,2.264.984,2.772-.343,1.521-.343,1.521l.427-.351A2.868,2.868,0,0,0,5144.035,2132.562Z" transform="translate(-1188.782 -820.409)" fill="#282828"/>
    <path id="Trazado_114972" data-name="Trazado 114972" d="M5155,2148.355c-.161.448-.039.9.271,1.005s.694-.17.854-.618.04-.9-.271-1.006S5155.158,2147.907,5155,2148.355Z" transform="translate(-1201.752 -836.823)" fill="#f9c38a"/>
    <path id="Trazado_114973" data-name="Trazado 114973" d="M4023.21,1616.941h19.841l-4.735,30.125h2.047l26.706-169.9h-2.047l-.4,2.56h-19.882l.4-2.56h-2.047l-26.732,169.9h2.047Zm34.037-90.317-3.275,20.838H4034.11l3.269-20.838Zm-19.594-1.742,3.269-20.838H4060.8l-3.275,20.838ZM4053.7,1549.2l-3.276,20.838h-19.855l3.269-20.838Zm-3.549,22.58-3.276,20.838h-19.848l3.269-20.838Zm14.2-90.317-3.275,20.838H4041.2l3.269-20.838ZM4023.483,1615.2l3.269-20.838H4046.6l-3.276,20.838Z" transform="translate(-233.772 -266.739)" fill="#efbe5e"/>
    <g id="Grupo_57336" data-name="Grupo 57336" transform="translate(3845.229 1163.417)">
      <path id="Trazado_114974" data-name="Trazado 114974" d="M4613.433,1246.52c-.021.076-.186.6-.439,1.377l2.653.535c.028-.434.055-.8.086-1.06.218-1.841,1.083-2.34,1.528-3.362s2.171-1.67,1.959-2.017-1.821,1.057-2.208.907,1.376-2.262,1.164-2.544c-.39-.518-2.065,2.215-2.261,1.989s1.4-3.111.757-3.147-1.343,3.122-1.678,2.983.927-2.91.286-3.324c-.343-.221-1.559,4.932-2.1,5.229s-1.307-1.734-1.824-1.562S4613.523,1246.2,4613.433,1246.52Z" transform="translate(-4584.793 -1227.549)" fill="#f9c38a"/>
      <path id="Trazado_114975" data-name="Trazado 114975" d="M4441.706,1171.434c-.012.078-.077.623-.167,1.436l-2.638-.607c.154-.407.28-.748.359-1,.56-1.767-.022-2.579-.005-3.693s-1.289-2.417-.952-2.645,1.223,1.714,1.637,1.736-.321-2.628-.011-2.8c.57-.311.968,2.869,1.241,2.745s.012-3.409.607-3.179-.064,3.4.3,3.41.356-3.034,1.111-3.146c.4-.06-.615,5.135-.244,5.63s1.905-1.041,2.306-.67S4441.755,1171.107,4441.706,1171.434Z" transform="translate(-4437.678 -1163.417)" fill="#f9c38a"/>
      <path id="Trazado_114976" data-name="Trazado 114976" d="M4567.551,1294.415s-3.162-.757-3.192-.5c-.664,5.561-.962,7.573-1.075,7.63-.383.2-5.462-4.447-6.368-4.762a3.78,3.78,0,0,0-1.356-.112c-1.077.032-1.29.036-1.29.036l-.04,0,.006,1.013c1.213,1.092,3.992,17.632,4.226,17.621.262-.012,5.753,1.37,5.656.907-.016-.075-3.723-3.109-4.774-7.487-.353-1.47-.527-3.052-.718-4.438,1.22.612,5.985,2.957,6.741,2.647C4567.716,1306.007,4567.551,1294.415,4567.551,1294.415Z" transform="translate(-4536.285 -1274.317)" fill="#748828"/>
      <path id="Trazado_114977" data-name="Trazado 114977" d="M4705.623,1483.436s5.109,4,5.28,4.712c.245,1.022,4.924-.322,3.8-.529-.259-.048-1.09-.259-1.158-.3-.365-.2-4.912-5.674-4.912-5.674Z" transform="translate(-4664.995 -1433.97)" fill="#f9c38a"/>
      <path id="Trazado_114978" data-name="Trazado 114978" d="M4746.441,1519.98l-3.262-.266a4.623,4.623,0,0,1-2.725.808,4.184,4.184,0,0,0-.15,1.776c.024.165.051.664.218.653.6-.041,2.208-.44,4.039-.807a15.766,15.766,0,0,0,3.879-1.37C4749.859,1519.924,4746.441,1519.98,4746.441,1519.98Z" transform="translate(-4694.449 -1466.332)" fill="#282828"/>
      <path id="Trazado_114979" data-name="Trazado 114979" d="M4546.123,1415.578a22.33,22.33,0,0,0,7.879-.339c4.789-1.12,10.083-2.156,11.634-1.254,1.249.726,9.046,12.509,9.046,12.509l-3.011,2.2-8.585-9.614s-10.954,4.042-13.415,3.594C4544.069,1421.65,4543.989,1417.175,4546.123,1415.578Z" transform="translate(-4528.293 -1376.151)" fill="#282828"/>
      <path id="Trazado_114980" data-name="Trazado 114980" d="M4628.782,1546.334s-.228,6.179-.369,7.226,2.623,4.18,2.27,3.089c-.082-.251-.291-1.082-.291-1.16,0-.414,1.025-7.464,1.025-7.464Z" transform="translate(-4599.349 -1488.963)" fill="#f9c38a"/>
      <path id="Trazado_114981" data-name="Trazado 114981" d="M4618.184,1599.955l-2.041-3.317a4.628,4.628,0,0,1-2.006-2.013,4.179,4.179,0,0,0-1.633.711c-.134.1-1.048.768-.984.922a17.537,17.537,0,0,0,2.839,3.111,36.682,36.682,0,0,0,3.352,2.4C4619.133,1602.615,4618.184,1599.955,4618.184,1599.955Z" transform="translate(-4584.989 -1530.018)" fill="#282828"/>
      <path id="Trazado_114982" data-name="Trazado 114982" d="M4551.019,1413.6c-1.309-1.745-11.867-3.4-11.867-3.4l-2.944-5.659-6.511,4.015a58.778,58.778,0,0,0,1.14,6.565c.65,1.845,5.026,1.939,7.7,1.911,2.458-.025,6.95.476,6.95.476l-1.519,13.4a20.976,20.976,0,0,0,3.825.57C4547.886,1431.468,4552.647,1415.773,4551.019,1413.6Z" transform="translate(-4515.427 -1368.415)" fill="#353535"/>
      <path id="Trazado_114983" data-name="Trazado 114983" d="M4532.264,1312.924l-3.673.205s-.085.026-.11.031c-.3.055-.027,10.76.24,14.758a26.715,26.715,0,0,0,.808,5.678,59.844,59.844,0,0,0,6.511-1.478,11.245,11.245,0,0,0,2.17-2.166,16.107,16.107,0,0,1-2.359-5.535c-.609-2.642-1.361-7.327-1.792-8.3A13.96,13.96,0,0,0,4532.264,1312.924Z" transform="translate(-4514.282 -1290.524)" fill="#fffbf3"/>
      <path id="Trazado_114984" data-name="Trazado 114984" d="M4529.43,1289.8l-.1,3.243s2.377,4.1,3.6,3.526c1.025-.479.115-3.6.115-3.6s-.177-.714-.423-1.536a5.919,5.919,0,0,1-.3-1.651C4532.337,1288.676,4529.43,1289.8,4529.43,1289.8Z" transform="translate(-4515.112 -1270.435)" fill="#f9c38a"/>
      <path id="Trazado_114985" data-name="Trazado 114985" d="M4533.478,1289.784c.026-1.108-2.882.013-2.882.013l-.01.317a1.644,1.644,0,0,0,.325.369,4,4,0,0,0,2.831.815A5.562,5.562,0,0,1,4533.478,1289.784Z" transform="translate(-4516.183 -1270.435)" fill="#e5ac7a"/>
      <g id="Grupo_57335" data-name="Grupo 57335" transform="translate(10.484 10.219)">
        <path id="Trazado_114986" data-name="Trazado 114986" d="M4533.6,1243.275a8.464,8.464,0,0,1,1.3,3.364,7.955,7.955,0,0,1-.235,2.586l-3.888-4.648Z" transform="translate(-4526.835 -1241.529)" fill="#282828"/>
        <path id="Trazado_114987" data-name="Trazado 114987" d="M4554.514,1258.415c.055.538-.154,1-.467,1.032s-.611-.379-.666-.917.155-1,.468-1.033S4554.458,1257.877,4554.514,1258.415Z" transform="translate(-4546.039 -1253.62)" fill="#e5ac7a"/>
        <path id="Trazado_114988" data-name="Trazado 114988" d="M4521.572,1248.148c-.088-.019-.08,4.456,1.217,5.509s3.554,1.145,4.214.085c.729-1.173.035-5.888-1.894-6.89S4521.572,1248.148,4521.572,1248.148Z" transform="translate(-4518.977 -1244.355)" fill="#f9c38a"/>
        <path id="Trazado_114989" data-name="Trazado 114989" d="M4506.792,1232.64a7.189,7.189,0,0,0-2.14,3.046c-.824,1.9.811,3.864,2.181,4.645a2.638,2.638,0,0,1,1.484,1.726l.057-.583a1.452,1.452,0,0,0-.018-.536,2.515,2.515,0,0,0-.195-.473c-.117-.249-.492-1.1-.638-1.329-.386-.595-.461-.723-.271-1.289.147-.435-.023-1.394.2-2.111l1.845-.4a3.862,3.862,0,0,0,1.737-.95C4512.712,1232.458,4509.4,1230.305,4506.792,1232.64Z" transform="translate(-4504.43 -1231.622)" fill="#282828"/>
        <path id="Trazado_114990" data-name="Trazado 114990" d="M4519.518,1272.58c.227.491.18,1-.105,1.128s-.7-.159-.929-.65-.18-1,.106-1.128S4519.291,1272.089,4519.518,1272.58Z" transform="translate(-4516.256 -1265.864)" fill="#f9c38a"/>
      </g>
      <path id="Trazado_114991" data-name="Trazado 114991" d="M4448.763,1229.353a23.119,23.119,0,0,1-4.581-.595c-.57-.258-5.25-4.028-5.25-4.028l.053-10.1-3.291-.25s-1.707,11.159-1.116,12.381c.61,1.261,7.46,6.454,8.83,8.708.79,1.3,2.435,18.954,2.684,19.113,1.773.922,7.246,1.844,7.117,1.284A203,203,0,0,1,4448.763,1229.353Z" transform="translate(-4434.455 -1206.748)" fill="#748828"/>
      <path id="Trazado_114992" data-name="Trazado 114992" d="M4540.327,1280.406l2.121-.673a.973.973,0,0,1-.717,1.144C4540.6,1281.271,4540.327,1280.406,4540.327,1280.406Z" transform="translate(-4524.464 -1262.306)" fill="#fff"/>
    </g>
    <path id="Trazado_114993" data-name="Trazado 114993" d="M5124.458,1481.756a.436.436,0,0,0,.271-.634c-.224-.365-.441-.734-.662-1.1-.486-.812-.53-.829-.491-.921.095-.221.511-.12.661-.069a5.163,5.163,0,0,0,.991.358c.689.088,1.19-.439.884-1.107-.281-.611-.6-1.211-.918-1.805.739.151,1.474.323,2.214.464a.3.3,0,0,0,.337-.427l-1.16-2.668c-.06-.136-.411-.74-.29-.855s.616.037.732.054c.643.094.87.117,2.967.374a.349.349,0,0,0,.31-.519c-1.465-2.046-1.209-2.232-1.731-2.519a.165.165,0,0,0-.246.136c-.047.308-.037.384.515,1.36q.215.378.447.746c-2.54-.359-3.172-.511-3.516.059-.238.4-.123.5,1.2,3.529-.767-.2-1.541-.35-2.317-.517a.339.339,0,0,0-.384.487c1.016,2.183,1.131,2.2,1.169,2.416,0,.006.134.036-.065.019-.337-.03-.959-.521-1.6-.446a1.023,1.023,0,0,0-.981,1.15,7.218,7.218,0,0,0,.885,1.69,8.771,8.771,0,0,0-1.979.648,1.366,1.366,0,0,0-.641.519.365.365,0,0,0,.3.548C5122.109,1482.68,5122.436,1482.1,5124.458,1481.756Z" transform="translate(-1172.911 -260.952)" fill="#ffd800"/>
    <path id="Trazado_114994" data-name="Trazado 114994" d="M5192.1,1558.682a10.849,10.849,0,0,1-.123-1.925c0-.127-.019-.363.109-.442.309-.191.77.339,1.955.6.514.112,1.567.39,1.793-.3a3.867,3.867,0,0,0,.039-1.169c0-.279.009-.557.014-.836,1.924.543,1.814.656,2.25.465a.245.245,0,0,0,.1-.329c-.25-.4-.2-.283-2.618-.992a.38.38,0,0,0-.491.339c0,.377.1,2.087.08,2.3-.02-.013-.112,0-.132,0a6.25,6.25,0,0,1-2.208-.619c-.6-.246-1.409-.251-1.6.513a7.589,7.589,0,0,0,0,1.93c-1.171-.375-2.341-.758-3.515-1.125a.417.417,0,0,0-.541.374c.052.765.078,1.528.1,2.293a7.084,7.084,0,0,1-1.93-.986c-.435-.314-.988.3.163,1.013a6.842,6.842,0,0,0,2.069.926.421.421,0,0,0,.542-.375c0-.757-.03-1.517-.077-2.273,1.171.359,2.348.706,3.519,1.065A.388.388,0,0,0,5192.1,1558.682Z" transform="translate(-1227.211 -331.839)" fill="#dc4437"/>
    <path id="Trazado_114995" data-name="Trazado 114995" d="M5204.157,1645.621a.42.42,0,0,0,.374.421,9.226,9.226,0,0,0,3.222.11c.563-.1.361-.933-.187-.873a11.207,11.207,0,0,1-2.622.031,8.968,8.968,0,0,1,.263-1.912.431.431,0,0,0-.375-.55c-.694.019-3.322.172-3.346.2a.135.135,0,0,0,0-.07c-.051-.28.154-1.229.132-1.663-.024-.487-.671-.664-1.063-.7-.8-.076-1.677.5-2.452.189-.746-.3.093-1.466-.508-2.379-.462-.7-1.259-.492-2.516-.25a.939.939,0,0,0-.764.424.214.214,0,0,0,.024.25c.378.352.832.193,1.981,0,.146-.024.393-.111.523,0,.434.36-.2,1.349.313,2.184a1.853,1.853,0,0,0,1.88.688c.532-.064,1.19-.374,1.73-.182-.03.462-.072.929-.066,1.39a.812.812,0,0,0,.772.9,13.577,13.577,0,0,0,1.705-.056c.377-.017.754-.033,1.132-.054A10.14,10.14,0,0,0,5204.157,1645.621Z" transform="translate(-1235.212 -403.43)" fill="#748828"/>
    <path id="Trazado_114996" data-name="Trazado 114996" d="M5020.728,1473.142c-3.006-2.465-4.537-.247-3.672.776a.836.836,0,0,0,1.361-.022c.152-.227-.072-.6-.355-.514-.234.073-.29-.193-.041-.3.335-.138.742.107,1.03.26.673.357,1.552.81,1.666,1.654.17,1.26-1.11,2.593-3.009,1.858-2.738-1.06-2.608-5.54.3-6.283a4.112,4.112,0,0,1,4.247,1.566c.189.254.528-.043.426-.3a4.1,4.1,0,0,0-5.105-2.011,4.171,4.171,0,0,0-2.584,4.642,3.975,3.975,0,0,0,4.186,3.531A2.733,2.733,0,0,0,5020.728,1473.142Z" transform="translate(-1082.737 -260.307)" fill="#748828"/>
    <path id="Trazado_114997" data-name="Trazado 114997" d="M5219.214,1721.693c-.49-.343-1.5-.554-1.831.114a.555.555,0,0,0,.293.811c.353.116.682-.074.954.253a.743.743,0,0,1-.12.933c-.65.765-2.037.531-2.813.106a1.883,1.883,0,0,1-.118-3.285,4.232,4.232,0,0,1,1.371-.432c.26-.061.385-.472.11-.611a2.516,2.516,0,0,0-2.986,1.05,3.014,3.014,0,0,0-.021,3.248,3.875,3.875,0,0,0,3.288,1.595C5219.907,1725.446,5220.8,1722.8,5219.214,1721.693Z" transform="translate(-1251.625 -472.677)" fill="#fffbf3"/>
    <g id="Grupo_57339" data-name="Grupo 57339" transform="translate(3896.805 1304.394)">
      <g id="Grupo_57338" data-name="Grupo 57338" transform="translate(0 0)">
        <path id="Trazado_114998" data-name="Trazado 114998" d="M4892.783,2256.529a2.155,2.155,0,0,1-.224.543,20.665,20.665,0,0,1-2.142,2.849l-1.158-2.609s.189-.819.516-1.99A6.7,6.7,0,0,1,4892.783,2256.529Z" transform="translate(-4872.693 -2232.704)" fill="#f9c38a"/>
        <path id="Trazado_114999" data-name="Trazado 114999" d="M4868.472,2196.517s6.458,2.781,6.667,2.728a17.159,17.159,0,0,0,2.675-8.2c.013-1.828-1.885-4.027-4-3.592-1.066.219-1.05.515-2.627,2.808A26.435,26.435,0,0,0,4868.472,2196.517Z" transform="translate(-4855.021 -2174.955)" fill="#5b6b1a"/>
        <path id="Trazado_115000" data-name="Trazado 115000" d="M4810.172,2581.045s.153,2.536.154,2.542a13.819,13.819,0,0,1,.278,1.41c0,1.1-5.222-.934-4.051-1.421.105-.044.66-.377.7-.752.054-.577.19-1.743.19-1.743Z" transform="translate(-4802.234 -2509.624)" fill="#f9c38a"/>
        <path id="Trazado_115001" data-name="Trazado 115001" d="M4783.025,2597.611s1.226.336,1.854.42,1.456-.624,1.9-.433c.489.21.469,2.105.469,2.105s-6.574.539-8.423-.019C4778.093,2599.465,4780.519,2598.395,4783.025,2597.611Z" transform="translate(-4778.693 -2523.67)" fill="#748828"/>
        <path id="Trazado_115002" data-name="Trazado 115002" d="M4881.469,2581.045s.153,2.536.154,2.542a13.947,13.947,0,0,1,.278,1.41c0,1.1-5.222-.934-4.052-1.421.106-.044.826-.627.86-1,.054-.577.025-1.495.025-1.495Z" transform="translate(-4862.848 -2509.624)" fill="#f9c38a"/>
        <path id="Trazado_115003" data-name="Trazado 115003" d="M4854.34,2597.611s1.226.336,1.854.42,1.456-.624,1.9-.433c.489.21.509,2.105.509,2.105s-6.6.629-8.462-.019C4849.419,2599.435,4851.834,2598.395,4854.34,2597.611Z" transform="translate(-4839.326 -2523.67)" fill="#748828"/>
        <g id="Grupo_57337" data-name="Grupo 57337" transform="translate(14.265)">
          <path id="Trazado_115004" data-name="Trazado 115004" d="M4879.435,2158.905l.592,3.744s-2.256,1.811-3.571,1.429c-1.1-.321-.347-1.763-.347-1.763a9.365,9.365,0,0,0,.407-3.046C4876.336,2158.221,4879.435,2158.905,4879.435,2158.905Z" transform="translate(-4875.564 -2150.546)" fill="#f9c38a"/>
          <path id="Trazado_115005" data-name="Trazado 115005" d="M4882.416,2160.039a9.211,9.211,0,0,1-2.553.719,4.984,4.984,0,0,0,.06-1.488c-.083-.483.532-.6,1.218-.581.9.077,1.7.218,1.7.218l.114.719A1.855,1.855,0,0,1,4882.416,2160.039Z" transform="translate(-4878.97 -2150.547)" fill="#e5ac7a"/>
          <path id="Trazado_115006" data-name="Trazado 115006" d="M4880.623,2119.9c.093,0-.892,4.183-2.416,4.9s-3.8.344-4.224-.782c-.472-1.246,1.249-5.513,3.393-6.055S4880.623,2119.9,4880.623,2119.9Z" transform="translate(-4873.904 -2115.863)" fill="#f9c38a"/>
          <path id="Trazado_115007" data-name="Trazado 115007" d="M4893.08,2104.552a4.8,4.8,0,0,1,1.964,2.17,3.089,3.089,0,0,1,1.595,2.438,3.427,3.427,0,0,1-2.581,3.891,2.337,2.337,0,0,0-1.775,1.469l-.174-1.1a4.329,4.329,0,0,1,.856-1.431c.514-.477-.244-1.173-.311-1.74-.051-.437.271-1.285.2-2a4.95,4.95,0,0,0-1.7-1.615C4889.721,2106.089,4891.518,2103.651,4893.08,2104.552Z" transform="translate(-4888.125 -2104.354)" fill="#282828"/>
          <path id="Trazado_115008" data-name="Trazado 115008" d="M4902.028,2144.61c-.2.483-.118.963.182,1.071s.7-.2.9-.678.118-.963-.182-1.071S4902.228,2144.127,4902.028,2144.61Z" transform="translate(-4897.722 -2137.983)" fill="#f9c38a"/>
        </g>
        <path id="Trazado_115009" data-name="Trazado 115009" d="M4814.417,2250.817l-8.872-1.446s1.009-2.541,1.37-2.541,6.708,2.771,6.708,2.771l.5,1.014Z" transform="translate(-4801.522 -2225.483)" fill="#f9c38a"/>
        <path id="Trazado_115010" data-name="Trazado 115010" d="M4856.2,2311.739a29.211,29.211,0,0,1,.524,7.522c-.361,3.244-.389,14.767-.389,14.767l1.376,18.438-3.266.072s-3.872-18.429-3.8-17.956-1.3-12.976-1.3-12.976l4.616-10.272Z" transform="translate(-4838.765 -2280.322)" fill="#282828"/>
        <path id="Trazado_115011" data-name="Trazado 115011" d="M4816.045,2304.633s.577,3.852-.145,5.542-6.186,18.268-6.258,19.619-1.889,16.291-1.889,16.291l-3.8-.106-.821-16.61,1.72-20.876,1.67-5.278Z" transform="translate(-4799.473 -2273.42)" fill="#353535"/>
        <path id="Trazado_115012" data-name="Trazado 115012" d="M4881.463,2178.264a3.41,3.41,0,0,1-1.81.543,6.012,6.012,0,0,1-2.108-.877l.172-.582s2.259-.329,2.315-.294S4881.463,2178.264,4881.463,2178.264Z" transform="translate(-4862.734 -2166.16)" fill="#f9c38a"/>
        <path id="Trazado_115013" data-name="Trazado 115013" d="M4802.683,2228.178s-3.355,3.167-4.87,2.626-2.142-2.389,1.554-5.093C4802.674,2223.292,4802.683,2228.178,4802.683,2228.178Z" transform="translate(-4793.935 -2206.957)" fill="#f9c38a"/>
        <path id="Trazado_115014" data-name="Trazado 115014" d="M4815.362,2195.927c.5-2.712,4.111-11.151,4.4-12.705.141-.756,2.089-.773,3.946-.674,1.96.1,3.908.352,3.908.352a5.965,5.965,0,0,1,2.5,1c.764.716.967,2.695-.132,6.451-.866,2.965-1.94,4.594-2.472,6.753-.107.725-.2,1.44-.322,2.274-.195,3.23,0,7.5,0,7.5s-9.449,1.96-12.982-1.014C4814.208,2205.861,4814.851,2198.705,4815.362,2195.927Z" transform="translate(-4808.887 -2170.796)" fill="#748828"/>
        <path id="Trazado_115015" data-name="Trazado 115015" d="M4805.831,2190.711s3.707,3.06,3.924,3.06c.14,0,5.291-3.79,6.48-6.9a2.722,2.722,0,0,0-2.3-3.64c-1.092,0-1.577.286-3.741,2.11A27.655,27.655,0,0,0,4805.831,2190.711Z" transform="translate(-4801.765 -2171.411)" fill="#5b6b1a"/>
      </g>
      <path id="Trazado_115016" data-name="Trazado 115016" d="M4875.722,2146.752l1.392.763a.752.752,0,0,1-.987.27A.735.735,0,0,1,4875.722,2146.752Z" transform="translate(-4861.114 -2140.4)" fill="#fff"/>
    </g>
    <g id="Grupo_57342" data-name="Grupo 57342" transform="translate(3822.759 1297.223)">
      <path id="Trazado_115017" data-name="Trazado 115017" d="M4285.014,2229.739c-.109-.312,1.409-.564,1.49-.88s-1.917-.34-1.988-.618c-.132-.511,2.189-.107,2.144-.346s-2.419-.773-2.162-1.183,2.4.811,2.468.532-2.1-.956-2.06-1.565c.021-.326,3.551,1.626,3.96,1.449s-.44-1.71-.115-1.937,1.262,3.115,1.487,3.226,4.993,2.833,6.69,3.266c.206-.568,2.636-4.087,2.818-4.624.952.677,1.929.77,2.911,1.388-.711,1.784-3.979,6.736-4.475,6.96-1.51.682-7.351-4.162-8.516-4.99s-1.834-.561-2.624-.823S4285.123,2230.051,4285.014,2229.739Z" transform="translate(-4284.478 -2199.905)" fill="#f9c38a"/>
      <path id="Trazado_115018" data-name="Trazado 115018" d="M4415.967,2136.527a4.993,4.993,0,0,0-5.536-3.3,5.215,5.215,0,0,0-3.27-2.336c-2.611-.56-6.142.472-6.047,3.237-1.013,1.857-1.051,4.512.5,5.926-.54,2.5,1.8,4.912,4.84,4.824a5.377,5.377,0,0,0,5.083,2.63,12.086,12.086,0,0,1,1.337-.148c-.152-.028,3.223,2.56,6.083-1.42C4421.875,2141.876,4419.824,2136.96,4415.967,2136.527Z" transform="translate(-4383.028 -2119.617)" fill="#282828"/>
      <g id="Grupo_57340" data-name="Grupo 57340" transform="translate(10.093 39.369)">
        <path id="Trazado_115019" data-name="Trazado 115019" d="M4377.479,2319.254a14.142,14.142,0,0,1-2.35,2.751,10.269,10.269,0,0,0-2.191,4.227c-.476,2.387-.081,14.182-.494,15.021-3.557,3.478-6.133,12.206-6.856,14.869a2.845,2.845,0,0,1-.822,1.351h0l.158,3.009,1.768,1.628a9.019,9.019,0,0,1,.393-4.271s8.956-13.564,9.488-14.6c1.016-2.953,4.715-18.08,4.715-18.08l.858-3.478Z" transform="translate(-4362.829 -2319.254)" fill="#f9c38a"/>
        <path id="Trazado_115020" data-name="Trazado 115020" d="M4351.842,2575.032a10.7,10.7,0,0,1,1.214,2.4c.1.672.691,2.2,1.351,2.292.15.022,2.712.21,2.694-.111-.014-.245-.942-.594-1.373-.892-.745-.514-1.9-4.7-1.9-4.7S4351.891,2574.5,4351.842,2575.032Z" transform="translate(-4351.842 -2535.845)" fill="#282828"/>
      </g>
      <path id="Trazado_115021" data-name="Trazado 115021" d="M4452.122,2077.438s3.749-6.741,4.66-8.175,3.287-7.127,3.373-7.352-1.636-2.919-1.252-3.012.809,1.421,1.218,1.24,1.607-3.823,1.841-3.643c.437.338-.645,2.26-.412,2.381s.939-2.114,1.4-2.048-.87,2.049-.742,2.224,1.506-1.693,1.755-1.295c.136.216-1.267,1.631-1,1.763s1.517-.781,1.649-.517-1.154.624-1.539,1.334-1.039,1.017-1.311,2.331-.678,6.071-2.071,8.445-4.457,7.626-4.457,7.626Z" transform="translate(-4427.005 -2056.491)" fill="#f9c38a"/>
      <path id="Trazado_115022" data-name="Trazado 115022" d="M4469.925,2339.3s5.77,12.335,5.806,14.5c.032,1.859-1.008,12.288-.718,20.974.011.314.408.73.986,1,.325.149,1.9.851,1.9.851l.216.562-5.411-.385-.077-1.477s-2.153-12.993-1.934-16.668c.034-.578.315-4.033.315-4.033l-6.506-12.562,4.092-5.377Z" transform="translate(-4437.526 -2294.703)" fill="#f9c38a"/>
      <g id="Grupo_57341" data-name="Grupo 57341" transform="translate(14.458 18.685)">
        <path id="Trazado_115023" data-name="Trazado 115023" d="M4412.46,2453.036s0,0,0,0Z" transform="translate(-4407.743 -2412.307)" fill="#f47458"/>
        <path id="Trazado_115024" data-name="Trazado 115024" d="M4393.943,2187.112c.155-.948,1.623-3.322,1.854-3.9,0,0-1.7-2.162-3.083-2,0,0-1.856,3.077-2.912,3.18s-4.768.265-5.418.66-3.412,4.634-3.412,4.634,2.481,2.534,3.479,2.528a10.371,10.371,0,0,1,.742-1.273c.15.485,2.462,7.975,2.459,9.671l.017.015a4.855,4.855,0,0,0,6.981-.9h0a38.62,38.62,0,0,1-.085-4.488C4394.741,2191.867,4395.424,2190.074,4393.943,2187.112Z" transform="translate(-4380.974 -2181.201)" fill="#748828"/>
        <path id="Trazado_115025" data-name="Trazado 115025" d="M4429.2,2321.213l-11.323-16.359a11.111,11.111,0,0,1-2.1.673,21.84,21.84,0,0,1-4.893.209,1.185,1.185,0,0,1-.01.161c-.189,1.348-1.978,3.437-2.347,7.529a100.2,100.2,0,0,0-.023,13.244C4416.031,2325.755,4427.068,2323.454,4429.2,2321.213Z" transform="translate(-4404.204 -2286.327)" fill="#ffd800"/>
      </g>
      <path id="Trazado_115026" data-name="Trazado 115026" d="M4427.161,2177.94a17.123,17.123,0,0,1,.319,2.991c-.08.846.3,3.572,2.023,3.581s.327-3.466.165-4.3a33.154,33.154,0,0,1-.2-3.4Z" transform="translate(-4405.783 -2158.793)" fill="#f9c38a"/>
      <path id="Trazado_115027" data-name="Trazado 115027" d="M4429.5,2178.109c-.027-.7-.036-1.288-.036-1.288l-2.306,1.119s.082.439.164,1A1.976,1.976,0,0,0,4429.5,2178.109Z" transform="translate(-4405.783 -2158.793)" fill="#e5ac7a"/>
      <path id="Trazado_115028" data-name="Trazado 115028" d="M4414.072,2143.173a2.943,2.943,0,0,0-1.213,1.626c-.325,1.113.044,3.984,2.34,4.677s3.29-1.581,2.817-3.358S4416.515,2142.089,4414.072,2143.173Z" transform="translate(-4393.537 -2129.945)" fill="#f9c38a"/>
      <path id="Trazado_115029" data-name="Trazado 115029" d="M4444.249,2154.642c-.045.477-.3.842-.565.815s-.447-.437-.4-.914.3-.842.564-.815S4444.294,2154.164,4444.249,2154.642Z" transform="translate(-4419.483 -2139.158)" fill="#f9c38a"/>
      <path id="Trazado_115030" data-name="Trazado 115030" d="M4411.138,2169.353c.27.418.269.91,0,1.1s-.709.005-.979-.412-.269-.909,0-1.1S4410.868,2168.936,4411.138,2169.353Z" transform="translate(-4391.155 -2152.03)" fill="#f9c38a"/>
      <path id="Trazado_115031" data-name="Trazado 115031" d="M4518.333,2597.211h6.835c.252-.023.314-.227.227-.353a8.333,8.333,0,0,0-1.875-.862,11.678,11.678,0,0,1-5.244-1.271A6.65,6.65,0,0,0,4518.333,2597.211Z" transform="translate(-4483.178 -2514.085)" fill="#282828"/>
      <path id="Trazado_115032" data-name="Trazado 115032" d="M4429.346,2172.831l1.467-.432a.675.675,0,0,1-.506.787C4429.527,2173.44,4429.346,2172.831,4429.346,2172.831Z" transform="translate(-4407.641 -2155.033)" fill="#fff"/>
    </g>
    <g id="Grupo_57344" data-name="Grupo 57344" transform="translate(3791.927 1268.638)">
      <path id="Trazado_115033" data-name="Trazado 115033" d="M4170.511,1949.261c.191.008.715.183,1.479,1.63a54.176,54.176,0,0,1,2.407,7.428l-4.265,1.588-.547-1.165-.9-8.968S4170.458,1949.259,4170.511,1949.261Z" transform="translate(-4155.2 -1936.742)" fill="#5b6b1a"/>
      <path id="Trazado_115034" data-name="Trazado 115034" d="M4100.339,1943.892a26.067,26.067,0,0,1,5.638.8s1.029,8.843-.927,15.563c-.437,1.5.362,6.235.362,6.235l-12.637-.167s1.5-11.438.933-13.285-.577-8.286-.577-8.286.087-.014,2.839-.49A28.621,28.621,0,0,1,4100.339,1943.892Z" transform="translate(-4090.667 -1932.177)" fill="#748828"/>
      <path id="Trazado_115035" data-name="Trazado 115035" d="M4113.051,2204.3a17.03,17.03,0,0,0,.793,4.12c.515.894-.026,2.413-.054,2.621s-1.083.506-2.759.328-1.65-.566-1.516-1.192,1.028-1.43,1.083-2.025a15.539,15.539,0,0,0-.514-2.74Z" transform="translate(-4104.85 -2153.568)" fill="#f9c38a"/>
      <path id="Trazado_115036" data-name="Trazado 115036" d="M4102.765,2075.852s8.723-.485,10.671.7-1.384,6.97-1.384,6.97-6.07-.28-17.959.406c-2.815.162-3.058-7.341-2.532-7.962S4102.765,2075.852,4102.765,2075.852Z" transform="translate(-4089.444 -2044.198)" fill="#282828"/>
      <path id="Trazado_115037" data-name="Trazado 115037" d="M4110.238,2236.1c-1.727-.184-1.514-1.033-1.375-1.677a5.721,5.721,0,0,1,.878-1.328,2.885,2.885,0,0,0,1.156.562,4.323,4.323,0,0,0,2.527-.51,8.37,8.37,0,0,1,.231,2.228A5.022,5.022,0,0,1,4110.238,2236.1Z" transform="translate(-4104.266 -2178.049)" fill="#353535"/>
      <path id="Trazado_115038" data-name="Trazado 115038" d="M4087.406,2082.584c.349,2.637,2.074,15.766,2.074,15.766l-4,.5s-4.924-17.137-4.671-19.758,2.1-2.842,2.1-2.842S4086.483,2075.6,4087.406,2082.584Z" transform="translate(-4080.48 -2044.689)" fill="#353535"/>
      <path id="Trazado_115039" data-name="Trazado 115039" d="M4083.05,1956.146c1.182-.443,1.76,10.2,1.918,14.584a51.437,51.437,0,0,0,6.648-.067c.427-.032,1.412-.393,1.836-.448a4.242,4.242,0,0,1,1.044-.049,19.665,19.665,0,0,1,2.446,1.1c.232.243.857.854.751,1.119s-1.2-.737-1.2-.737l-.536-.3c.667.652,1.941,1.511,1.757,1.824s-1.328-.567-2.146-1.161c.7.634,1.574,1.769,1.373,1.946-.18.159-1.172-1.155-2.233-1.533-.393-.14-.785.248-1.094.295a2.22,2.22,0,0,1-.8.045l-1.148-.326c-.391.035-.4.267-.8.351-.459.1-1.211.2-1.8.343-3.363.822-4.485,1.2-5.514,1.2C4080.438,1974.333,4080.258,1957.193,4083.05,1956.146Z" transform="translate(-4080.722 -1942.583)" fill="#f9c38a"/>
      <path id="Trazado_115040" data-name="Trazado 115040" d="M4078.781,1960.5c-.221-4.489-.189-10.021,2.327-10.965.993-.372,2.743,1.867,2.428,11.056A18.9,18.9,0,0,1,4078.781,1960.5Z" transform="translate(-4078.695 -1936.939)" fill="#5b6b1a"/>
      <path id="Trazado_115041" data-name="Trazado 115041" d="M4193.772,2222.72a2.179,2.179,0,0,0,.276,1.861c.625.741,3.225,1.468,3.565,1.869a1.124,1.124,0,0,1,.316.743l-7.3-.2.079-2.2.336-1.583Z" transform="translate(-4173.863 -2169.229)" fill="#f9c38a"/>
      <path id="Trazado_115042" data-name="Trazado 115042" d="M4192.186,2236.653s-1.875.759-2.78.309-.878-.573-1.14-.406-.356,2.233-.356,2.233l8.2.241c.571-.013.859-.434.4-.794a6.64,6.64,0,0,0-.9-.531A25.633,25.633,0,0,0,4192.186,2236.653Z" transform="translate(-4171.546 -2180.933)" fill="#353535"/>
      <path id="Trazado_115043" data-name="Trazado 115043" d="M4194.3,2078.938c.563-1.187,1.846-2.732,4.1-1.8,2.152.887,2.73,3.069,2.051,5.3s-5.149,15.364-5.305,17.169l-3.569.024s.648-10.4.808-12.91A24.311,24.311,0,0,1,4194.3,2078.938Z" transform="translate(-4174.662 -2045.216)" fill="#353535"/>
      <path id="Trazado_115044" data-name="Trazado 115044" d="M4116.558,2010.059h-11.931a.778.778,0,0,0-.72.484l-3.673,8.991h-6.578a.334.334,0,0,0-.333.334h0a.334.334,0,0,0,.333.334h18.721a1.307,1.307,0,0,0,1.192-.774l3.7-8.269A.78.78,0,0,0,4116.558,2010.059Z" transform="translate(-4091.13 -1988.43)" fill="#dc4437"/>
      <path id="Trazado_115045" data-name="Trazado 115045" d="M4198.2,2040.063a.657.657,0,1,1-.492-.859A.7.7,0,0,1,4198.2,2040.063Z" transform="translate(-4179.191 -2013.199)" fill="#fff"/>
      <g id="Grupo_57343" data-name="Grupo 57343" transform="translate(5.868 0)">
        <path id="Trazado_115046" data-name="Trazado 115046" d="M4124.5,1866.616a9.223,9.223,0,0,1-1.056-.423,5.282,5.282,0,0,0-1.2-.453,2.9,2.9,0,0,0-2.441.651c-.787.854-2.186.154-1.9,4.625.318,5.061,3.132,4.506,3.2,4.42s2.51-3.238,2.51-3.238.854,1.867.854,1.8S4128.82,1868.071,4124.5,1866.616Z" transform="translate(-4117.86 -1865.702)" fill="#282828"/>
        <path id="Trazado_115047" data-name="Trazado 115047" d="M4131.525,1917.009l.243,1.808s.544,2.605-.156,3.108-2.978-3.182-2.978-3.182l.241-4.582Z" transform="translate(-4127.021 -1906.901)" fill="#f9c38a"/>
        <path id="Trazado_115048" data-name="Trazado 115048" d="M4129.722,1915.646a5.189,5.189,0,0,0,2.934,2.9l-.206-1.533-2.65-2.848Z" transform="translate(-4127.945 -1906.901)" fill="#e5ac7a"/>
        <path id="Trazado_115049" data-name="Trazado 115049" d="M4129.617,1880.7a2.411,2.411,0,0,1,2.777,2.439,18.3,18.3,0,0,1-.2,2.32c-.322,2.088-1.747,3.926-2.688,3.762a4.526,4.526,0,0,1-2.894-4.936A3.993,3.993,0,0,1,4129.617,1880.7Z" transform="translate(-4125.256 -1878.43)" fill="#f9c38a"/>
        <path id="Trazado_115050" data-name="Trazado 115050" d="M4123.472,1901.732a.7.7,0,1,1-.533-.949A.776.776,0,0,1,4123.472,1901.732Z" transform="translate(-4121.466 -1895.52)" fill="#f9c38a"/>
        <path id="Trazado_115051" data-name="Trazado 115051" d="M4125.645,1879.762s1.138.283,1.561-.45,1.933-2.313,3.854-1.657-1.69-1.593-1.844-1.593l-2-.013s-1.421,1.169-1.473,1.3-.46,1.529-.46,1.529Z" transform="translate(-4124.172 -1874.499)" fill="#282828"/>
      </g>
      <path id="Trazado_115052" data-name="Trazado 115052" d="M4141.546,1921.226l2.072.4a.922.922,0,0,1-1.114.633C4141.387,1922.075,4141.546,1921.226,4141.546,1921.226Z" transform="translate(-4132.123 -1912.907)" fill="#fff"/>
    </g>
    <path id="Trazado_115053" data-name="Trazado 115053" d="M4109.569,2610.39H3893.521a.766.766,0,0,0-.766.766h0a.766.766,0,0,0,.766.766h216.048a.766.766,0,0,0,.766-.766h0A.766.766,0,0,0,4109.569,2610.39Z" transform="translate(-128.686 -1230.178)" fill="#efbe5e"/>
    <path id="Trazado_115054" data-name="Trazado 115054" d="M5041.681,2213.094c-.109-.312,1.409-.564,1.49-.88s-1.917-.341-1.988-.618c-.132-.511,2.189-.107,2.144-.346s-2.419-.773-2.163-1.183,2.4.81,2.468.532-2.1-.955-2.06-1.565c.021-.326,3.55,1.626,3.96,1.449s-.44-1.71-.114-1.937,1.261,3.115,1.486,3.226,4.994,2.833,6.691,3.266c.206-.568.651-1.335.833-1.872.952.677,1.659,1.018,2.641,1.635-.711,1.784-1.725,3.738-2.221,3.961-1.51.682-7.35-4.161-8.516-4.99s-1.834-.561-2.624-.823S5041.791,2213.406,5041.681,2213.094Z" transform="translate(-1105.018 -888.531)" fill="#f9c38a"/>
    <path id="Trazado_115055" data-name="Trazado 115055" d="M5128.346,2206.961c.451,1.857-1.955,6-1.955,6a23.237,23.237,0,0,1-4.031-2.315s2.329-4.019,2.481-4.264a2.106,2.106,0,0,1,2.241-1.035C5127.574,2205.4,5128.346,2206.961,5128.346,2206.961Z" transform="translate(-1174.065 -885.799)" fill="#e6e6e6"/>
  </g>
</svg>
