<svg xmlns="http://www.w3.org/2000/svg" xmlns:xlink="http://www.w3.org/1999/xlink" width="214.447" height="214.447" viewBox="0 0 214.447 214.447">
  <defs>
    <radialGradient id="radial-gradient" cx="0.5" cy="0.5" r="0.5" gradientUnits="objectBoundingBox">
      <stop offset="0" stop-color="#fff"/>
      <stop offset="1" stop-color="#e5dec1"/>
    </radialGradient>
    <filter id="Elipse_4156" x="0" y="0" width="214.447" height="214.447" filterUnits="userSpaceOnUse">
      <feOffset dy="3" input="SourceAlpha"/>
      <feGaussianBlur stdDeviation="3" result="blur"/>
      <feFlood flood-opacity="0.161"/>
      <feComposite operator="in" in2="blur"/>
      <feComposite in="SourceGraphic"/>
    </filter>
    <clipPath id="clip-path">
      <circle id="Elipse_4157" data-name="Elipse 4157" cx="98.223" cy="98.223" r="98.223" fill="none"/>
    </clipPath>
  </defs>
  <g id="Grupo_57434" data-name="Grupo 57434" transform="translate(-553.777 -5338)">
    <g transform="matrix(1, 0, 0, 1, 553.78, 5338)" filter="url(#Elipse_4156)">
      <circle id="Elipse_4156-2" data-name="Elipse 4156" cx="98.223" cy="98.223" r="98.223" transform="translate(9 6)" fill="url(#radial-gradient)"/>
    </g>
    <g id="Grupo_57433" data-name="Grupo 57433" transform="translate(562.777 5344)">
      <g id="Grupo_57432" data-name="Grupo 57432" transform="translate(0 0)" clip-path="url(#clip-path)">
        <g id="Grupo_57431" data-name="Grupo 57431" transform="translate(10.79 23.874)">
          <path id="Trazado_115272" data-name="Trazado 115272" d="M1653.086,1353.713h41.3l3.426-9.223a13.045,13.045,0,0,1,6.872-7.33,32.839,32.839,0,0,0,10.918-8.19,75.85,75.85,0,0,0,11.622-17.666l-25.592-.125s2.3-14.315-10.416-33.328a10.762,10.762,0,0,1-1.769-6.917l1.206-13.866s8.644-9.659,3.34-21.643c0,0-5.071-7.021-7.083-4.451,0,0-15.318,36.477-16.713,41.9s-3.254,8.833-1.395,25.879a103.266,103.266,0,0,1,.663,11.37,40.349,40.349,0,0,1-3.879,17.174Z" transform="translate(-1637.37 -1188.005)" fill="#f6c19d"/>
          <path id="Trazado_115273" data-name="Trazado 115273" d="M1691.6,1929.156c-3.833-4.255-9.158-3.584-14.757-5.525s-7.4-15.936-7.4-15.936v0c.009.528.013,1.041.012,1.535a40.349,40.349,0,0,1-3.879,17.174l-12.5,26.417h41.3l3.426-9.223a13.045,13.045,0,0,1,6.872-7.33,32.14,32.14,0,0,0,9.17-6.359C1702.475,1934.687,1695.435,1933.412,1691.6,1929.156Z" transform="translate(-1637.37 -1787.111)" fill="#f6c19d" opacity="0.2" style="mix-blend-mode: multiply;isolation: isolate"/>
          <g id="Grupo_57407" data-name="Grupo 57407" transform="translate(35.971)">
            <path id="Trazado_115274" data-name="Trazado 115274" d="M1828.561,867.029c9.494,14.98,32.893,28.329,32.893,28.329s-18.6-1.511-27.832-13.532l3.347-2.772s-2.66.257-4.889.515A25.181,25.181,0,0,1,1828.561,867.029Z" transform="translate(-1828.561 -866.572)" fill="#9c75c4"/>
            <path id="Trazado_115275" data-name="Trazado 115275" d="M1853.471,869.724c-1.444.655-3.579,1.653-3.579,1.653l2.058-2.956a23.985,23.985,0,0,0-7.648-3.921c-1.06,1.543-2.3,3.267-2.3,3.267l-.247-3.936a36.5,36.5,0,0,0-13.189-.3c9.494,14.98,32.893,28.329,32.893,28.329C1861.348,880.852,1858,873.979,1853.471,869.724Z" transform="translate(-1828.561 -863.072)" fill="#ac8cce"/>
          </g>
          <g id="Grupo_57408" data-name="Grupo 57408" transform="translate(32.485 18.51)">
            <path id="Trazado_115276" data-name="Trazado 115276" d="M1798.362,1026.509a22.049,22.049,0,0,1,8.379-2.886c.83.947,1.847,2.06,1.847,2.06l.057-2.229c10.582-.507,19.5,6.157,19.5,6.157-6.055,3.684-11.266,4.717-15.56,4.411-.271-.779-.656-1.94-.656-1.94l-.718,1.794a19.514,19.514,0,0,1-5.47-1.623c.381-.931.78-1.995.78-1.995l-2.256,1.237A20.049,20.049,0,0,1,1798.362,1026.509Z" transform="translate(-1798.362 -1023.426)" fill="#5b99e6"/>
            <path id="Trazado_115277" data-name="Trazado 115277" d="M1812.588,1055.563c-.271-.779-.656-1.94-.656-1.94l-.718,1.794a19.518,19.518,0,0,1-5.47-1.623c.381-.931.78-1.995.78-1.995l-2.256,1.236a20.048,20.048,0,0,1-5.906-4.986c12.312-1.407,29.786,3.1,29.786,3.1C1822.093,1054.836,1816.882,1055.869,1812.588,1055.563Z" transform="translate(-1798.362 -1044.967)" fill="#2671d1"/>
          </g>
          <g id="Grupo_57409" data-name="Grupo 57409" transform="translate(131.673 15.82)">
            <path id="Trazado_115278" data-name="Trazado 115278" d="M2694.191,1004.354l-.893,6.727,4.779-3.49,14.626-7.472-11.313,1.036s-5.763,1.4-6.075,1.682A14.011,14.011,0,0,0,2694.191,1004.354Z" transform="translate(-2689.181 -1000.12)" fill="#5cb30b"/>
            <path id="Trazado_115279" data-name="Trazado 115279" d="M2657.634,1000.292l23.521-.172-18.512,4.234Z" transform="translate(-2657.634 -1000.12)" fill="#92cc5c"/>
            <path id="Trazado_115280" data-name="Trazado 115280" d="M2719.308,1011.123l-6.163-4.951,17.114-6.052Z" transform="translate(-2706.737 -1000.12)" fill="#92cc5c"/>
          </g>
          <g id="Grupo_57413" data-name="Grupo 57413" transform="translate(114.978 22.729)">
            <g id="Grupo_57410" data-name="Grupo 57410" transform="translate(19.131)">
              <path id="Trazado_115281" data-name="Trazado 115281" d="M2678.892,1060.8a7.106,7.106,0,0,1,1.57-.412l-.044-.418a7.423,7.423,0,0,0-1.674.437Z" transform="translate(-2678.744 -1059.973)" fill="#141414"/>
            </g>
            <g id="Grupo_57411" data-name="Grupo 57411" transform="translate(4.457 2.138)">
              <path id="Trazado_115282" data-name="Trazado 115282" d="M2551.618,1114.652a26.476,26.476,0,0,0,2.723-1.58l.233.349a26.926,26.926,0,0,1-2.766,1.605Zm5.2-3.509a17.09,17.09,0,0,0,2.114-2.311l.335.253a17.488,17.488,0,0,1-2.166,2.368Zm3.737-4.984c.206-.432.4-.883.563-1.339.19-.517.358-1.057.5-1.605l.406.1c-.145.562-.317,1.115-.512,1.645-.172.469-.367.931-.578,1.375Zm1.7-9.186.42-.01a27.186,27.186,0,0,1-.1,3.2l-.418-.04A26.724,26.724,0,0,0,2562.253,1096.973Zm-.6-6.3.416-.059c.176,1.229.3,2.233.4,3.16l-.418.042C2561.955,1092.9,2561.83,1091.9,2561.655,1090.677Zm-.47-3.163a15.467,15.467,0,0,1-.159-3.188l.419.026a15.036,15.036,0,0,0,.155,3.1l0,.024-.416.057Zm.528-6.344a7.624,7.624,0,0,1,1.823-2.679l.288.305a7.212,7.212,0,0,0-1.723,2.533Z" transform="translate(-2551.618 -1078.491)" fill="#141414"/>
            </g>
            <g id="Grupo_57412" data-name="Grupo 57412" transform="translate(0 39.588)">
              <path id="Trazado_115283" data-name="Trazado 115283" d="M2513.144,1403.907c.541-.188,1.073-.385,1.584-.586l-.154-.391c-.5.2-1.032.394-1.567.58Z" transform="translate(-2513.006 -1402.931)" fill="#141414"/>
            </g>
          </g>
          <g id="Grupo_57414" data-name="Grupo 57414" transform="translate(112.318 15.335)">
            <path id="Trazado_115284" data-name="Trazado 115284" d="M2490.581,999.233s8.747-5.854,10.744-2-11.364,17.5-11.364,17.5Z" transform="translate(-2489.961 -995.92)" fill="#f19a5e"/>
            <path id="Trazado_115285" data-name="Trazado 115285" d="M2490.581,1220.205s8.747-5.854,10.744-2-11.364,17.5-11.364,17.5Z" transform="translate(-2489.961 -1191.386)" fill="#f19a5e"/>
            <path id="Trazado_115286" data-name="Trazado 115286" d="M2490.581,1370.757s8.747-5.854,10.744-2-11.364,17.5-11.364,17.5Z" transform="translate(-2489.961 -1324.559)" fill="#f19a5e"/>
          </g>
          <path id="Trazado_115287" data-name="Trazado 115287" d="M2025.4,967.785h-48.018a6.475,6.475,0,0,0-6.475,6.475V1072.4a6.476,6.476,0,0,0,6.475,6.475H2025.4a6.475,6.475,0,0,0,6.475-6.475V974.26A6.476,6.476,0,0,0,2025.4,967.785Z" transform="translate(-1918.508 -955.698)" fill="#141414"/>
          <path id="Trazado_115288" data-name="Trazado 115288" d="M1948.268,1581.2s-8.685,21.261-7.843,25.281,6.113,9.4,19.044,7.6a198.612,198.612,0,0,0,21.869-4.188s.54-28.693,0-30.149-23.791-11.783-24.706-11.783S1948.268,1581.2,1948.268,1581.2Z" transform="translate(-1891.49 -1486.602)" fill="#f6c19d" opacity="0.2" style="mix-blend-mode: multiply;isolation: isolate"/>
          <rect id="Rectángulo_6511" data-name="Rectángulo 6511" width="54.691" height="93.437" transform="translate(55.542 20.912)" fill="#fff"/>
          <g id="Grupo_57416" data-name="Grupo 57416" transform="translate(66.039 42.226)">
            <path id="Rectángulo_6512" data-name="Rectángulo 6512" d="M16.848,0h0A16.848,16.848,0,0,1,33.7,16.848v8.727A16.848,16.848,0,0,1,16.849,42.423h0A16.848,16.848,0,0,1,0,25.576V16.848A16.848,16.848,0,0,1,16.848,0Z" fill="#dae7f7"/>
            <g id="Grupo_57415" data-name="Grupo 57415" transform="translate(3.932 11.474)">
              <path id="Trazado_115289" data-name="Trazado 115289" d="M2133.513,1377.718l2.67,12.813a1.183,1.183,0,0,0,1.148.956h15.793a1.183,1.183,0,0,0,1.148-.956l2.67-12.813Zm4.71,12.527a.647.647,0,0,1-.647-.647l-.9-9.081a.647.647,0,1,1,1.293,0l.9,9.081A.647.647,0,0,1,2138.223,1390.245Zm3.252,0h0a.647.647,0,0,1-.646-.647l-.359-9.081a.647.647,0,1,1,1.293,0l.359,9.081A.647.647,0,0,1,2141.475,1390.245Zm4.4-.647a.647.647,0,0,1-1.293,0v-9.081a.647.647,0,1,1,1.293,0Zm3.753,0a.647.647,0,0,1-1.293,0l.359-9.081a.647.647,0,1,1,1.293,0Zm3.252,0a.647.647,0,0,1-1.293,0l.9-9.081a.647.647,0,1,1,1.293,0Z" transform="translate(-2132.312 -1372.012)" fill="#92cc5c"/>
              <path id="Trazado_115290" data-name="Trazado 115290" d="M2147.9,1370.822h-23.763a1.035,1.035,0,0,1-1.035-1.035h0a1.035,1.035,0,0,1,1.035-1.035H2147.9a1.035,1.035,0,0,1,1.035,1.035h0A1.035,1.035,0,0,1,2147.9,1370.822Z" transform="translate(-2123.104 -1364.081)" fill="#5cb30b"/>
              <path id="Trazado_115291" data-name="Trazado 115291" d="M2166.42,1333.032v-.894a2.7,2.7,0,0,1,2.7-2.7h8.39a2.7,2.7,0,0,1,2.7,2.7v.894a.58.58,0,0,0,.58.579h0a.579.579,0,0,0,.579-.579v-.894a3.855,3.855,0,0,0-3.855-3.855h-8.39a3.855,3.855,0,0,0-3.855,3.855v.894a.58.58,0,0,0,.58.579h0A.579.579,0,0,0,2166.42,1333.032Z" transform="translate(-2160.395 -1328.283)" fill="#92cc5c"/>
            </g>
          </g>
          <rect id="Rectángulo_6513" data-name="Rectángulo 6513" width="23.403" height="1.171" rx="0.585" transform="translate(71.23 16.805)" fill="#fff"/>
          <path id="Trazado_115292" data-name="Trazado 115292" d="M1854.5,1265.436a4.083,4.083,0,0,0,1.076,1.83l.887-10.2s6.358-7.106,4.822-16.689a14.319,14.319,0,0,0-4.653-8.494c-1.424-1.252-2.989-2.089-3.911-.911,0,0-7.2,17.153-12.18,29.683Z" transform="translate(-1803.189 -1188.006)" fill="#f6c19d"/>
          <g id="Grupo_57418" data-name="Grupo 57418" transform="translate(80.17 116.165)">
            <path id="Trazado_115293" data-name="Trazado 115293" d="M2216.83,1872.108a2.686,2.686,0,1,1-2.686-2.686A2.686,2.686,0,0,1,2216.83,1872.108Z" transform="translate(-2211.458 -1869.422)" fill="#dae7f7" opacity="0.3"/>
            <g id="Grupo_57417" data-name="Grupo 57417" transform="translate(1.567 1.567)">
              <path id="Trazado_115294" data-name="Trazado 115294" d="M2226.954,1885.235h-1.6a.318.318,0,0,1-.318-.318v-1.6a.318.318,0,0,1,.318-.318h1.6a.318.318,0,0,1,.318.318v1.6A.318.318,0,0,1,2226.954,1885.235Zm-1.6-2.152a.232.232,0,0,0-.232.232v1.6a.232.232,0,0,0,.232.232h1.6a.232.232,0,0,0,.232-.232v-1.6a.232.232,0,0,0-.232-.232Z" transform="translate(-2225.034 -1882.997)" fill="#dae7f7"/>
            </g>
          </g>
          <rect id="Rectángulo_6514" data-name="Rectángulo 6514" width="54.691" height="5.527" transform="translate(55.542 108.822)" fill="#d0e1f5"/>
          <rect id="Rectángulo_6515" data-name="Rectángulo 6515" width="54.691" height="4.958" transform="translate(55.542 20.912)" fill="#d0e1f5"/>
          <path id="Trazado_115295" data-name="Trazado 115295" d="M1918.361,1241.048c1.99-.916,3.03-6.094,3.4-8.422-1.6-1.607-3.6-3.053-4.7-1.653,0,0-1.586,3.777-3.784,9.081C1914.785,1240.891,1916.873,1241.733,1918.361,1241.048Z" transform="translate(-1867.531 -1188.006)" fill="#f19a5e"/>
          <path id="Trazado_115296" data-name="Trazado 115296" d="M1721.513,2085.755c4.37,2.685,18.437,10.712,32.983,12.423a1.275,1.275,0,0,1,1.2,1.556l-2.541,6.806a1.13,1.13,0,0,1-1.243.644c-4.287-.521-21.974-3.183-34.419-12.81a1.115,1.115,0,0,1-.444-1.249l2.593-6.946A1.265,1.265,0,0,1,1721.513,2085.755Z" transform="translate(-1693.899 -1944.415)" fill="#141414"/>
          <path id="Trazado_115297" data-name="Trazado 115297" d="M1742.276,2120.391l-.048-.018a.493.493,0,0,1-.289-.634l.782-2.1a.493.493,0,0,1,.634-.29l.048.018a.493.493,0,0,1,.29.634l-.782,2.1A.493.493,0,0,1,1742.276,2120.391Z" transform="translate(-1715.939 -1972.543)"/>
          <path id="Trazado_115298" data-name="Trazado 115298" d="M1764.943,2134.36l-.048-.018a.493.493,0,0,1-.289-.635l.782-2.1a.493.493,0,0,1,.634-.29l.048.018a.493.493,0,0,1,.289.634l-.782,2.1A.493.493,0,0,1,1764.943,2134.36Z" transform="translate(-1735.989 -1984.899)"/>
          <path id="Trazado_115299" data-name="Trazado 115299" d="M1787.645,2148.235l-.048-.018a.493.493,0,0,1-.29-.635l.782-2.1a.493.493,0,0,1,.635-.29l.048.018a.494.494,0,0,1,.29.635l-.782,2.1A.494.494,0,0,1,1787.645,2148.235Z" transform="translate(-1756.071 -1997.173)"/>
          <path id="Trazado_115300" data-name="Trazado 115300" d="M1811.009,2159.519l-.048-.018a.493.493,0,0,1-.289-.635l.782-2.1a.493.493,0,0,1,.634-.29l.048.018a.493.493,0,0,1,.29.634l-.782,2.1A.493.493,0,0,1,1811.009,2159.519Z" transform="translate(-1776.737 -2007.154)"/>
          <path id="Trazado_115301" data-name="Trazado 115301" d="M1833.995,2172.635l-.048-.018a.493.493,0,0,1-.289-.635l.782-2.1a.493.493,0,0,1,.634-.29l.048.018a.493.493,0,0,1,.29.635l-.782,2.1A.493.493,0,0,1,1833.995,2172.635Z" transform="translate(-1797.07 -2018.756)"/>
          <path id="Trazado_115302" data-name="Trazado 115302" d="M1857.994,2183.035l-.048-.018a.493.493,0,0,1-.29-.634l.782-2.1a.493.493,0,0,1,.634-.29l.048.018a.493.493,0,0,1,.29.635l-.782,2.1A.493.493,0,0,1,1857.994,2183.035Z" transform="translate(-1818.299 -2027.956)"/>
          <path id="Trazado_115303" data-name="Trazado 115303" d="M1882.465,2192.172l-.048-.018a.493.493,0,0,1-.29-.635l.782-2.1a.493.493,0,0,1,.634-.29l.048.018a.493.493,0,0,1,.29.634l-.782,2.1A.493.493,0,0,1,1882.465,2192.172Z" transform="translate(-1839.945 -2036.038)"/>
          <path id="Trazado_115304" data-name="Trazado 115304" d="M1907.409,2200.044l-.048-.018a.493.493,0,0,1-.29-.635l.782-2.1a.493.493,0,0,1,.634-.29l.048.018a.493.493,0,0,1,.289.634l-.782,2.1A.493.493,0,0,1,1907.409,2200.044Z" transform="translate(-1862.009 -2043.001)"/>
          <path id="Trazado_115305" data-name="Trazado 115305" d="M1933.366,2205.2l-.048-.018a.493.493,0,0,1-.289-.635l.782-2.1a.493.493,0,0,1,.634-.29l.048.018a.493.493,0,0,1,.29.635l-.782,2.1A.493.493,0,0,1,1933.366,2205.2Z" transform="translate(-1884.97 -2047.561)"/>
          <path id="Trazado_115306" data-name="Trazado 115306" d="M1958.639,2212.188l-.048-.018a.493.493,0,0,1-.289-.635l.782-2.1a.493.493,0,0,1,.634-.289l.048.018a.494.494,0,0,1,.29.635l-.782,2.1A.493.493,0,0,1,1958.639,2212.188Z" transform="translate(-1907.326 -2053.743)"/>
          <path id="Trazado_115307" data-name="Trazado 115307" d="M1984.879,2216.586l-.048-.018a.493.493,0,0,1-.289-.634l.782-2.1a.493.493,0,0,1,.634-.29l.048.018a.493.493,0,0,1,.289.634l-.782,2.1A.493.493,0,0,1,1984.879,2216.586Z" transform="translate(-1930.537 -2057.634)"/>
          <path id="Trazado_115308" data-name="Trazado 115308" d="M2011.155,2220.889l-.048-.018a.493.493,0,0,1-.289-.634l.782-2.1a.493.493,0,0,1,.634-.29l.048.018a.493.493,0,0,1,.289.634l-.782,2.1A.493.493,0,0,1,2011.155,2220.889Z" transform="translate(-1953.78 -2061.44)"/>
          <path id="Trazado_115309" data-name="Trazado 115309" d="M1794.221,2132.907l.012-.032a.612.612,0,0,1-.137-.033l-3.442-1.285a.687.687,0,0,1-.368-.9l3.1-8.314a.687.687,0,0,1,.865-.436l3.443,1.285a.642.642,0,0,1,.393.452q.405.177.818.353a1.489,1.489,0,0,0-.907-1.617l-3.443-1.285a1.524,1.524,0,0,0-1.92.968l-3.1,8.314a1.524,1.524,0,0,0,.816,1.989l3.442,1.285a1.449,1.449,0,0,0,1.486-.321Q1794.751,2133.125,1794.221,2132.907Z" transform="translate(-1757.973 -1975.807)" fill="#ac8cce"/>
          <path id="Trazado_115310" data-name="Trazado 115310" d="M1807.425,2162.381l-1.5-.559a.562.562,0,0,0-.392,1.05l1.5.559Z" transform="translate(-1771.932 -2011.879)" fill="#fff"/>
          <g id="Grupo_57419" data-name="Grupo 57419" transform="translate(88.077 60.385)">
            <path id="Trazado_115311" data-name="Trazado 115311" d="M2332.806,1577.352s-7.386.62-7.645,2.583.31,5.424,7.283,6.1h7.223s-2.161-5.992-2.058-6.2S2332.806,1577.352,2332.806,1577.352Z" transform="translate(-2319.901 -1555.286)" fill="#f3a875"/>
            <path id="Trazado_115312" data-name="Trazado 115312" d="M2281.013,1437.541a2,2,0,0,0-.781,2.775c3.4,5.862,16.915,29.16,18.133,31.055,1.395,2.17,4.8,7.283,16.116,9.918s15.961,10.228,15.961,10.228h34.867s-8.213-13.017-15.031-46.8c0,0-5.269-28.048-15.186-27.119,0,0-6.044-6.354-11.932-5.114,0,0-11.157-6.663-17.511-6.663l-15.261-18.036a4.416,4.416,0,0,0-6.03-.714,2.892,2.892,0,0,0-1.179,1.859c-.465,2.944,3.409,10.383,9.608,19.37s21.54,37.5,14.876,50.053a67.406,67.406,0,0,1-12.707-13.327C2290.026,1438.15,2284.225,1435.836,2281.013,1437.541Z" transform="translate(-2279.96 -1386.194)" fill="#f6c19d"/>
            <path id="Trazado_115313" data-name="Trazado 115313" d="M2502.756,1556.293a63.51,63.51,0,0,1,5.715,5.589,65.952,65.952,0,0,1,7.272,9.556,30.42,30.42,0,0,1,4.463,11.107l-.045.009a35.209,35.209,0,0,0-4.788-10.884,80.581,80.581,0,0,0-7.178-9.548c-1.623-1.872-3.681-4.083-5.471-5.8Z" transform="translate(-2477.01 -1536.658)" fill="#f19a5e"/>
            <path id="Trazado_115314" data-name="Trazado 115314" d="M2653.169,1613.541a17.213,17.213,0,0,1,4.416,3.348,21.367,21.367,0,0,1,3.346,4.464,21.8,21.8,0,0,1,2.094,5.169,21.083,21.083,0,0,1,.7,5.5l-.046,0a27.061,27.061,0,0,0-1-5.4,24.47,24.47,0,0,0-2.149-5.045,23.92,23.92,0,0,0-3.211-4.444,20.624,20.624,0,0,0-4.168-3.556Z" transform="translate(-2610.069 -1587.298)" fill="#f19a5e"/>
            <path id="Trazado_115315" data-name="Trazado 115315" d="M2756.309,1657.133a15.363,15.363,0,0,1,3.648,4.371,19.7,19.7,0,0,1,2.083,5.313,16.544,16.544,0,0,1,.486,3.76l-.046.006a28.044,28.044,0,0,0-.791-3.667,25.655,25.655,0,0,0-2.116-5.2,20.808,20.808,0,0,0-3.284-4.546Z" transform="translate(-2701.305 -1625.858)" fill="#f19a5e"/>
            <path id="Trazado_115316" data-name="Trazado 115316" d="M2288.056,1837.944c.309-1.569-1.519-4.057-3.178-5.934a3.858,3.858,0,0,0-4.109-1.12,2.006,2.006,0,0,0-.531,2.615c.913,1.575,2.557,4.41,4.5,7.75C2286.186,1840.516,2287.77,1839.4,2288.056,1837.944Z" transform="translate(-2279.965 -1779.384)" fill="#f19a5e"/>
            <path id="Trazado_115317" data-name="Trazado 115317" d="M2326.873,1396.334c.881-.177,4.881-1.506,4.636-2.236h0l-3.945-4.662a4.492,4.492,0,0,0-3.007-1.571h0l-.019,0c-.032,0-.1-.008-.206-.008a2,2,0,0,0-2.118,1.583c-.283,1.414,2.058,4.852,3.091,6.282A1.555,1.555,0,0,0,2326.873,1396.334Z" transform="translate(-2317.317 -1387.663)" fill="#f19a5e"/>
            <path id="Trazado_115318" data-name="Trazado 115318" d="M2473.041,2070.893h34.867s-5.385-8.535-11.054-29.717c-2.488,15.6-16.213,14.7-21.66,15.563-6.271,1-30.617-4.079-34.028-5.679,1.517,2.315,5.113,7.09,15.914,9.605C2468.392,2063.3,2473.041,2070.893,2473.041,2070.893Z" transform="translate(-2422.558 -1965.57)" fill="#f6c19d" opacity="0.2" style="mix-blend-mode: multiply;isolation: isolate"/>
            <path id="Trazado_115319" data-name="Trazado 115319" d="M2407.054,1602.21c6.836,10.984,19.1,36.217,13.033,47.225l4.028,3.976s10.176-11.274-6.017-36.135A165.737,165.737,0,0,0,2407.054,1602.21Z" transform="translate(-2392.383 -1577.275)" fill="#f6c19d" opacity="0.2" style="mix-blend-mode: multiply;isolation: isolate"/>
          </g>
          <g id="Grupo_57423" data-name="Grupo 57423" transform="translate(14.987 78.018)">
            <g id="Grupo_57420" data-name="Grupo 57420" transform="translate(3.638)">
              <path id="Trazado_115320" data-name="Trazado 115320" d="M1679.618,1540.255a7.108,7.108,0,0,0-1.331-.929l.186-.377a7.43,7.43,0,0,1,1.42.988Z" transform="translate(-1678.287 -1538.949)" fill="#141414"/>
            </g>
            <g id="Grupo_57421" data-name="Grupo 57421" transform="translate(0 3.536)">
              <path id="Trazado_115321" data-name="Trazado 115321" d="M1652.407,1607.916a26.917,26.917,0,0,1-2.042-2.462l.339-.248a26.517,26.517,0,0,0,2.01,2.423Zm-3.736-5.182a17.488,17.488,0,0,1-1.215-2.97l.4-.121a17.092,17.092,0,0,0,1.186,2.9Zm-1.831-6.123c-.045-.49-.068-.991-.068-1.49,0-.564.029-1.143.087-1.721l.418.042c-.056.564-.085,1.129-.085,1.679,0,.486.022.974.066,1.451Zm1.006-6.255-.406-.107a27.155,27.155,0,0,1,1.007-3.036l.391.154A26.707,26.707,0,0,0,1647.846,1590.356Zm2.272-5.878-.378-.184c.408-.838.873-1.737,1.462-2.83l.37.2C1650.986,1582.752,1650.524,1583.646,1650.118,1584.478Zm2.978-5.6-.371-.2.012-.022a15.062,15.062,0,0,0,1.216-2.856l.4.12a15.463,15.463,0,0,1-1.25,2.937Zm1.285-6.139a7.21,7.21,0,0,0-.743-2.972l.376-.187a7.627,7.627,0,0,1,.786,3.144Z" transform="translate(-1646.772 -1569.578)" fill="#141414"/>
            </g>
            <g id="Grupo_57422" data-name="Grupo 57422" transform="translate(7.93 43.796)">
              <path id="Trazado_115322" data-name="Trazado 115322" d="M1716.753,1919.769c-.442-.363-.874-.732-1.284-1.1l.279-.314c.405.361.833.726,1.271,1.085Z" transform="translate(-1715.469 -1918.359)" fill="#141414"/>
            </g>
          </g>
          <g id="Grupo_57424" data-name="Grupo 57424" transform="translate(0 64.15)">
            <path id="Trazado_115323" data-name="Trazado 115323" d="M1534.127,1426.885l-.556,6.764-3.929-4.425-12.706-10.407,10.835,3.414s5.335,2.592,5.58,2.934A14.036,14.036,0,0,1,1534.127,1426.885Z" transform="translate(-1516.936 -1418.817)" fill="#9369bf"/>
            <path id="Trazado_115324" data-name="Trazado 115324" d="M1539.884,1423.978l-22.949-5.161,17.191,8.068Z" transform="translate(-1516.936 -1418.817)" fill="#ac8cce"/>
            <path id="Trazado_115325" data-name="Trazado 115325" d="M1525.3,1431.893l7.074-3.529-15.439-9.547Z" transform="translate(-1516.936 -1418.817)" fill="#ac8cce"/>
          </g>
          <g id="Grupo_57428" data-name="Grupo 57428" transform="translate(43.638 20.912)">
            <g id="Grupo_57427" data-name="Grupo 57427">
              <g id="Grupo_57425" data-name="Grupo 57425" transform="translate(0 11.035)">
                <path id="Rectángulo_6516" data-name="Rectángulo 6516" d="M0,0H8.724a0,0,0,0,1,0,0V3.233A4.362,4.362,0,0,1,4.362,7.595h0A4.362,4.362,0,0,1,0,3.233V0A0,0,0,0,1,0,0Z" transform="translate(43.622)" fill="#085fcc"/>
                <path id="Rectángulo_6517" data-name="Rectángulo 6517" d="M0,0H8.724a0,0,0,0,1,0,0V3.232A4.362,4.362,0,0,1,4.362,7.595h0A4.362,4.362,0,0,1,0,3.232V0A0,0,0,0,1,0,0Z" transform="translate(34.897)" fill="#88b2e7"/>
                <path id="Rectángulo_6518" data-name="Rectángulo 6518" d="M0,0H8.724a0,0,0,0,1,0,0V3.232A4.362,4.362,0,0,1,4.362,7.595h0A4.362,4.362,0,0,1,0,3.232V0A0,0,0,0,1,0,0Z" transform="translate(26.173)" fill="#085fcc"/>
                <path id="Rectángulo_6519" data-name="Rectángulo 6519" d="M0,0H8.724a0,0,0,0,1,0,0V3.232A4.362,4.362,0,0,1,4.362,7.595h0A4.362,4.362,0,0,1,0,3.233V0A0,0,0,0,1,0,0Z" transform="translate(17.449)" fill="#88b2e7"/>
                <path id="Rectángulo_6520" data-name="Rectángulo 6520" d="M0,0H8.724a0,0,0,0,1,0,0V3.232A4.362,4.362,0,0,1,4.362,7.595h0A4.362,4.362,0,0,1,0,3.232V0A0,0,0,0,1,0,0Z" transform="translate(8.724)" fill="#085fcc"/>
                <path id="Rectángulo_6521" data-name="Rectángulo 6521" d="M0,0H8.724a0,0,0,0,1,0,0V3.232A4.362,4.362,0,0,1,4.362,7.595h0A4.362,4.362,0,0,1,0,3.232V0A0,0,0,0,1,0,0Z" transform="translate(69.774)" fill="#88b2e7"/>
                <path id="Rectángulo_6522" data-name="Rectángulo 6522" d="M0,0H8.724a0,0,0,0,1,0,0V3.233A4.362,4.362,0,0,1,4.362,7.595h0A4.362,4.362,0,0,1,0,3.233V0A0,0,0,0,1,0,0Z" transform="translate(61.05)" fill="#085fcc"/>
                <path id="Rectángulo_6523" data-name="Rectángulo 6523" d="M0,0H8.724a0,0,0,0,1,0,0V3.232A4.362,4.362,0,0,1,4.362,7.595h0A4.362,4.362,0,0,1,0,3.232V0A0,0,0,0,1,0,0Z" transform="translate(52.346)" fill="#88b2e7"/>
                <path id="Rectángulo_6524" data-name="Rectángulo 6524" d="M0,0H8.724a0,0,0,0,1,0,0V3.232A4.362,4.362,0,0,1,4.362,7.595h0A4.362,4.362,0,0,1,0,3.232V0A0,0,0,0,1,0,0Z" fill="#88b2e7"/>
              </g>
              <g id="Grupo_57426" data-name="Grupo 57426">
                <path id="Trazado_115326" data-name="Trazado 115326" d="M2204.761,1044.237h-6.2l-1.261,11.035h8.724Z" transform="translate(-2162.401 -1044.237)" fill="#dae7f7"/>
                <path id="Trazado_115327" data-name="Trazado 115327" d="M2131.7,1044.237h-6.2l-3.782,11.035h8.724Z" transform="translate(-2095.545 -1044.237)" fill="#669cdf"/>
                <path id="Trazado_115328" data-name="Trazado 115328" d="M2058.645,1044.237h-6.2l-6.3,11.035h8.724Z" transform="translate(-2028.69 -1044.237)" fill="#dae7f7"/>
                <path id="Trazado_115329" data-name="Trazado 115329" d="M1985.586,1044.237h-6.2l-8.825,11.035h8.724Z" transform="translate(-1961.834 -1044.237)" fill="#669cdf"/>
                <path id="Trazado_115330" data-name="Trazado 115330" d="M1912.528,1044.237h-6.2l-11.346,11.035h8.724Z" transform="translate(-1894.979 -1044.237)" fill="#dae7f7"/>
                <path id="Trazado_115331" data-name="Trazado 115331" d="M2429.012,1044.237h-6.2l8.846,11.035h8.724Z" transform="translate(-2361.881 -1044.237)" fill="#dae7f7"/>
                <path id="Trazado_115332" data-name="Trazado 115332" d="M2375.542,1044.237h-6.2l6.294,11.035h8.724Z" transform="translate(-2314.583 -1044.237)" fill="#669cdf"/>
                <path id="Trazado_115333" data-name="Trazado 115333" d="M2321.806,1044.237h-6.2l3.792,11.035h8.724Z" transform="translate(-2267.05 -1044.237)" fill="#dae7f7"/>
                <path id="Trazado_115334" data-name="Trazado 115334" d="M2268.07,1044.237h-6.2l1.271,11.035h8.724Z" transform="translate(-2219.516 -1044.237)" fill="#669cdf"/>
              </g>
            </g>
          </g>
          <g id="Grupo_57430" data-name="Grupo 57430" transform="translate(62.678 90.336)">
            <path id="Rectángulo_6525" data-name="Rectángulo 6525" d="M3.82,0H36.6a3.82,3.82,0,0,1,3.82,3.82v0A3.819,3.819,0,0,1,36.6,7.639H3.82A3.82,3.82,0,0,1,0,3.82v0A3.82,3.82,0,0,1,3.82,0Z" fill="#4385d8"/>
            <g id="Grupo_57429" data-name="Grupo 57429" transform="translate(9.881 2.024)">
              <path id="Trazado_115335" data-name="Trazado 115335" d="M2147.689,1665.961a.982.982,0,0,1-.04.286.844.844,0,0,1-.11.235.82.82,0,0,1-.171.183.991.991,0,0,1-.226.132,1.287,1.287,0,0,1-.269.08,1.8,1.8,0,0,1-.329.027h-.858a.18.18,0,0,1-.111-.04.163.163,0,0,1-.052-.138v-2.931a.163.163,0,0,1,.052-.138.179.179,0,0,1,.111-.039h.747a1.726,1.726,0,0,1,.482.056.856.856,0,0,1,.314.162.674.674,0,0,1,.189.262.918.918,0,0,1,.063.35.872.872,0,0,1-.028.224.738.738,0,0,1-.083.2.674.674,0,0,1-.137.161.726.726,0,0,1-.189.117.8.8,0,0,1,.252.093.768.768,0,0,1,.2.172.8.8,0,0,1,.138.244A.9.9,0,0,1,2147.689,1665.961Zm-.658-1.47a.666.666,0,0,0-.033-.216.4.4,0,0,0-.1-.164.469.469,0,0,0-.185-.1,1.047,1.047,0,0,0-.3-.035h-.451v1.064h.5a.7.7,0,0,0,.273-.044.488.488,0,0,0,.172-.119.463.463,0,0,0,.1-.175A.679.679,0,0,0,2147.031,1664.491Zm.2,1.5a.665.665,0,0,0-.047-.259.491.491,0,0,0-.137-.188.6.6,0,0,0-.226-.115,1.227,1.227,0,0,0-.341-.039h-.522v1.158h.634a.862.862,0,0,0,.261-.036.58.58,0,0,0,.2-.105.487.487,0,0,0,.133-.174A.57.57,0,0,0,2147.229,1665.986Z" transform="translate(-2145.523 -1663.569)" fill="#fff"/>
              <path id="Trazado_115336" data-name="Trazado 115336" d="M2172.463,1665.572a1.523,1.523,0,0,1-.087.535,1.094,1.094,0,0,1-.25.4,1.053,1.053,0,0,1-.4.246,1.57,1.57,0,0,1-.531.084,1.484,1.484,0,0,1-.5-.078,1.047,1.047,0,0,1-.383-.232,1.019,1.019,0,0,1-.246-.385,1.517,1.517,0,0,1-.086-.533v-2.039a.062.062,0,0,1,.01-.035.066.066,0,0,1,.035-.024.423.423,0,0,1,.066-.015.744.744,0,0,1,.107-.006.76.76,0,0,1,.1.006.383.383,0,0,1,.067.015.067.067,0,0,1,.034.024.062.062,0,0,1,.01.035v1.986a1.278,1.278,0,0,0,.056.4.745.745,0,0,0,.161.283.67.67,0,0,0,.254.17.919.919,0,0,0,.334.057.96.96,0,0,0,.339-.056.646.646,0,0,0,.251-.168.752.752,0,0,0,.157-.277,1.231,1.231,0,0,0,.055-.386v-2.009a.063.063,0,0,1,.01-.035.068.068,0,0,1,.036-.024.417.417,0,0,1,.067-.015.751.751,0,0,1,.105-.006.732.732,0,0,1,.1.006.377.377,0,0,1,.066.015.075.075,0,0,1,.036.024.057.057,0,0,1,.011.035Z" transform="translate(-2167.163 -1663.452)" fill="#fff"/>
              <path id="Trazado_115337" data-name="Trazado 115337" d="M2200.766,1666.723a.549.549,0,0,1-.005.08.173.173,0,0,1-.018.057.088.088,0,0,1-.029.033.068.068,0,0,1-.037.01H2199.1a.18.18,0,0,1-.111-.04.163.163,0,0,1-.052-.138v-2.931a.163.163,0,0,1,.052-.138.179.179,0,0,1,.111-.039h1.559a.07.07,0,0,1,.037.01.073.073,0,0,1,.027.033.248.248,0,0,1,.016.057.485.485,0,0,1,.007.085.448.448,0,0,1-.007.08.226.226,0,0,1-.016.056.074.074,0,0,1-.027.032.071.071,0,0,1-.037.01h-1.285v1.031h1.1a.062.062,0,0,1,.037.012.091.091,0,0,1,.028.032.159.159,0,0,1,.017.056.6.6,0,0,1,.005.084.52.52,0,0,1-.005.079.156.156,0,0,1-.017.053.071.071,0,0,1-.028.029.076.076,0,0,1-.037.009h-1.1v1.176h1.3a.07.07,0,0,1,.037.01.1.1,0,0,1,.029.032.157.157,0,0,1,.018.056A.591.591,0,0,1,2200.766,1666.723Z" transform="translate(-2192.772 -1663.569)" fill="#fff"/>
              <path id="Trazado_115338" data-name="Trazado 115338" d="M2233.608,1666.664a.2.2,0,0,1-.017.087.174.174,0,0,1-.045.058.176.176,0,0,1-.062.033.233.233,0,0,1-.068.01h-.144a.459.459,0,0,1-.12-.014.27.27,0,0,1-.1-.051.507.507,0,0,1-.092-.1,1.3,1.3,0,0,1-.1-.162l-1-1.869q-.078-.145-.159-.3t-.148-.308h-.005q.005.183.008.373t0,.378v1.983a.062.062,0,0,1-.011.035.068.068,0,0,1-.036.025.41.41,0,0,1-.067.015.9.9,0,0,1-.212,0,.363.363,0,0,1-.065-.015.068.068,0,0,1-.035-.025.064.064,0,0,1-.011-.035v-3.032a.169.169,0,0,1,.058-.145.2.2,0,0,1,.126-.043h.215a.532.532,0,0,1,.127.013.267.267,0,0,1,.092.042.36.36,0,0,1,.079.082,1.1,1.1,0,0,1,.08.13l.771,1.443q.071.132.137.258t.128.248l.122.24c.04.079.08.158.119.237h0q-.005-.2-.006-.418t0-.418v-1.783a.055.055,0,0,1,.011-.033.084.084,0,0,1,.036-.027.238.238,0,0,1,.067-.017.959.959,0,0,1,.109,0,.911.911,0,0,1,.1,0,.221.221,0,0,1,.067.017.085.085,0,0,1,.035.027.057.057,0,0,1,.011.033Z" transform="translate(-2221.243 -1663.51)" fill="#fff"/>
              <path id="Trazado_115339" data-name="Trazado 115339" d="M2261.538,1664.852a2.555,2.555,0,0,1-.094.719,1.5,1.5,0,0,1-.281.544,1.227,1.227,0,0,1-.469.346,1.665,1.665,0,0,1-.658.12,1.687,1.687,0,0,1-.641-.11,1.122,1.122,0,0,1-.447-.321,1.369,1.369,0,0,1-.263-.523,2.7,2.7,0,0,1-.086-.719,2.482,2.482,0,0,1,.094-.706,1.468,1.468,0,0,1,.282-.539,1.244,1.244,0,0,1,.47-.343,1.658,1.658,0,0,1,.658-.121,1.678,1.678,0,0,1,.632.109,1.145,1.145,0,0,1,.448.319,1.353,1.353,0,0,1,.267.518A2.6,2.6,0,0,1,2261.538,1664.852Zm-.462.031a2.574,2.574,0,0,0-.049-.519,1.2,1.2,0,0,0-.165-.417.8.8,0,0,0-.308-.276,1.035,1.035,0,0,0-.477-.1.974.974,0,0,0-.477.107.9.9,0,0,0-.313.285,1.183,1.183,0,0,0-.173.415,2.329,2.329,0,0,0-.052.5,2.765,2.765,0,0,0,.048.533,1.193,1.193,0,0,0,.163.42.78.78,0,0,0,.305.274,1.056,1.056,0,0,0,.481.1,1,1,0,0,0,.482-.107.869.869,0,0,0,.314-.288,1.23,1.23,0,0,0,.17-.42A2.434,2.434,0,0,0,2261.076,1664.883Z" transform="translate(-2245.547 -1663.199)" fill="#fff"/>
              <path id="Trazado_115340" data-name="Trazado 115340" d="M2290.549,1666.69a.135.135,0,0,1-.031.057.13.13,0,0,1-.056.033.45.45,0,0,1-.087.017c-.035,0-.078,0-.128,0s-.1,0-.133,0a.452.452,0,0,1-.09-.017.113.113,0,0,1-.053-.033.159.159,0,0,1-.028-.057l-.688-2.481h-.005l-.635,2.481a.131.131,0,0,1-.025.057.111.111,0,0,1-.051.033.4.4,0,0,1-.085.017c-.035,0-.079,0-.133,0s-.1,0-.14,0a.456.456,0,0,1-.091-.017.121.121,0,0,1-.055-.033.124.124,0,0,1-.027-.057l-.868-3.035a.464.464,0,0,1-.017-.091.059.059,0,0,1,.021-.051.131.131,0,0,1,.07-.023c.032,0,.075-.005.13-.005s.094,0,.125,0a.237.237,0,0,1,.07.014.062.062,0,0,1,.033.028.166.166,0,0,1,.014.046l.739,2.752h0l.7-2.747a.186.186,0,0,1,.019-.047.071.071,0,0,1,.037-.029.284.284,0,0,1,.072-.015,1.22,1.22,0,0,1,.123-.005,1.009,1.009,0,0,1,.113.005.274.274,0,0,1,.067.015.072.072,0,0,1,.037.029.2.2,0,0,1,.019.047l.754,2.747h.005l.724-2.75c.005-.017.01-.032.015-.045a.055.055,0,0,1,.032-.029.258.258,0,0,1,.069-.015,1.107,1.107,0,0,1,.118-.005.936.936,0,0,1,.121.006.127.127,0,0,1,.065.024.061.061,0,0,1,.019.051.594.594,0,0,1-.014.091Z" transform="translate(-2270.777 -1663.452)" fill="#fff"/>
            </g>
          </g>
        </g>
      </g>
    </g>
  </g>
</svg>
