<svg xmlns="http://www.w3.org/2000/svg" xmlns:xlink="http://www.w3.org/1999/xlink" width="204.455" height="141.295" viewBox="0 0 204.455 141.295">
  <defs>
    <filter id="Trazado_116023" x="31.41" y="0" width="173.045" height="141.295" filterUnits="userSpaceOnUse">
      <feOffset dx="3" dy="4" input="SourceAlpha"/>
      <feGaussianBlur stdDeviation="4" result="blur"/>
      <feFlood flood-opacity="0.38"/>
      <feComposite operator="in" in2="blur"/>
      <feComposite in="SourceGraphic"/>
    </filter>
  </defs>
  <g id="Grupo_57724" data-name="Grupo 57724" transform="translate(0 3.591)">
    <g transform="matrix(1, 0, 0, 1, 0, -3.59)" filter="url(#Trazado_116023)">
      <path id="Trazado_116023-2" data-name="Trazado 116023" d="M1755.916,720.992a1.124,1.124,0,0,1-.162-2.209c18.5-4.58,22.418-18,12.8-19.168-26.752-3.241-54.892-4.784-64.088-33.728-13.893-43.729,25.111-63.9,57.813-61.212,43.4,3.562,98.1,13.9,86.852,66.1C1843.261,698,1815.557,726.749,1755.916,720.992Z" transform="translate(-1661.17 -596.44)" fill="#fff"/>
    </g>
    <path id="Trazado_116024" data-name="Trazado 116024" d="M1707.159,617.851a.634.634,0,0,1-.531-.978c11.543-17.821,36-24.213,55.121-22.646,9.887.812,18.393,1.824,26,3.1a.634.634,0,1,1-.209,1.25c-7.572-1.266-16.042-2.275-25.894-3.084-18.739-1.54-42.695,4.69-53.954,22.072A.632.632,0,0,1,1707.159,617.851Z" transform="translate(-1664.026 -593.999)"/>
    <path id="Trazado_116025" data-name="Trazado 116025" d="M1725.512,753.506a.63.63,0,0,1-.187-.028c-15.838-4.911-25.347-13.907-29.923-28.311a63.28,63.28,0,0,1-2.51-11.162.634.634,0,0,1,1.258-.158,61.977,61.977,0,0,0,2.46,10.937c4.44,13.974,13.684,22.707,29.091,27.484a.633.633,0,0,1-.188,1.239Z" transform="translate(-1656.147 -662.905)"/>
    <path id="Trazado_116026" data-name="Trazado 116026" d="M1778.247,809.224a.64.64,0,0,1-.14-.016c-1.655-.375-3.249-.778-4.737-1.2a.634.634,0,1,1,.346-1.219c1.467.416,3.039.814,4.671,1.184a.634.634,0,0,1-.139,1.252Z" transform="translate(-1702.369 -716.894)"/>
    <path id="Trazado_116027" data-name="Trazado 116027" d="M1822.1,838.506c-4.7,0-9.678-.236-14.962-.745a1.758,1.758,0,0,1-.254-3.454c12.4-3.069,17.632-10.038,17.389-14.006-.132-2.158-1.778-3.586-4.514-3.917q-2.367-.287-4.744-.562c-6.027-.705-12.259-1.434-18.172-2.5a.634.634,0,1,1,.224-1.247c5.875,1.059,12.087,1.785,18.1,2.489q2.378.278,4.749.562c3.353.406,5.456,2.312,5.626,5.1.314,5.144-6.01,12.259-18.35,15.314a.491.491,0,0,0,.072.963c39.422,3.808,61.848-7.8,73.719-18.21a.634.634,0,1,1,.836.953C1871.358,828.414,1852.854,838.506,1822.1,838.506Z" transform="translate(-1715.894 -719.956)"/>
    <path id="Trazado_116028" data-name="Trazado 116028" d="M2021.3,801.615" transform="translate(-1845.841 -713.92)" fill="none" stroke="#000" stroke-linecap="round" stroke-miterlimit="10" stroke-width="3"/>
    <path id="Trazado_116029" data-name="Trazado 116029" d="M2020.435,787.611a.633.633,0,0,1-.52-.995,58.139,58.139,0,0,0,5.561-9.961.634.634,0,1,1,1.162.5,59.451,59.451,0,0,1-5.682,10.179A.633.633,0,0,1,2020.435,787.611Z" transform="translate(-1844.975 -699.282)"/>
    <path id="Trazado_116030" data-name="Trazado 116030" d="M2038.427,767.977" transform="translate(-1855.732 -694.49)" fill="none" stroke="#000" stroke-linecap="round" stroke-miterlimit="10" stroke-width="3"/>
    <path id="Trazado_116031" data-name="Trazado 116031" d="M1971.381,675.5a.646.646,0,0,1-.207-.035.634.634,0,0,1-.392-.806,55.815,55.815,0,0,0,1.807-6.459c6.765-31.386-9.507-51.068-49.745-60.17a.634.634,0,1,1,.28-1.236c18.505,4.185,31.723,10.439,40.408,19.116,10.63,10.62,14.095,24.939,10.3,42.558a57.215,57.215,0,0,1-1.849,6.606A.634.634,0,0,1,1971.381,675.5Z" transform="translate(-1788.687 -601.384)"/>
    <g id="Grupo_57729" data-name="Grupo 57729" transform="translate(0 28.153)">
      <g id="Grupo_57728" data-name="Grupo 57728" transform="translate(2.905 2.695)">
        <g id="Grupo_57725" data-name="Grupo 57725" transform="translate(2.957 1.69)" opacity="0.5" style="mix-blend-mode: multiply;isolation: isolate">
          <path id="Trazado_116032" data-name="Trazado 116032" d="M1681.364,712.217c-1.28,2.981-3.839,7.471-5.4,13.39a38.117,38.117,0,0,0-.813,16.147l-22.5,6.337c-5.615-13.32-16.24-18.46-20.958-21.732-9.573-6.64-13.887-20.659-11.033-31.851a30.027,30.027,0,0,1,9.793-15.461,32.979,32.979,0,0,1,5.809-3.944,32.5,32.5,0,0,1,6.781-2.713c10.281-3.083,22.387-.994,30.751,6.974a28.394,28.394,0,0,1,3.914,4.652C1683.22,692.138,1685.15,703.36,1681.364,712.217Z" transform="translate(-1619.789 -671.029)"/>
          <path id="Trazado_116033" data-name="Trazado 116033" d="M1692.442,712.217c-1.28,2.981-3.839,7.471-5.4,13.39a35.577,35.577,0,0,1-45.514-46.56,32.975,32.975,0,0,1,5.809-3.944,32.5,32.5,0,0,1,6.781-2.713c10.281-3.083,22.387-.994,30.751,6.974a28.4,28.4,0,0,1,3.914,4.652C1694.3,692.138,1696.228,703.36,1692.442,712.217Z" transform="translate(-1630.867 -671.029)"/>
          <path id="Trazado_116034" data-name="Trazado 116034" d="M1698.369,684.016a21.425,21.425,0,1,1-41.446-8.913,32.5,32.5,0,0,1,6.781-2.713c10.281-3.083,22.387-.994,30.751,6.974A28.394,28.394,0,0,1,1698.369,684.016Z" transform="translate(-1640.453 -671.029)"/>
          <path id="Trazado_116035" data-name="Trazado 116035" d="M1720.942,840.324a3.348,3.348,0,0,1-.172,1.046c-.031.088-.062.172-.1.255a3.3,3.3,0,0,1-2.146,1.873l-22.48,6.253-1.72.479-.514.141a3.064,3.064,0,0,1-.787.119,3.3,3.3,0,0,1-3.276-2.414,3.248,3.248,0,0,1-.123-.884,3.3,3.3,0,0,1,2.419-3.179l.572-.158,1.574-.435,22.568-6.275a3.292,3.292,0,0,1,4.059,2.291c.018.07.035.141.049.207a1.929,1.929,0,0,1,.039.22A2.7,2.7,0,0,1,1720.942,840.324Z" transform="translate(-1660.127 -766.908)"/>
          <path id="Trazado_116036" data-name="Trazado 116036" d="M1725.231,854.791a3.366,3.366,0,0,1-.268,1.306c-.036.084-.075.163-.114.242a3.292,3.292,0,0,1-2.032,1.631l-1.09.3-18.8,5.229-1.772.492-1.711.475-1.346.374a3.3,3.3,0,0,1-4.063-2.3,3.236,3.236,0,0,1-.123-.884,3.308,3.308,0,0,1,2.418-3.175l.567-.158,1.583-.44,22.563-6.275a3.031,3.031,0,0,1,.787-.119,3.294,3.294,0,0,1,3.276,2.414c.013.044.022.088.031.132a1.667,1.667,0,0,1,.052.29A2.685,2.685,0,0,1,1725.231,854.791Z" transform="translate(-1662.605 -775.267)"/>
          <path id="Trazado_116037" data-name="Trazado 116037" d="M1730.47,870.738a3.314,3.314,0,0,1-.264,1.3,3.47,3.47,0,0,1-.73,1.064,3.312,3.312,0,0,1-1.42.814l-2.555.708-10.695,2.973-1.777.493-1.728.479-2.823.787a3.3,3.3,0,0,1-3.034-5.677,3.231,3.231,0,0,1,1.266-.677l.572-.158,1.583-.44,17.423-4.846a3.255,3.255,0,0,1,1.434-.075,3.294,3.294,0,0,1,2.625,2.37,2.988,2.988,0,0,1,.088.426,1.244,1.244,0,0,1,.022.22A2.2,2.2,0,0,1,1730.47,870.738Z" transform="translate(-1668.6 -784.472)"/>
          <path id="Trazado_116038" data-name="Trazado 116038" d="M1736.254,887.631a3.313,3.313,0,0,1-2.419,3.175l-11.438,3.179a3.294,3.294,0,0,1-4.059-2.291,3.246,3.246,0,0,1-.123-.888,3.3,3.3,0,0,1,1.126-2.48,3.249,3.249,0,0,1,1.293-.695l.571-.158,1.579-.44,9.287-2.581a3.334,3.334,0,0,1,1.469-.071,3.288,3.288,0,0,1,2.59,2.366,2.844,2.844,0,0,1,.088.422A2.7,2.7,0,0,1,1736.254,887.631Z" transform="translate(-1676.64 -794.233)"/>
          <path id="Trazado_116039" data-name="Trazado 116039" d="M1726.47,846.432a3.366,3.366,0,0,1-.268,1.306c-.035.084-.075.163-.115.242a3.292,3.292,0,0,1-2.032,1.631l-1.09.3a3.309,3.309,0,0,1,2.484,4.556,3.473,3.473,0,0,1-.73,1.064,3.311,3.311,0,0,1-1.42.813l-2.555.708a3.288,3.288,0,0,1,2.59,2.366,3.237,3.237,0,0,1-.15,2.185l-10.866,3.021a3.293,3.293,0,0,1-4.059-2.3,3.244,3.244,0,0,1-.123-.884,3.291,3.291,0,0,1,.136-.928,2.716,2.716,0,0,1,.136-.374,3.282,3.282,0,0,1,.858-1.179l-2.828.787a3.294,3.294,0,0,1-4.059-2.291,3.244,3.244,0,0,1,.018-1.829,3.109,3.109,0,0,1,.127-.361,3.279,3.279,0,0,1,.88-1.2l-1.346.374a3.3,3.3,0,0,1-4.063-2.3,3.243,3.243,0,0,1-.123-.884,3.206,3.206,0,0,1,.171-1.042,2.72,2.72,0,0,1,.1-.259,3.259,3.259,0,0,1,1.324-1.517,3.3,3.3,0,0,1-3.281-2.41,3.252,3.252,0,0,1-.123-.884,3.289,3.289,0,0,1,.273-1.306l24.142-6.71a3.292,3.292,0,0,1,4.059,2.291,3.25,3.25,0,0,1,.123.888,3.348,3.348,0,0,1-.172,1.046c-.031.088-.062.172-.1.255a2.2,2.2,0,1,0,1.961,3.927A3.392,3.392,0,0,1,1726.47,846.432Z" transform="translate(-1663.844 -766.908)"/>
          <path id="Trazado_116040" data-name="Trazado 116040" d="M1727.148,839.862,1705.1,846l-.51.141a2.914,2.914,0,0,1-.787.119,3.3,3.3,0,0,1-3.276-2.414,3.241,3.241,0,0,1-.092-.422L1723,837.145a3.292,3.292,0,0,1,4.059,2.291c.018.07.035.141.049.207A1.9,1.9,0,0,1,1727.148,839.862Z" transform="translate(-1666.37 -766.908)"/>
          <path id="Trazado_116041" data-name="Trazado 116041" d="M1731.4,849.556l-19.5,5.426-1.711.475-1.345.374a3.3,3.3,0,0,1-4.063-2.3c-.017-.066-.035-.136-.048-.2a1.9,1.9,0,0,1-.04-.22,2.736,2.736,0,0,1-.035-.458,3.292,3.292,0,0,1,1.587-2.819,3.375,3.375,0,0,1,.831-.361l.567-.158,21.908-6.095a1.927,1.927,0,0,1,.039.22,2.7,2.7,0,0,1,.035.462,3.347,3.347,0,0,1-.171,1.046c-.031.088-.062.172-.1.255a2.2,2.2,0,1,0,1.961,3.927c.013.044.022.088.031.132A1.669,1.669,0,0,1,1731.4,849.556Z" transform="translate(-1668.805 -770.49)"/>
          <path id="Trazado_116042" data-name="Trazado 116042" d="M1737.426,858.276a3.366,3.366,0,0,1-.268,1.306c-.036.084-.075.163-.114.242a3.292,3.292,0,0,1-2.032,1.631l-1.09.3a3.294,3.294,0,0,1,2.625,2.37,3,3,0,0,1,.088.426l-.4.11-12.471,3.465-1.729.484-2.823.783a3.294,3.294,0,0,1-4.059-2.291.608.608,0,0,1-.027-.119,1.945,1.945,0,0,1-.061-.308,2.686,2.686,0,0,1-.036-.457,3.3,3.3,0,0,1,2.415-3.179l.567-.158,19.01-5.285a2.75,2.75,0,0,1,.317-.071,1.667,1.667,0,0,1,.052.29A2.685,2.685,0,0,1,1737.426,858.276Z" transform="translate(-1674.8 -778.752)"/>
          <path id="Trazado_116043" data-name="Trazado 116043" d="M1744.709,874.708a3.314,3.314,0,0,1-.264,1.3,3.468,3.468,0,0,1-.73,1.064,3.312,3.312,0,0,1-1.42.814l-2.555.708a3.288,3.288,0,0,1,2.59,2.366,2.83,2.83,0,0,1,.088.422l-9.287,2.585a3.3,3.3,0,0,1-4.059-2.3l-.027-.106a2.777,2.777,0,0,1-.061-.321,2.7,2.7,0,0,1-.036-.462,3.29,3.29,0,0,1,1.126-2.476,3.217,3.217,0,0,1,1.293-.7l.572-.154,10.866-3.021a3.278,3.278,0,0,1,1.469-.075,2.661,2.661,0,0,1,.422.11A2.228,2.228,0,0,1,1744.709,874.708Z" transform="translate(-1682.839 -788.442)"/>
          <path id="Trazado_116044" data-name="Trazado 116044" d="M1693.928,809.315a.634.634,0,0,1-.6-.434L1687.39,791a9.574,9.574,0,0,1-2.5.176,7.82,7.82,0,0,1-3.392-1.074,3.12,3.12,0,0,1-1.54-3.1,2.889,2.889,0,0,1,2.258-2.446,4.461,4.461,0,0,1,4.722,2.132,11.332,11.332,0,0,1,1.269,2.744,4.661,4.661,0,0,0,1.9-1.353,3.007,3.007,0,0,0,.266-.389,4.874,4.874,0,0,1-2.711-2.2,2.692,2.692,0,0,1-.113-2.551,1.8,1.8,0,0,1,1.628-.84.748.748,0,0,1,.169.018,3.458,3.458,0,0,1,2.514,2.348,4.712,4.712,0,0,1,.172,2.239h.01a3.29,3.29,0,0,0,1.3-.258,3.086,3.086,0,0,0,.481-.259,4.5,4.5,0,0,1-1.339-3,3.676,3.676,0,0,1,1.022-2.735.635.635,0,0,1,.141-.109,1.875,1.875,0,0,1,1.664-.2,2.292,2.292,0,0,1,1.254,1.531,5,5,0,0,1-.756,4.318,4.464,4.464,0,0,0,2.266.283,23.409,23.409,0,0,1-.021-3.164,7.039,7.039,0,0,1,.952-3.65,3.128,3.128,0,0,1,2.286-1.537,3.48,3.48,0,0,1,2.742,1.275,2.713,2.713,0,0,1,.79,1.975,5.823,5.823,0,0,1-1.867,3.653,9.977,9.977,0,0,1-3.513,2.422q.058.473.136.946a171.084,171.084,0,0,0,3.9,17.785.634.634,0,0,1-1.222.337,172.485,172.485,0,0,1-3.932-17.917q-.071-.431-.125-.863a5.689,5.689,0,0,1-3.3-.571,4.443,4.443,0,0,1-1.063.648,4.615,4.615,0,0,1-2.185.346,4.283,4.283,0,0,1-.565.921,5.933,5.933,0,0,1-2.483,1.769l5.924,17.841a.634.634,0,0,1-.6.833Zm-10.754-23.62a2.54,2.54,0,0,0-.643.084,1.609,1.609,0,0,0-1.321,1.38,1.868,1.868,0,0,0,.9,1.838,6.594,6.594,0,0,0,2.846.915,8.18,8.18,0,0,0,2.027-.127,10.085,10.085,0,0,0-1.1-2.389A3.593,3.593,0,0,0,1683.175,785.694Zm5.943-2.333c-.361.013-.449.163-.484.221a1.481,1.481,0,0,0,.134,1.289,3.611,3.611,0,0,0,2.017,1.617,3.441,3.441,0,0,0-.128-1.622A2.218,2.218,0,0,0,1689.118,783.361Zm12.375-4.189c-.032,0-.064,0-.1,0a1.973,1.973,0,0,0-1.352,1,5.929,5.929,0,0,0-.73,3.008,22.07,22.07,0,0,0,0,2.746,9.558,9.558,0,0,0,2.752-2.02,4.435,4.435,0,0,0,1.481-2.757,1.432,1.432,0,0,0-.427-1.071A2.589,2.589,0,0,0,1701.492,779.171Zm-7.145,2.221a2.412,2.412,0,0,0-.6,1.737,3.2,3.2,0,0,0,.987,2.171,3.743,3.743,0,0,0,.618-3.255,1.148,1.148,0,0,0-.508-.733A.622.622,0,0,0,1694.348,781.393Z" transform="translate(-1654.525 -732.761)"/>
        </g>
        <g id="Grupo_57727" data-name="Grupo 57727">
          <g id="Grupo_57726" data-name="Grupo 57726">
            <path id="Trazado_116045" data-name="Trazado 116045" d="M1674.364,708.217c-1.28,2.981-3.839,7.471-5.4,13.39a38.117,38.117,0,0,0-.813,16.147l-22.5,6.337c-5.615-13.32-16.24-18.461-20.958-21.732-9.573-6.64-13.887-20.659-11.033-31.851a30.027,30.027,0,0,1,9.793-15.461,32.982,32.982,0,0,1,5.809-3.944,32.5,32.5,0,0,1,6.781-2.713c10.281-3.083,22.387-.994,30.751,6.974a28.4,28.4,0,0,1,3.914,4.652C1676.22,688.138,1678.15,699.36,1674.364,708.217Z" transform="translate(-1612.789 -667.029)" fill="#ffc412"/>
            <path id="Trazado_116046" data-name="Trazado 116046" d="M1685.442,708.217c-1.28,2.981-3.839,7.471-5.4,13.39a35.577,35.577,0,0,1-45.514-46.56,32.982,32.982,0,0,1,5.809-3.944,32.5,32.5,0,0,1,6.781-2.713c10.281-3.083,22.387-.994,30.751,6.974a28.4,28.4,0,0,1,3.914,4.652C1687.3,688.138,1689.228,699.36,1685.442,708.217Z" transform="translate(-1623.867 -667.029)" fill="#facb3e"/>
            <path id="Trazado_116047" data-name="Trazado 116047" d="M1691.369,680.016a21.425,21.425,0,1,1-41.446-8.913,32.5,32.5,0,0,1,6.781-2.713c10.281-3.083,22.387-.994,30.751,6.974A28.4,28.4,0,0,1,1691.369,680.016Z" transform="translate(-1633.453 -667.029)" fill="#ffd966"/>
            <path id="Trazado_116048" data-name="Trazado 116048" d="M1713.942,836.324a3.351,3.351,0,0,1-.172,1.046c-.031.088-.062.172-.1.255a3.3,3.3,0,0,1-2.146,1.873l-22.48,6.253-1.72.479-.514.141a3.064,3.064,0,0,1-.787.119,3.3,3.3,0,0,1-3.276-2.414,3.252,3.252,0,0,1-.123-.884,3.3,3.3,0,0,1,2.419-3.179l.572-.158,1.574-.435,22.568-6.275a3.292,3.292,0,0,1,4.059,2.291c.018.07.035.141.049.207a1.929,1.929,0,0,1,.039.22A2.7,2.7,0,0,1,1713.942,836.324Z" transform="translate(-1653.127 -762.908)" fill="#749da6"/>
            <path id="Trazado_116049" data-name="Trazado 116049" d="M1718.231,850.791a3.367,3.367,0,0,1-.268,1.306c-.036.084-.075.163-.114.242a3.293,3.293,0,0,1-2.032,1.631l-1.09.3-18.8,5.229-1.772.492-1.711.475-1.346.374a3.3,3.3,0,0,1-4.063-2.3,3.241,3.241,0,0,1-.123-.884,3.307,3.307,0,0,1,2.418-3.175l.567-.158,1.583-.44,22.563-6.275a3.031,3.031,0,0,1,.787-.119,3.294,3.294,0,0,1,3.276,2.414c.013.044.022.088.031.132a1.667,1.667,0,0,1,.052.29A2.685,2.685,0,0,1,1718.231,850.791Z" transform="translate(-1655.605 -771.267)" fill="#749da6"/>
            <path id="Trazado_116050" data-name="Trazado 116050" d="M1723.47,866.737a3.314,3.314,0,0,1-.264,1.3,3.472,3.472,0,0,1-.73,1.064,3.312,3.312,0,0,1-1.42.814l-2.555.708-10.695,2.973-1.777.493-1.728.479-2.823.787a3.3,3.3,0,0,1-3.034-5.677,3.23,3.23,0,0,1,1.266-.677l.572-.158,1.583-.44,17.423-4.846a3.255,3.255,0,0,1,1.434-.075,3.294,3.294,0,0,1,2.625,2.37,2.988,2.988,0,0,1,.088.426,1.244,1.244,0,0,1,.022.22A2.2,2.2,0,0,1,1723.47,866.737Z" transform="translate(-1661.6 -780.472)" fill="#749da6"/>
            <path id="Trazado_116051" data-name="Trazado 116051" d="M1729.254,883.631a3.313,3.313,0,0,1-2.419,3.175l-11.438,3.179a3.294,3.294,0,0,1-4.059-2.291,3.246,3.246,0,0,1-.123-.888,3.3,3.3,0,0,1,1.126-2.48,3.249,3.249,0,0,1,1.293-.695l.571-.158,1.579-.44,9.287-2.581a3.334,3.334,0,0,1,1.469-.071,3.288,3.288,0,0,1,2.59,2.366,2.829,2.829,0,0,1,.088.422A2.7,2.7,0,0,1,1729.254,883.631Z" transform="translate(-1669.64 -790.233)" fill="#749da6"/>
            <path id="Trazado_116052" data-name="Trazado 116052" d="M1719.47,842.432a3.367,3.367,0,0,1-.268,1.306c-.035.084-.075.163-.115.242a3.293,3.293,0,0,1-2.032,1.631l-1.09.3a3.309,3.309,0,0,1,2.484,4.556,3.471,3.471,0,0,1-.73,1.064,3.312,3.312,0,0,1-1.42.814l-2.555.708a3.288,3.288,0,0,1,2.59,2.366,3.236,3.236,0,0,1-.15,2.185l-10.866,3.021a3.293,3.293,0,0,1-4.059-2.3,3.244,3.244,0,0,1-.123-.884,3.3,3.3,0,0,1,.136-.928,2.733,2.733,0,0,1,.136-.374,3.281,3.281,0,0,1,.858-1.178l-2.828.787a3.294,3.294,0,0,1-4.059-2.291,3.241,3.241,0,0,1,.018-1.829,3.084,3.084,0,0,1,.127-.361,3.279,3.279,0,0,1,.88-1.2l-1.346.374a3.3,3.3,0,0,1-4.063-2.3,3.242,3.242,0,0,1-.123-.884,3.205,3.205,0,0,1,.172-1.042,2.72,2.72,0,0,1,.1-.259,3.259,3.259,0,0,1,1.324-1.517,3.3,3.3,0,0,1-3.28-2.41,3.252,3.252,0,0,1-.123-.884,3.289,3.289,0,0,1,.273-1.306l24.142-6.71a3.292,3.292,0,0,1,4.059,2.291,3.255,3.255,0,0,1,.123.888,3.351,3.351,0,0,1-.172,1.046c-.031.088-.062.172-.1.255a2.2,2.2,0,1,0,1.961,3.927A3.392,3.392,0,0,1,1719.47,842.432Z" transform="translate(-1656.844 -762.908)" fill="#9bcacf"/>
            <path id="Trazado_116053" data-name="Trazado 116053" d="M1720.148,835.862,1698.1,842l-.51.141a2.914,2.914,0,0,1-.787.119,3.3,3.3,0,0,1-3.276-2.414,3.241,3.241,0,0,1-.092-.422L1716,833.145a3.292,3.292,0,0,1,4.059,2.291c.018.07.035.141.049.207A1.9,1.9,0,0,1,1720.148,835.862Z" transform="translate(-1659.37 -762.908)" fill="#d6fcff"/>
            <path id="Trazado_116054" data-name="Trazado 116054" d="M1724.4,845.556l-19.5,5.426-1.711.475-1.345.374a3.3,3.3,0,0,1-4.063-2.3c-.017-.066-.035-.136-.048-.2a1.9,1.9,0,0,1-.04-.22,2.736,2.736,0,0,1-.035-.458,3.292,3.292,0,0,1,1.587-2.819,3.376,3.376,0,0,1,.831-.361l.567-.158,21.908-6.095a1.93,1.93,0,0,1,.039.22,2.7,2.7,0,0,1,.035.462,3.35,3.35,0,0,1-.171,1.046c-.031.088-.062.172-.1.255a2.2,2.2,0,1,0,1.961,3.927c.013.044.022.088.031.132A1.678,1.678,0,0,1,1724.4,845.556Z" transform="translate(-1661.805 -766.49)" fill="#d6fcff"/>
            <path id="Trazado_116055" data-name="Trazado 116055" d="M1730.426,854.276a3.367,3.367,0,0,1-.268,1.306c-.036.084-.075.163-.114.242a3.293,3.293,0,0,1-2.032,1.631l-1.09.3a3.294,3.294,0,0,1,2.625,2.37,3,3,0,0,1,.088.426l-.4.11-12.471,3.465-1.728.484-2.823.783a3.294,3.294,0,0,1-4.059-2.291.617.617,0,0,1-.027-.119,1.959,1.959,0,0,1-.061-.308,2.686,2.686,0,0,1-.036-.457,3.3,3.3,0,0,1,2.414-3.179l.567-.158,19.01-5.285a2.741,2.741,0,0,1,.317-.07,1.666,1.666,0,0,1,.052.29A2.685,2.685,0,0,1,1730.426,854.276Z" transform="translate(-1667.8 -774.752)" fill="#d6fcff"/>
            <path id="Trazado_116056" data-name="Trazado 116056" d="M1737.709,870.708a3.314,3.314,0,0,1-.264,1.3,3.47,3.47,0,0,1-.73,1.064,3.311,3.311,0,0,1-1.42.814l-2.555.708a3.288,3.288,0,0,1,2.59,2.366,2.813,2.813,0,0,1,.088.422l-9.287,2.585a3.3,3.3,0,0,1-4.059-2.3l-.027-.106a2.8,2.8,0,0,1-.061-.321,2.7,2.7,0,0,1-.035-.462,3.29,3.29,0,0,1,1.126-2.476,3.217,3.217,0,0,1,1.293-.7l.572-.154,10.866-3.021a3.277,3.277,0,0,1,1.469-.075,2.672,2.672,0,0,1,.422.11A2.228,2.228,0,0,1,1737.709,870.708Z" transform="translate(-1675.839 -784.442)" fill="#d6fcff"/>
            <path id="Trazado_116057" data-name="Trazado 116057" d="M1686.928,805.315a.634.634,0,0,1-.6-.434L1680.39,787a9.574,9.574,0,0,1-2.5.176,7.82,7.82,0,0,1-3.392-1.074,3.12,3.12,0,0,1-1.54-3.1,2.889,2.889,0,0,1,2.258-2.446,4.461,4.461,0,0,1,4.722,2.132,11.322,11.322,0,0,1,1.269,2.744,4.66,4.66,0,0,0,1.9-1.353,2.994,2.994,0,0,0,.266-.389,4.874,4.874,0,0,1-2.711-2.2,2.692,2.692,0,0,1-.113-2.551,1.8,1.8,0,0,1,1.628-.84.751.751,0,0,1,.168.018,3.458,3.458,0,0,1,2.514,2.348,4.711,4.711,0,0,1,.172,2.239h.01a3.29,3.29,0,0,0,1.3-.258,3.086,3.086,0,0,0,.481-.259,4.494,4.494,0,0,1-1.339-3,3.675,3.675,0,0,1,1.022-2.735.635.635,0,0,1,.141-.109,1.875,1.875,0,0,1,1.664-.2,2.292,2.292,0,0,1,1.254,1.531,5,5,0,0,1-.756,4.318,4.464,4.464,0,0,0,2.266.283,23.428,23.428,0,0,1-.021-3.164,7.04,7.04,0,0,1,.952-3.65,3.128,3.128,0,0,1,2.286-1.537,3.48,3.48,0,0,1,2.742,1.275,2.714,2.714,0,0,1,.79,1.975,5.824,5.824,0,0,1-1.867,3.653,9.979,9.979,0,0,1-3.513,2.422q.058.473.136.946a171.085,171.085,0,0,0,3.9,17.785.634.634,0,0,1-1.222.338,172.519,172.519,0,0,1-3.932-17.917q-.071-.431-.125-.863a5.689,5.689,0,0,1-3.3-.571,4.441,4.441,0,0,1-1.063.648,4.615,4.615,0,0,1-2.185.346,4.291,4.291,0,0,1-.565.921,5.933,5.933,0,0,1-2.483,1.769l5.924,17.841a.634.634,0,0,1-.6.833Zm-10.754-23.62a2.541,2.541,0,0,0-.643.084,1.609,1.609,0,0,0-1.321,1.38,1.868,1.868,0,0,0,.9,1.838,6.594,6.594,0,0,0,2.846.915,8.179,8.179,0,0,0,2.027-.127,10.081,10.081,0,0,0-1.1-2.389A3.593,3.593,0,0,0,1676.175,781.694Zm5.943-2.333c-.361.013-.449.163-.484.221a1.481,1.481,0,0,0,.134,1.289,3.611,3.611,0,0,0,2.017,1.617,3.439,3.439,0,0,0-.128-1.622A2.218,2.218,0,0,0,1682.118,779.361Zm12.375-4.189c-.032,0-.064,0-.1,0a1.972,1.972,0,0,0-1.352,1,5.929,5.929,0,0,0-.73,3.008,22.045,22.045,0,0,0,0,2.746,9.562,9.562,0,0,0,2.752-2.02,4.435,4.435,0,0,0,1.481-2.757,1.432,1.432,0,0,0-.427-1.071A2.589,2.589,0,0,0,1694.492,775.171Zm-7.145,2.221a2.412,2.412,0,0,0-.6,1.737,3.2,3.2,0,0,0,.987,2.171,3.742,3.742,0,0,0,.618-3.255,1.148,1.148,0,0,0-.508-.733A.622.622,0,0,0,1687.348,777.393Z" transform="translate(-1647.526 -728.761)"/>
          </g>
        </g>
      </g>
      <path id="Trazado_116058" data-name="Trazado 116058" d="M1739.732,686.672" transform="translate(-1683.206 -675.68)" fill="none" stroke="#000" stroke-linecap="round" stroke-linejoin="round" stroke-width="3"/>
      <path id="Trazado_116059" data-name="Trazado 116059" d="M1747.149,699.477a.633.633,0,0,1-.592-.409,31.869,31.869,0,0,0-3.422-6.613.634.634,0,0,1,1.049-.712,33.187,33.187,0,0,1,3.558,6.876.634.634,0,0,1-.592.858Z" transform="translate(-1685.108 -678.449)"/>
      <path id="Trazado_116060" data-name="Trazado 116060" d="M1736.891,764.93a.634.634,0,0,1-.626-.534,38.5,38.5,0,0,1,.846-16.28,61.307,61.307,0,0,1,4.273-10.975c.452-.948.842-1.766,1.157-2.5a27.414,27.414,0,0,0,1.017-17.131.634.634,0,0,1,1.231-.3,28.682,28.682,0,0,1-1.083,17.93c-.326.76-.721,1.588-1.178,2.548a59.367,59.367,0,0,0-4.192,10.755,37.234,37.234,0,0,0-.926,15.054l.6-.167a3.968,3.968,0,0,1,.942-.143.633.633,0,0,1,.038,1.266,2.705,2.705,0,0,0-.64.1l-1.291.359A.629.629,0,0,1,1736.891,764.93Z" transform="translate(-1680.914 -693.038)"/>
      <path id="Trazado_116061" data-name="Trazado 116061" d="M1743.844,852.431a.633.633,0,0,1-.61-.465,2.667,2.667,0,0,0-2.091-1.911.634.634,0,0,1-.057-1.234l2.555-.708a2.662,2.662,0,0,0,1.149-.659,2.863,2.863,0,0,0,.592-.866,2.67,2.67,0,0,0,.209-1.04,1.548,1.548,0,0,0-.009-.169.574.574,0,0,1,0-.072,3.024,3.024,0,0,0-.086-.474,2.671,2.671,0,0,0-2.121-1.918.634.634,0,0,1-.064-1.236l1.09-.3a2.645,2.645,0,0,0,1.642-1.319c.027-.053.061-.12.091-.191a2.739,2.739,0,0,0,.218-1.059,2.3,2.3,0,0,0-.02-.292c-.007-.055-.014-.1-.021-.142a1.28,1.28,0,0,0-.024-.146c0-.013-.009-.038-.012-.051s-.008-.044-.014-.065a2.666,2.666,0,0,0-2.649-1.965h-.021a.634.634,0,0,1-.329-1.175,2.648,2.648,0,0,0,1.062-1.222c.029-.068.054-.139.081-.214a2.7,2.7,0,0,0,.136-.837,2.35,2.35,0,0,0-.021-.3l-.015-.1c-.007-.049-.013-.088-.022-.129-.016-.075-.03-.133-.045-.191a2.621,2.621,0,0,0-.328-.729.634.634,0,0,1,1.064-.689,3.941,3.941,0,0,1,.488,1.089c.025.1.044.177.059.251.014.059.027.134.038.212l.018.127a3.608,3.608,0,0,1,.031.467,3.973,3.973,0,0,1-.2,1.245c-.039.114-.075.21-.116.305a3.97,3.97,0,0,1-.5.846,3.916,3.916,0,0,1,2.486,2.664c.014.044.027.1.039.163a1.983,1.983,0,0,1,.044.242c.011.064.022.13.029.195a3.371,3.371,0,0,1,.03.448,4,4,0,0,1-.317,1.551c-.042.1-.087.19-.133.282a1.962,1.962,0,0,0-.452,3.851,3.824,3.824,0,0,1,.119.648c.006.044.011.084.013.122a2.848,2.848,0,0,1,.014.287,3.938,3.938,0,0,1-.314,1.545,4.089,4.089,0,0,1-.869,1.268,3.977,3.977,0,0,1-1.7.973l-.892.247a3.936,3.936,0,0,1,1.368,2.048.634.634,0,0,1-.443.779A.641.641,0,0,1,1743.844,852.431Z" transform="translate(-1683.719 -758.62)"/>
      <path id="Trazado_116062" data-name="Trazado 116062" d="M1696.24,883.757a3.93,3.93,0,0,1-3.778-2.877,3.86,3.86,0,0,1-.147-1.058,3.93,3.93,0,0,1,.26-1.4l-1.154.322a3.927,3.927,0,0,1-4.839-2.732,3.862,3.862,0,0,1-.146-1.058,1.662,1.662,0,0,0-2.631-2.031.634.634,0,0,1,.7-1.054,2.662,2.662,0,0,0,2.194.351l1.346-.374a.634.634,0,0,1,.583,1.091,2.658,2.658,0,0,0-.927,2.017,2.663,2.663,0,0,0,3.378,2.569l2.823-.787a.634.634,0,0,1,.587,1.087,2.666,2.666,0,0,0-.909,2,2.663,2.663,0,0,0,3.378,2.569l11.438-3.179a2.657,2.657,0,0,0,1.734-1.515,2.526,2.526,0,0,0,.1-.262.634.634,0,0,1,1.209.379,3.854,3.854,0,0,1-.144.387,3.922,3.922,0,0,1-2.558,2.232l-11.438,3.179A3.95,3.95,0,0,1,1696.24,883.757Z" transform="translate(-1650.74 -782.586)"/>
      <path id="Trazado_116063" data-name="Trazado 116063" d="M1685.024,873.258" transform="translate(-1651.607 -783.453)" fill="none" stroke="#000" stroke-linecap="round" stroke-linejoin="round" stroke-width="3"/>
      <path id="Trazado_116064" data-name="Trazado 116064" d="M1672.41,838.669a.633.633,0,0,1-.609-.46,3.843,3.843,0,0,1-.148-1.057,3.016,3.016,0,0,0-1.665-5.06,3.837,3.837,0,0,1-.147-1.053,3.944,3.944,0,0,1,2.883-3.79l.152-.042a37.149,37.149,0,0,0-7.18-10.636.634.634,0,1,1,.915-.877,38.983,38.983,0,0,1,7.721,11.679.634.634,0,0,1-.413.86l-.857.237a2.673,2.673,0,0,0-1.954,2.569,2.61,2.61,0,0,0,.1.711,2.664,2.664,0,0,0,2.648,1.954.624.624,0,0,1,.626.454.633.633,0,0,1-.28.721,2.672,2.672,0,0,0-1.282,2.272,2.606,2.606,0,0,0,.1.711.634.634,0,0,1-.609.807Z" transform="translate(-1640.342 -750.091)"/>
      <path id="Trazado_116065" data-name="Trazado 116065" d="M1656.121,807.851a.632.632,0,0,1-.429-.168,46.826,46.826,0,0,0-4.093-3.35.634.634,0,0,1,.749-1.022,48.18,48.18,0,0,1,4.2,3.44.634.634,0,0,1-.43,1.1Z" transform="translate(-1632.151 -742.981)"/>
      <path id="Trazado_116066" data-name="Trazado 116066" d="M1624.125,760.6a.627.627,0,0,1-.357-.111c-1.189-.814-2.322-1.535-3.321-2.171-.9-.574-1.679-1.069-2.361-1.542-7.834-5.434-12.708-16.263-12.128-26.946a.634.634,0,0,1,1.266.069c-.558,10.26,4.1,20.643,11.583,25.836.661.458,1.429.947,2.32,1.513,1.007.641,2.15,1.369,3.356,2.2a.633.633,0,0,1-.359,1.156Z" transform="translate(-1605.911 -700.262)"/>
      <path id="Trazado_116067" data-name="Trazado 116067" d="M1607.589,687.419a.619.619,0,0,1-.111-.009.633.633,0,0,1-.514-.734c.122-.693.269-1.38.438-2.041a30.6,30.6,0,0,1,10-15.788,33.586,33.586,0,0,1,5.921-4.02,33.162,33.162,0,0,1,6.911-2.765,32.092,32.092,0,0,1,31.356,7.127c.667.636,1.318,1.323,1.933,2.041a.634.634,0,1,1-.962.825c-.588-.686-1.209-1.341-1.845-1.949a30.833,30.833,0,0,0-30.132-6.826,31.957,31.957,0,0,0-6.663,2.665,32.366,32.366,0,0,0-5.7,3.869,29.344,29.344,0,0,0-9.589,15.135c-.161.631-.3,1.286-.418,1.947A.634.634,0,0,1,1607.589,687.419Z" transform="translate(-1606.514 -660.649)"/>
    </g>
    <path id="Trazado_120907" data-name="Trazado 120907" d="M13.414,20.523a1.8,1.8,0,0,0-.7-1.529,9.222,9.222,0,0,0-2.531-1.125A17.944,17.944,0,0,1,7.285,16.7q-2.906-1.57-2.906-4.23a4.12,4.12,0,0,1,.779-2.467A5.083,5.083,0,0,1,7.4,8.313,8.425,8.425,0,0,1,10.672,7.7a7.668,7.668,0,0,1,3.258.662,5.187,5.187,0,0,1,2.221,1.869,4.891,4.891,0,0,1,.791,2.742H13.426a2.3,2.3,0,0,0-.738-1.822,3.035,3.035,0,0,0-2.074-.65,3.242,3.242,0,0,0-2,.545,1.719,1.719,0,0,0-.715,1.436,1.646,1.646,0,0,0,.838,1.395A9.466,9.466,0,0,0,11.2,14.934a10.658,10.658,0,0,1,4.371,2.238A4.458,4.458,0,0,1,16.941,20.5a4.106,4.106,0,0,1-1.676,3.475,7.336,7.336,0,0,1-4.512,1.26,8.712,8.712,0,0,1-3.586-.721A5.674,5.674,0,0,1,4.7,22.539a5.057,5.057,0,0,1-.85-2.906H7.379q0,2.824,3.375,2.824a3.283,3.283,0,0,0,1.957-.51A1.658,1.658,0,0,0,13.414,20.523ZM26.445,25a3.761,3.761,0,0,1-.34-1.137,4.1,4.1,0,0,1-3.2,1.371,4.5,4.5,0,0,1-3.088-1.078,3.467,3.467,0,0,1-1.225-2.719,3.583,3.583,0,0,1,1.494-3.094,7.373,7.373,0,0,1,4.318-1.09h1.559v-.727a2.089,2.089,0,0,0-.451-1.406,1.775,1.775,0,0,0-1.424-.527,2.018,2.018,0,0,0-1.342.41,1.393,1.393,0,0,0-.486,1.125H18.875a3.4,3.4,0,0,1,.68-2.039,4.493,4.493,0,0,1,1.922-1.471,7,7,0,0,1,2.789-.533,5.534,5.534,0,0,1,3.721,1.178,4.12,4.12,0,0,1,1.377,3.311v5.5a6.062,6.062,0,0,0,.5,2.73V25Zm-2.8-2.355a2.917,2.917,0,0,0,1.383-.334,2.194,2.194,0,0,0,.938-.9v-2.18H24.7q-2.543,0-2.707,1.758l-.012.2a1.356,1.356,0,0,0,.445,1.043A1.73,1.73,0,0,0,23.645,22.645Zm19.746-3.867a7.678,7.678,0,0,1-1.3,4.752,4.309,4.309,0,0,1-3.633,1.705,3.959,3.959,0,0,1-3.293-1.582L35.012,25H31.965V7h3.387v6.457a3.857,3.857,0,0,1,3.082-1.371,4.344,4.344,0,0,1,3.639,1.705,7.689,7.689,0,0,1,1.318,4.8ZM40,18.531a5.044,5.044,0,0,0-.609-2.807,2.061,2.061,0,0,0-1.816-.885,2.234,2.234,0,0,0-2.227,1.324v5A2.264,2.264,0,0,0,37.6,22.5a2.091,2.091,0,0,0,2.156-1.617A8.342,8.342,0,0,0,40,18.531ZM49.133,25H45.746V12.32h3.387Zm-1-17.824h3.691l-3.246,3.633H45.828ZM59.4,25a3.761,3.761,0,0,1-.34-1.137,4.1,4.1,0,0,1-3.2,1.371,4.5,4.5,0,0,1-3.088-1.078,3.467,3.467,0,0,1-1.225-2.719,3.583,3.583,0,0,1,1.494-3.094,7.373,7.373,0,0,1,4.318-1.09h1.559v-.727a2.089,2.089,0,0,0-.451-1.406,1.775,1.775,0,0,0-1.424-.527A2.018,2.018,0,0,0,55.7,15a1.393,1.393,0,0,0-.486,1.125H51.828a3.4,3.4,0,0,1,.68-2.039,4.493,4.493,0,0,1,1.922-1.471,7,7,0,0,1,2.789-.533,5.534,5.534,0,0,1,3.721,1.178,4.12,4.12,0,0,1,1.377,3.311v5.5a6.062,6.062,0,0,0,.5,2.73V25Zm-2.8-2.355a2.917,2.917,0,0,0,1.383-.334,2.194,2.194,0,0,0,.938-.9v-2.18H57.652q-2.543,0-2.707,1.758l-.012.2a1.356,1.356,0,0,0,.445,1.043A1.73,1.73,0,0,0,56.6,22.645ZM71.785,21.5a1.091,1.091,0,0,0-.615-.979,6.989,6.989,0,0,0-1.975-.639q-4.523-.949-4.523-3.844a3.484,3.484,0,0,1,1.4-2.818,5.649,5.649,0,0,1,3.662-1.131A6.08,6.08,0,0,1,73.6,13.223a3.582,3.582,0,0,1,1.447,2.953H71.656a1.639,1.639,0,0,0-.469-1.2,1.984,1.984,0,0,0-1.465-.475,2.027,2.027,0,0,0-1.324.387,1.221,1.221,0,0,0-.469.984,1.044,1.044,0,0,0,.533.908,5.485,5.485,0,0,0,1.8.6,14.692,14.692,0,0,1,2.133.568q2.684.984,2.684,3.41a3.307,3.307,0,0,1-1.488,2.807,6.42,6.42,0,0,1-3.844,1.072,6.706,6.706,0,0,1-2.83-.568,4.748,4.748,0,0,1-1.939-1.559,3.621,3.621,0,0,1-.7-2.139h3.211a1.768,1.768,0,0,0,.668,1.383,2.649,2.649,0,0,0,1.664.48,2.452,2.452,0,0,0,1.471-.369A1.149,1.149,0,0,0,71.785,21.5ZM11.416,42.543a7.579,7.579,0,0,1,1.33-4.723,4.348,4.348,0,0,1,3.65-1.734,3.893,3.893,0,0,1,3.246,1.559l.223-1.324h2.977V53.875h-3.4V47.91a3.9,3.9,0,0,1-3.07,1.324,4.316,4.316,0,0,1-3.609-1.758A7.951,7.951,0,0,1,11.416,42.543Zm3.387.24a4.972,4.972,0,0,0,.639,2.77,2.045,2.045,0,0,0,1.8.951,2.278,2.278,0,0,0,2.2-1.244V40.014a2.259,2.259,0,0,0-2.18-1.2,2.069,2.069,0,0,0-1.816.951A5.491,5.491,0,0,0,14.8,42.783ZM33.1,47.711a4.247,4.247,0,0,1-3.469,1.523,4.005,4.005,0,0,1-3.111-1.172,5,5,0,0,1-1.1-3.434V36.32h3.387v8.2q0,1.983,1.8,1.983a2.445,2.445,0,0,0,2.367-1.2V36.32h3.4V49H33.189Zm11.672,1.523a6.225,6.225,0,0,1-4.541-1.711,6.082,6.082,0,0,1-1.752-4.559v-.328a7.66,7.66,0,0,1,.738-3.416A5.418,5.418,0,0,1,41.3,36.9a5.871,5.871,0,0,1,3.088-.814,5.262,5.262,0,0,1,4.1,1.641,6.667,6.667,0,0,1,1.494,4.652v1.383H41.908a3.146,3.146,0,0,0,.99,1.992,2.993,2.993,0,0,0,2.092.75,3.656,3.656,0,0,0,3.059-1.418l1.664,1.863a5.084,5.084,0,0,1-2.062,1.682A6.767,6.767,0,0,1,44.768,49.234Zm-.387-10.418a2.116,2.116,0,0,0-1.635.683,3.535,3.535,0,0,0-.8,1.954h4.711v-.271a2.521,2.521,0,0,0-.609-1.748A2.183,2.183,0,0,0,44.381,38.816Zm7.781,8.52a1.7,1.7,0,0,1,.545-1.312,2.117,2.117,0,0,1,2.742,0,1.7,1.7,0,0,1,.545,1.313,1.682,1.682,0,0,1-.539,1.295,2.152,2.152,0,0,1-2.754,0A1.682,1.682,0,0,1,52.162,47.336Zm5.543,0a1.7,1.7,0,0,1,.545-1.312,2.117,2.117,0,0,1,2.742,0,1.7,1.7,0,0,1,.545,1.313A1.682,1.682,0,0,1,61,48.631a2.152,2.152,0,0,1-2.754,0A1.682,1.682,0,0,1,57.705,47.336Zm5.438,0a1.7,1.7,0,0,1,.545-1.312,2.117,2.117,0,0,1,2.742,0,1.7,1.7,0,0,1,.545,1.313,1.682,1.682,0,0,1-.539,1.295,2.152,2.152,0,0,1-2.754,0A1.682,1.682,0,0,1,63.143,47.336Z" transform="translate(81.727 27.206)" fill="#12263f"/>
  </g>
</svg>
