<svg xmlns="http://www.w3.org/2000/svg" width="310" height="100" viewBox="0 0 310 100">
  <g id="Grupo_60379" data-name="Grupo 60379" transform="translate(-490 -4875)">
    <g id="Grupo_60347" data-name="Grupo 60347" transform="translate(588.695 4885)">
      <g id="Grupo_60340" data-name="Grupo 60340" transform="translate(25.226 15.88)">
        <path id="Trazado_120872" data-name="Trazado 120872" d="M792.195,457.914a12.076,12.076,0,0,1-11.786-9.52h-31.1a12.056,12.056,0,0,1-23.842-2.538,2.538,2.538,0,1,1,5.077,0,6.98,6.98,0,1,0,13.959,0,2.538,2.538,0,0,1,2.538-2.538h35.639a2.538,2.538,0,0,1,2.538,2.538,6.979,6.979,0,1,0,13.959,0,2.539,2.539,0,0,1,2.538-2.538,2.068,2.068,0,0,0,2.067-2.063V431.5a7.118,7.118,0,0,0-7.109-7.109H779.936a2.544,2.544,0,0,1-2.281-1.423l-10.206-20.882A5.549,5.549,0,0,0,762.494,399h-25a5.54,5.54,0,0,0-5.29,3.962l-5.753,19.612a2.539,2.539,0,0,1-4.872-1.43l5.751-19.61a10.648,10.648,0,0,1,10.164-7.611h25a10.664,10.664,0,0,1,9.518,5.94l9.51,19.458H796.67A12.2,12.2,0,0,1,808.857,431.5v9.751A7.155,7.155,0,0,1,804.062,448,12.078,12.078,0,0,1,792.195,457.914Z" transform="translate(-721.472 -393.919)" fill="#6f7302"/>
      </g>
      <g id="Grupo_60341" data-name="Grupo 60341" transform="translate(12.613 24.726)">
        <path id="Trazado_120873" data-name="Trazado 120873" d="M734.4,443.9H727.11a11.862,11.862,0,0,1-11.849-11.849V400.813a2.538,2.538,0,1,1,5.077,0v31.242a6.78,6.78,0,0,0,6.772,6.772H734.4a2.538,2.538,0,0,1,0,5.077Z" transform="translate(-715.261 -398.275)" fill="#6f7302"/>
      </g>
      <g id="Grupo_60342" data-name="Grupo 60342" transform="translate(5.475 10.862)">
        <path id="Trazado_120874" data-name="Trazado 120874" d="M721.422,410.388a9.689,9.689,0,0,1-9.676-9.678v-6.724a2.538,2.538,0,0,1,5.077,0v6.724a4.6,4.6,0,1,0,9.2,0v-6.724a2.538,2.538,0,0,1,5.077,0v6.724A9.689,9.689,0,0,1,721.422,410.388Z" transform="translate(-711.746 -391.448)" fill="#6f7302"/>
      </g>
      <g id="Grupo_60343" data-name="Grupo 60343" transform="translate(0 10.862)">
        <path id="Trazado_120875" data-name="Trazado 120875" d="M736.814,396.525H711.588a2.538,2.538,0,0,1,0-5.077h25.225a2.538,2.538,0,0,1,0,5.077Z" transform="translate(-709.05 -391.448)" fill="#6f7302"/>
      </g>
      <g id="Grupo_60344" data-name="Grupo 60344" transform="translate(8.062)">
        <path id="Trazado_120876" data-name="Trazado 120876" d="M715.558,402.038a2.537,2.537,0,0,1-2.538-2.538V388.637a2.538,2.538,0,0,1,5.077,0V399.5A2.538,2.538,0,0,1,715.558,402.038Z" transform="translate(-713.02 -386.099)" fill="#6f7302"/>
      </g>
      <g id="Grupo_60345" data-name="Grupo 60345" transform="translate(17.165)">
        <path id="Trazado_120877" data-name="Trazado 120877" d="M720.041,402.038A2.538,2.538,0,0,1,717.5,399.5V388.637a2.538,2.538,0,0,1,5.077,0V399.5A2.538,2.538,0,0,1,720.041,402.038Z" transform="translate(-717.503 -386.099)" fill="#6f7302"/>
      </g>
      <g id="Grupo_60346" data-name="Grupo 60346" transform="translate(25.225 41.278)">
        <path id="Trazado_120878" data-name="Trazado 120878" d="M765.164,411.5H724.01a2.538,2.538,0,1,1,0-5.077h41.154a2.538,2.538,0,0,1,0,5.077Z" transform="translate(-721.472 -406.426)" fill="#6f7302"/>
      </g>
    </g>
    <rect id="Rectángulo_7503" data-name="Rectángulo 7503" width="310" height="100" transform="translate(490 4875)" fill="none"/>
  </g>
</svg>
