<svg xmlns="http://www.w3.org/2000/svg" width="310" height="100" viewBox="0 0 310 100">
  <g id="Grupo_60380" data-name="Grupo 60380" transform="translate(-800 -4875)">
    <g id="Grupo_60333" data-name="Grupo 60333" transform="translate(915.619 4886)">
      <g id="Grupo_60330" data-name="Grupo 60330">
        <path id="Trazado_120864" data-name="Trazado 120864" d="M911.114,472.343H892.4a2.538,2.538,0,1,1,0-5.077h18.713a4.554,4.554,0,0,0,4.549-4.549v-39.99a4.583,4.583,0,0,0-2.161-3.873L883.746,400.5a4.529,4.529,0,0,0-4.776,0l-29.754,18.351a4.581,4.581,0,0,0-2.163,3.873v39.99a4.554,4.554,0,0,0,4.549,4.549h23.475a3.744,3.744,0,0,0,3.743-3.74V418.508a2.538,2.538,0,1,1,5.077,0v45.018a8.828,8.828,0,0,1-8.819,8.817H851.6a9.637,9.637,0,0,1-9.625-9.625v-39.99a9.565,9.565,0,0,1,4.573-8.194l29.756-18.351a9.579,9.579,0,0,1,10.1,0l29.756,18.351a9.565,9.565,0,0,1,4.573,8.194v39.99A9.637,9.637,0,0,1,911.114,472.343Z" transform="translate(-841.977 -394.741)" fill="#6f7302"/>
      </g>
      <g id="Grupo_60331" data-name="Grupo 60331" transform="translate(21.523 36.884)">
        <path id="Trazado_120865" data-name="Trazado 120865" d="M870.434,433.3a2.534,2.534,0,0,1-1.8-.743l-15.32-15.32a2.539,2.539,0,0,1,3.59-3.59l15.319,15.322a2.537,2.537,0,0,1-1.8,4.331Z" transform="translate(-852.576 -412.905)" fill="#6f7302"/>
      </g>
      <g id="Grupo_60332" data-name="Grupo 60332" transform="translate(36.843 36.884)">
        <path id="Trazado_120866" data-name="Trazado 120866" d="M862.658,433.3a2.537,2.537,0,0,1-1.8-4.331l15.32-15.322a2.539,2.539,0,0,1,3.59,3.59l-15.319,15.32A2.531,2.531,0,0,1,862.658,433.3Z" transform="translate(-860.12 -412.905)" fill="#6f7302"/>
      </g>
    </g>
    <rect id="Rectángulo_7504" data-name="Rectángulo 7504" width="310" height="100" transform="translate(800 4875)" fill="none"/>
  </g>
</svg>
