<svg xmlns="http://www.w3.org/2000/svg" xmlns:xlink="http://www.w3.org/1999/xlink" width="194.392" height="193.6" viewBox="0 0 194.392 193.6">
  <defs>
    <linearGradient id="linear-gradient" x1="1.145" y1="1.513" x2="0.891" y2="1.142" gradientUnits="objectBoundingBox">
      <stop offset="0" stop-color="#fcb148"/>
      <stop offset="0.052" stop-color="#fdb946"/>
      <stop offset="0.142" stop-color="#fec144"/>
      <stop offset="0.318" stop-color="#ffc444"/>
      <stop offset="0.485" stop-color="#fdb946"/>
      <stop offset="0.775" stop-color="#f99c4c"/>
      <stop offset="0.866" stop-color="#f8924f"/>
      <stop offset="1" stop-color="#f8924f"/>
    </linearGradient>
    <linearGradient id="linear-gradient-2" x1="1.016" y1="0.245" x2="0.305" y2="1.006" xlink:href="#linear-gradient"/>
    <linearGradient id="linear-gradient-3" y1="0.5" x2="1" y2="0.5" gradientUnits="objectBoundingBox">
      <stop offset="0" stop-color="#24abb5"/>
      <stop offset="1" stop-color="#40cf9f"/>
    </linearGradient>
    <linearGradient id="linear-gradient-4" y1="0.5" x2="1" y2="0.5" gradientUnits="objectBoundingBox">
      <stop offset="0" stop-color="#aa80f9"/>
      <stop offset="0.996" stop-color="#6165d7"/>
    </linearGradient>
    <linearGradient id="linear-gradient-5" y1="0.5" x2="1" y2="0.5" gradientUnits="objectBoundingBox">
      <stop offset="0" stop-color="#444b8c"/>
      <stop offset="0.996" stop-color="#26264f"/>
    </linearGradient>
    <clipPath id="clip-path">
      <path id="Trazado_116493" data-name="Trazado 116493" d="M4820.279,2491.711a.65.65,0,0,1-.187.429,1.186,1.186,0,0,1-.137.136c-1.434,1.246-7.551,2.383-16.922,3.3-3.878.379-8.317.717-13.212,1.011-9.063.542-19.7.927-31.251,1.1-4.5.068-9.139.1-13.881.1-12.285,0-23.885-.235-34.141-.653-19.193-.781-33.673-2.2-39.106-3.914a10.7,10.7,0,0,1-1.142-.421l-.186-.086c-.668-.324-1.016-.659-1.016-1,0-.288.25-.571.732-.847.05-.031.1-.06.162-.09.1-.052.207-.1.325-.155a.2.2,0,0,1,.02-.008c-8.677-2.157-34.576-114.106,74.352-114.106C4845.723,2376.5,4820.279,2488.356,4820.279,2491.711Z" transform="translate(-4661.328 -2376.505)" fill="none"/>
    </clipPath>
    <linearGradient id="linear-gradient-6" x1="0.83" y1="-0.065" x2="0.567" y2="0.477" gradientUnits="objectBoundingBox">
      <stop offset="0" stop-color="#40447e"/>
      <stop offset="0.996" stop-color="#3c3b6b"/>
    </linearGradient>
    <linearGradient id="linear-gradient-7" x1="0.83" y1="-0.076" x2="0.568" y2="0.472" xlink:href="#linear-gradient-6"/>
    <linearGradient id="linear-gradient-8" x1="0.552" y1="1.522" x2="0.459" y2="0.096" gradientUnits="objectBoundingBox">
      <stop offset="0" stop-color="#ff9085"/>
      <stop offset="1" stop-color="#fb6fbb"/>
    </linearGradient>
    <linearGradient id="linear-gradient-9" x1="0.526" y1="1.046" x2="0.47" y2="0.006" gradientUnits="objectBoundingBox">
      <stop offset="0" stop-color="#ffc444"/>
      <stop offset="0.996" stop-color="#f36f56"/>
    </linearGradient>
    <linearGradient id="linear-gradient-10" x1="0.482" y1="0.924" x2="0.511" y2="0.054" xlink:href="#linear-gradient-9"/>
    <linearGradient id="linear-gradient-11" x1="0.462" y1="1.713" x2="0.572" y2="-1.836" xlink:href="#linear-gradient-9"/>
    <linearGradient id="linear-gradient-12" x1="0.46" y1="1.799" x2="0.57" y2="-1.75" xlink:href="#linear-gradient-9"/>
    <linearGradient id="linear-gradient-13" x1="0.542" y1="0.926" x2="0.457" y2="0.016" gradientUnits="objectBoundingBox">
      <stop offset="0" stop-color="#311944"/>
      <stop offset="1" stop-color="#6b3976"/>
    </linearGradient>
    <linearGradient id="linear-gradient-14" x1="0.537" y1="0.926" x2="0.45" y2="-0.015" xlink:href="#linear-gradient-13"/>
    <linearGradient id="linear-gradient-15" x1="0.491" y1="0.11" x2="0.52" y2="1.312" xlink:href="#linear-gradient-9"/>
    <linearGradient id="linear-gradient-16" x1="0.488" y1="1.059" x2="0.527" y2="-0.19" gradientUnits="objectBoundingBox">
      <stop offset="0" stop-color="#ab316d"/>
      <stop offset="1" stop-color="#792d3d"/>
    </linearGradient>
    <linearGradient id="linear-gradient-17" x1="0.469" y1="0.844" x2="0.545" y2="-0.103" xlink:href="#linear-gradient-16"/>
    <linearGradient id="linear-gradient-18" x1="0.41" y1="1.582" x2="0.756" y2="-1.923" xlink:href="#linear-gradient-16"/>
    <linearGradient id="linear-gradient-19" x1="0.43" y1="1.371" x2="0.776" y2="-2.134" xlink:href="#linear-gradient-16"/>
    <linearGradient id="linear-gradient-20" x1="0.494" y1="1.209" x2="0.544" y2="-2.316" xlink:href="#linear-gradient-9"/>
    <linearGradient id="linear-gradient-21" x1="0.53" y1="1.122" x2="0.5" y2="0.52" xlink:href="#linear-gradient-4"/>
    <linearGradient id="linear-gradient-22" x1="0.504" y1="1.151" x2="0.491" y2="-1.815" xlink:href="#linear-gradient-4"/>
    <linearGradient id="linear-gradient-23" x1="0.503" y1="1.273" x2="0.497" y2="0.374" xlink:href="#linear-gradient-16"/>
    <linearGradient id="linear-gradient-24" x1="0.444" y1="0.849" x2="0.576" y2="-0.356" xlink:href="#linear-gradient-16"/>
    <linearGradient id="linear-gradient-25" x1="0.422" y1="1.319" x2="0.875" y2="-2.769" xlink:href="#linear-gradient-16"/>
    <linearGradient id="linear-gradient-26" x1="0.402" y1="1.534" x2="0.854" y2="-2.554" xlink:href="#linear-gradient-16"/>
    <linearGradient id="linear-gradient-27" x1="0.425" y1="0.687" x2="0.693" y2="-0.203" xlink:href="#linear-gradient-13"/>
    <linearGradient id="linear-gradient-28" x1="0.464" y1="0.589" x2="0.756" y2="-0.579" xlink:href="#linear-gradient-13"/>
    <linearGradient id="linear-gradient-29" x1="0.861" y1="-0.692" x2="0.29" y2="1.037" xlink:href="#linear-gradient-8"/>
    <linearGradient id="linear-gradient-30" x1="0.478" y1="1.967" x2="0.509" y2="-0.575" gradientUnits="objectBoundingBox">
      <stop offset="0" stop-color="#311944"/>
      <stop offset="0.555" stop-color="#6f2b60"/>
      <stop offset="1" stop-color="#a03976"/>
    </linearGradient>
    <linearGradient id="linear-gradient-31" x1="0.488" y1="1.206" x2="0.511" y2="0.092" xlink:href="#linear-gradient-9"/>
    <linearGradient id="linear-gradient-32" x1="0.433" y1="0.96" x2="0.562" y2="-0.09" xlink:href="#linear-gradient-9"/>
    <linearGradient id="linear-gradient-33" x1="-1.202" y1="7.695" x2="-0.597" y2="3.948" xlink:href="#linear-gradient-9"/>
    <linearGradient id="linear-gradient-34" x1="0.289" y1="1.659" x2="0.983" y2="-1.734" xlink:href="#linear-gradient-9"/>
    <linearGradient id="linear-gradient-35" y1="0.5" x2="1" y2="0.5" gradientUnits="objectBoundingBox">
      <stop offset="0" stop-color="#444b8c"/>
      <stop offset="0.996" stop-color="#3e4177"/>
    </linearGradient>
    <linearGradient id="linear-gradient-36" x1="0.855" y1="-13.203" x2="0.543" y2="-1.434" xlink:href="#linear-gradient-9"/>
    <linearGradient id="linear-gradient-37" x1="1.145" y1="-0.106" x2="0.664" y2="0.339" xlink:href="#linear-gradient-35"/>
    <linearGradient id="linear-gradient-38" x1="1.532" y1="-0.129" x2="0.879" y2="0.321" xlink:href="#linear-gradient-35"/>
    <linearGradient id="linear-gradient-39" x1="0.85" y1="-0.029" x2="0.421" y2="0.593" xlink:href="#linear-gradient-35"/>
    <linearGradient id="linear-gradient-40" x1="1.035" y1="-1.562" x2="0.57" y2="0.027" xlink:href="#linear-gradient-35"/>
    <linearGradient id="linear-gradient-41" x1="0.896" y1="-1.482" x2="0.444" y2="0.646" xlink:href="#linear-gradient-35"/>
    <linearGradient id="linear-gradient-42" x1="0.482" y1="1.135" x2="0.553" y2="-0.391" gradientUnits="objectBoundingBox">
      <stop offset="0.004" stop-color="#e38ddd"/>
      <stop offset="0.706" stop-color="#ac79ef"/>
      <stop offset="1" stop-color="#9571f6"/>
    </linearGradient>
    <linearGradient id="linear-gradient-43" x1="0.546" y1="2.277" x2="0.466" y2="-0.3" xlink:href="#linear-gradient-9"/>
    <linearGradient id="linear-gradient-44" x1="1.37" y1="-0.084" x2="0.249" y2="0.448" xlink:href="#linear-gradient-35"/>
    <linearGradient id="linear-gradient-46" x1="0.466" y1="1.115" x2="0.636" y2="-2.519" xlink:href="#linear-gradient-9"/>
    <linearGradient id="linear-gradient-47" x1="0.4" y1="0.098" x2="0.73" y2="2.292" xlink:href="#linear-gradient-4"/>
    <linearGradient id="linear-gradient-49" x1="0.498" y1="0.902" x2="0.563" y2="-0.639" xlink:href="#linear-gradient-9"/>
    <linearGradient id="linear-gradient-50" x1="0.396" y1="0.966" x2="1.059" y2="-1.301" xlink:href="#linear-gradient-9"/>
    <linearGradient id="linear-gradient-51" x1="-0.143" y1="2.394" x2="3.052" y2="-7.892" xlink:href="#linear-gradient-9"/>
    <linearGradient id="linear-gradient-52" x1="0.18" y1="1.669" x2="3.374" y2="-8.617" xlink:href="#linear-gradient-9"/>
    <linearGradient id="linear-gradient-55" x1="-1.909" y1="9.215" x2="-1.304" y2="5.468" xlink:href="#linear-gradient-9"/>
    <linearGradient id="linear-gradient-56" x1="0.289" y1="1.659" x2="0.983" y2="-1.734" xlink:href="#linear-gradient-9"/>
    <linearGradient id="linear-gradient-57" x1="0.836" y1="-0.95" x2="0.361" y2="1.374" xlink:href="#linear-gradient-8"/>
    <linearGradient id="linear-gradient-60" x1="0.408" y1="0.958" x2="0.569" y2="-0.089" xlink:href="#linear-gradient-9"/>
  </defs>
  <g id="Grupo_57859" data-name="Grupo 57859" transform="translate(-230 -2950)">
    <g id="Grupo_57858" data-name="Grupo 57858" transform="translate(-4363.846 573.495)">
      <path id="Trazado_116426" data-name="Trazado 116426" d="M4641.171,2388.427c-6.626,9.277.868,24.508-8.892,31.434-9.5,6.742-20.966-4.594-29.914,1.2-13.274,8.6-11.288,48.6,7.724,73.638,5.717,7.531,10.53,10.488,12.586,18.958,4.415,18.188-11.886,28.808-8.9,37.812,6.723,20.273,113.213,38.346,156.652-21.912,20.288-28.143,23.709-69.054,6.177-100.338C4744.923,2372.691,4656.04,2367.612,4641.171,2388.427Z" transform="translate(0 -0.627)" fill="#fff" opacity="0.39"/>
      <g id="Grupo_57836" data-name="Grupo 57836" transform="translate(4608.802 2387.25)">
        <g id="Grupo_57833" data-name="Grupo 57833" transform="translate(0 0)">
          <path id="Trazado_116427" data-name="Trazado 116427" d="M4962.49,2531.538l-2.179-2.192-2.678,13.685-16.8,36.077,1.869,2.192,11.609-.005v50.4A63.2,63.2,0,0,1,4896,2694.71l-89.411,4.952.168,1.613,37.039,10.6,65.609-5.725a72.389,72.389,0,0,0,66.151-72.121v-53.084l10.468-.6Z" transform="translate(-4806.593 -2529.346)" fill="url(#linear-gradient)"/>
        </g>
        <g id="Grupo_57834" data-name="Grupo 57834" transform="translate(0 0)">
          <path id="Trazado_116428" data-name="Trazado 116428" d="M4960.311,2529.346l-19.48,49.762,11.428-.005v50.4c0,33.006-25,60.454-57.392,63.01l-88.274,7.144,37.424,9.911,64.046-5.617c36.835-3.237,65.114-34.559,65.114-72.12v-53.085l10.3-.6Z" transform="translate(-4806.593 -2529.346)" fill="url(#linear-gradient-2)"/>
        </g>
        <g id="Grupo_57835" data-name="Grupo 57835" transform="translate(0)" opacity="0.3" style="mix-blend-mode: soft-light;isolation: isolate">
          <path id="Trazado_116429" data-name="Trazado 116429" d="M4967.393,2634.6c-3.027-13.525-10.175-19.851-9.873-36.248.237-12.856,4.811-18.746,7.579-29.054a65.384,65.384,0,0,0,1.145-27.457l-5.933-12.5-19.48,49.762,11.428-.005v50.4c0,33.006-25,60.454-57.392,63.01l-88.274,7.144,37.423,9.911,64.046-5.617a71.332,71.332,0,0,0,58.875-42.47A60.82,60.82,0,0,0,4967.393,2634.6Z" transform="translate(-4806.593 -2529.345)" fill="#f4f7fa"/>
        </g>
      </g>
      <g id="Grupo_57841" data-name="Grupo 57841" transform="translate(4606.28 2485.636)">
        <g id="Grupo_57840" data-name="Grupo 57840" transform="translate(0 5.899)">
          <g id="Grupo_57839" data-name="Grupo 57839" transform="translate(0.06 0.021)">
            <path id="Trazado_116430" data-name="Trazado 116430" d="M4922.771,4013.392a79.469,79.469,0,0,1-12.807,32.653s0,0,0,0c-.012.014-.066.018-.076.033-.033.05-.175.089-.175.14v0a75.823,75.823,0,0,1-62.581,32.261,33.215,33.215,0,0,1-6.2-.459l-.011,0h0s0,0,0,0c-.007.023-.011.2-.019.2-.043,0-.085.02-.128.018l-.023,0c-.972-.074-1.936-.091-2.9-.21-.359-.043-.719-.043-1.077-.093-.316-.043-.631-.064-.948-.111-.273-.041-.546-.072-.816-.117a.319.319,0,0,1-.043,0l-.042-.005c-.023,0-.053,0-.068-.008a.006.006,0,0,1-.005,0,.09.09,0,0,1-.025,0c-.665-.108-1.33-.221-1.992-.347l-.01,0a76.317,76.317,0,0,1-34.057-15.864c-.148-.117-.293-.237-.437-.357a75.509,75.509,0,0,1-26.445-45.8c-.039-.231-.076-.462-.113-.694-.07-.445-.136-.886-.2-1.327.1-.053.208-.1.327-.156.2.507,1.075-.444,1.288.063Z" transform="translate(-4771.569 -4013.052)" fill="url(#linear-gradient-3)"/>
            <g id="Grupo_57838" data-name="Grupo 57838" transform="translate(39.234 0.34)" style="mix-blend-mode: soft-light;isolation: isolate">
              <path id="Trazado_116431" data-name="Trazado 116431" d="M5757.979,4943.006v0h.006l0,0Z" transform="translate(-5727.868 -4877.967)" fill="#fff"/>
              <path id="Trazado_116432" data-name="Trazado 116432" d="M5382.737,4049.793c-1.638,2.29-6.708,5.232-3.268,11.008,3.41,5.761-.237,6.841-2.583,6.3s-9.687-.831-8.464,2.473c.728,1.977,1.771,3.216,1.917,4.166.1.639-.207,1.146-1.286,1.659-2.682,1.27-3.819,4.591-6.564,9.16-2.729,4.578-9.211.62-7.292,5.208s3.412,4.147,3.231,7.346a3.54,3.54,0,0,0,1.049,2.307c.047.056.1.113.144.168s.1.109.149.163c-1.024-.083-2.051-.187-3.07-.311-.36-.041-.72-.087-1.077-.137-.317-.042-.633-.087-.948-.135q-.412-.059-.817-.126a.077.077,0,0,1-.042-.015,1,1,0,0,0-.112-.015c-.655-.109-1.127-.226-1.9-.35h0c0-.03.013-.062-.015-.093-.437-.515-.111-1.072-.031-1.67.856-5.906-7.354-9.964-8.73-14.1-.974-2.97-.549-5.078-.358-7.3a14.867,14.867,0,0,0,.034-2.712c-.321-3.414.8-7.942-1.177-10.821s-9.97-3.827-11.489-9.614,2.029-14.4,3.413-15.874a.612.612,0,0,0,.152-.49h31.859c2.8,4.081,4.164,4.787,7.647,3.087,3.763-1.836,5.3-.481,6.275,2.1s3.294.054,4.413,3.461S5384.367,4047.5,5382.737,4049.793Z" transform="translate(-5329.656 -4034.715)" fill="#fff" style="mix-blend-mode: soft-light;isolation: isolate"/>
              <g id="Grupo_57837" data-name="Grupo 57837" transform="translate(93.887)">
                <path id="Trazado_116433" data-name="Trazado 116433" d="M6670.491,4050.132c.256-1.755.531-3.455-.208-4.117-1.993-1.835-2.428-6.835-1.737-9.37s6.063-2.375,2.417-6.594c-3.186-3.686-6.1-7.977-5.776-10.892l18.1-1.272a80.054,80.054,0,0,1-12.881,32.845c.01-.065.018-.137.026-.2C6670.454,4050.4,6670.472,4050.262,6670.491,4050.132Z" transform="translate(-6665.163 -4017.887)" fill="#fff"/>
              </g>
            </g>
          </g>
          <path id="Trazado_116434" data-name="Trazado 116434" d="M4922.083,4013.015c-.008.045-.225.091-.233.136a79.253,79.253,0,0,1-12.518,32.128s0,0,0,0c-.062.087-.167.167-.229.254-.037.051-.076.089-.076.14v0a76.344,76.344,0,0,1-62.682,32.342c-2.048,0-4.091-.378-6.1-.378h-.216c-.01,0-.013.123-.021.123a.163.163,0,0,1-.047-.019.093.093,0,0,0-.023-.006c-1-.08-1.992-.115-2.979-.235-.361-.043-.719-.052-1.078-.1-.317-.041-.63-.066-.945-.115-.278-.041-.55-.072-.82-.117-.062-.011-.122-.017-.182-.025-.541-.088-1.077-.179-1.614-.278-.029,0-.056-.01-.085-.016-.1-.015-.2-.035-.293-.054-.006,0-.008,0-.012,0a76.3,76.3,0,0,1-33.853-15.7c-.147-.117-.293-.237-.437-.358A75.55,75.55,0,0,1,4771,4014.857c-.035-.2-.068-.4-.1-.608q-.1-.618-.185-1.238c.051-.031.1-.06.163-.089.1-.053.208-.1.327-.155a.152.152,0,0,1,.019-.008c.194.468.391.933.595,1.415.016.039.033.076.049.115.153.361.309.721.468,1.077a66.172,66.172,0,0,0,47.917,37.792h.01a10.57,10.57,0,0,0,1.718.388c.053.008.109.059.162.068.233.037.47.091.707.126.089.015.181.037.271.046a.016.016,0,0,0,.01,0c.178.027.357.055.536.076.309.044.618.072.929.108.872.107,1.749.251,2.633.321.008,0,.014.029.018.029h0c1.8,0,3.584.2,5.418.2a66.157,66.157,0,0,0,18.125-2.5l0,0a66.525,66.525,0,0,0,12.883-5.16,65.469,65.469,0,0,0,23.081-20.372c0-.042.072-.079.1-.124a65.888,65.888,0,0,0,4.579-7.63c.768-1.481,1.477-2.972,2.128-4.443Z" transform="translate(-4770.718 -4012.758)" opacity="0.2" fill="url(#linear-gradient-4)" style="mix-blend-mode: multiply;isolation: isolate"/>
        </g>
        <path id="Trazado_116435" data-name="Trazado 116435" d="M4923.053,3934.916a.65.65,0,0,1-.187.429,1.131,1.131,0,0,1-.137.136c-1.434,1.246-7.551,2.383-16.921,3.3-3.879.379-8.318.717-13.213,1.011-9.063.542-19.7.927-31.251,1.1-4.5.068-9.138.1-13.881.1-12.285,0-23.885-.235-34.14-.653-19.193-.781-33.673-2.2-39.106-3.914a10.659,10.659,0,0,1-1.142-.422l-.186-.085c-.668-.325-1.016-.659-1.016-1,0-.288.249-.571.732-.847.05-.031.1-.06.162-.089.1-.052.207-.1.324-.156l.02-.008c6.442-2.83,37.281-4.975,74.352-4.975C4889.209,3928.841,4923.053,3931.562,4923.053,3934.916Z" transform="translate(-4771.791 -3928.841)" fill="url(#linear-gradient-5)"/>
      </g>
      <g id="Grupo_57857" data-name="Grupo 57857" transform="translate(4598.589 2376.505)">
        <g id="Grupo_57856" data-name="Grupo 57856" transform="translate(0 0)" clip-path="url(#clip-path)">
          <g id="Grupo_57855" data-name="Grupo 57855" transform="translate(5.326 3.892)">
            <g id="Grupo_57843" data-name="Grupo 57843" transform="translate(60.582 4.673)">
              <g id="Grupo_57842" data-name="Grupo 57842">
                <path id="Trazado_116436" data-name="Trazado 116436" d="M5621.608,2565.691c-16.381-2.646-19.992-4.48-21.663-7.837-2.425-4.875-.662-12.768,3.491-17.629,3.644-4.266,8.194-5.105,8.061-8.064-.109-2.434-3.228-2.744-5.517-7.317a11.074,11.074,0,0,1-1.4-7.043c.826-4.567,5.042-6.968,5.384-7.156,4.413-2.425,6.931.362,10.26-1.812,4.169-2.723,2.279-8.439,6.188-10.1,2.847-1.209,6.489.7,7.44,1.2,3.172,1.665,2.839,3.355,5.519,4.388,3.147,1.213,4.651-.715,8.311.054,3.025.635,5.216,2.723,7.005,4.825,4.023,4.728,2.022,7.541,4.995,13.377,4.187,8.222,10.515,7.275,11.638,13.875.587,3.452-.921,5.017.237,10.3.783,3.572,1.767,4.212,1.942,6.314.5,6.043-6.743,11.33-8.094,12.259C5656.822,2571.231,5644.967,2569.464,5621.608,2565.691Z" transform="translate(-5598.844 -2498.338)" fill="url(#linear-gradient-6)"/>
                <path id="Trazado_116437" data-name="Trazado 116437" d="M5648.221,2562.207c-11.039-.792-18.488,9.15-21.438,6.678-2.794-2.342,5.1-10.246,2.4-19.492-2.648-9.07-13.016-10.955-12.2-16.063.926-5.781,14.834-7.286,14.507-11.551-.193-2.516-5.115-3.046-6.1-7.039a6.2,6.2,0,0,1,.1-3.163c-2.7,2.12-1.476,7.082-5.272,9.563-3.329,2.175-5.847-.612-10.26,1.813-.342.188-4.558,2.588-5.384,7.156a11.074,11.074,0,0,0,1.4,7.043c2.289,4.573,5.408,4.884,5.517,7.318.133,2.958-4.417,3.8-8.061,8.064-4.153,4.862-5.917,12.754-3.491,17.629,1.67,3.358,5.281,5.191,21.663,7.837,23.358,3.773,35.213,5.54,43.8-.361,3.333-2.291,7.267-6.208,8.111-9.7a9.9,9.9,0,0,1-4.876,2.483C5661.479,2571.678,5658.175,2562.921,5648.221,2562.207Z" transform="translate(-5598.844 -2510.646)" opacity="0.3" fill="url(#linear-gradient-7)" style="mix-blend-mode: multiply;isolation: isolate"/>
              </g>
              <path id="Trazado_116438" data-name="Trazado 116438" d="M5717.337,3162.441c-2.218-3.339-.866-8.548-.581-9.646a17.081,17.081,0,0,1,4.695-7.88c6.573-6.476,16.608-6.416,24.21-6.369,7.584.046,11.825.071,16.448,2.692,8.341,4.729,14.079,15.727,10.733,21.123-2.083,3.36-6.125,2.032-30.138,2.868C5727.137,3165.771,5720.123,3166.632,5717.337,3162.441Z" transform="translate(-5707.845 -3093.531)" fill="url(#linear-gradient-8)"/>
              <path id="Trazado_116439" data-name="Trazado 116439" d="M5981.78,2955.748s1.6,11.5-6.515,13.774a1.25,1.25,0,0,0-.514,2.115l10.01,9.408a1.487,1.487,0,0,0,2.121-.085l9.084-10.037a1.251,1.251,0,0,0-.5-2.015c-2.916-1.073-8.134-4.192-7.04-12.6Z" transform="translate(-5947.957 -2923.592)" fill="url(#linear-gradient-9)"/>
              <path id="Trazado_116440" data-name="Trazado 116440" d="M6009.18,2740.061c0,.126,2.188,11.342,7.805,11.342,5.321,0,7.342-8.26,8-12.117l.209-1.968a4.1,4.1,0,0,1-2.335.068,3.672,3.672,0,0,1-2.361-1.758c-.639-1.418.536-2.547-.134-3.786a2.812,2.812,0,0,0-1.766-1.227,3.633,3.633,0,0,1,.732,3.063c-.292.793-1.112,1.553-2.939,2.016C6011.167,2737.017,6009.128,2737.52,6009.18,2740.061Z" transform="translate(-5980.333 -2714.285)" fill="url(#linear-gradient-10)"/>
              <path id="Trazado_116441" data-name="Trazado 116441" d="M5986.153,2865.09s-2.894-2.448-3.146-.95c-.526,3.124,1.949,4.848,3.293,3.914S5986.153,2865.09,5986.153,2865.09Z" transform="translate(-5955.932 -2837.973)" fill="url(#linear-gradient-11)"/>
              <path id="Trazado_116442" data-name="Trazado 116442" d="M6200.878,2865.09s2.895-2.448,3.146-.95c.526,3.124-1.949,4.848-3.292,3.914S6200.878,2865.09,6200.878,2865.09Z" transform="translate(-6157.896 -2837.973)" fill="url(#linear-gradient-12)"/>
            </g>
            <g id="Grupo_57846" data-name="Grupo 57846" transform="translate(23.516)">
              <g id="Grupo_57845" data-name="Grupo 57845">
                <path id="Trazado_116443" data-name="Trazado 116443" d="M5103.815,2477.43c-7.6.786-10,3.485-13.015,1.594-2.738-1.719-1.615-4.491-4.538-6.464-4.09-2.76-9.031.819-10.958-1.522-1.505-1.829,1.417-4.13.9-8.952-.612-5.732-5.219-6.961-4.554-11.543a9.586,9.586,0,0,1,3.364-5.557c2.09-1.635,3.111-.772,5.042-2.265,2.8-2.165,1.607-4.718,4.47-7.232.223-.2,3.061-2.621,6.053-1.969,2.318.5,2.281,2.323,4.23,2.809,3.492.871,5.454-4.5,9.816-4.455,3.448.037,3.585,3.409,7.784,4.229,5.174,1.009,8.963-3.329,10.986-1.591,1.3,1.115-.163,2.984,1.328,5.108,1.633,2.328,4.117,1.123,6.831,3.567a8.728,8.728,0,0,1,2.924,6.449c-.1,2.52-1.634,3.14-1.3,5.375.33,2.182,1.894,2.27,2.287,4.359.443,2.353-1,5.114-2.92,6.608-2.634,2.05-5.005.814-6.473,2.865-1.1,1.533-.128,2.72-1.058,4.528-.9,1.743-2.889,2.762-6.7,3.551C5111.689,2478.3,5110.108,2476.78,5103.815,2477.43Z" transform="translate(-5071.586 -2431.874)" fill="url(#linear-gradient-13)"/>
                <g id="Grupo_57844" data-name="Grupo 57844" transform="translate(0 1.589)" opacity="0.3" style="mix-blend-mode: multiply;isolation: isolate">
                  <path id="Trazado_116444" data-name="Trazado 116444" d="M5128.484,2485.827c-4.394-.875-4.8-4.952-9.436-6.24-7.95-2.209-14.6,7.6-18.567,5.174-3.793-2.322,1.393-11.812-3.8-17.5-3.827-4.189-9.676-2.367-10.957-5.479-.58-1.408-.141-3.627,3.065-7.307a9.067,9.067,0,0,0-4.258,2.027c-2.862,2.514-1.669,5.067-4.47,7.232-1.931,1.492-2.952.629-5.042,2.265a9.587,9.587,0,0,0-3.364,5.557c-.666,4.583,3.941,5.811,4.554,11.543.515,4.822-2.407,7.123-.9,8.952,1.927,2.341,6.868-1.239,10.958,1.522,2.923,1.973,1.8,4.745,4.538,6.464,3.012,1.891,5.413-.809,13.015-1.594,6.293-.65,7.874.867,14.509-.507,3.808-.789,5.8-1.808,6.7-3.551.93-1.808-.039-3,1.058-4.528,1.467-2.052,3.839-.815,6.473-2.865a8.111,8.111,0,0,0,1.859-2.087A9.536,9.536,0,0,1,5128.484,2485.827Z" transform="translate(-5071.586 -2454.475)" fill="url(#linear-gradient-14)"/>
                </g>
              </g>
              <path id="Trazado_116445" data-name="Trazado 116445" d="M5119.822,3155.667c2.583,4.046,14.9,20.876,32.381,20.674,17.612-.2,22.389-17.2,25.127-21.156,1.271-1.833.79-3.964-.123-8.011-.624-2.766-1.843-8.167-6.347-11.877-5.525-4.552-13.251-4.3-21.022-4.043-8.13.267-19.348.635-25.584,7.666-4.361,4.917-4.805,11.422-4.859,12.383C5119.27,3153.569,5119.207,3154.7,5119.822,3155.667Z" transform="translate(-5115.958 -3081.978)" fill="url(#linear-gradient-15)"/>
              <path id="Trazado_116446" data-name="Trazado 116446" d="M5386.384,2949.749s1.04,12.027-7.394,14.431a1.19,1.19,0,0,0-.4,2.081c2.667,2.09,7.485,5.431,11.5,5.863,4.183.45,9.156-3.869,11.7-6.425a1.192,1.192,0,0,0-.643-2.015c-3.607-.643-10.074-3.222-9.4-13.472Z" transform="translate(-5356.58 -2913.342)" fill="url(#linear-gradient-16)"/>
              <path id="Trazado_116447" data-name="Trazado 116447" d="M5415.238,2726.619s-.6,12,8.044,11.858,8.031-10.375,7.553-13.02c0,0,.06-6.966-5.7-6.368S5415.5,2721.495,5415.238,2726.619Z" transform="translate(-5391.071 -2698.864)" fill="url(#linear-gradient-17)"/>
              <path id="Trazado_116448" data-name="Trazado 116448" d="M5623.947,2844.152s.829-3.135,2.539-1.584c2.486,2.255-2.812,4.814-2.812,4.814Z" transform="translate(-5584.862 -2813.295)" fill="url(#linear-gradient-18)"/>
              <path id="Trazado_116449" data-name="Trazado 116449" d="M5384.7,2844.152s-.829-3.135-2.539-1.584c-2.485,2.255,2.812,4.814,2.812,4.814Z" transform="translate(-5359.709 -2813.295)" fill="url(#linear-gradient-19)"/>
              <path id="Trazado_116450" data-name="Trazado 116450" d="M5408.245,2699.919a.263.263,0,0,0,.5.016,8.475,8.475,0,0,1,7.282-5.527c4.337-.452,6.643,2.735,7.647,4.728a.488.488,0,0,0,.922-.169c.292-2.888-.1-8.456-7.494-8.456C5407.781,2690.51,5407.519,2697.58,5408.245,2699.919Z" transform="translate(-5384.342 -2672.328)" fill="url(#linear-gradient-20)"/>
            </g>
            <g id="Grupo_57848" data-name="Grupo 57848" transform="translate(79.08 26.604)">
              <path id="Trazado_116451" data-name="Trazado 116451" d="M5862.93,3427.679c-2.815-4.664,1.158-12.308,3.662-15.773,7.3-10.1,20.7-10.439,31.69-10.719,10.8-.275,21.217-.541,28.843,7.205,4.982,5.06,13.68,16.757,9.384,35.871-1.341,5.964-20.239,9.195-41.46,9.124C5871.707,3453.308,5866.445,3433.5,5862.93,3427.679Z" transform="translate(-5861.961 -3359.554)" fill="url(#linear-gradient-21)"/>
              <path id="Trazado_116452" data-name="Trazado 116452" d="M6235.288,3409.853c0,2-4.879,4.4-10.9,4.4s-10.9-2.4-10.9-4.4,4.879-1.1,10.9-1.1S6235.288,3407.854,6235.288,3409.853Z" transform="translate(-6188.778 -3366.492)" fill="url(#linear-gradient-22)"/>
              <path id="Trazado_116453" data-name="Trazado 116453" d="M6253.946,3228.8c-1.658,0,2.168,11.644-3.857,13.242a.663.663,0,0,0-.148,1.225c1.617.876,4.646,1.987,9.614,1.987a12.26,12.26,0,0,0,6.814-2.042.662.662,0,0,0-.072-1.139c-1.857-.957-4.435-4-3.666-12.975Z" transform="translate(-6222.342 -3199.378)" fill="url(#linear-gradient-23)"/>
              <path id="Trazado_116454" data-name="Trazado 116454" d="M6239.9,2942.382c.024.146.525,10.774,2.955,16.082.7,1.523,4.156,1.341,6.394,1.157,1.944-.159,4.992.55,5.85-.792,3.451-5.4,2.866-18.762,2.866-18.762s-1.768-4.447-9.018-4.325A9.5,9.5,0,0,0,6239.9,2942.382Z" transform="translate(-6213.329 -2926.922)" fill="url(#linear-gradient-24)"/>
              <path id="Trazado_116455" data-name="Trazado 116455" d="M6204.974,3084.862a6.55,6.55,0,0,0-2.945-2c-1.429-.235-2.36,3.466-.411,5.875a2.826,2.826,0,0,0,4.2.411Z" transform="translate(-6176.708 -3063.693)" fill="url(#linear-gradient-25)"/>
              <path id="Trazado_116456" data-name="Trazado 116456" d="M6463.05,3084.862a6.549,6.549,0,0,1,2.946-2c1.429-.235,2.36,3.466.411,5.875a2.825,2.825,0,0,1-4.2.411Z" transform="translate(-6420.005 -3063.693)" fill="url(#linear-gradient-26)"/>
              <path id="Trazado_116457" data-name="Trazado 116457" d="M6204.424,2831.345c.191.35.409.677.557.638.613-.16-1.751-6.133.427-8.224,1.126-1.081,2.394-.1,7.006-.3,4.644-.21,5.832-1.321,7.235-.47,1.279.776,2.424,2.99,1.476,9.547l.792-.183a6.755,6.755,0,0,1,.476-4.357,4.8,4.8,0,0,0,.864-2.587c-.028-.719-.267-.752-.306-1.341-.115-1.727,1.855-2.192,1.95-3.9.073-1.313-1.06-1.612-.853-2.985.176-1.167,1.062-1.386.921-2.229-.15-.91-1.336-1.588-2.168-1.824-.849-.241-1.155.026-1.653-.317-.8-.554-.417-1.539-1-1.9-1.035-.651-3.092,1.948-4.421,1.3-.806-.392-.5-1.561-1.208-1.844-1.377-.548-3.81,3.309-4.788,2.8-.469-.245-.017-1.185-.674-1.876a2.713,2.713,0,0,0-3.469.049c-.787.8-.118,1.759-.952,2.774-.748.912-1.612.536-2.457,1.267-1.435,1.241-.936,4.05-.757,5.052.613,3.45,2.523,4.148,2.095,6.5a5.3,5.3,0,0,0-.183,2.254A4.619,4.619,0,0,0,6204.424,2831.345Z" transform="translate(-6177.345 -2810.309)" fill="url(#linear-gradient-27)"/>
              <g id="Grupo_57847" data-name="Grupo 57847" transform="translate(23.849 5.288)" opacity="0.3" style="mix-blend-mode: multiply;isolation: isolate">
                <path id="Trazado_116458" data-name="Trazado 116458" d="M6222.076,2893.825c-.17-1.7,1.145-2.486.924-3.7a2.947,2.947,0,0,0-2.31-2.033c-2.2-.4-3.63,2.847-5.821,2.495-1.695-.272-1.507-2.319-3.419-3.142-3.032-1.3-6.208,2.672-8.224,1.571-.606-.331-1.218-1.182-1.262-3.49-1.156,1.328-.7,3.882-.534,4.828.614,3.451,2.524,4.149,2.1,6.5a5.285,5.285,0,0,0-.183,2.254,4.629,4.629,0,0,0,1.087,2.164c.191.35.41.676.558.638.613-.16-1.751-6.133.426-8.224,1.126-1.081,2.394-.1,7.005-.3,4.645-.21,5.832-1.321,7.236-.47,1.279.775,2.423,2.989,1.475,9.547l.792-.183a6.746,6.746,0,0,1,.476-4.357c.133-.257.311-.545.471-.875a7.794,7.794,0,0,0-.332-1.838A6.808,6.808,0,0,1,6222.076,2893.825Z" transform="translate(-6201.199 -2885.53)" fill="url(#linear-gradient-28)"/>
              </g>
            </g>
            <g id="Grupo_57849" data-name="Grupo 57849" transform="translate(0 34.235)">
              <path id="Trazado_116459" data-name="Trazado 116459" d="M4773.258,3542.239c-24.119.186-29-5.507-32.832-10.735-3.525-4.811-4.971-22.105-.765-26.955,6.65-7.667,17.326-8.043,31.931-8.45,13.734-.383,22.2-.618,28.88,5.3,6.248,5.533,10.238,15.825,6.347,21.142C4803.209,3527.475,4796.286,3542.061,4773.258,3542.239Z" transform="translate(-4737.086 -3455.361)" fill="url(#linear-gradient-29)"/>
              <path id="Trazado_116460" data-name="Trazado 116460" d="M5065.507,3483.259l-2.824.723a1.048,1.048,0,0,0-.622,1.581c1.923,3,7.014,10.524,10.2,11.41,3.3.915,9.455-8.622,11.5-11.979a1.048,1.048,0,0,0-.577-1.544l-2.071-.659a13.666,13.666,0,0,0-5.25-.6l-7.72.625A15.871,15.871,0,0,0,5065.507,3483.259Z" transform="translate(-5039.06 -3442.546)" fill="url(#linear-gradient-30)"/>
              <path id="Trazado_116461" data-name="Trazado 116461" d="M5135.231,3342s1.552,11.165-.594,12.231l6.108,6.656,6.188-7.885s-2.339-1.762-1.723-11Z" transform="translate(-5106.689 -3312.256)" fill="url(#linear-gradient-31)"/>
              <path id="Trazado_116462" data-name="Trazado 116462" d="M5084.539,3063.905c-.221.3-3.087,14.366,6.834,15.838s10.359-8.926,10.233-13.337-4.665-6.013-7.262-6.321S5085.322,3062.846,5084.539,3063.905Z" transform="translate(-5059.601 -3050.136)" fill="url(#linear-gradient-32)"/>
              <path id="Trazado_116463" data-name="Trazado 116463" d="M5047.524,3213.865s-.5-2.3-2.2-.865,1,5.239,3.232,5.082Z" transform="translate(-5023.162 -3191.882)" fill="url(#linear-gradient-33)"/>
              <path id="Trazado_116464" data-name="Trazado 116464" d="M5315.645,3201.577c-.285.193-1.1,5.591-1.1,5.591s1.433.168,2.469-1.77S5318.546,3199.615,5315.645,3201.577Z" transform="translate(-5273.945 -3181.196)" fill="url(#linear-gradient-34)"/>
              <path id="Trazado_116465" data-name="Trazado 116465" d="M5013.05,2928.915c-1.045-1.734-3.686-.913-4.456-2.585-.647-1.405.874-2.726.058-3.94-.683-1.016-2.352-.99-2.648-.986-2.256.034-2.772,1.82-4.38,1.78-1.964-.049-2.041-2.734-4.638-3.865-2.52-1.1-6.2-.2-7.691,1.854-1.157,1.6-.172,2.774-1.69,4.828-1.043,1.413-1.966,1.475-2.484,2.858a5.38,5.38,0,0,0,.1,3.454c.618,2.2,1.769,3.174,3.508,5.517a38.03,38.03,0,0,1,2.949,4.654,52.834,52.834,0,0,1,1.735,5.554c.557,2.194.522,2.639,1.043,3.349,1.792,2.45,5.884,2.213,7.605,2.113,1.974-.114,4.431-.257,5.667-1.971.668-.927.584-1.764.739-4a55.375,55.375,0,0,1,.858-6.562,19.765,19.765,0,0,1,.807-2.784c.719-1.918,1.466-2.224,2.277-4.207C5013.06,2932.381,5013.9,2930.327,5013.05,2928.915Zm-8.218,14.974c-1.22.329-2.043.033-3.7-.062-3.307-.19-4.353,1.358-5.914.678a4.061,4.061,0,0,1-2.475-2.6,12.265,12.265,0,0,1-.1-3.9c.258-1.907.557-4.108,2.085-5.081,2.218-1.412,5.05,1.018,7.083-.557a3.661,3.661,0,0,0,1.232-2.218,8.937,8.937,0,0,1,5.366,5.3,8.63,8.63,0,0,1-.048,5.619A6.417,6.417,0,0,1,5004.832,2943.889Z" transform="translate(-4967.45 -2918.847)" fill="url(#linear-gradient-35)"/>
              <path id="Trazado_116466" data-name="Trazado 116466" d="M5167.516,3305.892a8.147,8.147,0,0,0,5.346-.151c.223-.085.414.159.228.292a4.926,4.926,0,0,1-3.113,1.037,6.448,6.448,0,0,1-2.65-.87C5167.122,3306.084,5167.284,3305.82,5167.516,3305.892Z" transform="translate(-5136.993 -3278.526)" fill="url(#linear-gradient-36)"/>
            </g>
            <g id="Grupo_57851" data-name="Grupo 57851" transform="translate(50.308 39.892)">
              <path id="Trazado_116467" data-name="Trazado 116467" d="M5804.421,3009.172c-1.673-.942-1.8-3.115-1.848-3.973-.118-2.029.616-5.33,2.772-5.821,1.733-.4,3.316,1.268,3.512,1.479,1.988,2.146,1.029,5.223.924,5.544a4.365,4.365,0,0,1-2.218,2.865A3.766,3.766,0,0,1,5804.421,3009.172Z" transform="translate(-5777.965 -2999.317)" fill="url(#linear-gradient-37)"/>
              <g id="Grupo_57850" data-name="Grupo 57850" transform="translate(24.596 0.13)" opacity="0.3" style="mix-blend-mode: multiply;isolation: isolate">
                <path id="Trazado_116468" data-name="Trazado 116468" d="M5807.563,3006.645c-.974-1.429-2.716-1.275-3.234-2.495-.258-.609-.2-1.529.776-2.98-1.97.674-2.645,3.8-2.532,5.752.05.858.175,3.031,1.848,3.973a3.767,3.767,0,0,0,3.142.092c.065-.029.128-.06.19-.093A5,5,0,0,0,5807.563,3006.645Z" transform="translate(-5802.561 -3001.17)" fill="url(#linear-gradient-38)"/>
              </g>
              <path id="Trazado_116469" data-name="Trazado 116469" d="M5680.824,3158.128s-3.34-23.933-1.9-32.341,9.241-10.1,12.594-10.179,10.049,2.266,10.56,12.212-4.586,30.881-4.586,30.881Z" transform="translate(-5662.685 -3107.431)" fill="url(#linear-gradient-39)"/>
              <path id="Trazado_116470" data-name="Trazado 116470" d="M5690.526,3332.2c5.233.488,7.193-4.161,12.006-3.7a7.273,7.273,0,0,1,1.542.321c.086-.945.147-1.858.182-2.727a7.308,7.308,0,0,0-1.724-.382c-4.812-.465-6.773,4.185-12.006,3.7-4.266-.4-5.636-3.736-9.383-3.234a6.593,6.593,0,0,0-2.569.935c0,.883.025,1.8.06,2.752a6.576,6.576,0,0,1,2.509-.9C5684.89,3328.463,5686.261,3331.8,5690.526,3332.2Z" transform="translate(-5662.695 -3302.738)" fill="#fff" opacity="0.3" style="mix-blend-mode: soft-light;isolation: isolate"/>
              <path id="Trazado_116471" data-name="Trazado 116471" d="M5697.139,3492.527c-3.906-.4-5.161-3.737-8.593-3.234a5.49,5.49,0,0,0-1.776.591c.67,7.933,1.684,15.2,1.684,15.2l16.667.573s2-8.2,3.366-16.779c-.12-.02-.237-.035-.351-.048C5703.728,3488.366,5701.933,3493.015,5697.139,3492.527Z" transform="translate(-5670.314 -3454.387)" opacity="0.8" fill="url(#linear-gradient-40)" style="mix-blend-mode: multiply;isolation: isolate"/>
              <path id="Trazado_116472" data-name="Trazado 116472" d="M5701.241,3365.379c-4.408-.465-6.2,4.185-11,3.7-3.906-.4-5.161-3.736-8.593-3.234a5.706,5.706,0,0,0-2.3.9c.09,2.679.284,5.566.521,8.371a5.5,5.5,0,0,1,1.777-.591c3.432-.5,4.687,2.836,8.593,3.234,4.793.489,6.588-4.161,11-3.7C5701.355,3374.069,5701.668,3365.424,5701.241,3365.379Z" transform="translate(-5663.42 -3339.614)" opacity="0.3" fill="url(#linear-gradient-41)" style="mix-blend-mode: multiply;isolation: isolate"/>
              <path id="Trazado_116473" data-name="Trazado 116473" d="M5454.3,3585.807c-3.617-4.293-.491-13.342,3.356-18.485,6.428-8.592,17.232-9.444,22.794-9.883,5.969-.471,14.081-1.111,20.737,4.308,7.831,6.376,11.182,19.136,6.8,24.06-3.559,4-9.49-.231-26.335-.185C5464.6,3585.67,5457.859,3590.035,5454.3,3585.807Z" transform="translate(-5452.699 -3517.923)" fill="url(#linear-gradient-42)"/>
              <path id="Trazado_116474" data-name="Trazado 116474" d="M5688.591,3442.807c3.088-.963,8.14-.964,8.087-12.052,0,0,6.4-.092,6.648,0s-1.7,10.994,7.261,11.365c.61.025.77.893.281,1.257a17.053,17.053,0,0,1-10.684,2.809c-3.421-.132-7.321.442-11.611-2.041C5687.985,3443.806,5687.943,3443.009,5688.591,3442.807Z" transform="translate(-5671.568 -3400.386)" fill="url(#linear-gradient-43)"/>
              <path id="Trazado_116475" data-name="Trazado 116475" d="M5917.055,3256.915c-1.778-.371,1.388-15.4-.176-38.828-.324-4.857-.77-8.856-1.109-11.55l5.781.5a67.306,67.306,0,0,1,1.584,35.179C5921.482,3249.346,5918.363,3257.188,5917.055,3256.915Z" transform="translate(-5883.216 -3191.969)" fill="url(#linear-gradient-44)"/>
              <path id="Trazado_116476" data-name="Trazado 116476" d="M5917.055,3256.915c-1.778-.371,1.388-15.4-.176-38.828-.324-4.857-.77-8.856-1.109-11.55l5.781.5a67.306,67.306,0,0,1,1.584,35.179C5921.482,3249.346,5918.363,3257.188,5917.055,3256.915Z" transform="translate(-5883.216 -3191.969)" fill="url(#linear-gradient-44)"/>
              <path id="Trazado_116477" data-name="Trazado 116477" d="M5748.123,3246.335c0,1.477-.67,12.286,7.586,12.286,7.549,0,6.89-7.9,6.669-11.863,0,0-.345-3.562-2.888-4.574,0,0,2.354,2.035,2.317,6.435,0,0-.586-2.347-6.122-2.426s-6.692,2.426-6.692,2.426-.977-4.235,1.838-6.435C5750.831,3242.185,5748.835,3242.807,5748.123,3246.335Z" transform="translate(-5727.342 -3225.111)" fill="url(#linear-gradient-46)"/>
            </g>
            <g id="Grupo_57853" data-name="Grupo 57853" transform="translate(17.789 52.452)">
              <path id="Trazado_116478" data-name="Trazado 116478" d="M4990.47,3747.506c-.629-1.22-.319-3.029.3-6.646.307-1.787,1.713-9.981,5.287-15.106,6.78-9.723,22.19-9.584,30.8-9.506,10.238.093,20.733.188,28.11,8.147,6.213,6.7,9.842,18.586,5.28,24.161-4.388,5.363-12.313-.051-35.038.159C5006.117,3748.891,4993.244,3752.883,4990.47,3747.506Z" transform="translate(-4990.125 -3678.392)" fill="url(#linear-gradient-47)"/>
              <path id="Trazado_116479" data-name="Trazado 116479" d="M5264.549,3656.137c-8.424-.02-17.5,3.823-17.312,6.725.192,3.041,10.541,5,17.917,5.058,6.864.052,17.065-1.5,17.349-4.492C5282.782,3660.485,5273.445,3656.158,5264.549,3656.137Z" transform="translate(-5229.158 -3622.522)" fill="url(#linear-gradient-35)"/>
              <path id="Trazado_116480" data-name="Trazado 116480" d="M5354.005,3535.809s2.189,14.324-5.829,15.556l11.717,2.618,9.8-2.733s-7.388-2-6.326-13.779Z" transform="translate(-5323.005 -3510.653)" fill="url(#linear-gradient-49)"/>
              <path id="Trazado_116481" data-name="Trazado 116481" d="M5392.33,3294.269a8.419,8.419,0,1,1-16.808,0c0-4.923,3.763-14.412,8.4-14.412S5392.33,3289.346,5392.33,3294.269Z" transform="translate(-5348.428 -3272.695)" fill="url(#linear-gradient-50)"/>
              <path id="Trazado_116482" data-name="Trazado 116482" d="M5603.895,3452.645s1.991-1.492,3.018.07c1.44,2.19-3.216,4.429-3.216,4.429Z" transform="translate(-5560.561 -3432.737)" fill="url(#linear-gradient-51)"/>
              <path id="Trazado_116483" data-name="Trazado 116483" d="M5339.547,3452.645s-1.991-1.492-3.018.07c-1.44,2.19,3.216,4.429,3.216,4.429Z" transform="translate(-5311.92 -3432.737)" fill="url(#linear-gradient-52)"/>
              <path id="Trazado_116484" data-name="Trazado 116484" d="M5350.558,3201.078c-.395.093-3.129-5.237-2.183-10.464,1.74-9.61,14.181-13.765,15-12.38.423.711-1.931,3.357-1.356,4.146.543.746,3.023-1.1,3.493-.37.428.667-1.319,2.694-.883,3.376s2.5-.986,3.175-.22c.958,1.088-2.089,5.714-.834,7.428.426.582.926.252,1.407.866,1.343,1.716-.57,6.821-1.407,6.685-.638-.1-.046-3.152-1.823-6.19a8.862,8.862,0,0,0-2.657-2.847,12.652,12.652,0,0,0-3.768,2.093c-1.062.861-.943,1.262-1.7,1.683-2,1.107-3.846-.537-5.105.561-.4.35-.555.993-.862,2.279C5350.553,3199.822,5350.74,3201.035,5350.558,3201.078Z" transform="translate(-5323.005 -3177.975)" fill="url(#linear-gradient-35)"/>
              <g id="Grupo_57852" data-name="Grupo 57852" transform="translate(25.171 7.408)" opacity="0.3" style="mix-blend-mode: multiply;isolation: isolate">
                <path id="Trazado_116485" data-name="Trazado 116485" d="M5361.8,3287.081c-1.811-.743-1.949-3.041-3.837-3.546-3.634-.973-7.328,6.41-8.356,5.673-.384-.275-.353-1.651,1-5.858a13.086,13.086,0,0,0-2.235,5.232c-.946,5.227,1.789,10.556,2.183,10.463.183-.042,0-1.255.5-3.353.308-1.286.461-1.929.862-2.279,1.26-1.1,3.107.547,5.105-.561.76-.421.642-.822,1.7-1.683a12.645,12.645,0,0,1,3.768-2.092,8.86,8.86,0,0,1,2.657,2.847c1.777,3.038,1.186,6.087,1.823,6.19.837.135,2.75-4.969,1.407-6.685-.481-.614-.981-.285-1.407-.867-.957-1.308.589-4.311.951-6.144C5364.906,3287.333,5363.021,3287.583,5361.8,3287.081Z" transform="translate(-5348.177 -3283.35)" fill="url(#linear-gradient-35)"/>
              </g>
            </g>
            <g id="Grupo_57854" data-name="Grupo 57854" transform="translate(71.98 53.568)">
              <path id="Trazado_116486" data-name="Trazado 116486" d="M6123.561,3486.948s-.5-2.3-2.2-.865,1,5.239,3.232,5.082Z" transform="translate(-6095.531 -3465.102)" fill="url(#linear-gradient-55)"/>
              <path id="Trazado_116487" data-name="Trazado 116487" d="M6376.519,3476.587c-.285.193-1.1,5.591-1.1,5.591s1.433.168,2.47-1.77S6379.42,3474.625,6376.519,3476.587Z" transform="translate(-6332.219 -3456.207)" fill="url(#linear-gradient-56)"/>
              <path id="Trazado_116488" data-name="Trazado 116488" d="M5798.944,3799.555c-24.119.186-32.573,3.364-36.4-1.864-3.525-4.811-.6-13.281,3.6-18.131,6.65-7.667,17.325-8.043,31.93-8.45,13.734-.383,22.2-.619,28.881,5.3,6.248,5.534,10.237,15.825,6.347,21.142C5829.69,3802.485,5821.972,3799.377,5798.944,3799.555Z" transform="translate(-5760.967 -3730.372)" fill="url(#linear-gradient-57)"/>
              <path id="Trazado_116489" data-name="Trazado 116489" d="M6126.38,3758.27l-2.823.723a1.048,1.048,0,0,0-.622,1.581c1.922,3,7.015,10.524,10.2,11.41,3.3.915,9.455-8.622,11.5-11.979a1.048,1.048,0,0,0-.577-1.544l-2.071-.659a13.667,13.667,0,0,0-5.25-.6l-7.72.625A15.837,15.837,0,0,0,6126.38,3758.27Z" transform="translate(-6097.333 -3717.557)" fill="url(#linear-gradient-30)"/>
              <path id="Trazado_116490" data-name="Trazado 116490" d="M6196.105,3617.015s1.552,11.165-.595,12.231l6.109,6.656,6.188-7.885s-2.339-1.762-1.723-11Z" transform="translate(-6164.962 -3587.266)" fill="url(#linear-gradient-31)"/>
              <path id="Trazado_116491" data-name="Trazado 116491" d="M6147.98,3338.916c-.22.3-2.415,19.223,7.507,20.7s9.686-13.782,9.56-18.194-4.666-6.013-7.263-6.321S6148.763,3337.856,6147.98,3338.916Z" transform="translate(-6120.441 -3325.147)" fill="url(#linear-gradient-60)"/>
              <path id="Trazado_116492" data-name="Trazado 116492" d="M6053.519,3213.018c.259-1.907.558-4.108,2.086-5.081,2.217-1.412,5.049,1.018,7.083-.557a3.66,3.66,0,0,0,1.232-2.218,8.939,8.939,0,0,1,5.366,5.3,8.486,8.486,0,0,1,.2,4.775c.085-.045.171-.089.256-.135.263-.142.522-.289.783-.437.121-.428.28-.933.483-1.474.719-1.918,1.466-2.224,2.277-4.207.651-1.59,1.492-3.644.641-5.056-1.045-1.734-3.686-.913-4.456-2.585-.647-1.405.875-2.727.058-3.941-.683-1.015-2.353-.99-2.649-.986-2.256.034-2.772,1.82-4.38,1.78-1.964-.049-2.041-2.734-4.638-3.864-2.52-1.1-6.2-.2-7.691,1.853-1.157,1.6-.173,2.774-1.69,4.828-1.044,1.413-1.966,1.475-2.484,2.857a5.383,5.383,0,0,0,.1,3.454c.617,2.2,1.769,3.174,3.507,5.517.334.45.722.994,1.142,1.629.888.349,1.782.681,2.692.963A12.156,12.156,0,0,1,6053.519,3213.018Z" transform="translate(-6025.724 -3193.858)" fill="url(#linear-gradient-35)"/>
            </g>
          </g>
        </g>
      </g>
      <path id="Trazado_116494" data-name="Trazado 116494" d="M4838.039,4001.411c-12.029,0-23.526-.22-34.169-.654-19.534-.8-33.855-2.233-39.292-3.947a11.384,11.384,0,0,1-1.217-.45l-.19-.087c-.367-.178-1.434-.7-1.434-1.648a1.77,1.77,0,0,1,1.091-1.466.713.713,0,1,1,.707,1.238,1.663,1.663,0,0,0-.325.229,2.269,2.269,0,0,0,.566.357l.17.078a10.024,10.024,0,0,0,1.059.39c5.322,1.677,19.508,3.092,38.923,3.882,10.624.433,22.1.652,34.111.652,4.691,0,9.358-.035,13.871-.1,11.2-.166,21.993-.545,31.219-1.1,4.917-.294,9.353-.634,13.186-1.008,13.143-1.281,15.934-2.612,16.523-3.125l.043-.04a.716.716,0,0,1,.224-.914.708.708,0,0,1,.989.173,1.3,1.3,0,0,1,.248.752,1.349,1.349,0,0,1-.366.9,1.79,1.79,0,0,1-.207.2c-1.526,1.327-7.354,2.494-17.316,3.465-3.85.376-8.3.717-13.239,1.013-9.247.553-20.064.933-31.282,1.1C4847.411,4001.376,4842.737,4001.411,4838.039,4001.411Zm74.891-6.715h0Z" transform="translate(-156.088 -1502.914)" fill="url(#linear-gradient-5)"/>
    </g>
  </g>
</svg>
