<svg xmlns="http://www.w3.org/2000/svg" width="415" height="173" viewBox="0 0 415 173">
  <g id="Grupo_60372" data-name="Grupo 60372" transform="translate(-180 -1244)">
    <g id="Grupo_58056" data-name="Grupo 58056" transform="translate(-1071.707 358.555)">
      <g id="Grupo_57997" data-name="Grupo 57997">
        <path id="Trazado_116716" data-name="Trazado 116716" d="M1538.88,972.371h-.031a.848.848,0,0,1-.817-.878c.034-.949.051-1.91.051-2.856,0-2.078-.083-4.181-.247-6.249a.848.848,0,1,1,1.691-.134c.168,2.112.253,4.26.253,6.383,0,.967-.017,1.948-.052,2.917A.849.849,0,0,1,1538.88,972.371Zm-1.458-18.319a.85.85,0,0,1-.832-.684,78.961,78.961,0,0,0-2.281-8.815.848.848,0,0,1,1.615-.519,80.682,80.682,0,0,1,2.331,9.005.848.848,0,0,1-.833,1.013Zm-5.621-17.49a.849.849,0,0,1-.773-.5,79.881,79.881,0,0,0-4.233-8.059.849.849,0,1,1,1.455-.874,81.521,81.521,0,0,1,4.323,8.231.848.848,0,0,1-.772,1.2Zm-9.459-15.752a.846.846,0,0,1-.673-.332,80.466,80.466,0,0,0-5.95-6.9.849.849,0,1,1,1.22-1.18,82.087,82.087,0,0,1,6.076,7.042.848.848,0,0,1-.673,1.365ZM1509.56,907.6a.847.847,0,0,1-.538-.192,79.664,79.664,0,0,0-7.36-5.368.849.849,0,0,1,.92-1.426,81.388,81.388,0,0,1,7.517,5.482.848.848,0,0,1-.539,1.5Zm-15.453-9.957a.837.837,0,0,1-.374-.088,78.888,78.888,0,0,0-8.4-3.538.848.848,0,1,1,.567-1.6,80.4,80.4,0,0,1,8.577,3.614.849.849,0,0,1-.375,1.611Zm-17.322-6.146a.888.888,0,0,1-.19-.021,79.965,79.965,0,0,0-8.978-1.521.848.848,0,0,1,.188-1.686,81.536,81.536,0,0,1,9.169,1.552.849.849,0,0,1-.189,1.676Zm-27.456-1.473a.848.848,0,0,1-.1-1.691,80.88,80.88,0,0,1,9.286-.566h0a.849.849,0,0,1,0,1.7,79.3,79.3,0,0,0-9.091.554A.876.876,0,0,1,1449.329,890.026Z" fill="#6f7302"/>
      </g>
      <g id="Grupo_57998" data-name="Grupo 57998">
        <path id="Trazado_116717" data-name="Trazado 116717" d="M1399.374,1023.1a.847.847,0,0,1-.631-.281,81.933,81.933,0,0,1-5.817-7.259.849.849,0,0,1,1.383-.984,80.353,80.353,0,0,0,5.7,7.108.849.849,0,0,1-.63,1.416Zm-10.657-14.974a.85.85,0,0,1-.744-.439,81.451,81.451,0,0,1-4.02-8.388.848.848,0,1,1,1.57-.644,79.6,79.6,0,0,0,3.936,8.212.849.849,0,0,1-.742,1.259Zm-6.978-17a.849.849,0,0,1-.817-.619,80.377,80.377,0,0,1-1.994-9.084.849.849,0,0,1,1.676-.267,78.891,78.891,0,0,0,1.952,8.892.849.849,0,0,1-.587,1.047A.873.873,0,0,1,1381.739,991.125Zm-2.894-18.143a.849.849,0,0,1-.847-.813c-.048-1.13-.072-2.278-.072-3.412,0-1.953.072-3.934.214-5.889a.849.849,0,0,1,1.693.123c-.139,1.914-.21,3.854-.21,5.766,0,1.11.024,2.234.071,3.34a.849.849,0,0,1-.812.884Zm1.331-18.334a.87.87,0,0,1-.159-.014.849.849,0,0,1-.676-.992,81.243,81.243,0,0,1,2.248-9.028.848.848,0,0,1,1.62.5,79.654,79.654,0,0,0-2.2,8.839A.849.849,0,0,1,1380.176,954.648Zm5.459-17.551a.849.849,0,0,1-.776-1.192,80.806,80.806,0,0,1,4.252-8.275.849.849,0,0,1,1.462.862,79,79,0,0,0-4.162,8.1A.848.848,0,0,1,1385.635,937.1Zm9.327-15.835a.849.849,0,0,1-.676-1.361,81.441,81.441,0,0,1,6.03-7.082.849.849,0,0,1,1.227,1.173,79.31,79.31,0,0,0-5.9,6.933A.847.847,0,0,1,1394.962,921.262Z" fill="#6f7302"/>
      </g>
      <g id="Grupo_57999" data-name="Grupo 57999">
        <path id="Trazado_116718" data-name="Trazado 116718" d="M1458.932,1049.625c-1.678,0-3.386-.054-5.078-.16a.848.848,0,1,1,.106-1.693c1.656.1,3.329.155,4.972.155,1.374,0,2.765-.036,4.136-.107a.848.848,0,1,1,.089,1.694C1461.757,1049.588,1460.335,1049.625,1458.932,1049.625Zm-14.165-1.252a.859.859,0,0,1-.15-.013,81.055,81.055,0,0,1-9.05-2.154.849.849,0,0,1,.487-1.626,79.374,79.374,0,0,0,8.861,2.109.849.849,0,0,1-.148,1.684Z" fill="#6f7302"/>
      </g>
      <g id="Grupo_58000" data-name="Grupo 58000">
        <path id="Trazado_116719" data-name="Trazado 116719" d="M1489.272,1043.633a.849.849,0,0,1-.323-1.634,79.208,79.208,0,0,0,8.209-3.943.849.849,0,1,1,.822,1.485,80.877,80.877,0,0,1-8.386,4.028A.835.835,0,0,1,1489.272,1043.633Zm16.084-8.9a.848.848,0,0,1-.494-1.539,80.195,80.195,0,0,0,6.89-5.521l.208-.187a.848.848,0,1,1,1.137,1.259l-.212.191a81.614,81.614,0,0,1-7.037,5.639A.843.843,0,0,1,1505.356,1034.735ZM1519,1022.417a.849.849,0,0,1-.637-1.41,79.522,79.522,0,0,0,5.615-7.171.848.848,0,1,1,1.394.967,81.126,81.126,0,0,1-5.735,7.326A.849.849,0,0,1,1519,1022.417Z" fill="#6f7302"/>
      </g>
      <circle id="Elipse_4200" data-name="Elipse 4200" cx="58.793" cy="58.793" r="58.793" transform="translate(1375.707 968.697) rotate(-45)" fill="#fff" opacity="0.5" style="isolation: isolate"/>
      <g id="Grupo_58010" data-name="Grupo 58010">
        <g id="Grupo_58009" data-name="Grupo 58009">
          <g id="Grupo_58001" data-name="Grupo 58001">
            <path id="Trazado_116720" data-name="Trazado 116720" d="M1453.883,1035.938l20.413,19.182a4.926,4.926,0,0,0,6.967,0h0a4.927,4.927,0,0,0,0-6.968l-20.65-19.42Z" fill="#5d9af0"/>
            <path id="Trazado_116721" data-name="Trazado 116721" d="M1477.78,1057.411a5.733,5.733,0,0,1-4.074-1.682l-20.4-19.173a.849.849,0,0,1,1.162-1.237l20.413,19.182.019.019a4.078,4.078,0,0,0,5.776-5.759l-20.641-19.411a.849.849,0,0,1,1.163-1.236l20.651,19.42.019.018a5.776,5.776,0,0,1-4.084,9.859Z" fill="#6f7302"/>
          </g>
          <g id="Grupo_58002" data-name="Grupo 58002">
            <circle id="Elipse_4201" data-name="Elipse 4201" cx="31.51" cy="31.51" r="31.51" transform="translate(1403.502 978.09)" fill="#ffce3b"/>
            <path id="Trazado_116722" data-name="Trazado 116722" d="M1435.012,1041.943a32.331,32.331,0,1,1,22.881-9.462A32.259,32.259,0,0,1,1435.012,1041.943Zm0-63.005a30.661,30.661,0,1,0,21.681,8.981h0A30.462,30.462,0,0,0,1435.012,978.938Z" fill="#6f7302"/>
          </g>
          <g id="Grupo_58008" data-name="Grupo 58008">
            <g id="Grupo_58003" data-name="Grupo 58003">
              <circle id="Elipse_4202" data-name="Elipse 4202" cx="21.391" cy="21.391" r="21.391" transform="matrix(0.16, -0.987, 0.987, 0.16, 1410.47, 1027.288)" fill="#fff"/>
              <path id="Trazado_116723" data-name="Trazado 116723" d="M1435.012,1031.84a22.24,22.24,0,1,1,22.24-22.24A22.265,22.265,0,0,1,1435.012,1031.84Zm0-42.783a20.542,20.542,0,1,0,20.542,20.543A20.567,20.567,0,0,0,1435.012,989.057Z" fill="#6f7302"/>
            </g>
            <g id="Grupo_58007" data-name="Grupo 58007">
              <g id="Grupo_58004" data-name="Grupo 58004">
                <path id="Trazado_116724" data-name="Trazado 116724" d="M1435.767,1020.939h-4.448a.849.849,0,0,1,0-1.7h4.448a4.293,4.293,0,0,0,4.288-4.288v-.1a4.293,4.293,0,0,0-4.288-4.288h-.875a5.985,5.985,0,0,1,0-11.97h3.927a.849.849,0,1,1,0,1.7h-3.927a4.288,4.288,0,0,0,0,8.576h.875a5.992,5.992,0,0,1,5.985,5.985v.1A5.992,5.992,0,0,1,1435.767,1020.939Z" fill="#6f7302"/>
              </g>
              <g id="Grupo_58005" data-name="Grupo 58005">
                <path id="Trazado_116725" data-name="Trazado 116725" d="M1435.33,999.594a.849.849,0,0,1-.849-.849v-4.528a.849.849,0,1,1,1.7,0v4.528A.849.849,0,0,1,1435.33,999.594Z" fill="#6f7302"/>
              </g>
              <g id="Grupo_58006" data-name="Grupo 58006">
                <path id="Trazado_116726" data-name="Trazado 116726" d="M1435.33,1026.17a.849.849,0,0,1-.849-.848v-4.529a.849.849,0,1,1,1.7,0v4.529A.848.848,0,0,1,1435.33,1026.17Z" fill="#6f7302"/>
              </g>
            </g>
          </g>
        </g>
      </g>
      <g id="Grupo_58022" data-name="Grupo 58022">
        <g id="Grupo_58021" data-name="Grupo 58021">
          <g id="Grupo_58011" data-name="Grupo 58011">
            <path id="Trazado_116727" data-name="Trazado 116727" d="M1501.559,1009.729c4.083,1.366,10.146,1.03,10.487,1.019,17.031-.585,27.387-14.3,22.114-28.939a28.218,28.218,0,0,0-7.574-10.909c-.579-.52-2.923-2.321-3.715-3.084-7.916-7.631-5.247-16.716,5.026-20.64.059-.023-7.221-8.189-19.321-2a35.742,35.742,0,0,1-1.061-4.3,1.577,1.577,0,0,0-2.042-1.35c-4.417,1.257-7.6,6.33-7.6,6.33-13.3-6.184-17.655,1.306-17.595,1.329,10.148,3.878,12.957,12.772,5.245,20.422a18.134,18.134,0,0,1-2.5,2.111c-10.594,7.1-10.759,16.562-10.5,19.609.065.779.115,1.558.184,2.337.908,10.243,12.058,18.337,24.37,18.337Z" fill="#fff"/>
            <path id="Trazado_116728" data-name="Trazado 116728" d="M1510.005,1011.641a30.081,30.081,0,0,1-8.557-1.056l-4.331.255h-.05c-12.97,0-24.281-8.573-25.215-19.11-.038-.431-.07-.862-.1-1.292-.026-.35-.052-.7-.082-1.049a20.558,20.558,0,0,1,1.231-8.649,24.173,24.173,0,0,1,9.645-11.736,17.6,17.6,0,0,0,2.378-2.009c3.28-3.253,4.692-6.909,3.976-10.3-.776-3.677-4.03-6.859-8.926-8.73a.851.851,0,0,1-.538-.68c-.115-.842,1.636-2.322,2.112-2.673,2.211-1.63,7.2-3.729,16.025.164,1.037-1.449,3.9-5.005,7.671-6.079a2.486,2.486,0,0,1,2.1.332,2.382,2.382,0,0,1,1.024,1.758,24.819,24.819,0,0,0,.747,3.177c8.415-3.9,14.485-1.15,17.407.894a13.669,13.669,0,0,1,1.489,1.2c.537.5.792.764.736,1.219a.848.848,0,0,1-.539.689c-4.911,1.876-8.161,5.08-8.917,8.79-.7,3.461.778,7.171,4.177,10.447.449.433,1.5,1.275,2.337,1.951.595.478,1.109.891,1.357,1.113a29.05,29.05,0,0,1,7.8,11.253,21.251,21.251,0,0,1-2.131,19.589c-4.308,6.359-11.871,10.18-20.752,10.485l-.068,0C1511.507,1011.62,1510.816,1011.641,1510.005,1011.641Zm-8.446-2.761a.854.854,0,0,1,.27.044c3.485,1.166,8.614,1.044,10.1.979l.084,0c8.332-.285,15.405-3.835,19.405-9.74a19.6,19.6,0,0,0,1.94-18.062,27.3,27.3,0,0,0-7.343-10.566c-.213-.191-.734-.609-1.285-1.052-.913-.734-1.947-1.566-2.452-2.052-3.832-3.693-5.487-7.958-4.662-12.008.808-3.962,3.969-7.384,8.75-9.528-2.148-1.779-8.308-5.615-17.408-.964a.848.848,0,0,1-1.2-.508,34.294,34.294,0,0,1-1.094-4.475.683.683,0,0,0-.3-.511.793.793,0,0,0-.669-.1c-4.045,1.151-7.088,5.918-7.119,5.966a.848.848,0,0,1-1.075.318c-9.869-4.589-14.418-1.373-15.9.191,4.869,2.13,8.1,5.564,8.944,9.54s-.739,8.179-4.442,11.852a18.977,18.977,0,0,1-2.634,2.218c-10.285,6.892-10.349,16.154-10.124,18.828q.045.532.083,1.065c.032.423.064.846.1,1.269.414,4.675,3.1,9.08,7.569,12.4a26.847,26.847,0,0,0,15.93,5.159l4.468-.262Z" fill="#6f7302"/>
          </g>
          <g id="Grupo_58012" data-name="Grupo 58012">
            <path id="Trazado_116729" data-name="Trazado 116729" d="M1523.55,981.624a.853.853,0,0,1-.836-1c1.449-8.1-6.2-10.912-8.582-11.581-.812-.228-5.763-.821-10.55-1.4-8.614-1.033-14.81-1.8-16.093-2.279a2.687,2.687,0,0,1-1.758-2.945c.353-2.025,2.64-2.352,3.936-2.225a.849.849,0,0,1-.165,1.689c-.016,0-1.929-.148-2.1.828a1,1,0,0,0,.679,1.062c1.192.445,9.579,1.451,15.7,2.185s9.914,1.2,10.808,1.447a16.106,16.106,0,0,1,7.124,4.063,10.351,10.351,0,0,1,2.669,9.45A.851.851,0,0,1,1523.55,981.624Z" fill="#6f7302"/>
          </g>
          <g id="Grupo_58013" data-name="Grupo 58013">
            <path id="Trazado_116730" data-name="Trazado 116730" d="M1501.12,962c-.769,0-1.252,0-1.347-.006-10.545-.117-12.686-2.766-13.078-3.505a2.756,2.756,0,0,1-.451-2.442c.531-1.7,2.688-2.531,2.932-2.621a.849.849,0,0,1,.588,1.592h0c-.418.156-1.663.773-1.9,1.538a1.1,1.1,0,0,0,.258,1.013.352.352,0,0,1,.074.122c.166.232,2.035,2.5,11.6,2.606.126,0,12.713.127,19.312-1.072a2.038,2.038,0,0,0,1.614-1.154c.132-.377.085-.541.021-.652-.115-.2-.6-.717-2.571-1.113a.849.849,0,0,1,.334-1.664c2.009.4,3.188,1.018,3.711,1.936a2.4,2.4,0,0,1,.108,2.052,3.691,3.691,0,0,1-2.914,2.265C1513.875,961.9,1504.592,962,1501.12,962Z" fill="#6f7302"/>
          </g>
          <g id="Grupo_58014" data-name="Grupo 58014">
            <path id="Trazado_116731" data-name="Trazado 116731" d="M1508.575,945.172a10.369,10.369,0,0,0,2.064,3.132Z" fill="#fff"/>
            <path id="Trazado_116732" data-name="Trazado 116732" d="M1510.639,949.153a.842.842,0,0,1-.608-.258,11.194,11.194,0,0,1-2.235-3.386.849.849,0,0,1,1.558-.674,9.526,9.526,0,0,0,1.894,2.878.849.849,0,0,1-.609,1.44Z" fill="#6f7302"/>
          </g>
          <g id="Grupo_58015" data-name="Grupo 58015">
            <path id="Trazado_116733" data-name="Trazado 116733" d="M1496.389,948.3a24.292,24.292,0,0,1,1.48-2.456Z" fill="#fff"/>
            <path id="Trazado_116734" data-name="Trazado 116734" d="M1496.388,949.153a.857.857,0,0,1-.381-.091.848.848,0,0,1-.376-1.139,24.807,24.807,0,0,1,1.536-2.551.849.849,0,0,1,1.405.952,23.537,23.537,0,0,0-1.425,2.362A.85.85,0,0,1,1496.388,949.153Z" fill="#6f7302"/>
          </g>
          <g id="Grupo_58016" data-name="Grupo 58016">
            <path id="Trazado_116735" data-name="Trazado 116735" d="M1501.559,1009.729a25.375,25.375,0,0,0,9.839-3.229Z" fill="#fff"/>
            <path id="Trazado_116736" data-name="Trazado 116736" d="M1501.558,1010.578a.849.849,0,0,1-.118-1.689,24.623,24.623,0,0,0,9.51-3.11.849.849,0,1,1,.9,1.442,26.287,26.287,0,0,1-10.167,3.348A.825.825,0,0,1,1501.558,1010.578Z" fill="#6f7302"/>
          </g>
          <g id="Grupo_58020" data-name="Grupo 58020">
            <g id="Grupo_58017" data-name="Grupo 58017">
              <path id="Trazado_116737" data-name="Trazado 116737" d="M1504.411,996.916h-4.2a.849.849,0,1,1,0-1.7h4.2a4.006,4.006,0,0,0,4-4v-.09a4.006,4.006,0,0,0-4-4h-.826a5.7,5.7,0,0,1,0-11.4h3.708a.849.849,0,0,1,0,1.7h-3.708a4,4,0,0,0,0,8h.826a5.7,5.7,0,0,1,5.7,5.7v.09A5.7,5.7,0,0,1,1504.411,996.916Z" fill="#6f7302"/>
            </g>
            <g id="Grupo_58018" data-name="Grupo 58018">
              <path id="Trazado_116738" data-name="Trazado 116738" d="M1504,976.764a.849.849,0,0,1-.848-.849V971.64a.849.849,0,1,1,1.7,0v4.275A.849.849,0,0,1,1504,976.764Z" fill="#6f7302"/>
            </g>
            <g id="Grupo_58019" data-name="Grupo 58019">
              <path id="Trazado_116739" data-name="Trazado 116739" d="M1504,1001.856a.849.849,0,0,1-.848-.849v-4.276a.849.849,0,0,1,1.7,0v4.276A.849.849,0,0,1,1504,1001.856Z" fill="#6f7302"/>
            </g>
          </g>
        </g>
      </g>
      <g id="Grupo_58055" data-name="Grupo 58055">
        <g id="Grupo_58024" data-name="Grupo 58024">
          <g id="Grupo_58023" data-name="Grupo 58023">
            <path id="Trazado_116740" data-name="Trazado 116740" d="M1416.106,932.192a19.546,19.546,0,0,1,19.524-19.524v-9.952a29.476,29.476,0,0,0-29.477,29.476Z" fill="#5d9af0"/>
            <path id="Trazado_116741" data-name="Trazado 116741" d="M1406.153,933.041a.848.848,0,0,1-.848-.849,30.359,30.359,0,0,1,30.325-30.325.849.849,0,0,1,.848.849v9.952a.848.848,0,0,1-.848.848,18.7,18.7,0,0,0-18.675,18.676.849.849,0,0,1-.849.849Zm9.953-.849h0Zm18.675-28.615a28.666,28.666,0,0,0-27.767,27.766h8.261a20.4,20.4,0,0,1,19.506-19.507Z" fill="#6f7302"/>
          </g>
        </g>
        <g id="Grupo_58026" data-name="Grupo 58026">
          <g id="Grupo_58025" data-name="Grupo 58025">
            <path id="Trazado_116742" data-name="Trazado 116742" d="M1435.63,968.583a29.477,29.477,0,0,1-29.477-29.477h9.953a19.546,19.546,0,0,0,19.524,19.525Z" fill="#ffce3b"/>
            <path id="Trazado_116743" data-name="Trazado 116743" d="M1435.63,969.431a30.359,30.359,0,0,1-30.325-30.325.848.848,0,0,1,.848-.848h9.953a.849.849,0,0,1,.849.848,18.7,18.7,0,0,0,18.675,18.676.849.849,0,0,1,.848.849v9.952A.848.848,0,0,1,1435.63,969.431Zm-28.616-29.476a28.667,28.667,0,0,0,27.767,27.767v-8.26a20.4,20.4,0,0,1-19.506-19.507Z" fill="#6f7302"/>
          </g>
        </g>
        <g id="Grupo_58028" data-name="Grupo 58028">
          <g id="Grupo_58027" data-name="Grupo 58027">
            <path id="Trazado_116744" data-name="Trazado 116744" d="M1442.544,968.583a29.477,29.477,0,0,0,29.477-29.477h-9.953a19.546,19.546,0,0,1-19.524,19.525Z" fill="#5d9af0"/>
            <path id="Trazado_116745" data-name="Trazado 116745" d="M1442.544,969.431a.849.849,0,0,1-.849-.848v-9.952a.849.849,0,0,1,.849-.849,18.7,18.7,0,0,0,18.675-18.676.849.849,0,0,1,.849-.848h9.953a.848.848,0,0,1,.848.848A30.36,30.36,0,0,1,1442.544,969.431Zm.849-9.969v8.26a28.667,28.667,0,0,0,27.767-27.767H1462.9A20.4,20.4,0,0,1,1443.393,959.462Z" fill="#6f7302"/>
          </g>
        </g>
        <g id="Grupo_58035" data-name="Grupo 58035">
          <g id="Grupo_58029" data-name="Grupo 58029">
            <path id="Trazado_116746" data-name="Trazado 116746" d="M1478.587,931.25a36.392,36.392,0,0,0-36.392-36.392v12.287a24.131,24.131,0,0,1,24.1,24.1Z" fill="#fff"/>
            <path id="Trazado_116747" data-name="Trazado 116747" d="M1478.587,932.1H1466.3a.849.849,0,0,1-.848-.849,23.283,23.283,0,0,0-23.256-23.257.848.848,0,0,1-.849-.848V894.858a.849.849,0,0,1,.849-.849,37.242,37.242,0,0,1,37.241,37.241A.849.849,0,0,1,1478.587,932.1Zm-11.453-1.7h10.595a35.587,35.587,0,0,0-34.686-34.684v10.594A24.986,24.986,0,0,1,1467.134,930.4Z" fill="#6f7302"/>
          </g>
          <g id="Grupo_58030" data-name="Grupo 58030">
            <path id="Trazado_116748" data-name="Trazado 116748" d="M1467.929,905.518l-8.622,8.62Z" fill="#fff"/>
            <path id="Trazado_116749" data-name="Trazado 116749" d="M1459.307,914.986a.848.848,0,0,1-.6-1.448l8.623-8.62a.848.848,0,1,1,1.2,1.2l-8.622,8.62A.849.849,0,0,1,1459.307,914.986Z" fill="#6f7302"/>
          </g>
          <g id="Grupo_58031" data-name="Grupo 58031">
            <path id="Trazado_116750" data-name="Trazado 116750" d="M1473.805,913.673l-10.565,5.274Z" fill="#fff"/>
            <path id="Trazado_116751" data-name="Trazado 116751" d="M1463.24,919.795a.849.849,0,0,1-.379-1.608l10.565-5.273a.848.848,0,1,1,.758,1.518l-10.565,5.274A.842.842,0,0,1,1463.24,919.795Z" fill="#6f7302"/>
          </g>
          <g id="Grupo_58032" data-name="Grupo 58032">
            <path id="Trazado_116752" data-name="Trazado 116752" d="M1477.681,923.143l-12.041,1.706Z" fill="#fff"/>
            <path id="Trazado_116753" data-name="Trazado 116753" d="M1465.639,925.7a.849.849,0,0,1-.118-1.689l12.041-1.707a.849.849,0,0,1,.238,1.681l-12.041,1.706A.832.832,0,0,1,1465.639,925.7Z" fill="#6f7302"/>
          </g>
          <g id="Grupo_58033" data-name="Grupo 58033">
            <path id="Trazado_116754" data-name="Trazado 116754" d="M1459.2,899.069l-4.718,11.125Z" fill="#fff"/>
            <path id="Trazado_116755" data-name="Trazado 116755" d="M1454.484,911.043a.85.85,0,0,1-.781-1.18l4.719-11.125a.848.848,0,1,1,1.562.663l-4.718,11.125A.849.849,0,0,1,1454.484,911.043Z" fill="#6f7302"/>
          </g>
          <g id="Grupo_58034" data-name="Grupo 58034">
            <path id="Trazado_116756" data-name="Trazado 116756" d="M1449.452,895.666l-1.36,12.114Z" fill="#fff"/>
            <path id="Trazado_116757" data-name="Trazado 116757" d="M1448.093,908.629a.763.763,0,0,1-.095-.006.849.849,0,0,1-.749-.938l1.36-12.114a.848.848,0,0,1,1.686.19l-1.36,12.114A.849.849,0,0,1,1448.093,908.629Z" fill="#6f7302"/>
          </g>
        </g>
        <g id="Grupo_58054" data-name="Grupo 58054">
          <g id="Grupo_58038" data-name="Grupo 58038">
            <g id="Grupo_58036" data-name="Grupo 58036">
              <rect id="Rectángulo_6936" data-name="Rectángulo 6936" width="5.596" height="25.226" rx="0.657" transform="translate(1450.282 923.718)" fill="#ffce3b"/>
              <path id="Trazado_116758" data-name="Trazado 116758" d="M1455.221,949.793h-4.281a1.508,1.508,0,0,1-1.506-1.506V924.375a1.507,1.507,0,0,1,1.506-1.505h4.281a1.507,1.507,0,0,1,1.506,1.505v23.912A1.508,1.508,0,0,1,1455.221,949.793Zm-4.09-1.7h3.9V924.567h-3.9Z" fill="#6f7302"/>
            </g>
            <g id="Grupo_58037" data-name="Grupo 58037">
              <rect id="Rectángulo_6937" data-name="Rectángulo 6937" width="5.596" height="25.226" rx="0.657" transform="translate(1450.282 923.718)" fill="#ffce3b"/>
              <path id="Trazado_116759" data-name="Trazado 116759" d="M1455.221,949.793h-4.281a1.508,1.508,0,0,1-1.506-1.506V924.375a1.507,1.507,0,0,1,1.506-1.505h4.281a1.507,1.507,0,0,1,1.506,1.505v23.912A1.508,1.508,0,0,1,1455.221,949.793Zm-4.09-1.7h3.9V924.567h-3.9Z" fill="#6f7302"/>
            </g>
          </g>
          <g id="Grupo_58041" data-name="Grupo 58041">
            <g id="Grupo_58039" data-name="Grupo 58039">
              <rect id="Rectángulo_6938" data-name="Rectángulo 6938" width="5.294" height="16.885" rx="0.657" transform="translate(1441.491 932.059)" fill="#ffce3b"/>
              <path id="Trazado_116760" data-name="Trazado 116760" d="M1446.127,949.793h-3.979a1.508,1.508,0,0,1-1.506-1.506V932.716a1.508,1.508,0,0,1,1.506-1.506h3.979a1.508,1.508,0,0,1,1.506,1.506v15.571A1.508,1.508,0,0,1,1446.127,949.793Zm-3.788-1.7h3.6V932.908h-3.6Z" fill="#6f7302"/>
            </g>
            <g id="Grupo_58040" data-name="Grupo 58040">
              <rect id="Rectángulo_6939" data-name="Rectángulo 6939" width="5.294" height="16.885" rx="0.657" transform="translate(1441.491 932.059)" fill="#ffce3b"/>
              <path id="Trazado_116761" data-name="Trazado 116761" d="M1446.127,949.793h-3.979a1.508,1.508,0,0,1-1.506-1.506V932.716a1.508,1.508,0,0,1,1.506-1.506h3.979a1.508,1.508,0,0,1,1.506,1.506v15.571A1.508,1.508,0,0,1,1446.127,949.793Zm-3.788-1.7h3.6V932.908h-3.6Z" fill="#6f7302"/>
            </g>
          </g>
          <g id="Grupo_58044" data-name="Grupo 58044">
            <g id="Grupo_58042" data-name="Grupo 58042">
              <rect id="Rectángulo_6940" data-name="Rectángulo 6940" width="5.289" height="13.759" rx="0.657" transform="translate(1423.239 935.185)" fill="#ffce3b"/>
              <path id="Trazado_116762" data-name="Trazado 116762" d="M1427.871,949.793H1423.9a1.508,1.508,0,0,1-1.506-1.506V935.842a1.507,1.507,0,0,1,1.506-1.505h3.975a1.507,1.507,0,0,1,1.505,1.506v12.444A1.507,1.507,0,0,1,1427.871,949.793Zm-3.784-1.7h3.592V936.034h-3.592Z" fill="#6f7302"/>
            </g>
            <g id="Grupo_58043" data-name="Grupo 58043">
              <rect id="Rectángulo_6941" data-name="Rectángulo 6941" width="5.289" height="13.759" rx="0.657" transform="translate(1423.239 935.185)" fill="#ffce3b"/>
              <path id="Trazado_116763" data-name="Trazado 116763" d="M1427.871,949.793H1423.9a1.508,1.508,0,0,1-1.506-1.506V935.842a1.507,1.507,0,0,1,1.506-1.505h3.975a1.507,1.507,0,0,1,1.505,1.506v12.444A1.507,1.507,0,0,1,1427.871,949.793Zm-3.784-1.7h3.592V936.034h-3.592Z" fill="#6f7302"/>
            </g>
          </g>
          <g id="Grupo_58047" data-name="Grupo 58047">
            <g id="Grupo_58045" data-name="Grupo 58045">
              <rect id="Rectángulo_6942" data-name="Rectángulo 6942" width="5.731" height="20.432" rx="0.657" transform="translate(1431.961 928.512)" fill="#ffce3b"/>
              <path id="Trazado_116764" data-name="Trazado 116764" d="M1437.034,949.793h-4.416a1.508,1.508,0,0,1-1.506-1.506V929.169a1.508,1.508,0,0,1,1.506-1.506h4.416a1.508,1.508,0,0,1,1.506,1.506v19.118A1.508,1.508,0,0,1,1437.034,949.793Zm-4.225-1.7h4.034V929.36h-4.034Z" fill="#6f7302"/>
            </g>
            <g id="Grupo_58046" data-name="Grupo 58046">
              <rect id="Rectángulo_6943" data-name="Rectángulo 6943" width="5.731" height="20.432" rx="0.657" transform="translate(1431.961 928.512)" fill="#ffce3b"/>
              <path id="Trazado_116765" data-name="Trazado 116765" d="M1437.034,949.793h-4.416a1.508,1.508,0,0,1-1.506-1.506V929.169a1.508,1.508,0,0,1,1.506-1.506h4.416a1.508,1.508,0,0,1,1.506,1.506v19.118A1.508,1.508,0,0,1,1437.034,949.793Zm-4.225-1.7h4.034V929.36h-4.034Z" fill="#6f7302"/>
            </g>
          </g>
          <g id="Grupo_58053" data-name="Grupo 58053">
            <g id="Grupo_58048" data-name="Grupo 58048">
              <path id="Trazado_116766" data-name="Trazado 116766" d="M1425.884,927.839a.848.848,0,0,1-.471-1.554l9.011-6.008a.848.848,0,0,1,.762-.091l8.463,3.1,8.918-6.137a.848.848,0,0,1,.963,1.4l-9.28,6.387a.848.848,0,0,1-.772.1l-8.471-3.1-8.653,5.769A.848.848,0,0,1,1425.884,927.839Z" fill="#6f7302"/>
            </g>
            <g id="Grupo_58049" data-name="Grupo 58049">
              <circle id="Elipse_4203" data-name="Elipse 4203" cx="1.776" cy="1.776" r="1.776" transform="translate(1424.108 925.215)" fill="#fff"/>
              <path id="Trazado_116767" data-name="Trazado 116767" d="M1425.883,929.615a2.624,2.624,0,1,1,2.625-2.624A2.627,2.627,0,0,1,1425.883,929.615Zm0-3.551a.926.926,0,1,0,.928.927A.928.928,0,0,0,1425.883,926.064Z" fill="#6f7302"/>
            </g>
            <g id="Grupo_58050" data-name="Grupo 58050">
              <circle id="Elipse_4204" data-name="Elipse 4204" cx="1.776" cy="1.776" r="1.776" transform="translate(1433.119 919.207)" fill="#fff"/>
              <path id="Trazado_116768" data-name="Trazado 116768" d="M1434.9,923.607a2.624,2.624,0,1,1,2.624-2.624A2.628,2.628,0,0,1,1434.9,923.607Zm0-3.551a.927.927,0,1,0,.927.927A.928.928,0,0,0,1434.9,920.056Z" fill="#6f7302"/>
            </g>
            <g id="Grupo_58051" data-name="Grupo 58051">
              <circle id="Elipse_4205" data-name="Elipse 4205" cx="1.776" cy="1.776" r="1.776" transform="translate(1441.994 922.454)" fill="#fff"/>
              <path id="Trazado_116769" data-name="Trazado 116769" d="M1443.769,926.854a2.624,2.624,0,1,1,2.625-2.624A2.627,2.627,0,0,1,1443.769,926.854Zm0-3.551a.927.927,0,1,0,.928.927A.928.928,0,0,0,1443.769,923.3Z" fill="#6f7302"/>
            </g>
            <g id="Grupo_58052" data-name="Grupo 58052">
              <circle id="Elipse_4206" data-name="Elipse 4206" cx="1.776" cy="1.776" r="1.776" transform="translate(1451.273 916.068)" fill="#fff"/>
              <path id="Trazado_116770" data-name="Trazado 116770" d="M1453.048,920.468a2.624,2.624,0,1,1,2.625-2.624A2.627,2.627,0,0,1,1453.048,920.468Zm0-3.551a.927.927,0,1,0,.928.927A.928.928,0,0,0,1453.048,916.917Z" fill="#6f7302"/>
            </g>
          </g>
        </g>
      </g>
    </g>
    <rect id="Rectángulo_7496" data-name="Rectángulo 7496" width="415" height="173" transform="translate(180 1244)" fill="none"/>
  </g>
</svg>
