<svg xmlns="http://www.w3.org/2000/svg" xmlns:xlink="http://www.w3.org/1999/xlink" width="277.3" height="277.3" viewBox="0 0 277.3 277.3">
  <defs>
    <linearGradient id="linear-gradient" x1="-0.354" y1="1.253" x2="1.133" y2="-0.059" gradientUnits="objectBoundingBox">
      <stop offset="0" stop-color="#05360f"/>
      <stop offset="1" stop-color="#3a761f"/>
    </linearGradient>
  </defs>
  <g id="Grupo_60147" data-name="Grupo 60147" transform="translate(-1130.701 -966.863)">
    <path id="Rectángulo_7314" data-name="Rectángulo 7314" d="M2.525,0h191.03a2.525,2.525,0,0,1,2.525,2.525v191.03a2.526,2.526,0,0,1-2.526,2.526H2.525A2.525,2.525,0,0,1,0,193.555V2.525A2.525,2.525,0,0,1,2.525,0Z" transform="translate(1171.31 1007.473)" fill="url(#linear-gradient)"/>
    <path id="Trazado_120378" data-name="Trazado 120378" d="M486.815,289.886H316.792a4.5,4.5,0,0,1-4.492-4.493V115.371a4.5,4.5,0,0,1,4.492-4.493H486.815a4.5,4.5,0,0,1,4.492,4.493V285.393A4.5,4.5,0,0,1,486.815,289.886ZM316.792,111.72a3.656,3.656,0,0,0-3.652,3.652V285.393a3.656,3.656,0,0,0,3.652,3.652H486.815a3.654,3.654,0,0,0,3.65-3.652V115.371a3.654,3.654,0,0,0-3.65-3.652Z" transform="translate(867.547 905.131)" fill="#fff"/>
    <path id="Trazado_120379" data-name="Trazado 120379" d="M500.807,186.273H324.068l-29.14,16.839H529.947Z" transform="translate(856.913 951.286)" fill="#f39316"/>
    <rect id="Rectángulo_7315" data-name="Rectángulo 7315" width="196.081" height="196.081" rx="15.401" transform="matrix(0.707, 0.707, -0.707, 0.707, 1269.351, 966.863)" fill="#a0a603"/>
    <path id="Trazado_120380" data-name="Trazado 120380" d="M372.056,121.993l3.449,6.989,7.713,1.121-5.581,5.44,1.318,7.682-6.9-3.627-6.9,3.627,1.317-7.682-5.581-5.44,7.713-1.121Z" transform="translate(897.295 911.936)" fill="#fff"/>
    <path id="Trazado_120381" data-name="Trazado 120381" d="M410.75,322.409a25.487,25.487,0,0,1-18.139-7.513l-87.425-87.425a25.681,25.681,0,0,1,0-36.276l87.425-87.425a25.651,25.651,0,0,1,36.276,0L516.314,191.2a25.651,25.651,0,0,1,0,36.276L428.887,314.9A25.481,25.481,0,0,1,410.75,322.409Zm0-224.511a23.852,23.852,0,0,0-16.976,7.032l-87.425,87.425a24,24,0,0,0,0,33.954l87.425,87.425a24.007,24.007,0,0,0,33.952,0l87.425-87.425a24.009,24.009,0,0,0,0-33.954l-87.425-87.425A23.849,23.849,0,0,0,410.75,97.9Z" transform="translate(858.601 896.18)" fill="#fff"/>
    <g id="Grupo_60144" data-name="Grupo 60144" transform="translate(1197.735 1073.051)">
      <g id="Grupo_60143" data-name="Grupo 60143">
        <path id="Trazado_120382" data-name="Trazado 120382" d="M323.644,193.557c11.7-8.8,24.063-19,24.063-27.715,0-2.655-1.246-4.148-3.153-4.148-1.993,0-3.652,1.989-3.319,6.886H323.4c.579-16.1,11.034-22.319,22.4-22.319,15.1,0,20.5,8.546,20.5,18.171,0,12.032-9.127,22.072-18.753,28.129h19v14.851h-42.9Z" transform="translate(-323.396 -146.26)" fill="#fff"/>
        <path id="Trazado_120383" data-name="Trazado 120383" d="M382.024,191.746l-8.962,15.267H352.069L371.4,176.727l-20.164-28.46h21.822l10.373,14.687,8.63-14.687h20.992l-19,29.7,20.578,29.042H392.809Z" transform="translate(-306.351 -145.031)" fill="#fff"/>
        <path id="Trazado_120384" data-name="Trazado 120384" d="M399.871,164.341h-8.8V147.083H419.2v60.655H399.871Z" transform="translate(-281.964 -145.756)" fill="#fff"/>
      </g>
    </g>
    <rect id="Rectángulo_7316" data-name="Rectángulo 7316" width="235.018" height="34.675" transform="translate(1151.841 1154.398)" fill="#fcbc00"/>
    <g id="Grupo_60146" data-name="Grupo 60146" transform="translate(1168.051 1164.043)">
      <path id="Trazado_120388" data-name="Trazado 120388" d="M312.041,216.758a7.029,7.029,0,1,1,7.019-7.037A6.913,6.913,0,0,1,312.041,216.758Zm0-4c1.722,0,2.67-1.219,2.67-3.036,0-1.857-.948-3.057-2.67-3.057-1.757,0-2.687,1.2-2.687,3.057C309.354,211.538,310.284,212.757,312.041,212.757Z" transform="translate(-304.983 -202.7)" fill="#336e1d"/>
      <path id="Trazado_120389" data-name="Trazado 120389" d="M316.112,202.845h9.668v3.4H320.4v1.9h3.869v3.229H320.4v5.162h-4.292Z" transform="translate(-298.17 -202.611)" fill="#336e1d"/>
      <path id="Trazado_120390" data-name="Trazado 120390" d="M333.573,206.268h-4.835v1.681h4.255v3.229h-4.255v1.933h4.835v3.423h-9.126V202.845h9.126Z" transform="translate(-293.068 -202.611)" fill="#336e1d"/>
      <path id="Trazado_120391" data-name="Trazado 120391" d="M338.933,202.845c3.442,0,5.2,1.972,5.2,4.485a4.032,4.032,0,0,1-2.958,3.964l2.978,5.24h-4.719l-2.57-4.911h-.021v4.911h-4.292V202.845Zm-.387,3.6h-1.7v2.322h1.7c.811,0,1.237-.348,1.237-1.161A1.1,1.1,0,0,0,338.546,206.44Z" transform="translate(-288.106 -202.611)" fill="#336e1d"/>
      <path id="Trazado_120392" data-name="Trazado 120392" d="M341.546,202.845h11.522v3.4h-3.634v10.287h-4.293V206.247h-3.6Z" transform="translate(-282.6 -202.611)" fill="#336e1d"/>
      <path id="Trazado_120393" data-name="Trazado 120393" d="M360,214.466h-4.564l-.675,2.068h-4.506l5.007-13.689h4.951l4.987,13.689h-4.522Zm-2.281-7.037-1.238,3.808h2.475Z" transform="translate(-277.27 -202.611)" fill="#336e1d"/>
      <path id="Trazado_120394" data-name="Trazado 120394" d="M374.164,206.268H369.33v1.681h4.253v3.229H369.33v1.933h4.833v3.423h-9.127V202.845h9.127Z" transform="translate(-268.219 -202.611)" fill="#336e1d"/>
      <path id="Trazado_120395" data-name="Trazado 120395" d="M378.661,216.758c-3.134,0-5.588-1.449-5.781-4.525h4.563c.077,1.006.619,1.18,1.043,1.18s.833-.192.833-.677c-.021-1.857-6.479-1.18-6.4-5.859,0-2.746,2.321-4.177,5.241-4.177,3.307,0,5.433,1.588,5.549,4.429h-4.622c-.037-.83-.482-1.083-.946-1.083a.614.614,0,0,0-.619.7c0,1.72,6.362,1.432,6.362,5.646C383.882,214.9,381.968,216.758,378.661,216.758Z" transform="translate(-263.418 -202.7)" fill="#336e1d"/>
      <path id="Trazado_120396" data-name="Trazado 120396" d="M388.071,212.184h-1.7v4.35h-4.292V202.845h5.994c3.442,0,5.2,1.933,5.2,4.7C393.272,210.076,391.513,212.184,388.071,212.184Zm-.484-3.386c.967,0,1.335-.5,1.335-1.256s-.368-1.258-1.335-1.258h-1.219V208.8Z" transform="translate(-257.788 -202.611)" fill="#336e1d"/>
      <path id="Trazado_120397" data-name="Trazado 120397" d="M400.426,206.268h-4.833v1.681h4.253v3.229h-4.253v1.933h4.833v3.423H391.3V202.845h9.127Z" transform="translate(-252.142 -202.611)" fill="#336e1d"/>
      <path id="Trazado_120398" data-name="Trazado 120398" d="M405.932,202.761a6.325,6.325,0,0,1,6.633,5.393h-4.524a2.331,2.331,0,0,0-2.186-1.428c-1.449,0-2.339,1.178-2.339,3s.89,3,2.339,3a2.334,2.334,0,0,0,2.186-1.432h4.524a6.325,6.325,0,0,1-6.633,5.394c-4.195,0-6.768-2.883-6.768-6.961S401.737,202.761,405.932,202.761Z" transform="translate(-247.327 -202.663)" fill="#336e1d"/>
      <path id="Trazado_120399" data-name="Trazado 120399" d="M409.873,202.845h4.293v13.689h-4.293Z" transform="translate(-240.771 -202.611)" fill="#336e1d"/>
      <path id="Trazado_120400" data-name="Trazado 120400" d="M424.319,214.466h-4.564l-.675,2.068h-4.506l5.009-13.689h4.949l4.988,13.689H425Zm-2.281-7.037-1.237,3.808h2.475Z" transform="translate(-237.894 -202.611)" fill="#336e1d"/>
      <path id="Trazado_120401" data-name="Trazado 120401" d="M430.174,202.845v10.44h4.138v3.249h-8.43V202.845Z" transform="translate(-230.971 -202.611)" fill="#336e1d"/>
    </g>
  </g>
</svg>
