<svg xmlns="http://www.w3.org/2000/svg" width="387" height="238" viewBox="0 0 387 238">
  <g id="Grupo_60375" data-name="Grupo 60375" transform="translate(-193 -1108)">
    <g id="Grupo_60087" data-name="Grupo 60087" transform="translate(-944.453 664.526)">
      <g id="Grupo_60064" data-name="Grupo 60064" transform="translate(1157.453 474.194)">
        <g id="Grupo_60063" data-name="Grupo 60063">
          <path id="Trazado_120129" data-name="Trazado 120129" d="M1252.714,605.96h-27.1a26.6,26.6,0,0,0-26.521,26.521h0A26.6,26.6,0,0,0,1225.611,659H1454.78a43.07,43.07,0,0,0,42.945-42.944h0a43.071,43.071,0,0,0-42.945-42.945h0a18.211,18.211,0,0,1-18.158-18.158h0a18.212,18.212,0,0,1,18.158-18.158h21.854a18.934,18.934,0,0,0,18.878-18.878h0a18.934,18.934,0,0,0-18.878-18.878H1449a7.372,7.372,0,0,1-7.35-7.35h0a7.371,7.371,0,0,1,7.35-7.35h4.872a5.087,5.087,0,0,0,5.072-5.072h0a5.087,5.087,0,0,0-5.072-5.073h-31.965c-6.732,0-7.482,7.953-24.486,7.953h-49a6.639,6.639,0,0,0-6.619,6.619h0a6.639,6.639,0,0,0,6.619,6.619h6.356a9.619,9.619,0,0,1,9.591,9.59h0a9.619,9.619,0,0,1-9.591,9.591h-9.565c-25.832,0-29.481,6.75-34,20.177s-28.022,14.509-28.022,14.509h-32.129a14.5,14.5,0,0,0-14.452,14.453h0a14.5,14.5,0,0,0,14.452,14.453h1.655a13.942,13.942,0,0,1,13.9,13.9h0a13.942,13.942,0,0,1-13.9,13.9Zm215.392-121.621a5.073,5.073,0,1,1,5.073-5.072A5.073,5.073,0,0,1,1468.106,484.339Z" transform="translate(-1178.242 -474.194)" fill="rgba(255,255,255,0.35)" fill-rule="evenodd"/>
          <g id="Grupo_60059" data-name="Grupo 60059" transform="translate(32.526)">
            <path id="Trazado_120130" data-name="Trazado 120130" d="M1310.745,733.85h2.322v-14.1l8.8,8.8-5.3,5.3h2.188l4.2-4.2,4.2,4.2h2.189l-5.3-5.3,8.8-8.8v14.1h2.322V624.1h-2.322v2.673l-2.674-2.673H1328l4.862,4.862v.134l-9.9,9.9-9.9-9.9v-.134l4.861-4.862h-2.188l-2.673,2.673V624.1h-2.322V653.2a13.748,13.748,0,0,1,2.322.6V653.4l.638.638a14.032,14.032,0,0,1,7.625,7.626l.539.539-.244.244a13.594,13.594,0,0,1,.465,1.723l.873-.873,9.9,9.9v.133l-9.9,9.9-5.634-5.634a14.047,14.047,0,0,1-1.257.932l5.8,5.8-8.8,8.8v-13.1a13.839,13.839,0,0,1-2.322.6V733.85Zm2.322-18.611V697.633l8.8,8.8-8.8,8.8Zm0-66.348V631.285l8.8,8.8-8.8,8.8Zm19.794-17.606v17.606l-8.8-8.8,8.8-8.8Zm0,22.117v17.606l-8.8-8.8,8.8-8.8Zm0,22.116v17.606l-8.8-8.8,8.8-8.8Zm0,22.116v17.606l-8.8-8.8,8.8-8.8Zm-19.794-46.554,9.9-9.9,9.9,9.9v.133l-9.9,9.9-9.9-9.9v-.133Zm0,44.232,9.9-9.9,9.9,9.9v.133l-9.9,9.9-9.9-9.9v-.133Zm0,22.116,9.9-9.9,9.9,9.9v.133l-9.9,9.9-9.9-9.9Z" transform="translate(-1266.517 -549.043)" fill="rgba(255,255,255,0.35)" fill-rule="evenodd"/>
            <path id="Trazado_120131" data-name="Trazado 120131" d="M1635.063,659h2.321V644.9l8.8,8.8-5.3,5.3h2.189l4.2-4.2,4.2,4.2h2.188l-5.3-5.3,8.8-8.8V659h2.322V567.638a18.37,18.37,0,0,1-2.322-2.909v9.313l-8.8-8.8,6.359-6.359a17.942,17.942,0,0,1-.314-1.875l-7.14,7.14-9.9-9.9v-.134l9.9-9.9,7.343,7.343q.173-.9.429-1.76l-6.678-6.678,8.8-8.8v10.858a18.345,18.345,0,0,1,2.322-2.909V493.254a7.34,7.34,0,0,1-.17-1.565h0a7.336,7.336,0,0,1,.17-1.565v-15.93h-2.322v11.383l-8.8-8.8,2.58-2.58h-2.188l-1.486,1.486-1.486-1.486h-2.189l2.58,2.58-8.8,8.8V474.511a9.94,9.94,0,0,0-2.321,1.074V659Zm2.321-18.611V622.785l8.8,8.8-8.8,8.8Zm0-22.116V600.669l8.8,8.8-8.8,8.8Zm0-22.116V578.553l8.8,8.8-8.8,8.8Zm0-22.116V556.436l8.8,8.8-8.8,8.8Zm0-22.116V534.32l8.8,8.8-8.8,8.8Zm0-22.116V512.2l8.8,8.8-8.8,8.8Zm0-22.116V490.088l8.8,8.8-8.8,8.8Zm19.795-17.606v17.606l-8.8-8.8,8.8-8.8Zm0,22.116v17.605l-8.8-8.8,8.8-8.8Zm0,66.349v17.606l-8.8-8.8,8.8-8.8Zm0,22.116v17.606l-8.8-8.8,8.8-8.8Zm0,22.116v17.606l-8.8-8.8,8.8-8.8Zm-19.795-135.019,9.9-9.9,9.9,9.9v.133l-9.9,9.9-9.9-9.9v-.133Zm0,22.116,9.9-9.9,9.9,9.9v.133l-9.9,9.9-9.9-9.9v-.133Zm0,22.116,9.9-9.9,9.9,9.9v.133l-9.9,9.9-9.9-9.9V532Zm0,44.232,9.9-9.9,9.9,9.9v.133l-9.9,9.9-9.9-9.9v-.133Zm0,22.116,9.9-9.9,9.9,9.9v.133l-9.9,9.9-9.9-9.9v-.133Zm0,22.116,9.9-9.9,9.9,9.9v.133l-9.9,9.9-9.9-9.9v-.133Zm0,22.116,9.9-9.9,9.9,9.9v.133l-9.9,9.9-9.9-9.9Z" transform="translate(-1428.449 -474.194)" fill="rgba(255,255,255,0.35)" fill-rule="evenodd"/>
            <path id="Trazado_120132" data-name="Trazado 120132" d="M1258.422,681.458H1255v4.194l-4.194-4.194h-3.225l7.419,7.419v.2l-14.583,14.583-14.583-14.583v-.2l7.055-7.055a26.175,26.175,0,0,0-4.34,1.115l-2.716,2.715v-1.592a26.536,26.536,0,0,0-3.421,1.972v43.893a26.573,26.573,0,0,0,3.421,1.972v-7.011l9.546,9.546q.931.066,1.877.067h1.417l-12.839-12.838v-.2l14.583-14.583L1255,721.465v.2L1242.161,734.5h3.225l9.614-9.613V734.5h3.421V681.458Zm0-56.055a14.571,14.571,0,0,0-8.139,6.438l4.718-4.718v24.292a14.428,14.428,0,0,0,3.421,1.589V625.4Zm-32.588,92.838V692.3l12.971,12.971-12.971,12.971ZM1255,692.3v25.942l-12.971-12.971Z" transform="translate(-1222.413 -549.693)" fill="rgba(255,255,255,0.35)" fill-rule="evenodd"/>
            <path id="Trazado_120133" data-name="Trazado 120133" d="M1700.285,659h3.422v-9.613l8.933,8.933c.894-.162,1.779-.354,2.654-.571l-11.587-11.587v-.2l14.583-14.583,14.583,14.583v.2l-7.879,7.879a43.363,43.363,0,0,0,11.3-8.626V586.7a43.558,43.558,0,0,0-4.762-4.369l-13.242,13.242-14.583-14.583v-.2l7.263-7.264q-1.444-.2-2.917-.307l-4.346,4.346v-4.5a18.031,18.031,0,0,1-3.422-.585V659Zm0-121.573a18.08,18.08,0,0,1,3.422-.585V519.038l12.971,12.971-4.787,4.787h3.224l3.175-3.175,3.174,3.175h3.226l-4.787-4.787,12.97-12.971v16.777a18.789,18.789,0,0,0,3.422-1.551V501.571a18.819,18.819,0,0,0-3.422-1.551v12.371l-12.97-12.97.382-.382h-3.99l.383.382-12.971,12.97V499.039h-3.422v38.39Zm0-53.09h3.833a5.13,5.13,0,0,0,.66-.043l-1.071-1.072v-.2l5.257-5.257a5.088,5.088,0,0,0-1.2-2.023l-4.055,4.056v-5.61h-3.422v10.145Zm3.422,158.4V616.8l12.971,12.971-12.971,12.971Zm0-32.588V584.213l12.971,12.971-12.971,12.971Zm29.166-25.941v25.941l-12.97-12.971,12.97-12.971Zm0,32.588v25.942l-12.97-12.971,12.97-12.971Zm-29.166-101.185,14.583-14.583,14.583,14.583v.2L1718.29,530.4l-14.583-14.583v-.2Zm0,97.763L1718.29,598.8l14.583,14.583v.2l-14.583,14.583-14.583-14.583Z" transform="translate(-1461.014 -474.194)" fill="rgba(255,255,255,0.35)" fill-rule="evenodd"/>
          </g>
          <g id="Grupo_60062" data-name="Grupo 60062" transform="translate(58.386 142.595)">
            <g id="Grupo_60060" data-name="Grupo 60060" transform="translate(3.409)">
              <rect id="Rectángulo_7268" data-name="Rectángulo 7268" width="26.762" height="19.887" rx="3.432" fill="rgba(255,255,255,0.35)"/>
              <rect id="Rectángulo_7269" data-name="Rectángulo 7269" width="26.762" height="19.887" rx="3.432" transform="translate(15.304)" fill="rgba(255,255,255,0.35)"/>
              <path id="Rectángulo_7270" data-name="Rectángulo 7270" d="M1.961,0H17.272a1.96,1.96,0,0,1,1.96,1.96V4.79a1.961,1.961,0,0,1-1.961,1.961H1.961A1.961,1.961,0,0,1,0,4.79V1.961A1.961,1.961,0,0,1,1.961,0Z" transform="translate(19.069 6.568)" fill="rgba(255,255,255,0.35)"/>
              <path id="Rectángulo_7271" data-name="Rectángulo 7271" d="M.428,0H8.493A.428.428,0,0,1,8.92.428v.618a.427.427,0,0,1-.427.427H.427A.427.427,0,0,1,0,1.046V.428A.428.428,0,0,1,.428,0Z" transform="translate(21.074 7.713)" fill="rgba(255,255,255,0.35)"/>
              <path id="Rectángulo_7272" data-name="Rectángulo 7272" d="M.427,0H4.2a.428.428,0,0,1,.428.428v.617a.428.428,0,0,1-.428.428H.427A.427.427,0,0,1,0,1.045V.427A.427.427,0,0,1,.427,0Z" transform="translate(21.074 10.046)" fill="rgba(255,255,255,0.35)"/>
            </g>
            <g id="Grupo_60061" data-name="Grupo 60061" transform="translate(0 19.887)">
              <path id="Rectángulo_7273" data-name="Rectángulo 7273" d="M4.113,0H27.956A4.114,4.114,0,0,1,32.07,4.114v15.6a4.114,4.114,0,0,1-4.114,4.114H4.113A4.113,4.113,0,0,1,0,19.719V4.113A4.113,4.113,0,0,1,4.113,0Z" transform="translate(18.339)" fill="rgba(255,255,255,0.35)"/>
              <path id="Rectángulo_7274" data-name="Rectángulo 7274" d="M4.113,0H27.956A4.113,4.113,0,0,1,32.07,4.113v15.6a4.114,4.114,0,0,1-4.114,4.114H4.113A4.113,4.113,0,0,1,0,19.719V4.113A4.113,4.113,0,0,1,4.113,0Z" fill="rgba(255,255,255,0.35)"/>
              <rect id="Rectángulo_7275" data-name="Rectángulo 7275" width="23.046" height="8.089" rx="2.349" transform="translate(4.511 7.871)" fill="rgba(255,255,255,0.35)"/>
              <rect id="Rectángulo_7276" data-name="Rectángulo 7276" width="10.689" height="1.766" rx="0.513" transform="translate(14.466 9.243)" fill="rgba(255,255,255,0.35)"/>
              <rect id="Rectángulo_7277" data-name="Rectángulo 7277" width="5.54" height="1.766" rx="0.513" transform="translate(19.615 12.039)" fill="rgba(255,255,255,0.35)"/>
            </g>
          </g>
          <path id="Trazado_120134" data-name="Trazado 120134" d="M1558.943,572.8a7.523,7.523,0,1,1-1.637,2.449,7.543,7.543,0,0,1,1.637-2.449Zm2.714-.992a6.879,6.879,0,1,0,2.616-.517,6.842,6.842,0,0,0-2.616.517Zm-.833-5.547a12.313,12.313,0,0,0-2.724,1.162,12.271,12.271,0,0,0-1.257.833,12.423,12.423,0,0,0-1.148.979.788.788,0,0,1-.943.115c-1.107-.639-2.271-1.272-3.355-1.938a.457.457,0,0,0-.163-.05.5.5,0,0,0-.185.014.486.486,0,0,0-.17.083.475.475,0,0,0-.122.139c-.807,1.221-1.617,2.8-2.364,4.094a.469.469,0,0,0-.059.174.494.494,0,0,0,.014.19.48.48,0,0,0,.083.17.464.464,0,0,0,.139.122c1,.658,2.279,1.317,3.334,1.927a.782.782,0,0,1,.333.373.821.821,0,0,1,.05.164l.069.023-.077.311c-.061.245-.113.49-.158.733s-.081.485-.113.744-.054.5-.068.75-.022.495-.022.758.007.516.022.758.038.5.068.751.07.506.113.744.1.488.158.733a.787.787,0,0,1-.406.891l-2.954,1.7h0l-.35.2a.466.466,0,0,0-.139.122.491.491,0,0,0-.082.17.5.5,0,0,0-.014.191.47.47,0,0,0,.059.173l2.186,3.788h0l.177.306a.478.478,0,0,0,.122.139.5.5,0,0,0,.359.1.465.465,0,0,0,.173-.059c1.057-.664,2.251-1.3,3.342-1.929a.789.789,0,0,1,.94.113l0,0a12.473,12.473,0,0,0,2.4,1.813,12.274,12.274,0,0,0,2.757,1.171.79.79,0,0,1,.414.283.8.8,0,0,1,.159.477v3.853a.467.467,0,0,0,.036.181.491.491,0,0,0,.105.155.469.469,0,0,0,.337.141h4.729a.458.458,0,0,0,.181-.036.483.483,0,0,0,.156-.1.514.514,0,0,0,.1-.156.476.476,0,0,0,.035-.181v-3.853a.8.8,0,0,1,.608-.77,12.014,12.014,0,0,0,1.389-.5,12.307,12.307,0,0,0,2.591-1.5,12.545,12.545,0,0,0,1.149-.98.792.792,0,0,1,.982-.09l3.3,1.9a.455.455,0,0,0,.175.059.5.5,0,0,0,.359-.1.483.483,0,0,0,.122-.139c.783-1.367,1.579-2.728,2.364-4.094a.47.47,0,0,0,.059-.175.509.509,0,0,0-.1-.36.45.45,0,0,0-.136-.122l-3.338-1.927a.782.782,0,0,1-.333-.373.808.808,0,0,1-.042-.127l-.087-.018.087-.354c.061-.244.114-.489.159-.733s.081-.485.113-.744.054-.5.069-.751.022-.494.022-.758-.008-.515-.022-.757-.038-.5-.069-.749-.07-.511-.113-.747-.1-.487-.159-.732a.788.788,0,0,1,.406-.89l3.306-1.908a.452.452,0,0,0,.137-.122.476.476,0,0,0,.082-.17.489.489,0,0,0,.014-.189.467.467,0,0,0-.059-.175c-.807-1.2-1.615-2.8-2.364-4.094a.48.48,0,0,0-.122-.139.5.5,0,0,0-.359-.1.45.45,0,0,0-.174.06l-3.34,1.927a.78.78,0,0,1-.5.1.793.793,0,0,1-.451-.223,12.365,12.365,0,0,0-2.4-1.8,12.159,12.159,0,0,0-1.343-.67,12.315,12.315,0,0,0-1.413-.5.788.788,0,0,1-.574-.76v-3.854a.461.461,0,0,0-.141-.336.465.465,0,0,0-.336-.141h-4.729a.472.472,0,0,0-.182.036.487.487,0,0,0-.156.105.479.479,0,0,0-.14.336v3.854a.788.788,0,0,1-.17.489.8.8,0,0,1-.438.28Zm-1.662-.146a12.913,12.913,0,0,0-1.41.7,13.083,13.083,0,0,0-1.329.879,13.22,13.22,0,0,0-1.211,1.034.093.093,0,0,1-.053.025.094.094,0,0,1-.057-.011c-1.123-.648-2.247-1.294-3.368-1.945a1.165,1.165,0,0,0-.421-.133,1.188,1.188,0,0,0-.855.236,1.149,1.149,0,0,0-.3.344c-.814,1.318-1.587,2.745-2.365,4.093a1.167,1.167,0,0,0-.146.435,1.181,1.181,0,0,0,.233.871,1.153,1.153,0,0,0,.344.3c1.073.663,2.239,1.293,3.336,1.927a.091.091,0,0,1,.038.044.092.092,0,0,1,.006.059l-.077.312h0q-.05.227-.093.461-.074.4-.121.788t-.072.791c-.016.272-.024.539-.024.8s.009.526.024.8.041.536.072.792.072.52.121.787.1.524.166.775a.086.086,0,0,1-.006.061.094.094,0,0,1-.041.045c-1.226.655-2.471,1.425-3.684,2.126l.043.054-.038.046a1.185,1.185,0,0,0-.233.871,1.15,1.15,0,0,0,.147.435l2.541,4.4.047-.028c.025.023.052.045.079.065a1.184,1.184,0,0,0,1.293.094c1.111-.59,2.256-1.3,3.353-1.936a.09.09,0,0,1,.056-.009.1.1,0,0,1,.055.025,13.033,13.033,0,0,0,5.453,3.151.093.093,0,0,1,.049.033.086.086,0,0,1,.019.057v3.853a1.172,1.172,0,0,0,.09.449,1.184,1.184,0,0,0,.637.637,1.16,1.16,0,0,0,.448.09h4.729a1.165,1.165,0,0,0,.448-.09,1.177,1.177,0,0,0,.637-.637,1.176,1.176,0,0,0,.09-.449v-3.853a.092.092,0,0,1,.019-.059.093.093,0,0,1,.052-.032l.015-.006a12.83,12.83,0,0,0,1.486-.528,12.991,12.991,0,0,0,1.411-.7,13.122,13.122,0,0,0,2.539-1.914.091.091,0,0,1,.055-.026.1.1,0,0,1,.06.016l3.337,1.926a1.144,1.144,0,0,0,.434.146,1.178,1.178,0,0,0,.87-.233,1.17,1.17,0,0,0,.3-.333c.877-1.41,1.7-2.955,2.541-4.4l-.045-.027a.931.931,0,0,0,.02-.111,1.186,1.186,0,0,0-.03-.457,1.169,1.169,0,0,0-.2-.413,1.156,1.156,0,0,0-.343-.3l-3.338-1.927a.091.091,0,0,1-.038-.044.1.1,0,0,1-.005-.061l.086-.352h0c.03-.137.058-.277.084-.419q.074-.4.121-.788t.072-.792q.025-.409.025-.8t-.025-.8q-.024-.407-.072-.794t-.121-.787q-.073-.4-.166-.772a.1.1,0,0,1,.006-.062.093.093,0,0,1,.042-.043l3.333-1.925a1.136,1.136,0,0,0,.343-.3,1.182,1.182,0,0,0,.093-1.294c-.795-1.471-1.706-2.955-2.546-4.411l-.048.028c-.025-.023-.052-.045-.078-.066a1.185,1.185,0,0,0-.87-.233,1.159,1.159,0,0,0-.434.144l-.247.142v0l-3.1,1.787a.094.094,0,0,1-.06.012.088.088,0,0,1-.053-.027l-.008-.008a13.229,13.229,0,0,0-1.209-1.029,13,13,0,0,0-4.236-2.114.091.091,0,0,1-.048-.033.084.084,0,0,1-.019-.057v-3.854a1.179,1.179,0,0,0-1.176-1.175h-4.729a1.161,1.161,0,0,0-.448.09,1.2,1.2,0,0,0-.382.255,1.174,1.174,0,0,0-.346.83v3.854a.1.1,0,0,1-.019.059.093.093,0,0,1-.052.031l-.015.005A13.042,13.042,0,0,0,1559.161,566.116Z" transform="translate(-1352.27 -517.269)" fill="rgba(255,255,255,0.35)" fill-rule="evenodd"/>
          <path id="Trazado_120135" data-name="Trazado 120135" d="M1168.762,648.284a7.529,7.529,0,1,1-1.636,2.449,7.563,7.563,0,0,1,1.636-2.449Zm2.713-.992a6.879,6.879,0,1,0,2.617-.517,6.844,6.844,0,0,0-2.617.517Zm-.833-5.547a12.4,12.4,0,0,0-5.129,2.975.783.783,0,0,1-.451.215.793.793,0,0,1-.492-.1c-1.106-.639-2.271-1.272-3.355-1.938a.46.46,0,0,0-.163-.05.5.5,0,0,0-.185.014.494.494,0,0,0-.17.083.47.47,0,0,0-.122.139c-.807,1.221-1.617,2.8-2.364,4.093a.47.47,0,0,0-.059.174.508.508,0,0,0,.015.191.477.477,0,0,0,.083.169.471.471,0,0,0,.139.122c1,.658,2.279,1.317,3.335,1.927a.784.784,0,0,1,.382.538l.068.023-.077.311q-.09.367-.158.733c-.043.237-.081.485-.112.744s-.054.5-.069.75-.022.494-.022.758.008.516.022.757.039.5.069.751.069.506.113.744.1.489.158.733a.788.788,0,0,1-.407.891l-2.953,1.7h0l-.35.2a.474.474,0,0,0-.14.122.48.48,0,0,0-.082.17.506.506,0,0,0-.015.191.467.467,0,0,0,.059.174l2.187,3.788h0l.177.306a.475.475,0,0,0,.122.139.487.487,0,0,0,.17.083.5.5,0,0,0,.19.014.47.47,0,0,0,.173-.059c1.058-.665,2.251-1.3,3.343-1.929a.788.788,0,0,1,.939.113h0a12.492,12.492,0,0,0,2.405,1.813,12.22,12.22,0,0,0,2.757,1.171.79.79,0,0,1,.573.761l0,3.853a.469.469,0,0,0,.036.181.5.5,0,0,0,.261.261.477.477,0,0,0,.181.035h4.729a.481.481,0,0,0,.181-.035.508.508,0,0,0,.156-.1.516.516,0,0,0,.1-.156.47.47,0,0,0,.036-.181v-3.853a.8.8,0,0,1,.608-.77,12.238,12.238,0,0,0,2.724-1.162,12.472,12.472,0,0,0,2.405-1.813.792.792,0,0,1,.982-.09l3.3,1.9a.466.466,0,0,0,.174.059.5.5,0,0,0,.19-.014.484.484,0,0,0,.17-.083.478.478,0,0,0,.122-.139c.784-1.367,1.58-2.727,2.364-4.094a.471.471,0,0,0,.059-.174.491.491,0,0,0-.015-.189.472.472,0,0,0-.082-.17.441.441,0,0,0-.136-.122l-3.338-1.927a.781.781,0,0,1-.332-.373.714.714,0,0,1-.042-.127l-.087-.018.088-.354c.06-.244.113-.49.158-.733s.081-.485.113-.744.054-.5.069-.751.022-.494.022-.758-.008-.516-.022-.758-.038-.5-.069-.75-.07-.511-.113-.746-.1-.487-.158-.732a.785.785,0,0,1,.05-.522.793.793,0,0,1,.355-.368l3.305-1.909a.448.448,0,0,0,.138-.122.476.476,0,0,0,.082-.17.494.494,0,0,0,.015-.19.477.477,0,0,0-.059-.174c-.807-1.2-1.615-2.8-2.364-4.094a.478.478,0,0,0-.122-.139.491.491,0,0,0-.17-.083.5.5,0,0,0-.19-.014.47.47,0,0,0-.175.06l-3.339,1.927a.777.777,0,0,1-.5.1.791.791,0,0,1-.451-.222,12.3,12.3,0,0,0-2.4-1.8,12.222,12.222,0,0,0-2.757-1.171.79.79,0,0,1-.573-.76v-3.854a.465.465,0,0,0-.036-.181.476.476,0,0,0-.442-.3h-4.729a.477.477,0,0,0-.181.036.5.5,0,0,0-.156.1.483.483,0,0,0-.14.337v3.854a.791.791,0,0,1-.608.769Zm-1.662-.146a13.065,13.065,0,0,0-3.949,2.619.09.09,0,0,1-.052.024.1.1,0,0,1-.058-.011q-1.684-.972-3.368-1.945a1.156,1.156,0,0,0-.422-.133,1.194,1.194,0,0,0-.855.236,1.158,1.158,0,0,0-.3.344c-.814,1.318-1.586,2.745-2.365,4.093a1.159,1.159,0,0,0-.146.436,1.184,1.184,0,0,0,.233.871,1.157,1.157,0,0,0,.344.3c1.073.663,2.239,1.293,3.337,1.927a.09.09,0,0,1,.037.044.1.1,0,0,1,.006.059l-.077.311,0,0c-.033.151-.064.3-.093.461q-.074.4-.121.787t-.072.791c-.016.272-.025.539-.025.8s.009.526.025.8.041.536.072.792.072.52.121.787.105.523.167.774a.1.1,0,0,1-.048.105c-1.226.655-2.471,1.425-3.684,2.126l.044.054-.037.047a1.182,1.182,0,0,0-.233.87,1.149,1.149,0,0,0,.147.435l2.541,4.4.047-.029c.026.023.052.045.078.066a1.19,1.19,0,0,0,.412.2,1.184,1.184,0,0,0,.881-.109c1.111-.59,2.255-1.3,3.353-1.936a.1.1,0,0,1,.056-.01.094.094,0,0,1,.054.025,13.063,13.063,0,0,0,3.957,2.622,13.013,13.013,0,0,0,1.5.53.094.094,0,0,1,.049.033.087.087,0,0,1,.018.057v3.853a1.174,1.174,0,0,0,.347.831,1.188,1.188,0,0,0,.38.255,1.166,1.166,0,0,0,.449.09h4.729a1.163,1.163,0,0,0,.448-.09,1.211,1.211,0,0,0,.382-.255,1.181,1.181,0,0,0,.255-.382,1.163,1.163,0,0,0,.09-.449v-3.853a.093.093,0,0,1,.019-.058.1.1,0,0,1,.052-.033l.015-.005a13.016,13.016,0,0,0,4.224-2.112,13.1,13.1,0,0,0,1.212-1.035.094.094,0,0,1,.055-.026.1.1,0,0,1,.06.015l3.337,1.927a1.168,1.168,0,0,0,.433.146,1.2,1.2,0,0,0,.458-.031,1.175,1.175,0,0,0,.709-.536c.877-1.41,1.7-2.954,2.541-4.4l-.044-.027c.008-.037.015-.074.02-.112a1.192,1.192,0,0,0-.031-.457,1.172,1.172,0,0,0-.2-.412,1.146,1.146,0,0,0-.343-.3l-3.338-1.927a.091.091,0,0,1-.038-.044.1.1,0,0,1-.005-.06l.087-.352,0,0c.03-.138.058-.277.084-.419.049-.266.09-.53.121-.788s.055-.52.072-.792.024-.539.024-.8-.008-.526-.024-.8-.04-.536-.072-.794-.071-.518-.121-.787-.1-.522-.166-.772a.1.1,0,0,1,.006-.062.093.093,0,0,1,.043-.044l3.334-1.924a1.143,1.143,0,0,0,.342-.3,1.182,1.182,0,0,0,.233-.869,1.171,1.171,0,0,0-.141-.425c-.795-1.472-1.705-2.956-2.546-4.411l-.047.029a1,1,0,0,0-.079-.066,1.173,1.173,0,0,0-.412-.2,1.187,1.187,0,0,0-.457-.031,1.152,1.152,0,0,0-.434.144l-.247.142v0l-3.1,1.786a.1.1,0,0,1-.059.012.09.09,0,0,1-.053-.026l-.008-.008a13.009,13.009,0,0,0-5.444-3.144.091.091,0,0,1-.049-.033.084.084,0,0,1-.019-.056v-3.854a1.173,1.173,0,0,0-.347-.83,1.188,1.188,0,0,0-.381-.255,1.171,1.171,0,0,0-.448-.09h-4.729a1.174,1.174,0,0,0-.449.09,1.212,1.212,0,0,0-.382.255,1.175,1.175,0,0,0-.345.83v3.854a.1.1,0,0,1-.019.059.089.089,0,0,1-.052.032l-.015.005A13.027,13.027,0,0,0,1168.98,641.6Z" transform="translate(-1157.452 -554.957)" fill="rgba(255,255,255,0.35)" fill-rule="evenodd"/>
          <path id="Trazado_120136" data-name="Trazado 120136" d="M1235.317,693.318Zm1.663-6.333a3.2,3.2,0,1,1-.937,2.263,3.191,3.191,0,0,1,.937-2.263Zm.692-3.171a5.616,5.616,0,0,0-1.254.534,5.681,5.681,0,0,0-1.1.829.2.2,0,0,1-.234.029l-1.487-.858-.008-.006a.372.372,0,0,0-.5.14l-.006.011-1.046,1.811a.372.372,0,0,0,.135.5l.01.006,1.474.851a.2.2,0,0,1,.093.217h0a5.7,5.7,0,0,0,0,2.731.2.2,0,0,1-.1.223l-1.474.851h0a.372.372,0,0,0-.135.5l1.052,1.822h0a.372.372,0,0,0,.5.135l.012-.006,1.476-.853a.2.2,0,0,1,.234.029,5.693,5.693,0,0,0,1.1.829,5.621,5.621,0,0,0,1.262.536.2.2,0,0,1,.143.189v1.715a.37.37,0,0,0,.368.369h2.1a.37.37,0,0,0,.368-.369v-1.715a.2.2,0,0,1,.151-.191,5.637,5.637,0,0,0,1.254-.534,5.7,5.7,0,0,0,1.1-.829.2.2,0,0,1,.244-.023l1.477.852a.371.371,0,0,0,.5-.135l.007-.011,1.046-1.813h0a.372.372,0,0,0-.135-.5l-1.486-.858a.2.2,0,0,1-.093-.216h0a5.686,5.686,0,0,0,.124-.676,5.726,5.726,0,0,0,0-1.378,5.68,5.68,0,0,0-.124-.676.2.2,0,0,1,.1-.223l1.475-.851a.372.372,0,0,0,.135-.5l-.006-.011-1.046-1.812h0a.371.371,0,0,0-.5-.135h0l-1.487.858a.2.2,0,0,1-.239-.033,5.707,5.707,0,0,0-1.1-.825,5.6,5.6,0,0,0-1.262-.536.2.2,0,0,1-.143-.189v-1.715a.368.368,0,0,0-.368-.368h-2.1a.369.369,0,0,0-.368.368v1.715A.2.2,0,0,1,1237.671,683.814Z" transform="translate(-1194.67 -577.722)" fill="rgba(255,255,255,0.35)" fill-rule="evenodd"/>
          <path id="Trazado_120137" data-name="Trazado 120137" d="M1373.113,597.587a.549.549,0,0,0-1.1,0v1.29h-1.29a.549.549,0,1,0,0,1.1h1.29v1.29a.549.549,0,0,0,1.1,0v-1.29h1.29a.549.549,0,0,0,0-1.1h-1.29Z" transform="translate(-1263.665 -535.53)" fill="rgba(255,255,255,0.35)" fill-rule="evenodd"/>
          <path id="Trazado_120138" data-name="Trazado 120138" d="M1440.006,515.148Zm1.663-6.333a3.2,3.2,0,1,1-.937,2.263,3.19,3.19,0,0,1,.937-2.263Zm.692-3.171a5.622,5.622,0,0,0-1.254.534,5.7,5.7,0,0,0-1.1.829.2.2,0,0,1-.234.029l-1.487-.858-.008-.005a.37.37,0,0,0-.495.14l-.006.01-1.046,1.812a.371.371,0,0,0,.135.5l.01.006,1.475.851a.2.2,0,0,1,.092.217h0a5.582,5.582,0,0,0-.124.676,5.731,5.731,0,0,0,0,1.379,5.621,5.621,0,0,0,.124.676.2.2,0,0,1-.1.223l-1.474.851h0a.37.37,0,0,0-.135.5l1.052,1.823h0a.369.369,0,0,0,.5.135l.011-.006,1.477-.853a.2.2,0,0,1,.233.029,5.688,5.688,0,0,0,1.1.829,5.6,5.6,0,0,0,1.262.537.2.2,0,0,1,.143.189v1.715a.369.369,0,0,0,.368.367h2.1a.369.369,0,0,0,.368-.367V516.7a.2.2,0,0,1,.151-.191,5.62,5.62,0,0,0,1.254-.534,5.7,5.7,0,0,0,1.1-.83.2.2,0,0,1,.244-.022l1.477.852a.37.37,0,0,0,.5-.135l.006-.01,1.046-1.812h0a.371.371,0,0,0-.135-.5l-1.485-.858a.2.2,0,0,1-.093-.216h0a5.6,5.6,0,0,0,.124-.676,5.765,5.765,0,0,0,0-1.379,5.582,5.582,0,0,0-.124-.676.2.2,0,0,1,.1-.223l1.474-.851a.372.372,0,0,0,.135-.5l-.006-.012-1.047-1.812h0a.371.371,0,0,0-.5-.135h0l-1.487.858a.2.2,0,0,1-.239-.033,5.684,5.684,0,0,0-1.1-.825,5.6,5.6,0,0,0-1.262-.537.2.2,0,0,1-.143-.189v-1.715a.369.369,0,0,0-.368-.368h-2.1a.369.369,0,0,0-.368.368v1.715A.2.2,0,0,1,1442.361,505.643Z" transform="translate(-1296.871 -488.761)" fill="rgba(255,255,255,0.35)" fill-rule="evenodd"/>
          <path id="Trazado_120139" data-name="Trazado 120139" d="M1799.807,497.467a.549.549,0,1,0-1.1,0v1.29h-1.29a.549.549,0,1,0,0,1.1h1.29v1.29a.549.549,0,1,0,1.1,0v-1.29h1.291a.549.549,0,0,0,0-1.1h-1.291Z" transform="translate(-1476.714 -485.54)" fill="rgba(255,255,255,0.35)" fill-rule="evenodd"/>
          <path id="Trazado_120140" data-name="Trazado 120140" d="M1160.946,783.391a.548.548,0,1,0-1.1,0v1.29h-1.29a.549.549,0,1,0,0,1.1h1.29v1.291a.548.548,0,0,0,1.1,0v-1.291h1.291a.549.549,0,0,0,0-1.1h-1.291Z" transform="translate(-1157.73 -628.302)" fill="rgba(255,255,255,0.35)" fill-rule="evenodd"/>
          <path id="Trazado_120141" data-name="Trazado 120141" d="M1509.964,573.119Zm1.664-6.333a3.2,3.2,0,1,1-.937,2.263,3.192,3.192,0,0,1,.937-2.263Zm.692-3.171a5.6,5.6,0,0,0-1.254.534,5.7,5.7,0,0,0-1.1.829.2.2,0,0,1-.234.029l-1.487-.859-.008-.005a.372.372,0,0,0-.5.14l-.006.011-1.046,1.812a.37.37,0,0,0,.135.5l.01.006,1.475.851a.2.2,0,0,1,.092.217h0a5.611,5.611,0,0,0-.125.676,5.793,5.793,0,0,0,0,1.378,5.6,5.6,0,0,0,.125.676.2.2,0,0,1-.1.223l-1.474.851h0a.37.37,0,0,0-.135.5l1.052,1.822h0a.369.369,0,0,0,.224.171.365.365,0,0,0,.279-.036l.011-.006,1.477-.852a.2.2,0,0,1,.233.028,5.664,5.664,0,0,0,1.1.829,5.573,5.573,0,0,0,1.262.536.2.2,0,0,1,.143.189v1.715a.369.369,0,0,0,.368.368h2.1a.369.369,0,0,0,.368-.368v-1.715a.2.2,0,0,1,.151-.192,5.569,5.569,0,0,0,1.254-.534,5.634,5.634,0,0,0,1.1-.829.2.2,0,0,1,.244-.022l1.477.852a.371.371,0,0,0,.5-.135l.006-.01,1.046-1.813h0a.372.372,0,0,0-.135-.5l-1.486-.858a.2.2,0,0,1-.093-.217h0a5.439,5.439,0,0,0,.124-.676,5.747,5.747,0,0,0,0-1.379,5.458,5.458,0,0,0-.124-.675.2.2,0,0,1,.1-.223l1.474-.851a.372.372,0,0,0,.135-.5l-.006-.01-1.045-1.812h0a.372.372,0,0,0-.5-.135h0l-1.488.859a.2.2,0,0,1-.238-.032,5.656,5.656,0,0,0-1.1-.825,5.59,5.59,0,0,0-1.263-.536.2.2,0,0,1-.142-.189v-1.715a.37.37,0,0,0-.368-.368h-2.1a.369.369,0,0,0-.368.368v1.715A.2.2,0,0,1,1512.319,563.614Z" transform="translate(-1331.802 -517.706)" fill="rgba(255,255,255,0.35)" fill-rule="evenodd"/>
          <path id="Trazado_120142" data-name="Trazado 120142" d="M1470.471,567.988a.549.549,0,1,0-1.1,0v1.29h-1.29a.549.549,0,1,0,0,1.1h1.29v1.29a.549.549,0,0,0,1.1,0v-1.29h1.29a.549.549,0,1,0,0-1.1h-1.29Z" transform="translate(-1312.276 -520.751)" fill="rgba(255,255,255,0.35)" fill-rule="evenodd"/>
          <path id="Trazado_120143" data-name="Trazado 120143" d="M1474.938,689.357a.548.548,0,1,0-1.1,0v1.29h-1.291a.549.549,0,0,0,0,1.1h1.291v1.29a.548.548,0,1,0,1.1,0v-1.29h1.291a.549.549,0,1,0,0-1.1h-1.291Z" transform="translate(-1314.507 -581.351)" fill="rgba(255,255,255,0.35)" fill-rule="evenodd"/>
          <path id="Trazado_120144" data-name="Trazado 120144" d="M1378.885,635a.549.549,0,0,0-1.1,0v1.29h-1.29a.549.549,0,1,0,0,1.1h1.29v1.29a.549.549,0,1,0,1.1,0v-1.29h1.29a.549.549,0,1,0,0-1.1h-1.29Z" transform="translate(-1266.547 -554.211)" fill="rgba(255,255,255,0.35)" fill-rule="evenodd"/>
        </g>
        <path id="Trazado_120145" data-name="Trazado 120145" d="M1743.218,628.516a.549.549,0,0,0-1.1,0v1.29h-1.29a.549.549,0,1,0,0,1.1h1.29v1.29a.549.549,0,0,0,1.1,0V630.9h1.29a.549.549,0,1,0,0-1.1h-1.29Z" transform="translate(-1448.458 -550.973)" fill="#bfcce8" fill-rule="evenodd"/>
      </g>
      <g id="Grupo_60067" data-name="Grupo 60067" transform="translate(1297.67 550.031)">
        <g id="Grupo_60065" data-name="Grupo 60065" transform="translate(0 22.104)">
          <path id="Trazado_120146" data-name="Trazado 120146" d="M1582.577,709.9a14.253,14.253,0,0,1,5.848,4.214c1.458,1.771,19.3,35.952,20.447,38.177s1.143,7.851-1.561,11.313c-1.049,1.344-4.066,5.108-7.363,9.208h-10.689c3.881-5.824,8.949-13.44,9.312-14.053.594-1,.892-1.972-.193-3.665s-15.368-19.107-15.368-19.107S1575.989,716.362,1582.577,709.9Z" transform="translate(-1508.526 -689.824)" fill="#0f1630" stroke="#0e1632" stroke-miterlimit="22.926" stroke-width="0.216" fill-rule="evenodd"/>
          <path id="Trazado_120147" data-name="Trazado 120147" d="M1509.506,704.412s17.991,2.557,18.767,2.749,2.089,2,2.8,3.222,1.539,18.782,1.942,23.7-1.183,26.354-.711,32.112c.078.955.225,2.3.415,3.879H1478.9c-.69-6.367-5.49-26.288-5.882-31.074-.4-4.917-2.442-22.379-1.942-23.7s1.5-3.319,2.234-3.635,18.279-5.785,18.279-5.785l8.995.992Z" transform="translate(-1454.222 -687.083)" fill="#cec9d0" fill-rule="evenodd"/>
          <path id="Trazado_120148" data-name="Trazado 120148" d="M1527.181,704.412l2.974.424a2.577,2.577,0,0,1-.617,1.221c-6.99,8.011-14.133,8.6-22.333,1.831a2.571,2.571,0,0,1-.81-1.112l2.867-.9,8.995.992Z" transform="translate(-1471.896 -687.083)" fill="#fff" fill-rule="evenodd"/>
          <path id="Trazado_120149" data-name="Trazado 120149" d="M1526.894,669.8l.154,4.479.863,10.527c.055.67.832,1.581,2.13,2.323-5.882,6.741-11.017,7.162-17.918,1.468a3.818,3.818,0,0,0,1.724-2.639c-.114-1.388-.863-10.528-.863-10.528l-.577-4.444s3.612.282,7.358.789C1523.375,670.669,1526.894,669.8,1526.894,669.8Z" transform="translate(-1474.756 -669.802)" fill="#e8685b" fill-rule="evenodd"/>
          <path id="Trazado_120150" data-name="Trazado 120150" d="M1546.295,704.835s-2.08,8.99-2.235,10.82-2.6,20.248-2.343,23.361c.116,1.416,2.93,15.809,5.993,31.269h24.512c-.6-3.768-1.117-7.017-1.395-8.852a211.693,211.693,0,0,1-1.447-28.772c.218-8.467-1.887-21.173-2.137-22.379s-2.653-2.713-3.4-2.992Z" transform="translate(-1489.524 -687.294)" fill="#0f1630" fill-rule="evenodd"/>
          <path id="Trazado_120151" data-name="Trazado 120151" d="M1543.61,728.569c-.738,6.069-2.086,17.161-1.893,19.514,0,0,11.922-12.981,11.742-14.26s-5.032-10.829-5.032-10.829S1546.343,725.39,1543.61,728.569Z" transform="translate(-1489.524 -696.361)" fill="#3d4155" fill-rule="evenodd"/>
          <path id="Trazado_120152" data-name="Trazado 120152" d="M1547.04,704.178s.527-.472.716-.488,3.423,1.079,3.423,1.079,4.718,7.419,4.8,8.366-11.587,10.491-11.587,10.491l1.034-8.726s1.691-8.531,2.216-10.637Z" transform="translate(-1490.866 -686.723)" fill="#545a6c" fill-rule="evenodd"/>
          <path id="Trazado_120153" data-name="Trazado 120153" d="M1456.791,718.865a14.247,14.247,0,0,0-5.083,5.111c-1.151,1.984-13.19,38.615-13.958,41s.15,7.932,3.38,10.908c.35.322.882.8,1.551,1.41h13.34c-3.533-3.789-6.732-7.229-7.056-7.614-.749-.892-1.2-1.8-.406-3.648s12.051-21.353,12.051-21.353S1464.343,724.165,1456.791,718.865Z" transform="translate(-1437.494 -694.299)" fill="#0f1630" fill-rule="evenodd"/>
          <path id="Trazado_120154" data-name="Trazado 120154" d="M1489.516,708.247s3.516,8.531,3.967,10.311,5.86,19.554,6.116,22.668c.113,1.384-.3,15.42-.79,30.762H1474.56c-.011-1.6-.022-2.946-.035-3.9a211.581,211.581,0,0,0-3.258-28.624c-1.593-8.319-1.585-21.2-1.534-22.428s2.176-3.109,2.865-3.505Z" transform="translate(-1453.584 -688.998)" fill="#0f1630" fill-rule="evenodd"/>
          <path id="Trazado_120155" data-name="Trazado 120155" d="M1510.482,731.573c1.715,5.868,4.852,16.593,5.045,18.945,0,0-13.877-10.866-13.907-12.159s3.2-11.5,3.2-11.5S1507.267,728.881,1510.482,731.573Z" transform="translate(-1469.512 -698.289)" fill="#3d4155" fill-rule="evenodd"/>
          <path id="Trazado_120156" data-name="Trazado 120156" d="M1503.07,707.52a2.628,2.628,0,0,0-.785-.365c-.189.015-3.2,1.622-3.2,1.622s-3.448,8.087-3.37,9.035,13.14,8.464,13.14,8.464l-2.441-8.442s-3.057-8.141-3.917-10.133Z" transform="translate(-1466.562 -688.452)" fill="#545a6c" fill-rule="evenodd"/>
        </g>
        <g id="Grupo_60066" data-name="Grupo 60066" transform="translate(27.018 22.407)">
          <path id="Trazado_120157" data-name="Trazado 120157" d="M1494.336,675.241c-.091.021-.179.044-.266.071h0a3.7,3.7,0,1,0,3.144.461c.193,1.08.143,2.442-1.234,2.7l-.153-2.129A1.273,1.273,0,0,0,1494.336,675.241Z" transform="translate(-1491.455 -672.815)" fill="#e8685b" fill-rule="evenodd"/>
          <path id="Trazado_120158" data-name="Trazado 120158" d="M1546.492,670.407q.139.006.274.021h0a3.7,3.7,0,1,1-3.009,1.021c.005,1.1.3,2.427,1.7,2.436l-.234-2.121A1.272,1.272,0,0,1,1546.492,670.407Z" transform="translate(-1517.01 -670.407)" fill="#e8685b" fill-rule="evenodd"/>
        </g>
        <path id="Trazado_120159" data-name="Trazado 120159" d="M1508.932,636.008h0a12.708,12.708,0,0,0-11.466,13.769l1.047,11.477a12.708,12.708,0,0,0,13.769,11.467h0a12.707,12.707,0,0,0,11.467-13.769l-1.047-11.477A12.709,12.709,0,0,0,1508.932,636.008Z" transform="translate(-1467.411 -630.799)" fill="#f4ad85" fill-rule="evenodd"/>
        <path id="Trazado_120160" data-name="Trazado 120160" d="M1498.245,650.594a12.549,12.549,0,0,0-.781,5.649l1.047,11.477a12.714,12.714,0,0,0,12.565,11.519c-7.336-.564-8.694-9.234-9.255-13.8s1.15-5.588,1.83-5.814,11.333-1.994,13.69-2.267a4.2,4.2,0,0,1,3.542,1.036l.991-1.443-.952-3.083s.813.027,1.772,0a12.618,12.618,0,0,0-.465-2.385,20.066,20.066,0,0,1-4.163-1.879c-2.81-1.813-16.228.454-18.4.454A3.416,3.416,0,0,0,1498.245,650.594Z" transform="translate(-1467.411 -637.264)" fill="#ed9072" fill-rule="evenodd"/>
        <path id="Trazado_120161" data-name="Trazado 120161" d="M1515.216,648.423s.077.844.149,1.627.878,1.59,1.478,1.536l-.163-1.777a1.776,1.776,0,0,1,1.754-1.482c4.446-6.163,2.964-15.167-2.766-19.383s-17.146-3.479-19.073-2.635-3.668,4.4-3.668,4.4-1.825-1.352-3.32-.426-5.835,11.284-5.61,13.755,5.454,6.929,5.454,6.929a1.774,1.774,0,0,1,1.992,1.14l.162,1.777a1.747,1.747,0,0,0,1.177-1.778l-.149-1.627c.057-.031.112-.064.167-.1,1.53-.994,1.226-4.031,1.226-4.031l-1.41-1.973,2.8-3.682,3.22-1.059,7.316.28s8.627,1.073,7.872,3.583S1515.216,648.423,1515.216,648.423Z" transform="translate(-1460.709 -625.656)" fill="#0e1632" fill-rule="evenodd"/>
        <path id="Trazado_120162" data-name="Trazado 120162" d="M1515.216,654.661c.088.966.734,5.284,1.86,5.182,3.357-7.07,6.456-14.449,1.456-21.692-.588,4.661-5.231,7.5-9.881,8.482,2.46.536,5.644,1.542,5.173,3.11-.755,2.511,1.392,4.918,1.392,4.918Zm-30.9-6.551a7.321,7.321,0,0,0-.322,2.169c.174,1.9,6.511,11.1,7.918,13.185.733-.066.831-5.512.718-6.744.057-.032.111-.064.167-.1,1.53-.994,1.226-4.031,1.226-4.031l-1.41-1.973,2.8-3.682,3.072-1.01a4.5,4.5,0,0,1-1.993-1.28C1490.145,651.072,1486.46,650.721,1484.319,648.11Z" transform="translate(-1460.709 -631.894)" fill="#010518" fill-rule="evenodd"/>
        <path id="Trazado_120163" data-name="Trazado 120163" d="M1493.789,652.774s-5.308-11.508,5.37-13.475c0,0,2.826-5.58,8.488-4.181s9.207,1.36,11.746-1.142a5.118,5.118,0,0,1-.312,5.137c5.36,4.159,3.5,9.491,1.305,12.369-.879-5.964-16.591.675-18.646-5.058C1501.537,651.9,1495.794,650.54,1493.789,652.774Z" transform="translate(-1464.944 -629.81)" fill="#0e1632" fill-rule="evenodd"/>
        <path id="Trazado_120164" data-name="Trazado 120164" d="M1493.83,659.319a16.627,16.627,0,0,1-1.279-5.014c2.064-.2,4.741-1.678,8.219-5.2,0,0,1.421,2.088,7.979,2.357,3.983.164,9.047-1.31,11.9-4.382,3.413,3.889,1.726,8.386-.223,10.944-.879-5.965-16.591.675-18.646-5.058C1501.578,658.447,1495.834,657.084,1493.83,659.319Z" transform="translate(-1464.984 -636.355)" fill="#010518" fill-rule="evenodd"/>
      </g>
      <g id="Grupo_60071" data-name="Grupo 60071" transform="translate(1446.915 569.717)">
        <g id="Grupo_60068" data-name="Grupo 60068" transform="translate(1.168)">
          <path id="Trazado_120165" data-name="Trazado 120165" d="M1770.644,669.491c-2.245-8.417-10.089-3.788-13.446,3.418s-11.049,35.317-17.7,42.6c-2.577,2.821-1.789,3.058.581,1.684C1751.9,710.338,1773.734,681.078,1770.644,669.491Z" transform="translate(-1737.9 -664.973)" fill="#05304b" fill-rule="evenodd"/>
          <path id="Trazado_120166" data-name="Trazado 120166" d="M1737.912,720.941c-.081.379.275.4.949.117,17.918-15.154,27.434-49.031,27.464-49.139a.351.351,0,0,0-.675-.193C1765.619,671.836,1755.973,706.175,1737.912,720.941Z" transform="translate(-1737.9 -668.218)" fill="#0076bd" fill-rule="evenodd"/>
        </g>
        <g id="Grupo_60069" data-name="Grupo 60069" transform="translate(0.164 6.378)">
          <path id="Trazado_120167" data-name="Trazado 120167" d="M1749.787,680.34c-3.916-6.137-8.994-.468-9.846,6.12s.124,30.923-3.333,38.4c-1.34,2.9-.652,2.888.888,1.2C1745.178,717.611,1755.176,688.787,1749.787,680.34Z" transform="translate(-1735.894 -677.71)" fill="#0076bd" fill-rule="evenodd"/>
          <path id="Trazado_120168" data-name="Trazado 120168" d="M1735.9,729.785c.031.322.319.246.785-.147,10.443-16.6,9.461-45.985,9.458-46.08a.293.293,0,0,0-.586.017C1745.56,683.67,1746.555,713.459,1735.9,729.785Z" transform="translate(-1735.897 -680.488)" fill="#05304b" fill-rule="evenodd"/>
        </g>
        <g id="Grupo_60070" data-name="Grupo 60070" transform="translate(0 29.859)">
          <path id="Trazado_120169" data-name="Trazado 120169" d="M1769.035,724.641c6.767.706,4.153,7.321-1,10.789s-25.9,12.828-30.7,18.845c-1.862,2.332-2.141,1.753-1.37-.243C1739.813,744.08,1759.721,723.67,1769.035,724.641Z" transform="translate(-1735.567 -724.607)" fill="#0076bd" fill-rule="evenodd"/>
          <path id="Trazado_120170" data-name="Trazado 120170" d="M1735.842,759c-.282.109-.338-.164-.206-.717,9.505-15.669,34.477-27.139,34.557-27.177a.274.274,0,0,1,.231.5C1770.343,731.64,1745.03,743.266,1735.842,759Z" transform="translate(-1735.567 -727.839)" fill="#05304b" fill-rule="evenodd"/>
        </g>
      </g>
      <g id="Grupo_60072" data-name="Grupo 60072" transform="translate(1362.21 482.387)">
        <path id="Trazado_120171" data-name="Trazado 120171" d="M1607.726,707.787l-1.68,14.764s2.54,34.577,3.789,49.208h18.856l.414-58.848Z" transform="translate(-1586.193 -599.02)" fill="#0e1632" fill-rule="evenodd"/>
        <path id="Trazado_120172" data-name="Trazado 120172" d="M1628.545,733.268l-.83,5.218,1.652,45.948h22.987c.384-3.18.729-5.9,1.01-7.86a300.942,300.942,0,0,0,2.31-32.857c-.008-3.976-4.612-9.875-6.195-10.306S1628.545,733.268,1628.545,733.268Z" transform="translate(-1597.012 -611.696)" fill="#0e1632" fill-rule="evenodd"/>
        <path id="Trazado_120173" data-name="Trazado 120173" d="M1590.239,590.457s-.785-1.461-1.4-1.187-21.433,30.9-22.139,33.536-.415,7.306,3.613,13.789,12.648,22.394,12.952,22.738,5.015-2.85,5.517-3.742c0,0,.206-.293-.1-.889s-10.549-24.868-11.2-26.61,17.607-23.35,18.478-25.078S1600.188,592.219,1590.239,590.457Z" transform="translate(-1566.396 -539.828)" fill="#171c3a" fill-rule="evenodd"/>
        <path id="Trazado_120174" data-name="Trazado 120174" d="M1629.328,574.154l-9.064,6.475s-6.467,25.318-6.492,26.469-2.5,15.112-2.5,15.112,9.064,3.6,10.359.144,15.827-28.2,16.546-32.085-1.007-13.093-1.871-14.1S1629.328,574.154,1629.328,574.154Z" transform="translate(-1588.802 -532.297)" fill="#c9c4d1" fill-rule="evenodd"/>
        <path id="Trazado_120175" data-name="Trazado 120175" d="M1613.482,582.672s-8.209,2.889-8.964,3.321-5.189,16.589-5.549,18.1,2.015,29.207,2.015,31.653-3.093,33.02-3.166,33.524a.9.9,0,0,0,.935,1.079c.719,0,8.777-15.179,9.424-16.906s-1.448-27.767-1.448-27.767l5.478-37.266Z" transform="translate(-1582.08 -536.55)" fill="#171c3a" fill-rule="evenodd"/>
        <path id="Trazado_120176" data-name="Trazado 120176" d="M1644.646,590.849s11.766,11.86,12.2,12.579-11.8,41.221-11.941,43.091,6.043,29.423,6.259,30.142a1.389,1.389,0,0,1-.18.719,2.676,2.676,0,0,1-.971.864c-.252.18-29.027-4.46-31.33-5.9s-7.266-23.812-7.266-26.833,1.74-14.585,1.74-14.585l14.158-23.974S1637.542,591.612,1644.646,590.849Z" transform="translate(-1588.874 -540.633)" fill="#1c2344" fill-rule="evenodd"/>
        <path id="Trazado_120177" data-name="Trazado 120177" d="M1665.8,587.126s13.63,13.724,14.061,14.443-11.8,41.221-11.941,43.091,6.044,29.423,6.259,30.142a1.391,1.391,0,0,1-.18.719,2.675,2.675,0,0,1-.971.864c-.13.093-7.784-1.087-15.51-2.451,6.7-9.66,6.353-25.665,5.768-26.639-.679-1.134-4.261-3.581-3.717-3.762s4.216-.272,4.487-1.179,5.437-29.587,5.437-29.587l3.448-2.325s1.542-11.152.454-12.783-8.263-7.8-8.322-7.853C1665.967,589.368,1664.974,587.215,1665.8,587.126Z" transform="translate(-1611.894 -538.774)" fill="#101937" fill-rule="evenodd"/>
        <path id="Trazado_120178" data-name="Trazado 120178" d="M1688.919,612.362a20.537,20.537,0,0,1,3.014,3.028c1.233,1.607,16.585,33.7,16.9,36.708s-.806,8.075-6.338,14.48-17.719,22.345-18.112,22.668-5-3.986-5.4-5.051c0,0-.176-.356.258-.958s15.848-25.417,16.86-27.213-15.254-28.615-15.91-30.658S1677.717,612.574,1688.919,612.362Z" transform="translate(-1622.596 -551.374)" fill="#383d5d" fill-rule="evenodd"/>
        <path id="Trazado_120179" data-name="Trazado 120179" d="M1648.517,551.646c.083,4.485-1.08,9.119-.786,13.61.06.917.5,1.221,1.629,1.955,1.566,2.33-2.716,9.7-5.532,10.136-.186.029-4.773-3.568-8.022-4.4-1.667-.429-3.041,1.7-3.166,1.61-.675-.491.777-4.3.3-5.748.571-.153,1.081-1.43,1.486-1.8,2.632-2.427,1.774-8.487-.383-10.777C1632.437,554.518,1648.517,551.646,1648.517,551.646Z" transform="translate(-1599.38 -521.059)" fill="#ed9072" fill-rule="evenodd"/>
        <path id="Trazado_120180" data-name="Trazado 120180" d="M1654.868,579.857c-.358,1.015-9.055,12.622-9.055,12.622s-.311.417-.766-.112-5.813-8.007-5.813-8.007l11.9-8.867-.272-2.04C1651.038,573.268,1655.236,578.815,1654.868,579.857Z" transform="translate(-1602.764 -531.945)" fill="#fff" fill-rule="evenodd"/>
        <path id="Trazado_120181" data-name="Trazado 120181" d="M1634.349,578.686c0-.005-.013-.017-.046-.02-4.068-.287-4.684,11.238-3.969,13.5a36.636,36.636,0,0,1,4.173-5.278C1635.277,586.2,1632.869,581,1634.349,578.686Z" transform="translate(-1598.192 -534.548)" fill="#fff" fill-rule="evenodd"/>
        <path id="Trazado_120182" data-name="Trazado 120182" d="M1641.688,579.632s-15.215,18.861-16.294,20.443-9.351,21.078-10.5,25.25c0,0,12.733-15.9,14.532-17.337s8.454-6.978,8.454-6.978a.962.962,0,0,0,.09-.612c-.09-.252-1.942-4.442-1.942-4.442s5.539.828,6.042.791,2.991-12.394,3.062-12.754S1641.688,579.632,1641.688,579.632Z" transform="translate(-1590.609 -535.032)" fill="#383d5d" fill-rule="evenodd"/>
        <path id="Trazado_120183" data-name="Trazado 120183" d="M1627.166,578.656a44.393,44.393,0,0,0-4.672,1.292c-.647.36-5.755,8.848-5.9,9.568a.452.452,0,0,0,.215.486,15.043,15.043,0,0,1,1.458.917,8.717,8.717,0,0,1-1.781.324s-.215.081-.179.414-.682,32.014-.682,32.014,6.279-35.031,7.209-37.337a42.293,42.293,0,0,1,3.428-5.953Z" transform="translate(-1590.976 -534.545)" fill="#383d5d" fill-rule="evenodd"/>
        <path id="Trazado_120184" data-name="Trazado 120184" d="M1621.445,538.613a3.588,3.588,0,1,1-3.568,3.608A3.588,3.588,0,0,1,1621.445,538.613Z" transform="translate(-1592.1 -514.552)" fill="#e8685b" fill-rule="evenodd"/>
        <path id="Trazado_120185" data-name="Trazado 120185" d="M1669.27,538.34a3.588,3.588,0,1,1-3.568,3.608A3.587,3.587,0,0,1,1669.27,538.34Z" transform="translate(-1615.979 -514.415)" fill="#e8685b" fill-rule="evenodd"/>
        <path id="Trazado_120186" data-name="Trazado 120186" d="M1634.255,501.78h0c6.759-.041,12.32,5.956,12.358,13.328l.062,12.18c.037,7.371-5.462,13.435-12.221,13.476h0c-6.759.041-12.32-5.956-12.358-13.328l-.062-12.18C1622,507.885,1627.5,501.82,1634.255,501.78Z" transform="translate(-1594.176 -496.161)" fill="#f4ad85" fill-rule="evenodd"/>
        <path id="Trazado_120187" data-name="Trazado 120187" d="M1646.135,515.043a14.4,14.4,0,0,1,.478,3.62l.062,12.181c.035,6.778-4.613,12.45-10.616,13.351-.59.062-.968.1-1.05.108H1635c6.712-.664,8.133-9.481,8.133-12.14v-6.9c0-6.524-3.611-7.205-6.081-7.205H1624.8a2.394,2.394,0,0,0-2.154,1.457l-.611-.464v-.234A13.96,13.96,0,0,1,1626,508.9c6.154,1.2,16.387,3.247,17.092,3.688C1643.473,512.831,1644.726,513.858,1646.135,515.043Z" transform="translate(-1594.176 -499.717)" fill="#ed9072" fill-rule="evenodd"/>
        <path id="Trazado_120188" data-name="Trazado 120188" d="M1618.051,513.461l2.208,2.216s1.058-4.121,9.959-2.849-8.208-8.272-10.145-7.231S1616.446,509.7,1618.051,513.461Z" transform="translate(-1591.867 -498.027)" fill="#01020e" fill-rule="evenodd"/>
        <path id="Trazado_120189" data-name="Trazado 120189" d="M1638.141,506.191s-8.76.96-13.219-1.87-8.232-4.143-9.376-2.606c-1.084,1.459,3.276,5.4,1.522,12.1-.1.364-.324,6.561-.458,6.941-.043-2.425-.819-8.621-1.623-10.171-2.4-4.629-6.149-8.108-1.277-15.05,2.991-4.26,8.07-6.257,10.429-4.1,7.688,7.023,18.273-2.1,18.338,9.536,0,0,5.7,1.92.4,13.587a1.515,1.515,0,0,0-1.566,1.683l.047,6.229C1637.079,522.469,1636.992,511.244,1638.141,506.191Z" transform="translate(-1588.834 -490.557)" fill="#0e1632" fill-rule="evenodd"/>
      </g>
      <g id="Grupo_60075" data-name="Grupo 60075" transform="translate(1390.721 603.517)">
        <g id="Grupo_60073" data-name="Grupo 60073" transform="translate(9.884)">
          <path id="Rectángulo_7278" data-name="Rectángulo 7278" d="M4.352,0H24.8a4.352,4.352,0,0,1,4.352,4.352V42.624A4.353,4.353,0,0,1,24.8,46.977H4.352A4.352,4.352,0,0,1,0,42.625V4.352A4.352,4.352,0,0,1,4.352,0Z" transform="translate(4.961)" fill="#e2e1e7"/>
          <rect id="Rectángulo_7279" data-name="Rectángulo 7279" width="23.72" height="46.977" rx="3.662" transform="translate(30.642)" fill="#fff"/>
          <path id="Trazado_120190" data-name="Trazado 120190" d="M1643.076,763.014h25.681c0-4.6,4.961-5.111,4.961-5.111h-25.681S1643.076,758.411,1643.076,763.014Z" transform="translate(-1643.076 -745.173)" fill="#fff" fill-rule="evenodd"/>
          <rect id="Rectángulo_7280" data-name="Rectángulo 7280" width="29.446" height="12.193" rx="2.865" transform="translate(3.526 39.416)" fill="#b92f6d"/>
          <path id="Trazado_120191" data-name="Trazado 120191" d="M1702.964,811.2h5.837a2.748,2.748,0,0,1,2.35,1.793c.837,1.823.748,3.646,3.228,3.646h1.067c2.481,0,2.411-1.865,3.228-3.646a2.679,2.679,0,0,1,2.351-1.793h5.538a1.439,1.439,0,0,1,1.434,1.434v9.324a1.439,1.439,0,0,1-1.434,1.434h-23.6a1.439,1.439,0,0,1-1.435-1.434v-9.324A1.439,1.439,0,0,1,1702.964,811.2Z" transform="translate(-1672.261 -771.784)" fill="#e74d91" fill-rule="evenodd"/>
          <path id="Trazado_120192" data-name="Trazado 120192" d="M1643.076,795.157h25.681c0-4.6,4.961-5.11,4.961-5.11h-25.681S1643.076,790.555,1643.076,795.157Z" transform="translate(-1643.076 -761.222)" fill="#fff" fill-rule="evenodd"/>
          <path id="Trazado_120193" data-name="Trazado 120193" d="M1732.169,779.833h-23.356c0-4.6-4.539-5.11-4.539-5.11h23.355S1732.169,775.231,1732.169,779.833Z" transform="translate(-1673.632 -753.571)" fill="#acabbb" fill-rule="evenodd"/>
          <path id="Trazado_120194" data-name="Trazado 120194" d="M1710.91,742.67h17.9a.791.791,0,0,1,.79.79h0a.791.791,0,0,1-.79.789h-17.9a.791.791,0,0,1-.789-.789h0A.791.791,0,0,1,1710.91,742.67Z" transform="translate(-1676.552 -737.567)" fill="#e2e1e7" fill-rule="evenodd"/>
          <path id="Trazado_120195" data-name="Trazado 120195" d="M1710.91,760.038h17.9a.791.791,0,0,1,.79.789h0a.792.792,0,0,1-.79.789h-17.9a.791.791,0,0,1-.789-.789h0A.791.791,0,0,1,1710.91,760.038Z" transform="translate(-1676.552 -746.239)" fill="#e2e1e7" fill-rule="evenodd"/>
          <path id="Trazado_120196" data-name="Trazado 120196" d="M1710.91,796.3h17.9a.791.791,0,0,1,.79.789h0a.791.791,0,0,1-.79.79h-17.9a.791.791,0,0,1-.789-.79h0A.791.791,0,0,1,1710.91,796.3Z" transform="translate(-1676.552 -764.346)" fill="#e2e1e7" fill-rule="evenodd"/>
          <path id="Trazado_120197" data-name="Trazado 120197" d="M1659.776,741.393h17.293a.791.791,0,0,1,.789.789h0a.791.791,0,0,1-.789.789h-17.293a.791.791,0,0,1-.789-.789h0A.791.791,0,0,1,1659.776,741.393Z" transform="translate(-1651.02 -736.929)" fill="#acabbb" fill-rule="evenodd"/>
          <path id="Rectángulo_7281" data-name="Rectángulo 7281" d="M.789,0H18.082a.789.789,0,0,1,.789.789v0a.789.789,0,0,1-.789.789H.789A.789.789,0,0,1,0,.79v0A.789.789,0,0,1,.789,0Z" transform="translate(7.966 24.049)" fill="#acabbb"/>
          <path id="Trazado_120198" data-name="Trazado 120198" d="M1659.776,805.539h17.293a.791.791,0,0,1,.789.789h0a.791.791,0,0,1-.789.789h-17.293a.791.791,0,0,1-.789-.789h0A.791.791,0,0,1,1659.776,805.539Z" transform="translate(-1651.02 -768.957)" fill="#acabbb" fill-rule="evenodd"/>
        </g>
        <g id="Grupo_60074" data-name="Grupo 60074" transform="translate(0 20.377)">
          <rect id="Rectángulo_7282" data-name="Rectángulo 7282" width="17.639" height="28.429" rx="2.634" transform="translate(3.002)" fill="#e2e1e7"/>
          <path id="Rectángulo_7283" data-name="Rectángulo 7283" d="M2.216,0h9.923a2.215,2.215,0,0,1,2.215,2.215v24a2.216,2.216,0,0,1-2.216,2.216H2.216A2.216,2.216,0,0,1,0,26.213v-24A2.216,2.216,0,0,1,2.216,0Z" transform="translate(18.544)" fill="#fff"/>
          <path id="Trazado_120199" data-name="Trazado 120199" d="M1623.336,791.653h15.541c0-2.785,3-3.092,3-3.092h-15.542S1623.336,788.868,1623.336,791.653Z" transform="translate(-1623.336 -780.857)" fill="#fff" fill-rule="evenodd"/>
          <path id="Rectángulo_7284" data-name="Rectángulo 7284" d="M1.733,0H16.086A1.734,1.734,0,0,1,17.82,1.734v3.91a1.734,1.734,0,0,1-1.734,1.734H1.733A1.733,1.733,0,0,1,0,5.645V1.733A1.733,1.733,0,0,1,1.733,0Z" transform="translate(2.134 23.854)" fill="#b92f6d"/>
          <path id="Trazado_120200" data-name="Trazado 120200" d="M1659.578,820.816h3.532a1.664,1.664,0,0,1,1.423,1.085c.506,1.1.452,2.206,1.953,2.206h.646c1.5,0,1.459-1.129,1.954-2.206a1.62,1.62,0,0,1,1.422-1.085h3.352a.87.87,0,0,1,.868.868v5.642a.871.871,0,0,1-.868.868h-14.282a.871.871,0,0,1-.868-.868v-5.642A.87.87,0,0,1,1659.578,820.816Z" transform="translate(-1640.998 -796.962)" fill="#e74d91" fill-rule="evenodd"/>
          <path id="Trazado_120201" data-name="Trazado 120201" d="M1623.336,811.106h15.541c0-2.785,3-3.092,3-3.092h-15.542S1623.336,808.321,1623.336,811.106Z" transform="translate(-1623.336 -790.57)" fill="#fff" fill-rule="evenodd"/>
          <path id="Trazado_120202" data-name="Trazado 120202" d="M1677.252,801.833h-14.134a3.09,3.09,0,0,0-2.747-3.092h14.134A3.09,3.09,0,0,1,1677.252,801.833Z" transform="translate(-1641.828 -785.94)" fill="#acabbb" fill-rule="evenodd"/>
          <path id="Trazado_120203" data-name="Trazado 120203" d="M1664.387,779.342h10.833a.479.479,0,0,1,.478.478h0a.479.479,0,0,1-.478.478h-10.833a.479.479,0,0,1-.478-.478h0A.479.479,0,0,1,1664.387,779.342Z" transform="translate(-1643.594 -776.254)" fill="#e2e1e7" fill-rule="evenodd"/>
          <path id="Trazado_120204" data-name="Trazado 120204" d="M1664.387,789.853h10.833a.478.478,0,0,1,.478.477h0a.479.479,0,0,1-.478.478h-10.833a.479.479,0,0,1-.478-.478h0A.479.479,0,0,1,1664.387,789.853Z" transform="translate(-1643.594 -781.502)" fill="#e2e1e7" fill-rule="evenodd"/>
          <path id="Trazado_120205" data-name="Trazado 120205" d="M1664.387,811.8h10.833a.479.479,0,0,1,.478.478h0a.479.479,0,0,1-.478.478h-10.833a.479.479,0,0,1-.478-.478h0A.479.479,0,0,1,1664.387,811.8Z" transform="translate(-1643.594 -792.46)" fill="#e2e1e7" fill-rule="evenodd"/>
          <path id="Rectángulo_7285" data-name="Rectángulo 7285" d="M.478,0H10.942a.478.478,0,0,1,.478.478v0a.477.477,0,0,1-.477.477H.477A.477.477,0,0,1,0,.478v0A.478.478,0,0,1,.478,0Z" transform="translate(4.821 2.701)" fill="#acabbb"/>
          <path id="Rectángulo_7286" data-name="Rectángulo 7286" d="M.477,0H10.942a.477.477,0,0,1,.477.477v0a.477.477,0,0,1-.477.477H.478A.478.478,0,0,1,0,.477v0A.477.477,0,0,1,.477,0Z" transform="translate(4.821 14.554)" fill="#acabbb"/>
          <path id="Trazado_120206" data-name="Trazado 120206" d="M1633.443,817.388h10.465a.479.479,0,0,1,.477.478h0a.479.479,0,0,1-.477.478h-10.465a.479.479,0,0,1-.478-.478h0A.479.479,0,0,1,1633.443,817.388Z" transform="translate(-1628.144 -795.25)" fill="#acabbb" fill-rule="evenodd"/>
        </g>
      </g>
      <g id="Grupo_60077" data-name="Grupo 60077" transform="translate(1191.802 584.134)">
        <path id="Trazado_120207" data-name="Trazado 120207" d="M1295.506,696.022l20.518.1a.49.49,0,0,1,.49.49l-.005,2.147a.49.49,0,0,1-.49.49l-20.518-.1a.489.489,0,0,1-.49-.489l.005-2.147a.49.49,0,0,1,.49-.49Zm20.027,1.075L1295.994,697l0,1.167,19.539.094Z" transform="translate(-1260.485 -694.893)" fill="#0e1632" fill-rule="evenodd"/>
        <g id="Grupo_60076" data-name="Grupo 60076" transform="translate(7.216 0)">
          <path id="Trazado_120208" data-name="Trazado 120208" d="M1242.04,726.278l27.109-30.89a.491.491,0,0,1,.691-.047l1.614,1.416a.49.49,0,0,1,.046.691l-27.108,30.891a.49.49,0,0,1-.691.047l-1.614-1.417a.49.49,0,0,1-.047-.691Zm27.522-29.876L1243.1,726.555l.877.77,26.462-30.154Z" transform="translate(-1241.192 -694.493)" fill="#0e1632" fill-rule="evenodd"/>
          <path id="Trazado_120209" data-name="Trazado 120209" d="M1294.166,693.789a2.732,2.732,0,1,1-2.366,3.054A2.731,2.731,0,0,1,1294.166,693.789Z" transform="translate(-1266.086 -693.767)" fill="#383d5d" fill-rule="evenodd"/>
          <path id="Trazado_120210" data-name="Trazado 120210" d="M1242.071,755.834l19.061,36.411a.49.49,0,0,0,.661.208l1.9-1a.49.49,0,0,0,.208-.66l-19.061-36.41a.489.489,0,0,0-.66-.208l-1.9,1a.49.49,0,0,0-.208.66Zm19.7,35.524-18.606-35.543,1.034-.541,18.606,35.543Z" transform="translate(-1241.24 -723.903)" fill="#0e1632" fill-rule="evenodd"/>
          <path id="Trazado_120211" data-name="Trazado 120211" d="M1278.268,826.743a2.732,2.732,0,1,0-1.58-3.526A2.732,2.732,0,0,0,1278.268,826.743Z" transform="translate(-1258.462 -757.523)" fill="#383d5d" fill-rule="evenodd"/>
          <path id="Trazado_120212" data-name="Trazado 120212" d="M1242.854,752.26a2.732,2.732,0,1,1-2.366,3.054A2.732,2.732,0,0,1,1242.854,752.26Z" transform="translate(-1240.466 -722.961)" fill="#383d5d" fill-rule="evenodd"/>
        </g>
        <rect id="Rectángulo_7287" data-name="Rectángulo 7287" width="44.982" height="6.902" rx="3.451" transform="translate(0 66.906)" fill="#383d5d"/>
        <rect id="Rectángulo_7288" data-name="Rectángulo 7288" width="44.982" height="6.902" rx="3.451" transform="translate(13.567 66.906)" fill="#0e1632"/>
        <path id="Trazado_120213" data-name="Trazado 120213" d="M1322.881,704.732h10.037a5.31,5.31,0,0,0,5.294-5.294h-20.625A5.309,5.309,0,0,0,1322.881,704.732Z" transform="translate(-1271.757 -696.598)" fill="#fff" fill-rule="evenodd"/>
        <path id="Trazado_120214" data-name="Trazado 120214" d="M1325.367,704.729h6.031a3.191,3.191,0,0,0,3.181-3.181h-12.392A3.191,3.191,0,0,0,1325.367,704.729Z" transform="translate(-1274.053 -697.652)" fill="#dff0f2" fill-rule="evenodd"/>
        <path id="Trazado_120215" data-name="Trazado 120215" d="M1317.381,694.586h16.787a4.061,4.061,0,0,1,4.05,4.049h-24.886A4.061,4.061,0,0,1,1317.381,694.586Z" transform="translate(-1269.632 -694.176)" fill="#383d5d" fill-rule="evenodd"/>
        <path id="Trazado_120216" data-name="Trazado 120216" d="M1317.381,694.586h7.676a4.061,4.061,0,0,1,4.049,4.049h-15.775A4.061,4.061,0,0,1,1317.381,694.586Z" transform="translate(-1269.632 -694.176)" fill="#01020e" fill-rule="evenodd"/>
      </g>
      <g id="Grupo_60078" data-name="Grupo 60078" transform="translate(1439.097 502.222)">
        <path id="Trazado_120217" data-name="Trazado 120217" d="M1723.03,537.175a.37.37,0,0,1-.6-.429,15.686,15.686,0,1,1-2.462,12.9.37.37,0,1,1,.719-.177,14.965,14.965,0,1,0,2.346-12.3Z" transform="translate(-1719.954 -530.172)" fill="#0e1632" fill-rule="evenodd"/>
        <path id="Trazado_120218" data-name="Trazado 120218" d="M1754.39,547.047a8.192,8.192,0,0,0-2.251,3.97c.616.41,2.314,1.708,1.517,3.088l-3.312,5.734c-.806,1.341-2.756.529-3.416.2a8.19,8.19,0,0,0-2.313,3.935,5.187,5.187,0,0,0,3.04.642,3.266,3.266,0,0,0,2.419-1.359l6.433-11.142a3.288,3.288,0,0,0-.041-2.762,5.179,5.179,0,0,0-2.075-2.31Zm-2.932,4.03a8.5,8.5,0,0,1,2.709-4.669.32.32,0,0,1,.362-.025,5.906,5.906,0,0,1,2.523,2.724,3.941,3.941,0,0,1,.009,3.325l-6.436,11.148a3.929,3.929,0,0,1-2.9,1.675,5.9,5.9,0,0,1-3.609-.817.32.32,0,0,1-.173-.31c0-.006.17-2.165,2.681-4.691a.319.319,0,0,1,.4-.061c.007,0,2.126,1.227,2.777.132l3.3-5.721c.616-1.066-1.314-2.242-1.484-2.342A.32.32,0,0,1,1751.458,551.077Z" transform="translate(-1731.933 -538.244)" fill="#0e1632" fill-rule="evenodd"/>
        <text id="_24" data-name="24" transform="translate(2.394 17.077)" fill="#0e1632" font-size="11" font-family="OpenSans-Extrabold, Open Sans" font-weight="800"><tspan x="0" y="0">24</tspan></text>
      </g>
      <g id="Grupo_60080" data-name="Grupo 60080" transform="translate(1348.591 489.905)">
        <path id="Trazado_120219" data-name="Trazado 120219" d="M1548.452,509.9h21.38a3.342,3.342,0,0,1,3.332,3.332v18.624a.371.371,0,0,1-.634.262l-5.678-5.677h-18.4a3.342,3.342,0,0,1-3.332-3.332v-9.877A3.342,3.342,0,0,1,1548.452,509.9Z" transform="translate(-1542.153 -507.731)" fill="#bfcce8" fill-rule="evenodd"/>
        <g id="Grupo_60079" data-name="Grupo 60079" transform="translate(0)">
          <path id="Trazado_120220" data-name="Trazado 120220" d="M1542.967,505.572h21.381a3.782,3.782,0,0,1,3.772,3.772v18.624a.811.811,0,0,1-.5.75h0a.8.8,0,0,1-.884-.175l-5.549-5.549h-18.217a3.781,3.781,0,0,1-3.772-3.772v-9.877a3.781,3.781,0,0,1,3.772-3.772Zm21.381.88h-21.381a2.9,2.9,0,0,0-2.892,2.892v9.877a2.9,2.9,0,0,0,2.892,2.891h18.583l5.689,5.69V509.344a2.9,2.9,0,0,0-2.891-2.892Z" transform="translate(-1539.195 -505.572)" fill="#fff" fill-rule="evenodd"/>
          <path id="Trazado_120221" data-name="Trazado 120221" d="M1546.133,512.447a.241.241,0,1,1,0-.482h21.736a.241.241,0,1,1,0,.482Z" transform="translate(-1542.539 -508.764)" fill="#fff" fill-rule="evenodd"/>
          <path id="Trazado_120222" data-name="Trazado 120222" d="M1546.133,517.138a.241.241,0,1,1,0-.482h2.3a.241.241,0,0,1,0,.482Zm5.368,0a.241.241,0,1,1,0-.482h16.368a.241.241,0,1,1,0,.482Z" transform="translate(-1542.539 -511.106)" fill="#fff" fill-rule="evenodd"/>
          <path id="Trazado_120223" data-name="Trazado 120223" d="M1546.133,521.829a.241.241,0,1,1,0-.481h21.736a.241.241,0,1,1,0,.481Z" transform="translate(-1542.539 -513.449)" fill="#fff" fill-rule="evenodd"/>
          <path id="Trazado_120224" data-name="Trazado 120224" d="M1558.206,528.189a.241.241,0,1,1,0-.482H1573.9a.241.241,0,1,1,0,.482Z" transform="translate(-1548.567 -516.624)" fill="#fff" fill-rule="evenodd"/>
          <path id="Trazado_120225" data-name="Trazado 120225" d="M1572.2,533.278a.241.241,0,0,1,0-.482h8.684a.241.241,0,1,1,0,.482Z" transform="translate(-1555.554 -519.165)" fill="#fff" fill-rule="evenodd"/>
          <path id="Trazado_120226" data-name="Trazado 120226" d="M1562.261,533.278a.241.241,0,1,1,0-.482h3.1a.241.241,0,1,1,0,.482Z" transform="translate(-1550.591 -519.165)" fill="#fff" fill-rule="evenodd"/>
        </g>
      </g>
      <path id="Trazado_120227" data-name="Trazado 120227" d="M1795.34,839.981a.549.549,0,0,0-1.1,0v1.29h-1.29a.548.548,0,1,0,0,1.1h1.29v1.291a.549.549,0,0,0,1.1,0v-1.291h1.29a.548.548,0,1,0,0-1.1h-1.29Z" transform="translate(-317.031 -182.363)" fill="#bfcce8" fill-rule="evenodd"/>
      <g id="Grupo_60083" data-name="Grupo 60083" transform="translate(1222.16 644.067)">
        <g id="Grupo_60081" data-name="Grupo 60081" transform="translate(0 4.867)">
          <path id="Trazado_120228" data-name="Trazado 120228" d="M1349.078,823.184h-18.592a2.779,2.779,0,0,0,0,5.558h18.592a2.779,2.779,0,0,0,0-5.558Z" transform="translate(-1307.168 -823.184)" fill="#0076bd" fill-rule="evenodd"/>
          <path id="Trazado_120229" data-name="Trazado 120229" d="M1287.333,823.832h23.775a2.462,2.462,0,0,1,2.455,2.454h0a2.463,2.463,0,0,1-2.455,2.456h-23.775Z" transform="translate(-1287.009 -823.508)" fill="#fff" fill-rule="evenodd"/>
          <path id="Trazado_120230" data-name="Trazado 120230" d="M1287.01,823.184a.324.324,0,1,0,0,.647h23.775a2.131,2.131,0,0,1,0,4.263H1287.01a.324.324,0,1,0,0,.647h23.775a2.779,2.779,0,0,0,0-5.558Z" transform="translate(-1286.686 -823.184)" fill="#004a82" fill-rule="evenodd"/>
          <path id="Trazado_120231" data-name="Trazado 120231" d="M1365.908,825.963a2.786,2.786,0,0,0-2.779-2.779h2.417a2.779,2.779,0,0,1,0,5.558h-2.417a2.786,2.786,0,0,0,2.779-2.779Z" transform="translate(-1324.854 -823.184)" fill="#004a82" fill-rule="evenodd"/>
          <path id="Trazado_120232" data-name="Trazado 120232" d="M1358.914,825.963a2.787,2.787,0,0,0-2.78-2.779h2.417a2.779,2.779,0,0,1,0,5.558h-2.417a2.787,2.787,0,0,0,2.78-2.779Z" transform="translate(-1321.361 -823.184)" fill="#004a82" fill-rule="evenodd"/>
        </g>
        <g id="Grupo_60082" data-name="Grupo 60082" transform="translate(2.778)">
          <path id="Trazado_120233" data-name="Trazado 120233" d="M1294.668,813.464h16.28a2.433,2.433,0,0,1,0,4.867h-16.28a2.433,2.433,0,0,1,0-4.867Z" transform="translate(-1292.235 -813.464)" fill="#e74d91" fill-rule="evenodd"/>
          <path id="Trazado_120234" data-name="Trazado 120234" d="M1346.92,814.031H1326.1a2.156,2.156,0,0,0-2.149,2.15h0a2.156,2.156,0,0,0,2.149,2.15h20.819Z" transform="translate(-1308.071 -813.747)" fill="#fff" fill-rule="evenodd"/>
          <path id="Trazado_120235" data-name="Trazado 120235" d="M1346.636,813.464a.284.284,0,0,1,0,.567h-20.819a1.866,1.866,0,0,0,0,3.733h20.819a.283.283,0,1,1,0,.567h-20.819a2.433,2.433,0,0,1,0-4.867Z" transform="translate(-1307.788 -813.464)" fill="#b92f6d" fill-rule="evenodd"/>
          <path id="Trazado_120236" data-name="Trazado 120236" d="M1296.482,815.9a2.44,2.44,0,0,1,2.433-2.434H1296.8a2.433,2.433,0,0,0,0,4.867h2.117a2.439,2.439,0,0,1-2.433-2.433Z" transform="translate(-1293.299 -813.464)" fill="#b92f6d" fill-rule="evenodd"/>
          <path id="Trazado_120237" data-name="Trazado 120237" d="M1302.606,815.9a2.44,2.44,0,0,1,2.433-2.434h-2.116a2.433,2.433,0,0,0,0,4.867h2.116a2.439,2.439,0,0,1-2.433-2.433Z" transform="translate(-1296.357 -813.464)" fill="#b92f6d" fill-rule="evenodd"/>
        </g>
      </g>
      <g id="Grupo_60084" data-name="Grupo 60084" transform="translate(1291.719 601.979)">
        <path id="Trazado_120238" data-name="Trazado 120238" d="M1508.263,830.488H1428.3a2.74,2.74,0,0,1-2.691-2.54h0a2.371,2.371,0,0,1,2.387-2.539h79.958a2.74,2.74,0,0,1,2.691,2.539h0A2.371,2.371,0,0,1,1508.263,830.488Z" transform="translate(-1425.609 -777.34)" fill="#a8a6b5" fill-rule="evenodd"/>
        <path id="Trazado_120239" data-name="Trazado 120239" d="M1508.733,833.164h-79.958a2.729,2.729,0,0,1-2.225-1.2,2.371,2.371,0,0,1,2.081-1.2h79.958a2.729,2.729,0,0,1,2.225,1.2A2.371,2.371,0,0,1,1508.733,833.164Z" transform="translate(-1426.079 -780.017)" fill="#96929f" fill-rule="evenodd"/>
        <path id="Trazado_120240" data-name="Trazado 120240" d="M1527.137,777.475h-63.953a3.09,3.09,0,0,1-3.113-3.323l2.618-41.424a3.6,3.6,0,0,1,3.532-3.322h63.953a3.089,3.089,0,0,1,3.112,3.322l-2.618,41.424A3.6,3.6,0,0,1,1527.137,777.475Z" transform="translate(-1442.813 -729.406)" fill="#96929f" fill-rule="evenodd"/>
        <path id="Trazado_120241" data-name="Trazado 120241" d="M1529.018,777.475h-62.067a3.09,3.09,0,0,1-3.112-3.323l2.618-41.424a3.6,3.6,0,0,1,3.532-3.322h62.067a3.09,3.09,0,0,1,3.112,3.322l-2.618,41.424A3.6,3.6,0,0,1,1529.018,777.475Z" transform="translate(-1444.694 -729.406)" fill="#fff" fill-rule="evenodd"/>
        <path id="Trazado_120242" data-name="Trazado 120242" d="M1528.1,777.475h-6.387l-52.946-42.318.154-2.43a3.5,3.5,0,0,1,.758-1.946l58.421,46.693Zm-51.25-48.069,57.756,46.162a3.441,3.441,0,0,0,.408-1.415l.408-6.442-47.926-38.3Z" transform="translate(-1447.158 -729.406)" fill="#f0eef0" fill-rule="evenodd"/>
        <path id="Trazado_120243" data-name="Trazado 120243" d="M1442.836,830.488h-14.531a2.74,2.74,0,0,1-2.692-2.54h0a2.371,2.371,0,0,1,2.387-2.539h14.531a2.74,2.74,0,0,1,2.691,2.539h0A2.371,2.371,0,0,1,1442.836,830.488Z" transform="translate(-1425.609 -777.34)" fill="#fff" fill-rule="evenodd"/>
        <path id="Trazado_120244" data-name="Trazado 120244" d="M1525.073,825.412h-66.535a1.37,1.37,0,0,1-1.345-1.269h0a1.186,1.186,0,0,1,1.193-1.27h66.535a1.37,1.37,0,0,1,1.346,1.27h0A1.186,1.186,0,0,1,1525.073,825.412Z" transform="translate(-1441.377 -776.073)" fill="#d2ced6" fill-rule="evenodd"/>
      </g>
      <g id="Grupo_60085" data-name="Grupo 60085" transform="translate(1168.03 556.515)">
        <path id="Trazado_120245" data-name="Trazado 120245" d="M1410.932,680.811a13.171,13.171,0,0,1,.1-6.124l-10.485-.885,14.593-6.4a33.7,33.7,0,0,0,4.557-7.532c1.46-3.733-2.5-13.224-3.987-15.579s-4.579-2-6.615-.728c0,0-3.057-4.606-6.706-4.914s-15.248.761-18.617,9.273,2.051,17.019-3.375,25.776a2.181,2.181,0,0,0,.226,2.04c.7.933,9.26,10.9,28.758,6.887a1.983,1.983,0,0,0,1.548-1.818Z" transform="translate(-1279.268 -638.607)" fill="#0e1632" fill-rule="evenodd"/>
        <path id="Trazado_120246" data-name="Trazado 120246" d="M1397.191,702.583c1.074-11.725,1.831-21.916,1.831-21.916l-.995-3.3s-8.979,7.257-15.354-.378c.3,5.238,1.051,10.512-2.274,15.879a2.181,2.181,0,0,0,.226,2.04l.029.038.01.012.025.032.026.031.016.021.046.055,0,0,.055.066.016.019.046.053.039.045.03.033.067.076.009.008.082.09.019.02.072.076.049.053.047.048.034.034.07.072.11.111.077.075.057.057a24.9,24.9,0,0,0,13.533,6.3l.021,0q.953.15,1.972.249Z" transform="translate(-1279.268 -657.769)" fill="#010518" fill-rule="evenodd"/>
        <path id="Trazado_120247" data-name="Trazado 120247" d="M1415.819,711.223c-.666-3.317-.2-4.65.729-9.081l-16.685-2.626-7.291,1.413a48.88,48.88,0,0,1-2.543,9.029c4.439,2.748,12.281,5.547,24.242,3.083a1.983,1.983,0,0,0,1.548-1.818Z" transform="translate(-1284.155 -669.019)" fill="#010518" fill-rule="evenodd"/>
        <path id="Trazado_120248" data-name="Trazado 120248" d="M1375.83,723.84c4.617,1.448,10.929,3.18,16.371,5.856.376.185-.391,1.633-.042,1.827a12.766,12.766,0,0,1,2.388,1.941c2.542,2.514,7.714,22.186,7.252,24.146-.743,3.153-7.278,11.814-7.278,11.814-1.3,2.506-2.906,6.157-4.487,10.1h-32.457c2.261-7.349,3.1-12.327,3.162-16.814h0c1.733-15.253-6.468-18.571-6.468-18.571l8.494-19.987c3.3-1.17,9.894-.73,9.894-.73A6.763,6.763,0,0,1,1375.83,723.84Z" transform="translate(-1266.302 -680.915)" fill="#e74d91" fill-rule="evenodd"/>
        <path id="Trazado_120249" data-name="Trazado 120249" d="M1408.748,787.662h-4.581c.854-2.284,4.825-13.088,5.674-15.394-3.86-.672-9.175-1.593-10.112-1.816s-4.525,1.828-4.525,1.828l.4-2.332-3.853,3.879,6.587-12.3s10.748,2.427,13.032,2.843.891.1,1.315.066c1.27-3.573-.81-4.572-.563-6.3s.32-18.5.32-18.5c1.389.72,2.016,2.284,2.8,4.752.517,1.624,3.261,12.3,4.4,18.609.27,1.5.484,2.626.619,3.522C1417.714,773.011,1412,779.548,1408.748,787.662Z" transform="translate(-1285.015 -689.051)" fill="#b92f6d" fill-rule="evenodd"/>
        <path id="Trazado_120250" data-name="Trazado 120250" d="M1406.854,687.538l-1.625,4.882s-2.458,11.52-3.026,13.014c-.2.518-.848.676-1.847.652,1.438,2.06,4.231,5.2,8.268,5.966a7.835,7.835,0,0,0,5.6-.714c-.862-.455-1.686-1-1.683-1.44.035-3.932.71-10.851,2.841-12.131C1417.827,696.3,1406.854,687.538,1406.854,687.538Z" transform="translate(-1289.311 -663.038)" fill="#e8685b" fill-rule="evenodd"/>
        <path id="Trazado_120251" data-name="Trazado 120251" d="M1399.652,724.427a10.24,10.24,0,0,1-2.326-.091,17.562,17.562,0,0,0,5.168,4.669c6.366,4.033,9.431,1.836,10.4.8a7.067,7.067,0,0,1-1.552-1h0c-5.941,2.9-11.69-4.382-11.69-4.382Z" transform="translate(-1287.798 -681.411)" fill="#fff" fill-rule="evenodd"/>
        <path id="Trazado_120252" data-name="Trazado 120252" d="M1423.871,735.774s2.538,25.548,2.23,27.706-4.344,12.789-7.882,22.249h6.083c1.2-2.315,2.12-4.123,2.287-4.558.108-.282.529-1.1,1.107-2.169,1.039-1.925,2.592-4.669,3.762-6.59,3.73-6.123,3.72-4.693,2.429-11.866-1.136-6.312-4.622-17.992-5.14-19.615C1427.962,738.462,1424.529,735.594,1423.871,735.774Z" transform="translate(-1298.23 -687.118)" fill="#1c2344" fill-rule="evenodd"/>
        <path id="Trazado_120253" data-name="Trazado 120253" d="M1425.984,803.972c-.837,2.337-1.809,5-2.817,7.732a20.335,20.335,0,0,1,3.85.55c1.85.727,2.043,1.556,2.043,1.556.108-.282.528-1.1,1.106-2.169,1.04-1.925,2.592-4.669,3.762-6.59,1.122-1.842,1.9-3,2.417-3.914a10.57,10.57,0,0,1-2.419,1.749C1433.252,803.091,1428.068,803.723,1425.984,803.972Z" transform="translate(-1300.701 -719.758)" fill="#0e1632" fill-rule="evenodd"/>
        <path id="Trazado_120254" data-name="Trazado 120254" d="M1373.788,722.9s4.658,22.566,5.3,29.125-1.413,11.254-3.721,16.183c-.778,1.661-3.272,5.9-6.345,10.921h-14.342l1.534-35.447-4.113-.953c.244-1.781.444-3.256.581-4.288l8.1-14.317S1363.829,721.645,1373.788,722.9Z" transform="translate(-1265.216 -680.516)" fill="#1c2344" fill-rule="evenodd"/>
        <path id="Trazado_120255" data-name="Trazado 120255" d="M1365.069,741.878c-2.289,9.189-.7,13-.7,13l1.226-5.718s1.159,8.44,2.449,9.516c.64.534,8.264,2,11.121,2.529a23.967,23.967,0,0,1-1.4,9.454c-2.05.211-14.387-1.527-14.976,2.458-.294,1.988-.228-4.407-.228-4.407l-.73,18.535h-7.151l1.534-35.447-4.113-.953.011-.084.011-.082.011-.083.011-.082h0l.011-.081.011-.081.011-.081.011-.08.011-.08.01-.079.01-.079h0l.01-.078.011-.078.01-.077h0l.011-.077.01-.076h0l.01-.075h0l.01-.076h0l.01-.075h0l.01-.074h0l.01-.074h0l.01-.073h0l.01-.073h0l.01-.072h0l.01-.071h0l.01-.071h0l.01-.07h0l.01-.07h0l.01-.07h0l.01-.068h0l.009-.069h0l.009-.068h0l.009-.067h0l.009-.066h0l.009-.066h0l.009-.066h0l.009-.065h0l.008-.064h0l.009-.064h0l.009-.064h0l.008-.063h0l.009-.062h0l.009-.062h0l.008-.061h0l.008-.06h0l.008-.06h0l.008-.059h0l.008-.059h0l.008-.058h0l.007-.058h0l.008-.057h0l.008-.056h0l.008-.056h0l.007-.055h0l.007-.055h0l.008-.053h0l.007-.053h0l.007-.052h0l.007-.051h0l.007-.051h0l.007-.051h0l.007-.049h0l.007-.049h0l.007-.048,4.385-7.753Z" transform="translate(-1265.216 -688.636)" fill="#0e1632" fill-rule="evenodd"/>
        <path id="Trazado_120256" data-name="Trazado 120256" d="M1352.906,734.929c-2.626,7.175-3.34,31.781-1.177,44.992h11.521c-4.712-26.223,5.185-44.979,3.01-51.624C1362.779,717.659,1354.632,730.214,1352.906,734.929Z" transform="translate(-1264.394 -681.311)" fill="#383d5d" fill-rule="evenodd"/>
        <path id="Trazado_120257" data-name="Trazado 120257" d="M1443.77,690.9l1.284-.563a37.048,37.048,0,0,0,3.736-5.724c-.306.582-2.329,4.119-5.291,1.957-3.221-2.352-3.35,1.372-3.35,1.372a14.871,14.871,0,0,0,3.08,2.73c.146.067.33.144.541.227Zm5.059-6.364v0h0Z" transform="translate(-1309.18 -661.538)" fill="#010518" fill-rule="evenodd"/>
        <path id="Trazado_120258" data-name="Trazado 120258" d="M1440.613,692.959a3.673,3.673,0,1,0,3.275,4.032A3.674,3.674,0,0,0,1440.613,692.959Z" transform="translate(-1307.389 -665.735)" fill="#e8685b" fill-rule="evenodd"/>
        <path id="Trazado_120259" data-name="Trazado 120259" d="M1390.078,687.772c-.092,0-.182.012-.272.023h0a3.673,3.673,0,1,0,2.993.993c0,1.088-.283,2.411-1.673,2.428l.218-2.106A1.263,1.263,0,0,0,1390.078,687.772Z" transform="translate(-1282.434 -663.155)" fill="#e8685b" fill-rule="evenodd"/>
        <path id="Trazado_120260" data-name="Trazado 120260" d="M1410.142,653.6h0a12.616,12.616,0,0,0-13.808,11.217l-1.177,11.371A12.616,12.616,0,0,0,1406.373,690h0a12.616,12.616,0,0,0,13.808-11.217l1.178-11.371A12.616,12.616,0,0,0,1410.142,653.6Z" transform="translate(-1286.682 -646.06)" fill="#f4ad85" fill-rule="evenodd"/>
        <path id="Trazado_120261" data-name="Trazado 120261" d="M1396.127,673.476l-.971,9.378a12.628,12.628,0,0,0,8.018,13.042c-7.321-3.033-3.568-15.759-3.568-15.759,1.483-.253,3.821-3.016,5.18-4.624s2.411-3.231,4.757-3.183a48.442,48.442,0,0,1,7.3,1.279,13.792,13.792,0,0,0,4.031,5.106l.481-4.641a12.477,12.477,0,0,0-.238-4.039c-.3-.178-.615-.359-.944-.544C1410.1,663.828,1401.55,668.411,1396.127,673.476Z" transform="translate(-1286.681 -652.724)" fill="#ed9072" fill-rule="evenodd"/>
        <path id="Trazado_120262" data-name="Trazado 120262" d="M1429.54,670.871l-2.035.864a6,6,0,0,0-4.1-.66s-4.467-1.642-6.833-.727-.975-2.372-.541-2.516a28.9,28.9,0,0,1,6.873-.052c1.957.375,4.9.835,4.9.835Z" transform="translate(-1296.736 -653.08)" fill="#010518" fill-rule="evenodd"/>
        <path id="Trazado_120263" data-name="Trazado 120263" d="M1395.975,686.557l1.206.212s.837,3.811-1.529,3.841l.218-2.107a1.2,1.2,0,0,0-.025-.4Z" transform="translate(-1286.963 -662.548)" fill="#010518" fill-rule="evenodd"/>
        <path id="Trazado_120264" data-name="Trazado 120264" d="M1412.752,662.292c-1.838-2.482-4.843-2.988-7.179.5-2.134,3.183-5.3,8.692-10.638,8.242l-.026-.1.012,0,.3-3.554s-.449.118-.994.246a22.944,22.944,0,0,1-.184-6.37c.618-4.467,6.832-10.991,13.842-11.243s12.081,3.911,13.085,6.286a52.927,52.927,0,0,1,2,7.76l-1.233,1.763-1.329,3.506c-3.225-3.137-2.894-6.1-4.3-7.6C1415.351,660.921,1414.215,660.919,1412.752,662.292Z" transform="translate(-1286.085 -644.296)" fill="#0e1632" fill-rule="evenodd"/>
        <path id="Trazado_120265" data-name="Trazado 120265" d="M1405.044,677.742c-2.116,3.2-5.151,7.54-9.908,7.139l-.027-.1.012,0,.3-3.554s-.449.118-.995.246c-.047-.307-.092-.628-.132-.96C1399.667,682.075,1405.026,677.755,1405.044,677.742Z" transform="translate(-1286.285 -658.147)" fill="#010518" fill-rule="evenodd"/>
        <path id="Trazado_120266" data-name="Trazado 120266" d="M1426.376,733.987s3.273,26.853,3.209,27.725-.934,5.071-.934,5.071a17.709,17.709,0,0,0,1.968-4.845c.388-2.2,1.421-17.051,1.421-17.051l-1.743-.936,1.615-.1-2.665-8.342a2.357,2.357,0,0,0-.726-.862c-.42-.242-1.949-1.01-1.974-1.021a1,1,0,0,0-.6.073S1426.265,733.917,1426.376,733.987Z" transform="translate(-1302.089 -686.043)" fill="#484e6a" fill-rule="evenodd"/>
        <path id="Trazado_120267" data-name="Trazado 120267" d="M1390.9,722.936s4.658,22.566,5.3,29.125a23.293,23.293,0,0,1-.4,7.272c.858-6.71-8.584-22.5-8.584-22.5l2.454-1.163-3.294-1.486s1.518-8.493,1.615-9.913c.094-1.381-.638-1.638-.679-1.651C1388.387,722.671,1389.581,722.771,1390.9,722.936Z" transform="translate(-1282.326 -680.555)" fill="#484e6a" fill-rule="evenodd"/>
        <path id="Trazado_120268" data-name="Trazado 120268" d="M1193.957,844.885h4.078a2.964,2.964,0,0,0,2.956-2.955h0a2.964,2.964,0,0,0-2.956-2.955h-10.773a2.353,2.353,0,0,1-2.346-2.345h0a2.353,2.353,0,0,1,2.346-2.346h284.606a2.353,2.353,0,0,1,2.346,2.346h0a2.354,2.354,0,0,1-2.346,2.345h-14.774a2.964,2.964,0,0,0-2.955,2.955h0a2.964,2.964,0,0,0,2.955,2.955h3.462a4.7,4.7,0,0,1,4.691,4.691h0a4.705,4.705,0,0,1-4.691,4.691h-266.6a4.706,4.706,0,0,1-4.691-4.691h0a4.7,4.7,0,0,1,4.691-4.691Zm-13.034-10.6a2.346,2.346,0,1,1-2.346,2.346A2.346,2.346,0,0,1,1180.923,834.284Z" transform="translate(-1178.577 -736.308)" fill="#01020e" fill-rule="evenodd"/>
      </g>
      <g id="Grupo_60086" data-name="Grupo 60086" transform="translate(1303.933 531.542)">
        <path id="Trazado_120269" data-name="Trazado 120269" d="M1475.156,588.729h-21.38A3.782,3.782,0,0,0,1450,592.5v18.624a.81.81,0,0,0,.5.75h0a.805.805,0,0,0,.884-.175l5.548-5.549h18.217a3.782,3.782,0,0,0,3.773-3.772V592.5a3.783,3.783,0,0,0-3.773-3.772Zm-21.38.881h21.38a2.9,2.9,0,0,1,2.892,2.892v9.877a2.9,2.9,0,0,1-2.892,2.892h-18.582l-5.69,5.69V592.5a2.9,2.9,0,0,1,2.891-2.892Z" transform="translate(-1450.004 -588.729)" fill="#1a293d" fill-rule="evenodd"/>
        <path id="Trazado_120270" data-name="Trazado 120270" d="M1478.678,595.6a.241.241,0,1,0,0-.481h-21.736a.241.241,0,1,0,0,.481Z" transform="translate(-1453.348 -591.922)" fill="#1a293d" fill-rule="evenodd"/>
        <path id="Trazado_120271" data-name="Trazado 120271" d="M1478.678,600.3a.241.241,0,0,0,0-.482h-2.3a.241.241,0,0,0,0,.482Zm-5.368,0a.241.241,0,1,0,0-.482h-16.368a.241.241,0,1,0,0,.482Z" transform="translate(-1453.348 -594.264)" fill="#1a293d" fill-rule="evenodd"/>
        <path id="Trazado_120272" data-name="Trazado 120272" d="M1478.678,604.987a.241.241,0,0,0,0-.482h-21.736a.241.241,0,1,0,0,.482Z" transform="translate(-1453.348 -596.606)" fill="#1a293d" fill-rule="evenodd"/>
        <path id="Trazado_120273" data-name="Trazado 120273" d="M1472.634,611.347a.241.241,0,0,0,0-.481h-15.692a.241.241,0,1,0,0,.481Z" transform="translate(-1453.348 -599.782)" fill="#1a293d" fill-rule="evenodd"/>
        <path id="Trazado_120274" data-name="Trazado 120274" d="M1465.627,616.436a.241.241,0,1,0,0-.482h-8.685a.241.241,0,1,0,0,.482Z" transform="translate(-1453.348 -602.322)" fill="#1a293d" fill-rule="evenodd"/>
        <path id="Trazado_120275" data-name="Trazado 120275" d="M1481.13,616.436a.241.241,0,0,0,0-.482h-3.105a.241.241,0,0,0,0,.482Z" transform="translate(-1463.875 -602.322)" fill="#1a293d" fill-rule="evenodd"/>
      </g>
    </g>
    <rect id="Rectángulo_7499" data-name="Rectángulo 7499" width="387" height="238" transform="translate(193 1108)" fill="none"/>
  </g>
</svg>
