<svg xmlns="http://www.w3.org/2000/svg" width="314.92" height="399.847" viewBox="0 0 314.92 399.847">
  <g id="Grupo_54372" data-name="Grupo 54372" transform="translate(-230.763 -215)">
    <path id="Trazado_102237" data-name="Trazado 102237" d="M575.629,624.377l-4.936.95-2.131-10.116-6.4,1.23c-15.271-35.8-17.342-39.709-20.581-52.069h2.708a8.671,8.671,0,0,0,8.663-8.663V290.475a8.673,8.673,0,0,0-8.663-8.663H485.711c-8.123-4.977-15.555-4.477-20.642-4.477,0-8.423-7.688-15.255-17.171-15.255s-17.175,6.832-17.175,15.255c-5.021,0-12.495-.52-20.642,4.477H351.5a8.674,8.674,0,0,0-8.663,8.663V488.365c-11.833,12.917-29.467,34.846-31.509,41.454-2.066,6.694-5.143,59.039-6.641,86.582l-6.191-1.189-2.131,10.116-4.936-.95-3.824,18.438h86.485l.479-2.456-4.932-.946,2.131-10.116-2.691-.52a231.544,231.544,0,0,0,6.694-36.006c.507-.146,1.165-.349,1.165-.349,10.485-3.414,12.56-9.28,11.029-28.05h70.738c-.7,5.192,1,10.461,2.33,12.069.325.394,2.086,2,4.254,3.881-4.741,9.06-4.4,12.9.7,20.881,1.1,1.717,6.369,8.212,11.1,7.1,4.043,9.531,13.826,9.223,13.826,9.223a20.1,20.1,0,0,0,1.9,2.553h0c1.786,2.237,4.53,5.553,6.876,8.37l-4.4.848,2.131,10.116-4.932.946.479,2.456h86.485ZM447.894,281.654a7.461,7.461,0,1,1,7.461-7.461A7.462,7.462,0,0,1,447.894,281.654Z" transform="translate(-33.771 -27.969)" opacity="0.15"/>
    <g id="Grupo_54371" data-name="Grupo 54371" transform="translate(230.763 215)">
      <g id="Grupo_54319" data-name="Grupo 54319" transform="translate(20.162 215.561)">
        <g id="Grupo_54318" data-name="Grupo 54318">
          <path id="Trazado_102238" data-name="Trazado 102238" d="M339.693,754.831l1.265,157.16L280.43,901.606s4.7-94.266,7.526-103.407,35.511-47.628,41.357-50.966a10.087,10.087,0,0,1,5.232-1.206,9.968,9.968,0,0,1,5.025,1.579l11.284,7.138Z" transform="translate(-280.43 -746.022)" fill="#f0ae74"/>
          <path id="Trazado_102239" data-name="Trazado 102239" d="M351.964,853.658s-5.228-10.483-.638-25.347,11.58-22.235,17.171-24.9,21.39,43.64,1.579,51.53C358.72,859.459,351.964,853.658,351.964,853.658Z" transform="translate(-321.426 -780.046)" fill="#dc9964" opacity="0.54"/>
          <path id="Trazado_102240" data-name="Trazado 102240" d="M355.308,874.2q-.355.971-.767,1.971c-2.827-.834-5.365-1.52-5.883-1.631-5.166-1.107-10.3-.96-15.454-1.561A62.813,62.813,0,0,1,355.308,874.2Z" transform="translate(-311.781 -821.155)" fill="#dc9964" opacity="0.85"/>
          <path id="Trazado_102241" data-name="Trazado 102241" d="M385.975,830.659c-.022.245-.044.49-.067.731-2.339-.688-4.676-1.42-7.021-2.176,1.4.331,2.87.569,4.18.851C384.033,830.275,385.005,830.472,385.975,830.659Z" transform="translate(-338.92 -795.444)" fill="#dc9964" opacity="0.85"/>
          <path id="Trazado_102242" data-name="Trazado 102242" d="M373.828,761.118c-.021.1-.039.2-.058.3l-2.122,11.626c-.595,2.415-2.5,10.188-2.782,11.889a73.291,73.291,0,0,1-3.351,12.912s0,.009,0,.013a103.958,103.958,0,0,1-13.792,25.423c-.158.222-.319.444-.48.667l-4.124,4.167a18.065,18.065,0,0,1,2.61-5.262c7.377-10.2,11.711-18.12,14.051-25.7.434-1.4.8-2.787,1.111-4.169v-.007a70.673,70.673,0,0,0,1.906-8.389c.218-1.327,1.306-5.88,2.211-9.586V775c.211-.862.41-1.679.589-2.4,0,0,2.155-11.805,2.178-11.915a13.941,13.941,0,0,1,2.636-5.726c1.7-2.184,5.837-3.389,5.837-3.389l1.193.756A11.955,11.955,0,0,0,373.828,761.118Z" transform="translate(-320.045 -749.32)" fill="#dc9964" opacity="0.85"/>
        </g>
        <path id="Trazado_102243" data-name="Trazado 102243" d="M457.724,854.465c.6-4.779.168-12.37-.12-16.255.793-4.445-.222-8.289-.284-11.1a98.561,98.561,0,0,0-1.355-11.2,61.158,61.158,0,0,0-.527-6.233c-.327-2.863-5.176-14.123-7.163-18.647,6.182,1.274,11.421-.863,12.47-5.208.895-3.712-7.269-14.06-12.556-20.272-1.107-1.3-11.072-8.67-11.072-8.67l4.038,111.7C454.277,866.222,456.894,861.108,457.724,854.465Z" transform="translate(-373.512 -752.473)" fill="#e4a16a"/>
        <path id="Trazado_102244" data-name="Trazado 102244" d="M484.415,806.714a5.549,5.549,0,0,1-2.063-.115c-1.46-.436-4.676-4.554-4.95-5.683a13.624,13.624,0,0,1,.348-5.321c.047.055.091.11.137.163q.492.582.936,1.1c3.038,3.562,4.882,6.674,5.468,9.2,0,.011.007.025.009.036Q484.373,806.413,484.415,806.714Z" transform="translate(-397.368 -775.471)" fill="#f6e2ca"/>
        <path id="Trazado_102245" data-name="Trazado 102245" d="M457.886,870.731a119.47,119.47,0,0,1-.6,13.646q-1.013.367-2.17.691a105.491,105.491,0,0,0-1.761-35.037,158,158,0,0,1,1.58-25.4c.236-1.677,2.645-18.058,2.929-19.269a140.239,140.239,0,0,0,2.667-19.069c.643.79,1.3,1.611,1.95,2.445a159.28,159.28,0,0,1-2.571,17.1c-.06.266-.24,1.363-.481,2.91-.5-.054-1.012-.14-1.529-.245.322.732.718,1.642,1.16,2.664-.783,5.121-1.836,12.253-2.044,13.754a166,166,0,0,0-1.6,22.327,59.2,59.2,0,0,0,6.437-3.383c3.161-1.986,3.807-6.476,3.735-10.481.324,1.963.724,4.549,1,6.937a9.141,9.141,0,0,1-3.75,5.126,65.2,65.2,0,0,1-7.407,3.85c0,.2.007.354.011.465a99.243,99.243,0,0,1,2.391,18.916,15.3,15.3,0,0,0,4.922-3.835,19.243,19.243,0,0,0,4.466-9.163c.1,1.366.219,3.185.3,5.181a23.366,23.366,0,0,1-3.34,5.183A17.436,17.436,0,0,1,457.886,870.731Z" transform="translate(-383.136 -769.944)" fill="#dc9964" opacity="0.85"/>
      </g>
      <g id="Grupo_54360" data-name="Grupo 54360" transform="translate(59.196 0)">
        <path id="Rectángulo_5470" data-name="Rectángulo 5470" d="M21.337,0H261.221a21.336,21.336,0,0,1,21.336,21.336V188.771a21.336,21.336,0,0,1-21.336,21.336H21.336A21.336,21.336,0,0,1,0,188.771V21.337A21.337,21.337,0,0,1,21.337,0Z" transform="translate(210.107 19.734) rotate(90)" fill="#32526e"/>
        <rect id="Rectángulo_5471" data-name="Rectángulo 5471" width="180.201" height="251.525" transform="translate(21.083 33.201) rotate(1.896)" fill="#f2f2f2"/>
        <rect id="Rectángulo_5472" data-name="Rectángulo 5472" width="180.201" height="251.525" transform="matrix(0.999, -0.052, 0.052, 0.999, 7.216, 36.868)" fill="#e6e6e6"/>
        <rect id="Rectángulo_5473" data-name="Rectángulo 5473" width="180.201" height="251.525" transform="translate(189.716 284.701) rotate(-178.831)" fill="#f2f2f2"/>
        <rect id="Rectángulo_5474" data-name="Rectángulo 5474" width="180.201" height="251.525" transform="translate(14.924 33.201)" fill="#fff"/>
        <g id="Grupo_54358" data-name="Grupo 54358" transform="translate(21.331 33.201)">
          <rect id="Rectángulo_5475" data-name="Rectángulo 5475" width="180.201" height="251.525" fill="#fff"/>
          <rect id="Rectángulo_5476" data-name="Rectángulo 5476" width="55.441" height="55.441" transform="translate(6.407 57.474)" fill="#e6e6e6"/>
          <rect id="Rectángulo_5477" data-name="Rectángulo 5477" width="55.441" height="55.441" transform="translate(6.407 127.146)" fill="#e6e6e6"/>
          <g id="Grupo_54320" data-name="Grupo 54320" transform="translate(11.915 63.809)">
            <path id="Trazado_102246" data-name="Trazado 102246" d="M480.872,530.853a20.565,20.565,0,0,1-17.583-16.89l19.97-2.28,16.707,11.169A20.546,20.546,0,0,1,480.872,530.853Z" transform="translate(-461.341 -488.259)" fill="#e99610"/>
            <path id="Trazado_102247" data-name="Trazado 102247" d="M500.759,454.558a22.282,22.282,0,0,1,17.659,3.343,22.449,22.449,0,0,1,6.175,6.436L506.527,474.45Z" transform="translate(-483.601 -453.979)" fill="#ff856d"/>
            <path id="Trazado_102248" data-name="Trazado 102248" d="M536.413,484.527a22.25,22.25,0,0,1-.833,21.168l-16.854-11.268Z" transform="translate(-494.274 -472.126)" fill="#2790b0"/>
            <path id="Trazado_102249" data-name="Trazado 102249" d="M458.682,475.1A22.289,22.289,0,0,1,473.4,457.015l5.792,19.974-20.662,2.359A22.419,22.419,0,0,1,458.682,475.1Z" transform="translate(-458.49 -455.783)" fill="#3faa96"/>
          </g>
          <g id="Grupo_54321" data-name="Grupo 54321" transform="translate(11.915 132.654)">
            <path id="Trazado_102250" data-name="Trazado 102250" d="M482.414,703.538l-3.868,7.991a22.287,22.287,0,0,1-9.088-7.114l7.658-4.61A13.407,13.407,0,0,0,482.414,703.538Z" transform="translate(-465.006 -668.861)" fill="#ff856d"/>
            <path id="Trazado_102251" data-name="Trazado 102251" d="M469.291,673.141,461.7,677.71a22.263,22.263,0,0,1-1.622-19.769l8,3.895a13.346,13.346,0,0,0,1.213,11.306Z" transform="translate(-458.491 -643.991)" fill="#3faa96"/>
            <path id="Trazado_102252" data-name="Trazado 102252" d="M498.142,628.35l-5.841,6.688a13.342,13.342,0,0,0-19.647,4.357l-7.972-3.88a22.219,22.219,0,0,1,33.46-7.165Z" transform="translate(-462.169 -623.575)" fill="#e99610"/>
            <path id="Trazado_102253" data-name="Trazado 102253" d="M525.789,654.909a22.23,22.23,0,0,1-28.8,21.22L500.926,668a13.353,13.353,0,0,0,12.236-22.388L519,638.929A22.144,22.144,0,0,1,525.789,654.909Z" transform="translate(-481.364 -632.696)" fill="#2790b0"/>
          </g>
          <rect id="Rectángulo_5478" data-name="Rectángulo 5478" width="26.209" height="6.188" transform="translate(13.863 117.173)" fill="gray"/>
          <rect id="Rectángulo_5479" data-name="Rectángulo 5479" width="34.986" height="6.188" transform="translate(13.863 47.08)" fill="gray"/>
          <rect id="Rectángulo_5480" data-name="Rectángulo 5480" width="77.477" height="13.032" transform="translate(13.863 10.816)" fill="gray"/>
          <rect id="Rectángulo_5481" data-name="Rectángulo 5481" width="34.986" height="8.603" transform="translate(13.863 29.796)" fill="#2790b0"/>
          <rect id="Rectángulo_5482" data-name="Rectángulo 5482" width="34.986" height="8.603" transform="translate(55.511 29.796)" fill="#ff856d"/>
          <rect id="Rectángulo_5483" data-name="Rectángulo 5483" width="34.986" height="8.603" transform="translate(97.159 29.796)" fill="#e99610"/>
          <rect id="Rectángulo_5484" data-name="Rectángulo 5484" width="34.986" height="8.603" transform="translate(138.808 29.796)" fill="#3faa96"/>
          <g id="Grupo_54323" data-name="Grupo 54323" transform="translate(52.792 114.492)">
            <g id="Grupo_54322" data-name="Grupo 54322">
              <rect id="Rectángulo_5485" data-name="Rectángulo 5485" width="1.907" height="6.018" transform="translate(7.15 4.469)" fill="#ff856d"/>
              <rect id="Rectángulo_5486" data-name="Rectángulo 5486" width="1.907" height="7.805" transform="translate(3.575 2.681)" fill="#ff856d"/>
              <rect id="Rectángulo_5487" data-name="Rectángulo 5487" width="1.907" height="10.487" fill="#ff856d"/>
            </g>
          </g>
          <g id="Grupo_54325" data-name="Grupo 54325" transform="translate(52.792 42.393)">
            <g id="Grupo_54324" data-name="Grupo 54324">
              <rect id="Rectángulo_5488" data-name="Rectángulo 5488" width="1.907" height="6.018" transform="translate(0 4.469)" fill="#3faa96"/>
              <rect id="Rectángulo_5489" data-name="Rectángulo 5489" width="1.907" height="7.805" transform="translate(3.575 2.681)" fill="#3faa96"/>
              <rect id="Rectángulo_5490" data-name="Rectángulo 5490" width="1.907" height="10.487" transform="translate(7.15)" fill="#3faa96"/>
            </g>
          </g>
          <g id="Grupo_54327" data-name="Grupo 54327" transform="translate(157.552 9.854)">
            <g id="Grupo_54326" data-name="Grupo 54326">
              <rect id="Rectángulo_5491" data-name="Rectángulo 5491" width="1.907" height="6.018" transform="translate(0 4.469)" fill="#3faa96"/>
              <rect id="Rectángulo_5492" data-name="Rectángulo 5492" width="1.907" height="7.805" transform="translate(3.575 2.681)" fill="#3faa96"/>
              <rect id="Rectángulo_5493" data-name="Rectángulo 5493" width="1.907" height="10.486" transform="translate(7.15)" fill="#3faa96"/>
            </g>
          </g>
          <g id="Grupo_54328" data-name="Grupo 54328" transform="translate(70.186 41.244)">
            <rect id="Rectángulo_5494" data-name="Rectángulo 5494" width="103.608" height="60.721" fill="#e6e6e6"/>
            <rect id="Rectángulo_5495" data-name="Rectángulo 5495" width="98.788" height="13.227" transform="translate(1.337 4.351)" fill="#fff"/>
            <rect id="Rectángulo_5496" data-name="Rectángulo 5496" width="98.788" height="13.227" transform="translate(1.337 32.939)" fill="#fff"/>
            <rect id="Rectángulo_5497" data-name="Rectángulo 5497" width="8.937" height="8.937" transform="translate(3.661 6.255)" fill="#ff856d"/>
            <rect id="Rectángulo_5498" data-name="Rectángulo 5498" width="8.937" height="8.937" transform="translate(3.661 20.79)" fill="#2790b0"/>
            <rect id="Rectángulo_5499" data-name="Rectángulo 5499" width="8.937" height="8.937" transform="translate(3.661 35.325)" fill="#3faa96"/>
            <rect id="Rectángulo_5500" data-name="Rectángulo 5500" width="8.937" height="8.937" transform="translate(3.661 49.86)" fill="#e99610"/>
          </g>
          <rect id="Rectángulo_5501" data-name="Rectángulo 5501" width="167.387" height="13.294" transform="translate(6.407 189.769)" fill="#e6e6e6"/>
          <rect id="Rectángulo_5502" data-name="Rectángulo 5502" width="167.387" height="13.293" transform="translate(6.407 203.063)" fill="#fff"/>
          <rect id="Rectángulo_5503" data-name="Rectángulo 5503" width="167.387" height="13.293" transform="translate(6.407 216.356)" fill="#e6e6e6"/>
          <rect id="Rectángulo_5504" data-name="Rectángulo 5504" width="167.387" height="13.293" transform="translate(6.407 229.65)" fill="#fff"/>
          <g id="Grupo_54329" data-name="Grupo 54329" transform="translate(9.335 191.173)">
            <rect id="Rectángulo_5505" data-name="Rectángulo 5505" width="1.907" height="6.018" transform="translate(0 4.469)" fill="#2790b0"/>
            <rect id="Rectángulo_5506" data-name="Rectángulo 5506" width="1.907" height="7.805" transform="translate(3.575 2.681)" fill="#2790b0"/>
            <rect id="Rectángulo_5507" data-name="Rectángulo 5507" width="1.907" height="10.486" transform="translate(7.15)" fill="#2790b0"/>
          </g>
          <g id="Grupo_54331" data-name="Grupo 54331" transform="translate(8.854 204.466)">
            <g id="Grupo_54330" data-name="Grupo 54330">
              <rect id="Rectángulo_5508" data-name="Rectángulo 5508" width="1.907" height="6.018" transform="translate(7.15 4.469)" fill="#ff856d"/>
              <rect id="Rectángulo_5509" data-name="Rectángulo 5509" width="1.907" height="7.805" transform="translate(3.575 2.681)" fill="#ff856d"/>
              <rect id="Rectángulo_5510" data-name="Rectángulo 5510" width="1.907" height="10.486" fill="#ff856d"/>
            </g>
          </g>
          <g id="Grupo_54333" data-name="Grupo 54333" transform="translate(9.335 217.76)">
            <g id="Grupo_54332" data-name="Grupo 54332">
              <rect id="Rectángulo_5511" data-name="Rectángulo 5511" width="1.907" height="6.018" transform="translate(0 4.469)" fill="#3faa96"/>
              <rect id="Rectángulo_5512" data-name="Rectángulo 5512" width="1.907" height="7.805" transform="translate(3.575 2.681)" fill="#3faa96"/>
              <rect id="Rectángulo_5513" data-name="Rectángulo 5513" width="1.907" height="10.487" transform="translate(7.15)" fill="#3faa96"/>
            </g>
          </g>
          <g id="Grupo_54334" data-name="Grupo 54334" transform="translate(9.335 231.053)">
            <rect id="Rectángulo_5514" data-name="Rectángulo 5514" width="1.907" height="6.018" transform="translate(9.057 10.487) rotate(180)" fill="#e99610"/>
            <rect id="Rectángulo_5515" data-name="Rectángulo 5515" width="1.907" height="7.805" transform="translate(5.482 10.487) rotate(180)" fill="#e99610"/>
            <rect id="Rectángulo_5516" data-name="Rectángulo 5516" width="1.907" height="10.487" transform="translate(1.907 10.487) rotate(180)" fill="#e99610"/>
          </g>
          <rect id="Rectángulo_5517" data-name="Rectángulo 5517" width="33.106" height="3.662" transform="translate(22.493 194.585)" fill="gray"/>
          <rect id="Rectángulo_5518" data-name="Rectángulo 5518" width="33.106" height="3.662" transform="translate(22.493 207.879)" fill="gray"/>
          <rect id="Rectángulo_5519" data-name="Rectángulo 5519" width="33.106" height="3.662" transform="translate(22.493 221.172)" fill="gray"/>
          <rect id="Rectángulo_5520" data-name="Rectángulo 5520" width="33.106" height="3.662" transform="translate(22.493 234.466)" fill="gray"/>
          <rect id="Rectángulo_5521" data-name="Rectángulo 5521" width="25.986" height="3.662" transform="translate(142.783 194.585)" fill="#2790b0"/>
          <rect id="Rectángulo_5522" data-name="Rectángulo 5522" width="14.165" height="3.662" transform="translate(154.604 207.879)" fill="#ff856d"/>
          <rect id="Rectángulo_5523" data-name="Rectángulo 5523" width="25.986" height="3.662" transform="translate(142.783 221.172)" fill="#3faa96"/>
          <rect id="Rectángulo_5524" data-name="Rectángulo 5524" width="14.165" height="2.605" transform="translate(154.604 235.522)" fill="#e99610"/>
          <g id="Grupo_54357" data-name="Grupo 54357" transform="translate(80.863 91.103)">
            <g id="Grupo_54351" data-name="Grupo 54351" transform="translate(7.877 11.092)">
              <g id="Grupo_54342" data-name="Grupo 54342" transform="translate(5.911)">
                <g id="Grupo_54335" data-name="Grupo 54335">
                  <rect id="Rectángulo_5525" data-name="Rectángulo 5525" width="0.37" height="71.009" fill="#b3b3b3"/>
                </g>
                <g id="Grupo_54336" data-name="Grupo 54336" transform="translate(9.803)">
                  <rect id="Rectángulo_5526" data-name="Rectángulo 5526" width="0.37" height="71.009" fill="#b3b3b3"/>
                </g>
                <g id="Grupo_54337" data-name="Grupo 54337" transform="translate(19.606)">
                  <rect id="Rectángulo_5527" data-name="Rectángulo 5527" width="0.37" height="71.009" fill="#b3b3b3"/>
                </g>
                <g id="Grupo_54338" data-name="Grupo 54338" transform="translate(29.409)">
                  <rect id="Rectángulo_5528" data-name="Rectángulo 5528" width="0.37" height="71.009" fill="#b3b3b3"/>
                </g>
                <g id="Grupo_54339" data-name="Grupo 54339" transform="translate(39.212)">
                  <rect id="Rectángulo_5529" data-name="Rectángulo 5529" width="0.37" height="71.009" fill="#b3b3b3"/>
                </g>
                <g id="Grupo_54340" data-name="Grupo 54340" transform="translate(49.015)">
                  <rect id="Rectángulo_5530" data-name="Rectángulo 5530" width="0.37" height="71.009" fill="#b3b3b3"/>
                </g>
                <g id="Grupo_54341" data-name="Grupo 54341" transform="translate(58.818)">
                  <rect id="Rectángulo_5531" data-name="Rectángulo 5531" width="0.37" height="71.009" fill="#b3b3b3"/>
                </g>
              </g>
              <g id="Grupo_54350" data-name="Grupo 54350" transform="translate(0 5.911)">
                <g id="Grupo_54343" data-name="Grupo 54343">
                  <rect id="Rectángulo_5532" data-name="Rectángulo 5532" width="71.009" height="0.37" fill="#b3b3b3"/>
                </g>
                <g id="Grupo_54344" data-name="Grupo 54344" transform="translate(0 9.803)">
                  <rect id="Rectángulo_5533" data-name="Rectángulo 5533" width="71.009" height="0.37" fill="#b3b3b3"/>
                </g>
                <g id="Grupo_54345" data-name="Grupo 54345" transform="translate(0 19.606)">
                  <rect id="Rectángulo_5534" data-name="Rectángulo 5534" width="71.009" height="0.37" fill="#b3b3b3"/>
                </g>
                <g id="Grupo_54346" data-name="Grupo 54346" transform="translate(0 29.409)">
                  <rect id="Rectángulo_5535" data-name="Rectángulo 5535" width="71.009" height="0.37" fill="#b3b3b3"/>
                </g>
                <g id="Grupo_54347" data-name="Grupo 54347" transform="translate(0 39.212)">
                  <rect id="Rectángulo_5536" data-name="Rectángulo 5536" width="71.009" height="0.37" fill="#b3b3b3"/>
                </g>
                <g id="Grupo_54348" data-name="Grupo 54348" transform="translate(0 49.015)">
                  <rect id="Rectángulo_5537" data-name="Rectángulo 5537" width="71.009" height="0.37" fill="#b3b3b3"/>
                </g>
                <g id="Grupo_54349" data-name="Grupo 54349" transform="translate(0 58.818)">
                  <rect id="Rectángulo_5538" data-name="Rectángulo 5538" width="71.009" height="0.37" fill="#b3b3b3"/>
                </g>
              </g>
            </g>
            <g id="Grupo_54353" data-name="Grupo 54353" transform="translate(5.404 7.17)">
              <g id="Grupo_54352" data-name="Grupo 54352">
                <path id="Trazado_102254" data-name="Trazado 102254" d="M718.642,616.321h-76.99V538.879h2.512V613.81h74.479Z" transform="translate(-641.652 -538.879)" fill="#32526e"/>
              </g>
            </g>
            <path id="Trazado_102255" data-name="Trazado 102255" d="M628.34,532.751,635,521.217l6.659,11.534Z" transform="translate(-628.34 -521.217)" fill="#32526e"/>
            <path id="Trazado_102256" data-name="Trazado 102256" d="M825.987,710.156l11.534,6.659-11.534,6.659Z" transform="translate(-745.755 -633.459)" fill="#32526e"/>
            <g id="Grupo_54356" data-name="Grupo 54356" transform="translate(11.893 8.411)">
              <g id="Grupo_54354" data-name="Grupo 54354" transform="translate(3.085 3.473)">
                <path id="Trazado_102257" data-name="Trazado 102257" d="M705.988,616.175l-19.534-39.312L666.6,597.18l-1.365-1.334,21.728-22.241,18.649,37.531L725.3,550.493l1.816.589Z" transform="translate(-665.239 -550.493)" fill="#b3b3b3"/>
              </g>
              <g id="Grupo_54355" data-name="Grupo 54355" transform="translate(3.251 27.531)">
                <path id="Trazado_102258" data-name="Trazado 102258" d="M666.681,648.313l-1.034-1.6,20.942-13.5,18.992-3.748,20.2-19.705,1.333,1.367-20.611,20.1-19.191,3.787Z" transform="translate(-665.647 -609.758)" fill="#999"/>
              </g>
              <circle id="Elipse_4125" data-name="Elipse 4125" cx="3.768" cy="3.768" r="3.768" transform="translate(0 61.516)" fill="#e99610"/>
              <circle id="Elipse_4126" data-name="Elipse 4126" cx="3.768" cy="3.768" r="3.768" transform="translate(20.789 48.117)" fill="#2790b0"/>
              <circle id="Elipse_4127" data-name="Elipse 4127" cx="3.768" cy="3.768" r="3.768" transform="translate(39.881 44.35)" fill="#ff856d"/>
              <circle id="Elipse_4128" data-name="Elipse 4128" cx="3.768" cy="3.768" r="3.768" transform="translate(60.289 24.447)" fill="#3faa96"/>
              <circle id="Elipse_4129" data-name="Elipse 4129" cx="3.768" cy="3.768" r="3.768" transform="translate(0 45.726)" fill="#e99610"/>
              <circle id="Elipse_4130" data-name="Elipse 4130" cx="3.768" cy="3.768" r="3.768" transform="translate(20.789 24.447)" fill="#2790b0"/>
              <circle id="Elipse_4131" data-name="Elipse 4131" cx="3.768" cy="3.768" r="3.768" transform="translate(39.881 62.868)" fill="#ff856d"/>
              <circle id="Elipse_4132" data-name="Elipse 4132" cx="3.768" cy="3.768" r="3.768" transform="translate(60.289)" fill="#3faa96"/>
            </g>
          </g>
        </g>
        <g id="Grupo_54359" data-name="Grupo 54359" transform="translate(55.398)">
          <path id="Trazado_102259" data-name="Trazado 102259" d="M584.244,230.254h-4.354c0-8.424-7.688-15.254-17.172-15.254s-17.176,6.83-17.176,15.254h-4.355c-15.531,0-28.127,10.844-28.127,24.216h99.311C612.371,241.1,599.774,230.254,584.244,230.254Zm-21.528,4.32a7.461,7.461,0,1,1,7.461-7.461A7.461,7.461,0,0,1,562.715,234.573Z" transform="translate(-513.06 -215)" fill="#ff856d"/>
          <path id="Trazado_102260" data-name="Trazado 102260" d="M513.064,307.255h99.308a21.072,21.072,0,0,0-.278-3.4H513.342a21.072,21.072,0,0,0-.278,3.4Z" transform="translate(-513.062 -267.786)" fill="#bf6452"/>
        </g>
      </g>
      <g id="Grupo_54366" data-name="Grupo 54366" transform="translate(148.387 108.669)">
        <g id="Grupo_54361" data-name="Grupo 54361">
          <path id="Trazado_102261" data-name="Trazado 102261" d="M655.208,482.7a58.911,58.911,0,0,0-16.237,115.537V600.3L640.2,714.615a15,15,0,0,0,30.007,0L671.446,600.3v-2.062A58.911,58.911,0,0,0,655.208,482.7Zm0,107.508a48.6,48.6,0,1,1,48.6-48.607A48.607,48.607,0,0,1,655.208,590.208Z" transform="translate(-596.307 -482.7)" fill="#32526e"/>
          <path id="Trazado_102262" data-name="Trazado 102262" d="M718.876,556.673a48.6,48.6,0,1,1-48.6-48.6A48.6,48.6,0,0,1,718.876,556.673Z" transform="translate(-611.372 -497.771)" fill="#8dd8ff" opacity="0.25"/>
          <path id="Trazado_102263" data-name="Trazado 102263" d="M710.588,918.822c1.12,1.847,4.266,8.261-.9,13.2a4.965,4.965,0,0,1-3.662,1.5,14.959,14.959,0,0,1-2.98-8.809l-.954-88.352.049,4.421,4.136,4.076c6.243,6.82,5.074,12.99,3.8,17.228a4.519,4.519,0,0,1-4.08,2.89l.544.515c6.511,7.112,5.293,13.55,3.966,17.967-.613,2.046-2.915,3.1-4.823,3.032a.168.168,0,0,1-.045,0l.016,1.486c4.214,3.82,7.676,8.626,8.07,16.708.329,6.73-5.107,8.1-7.778,8.107C705.952,912.785,709.464,916.975,710.588,918.822Z" transform="translate(-659.15 -692.797)" opacity="0.12"/>
          <path id="Trazado_102264" data-name="Trazado 102264" d="M733.924,794.018l-.076,7.245H701.718l-.076-7.245Z" transform="translate(-658.883 -667.643)" fill="#ff856d"/>
          <path id="Trazado_102265" data-name="Trazado 102265" d="M733.985,824.159l-.076,7.244H702.041l-.076-7.244Z" transform="translate(-659.074 -685.548)" fill="#ff856d"/>
        </g>
        <path id="Trazado_102266" data-name="Trazado 102266" d="M739.417,786.047l.065-6,.036-3.268.057-.337s13.757,12.117,20.609,16.867,7.843,13.335,9.292,20.512,2.744,23.025,11.143,42.737c5.793,13.591,18.406,43.151,25.675,60.2H742.186a31.155,31.155,0,0,0-5.468-9.852s-13.762-16.327-13.274-16.327c.187,0,.373,0,.556-.008a14.912,14.912,0,0,0,7.522-2.35,33.711,33.711,0,0,1-7.027-7.94,23.787,23.787,0,0,1-2.147-4.128l0-.028h-.013c-.162-.4-6.344-15.742-5.813-28.7.543-13.132,1.827-23.512,1.827-23.512a24.627,24.627,0,0,0,.643-4.423c-1.133-8.987-7.721-51.723-7.788-52.791-.245-3.922.388-11.382,9.589-12.666,0,0,8.065-1.531,11.369,6.5.1.247.951,2.682,1.959,5.653C735.3,769.646,739.02,783.16,739.417,786.047Z" transform="translate(-664.543 -643.815)" fill="#f0ae74"/>
        <path id="Trazado_102267" data-name="Trazado 102267" d="M769.325,1113.307H760.13a31.153,31.153,0,0,0-5.468-9.852s-13.762-16.327-13.274-16.327a14.9,14.9,0,0,0,8.078-2.359S760.618,1092.954,769.325,1113.307Z" transform="translate(-682.487 -840.368)" fill="#dc9964" opacity="0.85"/>
        <g id="Grupo_54362" data-name="Grupo 54362" transform="translate(53.312 156.026)">
          <path id="Trazado_102268" data-name="Trazado 102268" d="M885.675,983.974h-7.636c-10.432-27.222-22.456-59-27.692-76.182-4.084-13.408-6.471-43.155-5.212-40.573,2.09,4.307,2.821,9.341,3.726,13.822,1.449,7.177,2.74,23.025,11.143,42.737C865.8,937.369,878.4,966.929,885.675,983.974Z" transform="translate(-797.238 -867.061)" fill="#dc9964" opacity="0.85"/>
          <path id="Trazado_102269" data-name="Trazado 102269" d="M746.236,942.706s-12.948-1.822-18.6-11.755c.285-2.9.5-4.611.5-4.611S729.8,937.76,746.236,942.706Z" transform="translate(-727.637 -902.277)" fill="#dc9964" opacity="0.85"/>
        </g>
        <g id="Grupo_54363" data-name="Grupo 54363" transform="translate(24.399 133.619)">
          <path id="Trazado_102270" data-name="Trazado 102270" d="M674.03,995.781s-4.379,7.523-4.042,12.071,2.751,8.085,4.042,10.106,8.365,10.668,13.531,5.727,2.021-11.354.9-13.2-4.633-6.037-4.633-6.037Z" transform="translate(-664.466 -921.123)" fill="#f0ae74"/>
          <path id="Trazado_102271" data-name="Trazado 102271" d="M678.825,966.159a4.26,4.26,0,0,1-1.206-.132c-1.823-.589-12.693-10.084-13.549-11.119-.84-1.015-1.59-2.76-2.284-6.623-1.4-7.8,3.93-16.956,3.93-16.956l12.727,1.834.088,8.178c4.213,3.82,7.677,8.627,8.07,16.712C686.93,964.782,681.493,966.156,678.825,966.159Z" transform="translate(-659.465 -882.834)" fill="#f0ae74"/>
          <path id="Trazado_102272" data-name="Trazado 102272" d="M690.4,984.2s-6.6-3.625-8.828.448,7.748,10.968,7.748,10.968S692.21,993.467,690.4,984.2Z" transform="translate(-671.167 -913.361)" fill="#f6e2ca" opacity="0.79"/>
          <path id="Trazado_102273" data-name="Trazado 102273" d="M692.236,1047.839c-.34.115-.437-.564-.645-.843-2.768-3.716-4.258-7.1-2.639-8.926,1.741-1.965,6.569,0,6.569,0S697.879,1045.93,692.236,1047.839Z" transform="translate(-675.345 -945.726)" fill="#f6e2ca" opacity="0.79"/>
          <path id="Trazado_102274" data-name="Trazado 102274" d="M683.073,945.05a6.807,6.807,0,0,1-.99.034,16.692,16.692,0,0,1-6.791-2.134,37.421,37.421,0,0,1-7.811-5.219c.279-.669.548-1.264.788-1.772a40.46,40.46,0,0,0,7.022,4.521,16.458,16.458,0,0,0,6.747,2.132l.016,1.481C682.385,944.393,682.754,944.738,683.073,945.05Z" transform="translate(-662.988 -885.585)" opacity="0.12"/>
          <path id="Trazado_102275" data-name="Trazado 102275" d="M689.217,1008.1a9.1,9.1,0,0,1-1.44.121,4.258,4.258,0,0,1-1.206-.133c-1.2-.388-6.346-4.655-9.951-7.809.238-.492.46-.934.656-1.309,3.544,3.075,8.163,6.872,9.3,7.238a4.252,4.252,0,0,0,1.206.132S688.406,1007.1,689.217,1008.1Z" transform="translate(-668.417 -923.019)" opacity="0.12"/>
          <path id="Trazado_102276" data-name="Trazado 102276" d="M680.331,895.094c-.613,2.044-2.917,3.1-4.823,3.032a16.7,16.7,0,0,1-6.791-2.134c-1.722-1.049-15.559-7.187-11.593-17.966,3.98-10.809,15.025-15.808,17.94-16.953l.163,14.979,1.137,1.076C682.876,884.241,681.656,890.677,680.331,895.094Z" transform="translate(-656.412 -841.097)" fill="#f0ae74"/>
          <path id="Trazado_102277" data-name="Trazado 102277" d="M682.673,921.21s-5.362-1.04-6.007,1.572,2.467,6.676,5.109,8.534,2.976,1.572,2.976,1.572A13.3,13.3,0,0,0,682.673,921.21Z" transform="translate(-668.393 -876.701)" fill="#f6e2ca" opacity="0.79"/>
          <path id="Trazado_102278" data-name="Trazado 102278" d="M678.19,921.757a30.471,30.471,0,0,1-.747,5.107,5.387,5.387,0,0,1-.776-3.636A2.131,2.131,0,0,1,678.19,921.757Z" transform="translate(-668.393 -877.148)" fill="#fff" opacity="0.5"/>
          <path id="Trazado_102279" data-name="Trazado 102279" d="M680.708,844.487c-.588,1.96-2.8,2.972-4.625,2.907a16,16,0,0,1-6.512-2.046c-1.652-1.006-14.919-6.891-11.116-17.228,3.816-10.365,14.407-15.158,17.2-16.256l.156,14.363,1.09,1.032C683.148,834.079,681.978,840.251,680.708,844.487Z" transform="translate(-657.22 -811.864)" fill="#f0ae74"/>
          <path id="Trazado_102280" data-name="Trazado 102280" d="M683.99,891.7a5.312,5.312,0,0,1-2.2.411,16.032,16.032,0,0,1-6.513-2.047,34.224,34.224,0,0,1-7.9-5.4c.337-.431.687-.845,1.044-1.247a38.188,38.188,0,0,0,6.852,4.438,15.985,15.985,0,0,0,6.513,2.047,5.024,5.024,0,0,0,.546-.011l.543.512C683.28,890.836,683.648,891.267,683.99,891.7Z" transform="translate(-662.929 -854.37)" opacity="0.12"/>
          <path id="Trazado_102281" data-name="Trazado 102281" d="M682.954,869.528s-5.142-1-5.761,1.508,2.366,6.4,4.9,8.183,2.853,1.508,2.853,1.508A12.757,12.757,0,0,0,682.954,869.528Z" transform="translate(-668.708 -846.004)" fill="#f6e2ca" opacity="0.79"/>
          <path id="Trazado_102282" data-name="Trazado 102282" d="M691.7,841.043a26.434,26.434,0,0,0-7.183-4.239,27.208,27.208,0,0,1,7.163,2.684Z" transform="translate(-673.111 -826.68)" fill="#dc9964" opacity="0.85"/>
          <path id="Trazado_102283" data-name="Trazado 102283" d="M678.655,870.053a29.156,29.156,0,0,1-.716,4.9,5.166,5.166,0,0,1-.744-3.486A2.043,2.043,0,0,1,678.655,870.053Z" transform="translate(-668.709 -846.432)" fill="#fff" opacity="0.5"/>
          <path id="Trazado_102284" data-name="Trazado 102284" d="M683.3,983.565a13.9,13.9,0,0,1-1.147,5.57c-.848-1.405-1.216-2.811-.578-3.981A3.468,3.468,0,0,1,683.3,983.565Z" transform="translate(-671.168 -913.865)" fill="#fff" opacity="0.5"/>
          <path id="Trazado_102285" data-name="Trazado 102285" d="M690.615,1037.343a17.346,17.346,0,0,1-1.848,4.958c-.656-1.707-.693-3.156.184-4.145A2.692,2.692,0,0,1,690.615,1037.343Z" transform="translate(-675.345 -945.813)" fill="#fff" opacity="0.5"/>
        </g>
        <path id="Trazado_102286" data-name="Trazado 102286" d="M752.226,1087.206a14.915,14.915,0,0,1-8.305,2.509c-.219,0-.434,0-.654-.016a14.645,14.645,0,0,1-1.884-2.57c.187,0,.373,0,.556-.008a14.913,14.913,0,0,0,7.522-2.35A29.743,29.743,0,0,1,752.226,1087.206Z" transform="translate(-682.484 -840.368)" opacity="0.12"/>
        <path id="Trazado_102287" data-name="Trazado 102287" d="M784.936,834.24l6.676-3.7-6.864,2.8c-1.906-9.312-3.071-14.685-2.985-22.523l.007-.649c-.552-.479-.861-.751-.861-.751l-.057.337c-.046,4.123-.024,2.119-.1,9.268.719,5.2,1.924,13.022,3.032,16.063,1.9,5.229,12.625,17.447,13.01,17.882C795.887,851.634,785.34,836.1,784.936,834.24Z" transform="translate(-705.879 -676.793)" fill="#dc9964" opacity="0.85"/>
        <g id="Grupo_54364" data-name="Grupo 54364" transform="translate(48.523 112.135)">
          <path id="Trazado_102288" data-name="Trazado 102288" d="M725.141,778.111c-2.565-.135-6.816-2.019-9.3-12.079a9.771,9.771,0,0,1,16.685-3.792c2.475,11.893-2.1,14.7-4.231,15.364A9.33,9.33,0,0,1,725.141,778.111Z" transform="translate(-715.842 -758.939)" fill="#f6e2ca"/>
          <path id="Trazado_102289" data-name="Trazado 102289" d="M729.771,799.221a6.538,6.538,0,0,0,3.643,1.4,7.805,7.805,0,0,0,2.135-.222l.015-.006a.033.033,0,0,1,.011,0h.012c.407-.095.747-.2.984-.275a6.318,6.318,0,0,0,3.748-3.283,26.17,26.17,0,0,0-10.549,2.393Z" transform="translate(-724.116 -781.448)" fill="#fff" opacity="0.7"/>
          <path id="Trazado_102290" data-name="Trazado 102290" d="M732.527,762.238a9.774,9.774,0,0,0-16.687,3.793c.062.246.123.486.186.719a9.506,9.506,0,0,1,16.636-3.835C732.621,762.692,732.576,762.468,732.527,762.238Z" transform="translate(-715.84 -758.939)" fill="#fff" opacity="0.7"/>
        </g>
        <g id="Grupo_54365" data-name="Grupo 54365" transform="translate(60.456 244.462)">
          <path id="Trazado_102291" data-name="Trazado 102291" d="M884.324,1110.068H846.207l-3.82-18.1,36.636-7.043Z" transform="translate(-802.95 -1084.92)" fill="#e6e7e8"/>
          <path id="Trazado_102292" data-name="Trazado 102292" d="M792.592,1120.375H754.467l-2.33-11.062,36.636-7.043Z" transform="translate(-749.336 -1095.227)" fill="#fff"/>
          <path id="Trazado_102293" data-name="Trazado 102293" d="M897,1145.049H853.73l-6.093-29.556,41.572-7.993Z" transform="translate(-806.069 -1098.334)" fill="#263e53"/>
          <path id="Trazado_102294" data-name="Trazado 102294" d="M792.9,1156.746H749.459l-4.222-21.568,41.568-7.989Z" transform="translate(-745.237 -1110.031)" fill="#32526e"/>
        </g>
      </g>
      <g id="Grupo_54370" data-name="Grupo 54370" transform="translate(0 217.755)">
        <g id="Grupo_54368" data-name="Grupo 54368" transform="translate(48.31)">
          <path id="Trazado_102295" data-name="Trazado 102295" d="M382.49,915.111s-45.225-69.385-29.335-91.34c11.351-15.688,15.862-28.249,17.629-39.016.279-1.7,2.186-9.473,2.782-11.888l2.122-11.626c.019-.1.037-.2.058-.3a11.959,11.959,0,0,1,13.852-9.316,12.334,12.334,0,0,1,9.527,9.162c1.133,4.124-1.536,19.929-2.434,23.771-.283,1.213-2.693,17.592-2.928,19.269a158.028,158.028,0,0,0-1.58,25.4C400.345,864.476,382.49,915.111,382.49,915.111Z" transform="translate(-349.771 -751.428)" fill="#f0ae74"/>
          <path id="Trazado_102296" data-name="Trazado 102296" d="M463.165,797.78c-.284,1.214-2.7,17.593-2.931,19.27a158.112,158.112,0,0,0-1.579,25.4q.262,1.127.483,2.269H455.42q-.475-3.44-1.23-6.734a158.111,158.111,0,0,1,1.579-25.4c.235-1.677,2.647-18.056,2.931-19.27.9-3.84,3.568-19.647,2.432-23.772a13.824,13.824,0,0,0-1.421-3.373,12.879,12.879,0,0,1,5.886,7.839C466.734,778.133,464.063,793.94,463.165,797.78Z" transform="translate(-411.779 -760.186)" opacity="0.11"/>
          <g id="Grupo_54367" data-name="Grupo 54367" transform="translate(29.24 2.846)">
            <path id="Trazado_102297" data-name="Trazado 102297" d="M429.905,777.611c2.565-.135,6.816-2.019,9.3-12.079a9.771,9.771,0,0,0-16.685-3.792c-2.475,11.893,2.1,14.7,4.231,15.364A9.327,9.327,0,0,0,429.905,777.611Z" transform="translate(-421.803 -758.439)" fill="#f6e2ca"/>
            <path id="Trazado_102298" data-name="Trazado 102298" d="M435.3,798.721a6.539,6.539,0,0,1-3.643,1.4,7.807,7.807,0,0,1-2.135-.222c-.007,0-.011,0-.015-.006a.035.035,0,0,0-.011,0h-.012c-.407-.095-.748-.2-.984-.275a6.318,6.318,0,0,1-3.748-3.283,26.17,26.17,0,0,1,10.549,2.393Z" transform="translate(-423.554 -780.948)" fill="#fff" opacity="0.7"/>
            <path id="Trazado_102299" data-name="Trazado 102299" d="M423.365,761.738a9.774,9.774,0,0,1,16.687,3.793c-.062.246-.123.486-.186.719a9.506,9.506,0,0,0-16.636-3.835C423.271,762.192,423.316,761.967,423.365,761.738Z" transform="translate(-422.651 -758.439)" fill="#fff" opacity="0.7"/>
          </g>
          <path id="Trazado_102300" data-name="Trazado 102300" d="M410.26,921.706s-11.043.121-13.743-3.068c3.215-7.138,22.126-42.745,23.3-61.882.481-7.864-2.006-20.46-1.869-29.885a164.42,164.42,0,0,1,1.593-19.965c.236-1.677,2.645-18.058,2.929-19.269.9-3.841,3.568-19.646,2.434-23.771a14.035,14.035,0,0,0-.441-1.336,13.657,13.657,0,0,1,2.436,4.852c1.134,4.125-1.536,19.929-2.434,23.771-.284,1.211-2.693,17.593-2.929,19.269a158,158,0,0,0-1.58,25.4C428.115,871.071,410.26,921.706,410.26,921.706Z" transform="translate(-377.541 -758.023)" fill="#dc9964" opacity="0.54"/>
        </g>
        <g id="Grupo_54369" data-name="Grupo 54369" transform="translate(0 135.376)">
          <path id="Trazado_102301" data-name="Trazado 102301" d="M296.24,1091.963l-3.82,18.1H254.3l5.3-25.148Z" transform="translate(-244.747 -1084.92)" fill="#fff"/>
          <path id="Trazado_102302" data-name="Trazado 102302" d="M388.659,1109.313l-2.33,11.062H348.2l3.82-18.1Z" transform="translate(-300.53 -1095.227)" fill="#e6e7e8"/>
          <path id="Trazado_102303" data-name="Trazado 102303" d="M280.125,1115.493l-6.093,29.556H230.763l7.79-37.549Z" transform="translate(-230.763 -1098.334)" fill="#32526e"/>
          <path id="Trazado_102304" data-name="Trazado 102304" d="M385.014,1135.179l-4.222,21.568H337.353l6.093-29.556Z" transform="translate(-294.084 -1110.031)" fill="#263e53"/>
        </g>
      </g>
    </g>
  </g>
</svg>
