<svg xmlns="http://www.w3.org/2000/svg" xmlns:xlink="http://www.w3.org/1999/xlink" width="425.924" height="319.133" viewBox="0 0 425.924 319.133">
  <defs>
    <linearGradient id="linear-gradient" y1="0.5" x2="1" y2="0.5" gradientUnits="objectBoundingBox">
      <stop offset="0" stop-color="#c9cd55"/>
      <stop offset="0.507" stop-color="#659c52"/>
      <stop offset="1" stop-color="#287f50"/>
    </linearGradient>
    <linearGradient id="linear-gradient-2" y1="0.5" x2="1" y2="0.5" gradientUnits="objectBoundingBox">
      <stop offset="0" stop-color="#fb9a2b"/>
      <stop offset="1" stop-color="#e65925"/>
    </linearGradient>
    <linearGradient id="linear-gradient-4" x1="0.533" y1="7.815" x2="0.511" y2="2.86" gradientUnits="objectBoundingBox">
      <stop offset="0" stop-color="#53cd9f"/>
      <stop offset="1" stop-color="#0d7a5c"/>
    </linearGradient>
    <linearGradient id="linear-gradient-5" y1="0.5" x2="1" y2="0.5" gradientUnits="objectBoundingBox">
      <stop offset="0" stop-color="#c7a44f"/>
      <stop offset="1" stop-color="#609a3f"/>
    </linearGradient>
    <linearGradient id="linear-gradient-6" y1="0.5" x2="1" y2="0.5" gradientUnits="objectBoundingBox">
      <stop offset="0" stop-color="#00503e"/>
      <stop offset="1" stop-color="#023222"/>
    </linearGradient>
    <linearGradient id="linear-gradient-8" x1="0.138" y1="1.315" x2="0.417" y2="0.747" xlink:href="#linear-gradient-4"/>
    <linearGradient id="linear-gradient-9" x1="0.28" y1="-0.036" x2="0.819" y2="1.5" xlink:href="#linear-gradient-4"/>
    <linearGradient id="linear-gradient-10" x1="0" y1="0.5" x2="1" y2="0.5" xlink:href="#linear-gradient-4"/>
    <linearGradient id="linear-gradient-14" x1="1.116" y1="0.084" x2="-0.857" y2="1.439" xlink:href="#linear-gradient-2"/>
    <linearGradient id="linear-gradient-15" x1="1.065" y1="-0.047" x2="-0.934" y2="1.48" xlink:href="#linear-gradient-2"/>
    <linearGradient id="linear-gradient-16" x1="1.282" y1="0.039" x2="-1.575" y2="1.747" xlink:href="#linear-gradient-2"/>
    <linearGradient id="linear-gradient-17" x1="0.573" y1="-0.071" x2="0.459" y2="0.821" xlink:href="#linear-gradient"/>
    <linearGradient id="linear-gradient-19" x1="1.426" y1="0.351" x2="4.342" y2="-0.087" xlink:href="#linear-gradient-4"/>
    <linearGradient id="linear-gradient-20" x1="4.176" y1="-1.241" x2="2.116" y2="-0.264" xlink:href="#linear-gradient-4"/>
    <linearGradient id="linear-gradient-21" x1="0.706" y1="0.453" x2="1.604" y2="0.152" xlink:href="#linear-gradient-4"/>
    <linearGradient id="linear-gradient-22" x1="1.695" y1="-0.66" x2="1.105" y2="0.021" xlink:href="#linear-gradient-4"/>
    <linearGradient id="linear-gradient-24" x1="0.89" y1="0.304" x2="1.968" y2="-0.295" xlink:href="#linear-gradient-4"/>
    <linearGradient id="linear-gradient-25" x1="2.072" y1="-3.693" x2="1.363" y2="-1.886" xlink:href="#linear-gradient-4"/>
    <linearGradient id="linear-gradient-27" x1="0.706" y1="-1.347" x2="0.439" y2="1.047" xlink:href="#linear-gradient-4"/>
    <linearGradient id="linear-gradient-28" x1="1.174" y1="1.168" x2="-0.166" y2="-0.285" xlink:href="#linear-gradient"/>
    <linearGradient id="linear-gradient-29" x1="0.142" y1="0.22" x2="1.78" y2="1.413" xlink:href="#linear-gradient"/>
    <linearGradient id="linear-gradient-31" x1="0.228" y1="0.137" x2="1.044" y2="1.028" xlink:href="#linear-gradient-4"/>
    <linearGradient id="linear-gradient-34" x1="0.531" y1="6.966" x2="0.506" y2="1.411" xlink:href="#linear-gradient-2"/>
    <linearGradient id="linear-gradient-35" x1="1.677" y1="-1.376" x2="0.915" y2="-0.157" xlink:href="#linear-gradient-4"/>
    <linearGradient id="linear-gradient-37" x1="2.342" y1="-4.242" x2="1.66" y2="-2.412" xlink:href="#linear-gradient-4"/>
    <linearGradient id="linear-gradient-39" x1="1.538" y1="-1.124" x2="0.786" y2="0.062" xlink:href="#linear-gradient-4"/>
    <linearGradient id="linear-gradient-42" x1="0.41" y1="1.579" x2="0.493" y2="0.411" xlink:href="#linear-gradient-2"/>
    <linearGradient id="linear-gradient-43" x1="0.638" y1="-0.332" x2="0.171" y2="2.171" xlink:href="#linear-gradient-2"/>
    <linearGradient id="linear-gradient-44" x1="0.717" y1="-0.133" x2="-0.016" y2="1.719" xlink:href="#linear-gradient-2"/>
    <linearGradient id="linear-gradient-45" x1="1.16" y1="0" x2="0.344" y2="0.58" xlink:href="#linear-gradient-2"/>
    <linearGradient id="linear-gradient-46" x1="1.176" y1="-0.025" x2="-1.319" y2="1.974" xlink:href="#linear-gradient-6"/>
    <linearGradient id="linear-gradient-47" x1="1.162" y1="-0.005" x2="0.249" y2="0.84" xlink:href="#linear-gradient-6"/>
    <linearGradient id="linear-gradient-48" x1="6.545" y1="-7.158" x2="-4.752" y2="7.006" xlink:href="#linear-gradient-2"/>
    <linearGradient id="linear-gradient-49" x1="4.869" y1="-7.001" x2="-5.965" y2="11.964" xlink:href="#linear-gradient-2"/>
    <linearGradient id="linear-gradient-52" x1="2.106" y1="-0.714" x2="-1.097" y2="1.438" xlink:href="#linear-gradient-2"/>
  </defs>
  <g id="Grupo_57539" data-name="Grupo 57539" transform="translate(-4577.594 -3333.492)">
    <path id="Trazado_115399" data-name="Trazado 115399" d="M4660.859,4064.254l-16.2,60.489-9.1,29.679s-.8,16.24-.8,16.59,2.65,10.483,2.65,10.483,5.768,7.54,5.807,7.628,5.729,4.764,6.079,4.959,11.2,6.08,11.563,6.08,8.156,2.131,8.156,2.131l29.384,1.274h30.241s4.923-118.913,4.923-119.225,10.353-25.98,10.424-26.292-10.331-8-10.331-8l-12.3-18.706h-4.419l-8.521,6.651-10.2,7.726-10.27,5.784-12.967,5.3-10.52,3.014-3.222,1.929Z" transform="translate(-45.236 -552.215)" fill="#b7d972" opacity="0.6"/>
    <path id="Trazado_115400" data-name="Trazado 115400" d="M6191.517,4090.973s16.952,28.313,18.757,47.236c1.487,15.59-1.144,15.326-1.144,15.326s-8.235,4.917-23.675-29.166l-.915-4s13.61,28.823,21.388,30.881-20.473-56.043-20.473-56.043l4.34-6.4Z" transform="translate(-1271.59 -597.682)" fill="#473b1e"/>
    <path id="Trazado_115401" data-name="Trazado 115401" d="M6199.554,4080.314a3.012,3.012,0,1,1-3.012-3.012A3.012,3.012,0,0,1,6199.554,4080.314Z" transform="translate(-1278.704 -588.584)" fill="#473b1e"/>
    <path id="Trazado_115402" data-name="Trazado 115402" d="M4757.12,4009.845l-.014-.934-22.827,1.164c-1.547-2.687-16.213-25.259-16.46-25.54a2.168,2.168,0,0,0-.942-.625l0-.011-.1-.021a2.667,2.667,0,0,0-.359-.079c-2.3-.508-12.893-2.884-23.83-5.894-1.684-.463-3.4-1.021-5.22-1.612-7.316-2.377-14.881-4.834-21.2-1.481-4.211,2.234-7.251,6.758-9.293,13.828-5.009,17.341-2.054,26.965-1.011,29.543-2.608,10.143-15.156,59.321-20.365,75.233l-.043.133c-3.844,11.744-9.653,29.491-1.193,44.076,5.945,10.25,18.209,17.354,36.452,21.114l.09.019h53.9l34.132-29.776Zm-99.128,3.853c-.1-7.481-.35-27.356,9.7-32.5,9-4.61,15.154-2.4,22.281.169,5.975,2.15,12.252,5.577,21.442,4.159-2.316,1.48-5.479,3.935-9.667,7.219-2.7,2.114-5.484,4.3-7.977,6.1-7.449,5.387-25.475,11.333-26.038,11.518-1.875.558-7,2.2-9.729,4.147C4658,4014.269,4658,4014,4657.992,4013.7Zm-.247,5.384a10.1,10.1,0,0,0,4.238.686q1.118,0,2.466-.1a56.427,56.427,0,0,0,5.846-.789l.054-.012.788-.2c-.536,2.137-1.8,7.181-3.479,13.818a85.023,85.023,0,0,1-11.126-8.7C4657.053,4021.762,4657.465,4020.165,4657.745,4019.081Zm36.031,7.825c2.211,1.081,4.711,2.227,7.467,3.376.188,5.431.434,11.421.752,17.679a122.981,122.981,0,0,1-14.62-4.99c.575-6.818,1.1-13.272,1.525-18.571C4690.408,4025.214,4692.035,4026.055,4693.775,4026.906Zm-4.762-3.908c.4-5.015.7-8.833.843-10.694a107.083,107.083,0,0,0,9.786-4.72c.284.258.63.561,1.045.9.067,4.288.211,11.526.507,20.379-2.5-1.057-4.786-2.106-6.821-3.1C4692.441,4024.823,4690.653,4023.891,4689.013,4023Zm-1.236-.683c-4.434-2.48-7.619-4.6-9.307-5.787,3.357-1.079,6.747-2.31,10.052-3.667C4688.371,4014.8,4688.112,4018.11,4687.777,4022.315Zm-.113,1.409c-.424,5.3-.955,11.814-1.536,18.722-3.231-1.38-6.147-2.791-8.723-4.155-3.222-1.707-6.093-3.426-8.61-5.062,1.956-7.74,3.375-13.4,3.763-14.946q2.164-.588,4.375-1.27A107.552,107.552,0,0,0,4687.665,4023.724Zm-19.2,10.822c2.445,1.576,5.212,3.222,8.291,4.854q4.515,2.394,9.261,4.408c-.681,8.052-1.425,16.552-2.146,24.207-3.373-1.881-6.449-3.766-9.19-5.565-4.28-2.809-8.043-5.588-11.24-8.127C4665.255,4047.207,4666.994,4040.354,4668.462,4034.547Zm5.475,28.957q4.82,3.165,9.8,5.922c-.9,9.483-1.763,17.5-2.409,21.491-3.483-2.295-6.7-4.559-9.59-6.7-5.069-3.748-9.537-7.382-13.268-10.589,1.513-5.822,3.091-11.957,4.622-17.944C4666.208,4058.145,4669.836,4060.811,4673.937,4063.5Zm-2.989,21.734c3.045,2.253,6.448,4.645,10.145,7.066a115.028,115.028,0,0,0-1.3,26.771c-5.629-3.535-10.67-7.128-14.983-10.451-4.883-3.761-9.188-7.431-12.814-10.715.025-.088.048-.178.073-.267,1.55-5.542,3.7-13.661,6.034-22.625C4661.756,4078.135,4666.077,4081.635,4670.948,4085.238ZM4664,4109.625c5.249,4.043,10.575,7.746,15.934,11.078.838,8.86,3.04,18.195,7.71,26.463-16.364-5.8-28.112-12.471-36.037-18q-1.259-.877-2.422-1.738c-1.294-9.4.125-19.335,2.435-28.128C4655.163,4102.489,4659.32,4106.016,4664,4109.625Zm18.269-16.555a182.447,182.447,0,0,0,25.479,13.816c1.5,8.195,3.2,14.313,5.111,18.309,2.162,4.527,4.141,8.325,5.929,11.511a146.047,146.047,0,0,1-37.64-16.787A112.79,112.79,0,0,1,4682.272,4093.07Zm.229-1.383c0-.019.007-.038.01-.057.646-3.746,1.524-11.848,2.45-21.533a143.2,143.2,0,0,0,16.609,7.7c.852.33,1.706.646,2.561.958q1.435,15.614,3.349,26.607A182.585,182.585,0,0,1,4682.5,4091.687Zm2.594-22.993c.727-7.677,1.478-16.238,2.166-24.366a123.3,123.3,0,0,0,14.806,5.016c.108,2.063.224,4.153.349,6.258q.7,11.752,1.584,21.7A142.857,142.857,0,0,1,4685.095,4068.694Zm17.467-37.87a136.649,136.649,0,0,0,24.94,7.462c1.486,4.042,2.988,8.279,4.47,12.656.166.489.333.986.5,1.485a129.025,129.025,0,0,1-29.152-4.112C4703,4042.127,4702.753,4036.206,4702.562,4030.824Zm-.05-1.41c-.291-8.435-.442-15.436-.519-19.9a53.7,53.7,0,0,0,5.936,3.845,81.926,81.926,0,0,0,11.957,5.439c2.2,5.284,4.619,11.4,7.094,18.074A135.689,135.689,0,0,1,4702.512,4029.414Zm-.546-21.569q-.014-.893-.023-1.577a54.447,54.447,0,0,0,9.082-6.58c1.434,2.329,4.445,8.61,8.176,17.47C4710.234,4013.719,4704.771,4010.068,4701.965,4007.845Zm-.69-3.618s-16.25,9.13-31.4,12.632c-4.82.945-10.677,1.226-11.573.145.124-.23.865-1.22,4.952-2.881,2.542-1.033,5.056-1.785,5.082-1.792l.025-.008c.765-.25,18.828-6.177,26.618-11.811,2.525-1.826,5.329-4.025,8.041-6.151,4.524-3.549,11.6-9.57,13.256-8.471.011.007.823,1.06-2.026,6.567C4712.268,3996.279,4707.627,4000.377,4701.275,4004.227Zm-42.917-15.16c1.92-6.647,4.711-10.865,8.534-12.893,5.742-3.046,12.992-.691,20,1.585,1.836.6,3.57,1.16,5.288,1.633,7.341,2.021,14.528,3.756,19.172,4.836-8.9,1.433-14.815-1.869-20.948-4.077-7.1-2.555-13.8-4.969-23.3-.1-10.758,5.511-10.5,25.965-10.4,33.665.01.771.019,1.508.009,1.976-.006.009-.014.018-.021.026C4655.62,4011.74,4654.362,4002.907,4658.358,3989.068Zm-2.194,36.125a89.925,89.925,0,0,0,11.159,8.61c-1.452,5.744-3.178,12.549-4.988,19.636a121.041,121.041,0,0,1-10.97-9.933C4653.262,4036.336,4654.947,4029.881,4656.164,4025.192Zm-5.184,19.765a128.234,128.234,0,0,0,11,9.851c-1.521,5.952-3.093,12.065-4.6,17.884-6.056-5.27-9.965-9.229-11.062-10.361C4647.911,4056.48,4649.5,4050.53,4650.98,4044.957Zm-5.052,18.813c1.624,1.648,5.486,5.459,11.093,10.311-2.341,9.006-4.511,17.2-6.086,22.855-5.811-5.336-9.7-9.516-11.2-11.168C4641.581,4079.524,4643.744,4071.779,4645.928,4063.77Zm-8.759,30.339.043-.133c.62-1.893,1.327-4.181,2.1-6.766,1.85,2.014,5.725,6.086,11.24,11.12-2.787,10.35-3.711,19.759-2.762,28.052-9.34-7.122-13.96-13.081-15.281-14.933A119.461,119.461,0,0,1,4637.168,4094.109Zm-1.347,42.612c-4.251-7.33-4.682-15.607-3.591-23.472,2.076,2.71,6.942,8.343,15.794,14.922q.187,1.245.431,2.455a37.567,37.567,0,0,0,16.911,25C4650.792,4151.761,4640.864,4145.415,4635.821,4136.721Zm35.168,20.235q-.848-.176-1.678-.361l.057-.107c-12.3-6.521-17.991-16.466-19.9-27.258q.649.467,1.324.938a145.944,145.944,0,0,0,28.811,15.354q4.414,1.785,9.077,3.387a46.277,46.277,0,0,0,6.293,8.047Zm25.815,0a44.486,44.486,0,0,1-6.168-7.383,227.015,227.015,0,0,0,28.5,7.383Zm27.613-.338a226.665,226.665,0,0,1-34.9-8.8c-4.913-8.1-7.273-17.391-8.211-26.272q5.651,3.446,11.329,6.331a135.136,135.136,0,0,0,27.05,10.4c4.993,8.634,8.38,12.28,10.021,13.721Zm6.277-5.476c-1.358-1.172-4.507-4.42-9.249-12.422q3.508.854,6.984,1.47l.224-1.268c-2.744-.483-5.45-1.079-8.116-1.761-1.933-3.368-4.107-7.487-6.513-12.521-1.887-3.951-3.48-9.922-4.827-17.131a128.406,128.406,0,0,0,23.94,7.668l.263-1.26a127.809,127.809,0,0,1-24.479-7.922c-1.4-7.884-2.527-17.121-3.426-26.757a125.355,125.355,0,0,0,32.147,6.823l.1-1.283a124.047,124.047,0,0,1-32.377-6.977c-.846-9.328-1.487-18.982-1.97-28.107a130.295,130.295,0,0,0,29.514,4.034c7.588,22.843,16.257,54.485,16.719,80.9Zm20.195-17.618c-.673-26.183-9.139-57.183-16.618-79.769.608.008,1.217.014,1.828.014q1.562,0,3.131-.035l-.029-1.286q-2.724.06-5.361.012-.327-.976-.65-1.932c-1.394-4.114-2.808-8.118-4.213-11.962,3.275.6,6.671,1.094,10.175,1.44l.126-1.281c-3.734-.369-7.346-.906-10.818-1.565-2.393-6.49-4.748-12.5-6.915-17.768a126.168,126.168,0,0,0,18.926,4.9l.231-1.266a122.649,122.649,0,0,1-19.821-5.24c-3.985-9.591-7.255-16.511-8.814-19.1a21.954,21.954,0,0,0,4-5.28,27.779,27.779,0,0,0,1.956-4.565c7.117,8.78,14.878,22.461,14.959,22.606l.274.485,22.07-1.125,1.691,117.367Z" transform="translate(-41.398 -506.186)" fill="#847d3d"/>
    <path id="Trazado_115403" data-name="Trazado 115403" d="M4998.84,3743.028s-10.2-14.977-16.884-21.2-19.608-10.864-22.562-6.993,5.733,8.269,8.962,9.693,16.633,8.291,31.565,29.512S4998.84,3743.028,4998.84,3743.028Z" transform="translate(-301.644 -300.642)" fill="url(#linear-gradient)"/>
    <path id="Trazado_115404" data-name="Trazado 115404" d="M4956.475,3853.849c.051-.457-21.832-28.266-57.244-20.084a5.133,5.133,0,0,0-2.975,1.879c-1.021,1.364-1.216,3.181,4.536,3.5,9.41.523,31.206-1.337,49.963,14.846S4956.475,3853.849,4956.475,3853.849Z" transform="translate(-251.718 -394.679)" fill="url(#linear-gradient-2)"/>
    <path id="Trazado_115405" data-name="Trazado 115405" d="M5003.085,3907.332c-.523.145-14.166-12.94-36.849-10.316-18.368,2.125-10.231,6.242-6.286,5.87s23.241-1.891,38.22,4.347S5003.085,3907.332,5003.085,3907.332Z" transform="translate(-298.417 -445.646)" fill="url(#linear-gradient)"/>
    <path id="Trazado_115406" data-name="Trazado 115406" d="M5276.146,3659.239s2.059-50.21,44.834-67.137,71.141,24.247,76.173,67.137l-12.581,5.376-2.059-5.376s.915-65.994-42.6-64.85c-43.025,1.131-51.41,65.879-51.41,65.879s-6.862,17.385-7.32,15.784S5276.146,3659.239,5276.146,3659.239Z" transform="translate(-552.771 -201.558)" fill="#847d3d"/>
    <path id="Trazado_115407" data-name="Trazado 115407" d="M6012.76,4081.127h-45.184a2.781,2.781,0,0,0-2.781,2.781h0a2.781,2.781,0,0,0,2.781,2.781h45.184a2.781,2.781,0,0,0,2.781-2.781h0A2.781,2.781,0,0,0,6012.76,4081.127Z" transform="translate(-1097.704 -591.61)" fill="url(#linear-gradient-4)"/>
    <path id="Trazado_115408" data-name="Trazado 115408" d="M5117.07,3578.912s-11.676-22.613-30.267-14.979c-18.352,8.193-10.035,32.244-10.035,32.244s28.972,74.582,38.684,90.3c9.308,15.058,25.449,7.72,26.778,7.082.059-.028.118-.053.179-.076,1.378-.522,17.826-7.145,13.345-24.272C5151.079,3651.335,5117.07,3578.912,5117.07,3578.912Z" transform="translate(-393.513 -181.105)" fill="url(#linear-gradient-5)"/>
    <path id="Trazado_115409" data-name="Trazado 115409" d="M5535.836,3839.182a43.365,43.365,0,0,0,3.883,2.217c.106-.116,1.088-.44,1.077-.583s.52-2.519.52-2.519l-2.9-2.776-2.578,3.66Z" transform="translate(-758.265 -397.261)" fill="#efac7f"/>
    <path id="Trazado_115410" data-name="Trazado 115410" d="M5654.32,3805.419s-4.528,1.433-5.229,2.151a5.526,5.526,0,0,0-1,2.324l1.012,1.189Z" transform="translate(-847.094 -373.44)" fill="#efac7f"/>
    <path id="Trazado_115411" data-name="Trazado 115411" d="M5146.4,3601.567c-10.291,8.834-13.178,22.384-13.943,30.708a2.982,2.982,0,0,0,5.143,2.313c5.721-6.095,13.943-17.244,13.727-30.8A2.984,2.984,0,0,0,5146.4,3601.567Z" transform="translate(-439.056 -211.558)" fill="#847d3d"/>
    <path id="Trazado_115412" data-name="Trazado 115412" d="M5546.235,3839.59c-.712.09-2.234-.016-3.826-2.355l1.207-1.712,2.9,2.776S5546.372,3838.949,5546.235,3839.59Z" transform="translate(-763.467 -397.261)" fill="#d19369" opacity="0.6"/>
    <g id="Grupo_57483" data-name="Grupo 57483" transform="translate(4627.776 3477.413)">
      <path id="Trazado_115413" data-name="Trazado 115413" d="M4871.177,4162.724s43.935-31.133,31.027-44.054c0,0-1.279-5.327-17.767,6.548,0,0-7.664-.079-5.335-8.205s17.785-16.436,12.927-25.823-12.827,1.815-18.719,2.453,7.364-30.411,1.475-36.23-12.088,6.1-16.535,6.223-3.472-40.981-24.69-40.5-4.4,21.718,1.729,33.4-10.93.522-16.626,10.858,30.672,12.83,24.008,22.5-14.146.32-18.646,7.7c-7.277,11.939,29.994,10.769,26.221,19.41-3.009,6.891-13.4-1.854-16.547,3.195S4844.612,4151.969,4871.177,4162.724Z" transform="translate(-4818.055 -4023.13)" fill="url(#linear-gradient-6)"/>
      <path id="Trazado_115414" data-name="Trazado 115414" d="M4904.572,4120.677q-.157-.212-.332-.418c-1.145,1.5-2.476,3.121-3.991,4.757-5.565,6.012-14.822,13.536-27.374,15.381a180.188,180.188,0,0,0-3.8-21.965c8.332-15.183,17.066-22.276,22.926-25.553.507-.284,1-.543,1.483-.783-.083-.157-.167-.307-.253-.453-.469.234-.949.486-1.443.761-5.864,3.27-14.567,10.307-22.889,25.276-.007-.033-.015-.065-.022-.1-1.895-8-4.36-16.489-7.37-25.39a123.362,123.362,0,0,1,4.364-16.01c2.035-5.849,5.144-13.122,9.383-18.592-.15-.1-.3-.182-.451-.259-4.261,5.522-7.379,12.814-9.421,18.681a126.58,126.58,0,0,0-4.208,15.2q-3.472-10.168-7.874-21.01c-8.175-20.126-16.825-37.137-21.415-45.771q-.274.044-.536.094c4.562,8.574,13.256,25.646,21.472,45.872,1.381,3.4,2.784,6.983,4.175,10.7a124.921,124.921,0,0,0-13.952-6.437,109.063,109.063,0,0,0-22.815-6.31c-.013.024-.028.049-.042.074-.076.139-.144.275-.2.412a108.313,108.313,0,0,1,22.866,6.3,120.824,120.824,0,0,1,14.427,6.7c3.066,8.252,6.055,17.163,8.594,26.281-11.116-5.4-30.963-7.691-40.822-8.533-.074.17-.138.337-.193.5,9.9.838,30.19,3.162,41.2,8.7,3.578,12.984,6.222,26.364,6.851,38.844-10.252-1.728-20.314-9.964-26.979-16.612a124.214,124.214,0,0,1-9.642-10.871,3.27,3.27,0,0,0-.414.309,124.646,124.646,0,0,0,9.684,10.922c6.745,6.729,16.95,15.072,27.379,16.782a93.672,93.672,0,0,1-.48,15.48l.249.1s.1-.069.284-.2a104.274,104.274,0,0,0-.058-22.64q1.227-.179,2.443-.433a43.068,43.068,0,0,0,13.631-5.47,55,55,0,0,0,11.636-9.655C4902.128,4123.748,4903.438,4122.161,4904.572,4120.677Z" transform="translate(-4819.583 -4024.163)" fill="#fff" opacity="0.1" style="mix-blend-mode: color-dodge;isolation: isolate"/>
    </g>
    <path id="Trazado_115415" data-name="Trazado 115415" d="M4723.19,4293.243c9.422-5.042,12.928,9.861,13.692,13.907a74.45,74.45,0,0,1,10.763,2.365c-2.948-4.234-8.072-5.613-9.024-8.772-1.068-3.542.382-7.856,6.682-4.3,4.993,2.817,4.151,10.422,3.587,13.46a63.485,63.485,0,0,1,12.822,5.677c-2.621-5.323-8.347-7.528-9-11.223-.717-4.044,1.442-8.609,7.925-3.87,5.358,3.917,3.042,12.75,2.077,15.7a35.026,35.026,0,0,1,4.343,3.09,108.222,108.222,0,0,1,8.164,7.74c-2.19-4.737-6.657-7.519-6.777-10.938-.143-4.1,2.634-8.322,8.389-2.723,4.553,4.43,1.514,12.336.046,15.447a100.194,100.194,0,0,1,12.2,16.571c-.307-4.814-4.308-11.462-3.01-15.947a4.706,4.706,0,0,1,4.559-3.73,4.556,4.556,0,0,1,3.615,1.53c5.22,5.815-2.194,16.15-4.573,19.163a95.014,95.014,0,0,1,8.09,18.418c-.137-2.491-.36-6.251-.564-8.2-.323-3.071.859-7.378,3.255-9.124.1-.073.2-.14.3-.2a4.649,4.649,0,0,1,5.9.954c5.9,6.546-5.7,16.548-8.27,18.629.011.038.023.077.034.114,3.966,13.736,3.369,23.424,3.342,23.83l-1.5-.1c.007-.094.567-9.318-2.974-22.2-14.079-1.53-17.982-9.583-16.075-12.584,1.971-3.1,7.445-4.24,9.95,1.575a40.011,40.011,0,0,0,5.45,8.678,93.24,93.24,0,0,0-8.131-18.832c-18.385,4.286-20-7.31-16.25-10.023,3.794-2.746,6.846-1.072,9.844,3.32a22.456,22.456,0,0,0,5.89,5.805,98.7,98.7,0,0,0-11.912-16.309c-2.229,2.518-8.394,8.563-14.316,6.071-7.4-3.113-4.6-7.316-.767-8.785,3.526-1.351,8.4,2.473,14.363,1.921a106.34,106.34,0,0,0-9.261-8.932,44.249,44.249,0,0,0-8.573-5.371c-1.917,2.8-7.247,9.505-13.406,7.791-7.735-2.153-5.489-6.676-1.871-8.619,3.229-1.733,8.335,1.208,13.975.195a69.332,69.332,0,0,0-19.3-5.736c-2.012,2.9-7.254,9.3-13.291,7.623-7.735-2.153-5.489-6.676-1.871-8.619,3.274-1.757,8.479,1.3,14.213.153l.021-.158c-1.994-.854-6.23-2.652-8.3-3.407-2.764-1.009-5.867-3.853-6.217-6.679A4.8,4.8,0,0,1,4723.19,4293.243Z" transform="translate(-111.43 -758.645)" fill="#b7d972"/>
    <path id="Trazado_115416" data-name="Trazado 115416" d="M4785.929,4501.406s-7.5-32.645-44.818-51.185l1.535,12.212-5.806-13.605s-22.128-9.858-39.384-12.6c0,0,22.036,33.333,29.075,39.061l12.151,2.628-9.942,4.7s11.851,18.839,30.458,26.524S4785.929,4501.406,4785.929,4501.406Z" transform="translate(-94.847 -872.602)" fill="url(#linear-gradient-5)"/>
    <g id="Grupo_57485" data-name="Grupo 57485" transform="translate(4600.266 3604.812)">
      <g id="Grupo_57484" data-name="Grupo 57484" transform="translate(0 0)">
        <path id="Trazado_115417" data-name="Trazado 115417" d="M4686.233,4646.02a59.93,59.93,0,0,0,18.52,23.349c4.186-2.549,9.229-5.487,9.229-5.487l-4.092,8.873c29.376,17.112,67.677,3.569,67.677,3.569-10.334-23.177-23.307-34.692-36.2-39.618-2.262,2.684-5.582,6.716-5.582,6.716l1.364-8.1a50.271,50.271,0,0,0-18.783-1.409c-.683,4.214-1.568,8.98-1.568,8.98l-4.11-8.1A75.232,75.232,0,0,0,4686.233,4646.02Z" transform="translate(-4686.233 -4633.597)" fill="url(#linear-gradient-8)"/>
        <path id="Trazado_115418" data-name="Trazado 115418" d="M4741.363,4636.706c-2.262,2.684-5.582,6.716-5.582,6.716l1.364-8.1a50.271,50.271,0,0,0-18.783-1.409c-.683,4.214-1.568,8.98-1.568,8.98l-4.11-8.1a75.232,75.232,0,0,0-26.451,11.228c32.62,23.131,91.333,30.3,91.333,30.3C4767.231,4653.146,4754.259,4641.631,4741.363,4636.706Z" transform="translate(-4686.233 -4633.597)" fill="url(#linear-gradient-9)"/>
      </g>
    </g>
    <path id="Trazado_115419" data-name="Trazado 115419" d="M5205.2,3735.745c-10.291,8.834-13.177,22.383-13.943,30.708a2.981,2.981,0,0,0,5.142,2.313c5.721-6.1,13.944-17.244,13.728-30.8A2.984,2.984,0,0,0,5205.2,3735.745Z" transform="translate(-485.583 -317.734)" fill="#847d3d"/>
    <path id="Trazado_115420" data-name="Trazado 115420" d="M5274.919,3883.366c-10.292,8.834-13.178,22.383-13.943,30.708a2.981,2.981,0,0,0,5.142,2.313c5.721-6.1,13.944-17.244,13.727-30.8A2.984,2.984,0,0,0,5274.919,3883.366Z" transform="translate(-540.755 -434.548)" fill="#847d3d"/>
    <g id="Grupo_57486" data-name="Grupo 57486" transform="translate(4794.489 3406.994)">
      <path id="Trazado_115421" data-name="Trazado 115421" d="M5659.854,3725.953c-1.127.937-2.163,2.884-3.258,4.946-1.632,3.071-3.482,6.551-6.822,9.413-3.694,3.165-8.03,4.481-11.514,5.538-.85.258-1.671.508-2.437.768l-18.918-5.46a31.478,31.478,0,0,1,11.509-8.3,55.955,55.955,0,0,1,5.348-1.832c2.422-.735,4.709-1.429,5.934-2.479,1.116-.957,2.14-2.883,3.224-4.922,1.587-2.986,3.563-6.7,7.037-9.589,4.691-3.9,10.349-4.883,14.9-5.675,3.181-.554,6.185-1.078,7.669-2.356a17.417,17.417,0,0,0,2.563-3.442c.571-.893,1.162-1.815,1.852-2.772a33.515,33.515,0,0,1,12.261-10.337l1.854,6.364.519-7.431a33.063,33.063,0,0,1,9.985-2.344c.551-.041,1.064-.064,1.56-.088.8-.038,8.189-.96,10.486.894h0a7.675,7.675,0,0,1,1.7,10.011l-6.935-1.383,4.463,3.816c-.188.114-.382.223-.585.323a15.9,15.9,0,0,1-1.806.755,22.439,22.439,0,0,1-6.6,1.053c-.416.02-.809.038-1.16.063a18.316,18.316,0,0,0-13.187,7.365c-.437.607-.89,1.313-1.368,2.06a45.467,45.467,0,0,1-2.634,3.8l-8.089-.738,6.076,2.98q-.409.4-.852.781c-4.723,4.067-10.487,5.071-15.118,5.878C5664.353,3724.174,5661.37,3724.693,5659.854,3725.953Z" transform="translate(-5616.906 -3685.696)" fill="url(#linear-gradient-10)"/>
      <path id="Trazado_115422" data-name="Trazado 115422" d="M5746.23,3712.6c-20.458,16.161-14.513,14.984-32.831,21.6-13.939,5.038-14.683,21.446-26.383,25.585l4.286,1.237c.766-.26,1.587-.51,2.437-.768,3.484-1.057,7.819-2.373,11.514-5.539,3.34-2.862,5.189-6.342,6.821-9.413,1.1-2.062,2.131-4.009,3.258-4.946,1.517-1.26,4.5-1.779,7.658-2.33,4.631-.807,10.4-1.811,15.118-5.878.3-.255.579-.516.852-.781l-6.076-2.98,8.089.738a45.6,45.6,0,0,0,2.635-3.805c.478-.747.93-1.453,1.367-2.06a18.317,18.317,0,0,1,13.188-7.365c.351-.025.744-.044,1.16-.063a22.423,22.423,0,0,0,6.6-1.053,15.864,15.864,0,0,0,1.807-.756c.2-.1.4-.209.584-.323l-4.463-3.816,6.935,1.383a7.727,7.727,0,0,0,.516-7.1C5765.017,3703.232,5756.44,3704.538,5746.23,3712.6Z" transform="translate(-5672.386 -3700.108)" fill="#45258f" opacity="0.2" style="mix-blend-mode: multiply;isolation: isolate"/>
    </g>
    <g id="Grupo_57487" data-name="Grupo 57487" transform="translate(4792.113 3368.584)">
      <path id="Trazado_115423" data-name="Trazado 115423" d="M5669.146,3538.41a37.7,37.7,0,0,1-2.693,8.5c-4.578,1.081-13.52,3.194-12.508,2.98.948-.2,7,.121,10.535.332-3.59,5.015-8.7,7.947-12.9,10.357-3.247,1.863-6.314,3.622-7.476,5.61-.864,1.477-1.224,4.027-1.6,6.727-.566,4.021-1.21,8.579-3.735,13.052-2.792,4.947-7.027,8.119-10.429,10.668-1.386,1.039-2.7,2.02-3.749,2.988-.194.178-.382.362-.568.55l-18.5-5.34a36.4,36.4,0,0,1,6.834-8.528,65.456,65.456,0,0,1,5.139-4.143c2.365-1.771,4.6-3.446,5.524-5.086.844-1.495,1.2-4.017,1.577-6.688.551-3.91,1.238-8.778,3.9-13.33,3.594-6.147,9.413-9.485,14.087-12.167,3.271-1.876,6.359-3.648,7.479-5.643a20.382,20.382,0,0,0,1.44-4.8c.271-1.208.551-2.456.927-3.781a39.43,39.43,0,0,1,19.54-23.936l2.964,2.479-.8-3.521c.527-.233,1.028-.444,1.513-.646.861-.359,8.606-4.318,11.866-3.2h0a8.908,8.908,0,0,1,3.6,14.553,18.575,18.575,0,0,1-1.682,1.549,26.19,26.19,0,0,1-6.823,3.786c-.449.188-.873.365-1.248.532a21.385,21.385,0,0,0-11.538,13.341C5669.587,3536.444,5669.374,3537.4,5669.146,3538.41Z" transform="translate(-5605.52 -3501.643)" fill="url(#linear-gradient-10)"/>
      <path id="Trazado_115424" data-name="Trazado 115424" d="M5702.926,3545.532c-13.333,20.088-6.524,20.708-18.159,30.266s-13.939,7.817-15.521,21.891c-.739,6.575-8.146,14.574-15.83,21.231l8.505,2.455c.185-.187.375-.371.568-.55,1.054-.968,2.363-1.949,3.75-2.988,3.4-2.549,7.636-5.722,10.429-10.668,2.525-4.473,3.167-9.03,3.735-13.052.381-2.7.741-5.25,1.6-6.727,1.162-1.987,4.229-3.747,7.476-5.61,4.2-2.41,9.308-5.342,12.9-10.357-3.537-.21-9.587-.531-10.535-.332-1.012.213,7.93-1.9,12.508-2.98a37.713,37.713,0,0,0,2.693-8.5c.228-1.01.441-1.965.681-2.806a21.383,21.383,0,0,1,11.538-13.341c.375-.168.8-.345,1.248-.532a26.177,26.177,0,0,0,6.823-3.786,18.634,18.634,0,0,0,1.681-1.549,8.769,8.769,0,0,0,1.9-9.159C5722.314,3529.867,5710.583,3533.995,5702.926,3545.532Z" transform="translate(-5643.42 -3522.849)" fill="#45258f" opacity="0.2" style="mix-blend-mode: multiply;isolation: isolate"/>
    </g>
    <g id="Grupo_57488" data-name="Grupo 57488" transform="translate(4813.046 3436.696)">
      <path id="Trazado_115425" data-name="Trazado 115425" d="M5732.541,3851.778a13.836,13.836,0,0,0-3.222,3.214,37.459,37.459,0,0,1-3.122,3.449l-20.371-5.879c.652-.186,1.312-.349,1.979-.478a43.007,43.007,0,0,1,4.31-.546,14.023,14.023,0,0,0,4.851-.942,14.215,14.215,0,0,0,3.192-3.2,23.062,23.062,0,0,1,6.787-6.121c4.136-2.2,8.548-2.064,12.093-1.952,2.48.078,4.822.151,6.138-.58a13.4,13.4,0,0,0,2.464-2.191c.568-.583,1.157-1.186,1.825-1.8a25.915,25.915,0,0,1,20.666-6.516c.421.056.811.117,1.188.177.606.1,6.312.552,7.751,2.3h0a5.862,5.862,0,0,1-3,9.4,12.227,12.227,0,0,1-1.477.288,17.244,17.244,0,0,1-5.13-.235c-.315-.05-.614-.1-.882-.132a14.072,14.072,0,0,0-11.07,3.49c-.424.389-.875.85-1.35,1.337q-.225.231-.464.473l-5.082-1.284,3,3.237a16.765,16.765,0,0,1-2.658,1.855c-4.187,2.326-8.681,2.185-12.291,2.071C5736.2,3851.139,5733.878,3851.066,5732.541,3851.778Z" transform="translate(-5705.827 -3828.023)" fill="url(#linear-gradient-10)"/>
      <path id="Trazado_115426" data-name="Trazado 115426" d="M5806.8,3860.694c-14.935,6.991-16.934,8.416-24.363,9.591-5.257.832-11.416,6.63-14.568,9.951l7.422,2.143a37.654,37.654,0,0,0,3.122-3.449,13.849,13.849,0,0,1,3.222-3.215c1.337-.712,3.663-.639,6.125-.562,3.61.113,8.1.255,12.291-2.071a16.806,16.806,0,0,0,2.658-1.855l-3-3.238,5.082,1.284.463-.473c.476-.488.926-.949,1.35-1.337a14.07,14.07,0,0,1,11.07-3.49c.268.035.567.082.883.132a17.225,17.225,0,0,0,5.13.235,12.322,12.322,0,0,0,1.477-.287,5.764,5.764,0,0,0,4.2-4.368C5822.644,3858.02,5814.158,3857.252,5806.8,3860.694Z" transform="translate(-5754.925 -3851.96)" fill="#45258f" opacity="0.2" style="mix-blend-mode: multiply;isolation: isolate"/>
    </g>
    <path id="Trazado_115427" data-name="Trazado 115427" d="M5498.622,3817.5s-10.334,9.758-14.456,8.692a16.3,16.3,0,0,1-3.271-.768s-2.19,1.765-5.583-1.636l-2.3-.5s-2.9-.682-6.536,3.415q-1.233,1.611-2.214,3-.1.149-.2.286c-7.757,11.077-4.081,11.957-4.042,11.918l20.058,2.729.706-2.914.934-4.762s13.164-4.158,20.151-15.782Z" transform="translate(-697.557 -382.999)" fill="url(#linear-gradient-10)"/>
    <path id="Trazado_115428" data-name="Trazado 115428" d="M5559.561,3890.344c.187-.609.348-1.226.51-1.842s.3-1.238.441-1.86.264-1.247.381-1.874.226-1.255.322-1.886a37.273,37.273,0,0,0,.375-3.81,13.949,13.949,0,0,0-.294-3.807,11.244,11.244,0,0,1,.179,1.9c.017.635,0,1.27-.04,1.9s-.1,1.267-.166,1.9-.158,1.261-.252,1.889c-.18,1.259-.411,2.51-.656,3.758-.121.625-.251,1.248-.386,1.87S5559.7,3889.724,5559.561,3890.344Z" transform="translate(-777.039 -428.71)" fill="#473b1e"/>
    <g id="Grupo_57489" data-name="Grupo 57489" transform="translate(4792.04 3412.753)">
      <path id="Trazado_115429" data-name="Trazado 115429" d="M5673.981,3729.283s-9.036-.8-14.068,4.346-14.64,19.329-17.385,34.2-37.362-7.587-37.362-7.587,13.115-41.175,39.8-46.512c0,0,7.053-1.487,12.657,1.029s9.378,5.49,15.439,3.66C5673.065,3718.418,5672.113,3724.709,5673.981,3729.283Z" transform="translate(-5605.166 -3713.292)" fill="url(#linear-gradient-14)"/>
      <path id="Trazado_115430" data-name="Trazado 115430" d="M5930.733,3733.583s6.9-.229,10.179-4.118c0,0,1.221-10.37-.457-10.675s-2.889.534-4.418,1.067-6.047,1.153-6.219,2.859A27.284,27.284,0,0,0,5930.733,3733.583Z" transform="translate(-5861.918 -3717.592)" fill="#473b1e"/>
      <path id="Trazado_115431" data-name="Trazado 115431" d="M5654.264,3721.133c7.258.792,14.215,1.286,18.58,2.136a28.871,28.871,0,0,1,.222-4.852c-6.062,1.83-9.836-1.144-15.439-3.66s-12.657-1.029-12.657-1.029c-26.687,5.337-39.8,46.512-39.8,46.512s4.5,2.916,10.372,5.95C5625.8,3728.806,5644.737,3720.094,5654.264,3721.133Z" transform="translate(-5605.166 -3713.292)" opacity="0.3" fill="url(#linear-gradient-15)" style="mix-blend-mode: multiply;isolation: isolate"/>
      <path id="Trazado_115432" data-name="Trazado 115432" d="M5754.839,3776a14.939,14.939,0,0,1-.888-3.344c-2.478-.427-9.681-1.162-15.673,3.261-7.3,5.391-19.609,10.442-30.929,41.821,7.72,2.688,14.852,3.229,16.037-3.193,2.745-14.869,12.352-29.051,17.385-34.2S5754.839,3776,5754.839,3776Z" transform="translate(-5686.025 -3760.004)" fill="url(#linear-gradient-16)"/>
    </g>
    <rect id="Rectángulo_6623" data-name="Rectángulo 6623" width="53.714" height="152.168" rx="9.827" transform="translate(4865.607 3493.944)" fill="url(#linear-gradient-17)"/>
    <path id="Trazado_115433" data-name="Trazado 115433" d="M6157.638,4183.442h0a4.215,4.215,0,0,1-4.215-4.215v-48.214a4.215,4.215,0,0,1,4.215-4.215h0a4.215,4.215,0,0,1,4.215,4.215v48.214A4.214,4.214,0,0,1,6157.638,4183.442Z" transform="translate(-1246.967 -627.75)" fill="#fff" opacity="0.3"/>
    <path id="Trazado_115434" data-name="Trazado 115434" d="M5971.558,4102.341h-11.821a2.051,2.051,0,0,0-2.051,2.051v148.066a2.051,2.051,0,0,0,2.051,2.051h49.613a2.05,2.05,0,0,0,2.05-2.051v-73.736C5982.577,4179.811,5973.932,4136.224,5971.558,4102.341Z" transform="translate(-1092.079 -608.397)" opacity="0.5" fill="url(#linear-gradient-17)" style="mix-blend-mode: multiply;isolation: isolate"/>
    <g id="Grupo_57490" data-name="Grupo 57490" transform="translate(4904.928 3529.786)">
      <path id="Trazado_115435" data-name="Trazado 115435" d="M6172.122,4274.09a40.155,40.155,0,0,0-16.323,11.5c1.547,2.9,3.321,6.381,3.321,6.381l-5.78-3.074c-12.562,19-4.955,45.138-4.955,45.138,15.9-6.034,24.092-14.275,27.877-22.715-1.71-1.615-4.282-3.989-4.282-3.989l5.369,1.219a33.692,33.692,0,0,0,1.655-12.512c-2.794-.617-5.948-1.389-5.948-1.389l5.573-2.443A50.4,50.4,0,0,0,6172.122,4274.09Z" transform="translate(-6146.102 -4274.09)" fill="url(#linear-gradient-19)"/>
      <path id="Trazado_115436" data-name="Trazado 115436" d="M6184.915,4311.324c-1.709-1.615-4.281-3.989-4.281-3.989l5.369,1.219a33.692,33.692,0,0,0,1.655-12.512c-2.794-.617-5.948-1.389-5.948-1.389l5.573-2.443a50.4,50.4,0,0,0-6.507-18.121c-16.712,20.944-23.737,59.949-23.737,59.949C6172.935,4328.005,6181.13,4319.764,6184.915,4311.324Z" transform="translate(-6154.756 -4274.09)" fill="url(#linear-gradient-20)"/>
    </g>
    <g id="Grupo_57491" data-name="Grupo 57491" transform="translate(4885.65 3545.229)">
      <path id="Trazado_115437" data-name="Trazado 115437" d="M6160.683,4349.212c-16.1-2.439-29.985-.759-41.907,3.528-.273,6.911-.759,15.132-.759,15.132l-7.232-11.74c-43.057,21.159-57.057,76.751-57.057,76.751,35.311,5.957,58.978-.294,74.839-11.6-1.387-4.755-3.533-11.806-3.533-11.806l8.458,7.932a70.966,70.966,0,0,0,16.327-20.974c-4.42-4.1-9.33-8.859-9.33-8.859l12.729,1.5A106.177,106.177,0,0,0,6160.683,4349.212Z" transform="translate(-6053.729 -4348.086)" fill="url(#linear-gradient-21)"/>
      <path id="Trazado_115438" data-name="Trazado 115438" d="M6128.568,4425.552c-1.387-4.755-3.533-11.806-3.533-11.806l8.458,7.932a70.967,70.967,0,0,0,16.327-20.975c-4.42-4.1-9.33-8.858-9.33-8.858l12.729,1.5a106.174,106.174,0,0,0,7.464-39.857c-52.665,20.269-106.955,83.671-106.955,83.671C6089.04,4443.111,6112.707,4436.859,6128.568,4425.552Z" transform="translate(-6053.729 -4352.356)" fill="url(#linear-gradient-22)"/>
    </g>
    <path id="Trazado_115439" data-name="Trazado 115439" d="M6259,4489.543c-5.507-7.145-13.367,3.114-15.357,5.964a63.019,63.019,0,0,0-9.1-1.907c3.736-2.238,8.158-1.526,9.985-3.628,2.048-2.357,2.426-6.179-3.656-5.624-4.819.439-6.8,6.585-7.422,9.12a53.6,53.6,0,0,0-11.836-.071c3.861-3.19,9.032-2.9,10.816-5.522,1.952-2.864,1.871-7.126-4.76-5.723-5.481,1.16-6.757,8.762-7.035,11.365a29.524,29.524,0,0,0-4.413.875,91.321,91.321,0,0,0-8.965,3.131c3.327-2.888,7.728-3.483,9-6.074,1.532-3.109.855-7.318-5.514-5-5.039,1.833-5.437,8.972-5.385,11.875a84.643,84.643,0,0,0-15.13,8.532c1.9-3.6,7.286-7.332,7.839-11.234a3.97,3.97,0,0,0-2.217-4.45,3.845,3.845,0,0,0-3.313-.074c-6.032,2.669-3.9,13.192-3.115,16.336a80.11,80.11,0,0,0-12.605,11.376c.967-1.871,2.441-4.688,3.273-6.116,1.313-2.252,1.894-5.977.654-8.15-.051-.091-.1-.177-.16-.261a3.925,3.925,0,0,0-4.876-1.309c-6.805,3-1.341,14.713-.084,17.2l-.066.076c-7.81,9.2-10.7,16.865-10.824,17.187l1.189.441a63.051,63.051,0,0,1,9.979-16.062c11.368,3.7,17.161-1.149,16.732-4.12-.443-3.07-4.263-5.842-8.2-2.234a33.81,33.81,0,0,1-7.2,4.793A78.73,78.73,0,0,1,6190,4508.579c12.669,9.666,17.926,1.3,15.98-2.088-1.969-3.428-4.9-3.2-8.728-.854a18.929,18.929,0,0,1-6.544,2.43,83.34,83.34,0,0,1,14.818-8.43c.844,2.71,3.5,9.5,8.917,9.632,6.776.166,6.076-4.04,3.633-6.5-2.247-2.261-7.325-1-11.723-3.495a89.673,89.673,0,0,1,10.223-3.669,37.334,37.334,0,0,1,8.458-1.166c.506,2.823,2.287,9.827,7.623,10.64,6.7,1.021,6.537-3.239,4.424-5.987-1.885-2.451-6.834-1.956-10.825-4.689a58.5,58.5,0,0,1,16.842,2.267c.545,2.926,2.363,9.675,7.591,10.471,6.7,1.021,6.538-3.239,4.425-5.987-1.912-2.486-6.976-1.939-10.995-4.8l.039-.128c1.831.033,5.714.116,7.571.252,2.478.181,5.851-.934,7.1-2.989A4.053,4.053,0,0,0,6259,4489.543Z" transform="translate(-1255.914 -908.727)" fill="url(#linear-gradient-6)"/>
    <g id="Grupo_57493" data-name="Grupo 57493" transform="translate(4891.958 3608.278)">
      <g id="Grupo_57492" data-name="Grupo 57492" transform="translate(0 0)">
        <path id="Trazado_115440" data-name="Trazado 115440" d="M6173.063,4662.564a56.139,56.139,0,0,0-25.375-11.627c-2.411,3.906-5.374,8.5-5.374,8.5l-.352-9.145c-31.789-1.811-58.01,25.758-58.01,25.758,18.468,14.958,34.187,19.064,47.043,17.7.749-3.2,1.809-7.976,1.809-7.976l2.3,7.343a47.1,47.1,0,0,0,16.278-6.8c-1.219-3.81-2.5-8.163-2.5-8.163l6.871,5.016A70.475,70.475,0,0,0,6173.063,4662.564Z" transform="translate(-6083.953 -4650.206)" fill="url(#linear-gradient-24)"/>
        <path id="Trazado_115441" data-name="Trazado 115441" d="M6131,4736.862c.749-3.2,1.809-7.976,1.809-7.976l2.3,7.343a47.09,47.09,0,0,0,16.278-6.8c-1.219-3.809-2.5-8.163-2.5-8.163l6.871,5.016a70.468,70.468,0,0,0,17.313-20.6c-37.052-5.458-89.11,13.485-89.11,13.485C6102.421,4734.122,6118.14,4738.227,6131,4736.862Z" transform="translate(-6083.953 -4693.319)" fill="url(#linear-gradient-25)"/>
      </g>
    </g>
    <path id="Rectángulo_6624" data-name="Rectángulo 6624" d="M3.319,0H25.468a3.319,3.319,0,0,1,3.319,3.319v0a1.108,1.108,0,0,1-1.108,1.108H1.108A1.108,1.108,0,0,1,0,3.319v0A3.319,3.319,0,0,1,3.319,0Z" transform="translate(4878.071 3468.543)" fill="url(#linear-gradient-2)"/>
    <rect id="Rectángulo_6625" data-name="Rectángulo 6625" width="53.714" height="18.147" rx="9.074" transform="translate(4865.607 3472.971)" fill="url(#linear-gradient-27)"/>
    <path id="Trazado_115442" data-name="Trazado 115442" d="M5237.482,3928.575H5080.4a4.6,4.6,0,0,0-4.586,4.312l-11.443,185.7a4.6,4.6,0,0,0,4.586,4.877h179.973a4.6,4.6,0,0,0,4.586-4.877l-11.443-185.7A4.6,4.6,0,0,0,5237.482,3928.575Z" transform="translate(-385.18 -470.895)" fill="#b7d972"/>
    <g id="Grupo_57503" data-name="Grupo 57503" transform="translate(4895.157 3577.036)">
      <g id="Grupo_57500" data-name="Grupo 57500" transform="translate(0 4.564)">
        <g id="Grupo_57495" data-name="Grupo 57495" transform="translate(1.087 0.996)" opacity="0.8">
          <g id="Grupo_57494" data-name="Grupo 57494">
            <path id="Trazado_115443" data-name="Trazado 115443" d="M6110.006,4527.144v.975a4.341,4.341,0,0,1-1.279,3.089l-1.82,1.82h0a8.2,8.2,0,0,0-2.415,5.832v47.331a9.933,9.933,0,0,0,9.92,9.924h21.066a9.933,9.933,0,0,0,9.92-9.924v-47.331a8.2,8.2,0,0,0-2.414-5.832l-1.82-1.82a4.341,4.341,0,0,1-1.279-3.089v-.975Z" transform="translate(-6104.493 -4527.144)" fill="#d1eaf2"/>
          </g>
        </g>
        <g id="Grupo_57496" data-name="Grupo 57496" transform="translate(3.365 15.961)">
          <path id="Trazado_115444" data-name="Trazado 115444" d="M6152.062,4612.784V4651.4a9.205,9.205,0,0,1-9.117,9.29h-18.116a9.205,9.205,0,0,1-9.117-9.29v-38.917Z" transform="translate(-6115.647 -4609.638)" fill="url(#linear-gradient-28)"/>
          <path id="Trazado_115445" data-name="Trazado 115445" d="M6118.387,4598.855c3.833-.137,12.936,2.806,16.563,2.943s7.529-2.463,12.594-2.053c3.583.291,4.236,1.54,4.312,2.246a.746.746,0,0,1-.371.722c-.65.377-2.324,1.067-5.652.866-4.518-.274-11.567,3.285-15.4,3.627-3.552.317-10.411-.365-14.141-3.843a2.657,2.657,0,0,1-.712-2.908C6115.9,4599.657,6116.662,4598.917,6118.387,4598.855Z" transform="translate(-6115.405 -4598.851)" fill="url(#linear-gradient-29)"/>
        </g>
        <g id="Grupo_57497" data-name="Grupo 57497">
          <path id="Trazado_115446" data-name="Trazado 115446" d="M6099.283,4582.168v-46.854a9.449,9.449,0,0,1,2.786-6.726l1.8-1.8a2.957,2.957,0,0,0,.871-2.1v-2.314h32.288v2.314a2.955,2.955,0,0,0,.871,2.1l1.8,1.8a9.449,9.449,0,0,1,2.786,6.726v46.854a11.186,11.186,0,0,1-11.173,11.173h-20.862A11.186,11.186,0,0,1,6099.283,4582.168Zm6.808-58.451v.966a4.293,4.293,0,0,1-1.266,3.057l-1.8,1.8h0a8.111,8.111,0,0,0-2.391,5.772v46.854a9.835,9.835,0,0,0,9.824,9.825h20.862a9.836,9.836,0,0,0,9.825-9.825v-46.854a8.111,8.111,0,0,0-2.391-5.772l-1.8-1.8a4.292,4.292,0,0,1-1.266-3.057v-.966Z" transform="translate(-6099.283 -4522.369)" fill="#d1eaf2"/>
        </g>
        <g id="Grupo_57498" data-name="Grupo 57498" transform="translate(32.225 8.541)" opacity="0.5">
          <path id="Trazado_115447" data-name="Trazado 115447" d="M6257.57,4594.985a1.179,1.179,0,0,0,1.189-1.17c.037-5.089.166-24.533-.014-26.562s-2.055-3.237-3.377-3.848a1.18,1.18,0,0,0-1.622.744v0a1.181,1.181,0,0,0,.637,1.4c.913.427,1.943,1.121,2.013,1.908.147,1.666.071,17.318,0,26.337a1.18,1.18,0,0,0,1.171,1.188Z" transform="translate(-6253.698 -4563.298)" fill="#d1eaf2"/>
        </g>
        <g id="Grupo_57499" data-name="Grupo 57499" transform="translate(6.616 42.909)">
          <circle id="Elipse_4168" data-name="Elipse 4168" cx="2.397" cy="2.397" r="2.397" transform="translate(22.04 14.323)" fill="#b7d972"/>
          <path id="Trazado_115448" data-name="Trazado 115448" d="M6226.064,4769.384a1.249,1.249,0,1,0,1.249-1.249A1.249,1.249,0,0,0,6226.064,4769.384Z" transform="translate(-6206.222 -4759.755)" fill="#b7d972"/>
          <path id="Trazado_115449" data-name="Trazado 115449" d="M6185.714,4806.717a1.249,1.249,0,1,0,1.249-1.249A1.249,1.249,0,0,0,6185.714,4806.717Z" transform="translate(-6174.292 -4789.297)" fill="#b7d972"/>
          <path id="Trazado_115450" data-name="Trazado 115450" d="M6245.449,4771.042a.319.319,0,1,0,.32-.319A.319.319,0,0,0,6245.449,4771.042Z" transform="translate(-6221.561 -4761.803)" fill="#b7d972"/>
          <path id="Trazado_115451" data-name="Trazado 115451" d="M6159.144,4786.944a.418.418,0,1,0,.417-.417A.418.418,0,0,0,6159.144,4786.944Z" transform="translate(-6153.268 -4774.309)" fill="#b7d972"/>
          <path id="Trazado_115452" data-name="Trazado 115452" d="M6176.047,4752.131a.749.749,0,1,0,.75-.749A.75.75,0,0,0,6176.047,4752.131Z" transform="translate(-6166.643 -4746.499)" fill="#b7d972"/>
          <path id="Trazado_115453" data-name="Trazado 115453" d="M6243.389,4728.73a.749.749,0,1,0,.75-.749A.75.75,0,0,0,6243.389,4728.73Z" transform="translate(-6219.931 -4727.981)" fill="#b7d972"/>
          <path id="Trazado_115454" data-name="Trazado 115454" d="M6235.821,4737.685a.286.286,0,1,0,.286-.286A.287.287,0,0,0,6235.821,4737.685Z" transform="translate(-6213.942 -4735.433)" fill="#b7d972"/>
          <path id="Trazado_115455" data-name="Trazado 115455" d="M6250.318,4743.879a.8.8,0,1,0,.8-.8A.8.8,0,0,0,6250.318,4743.879Z" transform="translate(-6225.414 -4739.927)" fill="#b7d972"/>
          <path id="Trazado_115456" data-name="Trazado 115456" d="M6130.985,4776.167a2.382,2.382,0,1,0,2.382-2.383A2.381,2.381,0,0,0,6130.985,4776.167Z" transform="translate(-6130.985 -4764.226)" fill="#b7d972"/>
          <path id="Trazado_115457" data-name="Trazado 115457" d="M6156.793,4761.942a1.042,1.042,0,1,0,1.042-1.042A1.041,1.041,0,0,0,6156.793,4761.942Z" transform="translate(-6151.407 -4754.031)" fill="#b7d972"/>
          <path id="Trazado_115458" data-name="Trazado 115458" d="M6130.985,4733.853a1.684,1.684,0,1,0,1.684-1.685A1.684,1.684,0,0,0,6130.985,4733.853Z" transform="translate(-6130.985 -4731.294)" fill="#b7d972"/>
        </g>
      </g>
      <g id="Grupo_57502" data-name="Grupo 57502" transform="translate(2.268 0)">
        <rect id="Rectángulo_6626" data-name="Rectángulo 6626" width="38.941" height="5.912" rx="2.956" transform="translate(38.941 5.912) rotate(180)" fill="url(#linear-gradient-6)"/>
        <path id="Trazado_115459" data-name="Trazado 115459" d="M6112.166,4513.216h34.911a2.014,2.014,0,0,0,2.015-2.014v1.665a2.014,2.014,0,0,1-2.015,2.014h-34.911a2.014,2.014,0,0,1-2.015-2.014V4511.2A2.014,2.014,0,0,0,6112.166,4513.216Z" transform="translate(-6110.151 -4508.969)" fill="#74bdc1" opacity="0.2" style="mix-blend-mode: multiply;isolation: isolate"/>
        <g id="Grupo_57501" data-name="Grupo 57501" transform="translate(1.949)" opacity="0.3">
          <rect id="Rectángulo_6627" data-name="Rectángulo 6627" width="0.55" height="5.912" transform="translate(34.978 5.912) rotate(180)" fill="#74bdc1" opacity="0.5" style="mix-blend-mode: multiply;isolation: isolate"/>
          <rect id="Rectángulo_6628" data-name="Rectángulo 6628" width="0.55" height="5.912" transform="translate(31.848 5.912) rotate(180)" fill="#74bdc1" opacity="0.5" style="mix-blend-mode: multiply;isolation: isolate"/>
          <rect id="Rectángulo_6629" data-name="Rectángulo 6629" width="0.55" height="5.912" transform="translate(28.718 5.912) rotate(180)" fill="#74bdc1" opacity="0.5" style="mix-blend-mode: multiply;isolation: isolate"/>
          <rect id="Rectángulo_6630" data-name="Rectángulo 6630" width="0.55" height="5.912" transform="translate(25.588 5.912) rotate(180)" fill="#74bdc1" opacity="0.5" style="mix-blend-mode: multiply;isolation: isolate"/>
          <rect id="Rectángulo_6631" data-name="Rectángulo 6631" width="0.55" height="5.912" transform="translate(22.459 5.912) rotate(180)" fill="#74bdc1" opacity="0.5" style="mix-blend-mode: multiply;isolation: isolate"/>
          <rect id="Rectángulo_6632" data-name="Rectángulo 6632" width="0.55" height="5.912" transform="translate(19.329 5.912) rotate(180)" fill="#74bdc1" opacity="0.5" style="mix-blend-mode: multiply;isolation: isolate"/>
          <rect id="Rectángulo_6633" data-name="Rectángulo 6633" width="0.55" height="5.912" transform="translate(16.199 5.912) rotate(180)" fill="#74bdc1" opacity="0.5" style="mix-blend-mode: multiply;isolation: isolate"/>
          <rect id="Rectángulo_6634" data-name="Rectángulo 6634" width="0.55" height="5.912" transform="translate(13.069 5.912) rotate(180)" fill="#74bdc1" opacity="0.5" style="mix-blend-mode: multiply;isolation: isolate"/>
          <rect id="Rectángulo_6635" data-name="Rectángulo 6635" width="0.55" height="5.912" transform="translate(9.939 5.912) rotate(180)" fill="#74bdc1" opacity="0.5" style="mix-blend-mode: multiply;isolation: isolate"/>
          <rect id="Rectángulo_6636" data-name="Rectángulo 6636" width="0.55" height="5.912" transform="translate(6.81 5.912) rotate(180)" fill="#f4a640" style="mix-blend-mode: multiply;isolation: isolate"/>
          <rect id="Rectángulo_6637" data-name="Rectángulo 6637" width="0.55" height="5.912" transform="translate(3.68 5.912) rotate(180)" fill="#f4a640" style="mix-blend-mode: multiply;isolation: isolate"/>
          <rect id="Rectángulo_6638" data-name="Rectángulo 6638" width="0.55" height="5.912" transform="translate(0.55 5.912) rotate(180)" fill="#f4a640" style="mix-blend-mode: multiply;isolation: isolate"/>
        </g>
      </g>
    </g>
    <path id="Trazado_115460" data-name="Trazado 115460" d="M5212.031,3659.239s2.059-50.21,44.834-67.137,71.141,24.247,76.173,67.137l-12.581,5.376-2.059-5.376s.914-65.994-42.6-64.85c-43.025,1.131-51.411,65.879-51.411,65.879s-6.862,17.385-7.319,15.784S5212.031,3659.239,5212.031,3659.239Z" transform="translate(-502.036 -201.558)" fill="#b7d972"/>
    <path id="Trazado_115461" data-name="Trazado 115461" d="M5252.022,4094.424c-141.509,3.287-142.208-125.383-138.941-165.849H5080.4a4.6,4.6,0,0,0-4.586,4.312l-11.443,185.7a4.6,4.6,0,0,0,4.586,4.877h179.973a4.6,4.6,0,0,0,4.586-4.877Z" transform="translate(-385.18 -470.895)" fill="#847d3d" opacity="0.3"/>
    <g id="Grupo_57513" data-name="Grupo 57513" transform="translate(4850.136 3552.469)">
      <g id="Grupo_57510" data-name="Grupo 57510" transform="translate(0 6.048)">
        <g id="Grupo_57505" data-name="Grupo 57505" transform="translate(1.609 1.32)" opacity="0.8">
          <g id="Grupo_57504" data-name="Grupo 57504">
            <path id="Trazado_115462" data-name="Trazado 115462" d="M5898.57,4418.087v1.293a5.751,5.751,0,0,1-1.694,4.092l-2.413,2.414a10.862,10.862,0,0,0-3.2,7.728v62.725a13.164,13.164,0,0,0,13.146,13.152h27.919a13.164,13.164,0,0,0,13.146-13.152v-62.725a10.862,10.862,0,0,0-3.2-7.728h0l-2.412-2.414a5.747,5.747,0,0,1-1.695-4.092v-1.293Z" transform="translate(-5891.264 -4418.087)" fill="#d1eaf2"/>
          </g>
        </g>
        <g id="Grupo_57506" data-name="Grupo 57506" transform="translate(4.492 21.152)">
          <path id="Trazado_115463" data-name="Trazado 115463" d="M5905.336,4531.581v51.175a12.2,12.2,0,0,0,12.082,12.312h24.009a12.2,12.2,0,0,0,12.082-12.312v-51.574Z" transform="translate(-5905.282 -4527.412)" fill="url(#linear-gradient-31)"/>
          <path id="Trazado_115464" data-name="Trazado 115464" d="M5949.438,4513.122c-5.08-.181-17.144,3.719-21.951,3.9s-9.978-3.266-16.69-2.721c-4.748.385-5.614,2.041-5.714,2.977a.986.986,0,0,0,.492.956c.861.5,3.079,1.415,7.489,1.147,5.987-.362,15.329,4.354,20.409,4.807,4.708.421,13.8-.483,18.74-5.093a3.522,3.522,0,0,0,.943-3.854C5952.735,4514.186,5951.724,4513.2,5949.438,4513.122Z" transform="translate(-5905.079 -4513.116)" fill="url(#linear-gradient-10)"/>
        </g>
        <g id="Grupo_57507" data-name="Grupo 57507">
          <path id="Trazado_115465" data-name="Trazado 115465" d="M5926.009,4505.815h-27.647a14.823,14.823,0,0,1-14.807-14.807v-62.091a12.525,12.525,0,0,1,3.691-8.914l2.39-2.389a3.916,3.916,0,0,0,1.154-2.788v-3.067h42.79v3.067a3.917,3.917,0,0,0,1.154,2.788l2.389,2.389a12.522,12.522,0,0,1,3.692,8.914v62.091A14.823,14.823,0,0,1,5926.009,4505.815Zm-33.432-92.269v1.28a5.688,5.688,0,0,1-1.678,4.051l-2.389,2.389a10.751,10.751,0,0,0-3.168,7.651v62.091a13.034,13.034,0,0,0,13.02,13.02h27.647a13.034,13.034,0,0,0,13.02-13.02v-62.091a10.751,10.751,0,0,0-3.168-7.651h0l-2.389-2.389a5.688,5.688,0,0,1-1.678-4.051v-1.28Z" transform="translate(-5883.555 -4411.76)" fill="#d1eaf2"/>
        </g>
        <g id="Grupo_57508" data-name="Grupo 57508" transform="translate(7.743 11.319)" opacity="0.5">
          <path id="Trazado_115466" data-name="Trazado 115466" d="M5922.338,4507.995a1.564,1.564,0,0,1-1.576-1.551c-.049-6.744-.22-32.512.019-35.2s2.724-4.29,4.476-5.1a1.562,1.562,0,0,1,2.149.987l0,0a1.564,1.564,0,0,1-.844,1.854c-1.211.566-2.576,1.487-2.668,2.529-.2,2.208-.095,22.951-.006,34.9a1.564,1.564,0,0,1-1.552,1.574Z" transform="translate(-5920.657 -4466)" fill="#d1eaf2"/>
        </g>
        <g id="Grupo_57509" data-name="Grupo 57509" transform="translate(12.464 56.865)">
          <circle id="Elipse_4169" data-name="Elipse 4169" cx="3.177" cy="3.177" r="3.177" transform="translate(0 24.785) rotate(-80.783)" fill="#b7d972"/>
          <path id="Trazado_115467" data-name="Trazado 115467" d="M5977.374,4739.113a1.655,1.655,0,1,1-1.655-1.654A1.655,1.655,0,0,1,5977.374,4739.113Z" transform="translate(-5967.639 -4726.354)" fill="#b7d972"/>
          <circle id="Elipse_4170" data-name="Elipse 4170" cx="1.655" cy="1.655" r="1.655" transform="translate(16.899 23.085) rotate(-45)" fill="#b7d972"/>
          <path id="Trazado_115468" data-name="Trazado 115468" d="M5961.022,4741.312a.423.423,0,1,1-.423-.424A.423.423,0,0,1,5961.022,4741.312Z" transform="translate(-5956.649 -4729.067)" fill="#b7d972"/>
          <path id="Trazado_115469" data-name="Trazado 115469" d="M6074.411,4762.385a.553.553,0,1,1-.553-.553A.553.553,0,0,1,6074.411,4762.385Z" transform="translate(-6046.169 -4745.64)" fill="#b7d972"/>
          <path id="Trazado_115470" data-name="Trazado 115470" d="M6048.677,4716.251a.993.993,0,1,1-.993-.993A.993.993,0,0,1,6048.677,4716.251Z" transform="translate(-6025.11 -4708.786)" fill="#b7d972"/>
          <path id="Trazado_115471" data-name="Trazado 115471" d="M5959.433,4685.238a.993.993,0,1,1-.993-.993A.993.993,0,0,1,5959.433,4685.238Z" transform="translate(-5954.49 -4684.245)" fill="#b7d972"/>
          <path id="Trazado_115472" data-name="Trazado 115472" d="M5974.115,4697.1a.379.379,0,1,1-.379-.379A.379.379,0,0,1,5974.115,4697.1Z" transform="translate(-5967.08 -4694.121)" fill="#b7d972"/>
          <path id="Trazado_115473" data-name="Trazado 115473" d="M5949.724,4705.314a1.062,1.062,0,1,1-1.062-1.062A1.061,1.061,0,0,1,5949.724,4705.314Z" transform="translate(-5946.697 -4700.077)" fill="#b7d972"/>
          <path id="Trazado_115474" data-name="Trazado 115474" d="M6091.985,4748.1a3.157,3.157,0,1,1-3.156-3.157A3.157,3.157,0,0,1,6091.985,4748.1Z" transform="translate(-6055.956 -4732.277)" fill="#b7d972"/>
          <path id="Trazado_115475" data-name="Trazado 115475" d="M6071.257,4729.252a1.38,1.38,0,1,1-1.38-1.379A1.38,1.38,0,0,1,6071.257,4729.252Z" transform="translate(-6042.365 -4718.768)" fill="#b7d972"/>
          <path id="Trazado_115476" data-name="Trazado 115476" d="M6099,4692.026a2.232,2.232,0,1,1-2.232-2.232A2.232,2.232,0,0,1,6099,4692.026Z" transform="translate(-6062.968 -4688.636)" fill="#b7d972"/>
        </g>
      </g>
      <g id="Grupo_57512" data-name="Grupo 57512" transform="translate(2.65 0)">
        <rect id="Rectángulo_6639" data-name="Rectángulo 6639" width="51.606" height="7.835" rx="3.917" fill="url(#linear-gradient-2)"/>
        <path id="Trazado_115477" data-name="Trazado 115477" d="M5945.188,4399.629H5898.92a2.67,2.67,0,0,1-2.669-2.67v2.207a2.67,2.67,0,0,0,2.669,2.669h46.267a2.67,2.67,0,0,0,2.669-2.669v-2.207A2.67,2.67,0,0,1,5945.188,4399.629Z" transform="translate(-5896.251 -4394)" fill="url(#linear-gradient-34)"/>
        <g id="Grupo_57511" data-name="Grupo 57511" transform="translate(2.67)" opacity="0.3">
          <rect id="Rectángulo_6640" data-name="Rectángulo 6640" width="0.729" height="7.835" fill="#7772d6" style="mix-blend-mode: multiply;isolation: isolate"/>
          <rect id="Rectángulo_6641" data-name="Rectángulo 6641" width="0.729" height="7.835" transform="translate(4.148)" fill="#7772d6" style="mix-blend-mode: multiply;isolation: isolate"/>
          <rect id="Rectángulo_6642" data-name="Rectángulo 6642" width="0.729" height="7.835" transform="translate(8.295)" fill="#7772d6" style="mix-blend-mode: multiply;isolation: isolate"/>
          <rect id="Rectángulo_6643" data-name="Rectángulo 6643" width="0.729" height="7.835" transform="translate(12.443)" fill="#7772d6" style="mix-blend-mode: multiply;isolation: isolate"/>
          <rect id="Rectángulo_6644" data-name="Rectángulo 6644" width="0.729" height="7.835" transform="translate(16.591)" fill="#7772d6" style="mix-blend-mode: multiply;isolation: isolate"/>
          <rect id="Rectángulo_6645" data-name="Rectángulo 6645" width="0.729" height="7.835" transform="translate(20.738)" fill="#7772d6" style="mix-blend-mode: multiply;isolation: isolate"/>
          <rect id="Rectángulo_6646" data-name="Rectángulo 6646" width="0.729" height="7.835" transform="translate(24.886)" fill="#7772d6" style="mix-blend-mode: multiply;isolation: isolate"/>
          <rect id="Rectángulo_6647" data-name="Rectángulo 6647" width="0.729" height="7.835" transform="translate(29.034)" fill="#7772d6" style="mix-blend-mode: multiply;isolation: isolate"/>
          <rect id="Rectángulo_6648" data-name="Rectángulo 6648" width="0.729" height="7.835" transform="translate(33.182)" fill="#7772d6" style="mix-blend-mode: multiply;isolation: isolate"/>
          <rect id="Rectángulo_6649" data-name="Rectángulo 6649" width="0.729" height="7.835" transform="translate(37.329)" fill="#7772d6" style="mix-blend-mode: multiply;isolation: isolate"/>
          <rect id="Rectángulo_6650" data-name="Rectángulo 6650" width="0.729" height="7.835" transform="translate(41.477)" fill="#7772d6" style="mix-blend-mode: multiply;isolation: isolate"/>
          <rect id="Rectángulo_6651" data-name="Rectángulo 6651" width="0.729" height="7.835" transform="translate(45.625)" fill="#7772d6" style="mix-blend-mode: multiply;isolation: isolate"/>
        </g>
      </g>
    </g>
    <g id="Grupo_57517" data-name="Grupo 57517" transform="translate(4710.917 3486.455)">
      <g id="Grupo_57514" data-name="Grupo 57514" transform="translate(62.5 51.303)">
        <path id="Trazado_115478" data-name="Trazado 115478" d="M5627.638,4322.8l22.4-10.514,11.428,20.8.8,4.914-5.6,13.142-16.562-3.146Z" transform="translate(-5604.326 -4312.286)" fill="url(#linear-gradient-35)"/>
        <path id="Trazado_115479" data-name="Trazado 115479" d="M5531.245,4425.2H5559.6a13.6,13.6,0,0,0,11.99-6.914,11.768,11.768,0,0,0,1.475-6.342s10.513,31.768-14.17,35.882h-27.654v4.686l-15.312-14.856,15.427-16.569Z" transform="translate(-5515.932 -4391.146)" fill="url(#linear-gradient-10)"/>
      </g>
      <g id="Grupo_57515" data-name="Grupo 57515" transform="translate(0 48.349)">
        <path id="Trazado_115480" data-name="Trazado 115480" d="M5315.153,4474.574l-1.394,24.7-23.729.171-4.7-1.631-8.9-11.172,10.639-13.076Z" transform="translate(-5263.908 -4436.957)" fill="url(#linear-gradient-37)"/>
        <path id="Trazado_115481" data-name="Trazado 115481" d="M5250.782,4317.524l-13.477,24.952a13.6,13.6,0,0,0,.386,13.835,11.76,11.76,0,0,0,4.878,4.312s-32.948-5.847-24.838-29.52l13.142-24.332-4.122-2.227,20.348-6.413,7.248,21.448Z" transform="translate(-5216.447 -4298.132)" fill="url(#linear-gradient-10)"/>
      </g>
      <g id="Grupo_57516" data-name="Grupo 57516" transform="translate(28.597 0)">
        <path id="Trazado_115482" data-name="Trazado 115482" d="M5374.735,4147.462l-21.259-12.66,10.823-21.119,3.621-3.416,14.022-2.727,6.675,15.48Z" transform="translate(-5353.477 -4098.967)" fill="url(#linear-gradient-39)"/>
        <path id="Trazado_115483" data-name="Trazado 115483" d="M5439.751,4108.385,5423.86,4084.9a13.6,13.6,0,0,0-12.445-6.056,11.758,11.758,0,0,0-6.079,2.332s20.421-26.509,37.66-8.37l15.5,22.9,3.88-2.625-3.724,21.008-22.368-3.493Z" transform="translate(-5394.513 -4066.455)" fill="url(#linear-gradient-10)"/>
      </g>
    </g>
    <path id="Trazado_115484" data-name="Trazado 115484" d="M4984.408,4853.047H4578.868a1.274,1.274,0,0,1-1.273-1.274h0a1.274,1.274,0,0,1,1.273-1.273h405.541a1.274,1.274,0,0,1,1.273,1.273h0A1.274,1.274,0,0,1,4984.408,4853.047Z" transform="translate(0 -1200.422)" fill="#727997"/>
    <path id="Trazado_115485" data-name="Trazado 115485" d="M5682.758,3346.992a5.622,5.622,0,0,1,6.891-4.175,8.275,8.275,0,0,1,9.95-4.4,10.193,10.193,0,0,1,18.309,1.781,6.992,6.992,0,0,1,10.391,6.11c0,.229-.012.455-.033.679Z" transform="translate(-874.526 0)" fill="#edfdfc" opacity="0.9"/>
    <path id="Trazado_115486" data-name="Trazado 115486" d="M6259.585,3694.518a5.6,5.6,0,0,1,6.867-4.159,8.245,8.245,0,0,1,9.913-4.379,10.155,10.155,0,0,1,18.241,1.774,6.966,6.966,0,0,1,10.354,6.088c0,.228-.012.453-.033.676Z" transform="translate(-1330.974 -275.04)" fill="#edfdfc" opacity="0.9"/>
    <path id="Trazado_115487" data-name="Trazado 115487" d="M4637.366,3748.315a5.6,5.6,0,0,1,6.866-4.159,8.245,8.245,0,0,1,9.913-4.379,10.155,10.155,0,0,1,18.241,1.774,6.966,6.966,0,0,1,10.354,6.088q0,.342-.033.676Z" transform="translate(-47.298 -317.61)" fill="#d1eaf2" opacity="0.9"/>
    <path id="Trazado_115488" data-name="Trazado 115488" d="M6172.442,3593.481a2.2,2.2,0,0,1,2.692-1.631,3.234,3.234,0,0,1,3.888-1.717,3.983,3.983,0,0,1,7.153.7,2.732,2.732,0,0,1,4.06,2.387,2.638,2.638,0,0,1-.013.265Z" transform="translate(-1262.017 -201.558)" fill="#edfdfc" opacity="0.9"/>
    <path id="Trazado_115489" data-name="Trazado 115489" d="M4833.58,3644.592a2.2,2.2,0,0,1,2.693-1.631,3.234,3.234,0,0,1,3.888-1.717,3.982,3.982,0,0,1,7.153.7,2.731,2.731,0,0,1,4.06,2.387,2.657,2.657,0,0,1-.013.265Z" transform="translate(-202.564 -242.002)" fill="#fff" opacity="0.9"/>
    <path id="Trazado_115490" data-name="Trazado 115490" d="M5528.7,3475.462a3.119,3.119,0,0,1,3.824-2.316,4.591,4.591,0,0,1,5.521-2.438,5.655,5.655,0,0,1,10.158.988,3.88,3.88,0,0,1,5.766,3.39c0,.127-.007.252-.019.376Z" transform="translate(-752.617 -106.415)" fill="#edfdfc" opacity="0.9"/>
    <path id="Trazado_115491" data-name="Trazado 115491" d="M5650.659,3819.357l-.126.012c0,.044,0,.069,0,.069l.678.8.192.039a5.322,5.322,0,0,1,2.108.342C5654.3,3821.01,5653.435,3819.121,5650.659,3819.357Z" transform="translate(-849.026 -384.453)" fill="#efac7f"/>
    <path id="Trazado_115492" data-name="Trazado 115492" d="M5502.2,3870.625q-.527,1.147-1.08,2.279c-.366.756-.742,1.508-1.116,2.26l-1.137,2.249-.57,1.124c-.191.374-.379.749-.553,1.132.281-.793.634-1.559.987-2.321s.725-1.517,1.1-2.269.761-1.5,1.155-2.241S5501.779,3871.355,5502.2,3870.625Z" transform="translate(-728.121 -425.038)" fill="#473b1e"/>
    <g id="Grupo_57518" data-name="Grupo 57518" transform="translate(4768.032 3454.509)">
      <path id="Trazado_115493" data-name="Trazado 115493" d="M5490.128,3913.556a19.3,19.3,0,0,1,3.182-.176,22.6,22.6,0,0,1,3.179.294,21.637,21.637,0,0,1,3.1.754l.754.268a1.934,1.934,0,0,1,.188.073l.181.084.36.172c.237.119.474.24.708.366s.465.258.686.406c-.465-.256-.948-.476-1.434-.686l-.364-.158-.184-.077c-.057-.026-.124-.042-.186-.063l-.753-.242a26.044,26.044,0,0,0-3.089-.708,27.4,27.4,0,0,0-3.153-.335c-.528-.021-1.058-.04-1.587-.033S5490.658,3913.516,5490.128,3913.556Z" transform="translate(-5490.128 -3913.375)" fill="#473b1e"/>
    </g>
    <path id="Trazado_115494" data-name="Trazado 115494" d="M5541.662,3925.423a5.651,5.651,0,0,0-3.642-.49l-.167.034c-.9.189-.862.679-.8.9a.172.172,0,0,0,.161.118c.139.005.317.016.559.043,1.4.161-.01,1.778.539,1.8.693.034.563-1.483.923-1.443.679.075-.187,1.39.26,1.483.49.1.143-1.531.924-1.457.418.04-.163,1.506.332,1.417.52-.093.13-1.417.606-1.376.7.06-.216,1.328.3,1.417C5541.974,3927.927,5542.439,3925.886,5541.662,3925.423Z" transform="translate(-759.208 -467.939)" fill="#efac7f"/>
    <path id="Trazado_115495" data-name="Trazado 115495" d="M5582.337,3817.534a1.075,1.075,0,1,0,1.5-.754A1.2,1.2,0,0,0,5582.337,3817.534Z" transform="translate(-794.947 -382.369)" fill="#d19369"/>
    <path id="Trazado_115496" data-name="Trazado 115496" d="M5536.857,3798.631a5.51,5.51,0,0,0,.46-.9,10.355,10.355,0,0,0,.67-2.55c.024-.17.059-.339.095-.507a5.6,5.6,0,1,0-11.062-1.444,1.21,1.21,0,0,0-1.086-.132,1.688,1.688,0,0,0,1.213,3.063,1.065,1.065,0,0,0,.258-.147,5.25,5.25,0,0,0,5.008,5.033,5.027,5.027,0,0,0,3.467-1.271,2.534,2.534,0,0,0,.2-.169A4.889,4.889,0,0,0,5536.857,3798.631Z" transform="translate(-749.827 -359.556)" fill="#efac7f"/>
    <path id="Trazado_115497" data-name="Trazado 115497" d="M5554.284,3815.008a.489.489,0,1,1-.476-.5A.489.489,0,0,1,5554.284,3815.008Z" transform="translate(-772.09 -380.631)" fill="#333"/>
    <path id="Trazado_115498" data-name="Trazado 115498" d="M5574.356,3816.859a.489.489,0,1,1-.475-.5A.488.488,0,0,1,5574.356,3816.859Z" transform="translate(-787.973 -382.096)" fill="#333"/>
    <path id="Trazado_115499" data-name="Trazado 115499" d="M5550.608,3809.73a4.661,4.661,0,0,0-.691-.249,2.386,2.386,0,0,0-.678-.083,2.239,2.239,0,0,0-.671.114l-.085.024c-.029.008-.054.022-.083.032l-.169.066c-.114.046-.221.107-.347.152a2.136,2.136,0,0,1,.251-.3,1.764,1.764,0,0,1,.32-.232,1.582,1.582,0,0,1,.777-.214,1.672,1.672,0,0,1,.786.179A1.546,1.546,0,0,1,5550.608,3809.73Z" transform="translate(-767.798 -376.306)" fill="#473b1e"/>
    <path id="Trazado_115500" data-name="Trazado 115500" d="M5570.348,3811.2a1.538,1.538,0,0,1,.663-.413,1.654,1.654,0,0,1,.8-.056,1.6,1.6,0,0,1,.735.332,1.787,1.787,0,0,1,.281.279,2.1,2.1,0,0,1,.2.333c-.118-.063-.213-.141-.319-.2l-.158-.091c-.026-.014-.049-.032-.076-.045l-.081-.037a2.249,2.249,0,0,0-.645-.216,2.418,2.418,0,0,0-.684-.022A4.6,4.6,0,0,0,5570.348,3811.2Z" transform="translate(-785.575 -377.623)" fill="#473b1e"/>
    <path id="Trazado_115501" data-name="Trazado 115501" d="M5564.83,3814.973a6.92,6.92,0,0,1,.454.823,6.578,6.578,0,0,1,.35.877,2.522,2.522,0,0,1,.1.475.917.917,0,0,1,0,.132c0,.023-.008.048-.012.071a.31.31,0,0,1-.033.078c-.009.013-.019.026-.029.038l-.024.022c-.016.014-.031.029-.048.042-.033.024-.067.05-.1.071a2.253,2.253,0,0,1-.432.209,3.057,3.057,0,0,1-.453.13,5.167,5.167,0,0,0,.8-.462c.03-.022.056-.047.083-.071l.037-.038.019-.019a.041.041,0,0,1,0-.009.351.351,0,0,0,.01-.177,2.489,2.489,0,0,0-.1-.436c-.088-.293-.2-.583-.3-.875S5564.929,3815.271,5564.83,3814.973Z" transform="translate(-781.026 -381)" fill="#d19369"/>
    <path id="Trazado_115502" data-name="Trazado 115502" d="M5533.9,3774s1.692-1.252,5.27-.732,4.106,2.515,4.089,5.3l-.334,3.026s-.994-.819-1.99-3.668c0,0-2.2,2.167-3.054,1.818s.489-1.929.489-1.929-4.22,3.355-6.636,3.15c0,0-1.11-4.42.81-5.836,0,0-1.357-.045-1.406-.326s.7-.632,1.986-.37c0,0-.775-1.946-.243-2.1S5533.9,3774,5533.9,3774Z" transform="translate(-754.548 -347.251)" fill="#473b1e"/>
    <path id="Trazado_115503" data-name="Trazado 115503" d="M5558.573,3833.3a1.886,1.886,0,0,1-3.35-.408Z" transform="translate(-773.607 -395.177)" fill="#fff"/>
    <g id="Grupo_57522" data-name="Grupo 57522" transform="translate(4768.962 3544.244)">
      <path id="Trazado_115504" data-name="Trazado 115504" d="M5830.331,4821.125v-2.619l-3-.83-.667.292-.114,3.156.944,2.75Z" transform="translate(-5757.276 -4718.692)" fill="#efac7f"/>
      <g id="Grupo_57521" data-name="Grupo 57521" transform="translate(0 0)">
        <path id="Trazado_115505" data-name="Trazado 115505" d="M5738.587,4821.125v-2.619l-3-.83-.667.292-.113,3.156.943,2.75Z" transform="translate(-5684.678 -4718.692)" fill="#efac7f"/>
        <path id="Trazado_115506" data-name="Trazado 115506" d="M5672.008,4426.469s-3.931,4.671-13.189,5.495-2.326,5.713-2.326,5.713,11.157,1.606,15.055-1.011S5672.008,4426.469,5672.008,4426.469Z" transform="translate(-5620.732 -4409.127)" fill="#b7d972"/>
        <path id="Trazado_115507" data-name="Trazado 115507" d="M5721.685,4558.266l2.125,51.816h4.951l4.363-39.165-5.72-17.547Z" transform="translate(-5674.292 -4509.545)" fill="#473b1e"/>
        <path id="Trazado_115508" data-name="Trazado 115508" d="M5731.871,4561.351l19.4,51.707,4.75-.388s-5.913-47.405-9.452-51.913-11.294-3.539-11.294-3.539Z" transform="translate(-5682.352 -4512.521)" fill="#473b1e"/>
        <path id="Trazado_115509" data-name="Trazado 115509" d="M5735.5,4351.922s1.031-5.35-1.982-7.231a7.725,7.725,0,0,0-8.194-.283c-2.076,1.267-3.188,5.463-2.147,7.8l6.954-2.517Z" transform="translate(-5675.154 -4343.369)" fill="#282828"/>
        <path id="Trazado_115510" data-name="Trazado 115510" d="M5742.184,4410.651s2.4,1.42,4.263,0h0l-.44-3.466-3.713-.766-.109,4.231Z" transform="translate(-5690.512 -4393.262)" fill="#efac7f"/>
        <path id="Trazado_115511" data-name="Trazado 115511" d="M5722.725,4380.343a1.123,1.123,0,0,1-.587,1.481,1.173,1.173,0,0,1-1.363-.88,1.124,1.124,0,0,1,.588-1.482A1.174,1.174,0,0,1,5722.725,4380.343Z" transform="translate(-5673.513 -4371.901)" fill="#d19369"/>
        <path id="Trazado_115512" data-name="Trazado 115512" d="M5727.04,4365.019a5.055,5.055,0,0,1-.339-.9,9.527,9.527,0,0,1-.347-2.47c0-.163-.016-.325-.031-.487a5.143,5.143,0,0,1,.209-2.03,5.465,5.465,0,0,1,5.245-3.767,5.364,5.364,0,0,1,5.436,5.712,1.213,1.213,0,0,1,1.067,0,1.4,1.4,0,0,1,.359,1.964,1.493,1.493,0,0,1-1.9.771,1.041,1.041,0,0,1-.231-.168,5.1,5.1,0,0,1-5.451,4.148,4.955,4.955,0,0,1-3.207-1.592,2.438,2.438,0,0,1-.17-.182A4.558,4.558,0,0,1,5727.04,4365.019Z" transform="translate(-5677.942 -4352.865)" fill="#efac7f"/>
        <path id="Trazado_115513" data-name="Trazado 115513" d="M5753.246,4381.856a.467.467,0,0,0,.43.5.474.474,0,0,0,.521-.416.466.466,0,0,0-.43-.5A.474.474,0,0,0,5753.246,4381.856Z" transform="translate(-5699.265 -4373.494)" fill="#333"/>
        <path id="Trazado_115514" data-name="Trazado 115514" d="M5735.3,4380.984a.466.466,0,0,0,.429.5.474.474,0,0,0,.521-.417.466.466,0,0,0-.429-.5A.472.472,0,0,0,5735.3,4380.984Z" transform="translate(-5685.065 -4372.804)" fill="#333"/>
        <path id="Trazado_115515" data-name="Trazado 115515" d="M5750.942,4376.907a4.69,4.69,0,0,1,.7-.155,2.429,2.429,0,0,1,.668,0,2.22,2.22,0,0,1,.636.185l.08.032c.026.011.05.028.076.04l.156.081c.1.057.2.126.318.183a2.119,2.119,0,0,0-.208-.308,1.7,1.7,0,0,0-.283-.254,1.577,1.577,0,0,0-.727-.29,1.676,1.676,0,0,0-.782.077A1.515,1.515,0,0,0,5750.942,4376.907Z" transform="translate(-5697.443 -4369.51)" fill="#282828"/>
        <path id="Trazado_115516" data-name="Trazado 115516" d="M5733.388,4375.805a1.488,1.488,0,0,0-.593-.462,1.662,1.662,0,0,0-.771-.145,1.585,1.585,0,0,0-.75.226,1.713,1.713,0,0,0-.305.229,2.062,2.062,0,0,0-.236.289c.122-.045.224-.107.333-.154l.163-.068c.027-.01.052-.024.08-.033l.082-.025a2.24,2.24,0,0,1,.652-.129,2.435,2.435,0,0,1,.665.058A4.663,4.663,0,0,1,5733.388,4375.805Z" transform="translate(-5681.451 -4368.554)" fill="#282828"/>
        <path id="Trazado_115517" data-name="Trazado 115517" d="M5743.854,4378.061a3.469,3.469,0,0,1,.066,1,2.641,2.641,0,0,1-.084.5,1.286,1.286,0,0,1-.246.5l-.058.056-.052.047a.5.5,0,0,0-.067.065.376.376,0,0,0-.085.15.437.437,0,0,0,.07.354,1.417,1.417,0,0,0,.775.5,1.181,1.181,0,0,1-.981-.356.666.666,0,0,1-.167-.565.538.538,0,0,1,.053-.151.615.615,0,0,1,.085-.133.882.882,0,0,1,.109-.109.449.449,0,0,0,.04-.038l.032-.031a1.2,1.2,0,0,0,.2-.376,3.851,3.851,0,0,0,.127-.453C5743.736,4378.709,5743.791,4378.388,5743.854,4378.061Z" transform="translate(-5691.168 -4370.821)" fill="#d19369"/>
        <path id="Trazado_115518" data-name="Trazado 115518" d="M5739.975,4396.126a1.894,1.894,0,0,0,3.339-.058Z" transform="translate(-5688.765 -4385.07)" fill="#fff"/>
        <path id="Trazado_115519" data-name="Trazado 115519" d="M5740.287,4358.07a.858.858,0,0,1,.562-.281l-.213-1.709-.573-1.013s-2.2-2.7-2.272-2.764-1.7-.9-1.8-.945-2.319.381-2.319.381-3.956-.648-3.213,1.378,3.65,2.991,3.794,2.894a3.416,3.416,0,0,1-.583-1.746C5735.78,4356.386,5739.68,4357.851,5740.287,4358.07Z" transform="translate(-5681.157 -4349.688)" fill="#282828"/>
        <g id="Grupo_57519" data-name="Grupo 57519" transform="translate(45.455 101.608)">
          <path id="Trazado_115520" data-name="Trazado 115520" d="M5712.852,4846.982l8.266-.005a.449.449,0,0,0,.45-.45v-.023a.451.451,0,0,0-.45-.45l-8.266.005a.45.45,0,0,0-.449.45v.022A.45.45,0,0,0,5712.852,4846.982Z" transform="translate(-5712.401 -4842.756)" fill="#473b1e"/>
          <path id="Trazado_115521" data-name="Trazado 115521" d="M5721.143,4830.748l.305,2.565c.038.315-.139.6-.372.6l-8.077,0a.589.589,0,0,1-.527-.377,1.121,1.121,0,0,1,.226-1.144c.7-.994,2.966-1.26,4.159-2.075a.416.416,0,0,1,.234-.072l3.628,0C5720.93,4830.252,5721.109,4830.462,5721.143,4830.748Z" transform="translate(-5712.399 -4830.252)" fill="#002a24"/>
        </g>
        <g id="Grupo_57520" data-name="Grupo 57520" transform="translate(64.499 101.608)">
          <path id="Trazado_115522" data-name="Trazado 115522" d="M5804.1,4846.982l8.266-.005a.449.449,0,0,0,.45-.45v-.023a.451.451,0,0,0-.45-.45l-8.266.005a.45.45,0,0,0-.45.45v.022A.45.45,0,0,0,5804.1,4846.982Z" transform="translate(-5803.652 -4842.756)" fill="#473b1e"/>
          <path id="Trazado_115523" data-name="Trazado 115523" d="M5812.4,4830.748l.306,2.565c.037.315-.14.6-.372.6l-8.076,0a.589.589,0,0,1-.528-.377,1.121,1.121,0,0,1,.226-1.144c.7-.994,2.966-1.26,4.159-2.075a.414.414,0,0,1,.233-.072l3.628,0C5812.182,4830.252,5812.361,4830.462,5812.4,4830.748Z" transform="translate(-5803.651 -4830.252)" fill="#002a24"/>
        </g>
        <path id="Trazado_115524" data-name="Trazado 115524" d="M5527.642,4432.209l.3-.058,16.515-3.211a3.164,3.164,0,0,1,3.742,2.708l5.051,39.865a3.157,3.157,0,0,1-1.708,3.219,54.885,54.885,0,0,1-29.824,5.8,3.16,3.16,0,0,1-2.789-2.345l-10.252-38.854a3.164,3.164,0,0,1,2.455-3.913Z" transform="translate(-5505.649 -4411.036)" fill="#edfdfc"/>
        <path id="Trazado_115525" data-name="Trazado 115525" d="M5495.007,4400.148c.125-1.668,1.022-2.932,2.252-3.17l17.786-3.458.3-.058,17.786-3.458c1.23-.239,2.535.6,3.275,2.1l2.466,5a2.371,2.371,0,0,1-1.674,3.376l-19.744,3.839-.3.058-19.744,3.838a2.371,2.371,0,0,1-2.818-2.5Z" transform="translate(-5494.586 -4380.239)" fill="#473b1e"/>
        <path id="Trazado_115526" data-name="Trazado 115526" d="M5504.756,4379.271a1.357,1.357,0,0,1,1.073-1.591l16.428-3.193.3-.058,16.428-3.194a1.357,1.357,0,0,1,1.591,1.073l.777,4-18.126,2.356-17.688,4.607Z" transform="translate(-5502.614 -4365.399)" fill="#473b1e"/>
        <path id="Trazado_115527" data-name="Trazado 115527" d="M5552.755,4473.339l1.976,18.184a.738.738,0,0,1-.407.744,73.844,73.844,0,0,1-37.206,7.232.737.737,0,0,1-.655-.537l-4.98-17.6a.738.738,0,0,1,.719-.941c9.138.145,31.117-4.128,39.534-7.686A.738.738,0,0,1,5552.755,4473.339Z" transform="translate(-5507.934 -4445.692)" fill="url(#linear-gradient-6)"/>
        <path id="Trazado_115528" data-name="Trazado 115528" d="M5592.461,4516.262a7.254,7.254,0,1,0,7.254-7.255A7.254,7.254,0,0,0,5592.461,4516.262Z" transform="translate(-5572.036 -4474.44)" fill="#b7d972"/>
        <path id="Trazado_115529" data-name="Trazado 115529" d="M5644.92,4505.148a.147.147,0,0,1-.058.252c-.875.237-3.62,1-3.61,1.235.011.281,2.481-.34,2.626-.124s-2.281.763-2.22,1.061,2.255-.273,2.324-.157-1.974.889-2.044,1.086,2.213-.362,2.337-.245-1.323,1.027-1.259,1.16.084.233,3.928-.881l1.494-.5,1-1.069-.747-1.592s-4.814-1.83-4.987-1.707S5643.573,4503.954,5644.92,4505.148Z" transform="translate(-5610.644 -4470.208)" fill="#ffc0bb"/>
        <path id="Trazado_115530" data-name="Trazado 115530" d="M5672.815,4437.625c1.9.454,6.365.228,9.75-.038a64.563,64.563,0,0,1,.38-7.233c.873-6.495,3.883-8.6,3.883-8.6a7.481,7.481,0,0,0,5.085-1.243,9.955,9.955,0,0,1,6.35,2.23c6.181,5.331,1.5,16.238,1.5,16.238l1.7,14.41c-3.83,1.309-19.485.522-19.485.522a56.165,56.165,0,0,0,.653-9.26c-4.962-.278-9.814-1.067-9.814-1.067C5672.621,4442.521,5672.815,4437.625,5672.815,4437.625Z" transform="translate(-5635.552 -4404.415)" fill="#edfdfc"/>
        <path id="Trazado_115531" data-name="Trazado 115531" d="M5693.807,4455.974a8.12,8.12,0,0,1-2.428,5.719,10.568,10.568,0,0,1-2.546,1.863,14.616,14.616,0,0,1-2.946,1.181c-.127.037-.252.082-.382.114l-.387.1c-.259.062-.516.131-.776.187l-.785.147-.393.074-.4.055c-.529.075-1.057.156-1.59.194l-.8.074c-.267.02-.534.031-.8.045a62.914,62.914,0,0,1-6.437-.039,41.846,41.846,0,0,0,6.45.379,24.919,24.919,0,0,0,6.418-.909,14.69,14.69,0,0,0,3.021-1.237,10.452,10.452,0,0,0,2.594-1.989,8.63,8.63,0,0,0,1-1.3,8.988,8.988,0,0,0,.725-1.466,8.461,8.461,0,0,0,.4-1.577A6.156,6.156,0,0,0,5693.807,4455.974Z" transform="translate(-5635.879 -4432.474)" fill="#b7d972"/>
        <path id="Trazado_115532" data-name="Trazado 115532" d="M5673.142,4513.611a54.485,54.485,0,0,0,7.121,1.087,48.3,48.3,0,0,0,7.216.126,25.245,25.245,0,0,0,7.1-1.368,12.305,12.305,0,0,0,3.2-1.71,7.96,7.96,0,0,0,2.322-2.74,8.245,8.245,0,0,1-2.447,2.567,12.814,12.814,0,0,1-3.185,1.562,22.017,22.017,0,0,1-3.458.854,33.529,33.529,0,0,1-3.55.4,57.768,57.768,0,0,1-7.163-.029q-1.791-.111-3.578-.3C5675.517,4513.944,5674.328,4513.79,5673.142,4513.611Z" transform="translate(-5635.879 -4474.44)" fill="#b7d972"/>
      </g>
    </g>
    <g id="Grupo_57523" data-name="Grupo 57523" transform="translate(4614.708 3393.519)">
      <path id="Trazado_115533" data-name="Trazado 115533" d="M4799.247,3637.49l2.445,10.182,4.946-7.675,16.917-18.869-15.716,7.764s-7.521,5.212-7.814,5.791A21.656,21.656,0,0,0,4799.247,3637.49Z" transform="translate(-4790.103 -3621.128)" fill="url(#linear-gradient-42)"/>
      <path id="Trazado_115534" data-name="Trazado 115534" d="M4755.434,3634.883l33.453-13.164-24.077,16.207Z" transform="translate(-4755.434 -3621.596)" fill="url(#linear-gradient-43)"/>
      <path id="Trazado_115535" data-name="Trazado 115535" d="M4825.342,3643.043l-11.62-3.711,21.287-18.2Z" transform="translate(-4801.558 -3621.128)" fill="url(#linear-gradient-44)"/>
    </g>
    <g id="Grupo_57528" data-name="Grupo 57528" transform="translate(4589.981 3416.132)">
      <g id="Grupo_57526" data-name="Grupo 57526" transform="translate(0 5.454)">
        <g id="Grupo_57524" data-name="Grupo 57524" transform="translate(9.874 54.316)">
          <path id="Trazado_115536" data-name="Trazado 115536" d="M4686.975,4017.673l.191-.825a9.666,9.666,0,0,1-2.49-.96l-.409.741A10.513,10.513,0,0,0,4686.975,4017.673Z" transform="translate(-4684.267 -4015.888)" fill="#b7d972"/>
        </g>
        <g id="Grupo_57525" data-name="Grupo 57525">
          <path id="Trazado_115537" data-name="Trazado 115537" d="M4639.721,3802.253l.764-.364a23.832,23.832,0,0,0,2.793,4.572l-.663.527A24.576,24.576,0,0,1,4639.721,3802.253Zm-2.143-5.878a23.092,23.092,0,0,1-.449-2.46c-.1-.764-.156-1.548-.178-2.329l.847-.023c.021.754.078,1.51.171,2.247a22.159,22.159,0,0,0,.432,2.369c.054.227.112.454.174.678l-.816.224C4637.693,3796.842,4637.632,3796.6,4637.578,3796.375Zm-.183-10.313a32.236,32.236,0,0,1,1.479-5.329l.794.294a31.345,31.345,0,0,0-1.441,5.188Zm24.446-11.224-.171-.036.186-.826.141.03a.473.473,0,0,0,.089-.005,3.9,3.9,0,0,0,2.089-1.118,3.587,3.587,0,0,0,.72-1.941l.843.074a4.47,4.47,0,0,1-.9,2.39,4.71,4.71,0,0,1-2.648,1.435A1.111,1.111,0,0,1,4661.841,3774.838Zm-20.673.872a44.128,44.128,0,0,1,2.939-4.668l.688.495a43.1,43.1,0,0,0-2.883,4.578Zm15.145-5.821a10.319,10.319,0,0,1-.606-2.431,12.291,12.291,0,0,1-.093-1.424l.847-.007a11.137,11.137,0,0,0,.087,1.325,9.441,9.441,0,0,0,.555,2.23,7.855,7.855,0,0,0,.724,1.416l-.71.459A8.634,8.634,0,0,1,4656.312,3769.889Zm2.245-5.484-.119-.009.061-.845.129.01a8.517,8.517,0,0,1,5.077,2.176l-.582.616A7.649,7.649,0,0,0,4658.557,3764.4Zm-10.427,2.787a19.383,19.383,0,0,1,3.02-2.04c.64-.282,1.235-.519,1.819-.724l.28.8c-.562.2-1.138.426-1.757.7a17.465,17.465,0,0,0-2.84,1.932Zm8.465-6.654a18.927,18.927,0,0,1,2.607-4.921l.683.5a18.089,18.089,0,0,0-2.491,4.7Z" transform="translate(-4636.951 -3755.616)" fill="#b7d972"/>
        </g>
      </g>
      <g id="Grupo_57527" data-name="Grupo 57527" transform="translate(26.183)">
        <path id="Trazado_115538" data-name="Trazado 115538" d="M4762.919,3731.67a16.349,16.349,0,0,1,2.313-1.431l-.383-.755a17.24,17.24,0,0,0-2.434,1.5Z" transform="translate(-4762.416 -3729.484)" fill="#b7d972"/>
      </g>
    </g>
    <g id="Grupo_57538" data-name="Grupo 57538" transform="translate(4677.49 3528.893)">
      <path id="Trazado_115539" data-name="Trazado 115539" d="M5073.511,4330.493c-1.735,0-4.68-1.153-7.886.933a4.98,4.98,0,0,0-1.854,2.573,16.629,16.629,0,0,0-.694,2.787c-.315,1.838-4.717,1.373-6.225,4.591-1.961,4.185,1.494,7.963,4.006,10.855,5.457,6.283,12.5,4.619,14.23,5.45,1.245.6.326-1.928,1.7-1.839,1.359.088,2.975.06,3.752-1.059a12.2,12.2,0,0,0,.791-2.186,5.973,5.973,0,0,1,2.277-2.285,25.613,25.613,0,0,1,3.513-2.152c1.32-.625,8.7-1.386,6.5-10.9a12.176,12.176,0,0,0-5.3-7.458,8.917,8.917,0,0,0-5.4-1.605C5077.72,4328.06,5078.089,4330.493,5073.511,4330.493Z" transform="translate(-5056.274 -4316.01)" fill="url(#linear-gradient-45)"/>
      <g id="Grupo_57537" data-name="Grupo 57537" transform="translate(3.673)">
        <path id="Trazado_115540" data-name="Trazado 115540" d="M5201.126,4622.215l-.675,43-1.1,3.1-3.295-3.1-3.125-44.1Z" transform="translate(-5168.087 -4547.799)" fill="#efac7f"/>
        <path id="Trazado_115541" data-name="Trazado 115541" d="M5137.923,4633.366h8.243s-3.879,41.285-3.852,41.542a12.9,12.9,0,0,1-1.39,2.111l-3-2.111Z" transform="translate(-5124.556 -4557.495)" fill="#efac7f"/>
        <path id="Trazado_115542" data-name="Trazado 115542" d="M5151.1,4592.711a17.376,17.376,0,0,1-10,1.02l-.748-34.339-.557-6.046a8.479,8.479,0,0,1-.671.542l-2.006,39.232a20.715,20.715,0,0,1-9.9.621c-.018-2.36,1.445-38.375,1.46-40.047.106-12.076,3.839-13.844,3.839-13.844l6.355-1.609,1.4.241c2.222-.73,6.242-1.563,7.9,1.21,2.345,3.93,2.207,16.042,2.207,16.042S5151.114,4591.049,5151.1,4592.711Z" transform="translate(-5116.086 -4481.848)" fill="#473b1e"/>
        <path id="Trazado_115543" data-name="Trazado 115543" d="M5217.682,4459.118l5.96-2.759-.542,6.312s11.285-5.124,11.856-5.64a3.663,3.663,0,0,0,.615-1.15,11.609,11.609,0,0,0,.5-1.713,3.85,3.85,0,0,1,1.2-1.807,3.565,3.565,0,0,0,.5-.97.183.183,0,0,1,.355.02l.061.395a2,2,0,0,1-.162,1l.157-.061.259,2.655-.318,2.321-1.785,1.345s-15.725,11.319-17.163,9.84C5217.629,4467.319,5217.682,4459.118,5217.682,4459.118Z" transform="translate(-5187.67 -4413.394)" fill="#efac7f"/>
        <path id="Trazado_115544" data-name="Trazado 115544" d="M5212.873,4424.931s1.221.291,2.987,2.476,3.338,8.23,3.338,8.23l-5.638,3.08-3.668-7.3Z" transform="translate(-5181.507 -4392.558)" fill="url(#linear-gradient-46)"/>
        <path id="Trazado_115545" data-name="Trazado 115545" d="M5147.63,4591.942c.595.219,1.181.457,1.762.707s1.153.519,1.722.792,1.134.556,1.693.848,1.117.587,1.666.9l.045-.105a11.894,11.894,0,0,0-1.252-.192,12.55,12.55,0,0,0-1.263-.06,10.158,10.158,0,0,0-1.261.073l-.313.041-.311.056-.155.028-.153.037-.306.074.31-.06.154-.03.156-.022.311-.044.313-.03c.1-.011.208-.016.313-.021s.209-.014.313-.016l.314-.006c.1,0,.209,0,.313,0,.419.009.836.038,1.252.084a11.561,11.561,0,0,1,1.235.2l.375.083-.331-.188c-.55-.312-1.1-.614-1.668-.9s-1.131-.568-1.7-.838-1.156-.518-1.741-.759c-.295-.117-.59-.234-.889-.339S5147.932,4592.041,5147.63,4591.942Z" transform="translate(-5132.238 -4524.716)" fill="#f3fdff" opacity="0.5"/>
        <path id="Trazado_115546" data-name="Trazado 115546" d="M5200.167,4590.794c-.3.1-.6.194-.9.305s-.594.223-.889.339c-.586.242-1.168.492-1.742.76s-1.141.549-1.7.838-1.119.589-1.669.9l-.331.188.375-.083a11.621,11.621,0,0,1,1.235-.2c.416-.046.833-.075,1.252-.084.1,0,.209-.005.314,0l.314.006c.1,0,.209.011.314.016s.209.009.313.021l.313.03.312.044.155.023.155.03.309.06-.306-.075-.153-.036-.155-.028-.311-.056-.312-.041a10.26,10.26,0,0,0-1.261-.072,12.543,12.543,0,0,0-1.263.06,11.74,11.74,0,0,0-1.251.192l.044.1c.549-.308,1.108-.6,1.666-.9s1.125-.574,1.693-.848,1.142-.541,1.721-.793S5199.573,4591.013,5200.167,4590.794Z" transform="translate(-5168.087 -4523.808)" fill="#f3fdff" opacity="0.5"/>
        <path id="Trazado_115547" data-name="Trazado 115547" d="M5153.321,4566.706a1.437,1.437,0,0,1-.084.175l-.091.173-.183.343-.306.569-.871,1.513c-.12.229-1.264,2.22-1.535,2.665a11.586,11.586,0,0,0,1.018-1.242c.138-.221.267-.448.4-.673s.251-.456.375-.685c.242-.46.475-.925.691-1.4.11-.236.214-.473.316-.712.049-.12.1-.24.146-.361A3.1,3.1,0,0,0,5153.321,4566.706Z" transform="translate(-5134.312 -4504.746)" fill="#7772d6"/>
        <path id="Trazado_115548" data-name="Trazado 115548" d="M5111.8,4425.4c2.564-3.093,5.525-6.45,8.115-7.756.992-.5,3.343-.6,4.709-.823a31.921,31.921,0,0,1,7.083.024c1.9.7,5.21,1.87,5.254,2.994.216,5.614.28,9.917.25,13.217,0,.011.094,11.963.007,14.517,0,0-13,2.8-19.642,1.117,0,0-1.1-15.635.479-19.857l-.672.855S5114.706,4429.083,5111.8,4425.4Z" transform="translate(-5103.883 -4385.994)" fill="url(#linear-gradient-47)"/>
        <path id="Trazado_115549" data-name="Trazado 115549" d="M5082.18,4460.978a12.259,12.259,0,0,0,4.692,3.641l-6.284,7.527,11.5,12.393-2.023,3.525c-1.6-.775-1.959-3.716-1.959-3.716s-14.227-9.513-14.227-11.788C5073.874,4469.511,5082.18,4460.978,5082.18,4460.978Z" transform="translate(-5073.874 -4421.083)" fill="#efac7f"/>
        <path id="Trazado_115550" data-name="Trazado 115550" d="M5112.089,4447.3c.1.11.188.229.291.335l.305.323.15.163.16.154.319.308c.108.1.222.2.332.293.216.2.458.373.685.56a12.364,12.364,0,0,0,1.487.952l.194.1c.065.033.133.064.2.1.132.065.267.124.4.181.066.03.135.055.2.082s.136.055.2.078c.093.034.19.066.284.094l.688-.823.781-.918c.519-.615,1.051-1.218,1.577-1.826s1.064-1.207,1.605-1.8,1.084-1.191,1.644-1.772c-.477.647-.971,1.282-1.466,1.914s-1,1.257-1.5,1.883-1.016,1.246-1.534,1.859l-.773.925-.783.918-.085.1-.123-.032c-.165-.043-.306-.092-.454-.146s-.288-.112-.429-.176-.279-.129-.415-.2c-.068-.036-.137-.069-.2-.106l-.2-.113a10.833,10.833,0,0,1-1.491-1.042l-.339-.3c-.114-.1-.22-.205-.326-.312s-.214-.21-.316-.32l-.3-.336-.147-.168-.139-.176-.274-.353c-.177-.239-.336-.491-.5-.735Z" transform="translate(-5103.883 -4407.549)" fill="#45258f"/>
        <path id="Trazado_115551" data-name="Trazado 115551" d="M5183.336,4399.767s-2.581,1.53-4.591,0h0l.474-3.733,4-.824.117,4.557Z" transform="translate(-5156.859 -4369.04)" fill="#efac7f"/>
        <path id="Trazado_115552" data-name="Trazado 115552" d="M5184.426,4397.645l-.062-2.435-4.057,1.262-.114.913A7.259,7.259,0,0,0,5184.426,4397.645Z" transform="translate(-5158.005 -4369.04)" fill="#d19369"/>
        <path id="Trazado_115553" data-name="Trazado 115553" d="M5214.388,4361.551a1.211,1.211,0,0,0,.894,1.466,1.264,1.264,0,0,0,1.287-1.183,1.211,1.211,0,0,0-.894-1.466A1.264,1.264,0,0,0,5214.388,4361.551Z" transform="translate(-5185.05 -4341.463)" fill="#d19369"/>
        <path id="Trazado_115554" data-name="Trazado 115554" d="M5168.589,4348.929a5.484,5.484,0,0,0,.2-1.012,10.281,10.281,0,0,0-.083-2.685c-.027-.174-.043-.348-.055-.523a5.543,5.543,0,0,0-.592-2.117,5.886,5.886,0,0,0-6.252-3.042,5.777,5.777,0,0,0-4.73,7.053,1.307,1.307,0,0,0-1.132.2,1.508,1.508,0,0,0-.023,2.15,1.608,1.608,0,0,0,2.156.473,1.094,1.094,0,0,0,.215-.22,5.49,5.49,0,0,0,6.541,3.41,5.338,5.338,0,0,0,3.114-2.274,2.5,2.5,0,0,0,.148-.224A4.921,4.921,0,0,0,5168.589,4348.929Z" transform="translate(-5138.452 -4324.924)" fill="#efac7f"/>
        <path id="Trazado_115555" data-name="Trazado 115555" d="M5184.423,4368.426a.5.5,0,0,1-.363.613.51.51,0,0,1-.628-.347.5.5,0,0,1,.364-.613A.509.509,0,0,1,5184.423,4368.426Z" transform="translate(-5160.554 -4347.556)" fill="#333"/>
        <path id="Trazado_115556" data-name="Trazado 115556" d="M5205.191,4364.24a.5.5,0,0,1-.364.613.51.51,0,0,1-.628-.347.5.5,0,0,1,.364-.613A.51.51,0,0,1,5205.191,4364.24Z" transform="translate(-5176.988 -4344.244)" fill="#333"/>
        <path id="Trazado_115557" data-name="Trazado 115557" d="M5179.519,4363.172a4.911,4.911,0,0,0-.77-.037,2.608,2.608,0,0,0-.709.121,2.4,2.4,0,0,0-.642.312l-.079.049c-.026.017-.048.039-.074.057l-.15.115c-.1.079-.191.171-.3.251a2.19,2.19,0,0,1,.165-.365,1.828,1.828,0,0,1,.253-.322,1.7,1.7,0,0,1,.719-.44,1.805,1.805,0,0,1,.844-.06A1.628,1.628,0,0,1,5179.519,4363.172Z" transform="translate(-5155.313 -4343.416)" fill="url(#linear-gradient-48)"/>
        <path id="Trazado_115558" data-name="Trazado 115558" d="M5199.557,4358.95a1.625,1.625,0,0,1,.545-.6,1.8,1.8,0,0,1,.792-.293,1.715,1.715,0,0,1,.839.1,1.87,1.87,0,0,1,.365.188,2.155,2.155,0,0,1,.3.264c-.137-.027-.257-.074-.382-.1l-.185-.042c-.031-.006-.06-.017-.091-.021l-.092-.012a2.409,2.409,0,0,0-.714-.019,2.65,2.65,0,0,0-.7.182A5.041,5.041,0,0,0,5199.557,4358.95Z" transform="translate(-5173.328 -4339.63)" fill="url(#linear-gradient-49)"/>
        <path id="Trazado_115559" data-name="Trazado 115559" d="M5195.732,4362.974a3.717,3.717,0,0,0,.111,1.068,2.9,2.9,0,0,0,.181.521,1.386,1.386,0,0,0,.352.482l.071.048.063.041a.618.618,0,0,1,.084.057.4.4,0,0,1,.118.145.471.471,0,0,1-.01.389,1.53,1.53,0,0,1-.732.675,1.273,1.273,0,0,0,.977-.557.717.717,0,0,0,.075-.63.541.541,0,0,0-.084-.15.612.612,0,0,0-.114-.126.81.81,0,0,0-.135-.095.473.473,0,0,1-.049-.034l-.04-.027a1.315,1.315,0,0,1-.279-.362,4.6,4.6,0,0,1-.217-.458C5195.975,4363.64,5195.858,4363.31,5195.732,4362.974Z" transform="translate(-5170.298 -4343.531)" fill="#d19369"/>
        <path id="Trazado_115560" data-name="Trazado 115560" d="M5193.1,4381.1a2.041,2.041,0,0,1-3.555.547Z" transform="translate(-5165.405 -4357.872)" fill="#fff"/>
        <path id="Trazado_115561" data-name="Trazado 115561" d="M5314.508,4461.923a4.242,4.242,0,0,0-.046-.619.681.681,0,0,0-.476-.509l-.276-.084-.025.621h0c.023.473.033.439-.624.725-.936.406-.543.9-.543.9s.259.348,1.4-.224A1.134,1.134,0,0,0,5314.508,4461.923Z" transform="translate(-5262.651 -4420.871)" fill="#ffc0bb"/>
        <g id="Grupo_57532" data-name="Grupo 57532" transform="translate(12.631 116.156)">
          <path id="Trazado_115562" data-name="Trazado 115562" d="M5144.758,4846.313l-9.81-.006a.548.548,0,0,1-.549-.549h0a.549.549,0,0,1,.549-.549l9.81.006a.548.548,0,0,1,.548.549h0A.549.549,0,0,1,5144.758,4846.313Z" transform="translate(-5134.399 -4841.284)" fill="#fff"/>
          <path id="Trazado_115563" data-name="Trazado 115563" d="M5135.4,4826.991l-.364,3.053c-.044.376.166.718.443.719l9.612.006a.7.7,0,0,0,.627-.448,1.334,1.334,0,0,0-.268-1.361c-.836-1.183-3.531-1.5-4.951-2.47a.489.489,0,0,0-.278-.086l-4.319,0C5135.657,4826.4,5135.443,4826.65,5135.4,4826.991Z" transform="translate(-5134.901 -4826.401)" fill="url(#linear-gradient-2)"/>
          <g id="Grupo_57529" data-name="Grupo 57529" transform="translate(4.729 0.272)">
            <path id="Trazado_115564" data-name="Trazado 115564" d="M5157.131,4829.208h0a.206.206,0,0,1-.055-.249,1.856,1.856,0,0,1,1.979-1.226c.069.012.117.1.1.2v0c-.011.092-.074.152-.141.141a1.6,1.6,0,0,0-1.731,1.063C5157.256,4829.214,5157.189,4829.244,5157.131,4829.208Z" transform="translate(-5157.058 -4827.705)" fill="#fff"/>
          </g>
          <g id="Grupo_57530" data-name="Grupo 57530" transform="translate(5.727 0.666)">
            <path id="Trazado_115565" data-name="Trazado 115565" d="M5161.913,4831.094h0a.206.206,0,0,1-.054-.249,1.855,1.855,0,0,1,1.979-1.227c.069.012.116.1.1.2v0c-.011.092-.073.152-.141.141a1.6,1.6,0,0,0-1.73,1.063C5162.039,4831.1,5161.971,4831.13,5161.913,4831.094Z" transform="translate(-5161.84 -4829.591)" fill="#fff"/>
          </g>
          <g id="Grupo_57531" data-name="Grupo 57531" transform="translate(6.655 1.033)">
            <path id="Trazado_115566" data-name="Trazado 115566" d="M5166.361,4832.854h0a.208.208,0,0,1-.055-.25,1.857,1.857,0,0,1,1.98-1.226c.069.012.116.1.1.2v0c-.012.093-.074.152-.141.141a1.6,1.6,0,0,0-1.731,1.064C5166.486,4832.86,5166.419,4832.89,5166.361,4832.854Z" transform="translate(-5166.288 -4831.351)" fill="#fff"/>
          </g>
        </g>
        <g id="Grupo_57536" data-name="Grupo 57536" transform="translate(26.903 116.156)">
          <path id="Trazado_115567" data-name="Trazado 115567" d="M5213.148,4846.313l-9.811-.006a.549.549,0,0,1-.548-.549h0a.549.549,0,0,1,.549-.549l9.81.006a.549.549,0,0,1,.549.549h0A.549.549,0,0,1,5213.148,4846.313Z" transform="translate(-5202.789 -4841.284)" fill="#fff"/>
          <path id="Trazado_115568" data-name="Trazado 115568" d="M5203.793,4826.991l-.363,3.053c-.045.376.166.718.442.719l9.612.006a.7.7,0,0,0,.628-.448,1.335,1.335,0,0,0-.268-1.361c-.836-1.183-3.53-1.5-4.95-2.47a.49.49,0,0,0-.277-.086l-4.32,0C5204.047,4826.4,5203.833,4826.65,5203.793,4826.991Z" transform="translate(-5203.291 -4826.401)" fill="url(#linear-gradient-2)"/>
          <g id="Grupo_57533" data-name="Grupo 57533" transform="translate(4.729 0.272)">
            <path id="Trazado_115569" data-name="Trazado 115569" d="M5225.521,4829.208h0a.207.207,0,0,1-.055-.249,1.857,1.857,0,0,1,1.979-1.226c.07.012.117.1.1.2v0c-.012.092-.074.152-.141.141a1.6,1.6,0,0,0-1.73,1.063C5225.646,4829.214,5225.579,4829.244,5225.521,4829.208Z" transform="translate(-5225.448 -4827.705)" fill="#fff"/>
          </g>
          <g id="Grupo_57534" data-name="Grupo 57534" transform="translate(5.727 0.666)">
            <path id="Trazado_115570" data-name="Trazado 115570" d="M5230.3,4831.094h0a.205.205,0,0,1-.055-.249,1.856,1.856,0,0,1,1.98-1.227c.069.012.116.1.1.2v0c-.011.092-.074.152-.141.141a1.6,1.6,0,0,0-1.731,1.063C5230.429,4831.1,5230.362,4831.13,5230.3,4831.094Z" transform="translate(-5230.23 -4829.591)" fill="#fff"/>
          </g>
          <g id="Grupo_57535" data-name="Grupo 57535" transform="translate(6.655 1.033)">
            <path id="Trazado_115571" data-name="Trazado 115571" d="M5234.752,4832.854h0a.208.208,0,0,1-.054-.25,1.856,1.856,0,0,1,1.98-1.226c.069.012.116.1.1.2v0c-.011.093-.074.152-.141.141a1.6,1.6,0,0,0-1.731,1.064C5234.877,4832.86,5234.81,4832.89,5234.752,4832.854Z" transform="translate(-5234.679 -4831.351)" fill="#fff"/>
          </g>
        </g>
        <path id="Trazado_115572" data-name="Trazado 115572" d="M5304.387,4461.848s-.1.082-.182.6a11.12,11.12,0,0,0-.225,2.253,3.936,3.936,0,0,0,.9-.094,8.509,8.509,0,0,0-.11-2.049A7.082,7.082,0,0,1,5304.387,4461.848Z" transform="translate(-5255.937 -4421.771)" fill="#efac7f"/>
        <path id="Trazado_115573" data-name="Trazado 115573" d="M5307.733,4282.3l17.651-12.488,1.957,2.766-16.642,11.773a3.01,3.01,0,0,0-1.279,2.587.275.275,0,0,0,.006.064v94.65h-3.388v-96.592a3.033,3.033,0,0,1,1.305-2.492Z" transform="translate(-5257.588 -4269.808)" fill="#473b1e"/>
        <path id="Trazado_115574" data-name="Trazado 115574" d="M5315.482,4465.573a4.3,4.3,0,0,0-.047-.62.681.681,0,0,0-.475-.509l-.276-.083-.024.62h0c.022.473.032.44-.624.725-.936.407-.545.9-.545.9s.26.348,1.4-.224A1.134,1.134,0,0,0,5315.482,4465.573Z" transform="translate(-5263.421 -4423.759)" fill="#efac7f"/>
        <path id="Trazado_115575" data-name="Trazado 115575" d="M5316.326,4468.339a4.053,4.053,0,0,0-.044-.589.65.65,0,0,0-.453-.485l-.263-.08-.023.59h0c.022.451.031.419-.594.69-.891.387-.518.854-.518.854s.248.331,1.337-.213A1.081,1.081,0,0,0,5316.326,4468.339Z" transform="translate(-5264.168 -4425.994)" fill="#efac7f"/>
        <path id="Trazado_115576" data-name="Trazado 115576" d="M5316.788,4472.4a3.42,3.42,0,0,0-.037-.5.551.551,0,0,0-.383-.411l-.223-.067-.02.5h0c.019.381.026.354-.5.584-.754.327-.438.722-.438.722s.209.28,1.131-.18A.913.913,0,0,0,5316.788,4472.4Z" transform="translate(-5264.773 -4429.35)" fill="#efac7f"/>
        <path id="Trazado_115577" data-name="Trazado 115577" d="M5313.54,4468.188a.562.562,0,0,0-.253.41.474.474,0,0,0,.062.246.184.184,0,0,0,.046.055.319.319,0,0,0,.058.038.5.5,0,0,0,.125.044,1.188,1.188,0,0,0,.51-.026,3.048,3.048,0,0,0,.474-.162c.078-.031.15-.07.226-.105a1.091,1.091,0,0,0,.214-.138,1.2,1.2,0,0,0,.321-.385.915.915,0,0,0,.08-.238,1.071,1.071,0,0,0,.01-.124l-.005-.123a3.742,3.742,0,0,0-.071-.478c.013.16.02.32.019.479l0,.118a.74.74,0,0,1-.016.114.818.818,0,0,1-.086.213,1.188,1.188,0,0,1-.312.345,1.046,1.046,0,0,1-.2.126c-.074.033-.146.071-.221.1a3.151,3.151,0,0,1-.456.163,1.232,1.232,0,0,1-.469.043.279.279,0,0,1-.188-.093.43.43,0,0,1-.068-.212.448.448,0,0,1,.054-.222A.867.867,0,0,1,5313.54,4468.188Z" transform="translate(-5263.323 -4426.009)" fill="#d19369"/>
        <path id="Trazado_115578" data-name="Trazado 115578" d="M5316.788,4475.194a3.413,3.413,0,0,0-.037-.5.551.551,0,0,0-.383-.411l-.223-.067-.02.5h0c.019.381.026.354-.5.583-.754.328-.438.723-.438.723s.209.28,1.131-.181A.913.913,0,0,0,5316.788,4475.194Z" transform="translate(-5264.773 -4431.56)" fill="#efac7f"/>
        <path id="Trazado_115579" data-name="Trazado 115579" d="M5315.138,4479.26a.4.4,0,0,0-.139.286.377.377,0,0,0,.04.163.181.181,0,0,0,.022.039.177.177,0,0,0,.037.035.343.343,0,0,0,.081.042.747.747,0,0,0,.34.022,1.753,1.753,0,0,0,.321-.081,2.909,2.909,0,0,0,.3-.126c.047-.026.1-.045.146-.078a.954.954,0,0,0,.13-.1.746.746,0,0,0,.277-.562.832.832,0,0,1-.332.5,1.382,1.382,0,0,1-.126.087c-.042.025-.092.043-.14.065a2.973,2.973,0,0,1-.292.118,1.707,1.707,0,0,1-.3.081.693.693,0,0,1-.3,0,.241.241,0,0,1-.063-.026.105.105,0,0,1-.022-.018.21.21,0,0,1-.021-.027.328.328,0,0,1-.048-.135.325.325,0,0,1,.014-.146A.571.571,0,0,1,5315.138,4479.26Z" transform="translate(-5264.678 -4435.262)" fill="#d19369"/>
        <path id="Trazado_115580" data-name="Trazado 115580" d="M5314.333,4473.307a.41.41,0,0,0-.007.346.221.221,0,0,0,.055.081.331.331,0,0,0,.082.052.638.638,0,0,0,.183.046,1.686,1.686,0,0,0,.713-.134c.111-.045.221-.093.327-.146a1.1,1.1,0,0,0,.3-.211,1.135,1.135,0,0,0,.216-.285.739.739,0,0,0,.079-.34.951.951,0,0,1-.351.567,1.173,1.173,0,0,1-.285.182q-.158.075-.321.138a2.656,2.656,0,0,1-.331.106,1.263,1.263,0,0,1-.337.045.546.546,0,0,1-.163-.026.313.313,0,0,1-.07-.036.184.184,0,0,1-.046-.06A.406.406,0,0,1,5314.333,4473.307Z" transform="translate(-5264.118 -4430.37)" fill="#d19369"/>
        <path id="Trazado_115581" data-name="Trazado 115581" d="M5315.138,4476.467a.4.4,0,0,0-.139.286.377.377,0,0,0,.04.164.212.212,0,0,0,.022.039.173.173,0,0,0,.037.035.308.308,0,0,0,.081.042.734.734,0,0,0,.34.022,1.676,1.676,0,0,0,.321-.08,2.809,2.809,0,0,0,.3-.127,1.367,1.367,0,0,0,.146-.078.951.951,0,0,0,.13-.1.746.746,0,0,0,.277-.562.832.832,0,0,1-.332.5,1.377,1.377,0,0,1-.126.086,1.318,1.318,0,0,1-.14.066,2.973,2.973,0,0,1-.292.118,1.666,1.666,0,0,1-.3.081.7.7,0,0,1-.3,0,.28.28,0,0,1-.063-.026.125.125,0,0,1-.022-.017.223.223,0,0,1-.021-.028.332.332,0,0,1-.034-.28A.584.584,0,0,1,5315.138,4476.467Z" transform="translate(-5264.678 -4433.053)" fill="#d19369"/>
        <path id="Trazado_115582" data-name="Trazado 115582" d="M5317.766,4464.694s.773-.32.813-.9v-.346l-.847-.138-.127.371Z" transform="translate(-5266.74 -4422.931)" fill="#45258f"/>
      </g>
      <path id="Trazado_115583" data-name="Trazado 115583" d="M5158.471,4342.984l.134-.03-.027-1.219.4-1.167s1.685-3.2,1.747-3.282,1.477-1.2,1.564-1.256,2.237.108,2.237.108,3.631-1.218,3.219,1.067a5.432,5.432,0,0,1-3.162,3.62,4.128,4.128,0,0,0,.3-1.961,18.478,18.478,0,0,1-5.6,4.871,1.142,1.142,0,0,0-1.131.057Z" transform="translate(-5136.891 -4322.039)" fill="url(#linear-gradient-52)"/>
    </g>
  </g>
</svg>
