<svg xmlns="http://www.w3.org/2000/svg" width="145" height="91" viewBox="0 0 145 91">
  <g id="Grupo_58239" data-name="Grupo 58239" transform="translate(-726 -617)">
    <rect id="BG" width="145" height="91" transform="translate(726 617)" fill="#fff" opacity="0"/>
    <g id="Grupo_58225" data-name="Grupo 58225" transform="translate(758.19 623)">
      <path id="Trazado_116926" data-name="Trazado 116926" d="M-176.413,8.319h-6.92a31.271,31.271,0,0,0-30.1-30.1V-28.6a1.11,1.11,0,0,0-1.11-1.11,1.11,1.11,0,0,0-1.11,1.11v6.823a31.27,31.27,0,0,0-30.1,30.1h-6.92a1.109,1.109,0,0,0-1.11,1.11,1.109,1.109,0,0,0,1.11,1.11h6.92a31.27,31.27,0,0,0,30.1,30.1v6.824a1.11,1.11,0,0,0,1.11,1.11,1.11,1.11,0,0,0,1.11-1.11V40.639a31.27,31.27,0,0,0,30.1-30.1h6.92a1.109,1.109,0,0,0,1.11-1.11A1.109,1.109,0,0,0-176.413,8.319Zm-38.13,30.122A29.045,29.045,0,0,1-243.556,9.429a29.045,29.045,0,0,1,29.012-29.012A29.045,29.045,0,0,1-185.531,9.429,29.045,29.045,0,0,1-214.544,38.441Z" transform="translate(253.784 29.714)" fill="#a0a603"/>
      <path id="Trazado_116927" data-name="Trazado 116927" d="M-115.944-16.408A33.815,33.815,0,0,1-87.093,12.443a1.109,1.109,0,0,0,.677.888,1.108,1.108,0,0,0,1.107-.151,1.109,1.109,0,0,0,.415-1.036,36.041,36.041,0,0,0-30.75-30.75,1.11,1.11,0,0,0-1.25.949A1.11,1.11,0,0,0-115.944-16.408Z" transform="translate(159.79 22.094)" fill="#a0a603"/>
      <path id="Trazado_116928" data-name="Trazado 116928" d="M-211.32,136.641a33.814,33.814,0,0,1-28.851-28.851,1.111,1.111,0,0,0-.677-.888,1.11,1.11,0,0,0-1.107.151,1.11,1.11,0,0,0-.415,1.036,36.04,36.04,0,0,0,30.75,30.75,1.1,1.1,0,0,0,.151.01,1.11,1.11,0,0,0,1.107-1.035A1.11,1.11,0,0,0-211.32,136.641Z" transform="translate(245.954 -64.041)" fill="#a0a603"/>
      <path id="Trazado_116929" data-name="Trazado 116929" d="M-241.417,13.392a1.114,1.114,0,0,0,.152.011,1.109,1.109,0,0,0,1.1-.96,33.814,33.814,0,0,1,28.851-28.851,1.11,1.11,0,0,0,.949-1.25,1.11,1.11,0,0,0-1.25-.949,36.039,36.039,0,0,0-30.75,30.75A1.109,1.109,0,0,0-241.417,13.392Z" transform="translate(245.951 22.094)" fill="#a0a603"/>
      <path id="Trazado_116930" data-name="Trazado 116930" d="M-85.844,106.867a1.11,1.11,0,0,0-1.249.95,33.814,33.814,0,0,1-28.851,28.851,1.109,1.109,0,0,0-.949,1.249,1.11,1.11,0,0,0,1.25.95,36.039,36.039,0,0,0,30.749-30.75A1.11,1.11,0,0,0-85.844,106.867Z" transform="translate(159.79 -64.067)" fill="#a0a603"/>
      <path id="Trazado_116931" data-name="Trazado 116931" d="M-185.034,45.781h.22a3.557,3.557,0,0,0,3.553-3.553V40.987a3.557,3.557,0,0,0-3.553-3.553h-.22a3.557,3.557,0,0,0-3.553,3.553v1.241A3.557,3.557,0,0,0-185.034,45.781Zm-1.333-4.794a1.335,1.335,0,0,1,1.333-1.334h.22a1.335,1.335,0,0,1,1.333,1.334v1.241a1.334,1.334,0,0,1-1.333,1.333h-.22a1.335,1.335,0,0,1-1.333-1.333Z" transform="translate(209.014 -16.396)" fill="#a0a603"/>
      <path id="Trazado_116932" data-name="Trazado 116932" d="M-189.254,64.606H-190.6a1.11,1.11,0,0,0-.76.3l-1.571,1.474-1.5-1.461a1.113,1.113,0,0,0-.774-.314h-1.427a3.758,3.758,0,0,0-2.771,1.217,3.76,3.76,0,0,0-.979,2.864v7.8A2.519,2.519,0,0,0-197.863,79h.029a2.442,2.442,0,0,0,.391-.039l.345,13.58a2.632,2.632,0,0,0,1.467,2.27,2.63,2.63,0,0,0,2.695-.221,2.631,2.631,0,0,0,2.7.219,2.63,2.63,0,0,0,1.462-2.28l.344-13.563a2.505,2.505,0,0,0,2.041-.561,2.506,2.506,0,0,0,.884-1.923v-7.8a3.762,3.762,0,0,0-.978-2.865A3.764,3.764,0,0,0-189.254,64.606Zm-2.155,28.258a.417.417,0,0,1-.417-.417V78.29h-2.219V92.447a.418.418,0,0,1-.417.417.413.413,0,0,1-.417-.39l-.395-15.534h4.675l-.395,15.522A.415.415,0,0,1-191.409,92.864Zm3.691-24.34a.947.947,0,0,0-.006.112v7.847a.3.3,0,0,1-.3.3.3.3,0,0,1-.212-.088.3.3,0,0,1-.088-.212V74.825l.008-.311h-.008V71.23h-2.22v3.49h-4.785l-.007-.264h-.008V71.23h-2.22v5.214a.326.326,0,0,1-.295.338.289.289,0,0,1-.215-.087.3.3,0,0,1-.087-.211V68.636q0-.055-.006-.112a1.541,1.541,0,0,1,.391-1.19,1.542,1.542,0,0,1,1.145-.508h.976l1.939,1.886a1.108,1.108,0,0,0,1.532.015l2.024-1.9h.9a1.541,1.541,0,0,1,1.144.509,1.542,1.542,0,0,1,.39,1.189Z" transform="translate(217.122 -35.054)" fill="#a0a603"/>
      <path id="Trazado_116933" data-name="Trazado 116933" d="M-88.893,45.781h.22a3.557,3.557,0,0,0,3.553-3.553V40.987a3.556,3.556,0,0,0-3.553-3.553h-.22a3.556,3.556,0,0,0-3.553,3.553v1.241A3.557,3.557,0,0,0-88.893,45.781Zm-1.333-4.794a1.335,1.335,0,0,1,1.333-1.334h.22a1.335,1.335,0,0,1,1.333,1.334v1.241a1.334,1.334,0,0,1-1.333,1.333h-.22a1.334,1.334,0,0,1-1.333-1.333Z" transform="translate(142.995 -16.396)" fill="#a0a603"/>
      <path id="Trazado_116934" data-name="Trazado 116934" d="M-94.458,64.606a1.108,1.108,0,0,0-.759.3l-1.572,1.474-1.5-1.461a1.112,1.112,0,0,0-.774-.314h-1.427a3.762,3.762,0,0,0-2.771,1.217,3.761,3.761,0,0,0-.978,2.864v7.8A2.519,2.519,0,0,0-101.723,79h.03a2.45,2.45,0,0,0,.391-.039l.345,13.58a2.631,2.631,0,0,0,1.467,2.27,2.628,2.628,0,0,0,2.694-.221,2.631,2.631,0,0,0,2.7.219,2.633,2.633,0,0,0,1.462-2.281l.344-13.564a2.5,2.5,0,0,0,2.041-.561,2.505,2.505,0,0,0,.884-1.923v-7.8a3.759,3.759,0,0,0-.978-2.863,3.76,3.76,0,0,0-2.771-1.218h-1.344Zm-.811,28.257a.417.417,0,0,1-.417-.417V78.289h-2.22V92.447a.418.418,0,0,1-.417.417.413.413,0,0,1-.417-.389l-.394-15.534h4.675l-.394,15.522a.415.415,0,0,1-.416.4Zm3.69-24.34a1.1,1.1,0,0,0-.006.112v7.847a.3.3,0,0,1-.3.3.3.3,0,0,1-.3-.3V74.827l.008-.313h-.008V71.23H-94.4v3.49H-99.19l-.007-.264H-99.2V71.23h-2.22v5.214a.326.326,0,0,1-.3.338.3.3,0,0,1-.214-.087.3.3,0,0,1-.087-.211V68.636q0-.055-.006-.112a1.544,1.544,0,0,1,.39-1.19,1.543,1.543,0,0,1,1.145-.508h.975l1.939,1.886a1.108,1.108,0,0,0,1.532.015l2.024-1.9h.905a1.54,1.54,0,0,1,1.144.509,1.539,1.539,0,0,1,.391,1.189Z" transform="translate(151.104 -35.054)" fill="#a0a603"/>
      <path id="Trazado_116935" data-name="Trazado 116935" d="M-136.964,45.781h.22a3.557,3.557,0,0,0,3.553-3.553V40.987a3.557,3.557,0,0,0-3.553-3.553h-.22a3.557,3.557,0,0,0-3.553,3.553v1.241A3.557,3.557,0,0,0-136.964,45.781Zm-1.333-4.794a1.335,1.335,0,0,1,1.333-1.334h.22a1.335,1.335,0,0,1,1.333,1.334v1.241a1.334,1.334,0,0,1-1.333,1.333h-.22a1.335,1.335,0,0,1-1.333-1.333Z" transform="translate(176.005 -16.396)" fill="#a0a603"/>
      <path id="Trazado_116936" data-name="Trazado 116936" d="M-141.184,64.606h-1.344a1.11,1.11,0,0,0-.76.3l-1.571,1.474-1.5-1.461a1.112,1.112,0,0,0-.774-.314h-1.427a3.758,3.758,0,0,0-2.771,1.217,3.76,3.76,0,0,0-.978,2.864v7.8A2.519,2.519,0,0,0-149.793,79h.029a2.443,2.443,0,0,0,.392-.039l.345,13.58a2.631,2.631,0,0,0,1.467,2.27,2.63,2.63,0,0,0,2.695-.221,2.631,2.631,0,0,0,2.7.219,2.63,2.63,0,0,0,1.462-2.28l.344-13.563a2.5,2.5,0,0,0,2.04-.561,2.506,2.506,0,0,0,.884-1.923v-7.8a3.76,3.76,0,0,0-.978-2.865A3.764,3.764,0,0,0-141.184,64.606Zm-2.155,28.258a.417.417,0,0,1-.417-.417V78.29h-2.22V92.447a.418.418,0,0,1-.417.417.413.413,0,0,1-.417-.39L-147.2,76.94h4.675l-.394,15.522A.416.416,0,0,1-143.339,92.864Zm3.691-24.34a.95.95,0,0,0-.006.112v7.847a.3.3,0,0,1-.3.3.3.3,0,0,1-.212-.088.3.3,0,0,1-.088-.212V74.825l.008-.311h-.008V71.23h-2.22v3.49h-4.785l-.007-.264h-.008V71.23h-2.22v5.214a.326.326,0,0,1-.295.338A.291.291,0,0,1-150,76.7a.3.3,0,0,1-.087-.211V68.636q0-.055-.006-.112a1.541,1.541,0,0,1,.391-1.19,1.542,1.542,0,0,1,1.145-.508h.976l1.939,1.886a1.108,1.108,0,0,0,1.532.015l2.024-1.9h.9a1.542,1.542,0,0,1,1.145.509,1.541,1.541,0,0,1,.39,1.189Z" transform="translate(184.113 -35.054)" fill="#a0a603"/>
      <path id="Trazado_116937" data-name="Trazado 116937" d="M-160.713,36.905h.22a3.557,3.557,0,0,0,3.552-3.552V32.112a3.557,3.557,0,0,0-3.553-3.553h-.22a3.557,3.557,0,0,0-3.552,3.552v1.242A3.557,3.557,0,0,0-160.713,36.905Zm-1.333-4.794a1.335,1.335,0,0,1,1.333-1.333h.22a1.334,1.334,0,0,1,1.333,1.333v1.242a1.334,1.334,0,0,1-1.333,1.333h-.22a1.334,1.334,0,0,1-1.333-1.333Z" transform="translate(192.313 -10.301)" fill="#a0a603"/>
      <path id="Trazado_116938" data-name="Trazado 116938" d="M-112.643,36.905h.22a3.556,3.556,0,0,0,3.553-3.552V32.112a3.557,3.557,0,0,0-3.553-3.553h-.22a3.557,3.557,0,0,0-3.552,3.552v1.242A3.557,3.557,0,0,0-112.643,36.905Zm-1.333-4.794a1.335,1.335,0,0,1,1.333-1.333h.22a1.334,1.334,0,0,1,1.333,1.333v1.242a1.334,1.334,0,0,1-1.333,1.333h-.22a1.335,1.335,0,0,1-1.333-1.333Z" transform="translate(159.304 -10.301)" fill="#a0a603"/>
    </g>
  </g>
</svg>
