<svg xmlns="http://www.w3.org/2000/svg" width="415" height="173" viewBox="0 0 415 173">
  <g id="Grupo_60374" data-name="Grupo 60374" transform="translate(-1005 -1244)">
    <g id="Grupo_58125" data-name="Grupo 58125" transform="translate(-1087.896 358.555)">
      <g id="Grupo_58057" data-name="Grupo 58057">
        <path id="Trazado_116771" data-name="Trazado 116771" d="M2228.065,928.111a.849.849,0,0,1-.732-1.277,80.634,80.634,0,0,1,5.29-7.93.849.849,0,0,1,1.354,1.024,78.9,78.9,0,0,0-5.179,7.762A.847.847,0,0,1,2228.065,928.111Zm11.36-15.018a.848.848,0,0,1-.611-1.437c1.378-1.433,2.828-2.833,4.31-4.162.876-.785,1.781-1.561,2.69-2.307a.848.848,0,0,1,1.077,1.311c-.89.731-1.776,1.491-2.634,2.26-1.451,1.3-2.871,2.672-4.22,4.074A.845.845,0,0,1,2239.425,913.093Zm14.558-11.948a.849.849,0,0,1-.458-1.563,81.042,81.042,0,0,1,8.317-4.657.848.848,0,1,1,.74,1.527,79.36,79.36,0,0,0-8.142,4.559A.84.84,0,0,1,2253.983,901.145Zm16.945-8.21a.849.849,0,0,1-.277-1.651,80.487,80.487,0,0,1,9.178-2.571.848.848,0,1,1,.36,1.658,79.037,79.037,0,0,0-8.983,2.517A.846.846,0,0,1,2270.928,892.935Zm46.473-1.7a.849.849,0,0,1-.216-.028,80.3,80.3,0,0,0-9.15-1.838.848.848,0,1,1,.237-1.68,81.654,81.654,0,0,1,9.344,1.877.848.848,0,0,1-.215,1.669Zm-28.075-2.292a.849.849,0,0,1-.079-1.694c2.524-.24,5.092-.362,7.631-.362.627,0,1.265.007,1.9.022a.849.849,0,0,1-.04,1.7c-.617-.015-1.241-.022-1.855-.022-2.486,0-5,.119-7.47.355C2289.38,888.939,2289.353,888.941,2289.326,888.941Z" fill="#6f7302"/>
      </g>
      <g id="Grupo_58058" data-name="Grupo 58058">
        <path id="Trazado_116772" data-name="Trazado 116772" d="M2297.033,1048.14a81.6,81.6,0,0,1-8.377-.434c-.245-.025-.489-.052-.733-.079a.848.848,0,1,1,.19-1.686l.718.077a80.165,80.165,0,0,0,8.6.423h0a.849.849,0,0,1,0,1.7Zm9.815-.607a.849.849,0,0,1-.1-1.691,78.873,78.873,0,0,0,9.175-1.7.849.849,0,1,1,.408,1.648,80.724,80.724,0,0,1-9.374,1.735A.737.737,0,0,1,2306.848,1047.533Zm-28.126-1.5a.861.861,0,0,1-.194-.023,80.469,80.469,0,0,1-9.138-2.72.849.849,0,1,1,.58-1.595,78.912,78.912,0,0,0,8.945,2.663.849.849,0,0,1-.193,1.675Zm-17.7-6.441a.84.84,0,0,1-.382-.091,80.3,80.3,0,0,1-8.236-4.8.848.848,0,1,1,.94-1.412,78.971,78.971,0,0,0,8.062,4.7.849.849,0,0,1-.384,1.606Zm-15.678-10.431a.846.846,0,0,1-.55-.2,81.466,81.466,0,0,1-6.882-6.594.849.849,0,0,1,1.244-1.155,79.6,79.6,0,0,0,6.738,6.457.849.849,0,0,1-.55,1.495Z" fill="#6f7302"/>
      </g>
      <g id="Grupo_58059" data-name="Grupo 58059">
        <path id="Trazado_116773" data-name="Trazado 116773" d="M2365.825,1008.644a.848.848,0,0,1-.732-1.277,78.936,78.936,0,0,0,4.226-8.319.849.849,0,1,1,1.556.678,80.507,80.507,0,0,1-4.317,8.5A.849.849,0,0,1,2365.825,1008.644Zm7.519-17.264a.869.869,0,0,1-.245-.036.848.848,0,0,1-.568-1.057,79.293,79.293,0,0,0,2.154-9.08.848.848,0,1,1,1.671.294,80.952,80.952,0,0,1-2.2,9.275A.849.849,0,0,1,2373.344,991.38Zm3.263-18.547h-.05a.848.848,0,0,1-.8-.9c.087-1.519.131-3.058.131-4.574,0-1.582-.048-3.183-.143-4.759a.848.848,0,1,1,1.694-.1c.1,1.609.146,3.244.146,4.86,0,1.548-.045,3.12-.134,4.671A.849.849,0,0,1,2376.607,972.833Z" fill="#6f7302"/>
      </g>
      <circle id="Elipse_4207" data-name="Elipse 4207" cx="58.176" cy="58.176" r="58.176" transform="translate(2238.78 909.337)" fill="#fff" opacity="0.5"/>
      <g id="Grupo_58084" data-name="Grupo 58084">
        <g id="Grupo_58075" data-name="Grupo 58075">
          <g id="Grupo_58060" data-name="Grupo 58060">
            <path id="Trazado_116774" data-name="Trazado 116774" d="M2353.812,968.353h-52.818a8.818,8.818,0,0,1-8.783-8.852V908.735a8.818,8.818,0,0,1,8.783-8.851h52.818a8.817,8.817,0,0,1,8.783,8.851V959.5A8.817,8.817,0,0,1,2353.812,968.353Z" fill="#fff"/>
            <path id="Trazado_116775" data-name="Trazado 116775" d="M2353.812,969.2h-52.818a9.676,9.676,0,0,1-9.631-9.7V908.735a9.677,9.677,0,0,1,9.631-9.7h52.818a9.678,9.678,0,0,1,9.632,9.7V959.5A9.677,9.677,0,0,1,2353.812,969.2Zm-52.818-68.469a7.977,7.977,0,0,0-7.934,8V959.5a7.977,7.977,0,0,0,7.934,8h52.818a7.978,7.978,0,0,0,7.935-8V908.735a7.978,7.978,0,0,0-7.935-8Z" fill="#6f7302"/>
          </g>
          <g id="Grupo_58065" data-name="Grupo 58065">
            <g id="Grupo_58061" data-name="Grupo 58061">
              <path id="Trazado_116776" data-name="Trazado 116776" d="M2300.627,908.773h0a2.482,2.482,0,0,1-2.482-2.482v-8.812a2.482,2.482,0,0,1,2.482-2.482h0a2.482,2.482,0,0,1,2.482,2.482v8.812A2.482,2.482,0,0,1,2300.627,908.773Z" fill="#5d9af0"/>
              <path id="Trazado_116777" data-name="Trazado 116777" d="M2300.627,909.621a3.335,3.335,0,0,1-3.331-3.33v-8.812a3.331,3.331,0,0,1,6.662,0v8.812A3.334,3.334,0,0,1,2300.627,909.621Zm0-13.776a1.635,1.635,0,0,0-1.633,1.634v8.812a1.634,1.634,0,0,0,3.267,0v-8.812A1.636,1.636,0,0,0,2300.627,895.845Z" fill="#6f7302"/>
            </g>
            <g id="Grupo_58062" data-name="Grupo 58062">
              <path id="Trazado_116778" data-name="Trazado 116778" d="M2318.473,908.773h0a2.483,2.483,0,0,1-2.482-2.482v-8.812a2.482,2.482,0,0,1,2.482-2.482h0a2.483,2.483,0,0,1,2.483,2.482v8.812A2.483,2.483,0,0,1,2318.473,908.773Z" fill="#5d9af0"/>
              <path id="Trazado_116779" data-name="Trazado 116779" d="M2318.473,909.621a3.334,3.334,0,0,1-3.33-3.33v-8.812a3.33,3.33,0,1,1,6.661,0v8.812A3.334,3.334,0,0,1,2318.473,909.621Zm0-13.776a1.636,1.636,0,0,0-1.633,1.634v8.812a1.633,1.633,0,0,0,3.267,0v-8.812A1.636,1.636,0,0,0,2318.473,895.845Z" fill="#6f7302"/>
            </g>
            <g id="Grupo_58063" data-name="Grupo 58063">
              <path id="Trazado_116780" data-name="Trazado 116780" d="M2336.32,908.773h0a2.483,2.483,0,0,1-2.483-2.482v-8.812A2.483,2.483,0,0,1,2336.32,895h0a2.482,2.482,0,0,1,2.482,2.482v8.812A2.483,2.483,0,0,1,2336.32,908.773Z" fill="#5d9af0"/>
              <path id="Trazado_116781" data-name="Trazado 116781" d="M2336.32,909.621a3.334,3.334,0,0,1-3.331-3.33v-8.812a3.33,3.33,0,1,1,6.661,0v8.812A3.334,3.334,0,0,1,2336.32,909.621Zm0-13.776a1.636,1.636,0,0,0-1.634,1.634v8.812a1.633,1.633,0,0,0,3.267,0v-8.812A1.636,1.636,0,0,0,2336.32,895.845Z" fill="#6f7302"/>
            </g>
            <g id="Grupo_58064" data-name="Grupo 58064">
              <path id="Trazado_116782" data-name="Trazado 116782" d="M2354.166,908.773h0a2.482,2.482,0,0,1-2.482-2.482v-8.812a2.482,2.482,0,0,1,2.482-2.482h0a2.482,2.482,0,0,1,2.482,2.482v8.812A2.482,2.482,0,0,1,2354.166,908.773Z" fill="#5d9af0"/>
              <path id="Trazado_116783" data-name="Trazado 116783" d="M2354.166,909.621a3.334,3.334,0,0,1-3.331-3.33v-8.812a3.331,3.331,0,0,1,6.662,0v8.812A3.335,3.335,0,0,1,2354.166,909.621Zm0-13.776a1.636,1.636,0,0,0-1.634,1.634v8.812a1.634,1.634,0,0,0,3.267,0v-8.812A1.635,1.635,0,0,0,2354.166,895.845Z" fill="#6f7302"/>
            </g>
          </g>
          <g id="Grupo_58066" data-name="Grupo 58066">
            <path id="Trazado_116784" data-name="Trazado 116784" d="M2292.449,914.612h0Z" fill="#fff"/>
            <path id="Trazado_116785" data-name="Trazado 116785" d="M2362.595,915.461h-70.146a.849.849,0,0,1,0-1.7h70.146a.849.849,0,1,1,0,1.7Z" fill="#6f7302"/>
          </g>
          <g id="Grupo_58070" data-name="Grupo 58070">
            <g id="Grupo_58067" data-name="Grupo 58067">
              <rect id="Rectángulo_6944" data-name="Rectángulo 6944" width="14.448" height="14.448" rx="1.11" transform="translate(2298.305 922.713)" fill="#ffce3b"/>
              <path id="Trazado_116786" data-name="Trazado 116786" d="M2311.644,938.01h-12.229a1.96,1.96,0,0,1-1.958-1.958V923.823a1.96,1.96,0,0,1,1.958-1.958h12.229a1.96,1.96,0,0,1,1.958,1.958v12.229A1.96,1.96,0,0,1,2311.644,938.01Zm-12.229-14.448a.261.261,0,0,0-.261.261v12.229a.261.261,0,0,0,.261.261h12.229a.261.261,0,0,0,.261-.261V923.823a.261.261,0,0,0-.261-.261Z" fill="#6f7302"/>
            </g>
            <g id="Grupo_58068" data-name="Grupo 58068">
              <rect id="Rectángulo_6945" data-name="Rectángulo 6945" width="14.448" height="14.448" rx="1.11" transform="translate(2319.989 922.713)" fill="#ffce3b"/>
              <path id="Trazado_116787" data-name="Trazado 116787" d="M2333.328,938.01H2321.1a1.961,1.961,0,0,1-1.959-1.958V923.823a1.961,1.961,0,0,1,1.959-1.958h12.229a1.96,1.96,0,0,1,1.958,1.958v12.229A1.96,1.96,0,0,1,2333.328,938.01ZM2321.1,923.562a.261.261,0,0,0-.261.261v12.229a.261.261,0,0,0,.261.261h12.229a.261.261,0,0,0,.261-.261V923.823a.261.261,0,0,0-.261-.261Z" fill="#6f7302"/>
            </g>
            <g id="Grupo_58069" data-name="Grupo 58069">
              <rect id="Rectángulo_6946" data-name="Rectángulo 6946" width="14.448" height="14.448" rx="1.11" transform="translate(2341.672 922.713)" fill="#ffce3b"/>
              <path id="Trazado_116788" data-name="Trazado 116788" d="M2355.011,938.01h-12.229a1.96,1.96,0,0,1-1.958-1.958V923.823a1.96,1.96,0,0,1,1.958-1.958h12.229a1.96,1.96,0,0,1,1.958,1.958v12.229A1.96,1.96,0,0,1,2355.011,938.01Zm-12.229-14.448a.261.261,0,0,0-.261.261v12.229a.261.261,0,0,0,.261.261h12.229a.261.261,0,0,0,.261-.261V923.823a.261.261,0,0,0-.261-.261Z" fill="#6f7302"/>
            </g>
          </g>
          <g id="Grupo_58074" data-name="Grupo 58074">
            <g id="Grupo_58071" data-name="Grupo 58071">
              <rect id="Rectángulo_6947" data-name="Rectángulo 6947" width="14.448" height="14.448" rx="1.11" transform="translate(2298.305 944.972)" fill="#ffce3b"/>
              <path id="Trazado_116789" data-name="Trazado 116789" d="M2311.644,960.269h-12.229a1.961,1.961,0,0,1-1.958-1.959V946.081a1.96,1.96,0,0,1,1.958-1.958h12.229a1.96,1.96,0,0,1,1.958,1.958V958.31A1.961,1.961,0,0,1,2311.644,960.269Zm-12.229-14.449a.261.261,0,0,0-.261.261V958.31a.261.261,0,0,0,.261.261h12.229a.261.261,0,0,0,.261-.261V946.081a.261.261,0,0,0-.261-.261Z" fill="#6f7302"/>
            </g>
            <g id="Grupo_58072" data-name="Grupo 58072">
              <rect id="Rectángulo_6948" data-name="Rectángulo 6948" width="14.448" height="14.448" rx="1.11" transform="translate(2319.989 944.972)" fill="#fff"/>
              <path id="Trazado_116790" data-name="Trazado 116790" d="M2333.328,960.269H2321.1a1.962,1.962,0,0,1-1.959-1.959V946.081a1.961,1.961,0,0,1,1.959-1.958h12.229a1.961,1.961,0,0,1,1.958,1.958V958.31A1.961,1.961,0,0,1,2333.328,960.269ZM2321.1,945.82a.261.261,0,0,0-.261.261V958.31a.261.261,0,0,0,.261.261h12.229a.261.261,0,0,0,.261-.261V946.081a.261.261,0,0,0-.261-.261Z" fill="#6f7302"/>
            </g>
            <g id="Grupo_58073" data-name="Grupo 58073">
              <rect id="Rectángulo_6949" data-name="Rectángulo 6949" width="14.448" height="14.448" rx="1.11" transform="translate(2341.672 944.972)" fill="#fff"/>
              <path id="Trazado_116791" data-name="Trazado 116791" d="M2355.011,960.269h-12.229a1.961,1.961,0,0,1-1.958-1.959V946.081a1.96,1.96,0,0,1,1.958-1.958h12.229a1.96,1.96,0,0,1,1.958,1.958V958.31A1.961,1.961,0,0,1,2355.011,960.269Zm-12.229-14.449a.261.261,0,0,0-.261.261V958.31a.261.261,0,0,0,.261.261h12.229a.261.261,0,0,0,.261-.261V946.081a.261.261,0,0,0-.261-.261Z" fill="#6f7302"/>
            </g>
          </g>
        </g>
        <g id="Grupo_58083" data-name="Grupo 58083">
          <g id="Grupo_58078" data-name="Grupo 58078">
            <g id="Grupo_58077" data-name="Grupo 58077">
              <g id="Grupo_58076" data-name="Grupo 58076">
                <circle id="Elipse_4208" data-name="Elipse 4208" cx="21.021" cy="21.021" r="21.021" transform="matrix(0.877, -0.48, 0.48, 0.877, 2325.065, 943.533)" fill="#ffce3b"/>
                <path id="Trazado_116792" data-name="Trazado 116792" d="M2353.563,973.756a21.86,21.86,0,1,1,17.957-9.336A21.745,21.745,0,0,1,2353.563,973.756Zm.059-42.028a20.163,20.163,0,1,0,11.526,3.63A20.165,20.165,0,0,0,2353.622,931.728Z" fill="#6f7302"/>
              </g>
            </g>
          </g>
          <g id="Grupo_58082" data-name="Grupo 58082">
            <g id="Grupo_58079" data-name="Grupo 58079">
              <path id="Trazado_116793" data-name="Trazado 116793" d="M2353.921,962.471h-4.31a.849.849,0,1,1,0-1.7h4.31a4.134,4.134,0,0,0,4.129-4.128v-.093a4.134,4.134,0,0,0-4.129-4.129h-.848a5.826,5.826,0,0,1,0-11.651h3.8a.848.848,0,1,1,0,1.7h-3.8a4.129,4.129,0,0,0,0,8.257h.848a5.833,5.833,0,0,1,5.826,5.826v.093A5.832,5.832,0,0,1,2353.921,962.471Z" fill="#6f7302"/>
            </g>
            <g id="Grupo_58080" data-name="Grupo 58080">
              <path id="Trazado_116794" data-name="Trazado 116794" d="M2353.5,941.789a.849.849,0,0,1-.849-.849v-4.388a.849.849,0,1,1,1.7,0v4.388A.849.849,0,0,1,2353.5,941.789Z" fill="#6f7302"/>
            </g>
            <g id="Grupo_58081" data-name="Grupo 58081">
              <path id="Trazado_116795" data-name="Trazado 116795" d="M2353.5,967.541a.849.849,0,0,1-.849-.849V962.3a.849.849,0,1,1,1.7,0v4.388A.849.849,0,0,1,2353.5,967.541Z" fill="#6f7302"/>
            </g>
          </g>
        </g>
      </g>
      <g id="Grupo_58091" data-name="Grupo 58091">
        <g id="Grupo_58086" data-name="Grupo 58086">
          <g id="Grupo_58085" data-name="Grupo 58085">
            <path id="Trazado_116796" data-name="Trazado 116796" d="M2300.7,1020.369l35.166,36.888a.634.634,0,0,0,.906,0l35.165-36.888a.568.568,0,0,0-.453-.951h-17.234a.589.589,0,0,1-.607-.57V980.856a.732.732,0,0,0-.754-.707h-33.14a.732.732,0,0,0-.754.707v37.992a.59.59,0,0,1-.608.57h-17.234A.568.568,0,0,0,2300.7,1020.369Z" fill="#fff"/>
            <path id="Trazado_116797" data-name="Trazado 116797" d="M2336.32,1058.3a1.478,1.478,0,0,1-1.067-.453l-35.166-36.889a1.375,1.375,0,0,1-.277-1.512,1.454,1.454,0,0,1,1.344-.872h16.993V980.856a1.582,1.582,0,0,1,1.6-1.556h33.14a1.582,1.582,0,0,1,1.6,1.556v37.714h16.993a1.453,1.453,0,0,1,1.344.872,1.375,1.375,0,0,1-.277,1.512l-35.165,36.889A1.48,1.48,0,0,1,2336.32,1058.3Zm-34.544-38.029,34.544,36.236,34.543-36.236h-16.612a1.44,1.44,0,0,1-1.456-1.419V981h-32.951v37.85a1.44,1.44,0,0,1-1.456,1.419Zm-.461-.484Z" fill="#6f7302"/>
          </g>
        </g>
        <g id="Grupo_58090" data-name="Grupo 58090">
          <g id="Grupo_58087" data-name="Grupo 58087">
            <path id="Trazado_116798" data-name="Trazado 116798" d="M2340.777,1005.615h-5.016a6.56,6.56,0,0,0-6.561,6.561h0a6.56,6.56,0,0,0,6.561,6.561h1.117a6.562,6.562,0,0,1,6.562,6.561v.122a6.562,6.562,0,0,1-6.562,6.562H2331.2Z" fill="#fff"/>
            <path id="Trazado_116799" data-name="Trazado 116799" d="M2336.878,1032.83H2331.2a.848.848,0,1,1,0-1.7h5.681a5.72,5.72,0,0,0,5.713-5.713v-.122a5.719,5.719,0,0,0-5.713-5.712h-1.117a7.41,7.41,0,0,1,0-14.82h5.016a.849.849,0,0,1,0,1.7h-5.016a5.712,5.712,0,1,0,0,11.425h1.117a7.418,7.418,0,0,1,7.41,7.41v.122A7.418,7.418,0,0,1,2336.878,1032.83Z" fill="#6f7302"/>
          </g>
          <g id="Grupo_58088" data-name="Grupo 58088">
            <path id="Trazado_116800" data-name="Trazado 116800" d="M2336.32,998.932v0Z" fill="#fff"/>
            <path id="Trazado_116801" data-name="Trazado 116801" d="M2336.32,1005.566a.849.849,0,0,1-.849-.849v-5.785a.849.849,0,1,1,1.7,0v5.785A.849.849,0,0,1,2336.32,1005.566Z" fill="#6f7302"/>
          </g>
          <g id="Grupo_58089" data-name="Grupo 58089">
            <path id="Trazado_116802" data-name="Trazado 116802" d="M2336.32,1032.879v0Z" fill="#fff"/>
            <path id="Trazado_116803" data-name="Trazado 116803" d="M2336.32,1039.513a.849.849,0,0,1-.849-.849v-5.785a.849.849,0,0,1,1.7,0v5.785A.848.848,0,0,1,2336.32,1039.513Z" fill="#6f7302"/>
          </g>
        </g>
      </g>
      <g id="Grupo_58124" data-name="Grupo 58124">
        <g id="Grupo_58108" data-name="Grupo 58108">
          <g id="Grupo_58093" data-name="Grupo 58093">
            <g id="Grupo_58092" data-name="Grupo 58092">
              <rect id="Rectángulo_6950" data-name="Rectángulo 6950" width="57.347" height="77.818" rx="3.374" transform="translate(2218.744 933.957)" fill="#fff"/>
              <path id="Trazado_116804" data-name="Trazado 116804" d="M2272.717,1012.623h-50.6a4.227,4.227,0,0,1-4.223-4.223V937.331a4.227,4.227,0,0,1,4.223-4.223h50.6a4.227,4.227,0,0,1,4.223,4.223V1008.4A4.227,4.227,0,0,1,2272.717,1012.623Zm-50.6-77.818a2.529,2.529,0,0,0-2.526,2.526V1008.4a2.529,2.529,0,0,0,2.526,2.526h50.6a2.529,2.529,0,0,0,2.526-2.526V937.331a2.529,2.529,0,0,0-2.526-2.526Z" fill="#6f7302"/>
            </g>
          </g>
          <g id="Grupo_58098" data-name="Grupo 58098">
            <g id="Grupo_58094" data-name="Grupo 58094">
              <path id="Trazado_116805" data-name="Trazado 116805" d="M2260.159,999.507h-21.493a.849.849,0,1,1,0-1.7h21.493a.849.849,0,0,1,0,1.7Z" fill="#6f7302"/>
            </g>
            <g id="Grupo_58095" data-name="Grupo 58095">
              <path id="Trazado_116806" data-name="Trazado 116806" d="M2260.159,1004.657h-21.493a.849.849,0,1,1,0-1.7h21.493a.849.849,0,0,1,0,1.7Z" fill="#6f7302"/>
            </g>
            <g id="Grupo_58096" data-name="Grupo 58096">
              <path id="Trazado_116807" data-name="Trazado 116807" d="M2234.706,999.507h-11.192a.849.849,0,1,1,0-1.7h11.192a.849.849,0,1,1,0,1.7Z" fill="#6f7302"/>
            </g>
            <g id="Grupo_58097" data-name="Grupo 58097">
              <path id="Trazado_116808" data-name="Trazado 116808" d="M2234.706,1004.657h-11.192a.849.849,0,0,1,0-1.7h11.192a.849.849,0,0,1,0,1.7Z" fill="#6f7302"/>
            </g>
          </g>
          <g id="Grupo_58105" data-name="Grupo 58105">
            <g id="Grupo_58099" data-name="Grupo 58099">
              <rect id="Rectángulo_6951" data-name="Rectángulo 6951" width="47.808" height="35.725" transform="translate(2223.514 955.373)" fill="#fff"/>
              <path id="Trazado_116809" data-name="Trazado 116809" d="M2271.322,991.947h-47.808a.849.849,0,0,1-.849-.849V955.373a.849.849,0,0,1,.849-.849h47.808a.849.849,0,0,1,.849.849V991.1A.849.849,0,0,1,2271.322,991.947Zm-46.96-1.7h46.112V956.221h-46.112Z" fill="#6f7302"/>
            </g>
            <g id="Grupo_58100" data-name="Grupo 58100">
              <path id="Trazado_116810" data-name="Trazado 116810" d="M2223.514,966.115h0Z" fill="#fff"/>
              <path id="Trazado_116811" data-name="Trazado 116811" d="M2271.322,966.963h-47.808a.849.849,0,1,1,0-1.7h47.808a.849.849,0,1,1,0,1.7Z" fill="#6f7302"/>
            </g>
            <g id="Grupo_58101" data-name="Grupo 58101">
              <path id="Trazado_116812" data-name="Trazado 116812" d="M2223.514,975.519h0Z" fill="#fff"/>
              <path id="Trazado_116813" data-name="Trazado 116813" d="M2271.322,976.368h-47.808a.849.849,0,0,1,0-1.7h47.808a.849.849,0,0,1,0,1.7Z" fill="#6f7302"/>
            </g>
            <g id="Grupo_58102" data-name="Grupo 58102">
              <path id="Trazado_116814" data-name="Trazado 116814" d="M2223.514,981.055h0Z" fill="#fff"/>
              <path id="Trazado_116815" data-name="Trazado 116815" d="M2271.322,981.9h-47.808a.849.849,0,1,1,0-1.7h47.808a.849.849,0,1,1,0,1.7Z" fill="#6f7302"/>
            </g>
            <g id="Grupo_58103" data-name="Grupo 58103">
              <path id="Trazado_116816" data-name="Trazado 116816" d="M2223.514,986.117h0Z" fill="#fff"/>
              <path id="Trazado_116817" data-name="Trazado 116817" d="M2271.322,986.966h-47.808a.849.849,0,1,1,0-1.7h47.808a.849.849,0,1,1,0,1.7Z" fill="#6f7302"/>
            </g>
            <g id="Grupo_58104" data-name="Grupo 58104">
              <path id="Trazado_116818" data-name="Trazado 116818" d="M2263.256,955.373v0Z" fill="#fff"/>
              <path id="Trazado_116819" data-name="Trazado 116819" d="M2263.256,991.947a.849.849,0,0,1-.848-.849V955.373a.849.849,0,1,1,1.7,0V991.1A.849.849,0,0,1,2263.256,991.947Z" fill="#6f7302"/>
            </g>
          </g>
          <g id="Grupo_58106" data-name="Grupo 58106">
            <path id="Trazado_116820" data-name="Trazado 116820" d="M2244.009,990.675a.849.849,0,0,1-.848-.849V956.645a.849.849,0,1,1,1.7,0v33.181A.849.849,0,0,1,2244.009,990.675Z" fill="#6f7302"/>
          </g>
          <g id="Grupo_58107" data-name="Grupo 58107">
            <rect id="Rectángulo_6952" data-name="Rectángulo 6952" width="44.543" height="6.192" transform="translate(2225.146 940.901)" fill="#5d9af0"/>
            <path id="Trazado_116821" data-name="Trazado 116821" d="M2269.689,947.942h-44.543a.849.849,0,0,1-.848-.849V940.9a.849.849,0,0,1,.848-.849h44.543a.849.849,0,0,1,.849.849v6.192A.849.849,0,0,1,2269.689,947.942Zm-43.694-1.7h42.846V941.75H2226Z" fill="#6f7302"/>
          </g>
        </g>
        <g id="Grupo_58123" data-name="Grupo 58123">
          <g id="Grupo_58122" data-name="Grupo 58122">
            <g id="Grupo_58121" data-name="Grupo 58121">
              <g id="Grupo_58109" data-name="Grupo 58109">
                <rect id="Rectángulo_6953" data-name="Rectángulo 6953" width="37.941" height="54.177" rx="2.439" transform="translate(2253.476 971.57)" fill="#fff"/>
                <path id="Trazado_116822" data-name="Trazado 116822" d="M2288.978,1026.6h-33.062a3.292,3.292,0,0,1-3.288-3.288v-49.3a3.292,3.292,0,0,1,3.288-3.288h33.062a3.292,3.292,0,0,1,3.288,3.288v49.3A3.292,3.292,0,0,1,2288.978,1026.6Zm-33.062-54.177a1.593,1.593,0,0,0-1.591,1.591v49.3a1.593,1.593,0,0,0,1.591,1.591h33.062a1.593,1.593,0,0,0,1.591-1.591v-49.3a1.593,1.593,0,0,0-1.591-1.591Z" fill="#6f7302"/>
              </g>
              <g id="Grupo_58110" data-name="Grupo 58110">
                <rect id="Rectángulo_6954" data-name="Rectángulo 6954" width="30.078" height="11.733" transform="translate(2257.408 976.044)" fill="#fff"/>
                <path id="Trazado_116823" data-name="Trazado 116823" d="M2287.486,988.626h-30.078a.849.849,0,0,1-.849-.848V976.045a.849.849,0,0,1,.849-.849h30.078a.849.849,0,0,1,.848.849v11.733A.848.848,0,0,1,2287.486,988.626Zm-29.23-1.7h28.381V976.893h-28.381Z" fill="#6f7302"/>
              </g>
              <g id="Grupo_58120" data-name="Grupo 58120">
                <g id="Grupo_58111" data-name="Grupo 58111">
                  <rect id="Rectángulo_6955" data-name="Rectángulo 6955" width="6.56" height="6.561" rx="1.168" transform="translate(2257.429 991.967)" fill="#ffce3b"/>
                  <path id="Trazado_116824" data-name="Trazado 116824" d="M2262.822,999.376H2258.6a2.018,2.018,0,0,1-2.016-2.016v-4.225a2.018,2.018,0,0,1,2.016-2.016h4.225a2.019,2.019,0,0,1,2.017,2.016v4.225A2.019,2.019,0,0,1,2262.822,999.376Zm-4.225-6.56a.319.319,0,0,0-.319.319v4.225a.319.319,0,0,0,.319.319h4.225a.319.319,0,0,0,.319-.319v-4.225a.319.319,0,0,0-.319-.319Z" fill="#6f7302"/>
                </g>
                <g id="Grupo_58112" data-name="Grupo 58112">
                  <rect id="Rectángulo_6956" data-name="Rectángulo 6956" width="6.561" height="6.561" rx="1.168" transform="translate(2268.802 991.967)" fill="#ffce3b"/>
                  <path id="Trazado_116825" data-name="Trazado 116825" d="M2274.2,999.376h-4.226a2.018,2.018,0,0,1-2.016-2.016v-4.225a2.018,2.018,0,0,1,2.016-2.016h4.226a2.018,2.018,0,0,1,2.016,2.016v4.225A2.018,2.018,0,0,1,2274.2,999.376Zm-4.226-6.56a.319.319,0,0,0-.319.319v4.225a.319.319,0,0,0,.319.319h4.226a.319.319,0,0,0,.319-.319v-4.225a.319.319,0,0,0-.319-.319Z" fill="#6f7302"/>
                </g>
                <g id="Grupo_58113" data-name="Grupo 58113">
                  <rect id="Rectángulo_6957" data-name="Rectángulo 6957" width="6.561" height="6.561" rx="1.168" transform="translate(2280.174 991.967)" fill="#ffce3b"/>
                  <path id="Trazado_116826" data-name="Trazado 116826" d="M2285.567,999.376h-4.225a2.018,2.018,0,0,1-2.016-2.016v-4.225a2.018,2.018,0,0,1,2.016-2.016h4.225a2.018,2.018,0,0,1,2.016,2.016v4.225A2.018,2.018,0,0,1,2285.567,999.376Zm-4.225-6.56a.319.319,0,0,0-.319.319v4.225a.319.319,0,0,0,.319.319h4.225a.319.319,0,0,0,.319-.319v-4.225a.319.319,0,0,0-.319-.319Z" fill="#6f7302"/>
                </g>
                <g id="Grupo_58114" data-name="Grupo 58114">
                  <rect id="Rectángulo_6958" data-name="Rectángulo 6958" width="6.56" height="6.56" rx="1.168" transform="translate(2257.429 1003.743)" fill="#ffce3b"/>
                  <path id="Trazado_116827" data-name="Trazado 116827" d="M2262.822,1011.152H2258.6a2.019,2.019,0,0,1-2.016-2.017v-4.225a2.018,2.018,0,0,1,2.016-2.016h4.225a2.019,2.019,0,0,1,2.017,2.016v4.225A2.02,2.02,0,0,1,2262.822,1011.152Zm-4.225-6.561a.319.319,0,0,0-.319.319v4.225a.319.319,0,0,0,.319.319h4.225a.319.319,0,0,0,.319-.319v-4.225a.319.319,0,0,0-.319-.319Z" fill="#6f7302"/>
                </g>
                <g id="Grupo_58115" data-name="Grupo 58115">
                  <rect id="Rectángulo_6959" data-name="Rectángulo 6959" width="6.561" height="6.56" rx="1.168" transform="translate(2268.802 1003.743)" fill="#ffce3b"/>
                  <path id="Trazado_116828" data-name="Trazado 116828" d="M2274.2,1011.152h-4.226a2.019,2.019,0,0,1-2.016-2.017v-4.225a2.018,2.018,0,0,1,2.016-2.016h4.226a2.018,2.018,0,0,1,2.016,2.016v4.225A2.019,2.019,0,0,1,2274.2,1011.152Zm-4.226-6.561a.319.319,0,0,0-.319.319v4.225a.319.319,0,0,0,.319.319h4.226a.319.319,0,0,0,.319-.319v-4.225a.319.319,0,0,0-.319-.319Z" fill="#6f7302"/>
                </g>
                <g id="Grupo_58116" data-name="Grupo 58116">
                  <rect id="Rectángulo_6960" data-name="Rectángulo 6960" width="6.561" height="6.56" rx="1.168" transform="translate(2280.174 1003.743)" fill="#ffce3b"/>
                  <path id="Trazado_116829" data-name="Trazado 116829" d="M2285.567,1011.152h-4.225a2.019,2.019,0,0,1-2.016-2.017v-4.225a2.018,2.018,0,0,1,2.016-2.016h4.225a2.018,2.018,0,0,1,2.016,2.016v4.225A2.019,2.019,0,0,1,2285.567,1011.152Zm-4.225-6.561a.319.319,0,0,0-.319.319v4.225a.319.319,0,0,0,.319.319h4.225a.319.319,0,0,0,.319-.319v-4.225a.319.319,0,0,0-.319-.319Z" fill="#6f7302"/>
                </g>
                <g id="Grupo_58117" data-name="Grupo 58117">
                  <rect id="Rectángulo_6961" data-name="Rectángulo 6961" width="6.56" height="6.561" rx="1.168" transform="translate(2257.429 1015.518)" fill="#ffce3b"/>
                  <path id="Trazado_116830" data-name="Trazado 116830" d="M2262.822,1022.927H2258.6a2.018,2.018,0,0,1-2.016-2.016v-4.225a2.019,2.019,0,0,1,2.016-2.017h4.225a2.02,2.02,0,0,1,2.017,2.017v4.225A2.019,2.019,0,0,1,2262.822,1022.927Zm-4.225-6.561a.32.32,0,0,0-.319.32v4.225a.319.319,0,0,0,.319.319h4.225a.319.319,0,0,0,.319-.319v-4.225a.32.32,0,0,0-.319-.32Z" fill="#6f7302"/>
                </g>
                <g id="Grupo_58118" data-name="Grupo 58118">
                  <rect id="Rectángulo_6962" data-name="Rectángulo 6962" width="6.561" height="6.561" rx="1.168" transform="translate(2268.802 1015.518)" fill="#ffce3b"/>
                  <path id="Trazado_116831" data-name="Trazado 116831" d="M2274.2,1022.927h-4.226a2.019,2.019,0,0,1-2.016-2.016v-4.225a2.019,2.019,0,0,1,2.016-2.017h4.226a2.019,2.019,0,0,1,2.016,2.017v4.225A2.019,2.019,0,0,1,2274.2,1022.927Zm-4.226-6.561a.32.32,0,0,0-.319.32v4.225a.319.319,0,0,0,.319.319h4.226a.319.319,0,0,0,.319-.319v-4.225a.32.32,0,0,0-.319-.32Z" fill="#6f7302"/>
                </g>
                <g id="Grupo_58119" data-name="Grupo 58119">
                  <rect id="Rectángulo_6963" data-name="Rectángulo 6963" width="6.561" height="6.561" rx="1.168" transform="translate(2280.174 1015.518)" fill="#ffce3b"/>
                  <path id="Trazado_116832" data-name="Trazado 116832" d="M2285.567,1022.927h-4.225a2.019,2.019,0,0,1-2.016-2.016v-4.225a2.019,2.019,0,0,1,2.016-2.017h4.225a2.019,2.019,0,0,1,2.016,2.017v4.225A2.019,2.019,0,0,1,2285.567,1022.927Zm-4.225-6.561a.32.32,0,0,0-.319.32v4.225a.319.319,0,0,0,.319.319h4.225a.319.319,0,0,0,.319-.319v-4.225a.32.32,0,0,0-.319-.32Z" fill="#6f7302"/>
                </g>
              </g>
            </g>
          </g>
        </g>
      </g>
    </g>
    <rect id="Rectángulo_7498" data-name="Rectángulo 7498" width="415" height="173" transform="translate(1005 1244)" fill="none"/>
  </g>
</svg>
