<svg xmlns="http://www.w3.org/2000/svg" xmlns:xlink="http://www.w3.org/1999/xlink" width="194.848" height="169" viewBox="0 0 194.848 169">
  <defs>
    <filter id="Elipse_4136" x="0" y="0" width="169" height="169" filterUnits="userSpaceOnUse">
      <feOffset dx="4" dy="6" input="SourceAlpha"/>
      <feGaussianBlur stdDeviation="3" result="blur"/>
      <feFlood flood-opacity="0.161"/>
      <feComposite operator="in" in2="blur"/>
      <feComposite in="SourceGraphic"/>
    </filter>
    <radialGradient id="radial-gradient" cx="0.5" cy="0.5" r="0.5" gradientTransform="matrix(0.23, 0.973, -0.973, 0.23, 0.872, -0.102)" gradientUnits="objectBoundingBox">
      <stop offset="0.386" stop-color="#046a38"/>
      <stop offset="0.571" stop-color="#036334"/>
      <stop offset="0.825" stop-color="#03522b"/>
      <stop offset="1" stop-color="#034223"/>
    </radialGradient>
    <linearGradient id="linear-gradient" x1="-0.154" y1="0.122" x2="1.343" y2="0.987" gradientUnits="objectBoundingBox">
      <stop offset="0" stop-color="#a4d672"/>
      <stop offset="0.439" stop-color="#55af3d"/>
      <stop offset="0.82" stop-color="#189113"/>
      <stop offset="1" stop-color="#008603"/>
    </linearGradient>
    <linearGradient id="linear-gradient-2" x1="0.733" y1="-0.169" x2="0.367" y2="0.89" xlink:href="#linear-gradient"/>
    <linearGradient id="linear-gradient-3" x1="0.464" y1="0.584" x2="0.056" y2="1.559" xlink:href="#linear-gradient"/>
    <linearGradient id="linear-gradient-4" x1="-1.145" y1="-0.023" x2="2.608" y2="1.196" xlink:href="#linear-gradient"/>
    <linearGradient id="linear-gradient-5" x1="0.706" y1="0.166" x2="0.401" y2="0.66" xlink:href="#linear-gradient"/>
    <linearGradient id="linear-gradient-6" x1="0.474" y1="0.533" x2="0.186" y2="0.89" xlink:href="#linear-gradient"/>
  </defs>
  <g id="Grupo_55217" data-name="Grupo 55217" transform="translate(-410.729 -2453.223)">
    <g transform="matrix(1, 0, 0, 1, 410.73, 2453.22)" filter="url(#Elipse_4136)">
      <circle id="Elipse_4136-2" data-name="Elipse 4136" cx="75.5" cy="75.5" r="75.5" transform="translate(5 3)" fill="#003538"/>
    </g>
    <circle id="Elipse_4137" data-name="Elipse 4137" cx="47.124" cy="47.124" r="47.124" transform="translate(444.105 2484.598)" fill="#ededed"/>
    <circle id="Elipse_4138" data-name="Elipse 4138" cx="42.437" cy="42.437" r="42.437" transform="matrix(0.23, -0.973, 0.973, 0.23, 440.177, 2563.274)" fill="url(#radial-gradient)"/>
    <g id="Grupo_55213" data-name="Grupo 55213" transform="translate(476.982 2471.253)">
      <path id="Trazado_103062" data-name="Trazado 103062" d="M253.516,70.378v0a63.48,63.48,0,0,1-6.6,8.639c-7.734,8.865-23.229,23.812-51.4,41.381-45.627,28.452-59.619,38.262-70.591,50.266.025-.07.327-.85.956-2.214,3.316-7.2,15.712-30.75,44.661-52.615C205.238,89.632,224.366,93.2,253.516,70.378Z" transform="translate(-124.921 -70.378)" fill="url(#linear-gradient)"/>
      <path id="Trazado_103063" data-name="Trazado 103063" d="M253.516,70.384c-.236.754-13.066,41.195-53.113,67.08-36.093,23.334-57.652,21.684-71.019,29.809a25.647,25.647,0,0,0-4.463,3.4c10.973-12,24.964-21.815,70.591-50.266,28.175-17.568,43.67-32.516,51.4-41.381A63.481,63.481,0,0,0,253.516,70.384Z" transform="translate(-124.921 -70.379)" fill="url(#linear-gradient-2)"/>
      <path id="Trazado_103064" data-name="Trazado 103064" d="M247.891,79.019s-.075.141-.206.347-.362.548-.684.981c-.031.041-.056.075-.085.116-.634.85-1.625,2.072-2.994,3.582-1.434,1.58-3.281,3.477-5.5,5.575s-4.81,4.4-7.693,6.827c-5.761,4.861-12.674,10.178-20.12,15.537-3.723,2.672-7.577,5.358-11.5,8.024s-7.879,5.287-11.848,7.934c-7.929,5.263-15.858,10.52-23.289,15.45s-14.344,9.559-20.185,13.725c-2.918,2.078-5.554,4.055-7.828,5.861s-4.161,3.461-5.646,4.851c-.327.307-.639.6-.93.885a25.647,25.647,0,0,0-4.463,3.4c.025-.07.327-.85.956-2.214.795-.81,1.846-1.841,3.149-3.044,1.706-1.565,3.839-3.4,6.3-5.328s5.248-3.979,8.261-6.087c6.033-4.227,12.99-8.79,20.426-13.644,7.426-4.835,15.35-10,23.274-15.159,3.955-2.591,7.929-5.182,11.8-7.753,3.883-2.6,7.7-5.2,11.4-7.8,7.375-5.207,14.228-10.379,19.928-15.1,2.847-2.36,5.408-4.6,7.607-6.636s4.01-3.869,5.423-5.389,2.4-2.732,3-3.537c.307-.408.508-.71.644-.905s.176-.282.182-.292a1.052,1.052,0,0,1,.477-.4C247.926,78.762,247.987,78.852,247.891,79.019Z" transform="translate(-124.921 -71.819)" fill="url(#linear-gradient-3)"/>
    </g>
    <g id="Grupo_55214" data-name="Grupo 55214" transform="translate(426.815 2501.691)">
      <path id="Trazado_103065" data-name="Trazado 103065" d="M114.7,176.977s-.526-.059-1.466-.241a49.693,49.693,0,0,1-30.676-20.922C69.614,136.8,75.866,122.924,64.4,107.1a21.669,21.669,0,0,1,5.184,2.938c5.124,3.663,13.31,11.543,21.061,27.679C103.191,163.855,107.842,171.665,114.7,176.977Z" transform="translate(-64.398 -107.1)" fill="url(#linear-gradient-4)"/>
      <path id="Trazado_103066" data-name="Trazado 103066" d="M114.7,176.977c-6.854-5.312-11.506-13.122-24.053-39.259-7.751-16.136-15.937-24.016-21.061-27.679A21.669,21.669,0,0,0,64.4,107.1s28.034,1.053,39.84,24.026c10.544,20.536,5.248,35.726,8.782,43.423A7.95,7.95,0,0,0,114.7,176.977Z" transform="translate(-64.398 -107.1)" fill="url(#linear-gradient-5)"/>
      <path id="Trazado_103067" data-name="Trazado 103067" d="M115.547,177.5s-.526-.059-1.466-.241c-.452-.4-1.02-.93-1.665-1.606a32.637,32.637,0,0,1-2.777-3.346c-.967-1.338-1.966-2.874-2.966-4.556-2-3.368-4.082-7.31-6.29-11.527L93.5,143.013c-1.176-2.245-2.358-4.5-3.54-6.687s-2.411-4.341-3.647-6.4a101.869,101.869,0,0,0-7.467-10.91c-1.213-1.525-2.4-2.868-3.5-4a32.023,32.023,0,0,0-2.982-2.729,15.366,15.366,0,0,0-2.062-1.407c-.247-.134-.43-.22-.554-.274a1.257,1.257,0,0,0-.177-.07.333.333,0,0,1-.209-.258c-.011-.108.065-.167.172-.129a1.446,1.446,0,0,1,.215.08,6.478,6.478,0,0,1,.6.285c.022.011.048.027.075.043a14.99,14.99,0,0,1,2.095,1.385,31.608,31.608,0,0,1,3.105,2.75c1.139,1.139,2.363,2.492,3.626,4.023a104.519,104.519,0,0,1,7.751,10.958c1.284,2.068,2.551,4.222,3.8,6.424s2.444,4.443,3.663,6.687c2.417,4.48,4.829,8.96,7.1,13.16s4.4,8.1,6.392,11.35c1,1.622,1.966,3.073,2.885,4.3a29.4,29.4,0,0,0,2.536,2.986c.172.172.338.339.494.489A7.95,7.95,0,0,0,115.547,177.5Z" transform="translate(-65.248 -107.62)" fill="url(#linear-gradient-6)"/>
    </g>
    <g id="Grupo_55215" data-name="Grupo 55215" transform="translate(462.132 2464.505)">
      <path id="Trazado_103068" data-name="Trazado 103068" d="M114.167,80.859l-7.161-10.876,2.261-.957,4.067,6.707L111.462,68.1l2.228-.943,2.658,12.781Z" transform="translate(-107.006 -63.078)" fill="#ededed"/>
      <path id="Trazado_103069" data-name="Trazado 103069" d="M125.484,77.167l-2.652-12.529,5.228-1.107.368,1.74-2.694.57.722,3.411,1.907-.4.377,1.781-1.907.4.817,3.856,2.693-.569.369,1.74Z" transform="translate(-109.714 -62.458)" fill="#ededed"/>
      <path id="Trazado_103070" data-name="Trazado 103070" d="M137.267,71.309l-.028-4.511q-.026-4.538,3.752-4.561a4.434,4.434,0,0,1,1.421.2,2.99,2.99,0,0,1,1.045.574,2.957,2.957,0,0,1,.7.906,4.53,4.53,0,0,1,.4,1.171,7.5,7.5,0,0,1,.129,1.394l0,.754-2.476.015-.006-.9c0-.223-.008-.419-.022-.587a3.632,3.632,0,0,0-.093-.561,1.73,1.73,0,0,0-.194-.507.994.994,0,0,0-.351-.333,1.041,1.041,0,0,0-.542-.131q-1.187.006-1.175,1.9l.033,5.528q.011,1.885,1.2,1.877t1.17-1.964l-.007-1.024-1.465.009-.011-1.857,4.055-.025.04,6.588-1.779.011-.333-.894a2.381,2.381,0,0,1-.927.835,2.666,2.666,0,0,1-1.242.324A3.037,3.037,0,0,1,139.3,75.3a2.646,2.646,0,0,1-.937-.663,3.781,3.781,0,0,1-.622-.974,5.079,5.079,0,0,1-.363-1.147A6.773,6.773,0,0,1,137.267,71.309Z" transform="translate(-112.179 -62.237)" fill="#ededed"/>
      <path id="Trazado_103071" data-name="Trazado 103071" d="M151.294,75.963l5.37-11.951,2.24.476.037,13.1-2.5-.531.054-2.788-1.635-.347L153.806,76.5Zm4.075-3.564,1.294.276.355-4.784Z" transform="translate(-114.584 -62.541)" fill="#ededed"/>
      <path id="Trazado_103072" data-name="Trazado 103072" d="M165.275,79.605l5.272-11.678,1.7.767-.2,7.264,2.758-6.108,1.959.884-5.272,11.678-1.635-.738.369-7.632L167.3,80.522Z" transform="translate(-116.977 -63.211)" fill="#ededed"/>
    </g>
    <g id="Grupo_55216" data-name="Grupo 55216" transform="translate(450.949 2572.16)">
      <path id="Trazado_103073" data-name="Trazado 103073" d="M93.514,205.073l7.363-10.478,4.371,3.072-1.022,1.455-2.253-1.582-2,2.852,1.595,1.121L100.516,203l-1.6-1.121-3.288,4.68Z" transform="translate(-93.514 -192.54)" fill="#ededed"/>
      <path id="Trazado_103074" data-name="Trazado 103074" d="M105.08,212.161l5.307-11.654,2.564,1.167a7.05,7.05,0,0,1,1.463.865,3.754,3.754,0,0,1,.926,1.047,2.433,2.433,0,0,1,.325,1.3,3.967,3.967,0,0,1-.395,1.552q-.165.363-.321.636a4.678,4.678,0,0,1-.415.6,2.825,2.825,0,0,1-.552.53,2.491,2.491,0,0,1-.718.342,2.953,2.953,0,0,1-.925.126q-.466,3.806-.739,6.464l-2.441-1.112,1.11-5.975-.389-.177-2.444,5.367Zm5.456-5.732.674.307a.725.725,0,0,0,.549.031,1.135,1.135,0,0,0,.491-.332,3.719,3.719,0,0,0,.356-.455,3.249,3.249,0,0,0,.237-.424,3.76,3.76,0,0,0,.165-.44,4.11,4.11,0,0,0,.119-.536,1.078,1.078,0,0,0-.045-.552.627.627,0,0,0-.34-.362l-.784-.356Z" transform="translate(-95.493 -193.552)" fill="#ededed"/>
      <path id="Trazado_103075" data-name="Trazado 103075" d="M119.824,217.759l3.263-12.384,2.5.66-3.263,12.384Z" transform="translate(-98.016 -194.385)" fill="#ededed"/>
      <path id="Trazado_103076" data-name="Trazado 103076" d="M130.623,220l1.32-12.738,5.314.55-.183,1.77-2.738-.283-.36,3.468,1.939.2-.187,1.811-1.939-.2-.406,3.921,2.739.283-.183,1.769Z" transform="translate(-99.864 -194.708)" fill="#ededed"/>
      <path id="Trazado_103077" data-name="Trazado 103077" d="M144.252,220.665l-1.063-12.77,1.858-.154,3.356,6.445-.556-6.678,2.142-.178,1.063,12.769-1.786.148-3.384-6.85.59,7.083Z" transform="translate(-102.014 -194.719)" fill="#ededed"/>
      <path id="Trazado_103078" data-name="Trazado 103078" d="M160.161,218.408,156.5,206.137l2.563-.766a8.062,8.062,0,0,1,2.088-.382,2.645,2.645,0,0,1,1.465.357,2.913,2.913,0,0,1,.991,1.029,8.124,8.124,0,0,1,.714,1.755l1.2,4.022q.2.654.3,1.154a6.769,6.769,0,0,1,.133,1,2.968,2.968,0,0,1-.07.882,2.835,2.835,0,0,1-.322.753,2.4,2.4,0,0,1-.607.665,5.248,5.248,0,0,1-.941.555,9.379,9.379,0,0,1-1.313.489Zm2.058-2.508c.236-.07.421-.13.556-.177a2.85,2.85,0,0,0,.393-.173.777.777,0,0,0,.266-.2.735.735,0,0,0,.116-.26.89.89,0,0,0,.009-.356,4.184,4.184,0,0,0-.116-.474l-1.974-6.606q-.18-.605-.6-.7a2.859,2.859,0,0,0-1.275.157Z" transform="translate(-104.291 -194.319)" fill="#ededed"/>
      <path id="Trazado_103079" data-name="Trazado 103079" d="M175.1,213.04l-5.9-11.369,2.3-1.192,5.075,9.79,2.261-1.172.819,1.579Z" transform="translate(-106.466 -193.547)" fill="#ededed"/>
      <path id="Trazado_103080" data-name="Trazado 103080" d="M187.051,205.291l-2.558-3.373-7.1-5.378,1.944-1.475,4.352,3.761q-.382-.87-1.173-2.642t-1.179-2.638l1.888-1.432,3.258,8.289,2.558,3.373Z" transform="translate(-107.867 -192.116)" fill="#ededed"/>
    </g>
    <circle id="Elipse_4139" data-name="Elipse 4139" cx="2.506" cy="2.506" r="2.506" transform="translate(448.154 2482.851)" fill="#ededed"/>
    <path id="Trazado_103081" data-name="Trazado 103081" d="M194.178,86.877a2.507,2.507,0,1,1-2.507-2.507A2.506,2.506,0,0,1,194.178,86.877Z" transform="translate(341.068 2398.48)" fill="#ededed"/>
    <path id="Trazado_103082" data-name="Trazado 103082" d="M87.973,194.593a2.506,2.506,0,1,1-2.507-2.506A2.507,2.507,0,0,1,87.973,194.593Z" transform="translate(359.241 2380.049)" fill="#ededed"/>
    <path id="Trazado_103083" data-name="Trazado 103083" d="M200.225,194.593a2.506,2.506,0,1,1-2.507-2.506A2.507,2.507,0,0,1,200.225,194.593Z" transform="translate(340.033 2380.049)" fill="#ededed"/>
  </g>
</svg>
