<svg xmlns="http://www.w3.org/2000/svg" width="295" height="246" viewBox="0 0 295 246">
  <g id="Grupo_60282" data-name="Grupo 60282" transform="translate(-1125 -1288)">
    <rect id="Rectángulo_7338" data-name="Rectángulo 7338" width="295" height="246" transform="translate(1125 1288)" fill="none"/>
    <g id="Grupo_60281" data-name="Grupo 60281" transform="translate(1 4.011)">
      <g id="Grupo_60216" data-name="Grupo 60216" transform="translate(1151.984 1287.989)" opacity="0.5">
        <path id="Trazado_120665" data-name="Trazado 120665" d="M82.262,118.732c-.653-13.186,5.213-29.405,20.372-29.927,27.479-.945,42.536,31.6,67.257,37.628,16.967,4.137,27.466-7.842,39.976-16.673,13.512-9.539,27.917-22.51,46.019-18.441,11.692,2.629,18.314,14.539,19.32,25.511,1.078,11.755-4.578,21.2-3.609,32.486,1.027,11.965,13.681,17.124,19.935,26.994,7.725,12.194,10.338,26.268,6.591,40.248-3.614,13.484-13.809,26.82-26.96,32.072-17.818,7.117-31.1-3.6-47.66-8.4-23.65-6.852-34.893,5.745-51.383,19.921-10.2,8.77-23.105,16.533-37.28,14.392-19.876-3-26.052-29.957-26.215-46.625-.1-10.626,4.67-22.94-3.162-31.1-7.493-7.8-14.811-6.733-25-7.358-8.1-.5-17.631-3.554-20.355-11.967-1.267-3.912-1.151-9.042,1.333-12.463,6.174-8.5,20.676-8.69,22.8-19.276C86.036,136.825,82.7,127.614,82.262,118.732Z" transform="translate(-59.317 -71.129)" fill="#e5dec1"/>
        <path id="Trazado_120666" data-name="Trazado 120666" d="M199.606,80.4c3.8-15.411-31.109-28.006-32.16-12.869-.56,8.076,11.318,17.954,18.512,19.292C192.58,88.053,197.932,87.2,199.606,80.4Z" transform="translate(-99.458 -60.702)" fill="#e5dec1"/>
      </g>
      <g id="Grupo_60238" data-name="Grupo 60238" transform="translate(1140 1289.464)">
        <g id="Grupo_60218" data-name="Grupo 60218" transform="translate(10.085 131.979)">
          <g id="Grupo_60217" data-name="Grupo 60217">
            <path id="Trazado_120667" data-name="Trazado 120667" d="M132.066,317.234c-2.717-6.273-3.883-13.021-7.583-18.79a21.637,21.637,0,0,0-5-5.848c-2.656-2.046-5.6-1.714-8.519-2.944-5.365-2.255-8.365-8.4-13.482-11.435a23.919,23.919,0,0,0-16.991-2.784c-5.367,1.107-9.051,1.742-14.223-.5-3.953-1.711-12.2-4.523-9.407,2.994,1.647,4.43,7.128,6.571,9.806,10.66,2.869,4.381,3.587,10.8,7.467,14.511,3.678,3.518,8.658-.377,12.612,2.889,4.1,3.387,5.345,8.028,10.437,10.812,5.5,3.006,12,3.938,18.146,4.29,4.367.249,12.783.7,17.752-1.227C132.773,318.986,132.446,318.108,132.066,317.234Z" transform="translate(-56.294 -272.972)" fill="#3b8b58"/>
          </g>
        </g>
        <path id="Trazado_120668" data-name="Trazado 120668" d="M96.661,292.3c13.232,14.042,29,23.662,46.485,26.879-.106-.264-.207-.528-.322-.791-2.717-6.273-3.883-13.021-7.583-18.79a21.635,21.635,0,0,0-5-5.848c-2.656-2.046-5.6-1.714-8.519-2.944-5.365-2.254-8.365-8.4-13.482-11.435A23.919,23.919,0,0,0,91.25,276.59a45.863,45.863,0,0,1-5.981.955A119.824,119.824,0,0,0,96.661,292.3Z" transform="translate(-56.968 -142.151)" fill="#307147"/>
        <g id="Grupo_60220" data-name="Grupo 60220" transform="translate(194.666)">
          <g id="Grupo_60219" data-name="Grupo 60219">
            <path id="Trazado_120669" data-name="Trazado 120669" d="M377.668,125.171c-4.271-.864,4.314-8.062,5.542-9.258,3.157-3.076,9.165-8.35,8.433-13.4-.725-4.992-6.061-1.337-9.026-2.115.577-3.5,5.456-6.9,7.617-9.518,1.657-2,3.3-4.168,3.845-6.812,1.143-5.546-2.48-6.586-6.66-4.11-.612-.886-.411-2.175-.3-3.281.286-2.891,2.616-12.813-2.3-13.607-2.594-.42-4.775,4.95-5.589,6.7-.912,1.962-2.1,7.168-3.9,8.379-1.948,1.313-1.98-2.02-4.109-1.774-2.3.266-2.857,5.015-3.156,6.813a35.667,35.667,0,0,0,.2,9.671c.195,1.8.968,4.195-.1,5.825-1.191-.926-2.4-2.436-3.716-3.259-3.209-2.009-3.866,1.5-4.516,4.242-1.1,4.635-.349,9.667-.33,14.4.007,1.714.711,6.068-.485,7.219-2.8-2.116-7.224-6.484-8.663-.4a31,31,0,0,0,.222,12.7A163.2,163.2,0,0,0,355.8,151.67q.6-.421,1.181-.842c3.383-2.455,7.06-4.288,10.535-6.637,4.793-3.24,10.123-7.561,13.078-12.571.744-1.261,2.82-5.3,1.964-6.692C381.394,123.034,378.964,125.434,377.668,125.171Z" transform="translate(-349.889 -63.048)" fill="#3b8b58"/>
          </g>
        </g>
        <path id="Trazado_120670" data-name="Trazado 120670" d="M385.569,161.04c-1.165-1.894-3.594.507-4.891.244a2.292,2.292,0,0,1-.476-.151c-7.195,5.8-13.917,12.207-19.222,19.754Q359.4,183.13,358,185.438c.269.808.541,1.595.815,2.344q.6-.421,1.181-.842c3.383-2.455,7.06-4.288,10.535-6.637,4.793-3.24,10.123-7.561,13.078-12.571C384.348,166.472,386.425,162.435,385.569,161.04Z" transform="translate(-158.233 -99.16)" fill="#307147"/>
        <g id="Grupo_60223" data-name="Grupo 60223" transform="translate(24.642 8.077)">
          <g id="Grupo_60222" data-name="Grupo 60222">
            <g id="Grupo_60221" data-name="Grupo 60221">
              <path id="Trazado_120671" data-name="Trazado 120671" d="M130.93,180.383c1.951-7.024,4.421-14.3,5.58-21.439.944-5.812-1.357-12.033-4.24-16.955-2.373-4.048-7.366-6.785-9.609-10.89-2.87-5.255-1.25-12.457-2.991-18.185-1.9-6.242-5.635-10.378-10.615-14.328-4.381-3.477-7.621-4.727-10.309-9.8-2.433-4.591-5.041-10.177-10.238-12.268-12.07-4.855-3.137,20.136-2.671,24.749.534,5.28-1.593,8.565-3.947,12.99-3.46,6.5-3.5,12.742,1.56,18.7,4.419,5.2,8.887,6.654,7.791,14.259-.792,5.5-1.642,11.576.025,17.093,1.934,6.4,5.563,12.4,11.268,15.712a75.612,75.612,0,0,0,7.894,3.907c2.187.942,10.77,2.365,17.684,3.389A34.932,34.932,0,0,0,130.93,180.383Z" transform="translate(-79.45 -75.895)" fill="#59a960"/>
            </g>
          </g>
        </g>
        <path id="Trazado_120672" data-name="Trazado 120672" d="M116.842,225.7c2.187.942,10.77,2.365,17.684,3.389a37.806,37.806,0,0,0,2.287-5.227A73.938,73.938,0,0,0,116.894,200.4a96.274,96.274,0,0,0-19.166-12c-.021.192-.044.386-.073.587-.792,5.5-1.642,11.576.025,17.093,1.934,6.4,5.563,12.4,11.268,15.712A75.611,75.611,0,0,0,116.842,225.7Z" transform="translate(-61.22 -109.591)" fill="#3b8b58"/>
        <g id="Grupo_60225" data-name="Grupo 60225" transform="translate(203.025 36.588)">
          <g id="Grupo_60224" data-name="Grupo 60224">
            <path id="Trazado_120673" data-name="Trazado 120673" d="M403.538,175.851a113.823,113.823,0,0,0,4.249-38.992,74.21,74.21,0,0,1,.539-15.614c-1.726,1.733-3.693,3.35-4.723,4.457-3.546,3.812-7.364,7.451-10.845,11.394-9.484,10.742-18.957,22.225-24.388,35.659-3.564,8.816-5.581,17.828-5.122,27.211a57.938,57.938,0,0,0,2.177,12.864c.387,1.384.857,3.318,1.454,5.285C385.254,209.962,397.97,195.124,403.538,175.851Z" transform="translate(-363.184 -121.245)" fill="#59a960"/>
          </g>
        </g>
        <path id="Trazado_120674" data-name="Trazado 120674" d="M370.077,197.038c-.6,1.271-1.178,2.554-1.706,3.86-3.564,8.816-5.581,17.828-5.122,27.211a57.938,57.938,0,0,0,2.177,12.864c.387,1.384.857,3.318,1.454,5.285a67.164,67.164,0,0,0,15.167-9.249A81.878,81.878,0,0,0,370.077,197.038Z" transform="translate(-160.159 -112.799)" fill="#3b8b58"/>
        <path id="Trazado_120675" data-name="Trazado 120675" d="M401.575,218.085c-11.62,2.677-21.718,8.019-31.168,15.038a77.75,77.75,0,0,0-6.765,5.64,60.1,60.1,0,0,0,1.953,10.025c.387,1.384.857,3.318,1.454,5.285A64.326,64.326,0,0,0,401.575,218.085Z" transform="translate(-160.329 -120.614)" fill="#3b8b58"/>
        <g id="Grupo_60227" data-name="Grupo 60227" transform="translate(0 77.179)">
          <g id="Grupo_60226" data-name="Grupo 60226">
            <path id="Trazado_120676" data-name="Trazado 120676" d="M91.613,204.649c-10.282-8.116-21.294-14.23-34.065-17.093-3.721-.834-10.957-.676-17.294-1.747,12.747,13.7,18.717,35.409,29.29,50.3,13.468,18.968,31.467,32.087,53.069,35.7C120.273,245.48,114.57,222.764,91.613,204.649Z" transform="translate(-40.254 -185.809)" fill="#73c078"/>
          </g>
        </g>
        <g id="Grupo_60229" data-name="Grupo 60229" transform="translate(180.531 101.309)">
          <g id="Grupo_60228" data-name="Grupo 60228">
            <path id="Trazado_120677" data-name="Trazado 120677" d="M356.952,241.091c9.8-7.281,20.3-12.766,32.469-15.335,3.547-.748,10.443-.607,16.484-1.567-12.15,12.29-17.84,31.767-27.917,45.126C365.151,286.331,348,298.1,327.4,301.341,329.636,277.722,335.072,257.343,356.952,241.091Z" transform="translate(-327.405 -224.189)" fill="#73c078"/>
          </g>
        </g>
        <path id="Trazado_120678" data-name="Trazado 120678" d="M327.4,307.306A72.955,72.955,0,0,0,359.722,293.6a82.593,82.593,0,0,0,7.6-53.345,102.273,102.273,0,0,0-10.365,6.8C335.072,263.308,329.636,283.687,327.4,307.306Z" transform="translate(-146.874 -128.845)" fill="#59a960"/>
        <g id="Grupo_60231" data-name="Grupo 60231" transform="translate(15.394 85.613)">
          <g id="Grupo_60230" data-name="Grupo 60230">
            <path id="Trazado_120679" data-name="Trazado 120679" d="M144.49,279.518c-5.091-2.439-10.4-6.715-13.948-9.72-12.656-10.713-22.788-24.046-32.586-36.939q-1.814-2.389-3.634-4.772a130.212,130.212,0,0,0-14.185-16.111c-.48-.453-.98-.931-1.5-1.426-4.065-3.882-9.125-8.713-13.9-10.79l.233-.538c4.871,2.119,9.972,6.989,14.071,10.9.517.494,1.017.971,1.5,1.423a130.806,130.806,0,0,1,14.248,16.181q1.823,2.383,3.635,4.774c9.779,12.868,19.891,26.175,32.5,36.847,3.524,2.984,8.792,7.229,13.823,9.638Z" transform="translate(-64.739 -199.224)" fill="#59a960"/>
          </g>
        </g>
        <g id="Grupo_60233" data-name="Grupo 60233" transform="translate(37.242 24.695)">
          <g id="Grupo_60232" data-name="Grupo 60232" transform="translate(0)">
            <path id="Trazado_120680" data-name="Trazado 120680" d="M134.3,191.644a49.331,49.331,0,0,0-3.875-14.71,64.725,64.725,0,0,0-12.192-18.706c-4.28-4.5-7.823-8.791-7.83-15.687,0-1.526.035-3.063.07-4.549.113-4.74.219-9.217-.78-13.8-1.747-8.022-5.855-14.577-10.2-21.516l.228-.19.248-.155-.248.155.269-.121c4.377,6.984,8.511,13.58,10.28,21.7,1.013,4.656.9,9.377.793,13.943-.036,1.482-.072,3.016-.071,4.535.008,6.679,3.479,10.873,7.669,15.282a65.3,65.3,0,0,1,12.3,18.87,49.9,49.9,0,0,1,3.922,14.881Z" transform="translate(-99.491 -102.327)" fill="#3b8b58"/>
          </g>
        </g>
        <g id="Grupo_60234" data-name="Grupo 60234" transform="translate(197.027 13.796)">
          <path id="Trazado_120681" data-name="Trazado 120681" d="M354.219,178.127l-.575-.119c.514-2.471.788-4.936,1.053-7.319a54.027,54.027,0,0,1,1.8-10.145c.556-1.8,1.07-3.434,1.7-5.18.726-2.012,1.408-4.1,2.069-6.12,1.015-3.108,2.066-6.322,3.336-9.461,1.152-2.848,2.588-5.749,3.977-8.553,1.47-2.971,2.991-6.043,4.175-9.056,1.083-2.754,1.911-5.638,2.711-8.427a71.772,71.772,0,0,1,3.843-11.061,55.3,55.3,0,0,0,3.774-12.3c.388-1.752.791-3.562,1.279-5.39l.566.151c-.485,1.816-.886,3.621-1.273,5.367a55.759,55.759,0,0,1-3.817,12.428,71.277,71.277,0,0,0-3.809,10.971c-.8,2.8-1.635,5.7-2.729,8.48-1.193,3.035-2.72,6.118-4.2,9.1-1.384,2.8-2.815,5.686-3.958,8.514-1.262,3.12-2.309,6.325-3.322,9.423-.661,2.024-1.345,4.117-2.075,6.137-.626,1.733-1.136,3.36-1.691,5.154a52.877,52.877,0,0,0-1.774,10.036C355.013,173.15,354.737,175.629,354.219,178.127Z" transform="translate(-353.644 -84.991)" fill="#307147"/>
        </g>
        <g id="Grupo_60235" data-name="Grupo 60235" transform="translate(197.663 57.562)">
          <path id="Trazado_120682" data-name="Trazado 120682" d="M355.03,238.184l-.374-.451c1.782-1.476,2.826-3.635,3.836-5.724a24.366,24.366,0,0,1,2.468-4.328c.519-.674,1.024-1.272,1.512-1.85a21.709,21.709,0,0,0,3.06-4.329,56.021,56.021,0,0,0,4.17-11.847c.328-1.285.646-2.59.966-3.9a92.074,92.074,0,0,1,4.519-14.89l.823-1.887c2.756-6.333,5.6-12.882,9.864-18.31a77.213,77.213,0,0,0,9.732-16.061l.529.251a77.714,77.714,0,0,1-9.8,16.172c-4.212,5.368-7.046,11.882-9.786,18.181l-.824,1.889a91.65,91.65,0,0,0-4.488,14.794c-.32,1.313-.638,2.62-.968,3.907a56.564,56.564,0,0,1-4.215,11.97,22.177,22.177,0,0,1-3.134,4.44c-.484.572-.984,1.164-1.5,1.828a24.018,24.018,0,0,0-2.4,4.225C357.983,234.409,356.91,236.628,355.03,238.184Z" transform="translate(-354.656 -154.606)" fill="#3b8b58"/>
        </g>
        <g id="Grupo_60236" data-name="Grupo 60236" transform="translate(171.128 117.267)">
          <path id="Trazado_120683" data-name="Trazado 120683" d="M312.755,322.7l-.306-.5a6.51,6.51,0,0,0,2.211-2.458,15.82,15.82,0,0,1,.932-1.388c3.083-4,6.061-8.088,8.941-12.04,4.338-5.955,8.825-12.112,13.719-18.035a59.975,59.975,0,0,1,9.032-8.328,58.136,58.136,0,0,0,8.853-8.169l1.377-1.681c5.875-7.177,11.424-13.956,17.785-20.53l.421.407c-6.344,6.557-11.885,13.326-17.753,20.494l-1.377,1.682a58.567,58.567,0,0,1-8.939,8.254,59.566,59.566,0,0,0-8.948,8.245c-4.882,5.91-9.364,12.06-13.7,18.008-2.883,3.956-5.863,8.046-8.95,12.053a15.3,15.3,0,0,0-.9,1.339A7.064,7.064,0,0,1,312.755,322.7Z" transform="translate(-312.449 -249.572)" fill="#59a960"/>
        </g>
        <g id="Grupo_60237" data-name="Grupo 60237" transform="translate(24.643 139.679)">
          <path id="Trazado_120684" data-name="Trazado 120684" d="M156.726,330.43c-.841-.8-1.643-1.582-2.416-2.332-6.305-6.118-10.86-10.539-20.206-12.334-1.109-.214-2.29-.39-3.431-.562a40.13,40.13,0,0,1-7.446-1.6c-3.077-1.1-5.364-3.3-7.577-5.424-2.071-1.991-4.027-3.871-6.593-4.958a38.217,38.217,0,0,0-5.243-1.7c-3.506-.942-6.533-1.756-9.915-5.57-.655-.739-1.349-1.655-2.084-2.625-3.088-4.076-6.928-9.15-12.138-6.99l-.224-.541c5.627-2.334,9.621,2.94,12.83,7.177.728.961,1.415,1.868,2.055,2.59,3.265,3.683,6.214,4.476,9.628,5.394a38.548,38.548,0,0,1,5.32,1.729,23.2,23.2,0,0,1,6.772,5.075c2.168,2.084,4.41,4.238,7.368,5.3a39.707,39.707,0,0,0,7.335,1.569c1.148.173,2.334.351,3.455.566,9.518,1.829,14.126,6.3,20.5,12.49.773.749,1.573,1.526,2.413,2.329Z" transform="translate(-79.451 -285.22)" fill="#307147"/>
        </g>
      </g>
      <g id="Grupo_60246" data-name="Grupo 60246" transform="translate(1168.698 1310.473)">
        <g id="Grupo_60245" data-name="Grupo 60245" transform="translate(0 0)">
          <g id="Grupo_60241" data-name="Grupo 60241" transform="translate(11.494)">
            <circle id="Elipse_4773" data-name="Elipse 4773" cx="82.338" cy="82.338" r="82.338" transform="translate(0 163.343) rotate(-82.705)" fill="#4d7abb"/>
            <g id="Grupo_60240" data-name="Grupo 60240" transform="translate(9.789 10.496)">
              <g id="Grupo_60239" data-name="Grupo 60239">
                <path id="Trazado_120685" data-name="Trazado 120685" d="M205.77,124.534c-.65,1.366-2.573.9-3.112,1.987-.88,1.794.094,3.47.416,5.175.722,3.851,1.817,5.387-2.092,7.678-3.711,2.174-4.783.65-4.606,5.855.058,1.8,1.723,1.887.662,3.851-.334.615-2.942.9-3.651,1.9-2.092,2.978,1.132,6.875.323,10.134-.961,3.856-3.746,3.241-6.283,5.228-4.888,3.822-3.423,13.235-9.172,16.019-2.275,1.1-7.807-.153-9.4-1.946-2.432-2.743-.674-5.943.534-8.64,1.594-3.569,1.957-4.307.094-7.771-.68-1.261-1.741-1.647-2.239-3.318-.527-1.775.48-3.8-.311-5.556-.633-1.4-2.45-1.5-3-2.638-.8-1.659-.194-3.469-.949-5.035-.358-.738-1.548-2.912-2.538-3.1-2.86-.533-1.149,1.623-2.145,3.1-4.167,6.172-8.469-.639-14.518,1.594a30.227,30.227,0,0,0-4.366,2.315,82.354,82.354,0,0,1,59.114-38.208C201.679,116.686,208.555,118.685,205.77,124.534Z" transform="translate(-127.058 -113.158)" fill="#79c0c4"/>
                <path id="Trazado_120686" data-name="Trazado 120686" d="M253.6,267.9c-3.465-9.1-8.794-1.467-14.413-6.022-1.6-1.3-1.391-3.788-3.715-4.539-2.5-.809-5.814,1.368-8.751,1.081-7.431-.728-10.719,2.86-12.8,10.439-1.062,3.873-1.576,5.645,1.613,8.331,1.255,1.059,3.275,1.35,4.369,2.55,1.3,1.428,1,3.442,2.031,4.818,1.649,2.207,4.94,2.538,6.929,5,.885,1.093.822,2.9,1.912,4.06,1.166,1.239,3.092,1.068,4.488,2.443,3.629,3.579,4.238,8.689,4.057,13.238-.246,6.166,3.753,8.154,9.832,7.605,1.362-4.8,3.445-2.468,6.923-4.193,2.9-1.44,4.492-5.607,5.1-8.533.753-3.639.286-4.117,2.988-7.346,2.123-2.542,4.039-5.047,4.266-8.438.351-5.276-1.735-4.525-4.692-6.806-2.046-1.577-3.612-3.966-5.549-5.567-1.638-1.355-2.017-.943-3.08-2.986C254.348,271.583,254.214,269.522,253.6,267.9Z" transform="translate(-154.415 -166.626)" fill="#79c0c4"/>
                <path id="Trazado_120687" data-name="Trazado 120687" d="M325.605,204.69a82.134,82.134,0,0,1-7.156,33.63c-1.12-.011-2.122-.029-2.843,0a9.99,9.99,0,0,1-8.985-4.243c-1.037-1.612-.229-3.54-2.133-5.058-1.266-1-3.189-.457-4.666-.938-5.111-1.676-2.667-3.464-3.417-7.256-.639-3.206-4.941-5.011-8.106-3.932-2.9.99-3.54,4.987-6.828,4.811-3.828-.2-4.331-4.671-5.116-7.273-1.361-4.5-.915-5.093-5.228-3.523a36.813,36.813,0,0,0-3.722,1.806c-1.09,1.348.053,3.387-.856,4.712-2.016,2.942-5.433-1.278-6.312-3.875-.545-1.594-.006-3.481-.516-5.105-.44-1.412-2.063-1.969-2.48-3.4-1.577-5.409,2.55-4.313,4.923-6.921,4.038-4.437-1.582-4.326-4.6-2.573-1.623.949-1.969,2.21-3.833,2.667-1.582.387-3.405-.622-5.128-.434-1.7.182-2.321,1.354-4.256,1.289-2.525-.082-1.881-1.1-3.721-1.811-4.056-1.577-5.89.709-9.864.041-.856-3.475,2.989-5.984,5.573-7.086,1.718-.732,3.405-.627,4.917-1.494,1.612-.926,1.818-2.509,3.951-3.206,3.447-1.131,7.063-1.348,10.24-3.082,2.5-1.366,4.782-5.428-.352-6.049.926-6-6.394-1.506-8.592-1.611-6.629-.323-1.4-5.087,1.67-6.951,1.706-1.044,3.575-1.916,5.234-2.784a27.017,27.017,0,0,0,4.49-3.189c5.837-4.354,3.494,1.671,8.575,1.87-.715,6.3,3.406,4.313,6.482,1.647.768-.668,1.208-2.479,2.2-2.9,1.055-.445,1.723.774,2.133.686a42.543,42.543,0,0,1,5.4-.832c-.269-2.051-1.916-5.65-.709-7.543.509-.809,2.9-.516,3.751-1.348,1.589-1.553,1.313-1.911,1.705-3.845.7-3.417-.551-4.2,2.122-6.722a23.245,23.245,0,0,1,4.413-3.036A82.181,82.181,0,0,1,325.605,204.69Z" transform="translate(-160.929 -123.058)" fill="#79c0c4"/>
                <path id="Trazado_120688" data-name="Trazado 120688" d="M171.588,273.532c.439,6.792-3.469,3.088-7.718,4.865a17.165,17.165,0,0,1-.574,5.4c-4.584,2.262-4.068,6.037-3.593,10.064a82.422,82.422,0,0,1-15.3-11.863c-.076-.8-.158-1.612-.263-2.414-.087-.674,1.172-.868.82-2.029-.118-.38-1.454-1.013-1.746-1.706-.78-1.858-1.477-2.109-1.613-4.36-.2-3.423,2.614-6.248,3.019-9.378.211-1.665-.98-2.954-.874-4.694.094-1.507.991-2.626,1.213-4.191-2.69-.979-4.8-1.541-6.675-3.423-2.087,1.94-6.881-.926-9.067-1.348-3.312-.627-6.09-1.032-6.875-5.474-.082-.047-.164-.088-.241-.123v-.006a82.937,82.937,0,0,1,1.542-44.667c3.545.446,2.449-.1,4.29-2.227,1.278-1.477,8.357-10.538,9.483-3.464,2.866-.135,8.487.323,7.191,4.765-.8,2.714-5.925,2.456-7.806,5.556-2.133,3.517-.345,4.747,2.251,7.244,3.839,3.692,3.8,3.756,5.45-.756.687-1.881-1.288-2.192,1.378-3.083,1.787-.6,2.977.276,4.161,1.366,1.635,1.512.967,3.1,3.112,4.5,1.406.92,3.112.492,4.672.944,2.584.75,8.738,4.425,6.311,8.041-2.022,3.006-7.7-1.348-9.33.481-.111.035-.223.064-.329.094.241,3.528,4.959,3.7,4.56,7.127-3,.152-7.7-.979-9.652,1.337-1.641,1.946-.123,8.551-1.459,9.735-2.145,1.9-6.588-.634-8.558-1.518-1.43-.645-2.362-1.863-4.155-1.817a30.6,30.6,0,0,0-3.968,2.016c-1.154,2.878,3.218,6.283,5.768,6.845,2.831.622,4.906-1.957,8.347-.228,3.182,1.6,2.69,4.314,6.921,5.029,2.451.41,7.913-.709,9.812.938,1.928,1.67.615,3.639,2.028,5.573,1.108,1.512,3.341,1.56,4.823,2,3.629,1.066,7.045,1.963,7.151,6.775C169.818,266.487,171.266,268.485,171.588,273.532Z" transform="translate(-119.754 -141.624)" fill="#79c0c4"/>
              </g>
            </g>
            <path id="Trazado_120689" data-name="Trazado 120689" d="M264.85,152.431A82.348,82.348,0,0,1,128.6,239.175,82.347,82.347,0,1,0,264.85,152.431Z" transform="translate(-113.25 -117.244)" fill="#0bf" opacity="0.5" style="mix-blend-mode: multiply;isolation: isolate"/>
          </g>
          <g id="Grupo_60242" data-name="Grupo 60242" transform="translate(139.776 46.508)">
            <path id="Trazado_120690" data-name="Trazado 120690" d="M370.178,186.349c-3.22-17.52-15.7-9.648-15.7-9.648-17.507-16.5-20.527,4.83-20.527,4.83-8.05-3.019-10.263,4.83-10.263,4.83-11.111-2.69-14.54,3.116-15.464,8.452h74.257C380.414,182.05,370.178,186.349,370.178,186.349Z" transform="translate(-308.228 -170.439)" fill="#fff"/>
          </g>
          <g id="Grupo_60243" data-name="Grupo 60243" transform="translate(0 64.99)">
            <path id="Trazado_120691" data-name="Trazado 120691" d="M124.841,209.836c-2.024-11.012-9.867-6.064-9.867-6.064-11-10.372-12.9,3.036-12.9,3.036a4.635,4.635,0,0,0-6.451,3.035c-6.984-1.691-9.139,1.959-9.72,5.313h46.675C131.275,207.134,124.841,209.836,124.841,209.836Z" transform="translate(-85.901 -199.836)" fill="#fff"/>
          </g>
          <g id="Grupo_60244" data-name="Grupo 60244" transform="translate(16.682 15.208)">
            <path id="Trazado_120692" data-name="Trazado 120692" d="M162.008,133.384c-2.576-14.019-12.56-7.721-12.56-7.721-14.01-13.2-16.426,3.865-16.426,3.865-6.442-2.415-8.213,3.865-8.213,3.865-8.89-2.152-11.635,2.494-12.374,6.764h59.42C170.2,129.944,162.008,133.384,162.008,133.384Z" transform="translate(-112.435 -120.653)" fill="#fff"/>
          </g>
        </g>
        <path id="Trazado_120693" data-name="Trazado 120693" d="M180.8,181.995c-11.293,14.479-26.315,21.642-33.552,16s-3.949-21.959,7.344-36.439,26.316-21.64,33.553-16S192.089,167.515,180.8,181.995Z" transform="translate(-107.251 -113.976)" fill="#fff" opacity="0.3"/>
      </g>
      <path id="Trazado_120694" data-name="Trazado 120694" d="M434.14,383.51c0,2.361-9.705,4.275-21.678,4.275s-21.677-1.914-21.677-4.275,9.706-4.276,21.677-4.276S434.14,381.148,434.14,383.51Z" transform="translate(969.592 1109.016)" fill="#e8e8e8"/>
      <g id="Grupo_60250" data-name="Grupo 60250" transform="translate(1330.524 1411.043)">
        <g id="Grupo_60247" data-name="Grupo 60247" transform="translate(29.853 44.607)">
          <path id="Trazado_120695" data-name="Trazado 120695" d="M397.6,343.594l4.9-11.093-6.349-5.119L390.93,341.7s-1.271,2.735,3.711,6.252l9.835,9.566,3.058-1.463S400.892,346.818,397.6,343.594Z" transform="translate(-390.785 -327.382)" fill="#0a3c5f"/>
          <path id="Trazado_120696" data-name="Trazado 120696" d="M408.55,374.452l.81,1-7.39,4.228-.214.912,12.983-1.825-1.856-4.315-1.275-1.463Z" transform="translate(-394.859 -344.316)" fill="#fdb18d"/>
          <path id="Trazado_120697" data-name="Trazado 120697" d="M413.022,375.1l.521.643,3.523-1-.844-.969Z" transform="translate(-399.042 -344.608)" fill="#fff"/>
          <path id="Trazado_120698" data-name="Trazado 120698" d="M401.97,380.544l-.214.912,12.983-1.825-1.856-4.315-3.523,1Z" transform="translate(-394.859 -345.18)" fill="#0d134f"/>
          <path id="Trazado_120699" data-name="Trazado 120699" d="M414.739,381.552l-.458-1.065-12.31,1.977-.214.912Z" transform="translate(-394.859 -347.1)" fill="#62c1c5"/>
        </g>
        <path id="Trazado_120700" data-name="Trazado 120700" d="M399.086,328.382l3.771,10.384,2.73-6.178-6.164-4.971Z" transform="translate(-364.014 -282.862)" fill="#0d134f"/>
        <path id="Trazado_120701" data-name="Trazado 120701" d="M350.539,267.554a5.8,5.8,0,0,1,0-2.774s-.534-4.267.6-2.844v-.89s-.925-1.564-.373-2.418l.373.391a1.768,1.768,0,0,1,0-1.209,7.755,7.755,0,0,1,.676,1.351l.249,1.636.107,1.885a29.425,29.425,0,0,0,.5,3.983s6.508,3.7,8.392,4.161l.356,3.13Z" transform="translate(-345.936 -256.942)" fill="#f09474"/>
        <path id="Trazado_120702" data-name="Trazado 120702" d="M362.192,279.185l-.356-3.13c-1.885-.463-8.392-4.161-8.392-4.161l-.976,1.57Z" transform="translate(-346.705 -262.172)" fill="#fff"/>
        <path id="Trazado_120703" data-name="Trazado 120703" d="M353.844,274.2l9.085,5.35-.183-3.1c-1.509-.369-6.374-2.976-8.1-3.936Z" transform="translate(-347.216 -262.402)" fill="#f8a510"/>
        <g id="Grupo_60249" data-name="Grupo 60249" transform="translate(15.253 9.115)">
          <path id="Trazado_120704" data-name="Trazado 120704" d="M378.061,285.984a8.191,8.191,0,0,1,3.715,1.1l1.772-1.99-2.363-2.432-2.936.86Z" transform="translate(-371.46 -275.285)" fill="#f09474"/>
          <path id="Trazado_120705" data-name="Trazado 120705" d="M383.382,284.461l-.591-.744L380.3,286.33l.513.83,2.377-1.395Z" transform="translate(-372.292 -275.677)" fill="#fff"/>
          <g id="Grupo_60248" data-name="Grupo 60248">
            <path id="Trazado_120706" data-name="Trazado 120706" d="M377.893,276.567s-1.08-7.468-7.211-5.216c0,0-5.873,1.628-1.506,10.566l1.079-.533s1.453,2.353,2.694,1.675l4.61-4.466Z" transform="translate(-367.562 -270.928)" fill="#fdb18d"/>
            <path id="Trazado_120707" data-name="Trazado 120707" d="M375.9,276.076l-3.165-2.581-4.8,1.476c-.527,1.358-.61,3.361.533,6.291Z" transform="translate(-367.563 -271.881)" fill="#f09474"/>
            <path id="Trazado_120708" data-name="Trazado 120708" d="M377.894,276.567s-1.08-7.468-7.21-5.216c0,0-4,1.11-2.94,6.531,0,0,.67.434,2.742-.429a3.325,3.325,0,0,1,2.043,1.825l.739-.447s-.941-2.283.013-3.018l1.234.265s.812,1.926,2.237,1.989l.935-.245Z" transform="translate(-367.562 -270.928)" fill="#0a3c5f"/>
            <path id="Trazado_120709" data-name="Trazado 120709" d="M372.554,279.615l.739-.447s-.941-2.283.013-3.018l1.234.265s.812,1.926,2.237,1.989l.935-.245.207-1.255s-.53-3.641-2.938-5.07a10.117,10.117,0,0,1-7.349,5.462c.03.293.072.6.136.924,0,0,.67.434,2.742-.429A3.325,3.325,0,0,1,372.554,279.615Z" transform="translate(-367.588 -271.264)" fill="#0d134f"/>
            <path id="Trazado_120710" data-name="Trazado 120710" d="M377.559,278.795c.345.844.2,1.7-.332,1.918s-1.235-.292-1.58-1.135-.2-1.7.331-1.919S377.213,277.95,377.559,278.795Z" transform="translate(-370.494 -273.409)" fill="#fdb18d"/>
          </g>
        </g>
        <path id="Trazado_120711" data-name="Trazado 120711" d="M377.009,291.061,403.486,332l14.652,11.234,3.223-1.954L409.25,329.164l-10.064-23.542-13.429-18.657-3.6-2.065Z" transform="translate(-355.817 -267.001)" fill="#0a3c5f"/>
        <path id="Trazado_120712" data-name="Trazado 120712" d="M382.16,284.9l-5.151,6.161,13.88,21.459h0a14.73,14.73,0,0,0,8.3-6.9l-13.429-18.657Z" transform="translate(-355.817 -267.001)" fill="#fdd247"/>
        <path id="Trazado_120713" data-name="Trazado 120713" d="M381.576,294.4a4.7,4.7,0,0,0-2.611-3.425l-1.956,2.34,1.137,1.76A8.808,8.808,0,0,0,381.576,294.4Z" transform="translate(-355.817 -269.258)" fill="#f8a510"/>
        <path id="Trazado_120714" data-name="Trazado 120714" d="M345.989,265.7s10.455,4.119,11.3,6.442c0,0,6.865,2.957,10.667,2.957,0,0,4.118.422,2.746,5.28,0,0-1.056,3.169-7.393-.527l-8.66-4.648s-8.449-6.124-10.455-8.659c0,0-1.481-1.349-.627-5.082,0,0,0-3.734.64-3.272,0,0-.284-1.757.463-1.757a17.481,17.481,0,0,1,.96,2.148l.07,1.387a7.673,7.673,0,0,1,.463,2.027A21.914,21.914,0,0,1,345.989,265.7Z" transform="translate(-343.301 -256.43)" fill="#fdb18d"/>
        <path id="Trazado_120715" data-name="Trazado 120715" d="M371.6,285.847c1.372-4.858-2.745-5.28-2.745-5.28-3.8,0-10.667-2.957-10.667-2.957-.845-2.323-11.3-6.442-11.3-6.442l-1.162,1.552c2.729,2.81,9.823,7.953,9.823,7.953l8.66,4.648C370.546,289.017,371.6,285.847,371.6,285.847Z" transform="translate(-344.202 -261.902)" fill="#fff"/>
        <path id="Trazado_120716" data-name="Trazado 120716" d="M346.822,273.547c3.072,2.884,9.134,7.28,9.134,7.28l8.66,4.648c6.337,3.7,7.393.527,7.393.527,1.372-4.858-2.746-5.28-2.746-5.28-3.8,0-10.667-2.957-10.667-2.957-.718-1.974-8.372-5.244-10.656-6.181Z" transform="translate(-344.608 -262.056)" fill="#fdd247"/>
        <path id="Trazado_120717" data-name="Trazado 120717" d="M438.565,376.527l.873.847-7.287,3.913-.13.847,12.549-.847.64-3.292-3.421-3.422Z" transform="translate(-376.243 -300.297)" fill="#fdb18d"/>
        <path id="Trazado_120718" data-name="Trazado 120718" d="M442.975,377.072l.53.515,4.3-.847-1.593-1.593Z" transform="translate(-380.31 -300.51)" fill="#fff"/>
        <path id="Trazado_120719" data-name="Trazado 120719" d="M443.742,377.681l-4.3.847-7.287,3.913-.13.847,12.549-.847.64-3.292Z" transform="translate(-376.243 -301.451)" fill="#0d134f"/>
        <path id="Trazado_120720" data-name="Trazado 120720" d="M444.569,384.625l.206-1.06h0l-12.624,1.061-.13.847Z" transform="translate(-376.243 -303.635)" fill="#62c1c5"/>
      </g>
      <g id="Grupo_60259" data-name="Grupo 60259" transform="translate(1219.913 1390.583)">
        <path id="Trazado_120721" data-name="Trazado 120721" d="M234.945,416.6c0,2.361-15.128,4.275-33.792,4.275s-33.79-1.914-33.79-4.275,15.129-4.275,33.79-4.275S234.945,414.236,234.945,416.6Z" transform="translate(-167.363 -293.854)" fill="#e8e8e8"/>
        <g id="Grupo_60258" data-name="Grupo 60258" transform="translate(7.451)">
          <rect id="Rectángulo_7326" data-name="Rectángulo 7326" width="32.518" height="1.724" transform="translate(8.419 101.08)" fill="#f8a510"/>
          <path id="Trazado_120722" data-name="Trazado 120722" d="M241.925,384.664h-2.581l.8,1.724h2.331v-.539Z" transform="translate(-201.541 -283.584)" fill="#0d134f"/>
          <rect id="Rectángulo_7327" data-name="Rectángulo 7327" width="16.008" height="1.724" transform="translate(10.556 69.634)" fill="#0d134f"/>
          <g id="Grupo_60252" data-name="Grupo 60252" transform="translate(1.663 55.534)">
            <path id="Trazado_120723" data-name="Trazado 120723" d="M201.336,313.686l-.815,3.152-16.235,62.59H181.86l17.1-65.924.1-.4a1.18,1.18,0,0,1,1.43-.845,1.2,1.2,0,0,1,.733.569c.029.058.058.124.082.187A1.2,1.2,0,0,1,201.336,313.686Z" transform="translate(-181.86 -312.219)" fill="#fdd247"/>
          </g>
          <path id="Trazado_120724" data-name="Trazado 120724" d="M209.962,313.059c-.023-.064-.053-.129-.081-.187l-.245-.524a1.173,1.173,0,0,0-.72.8l-.1.4-.428,1.647.789,1.687.769,1.652.429-1.652.491-1.9Z" transform="translate(-190.045 -256.733)" fill="#f8a510"/>
          <rect id="Rectángulo_7328" data-name="Rectángulo 7328" width="10.388" height="1.152" transform="translate(24.24 74.741)" fill="#0d134f"/>
          <rect id="Rectángulo_7329" data-name="Rectángulo 7329" width="10.388" height="1.152" transform="translate(27.653 82.25)" fill="#0d134f"/>
          <rect id="Rectángulo_7330" data-name="Rectángulo 7330" width="10.388" height="1.152" transform="translate(31.067 89.76)" fill="#0d134f"/>
          <rect id="Rectángulo_7331" data-name="Rectángulo 7331" width="10.388" height="1.152" transform="translate(34.481 97.269)" fill="#0d134f"/>
          <rect id="Rectángulo_7332" data-name="Rectángulo 7332" width="10.389" height="1.153" transform="translate(37.894 104.778)" fill="#0d134f"/>
          <rect id="Rectángulo_7333" data-name="Rectángulo 7333" width="10.389" height="1.153" transform="translate(41.307 112.288)" fill="#0d134f"/>
          <path id="Trazado_120725" data-name="Trazado 120725" d="M236.033,245.978c.1-.636-.477-2.373-1.385-2.031-.265.1-.312.344-.307.6a2.536,2.536,0,0,0,.707,1.651C235.44,246.542,235.948,246.547,236.033,245.978Z" transform="translate(-199.683 -231.319)" fill="#f09474"/>
          <path id="Trazado_120726" data-name="Trazado 120726" d="M246.309,245.978c-.1-.636.477-2.373,1.386-2.031.265.1.312.344.308.6a2.542,2.542,0,0,1-.707,1.651C246.9,246.542,246.395,246.547,246.309,245.978Z" transform="translate(-204.123 -231.319)" fill="#f09474"/>
          <path id="Trazado_120727" data-name="Trazado 120727" d="M243.581,238.64a4.6,4.6,0,1,0-8.509,2.4h0a11.759,11.759,0,0,1,1.406,4.567h4.637a33.762,33.762,0,0,1,1.791-4.567h0A4.573,4.573,0,0,0,243.581,238.64Z" transform="translate(-199.702 -227.658)" fill="#fdb18d"/>
          <path id="Trazado_120728" data-name="Trazado 120728" d="M274.858,253.719s.379-1.774.566-2.294A5.5,5.5,0,0,1,277.2,249.7l.465,1.662S276.162,253.873,274.858,253.719Z" transform="translate(-214.728 -233.472)" fill="#fdb18d"/>
          <g id="Grupo_60254" data-name="Grupo 60254" transform="translate(62.181 2.124)">
            <g id="Grupo_60253" data-name="Grupo 60253">
              <path id="Trazado_120729" data-name="Trazado 120729" d="M278.706,247.622h-.586V236.77l10.17-6.1v-2.823h-9.877v-.586h10.463v3.741l-10.17,6.1Z" transform="translate(-278.119 -227.266)" fill="#fdd247"/>
            </g>
          </g>
          <g id="Grupo_60255" data-name="Grupo 60255" transform="translate(61.595 13.863)">
            <path id="Trazado_120730" data-name="Trazado 120730" d="M278.066,254.556a.879.879,0,0,1-.879-.88v-6.86a.879.879,0,1,1,1.758,0v6.86A.879.879,0,0,1,278.066,254.556Z" transform="translate(-277.187 -245.938)" fill="#f8a510"/>
          </g>
          <path id="Trazado_120731" data-name="Trazado 120731" d="M218.838,271.065a6.882,6.882,0,0,0,5.5,3.771S223.944,268.808,218.838,271.065Z" transform="translate(-193.927 -241.217)" fill="#0a3c5f"/>
          <path id="Trazado_120732" data-name="Trazado 120732" d="M246.447,289.907s-1.856,37.773-2.54,44.461H240.1l-4-45.078S241.759,285.023,246.447,289.907Z" transform="translate(-200.335 -247.531)" fill="#0a3c5f"/>
          <path id="Trazado_120733" data-name="Trazado 120733" d="M237.066,301.085l.622,7.071a26.848,26.848,0,0,0,6.069-7.553Z" transform="translate(-200.695 -252.372)" fill="#0d134f"/>
          <path id="Trazado_120734" data-name="Trazado 120734" d="M229.1,252l4.3-1.465s4.675-.787,6.838,0l5.861,2.833a43.741,43.741,0,0,0,1.269,8.108l-3.81,14.554-13.089-.78-2.149-15.142Z" transform="translate(-197.449 -233.651)" fill="#fdd247"/>
          <path id="Trazado_120735" data-name="Trazado 120735" d="M231.262,263.035l-2.872,1.159-.066.684,1.244,8.764C231.988,268.925,231.262,263.035,231.262,263.035Z" transform="translate(-197.449 -238.423)" fill="#f8a510"/>
          <path id="Trazado_120736" data-name="Trazado 120736" d="M237.446,290.83s1.2,8.507-17.068,11.372l3.282,18.07h-3.855l-7.953-21.56,12.417-6.107.087-2.555Z" transform="translate(-191.333 -248.454)" fill="#0a3c5f"/>
          <path id="Trazado_120737" data-name="Trazado 120737" d="M220.609,338.121,214.017,340v1.046h10.671l-.224-2.922Z" transform="translate(-192.137 -266.303)" fill="#0d134f"/>
          <path id="Trazado_120738" data-name="Trazado 120738" d="M224.688,342.152l-.08-1.046H214.017v1.046Z" transform="translate(-192.137 -267.411)" fill="#fff"/>
          <path id="Trazado_120739" data-name="Trazado 120739" d="M238.544,362.01l-6.64,1.878v1.045h10.672l-.225-2.922Z" transform="translate(-198.779 -275.173)" fill="#0d134f"/>
          <path id="Trazado_120740" data-name="Trazado 120740" d="M242.576,366.041,242.5,365H231.9v1.045Z" transform="translate(-198.779 -276.281)" fill="#fff"/>
          <path id="Trazado_120741" data-name="Trazado 120741" d="M218.165,253.07s2.471,2.5.9,8.658L214.8,271.2l-8.4,12.414h-7.535a8.245,8.245,0,0,1,6.461-2.641S215.1,255.28,218.165,253.07Z" transform="translate(-186.51 -234.723)" fill="#fdb18d"/>
          <path id="Trazado_120742" data-name="Trazado 120742" d="M218.838,264.571a5.4,5.4,0,0,1,5.5,3.771s6.921-11.021,1.243-15.272C225.583,253.07,222.6,253.925,218.838,264.571Z" transform="translate(-193.927 -234.723)" fill="#fdd247"/>
          <path id="Trazado_120743" data-name="Trazado 120743" d="M263.2,255.515l3.415.564,3.643-2.509a11.192,11.192,0,0,1,3.222-4.271s1.7.952.707,4.347l-2.48,1.526-4.078,4.883s-5.192.191-5.155.3S263.2,255.515,263.2,255.515Z" transform="translate(-210.131 -233.323)" fill="#fdb18d"/>
          <path id="Trazado_120744" data-name="Trazado 120744" d="M256.086,255.246l5.372,2.344s1.557,3.739-.3,5.692l-3.8.071S253.546,259.153,256.086,255.246Z" transform="translate(-207.433 -235.531)" fill="#fdd247"/>
          <path id="Trazado_120745" data-name="Trazado 120745" d="M246.841,278.251c-4.615,4.537-12.555,5.565-15.467,5.791l.231,1.627,13.089.78Z" transform="translate(-198.582 -244.073)" fill="#f8a510"/>
          <path id="Trazado_120746" data-name="Trazado 120746" d="M263.256,264.85a14.609,14.609,0,0,1-4.112-.724c-.217.8-.524,2.525-.524,2.525l3.8-.071A3.305,3.305,0,0,0,263.256,264.85Z" transform="translate(-208.699 -238.828)" fill="#f8a510"/>
          <path id="Trazado_120747" data-name="Trazado 120747" d="M281.795,227.392a1.2,1.2,0,0,1-1.2,1.2H267.318a1.2,1.2,0,0,1-1.2-1.2v-2.175a1.756,1.756,0,0,1,.758-1.33h13.277c1.1.131,1.642.668,1.642,1.33Z" transform="translate(-211.483 -223.887)" fill="#e9f9f9"/>
          <path id="Trazado_120748" data-name="Trazado 120748" d="M280.595,228.056H267.318a1.2,1.2,0,0,1-1.2-1.2v1.638a1.2,1.2,0,0,0,1.2,1.2h13.277a1.2,1.2,0,0,0,1.2-1.2v-1.638A1.2,1.2,0,0,1,280.595,228.056Z" transform="translate(-211.483 -224.989)" fill="#adcccc"/>
          <path id="Trazado_120749" data-name="Trazado 120749" d="M242.9,241.038a4.6,4.6,0,1,0-7.828,0h0s.134.219.319.612a10.794,10.794,0,0,1,1.365,1.584h4.374c.426-.372,1.446-1.533,1.447-1.534.109-.237.219-.461.329-.663Z" transform="translate(-199.702 -227.658)" fill="#0a3c5f"/>
          <path id="Trazado_120750" data-name="Trazado 120750" d="M242.587,236.8a16.11,16.11,0,0,1-.4,1.646,4.353,4.353,0,0,1-1.361,1.628,5.7,5.7,0,0,1-3.848.874,5.075,5.075,0,0,1-2.559-1.088,4.566,4.566,0,0,0,.667,2.2h0s.134.219.319.612a10.792,10.792,0,0,1,1.365,1.584h4.374c.426-.372,1.446-1.533,1.447-1.534.109-.237.219-.461.329-.663h0a4.575,4.575,0,0,0-.322-5.26Z" transform="translate(-199.711 -228.683)" fill="#0d134f"/>
          <g id="Grupo_60256" data-name="Grupo 60256" transform="translate(9.98 50.834)">
            <path id="Trazado_120751" data-name="Trazado 120751" d="M237.188,376.653H234.6l-29.17-62.59-1.559-3.334-1.694-3.64h-5.92a1.172,1.172,0,0,1,0-2.344h6.664a1.161,1.161,0,0,1,1.061.68l2.157,4.625c.029.058.058.124.082.187Z" transform="translate(-195.089 -304.744)" fill="#fdd247"/>
          </g>
          <g id="Grupo_60257" data-name="Grupo 60257" transform="translate(7.879 48.893)">
            <path id="Trazado_120752" data-name="Trazado 120752" d="M194.18,301.655l-2.432,2.433v1.855h11.778l-2-4.287Z" transform="translate(-191.747 -301.655)" fill="#0a3c5f"/>
          </g>
          <path id="Trazado_120753" data-name="Trazado 120753" d="M203.525,307.379l-.864-1.855H191.747v1.855Z" transform="translate(-183.868 -254.199)" fill="#0d134f"/>
          <path id="Trazado_120754" data-name="Trazado 120754" d="M208.951,308.475H206.37l.863,1.855h2.584Z" transform="translate(-189.298 -255.295)" fill="#f8a510"/>
          <rect id="Rectángulo_7334" data-name="Rectángulo 7334" width="5.953" height="1.152" transform="translate(0 121.591)" fill="#0a3c5f"/>
          <rect id="Rectángulo_7335" data-name="Rectángulo 7335" width="5.952" height="1.152" transform="translate(47.524 121.591)" fill="#0a3c5f"/>
          <path id="Trazado_120755" data-name="Trazado 120755" d="M258.893,415.62l-1.317-2.825h-2.584l1.316,2.825Z" transform="translate(-207.351 -294.029)" fill="#62c1c5"/>
          <path id="Trazado_120756" data-name="Trazado 120756" d="M184.762,415.62l.732-2.825h-2.426l-.733,2.825Z" transform="translate(-180.374 -294.029)" fill="#62c1c5"/>
        </g>
      </g>
      <g id="Grupo_60265" data-name="Grupo 60265" transform="translate(1177.253 1422.063)">
        <path id="Trazado_120757" data-name="Trazado 120757" d="M134.371,381.32c0,2.361-7.8,4.275-17.431,4.275s-17.431-1.914-17.431-4.275,7.8-4.276,17.431-4.276S134.371,378.958,134.371,381.32Z" transform="translate(-99.509 -312.235)" fill="#e8e8e8"/>
        <g id="Grupo_60264" data-name="Grupo 60264" transform="translate(1.125)">
          <rect id="Rectángulo_7336" data-name="Rectángulo 7336" width="5.55" height="3.624" transform="translate(36.712 11.117)" fill="#0d134f"/>
          <path id="Trazado_120758" data-name="Trazado 120758" d="M160.8,306.812s.166-1.807.291-2.345a5.483,5.483,0,0,1,1.561-1.922l.659,1.6S162.112,306.811,160.8,306.812Z" transform="translate(-123.391 -284.574)" fill="#fdb18d"/>
          <g id="Grupo_60260" data-name="Grupo 60260" transform="translate(38.791 16.032)">
            <path id="Trazado_120759" data-name="Trazado 120759" d="M163.706,306.194a.688.688,0,0,1-.69-.685l-.017-5.36a.687.687,0,0,1,1.374,0l.017,5.359A.687.687,0,0,1,163.706,306.194Z" transform="translate(-162.999 -299.46)" fill="#f8a510"/>
          </g>
          <path id="Trazado_120760" data-name="Trazado 120760" d="M164.373,300.145a.687.687,0,0,0-1.374,0l0,.787h1.374Z" transform="translate(-124.208 -283.428)" fill="#ba7c0c"/>
          <path id="Trazado_120761" data-name="Trazado 120761" d="M162.963,301.854a11.751,11.751,0,0,0-2.759,4.7l-1.008.887a1.7,1.7,0,0,1,1.642,2.061l1-1.528,2.282-1.809C164.7,302.678,162.963,301.854,162.963,301.854Z" transform="translate(-122.795 -284.317)" fill="#fdb18d"/>
          <path id="Trazado_120762" data-name="Trazado 120762" d="M159.521,309.77l.544-.678s1.081.151,2.051,1.877l-.812.761Z" transform="translate(-122.916 -287.004)" fill="#fff"/>
          <path id="Trazado_120763" data-name="Trazado 120763" d="M101.3,314.432a90.7,90.7,0,0,0,8.5,18.338l1.875,22.006,10.008-.287v-1.35L114.3,351.51l1.24-20.482-7.788-15.315Z" transform="translate(-101.298 -288.987)" fill="#2466b4"/>
          <path id="Trazado_120764" data-name="Trazado 120764" d="M127.649,375.037l-7.387-1.629h-2.9l.279,3.266,10.008-.287Z" transform="translate(-107.263 -310.885)" fill="#0d134f"/>
          <path id="Trazado_120765" data-name="Trazado 120765" d="M127.779,377.044l-10.067.289.059.691,10.008-.287Z" transform="translate(-107.393 -312.235)" fill="#fdd247"/>
          <path id="Trazado_120766" data-name="Trazado 120766" d="M112.615,326.416a102.86,102.86,0,0,0,6.9,12.839l.229-3.777-2.421-4.761Z" transform="translate(-105.5 -293.437)" fill="#0d134f"/>
          <g id="Grupo_60263" data-name="Grupo 60263" transform="translate(21.718)">
            <path id="Trazado_120767" data-name="Trazado 120767" d="M141.44,289.323a8.356,8.356,0,0,0-3.79,1.124l-1.808-2.031,2.411-2.482,3,.877Z" transform="translate(-135.842 -278.406)" fill="#f09474"/>
            <g id="Grupo_60262" data-name="Grupo 60262" transform="translate(1.792)">
              <path id="Trazado_120768" data-name="Trazado 120768" d="M138.692,279.715s1.1-7.62,7.357-5.324c0,0,5.993,1.662,1.537,10.781l-1.1-.543s-1.483,2.4-2.749,1.708l-4.7-4.556Z" transform="translate(-138.692 -273.96)" fill="#fdb18d"/>
              <path id="Trazado_120769" data-name="Trazado 120769" d="M141.919,279.214l3.23-2.634,4.9,1.506c.538,1.385.624,3.429-.543,6.418Z" transform="translate(-139.89 -274.933)" fill="#f09474"/>
              <path id="Trazado_120770" data-name="Trazado 120770" d="M138.692,279.715s1.1-7.62,7.357-5.324c0,0,4.087,1.134,3,6.665-.005,0-.685.443-2.8-.437a3.394,3.394,0,0,0-2.085,1.862l-.754-.456s.959-2.329-.014-3.079l-1.259.27s-.829,1.965-2.282,2.029l-.954-.25Z" transform="translate(-138.692 -273.96)" fill="#0a3c5f"/>
              <g id="Grupo_60261" data-name="Grupo 60261" transform="translate(0 2.36)">
                <path id="Trazado_120771" data-name="Trazado 120771" d="M146.378,281.538c.632.9-.178,2.871-.178,2.871l.754.456A3.394,3.394,0,0,1,149.039,283c2.114.88,2.794.44,2.8.437a7.744,7.744,0,0,0,.05-3.06c-.726.3-1.424.637-2.169.862A9.287,9.287,0,0,1,146.378,281.538Z" transform="translate(-141.48 -278.703)" fill="#0d134f"/>
                <path id="Trazado_120772" data-name="Trazado 120772" d="M142.139,280.609l.745-.16a4.373,4.373,0,0,1-1.813-.717,3.249,3.249,0,0,1-1.124-2.019,9.95,9.95,0,0,0-1.255,3.4l.211,1.28.954.25C141.311,282.575,142.139,280.609,142.139,280.609Z" transform="translate(-138.692 -277.713)" fill="#0d134f"/>
              </g>
              <path id="Trazado_120773" data-name="Trazado 120773" d="M143.883,281.988c-.352.86-.2,1.736.338,1.957s1.261-.3,1.613-1.159.2-1.738-.338-1.958S144.235,281.126,143.883,281.988Z" transform="translate(-140.549 -276.491)" fill="#fdb18d"/>
            </g>
          </g>
          <path id="Trazado_120774" data-name="Trazado 120774" d="M134.387,288.19l1.815-.984,3.6,3.713-.86.667Z" transform="translate(-113.584 -278.878)" fill="#fff"/>
          <path id="Trazado_120775" data-name="Trazado 120775" d="M107.45,316.229s2.329,7.105,12.7,19.221l.688,25.021h11.121v-1.217l-7.988-2.057,3.286-23.494-8.621-16.819Z" transform="translate(-103.582 -289.655)" fill="#2466b4"/>
          <path id="Trazado_120776" data-name="Trazado 120776" d="M101.3,304.9s3.868-12.018,20.8-16.133a14.658,14.658,0,0,1,6.513,4.634s-2.561,4.294-10.062,10.108l-1.5,4.536S104.374,311.134,101.3,304.9Z" transform="translate(-101.298 -279.459)" fill="#5600b5"/>
          <path id="Trazado_120777" data-name="Trazado 120777" d="M117.047,312.526l1.5-4.536a58.9,58.9,0,0,0,6.915-6.216l-.867-.946-7.181,5.734a5.649,5.649,0,0,1-2.464-1.854,6.027,6.027,0,0,0,1.951,3.282l-1.369,3.473s-9.921,1.769-14.24-2.082C104.374,315.611,117.047,312.526,117.047,312.526Z" transform="translate(-101.298 -283.936)" fill="#410088"/>
          <path id="Trazado_120778" data-name="Trazado 120778" d="M142.33,296.1s4.8,7.032,6.929,10.715l2.415-2.293a3.26,3.26,0,0,1,2.088,2.293l-4.258,4.136s-1.594,1.524-5.71-3.352l-5.5-6.676S137.489,295.375,142.33,296.1Z" transform="translate(-115.015 -282.157)" fill="#5600b5"/>
          <path id="Trazado_120779" data-name="Trazado 120779" d="M139.81,383.449l-7.988-2.057H128.6l.09,3.274H139.81Z" transform="translate(-111.435 -313.85)" fill="#0d134f"/>
          <path id="Trazado_120780" data-name="Trazado 120780" d="M128.722,385.881h11.121v-1.217H128.689Z" transform="translate(-111.468 -315.065)" fill="#fdd247"/>
          <rect id="Rectángulo_7337" data-name="Rectángulo 7337" width="5.754" height="2.765" transform="translate(36.61 14.127)" fill="#f8a510"/>
          <path id="Trazado_120781" data-name="Trazado 120781" d="M165.283,298.07l-5.754.391v-.784h5.754Z" transform="translate(-122.92 -282.766)" fill="#ba7c0c"/>
          <path id="Trazado_120782" data-name="Trazado 120782" d="M159.691,292.768a1.468,1.468,0,0,0,.265.071.824.824,0,0,1,.541.224c.131.158.109.367.209.538.346.59.561-.129.718-.391a.87.87,0,0,1,1.029-.291c.329.185.04.749.346.966.429.306.549-.6.6-.849.059-.307.248-.793.675-.693.4.094.309.7.415,1,.052.146.152.4.336.248.119-.1.074-.434.092-.576a.807.807,0,0,1,.192-.5.486.486,0,0,1,.136-.1v-.77h-5.55Z" transform="translate(-122.98 -280.525)" fill="#e9f9f9"/>
        </g>
      </g>
      <path id="Trazado_120783" data-name="Trazado 120783" d="M310.37,429.973c0,2.361-7.8,4.275-17.432,4.275s-17.431-1.914-17.431-4.275,7.8-4.276,17.431-4.276S310.37,427.611,310.37,429.973Z" transform="translate(1012.396 1091.764)" fill="#e8e8e8"/>
      <g id="Grupo_60270" data-name="Grupo 60270" transform="translate(1293.468 1445.099)">
        <g id="Grupo_60267" data-name="Grupo 60267" transform="translate(0 6.963)">
          <path id="Trazado_120784" data-name="Trazado 120784" d="M305.264,364.061s1.732,5.529-1.956,20.832l.494,17.649h-2.143s-3.994-8.737-3.527-16.866c0,0-3.04-12.7-1.593-20.358C296.539,365.317,300.5,361.593,305.264,364.061Z" transform="translate(-288.736 -337.099)" fill="#2466b4"/>
          <path id="Trazado_120785" data-name="Trazado 120785" d="M296.15,370.3a16.331,16.331,0,0,0,2.468,8.663c.741-3.43.189-8.007.686-14.537l-.217-.324a8.78,8.78,0,0,0-2.547,1.541c-.048.253-.087.5-.126.753A28.283,28.283,0,0,0,296.15,370.3Z" transform="translate(-288.737 -337.43)" fill="#0d134f"/>
          <path id="Trazado_120786" data-name="Trazado 120786" d="M285.858,357.771s-4,8.219,1.074,23.653c0,0-2.246,3.419,0,20.318h1.954l2.735-20.025s2.749-12,3.377-20.262Z" transform="translate(-284.359 -335.077)" fill="#2466b4"/>
          <path id="Trazado_120787" data-name="Trazado 120787" d="M319.914,330.969s1.928,1.744-2.028,12.807l-.659,11.8.659,2.28-.659,2.615a2.15,2.15,0,0,1-.409-2.334s-2.015,1.127-2.618-.214l.872-2.748L313.9,344.446l2.248-11.13S316.711,330.966,319.914,330.969Z" transform="translate(-295.326 -325.125)" fill="#f09474"/>
          <g id="Grupo_60266" data-name="Grupo 60266" transform="translate(5.75 29.977)">
            <path id="Trazado_120788" data-name="Trazado 120788" d="M309.81,381.979l-1.134-.295c1.082-4.158.819-7.217-.781-9.093-2.016-2.361-5.532-2.047-5.569-2.045-7.123.249-7.646,10.2-7.651,10.3l-1.171-.052c.005-.111.587-11.137,8.745-11.421.133-.016,4.129-.367,6.537,2.452C310.651,374.015,310.995,377.428,309.81,381.979Z" transform="translate(-293.505 -369.356)" fill="#fdd247"/>
          </g>
          <path id="Trazado_120789" data-name="Trazado 120789" d="M306.068,369.681l-1.05.314-1.433-.314a2.785,2.785,0,0,1,0,1.419l.008,0a.867.867,0,0,0,.024.314c.145.548.626.558,1.1.556a4.571,4.571,0,0,1,1.455.184,1.323,1.323,0,0,0,1.279-.2,1.967,1.967,0,0,0,.373-.45l.724-1.023Z" transform="translate(-291.497 -339.499)" fill="#f09474"/>
          <path id="Trazado_120790" data-name="Trazado 120790" d="M284.88,357.771" transform="translate(-284.552 -335.077)" fill="#fff"/>
          <path id="Trazado_120791" data-name="Trazado 120791" d="M294.777,323.912s5.914-6.933,14.364,3.606a20.663,20.663,0,0,1-3,6.972s-1.423,3.016-4.18,3.151c0,0-1.75,7.442-.879,11,0,0-9.335,5.543-16.2-4.268,0,0,3.662-5.551,5-10.128C289.883,334.24,291.023,327.817,294.777,323.912Z" transform="translate(-284.552 -321.674)" fill="#fdb18d"/>
          <path id="Trazado_120792" data-name="Trazado 120792" d="M316.618,373.557c-.191-.109-.372.065-.527.13.184-.465-.1-1.343-.722-1.181l-.07.023a.4.4,0,0,0-.463-.558c-.278.082-.442.357-.587.58a1.075,1.075,0,0,0-.279.861.682.682,0,0,0,.676.514.781.781,0,0,0,.241.664c.162.136.363.209.525.032a.92.92,0,0,0,.114,1.07c.351.307.558.012.767-.266a2.534,2.534,0,0,0,.475-.83C316.84,374.333,316.926,373.73,316.618,373.557Z" transform="translate(-295.344 -340.343)" fill="#f09474"/>
          <path id="Trazado_120793" data-name="Trazado 120793" d="M319.508,373.162l-.656,2.62a2.147,2.147,0,0,1-.411-2.338s.077-1.259-.146-1.171c.094-.345.058.661.351.48a2.056,2.056,0,0,1,.651-.31h.006Z" transform="translate(-296.948 -340.434)" fill="#f09474"/>
          <path id="Trazado_120794" data-name="Trazado 120794" d="M306.139,334.491a28.857,28.857,0,0,0,1.472-2.671c.011-.08.016-.16.028-.24a23.779,23.779,0,0,0,.158-3.248c.006-.737.1-1.46.161-2.187-.23-.249-.458-.489-.683-.713,0,.187.006.373.006.56,0,1.643.171,3.509-.478,5.041-.464,1.1-1.131,2.42-2.46,2.5a2.078,2.078,0,0,1-2.532-2.541,42.422,42.422,0,0,0,.538-4.455c.063-1.315.329-3.43-.627-4.428a3.2,3.2,0,0,0-.3-.266,7.064,7.064,0,0,0-2.231-.131l.109.03a2.207,2.207,0,0,1,1.705,2.737,13.108,13.108,0,0,1-1.984,3.765c-.931,1.284-2.141,2.631-3.849,2.2-1.55-.39-1.909-1.951-2.1-3.314a5.994,5.994,0,0,1-.05-.951,25.279,25.279,0,0,0-3.137,8.061c-1.34,4.576-5,10.128-5,10.128,6.865,9.811,16.2,4.268,16.2,4.268-.871-3.553.879-11,.879-11C304.715,337.507,306.139,334.491,306.139,334.491Z" transform="translate(-284.552 -321.675)" fill="#5600b5"/>
          <path id="Trazado_120795" data-name="Trazado 120795" d="M301.08,356.365c-.869-3.546.871-10.962.879-10.994-.561-.424-1.237-.7-1.811-1.144a8.593,8.593,0,0,1-1.126-.878,3.889,3.889,0,0,0-.946-.86,18.86,18.86,0,0,0-.072,2.121,3.638,3.638,0,0,1-.959,1.654,11.279,11.279,0,0,0-1.429,3.575c-.605,1.742-2.331,4.531-4.482,4.438-1.98-.086-4.141-1.84-5.495-3.391-.456.751-.759,1.212-.759,1.212C291.745,361.908,301.08,356.365,301.08,356.365Z" transform="translate(-284.552 -329.402)" fill="#410088"/>
          <path id="Trazado_120796" data-name="Trazado 120796" d="M324.376,324.929c-.878.677-.093,3.008.151,3.816.355,1.174.956,2.73.63,4.036-.409,1.634-2.348,1.626-3.525.841a3.849,3.849,0,0,1-1.571-3.344c-.04-.832.045-1.671,0-2.5-.046-.867-.526-1.421-.626-2.226-.24-1.94,3.475-2.4,4.6-1.313" transform="translate(-297.379 -322.413)" fill="#0d134f"/>
          <path id="Trazado_120797" data-name="Trazado 120797" d="M299.057,325.824s2.15-4.507,5.1-1.585c0,0,1.508,2.036-1.681,6.815,0,0-4.157,5.9-4.693,8.312,0,0,2.883,7.781,4.157,9.992a20.358,20.358,0,0,1,2.741,3.889s-6.5,2.077-4.692-2.691l-6.832-11.142A67.473,67.473,0,0,1,299.057,325.824Z" transform="translate(-287.625 -322.26)" fill="#fdb18d"/>
          <path id="Trazado_120798" data-name="Trazado 120798" d="M290.86,388.226s.028,5.364,6.552,10.066l1.9-5.342-2.884-3.658Z" transform="translate(-286.773 -346.385)" fill="#f8a510"/>
          <path id="Trazado_120799" data-name="Trazado 120799" d="M309.514,385.668l-7.467,4.9-.076.047-1.882,1.232-.961.632-1.718,1.125a18.8,18.8,0,0,0-6.553-10.062l12.1-7.936A18.762,18.762,0,0,1,309.514,385.668Z" transform="translate(-286.772 -341.699)" fill="#fdd247"/>
          <path id="Trazado_120800" data-name="Trazado 120800" d="M287.774,427.711a6.38,6.38,0,0,1-.811,2.512s-1.321,1.728,1.257,1.728h2.8s1.761-.875-.219-2.12a2.673,2.673,0,0,1-1.071-2.12Z" transform="translate(-285.2 -361.046)" fill="#fdb18d"/>
          <path id="Trazado_120801" data-name="Trazado 120801" d="M307.056,425.767l.2,1.709s6.617,1.354,6.914,2.286h-8.768l.245-2-.739-2Z" transform="translate(-291.991 -360.324)" fill="#fdb18d"/>
          <path id="Trazado_120802" data-name="Trazado 120802" d="M287.365,417.862c.157,1.833.377,3.882.684,6.192H290l.846-6.192Z" transform="translate(-285.475 -357.389)" fill="#fdb18d"/>
          <path id="Trazado_120803" data-name="Trazado 120803" d="M303.841,422.832h2.143l-.139-4.97h-3.818A43.94,43.94,0,0,0,303.841,422.832Z" transform="translate(-290.919 -357.389)" fill="#fdb18d"/>
          <path id="Trazado_120804" data-name="Trazado 120804" d="M290.943,430.982a.734.734,0,0,1-.252.28,3.327,3.327,0,0,1-2.458.025,1.318,1.318,0,0,1-.878-.746,2.665,2.665,0,0,1-.391.732S285.642,433,288.221,433h2.8S292.674,432.172,290.943,430.982Z" transform="translate(-285.2 -362.097)" fill="#62c1c5"/>
          <path id="Trazado_120805" data-name="Trazado 120805" d="M310.523,429.59c-.02.157,0,.287-.163.411a.868.868,0,0,1-.6.106c-.465-.019-.9-.1-1.374-.1-.854,0-1.7,0-2.543,0l-.145,1.174h8.768C314.307,430.681,312.324,430.058,310.523,429.59Z" transform="translate(-292.282 -361.744)" fill="#62c1c5"/>
        </g>
        <path id="Trazado_120806" data-name="Trazado 120806" d="M325.411,400.188l-5.492-1.524-12.572.651-3.334.176.961-.633,1.882-1.231.076-.047,2.5-.205,9.542-.785,1.23-2.1Z" transform="translate(-291.656 -341.749)" fill="#fdd247"/>
        <path id="Trazado_120807" data-name="Trazado 120807" d="M309.434,399.079l-2.087,1.939-3.334.176.961-.633,1.882-1.231.076-.047Z" transform="translate(-291.656 -343.452)" fill="#f8a510"/>
        <path id="Trazado_120808" data-name="Trazado 120808" d="M316.208,318.582l2.334,4.072,1.313,2.659s-1.525-2.236-4.75.321L312,320.824A3.337,3.337,0,0,0,316.208,318.582Z" transform="translate(-294.621 -313.563)" fill="#fdb18d"/>
        <g id="Grupo_60269" data-name="Grupo 60269" transform="translate(21.587)">
          <g id="Grupo_60268" data-name="Grupo 60268">
            <path id="Trazado_120809" data-name="Trazado 120809" d="M318.694,315.618s2.164-7.39,8.033-4.236c0,0,4.513,1.525.63,8.578-.294.534-.226,1.721-.626,2.312l-1.013-.692s-1.806,2.167-2.962,1.3l-4.015-5.172Z" transform="translate(-318.694 -310.599)" fill="#fdb18d"/>
          </g>
        </g>
        <path id="Trazado_120810" data-name="Trazado 120810" d="M326.444,315.119a5.655,5.655,0,0,1-5.761,1.244,7.064,7.064,0,0,1-2.79,2.2,5.185,5.185,0,0,1-.773.263,6.356,6.356,0,0,1-5.117-.962,3.334,3.334,0,0,0,4.208-2.244s2.163-7.385,8.036-4.23A3.654,3.654,0,0,1,326.444,315.119Z" transform="translate(-294.623 -310.6)" fill="#0a3c5f"/>
        <path id="Trazado_120811" data-name="Trazado 120811" d="M325.492,313.262a4.874,4.874,0,0,1-.123.946c-.438,1.766-1.892,2.358-3.536,2.356-1.469,0-3.172,0-3.831-1.571a3.838,3.838,0,0,1-.285-1.308,10.106,10.106,0,0,0-1.507,2.918A3.334,3.334,0,0,1,312,318.849a6.355,6.355,0,0,0,5.117.962,5.181,5.181,0,0,0,.773-.263,7.064,7.064,0,0,0,2.79-2.2,5.655,5.655,0,0,0,5.761-1.244A3.951,3.951,0,0,0,325.492,313.262Z" transform="translate(-294.623 -311.588)" fill="#0d134f"/>
        <path id="Trazado_120812" data-name="Trazado 120812" d="M323.8,318.32c-.47.8-.444,1.692.06,1.985s1.29-.118,1.758-.92.445-1.691-.058-1.986S324.274,317.516,323.8,318.32Z" transform="translate(-298.88 -313.088)" fill="#fdb18d"/>
      </g>
      <g id="Grupo_60280" data-name="Grupo 60280" transform="translate(1325.747 1481.723)">
        <path id="Trazado_120813" data-name="Trazado 120813" d="M360.766,384.206c1.9-6.408-4.51-10.557-7-15.353.043,2.459-.61,4.729.049,7.172.686,2.546,1.716,4.3,1.447,6.993-.236,2.359-.761,5.288.119,7.624a23.4,23.4,0,0,0,2.774,4.735c.527-1.326,1.491-2.51,1.754-4.139.179-1.11-.226-2.547-.153-3.74C359.833,386.161,360.4,385.437,360.766,384.206Z" transform="translate(-342.316 -368.853)" fill="#3d895b"/>
        <g id="Grupo_60271" data-name="Grupo 60271" transform="translate(23.465 21.363)">
          <path id="Trazado_120814" data-name="Trazado 120814" d="M386.081,403.783c-1.207-.905-2.676-.866-4.141-.941a4.728,4.728,0,0,0-4.146,1.862,9.491,9.491,0,0,1-1.314,1.526c-.6.412-1.534.426-2.143.963-.941.829-1.05,2.138-1.311,3.276,1.048-.116,2.4-.023,2.892-.1,1.581-.248,2.443-1.407,3.364-2.65.565-.764.756-1.1,1.717-1.206a9.034,9.034,0,0,1,2.26.089,9.69,9.69,0,0,0,4.4-.279,2.465,2.465,0,0,1,1.821.435C388.9,405.527,387.069,404.523,386.081,403.783Z" transform="translate(-373.026 -402.832)" fill="#73c176"/>
        </g>
        <g id="Grupo_60272" data-name="Grupo 60272" transform="translate(21.949 11.69)">
          <path id="Trazado_120815" data-name="Trazado 120815" d="M379.823,389.222a12.809,12.809,0,0,0-1.816,3.2,6.639,6.639,0,0,1-1.972,3.013,16.288,16.288,0,0,1-2.709,1.042c-2.25,1.076-3.156,4.154-2.507,6.6,1.191-.792,2.05-2.215,3.24-3.048,1.432-1,2.226-2.658,3.592-3.673,1.493-1.109,3.028-1.387,4.031-3.174a8.44,8.44,0,0,0,.963-4.518c-.012-.221-.1-.72-.153-1.211-.1.054-.21.1-.315.174C381.264,388.217,380.524,388.3,379.823,389.222Z" transform="translate(-370.614 -387.447)" fill="#3d895b"/>
        </g>
        <g id="Grupo_60273" data-name="Grupo 60273" transform="translate(0 13.594)">
          <path id="Trazado_120816" data-name="Trazado 120816" d="M345.1,396.309a9.505,9.505,0,0,0-3.478-4.518c-1.845-1.3-3.7-1.316-5.916-1.316.284,1.411.457,2.9,1.318,3.859,1.274,1.425,3.027,1.445,4.043,3.43,1.031,2.015,1.187,4.175,3.249,5.609,1.774,1.233,4.058,1.132,5.807,2.49-.5-1.811-.538-3.742-1.889-5.373C346.932,398.924,345.882,398.34,345.1,396.309Z" transform="translate(-335.702 -390.475)" fill="#73c176"/>
        </g>
        <g id="Grupo_60274" data-name="Grupo 60274" transform="translate(3.549 16.184)">
          <path id="Trazado_120817" data-name="Trazado 120817" d="M348,403.018c.934.929,2,1.689,2.915,2.493a9.3,9.3,0,0,1,2.14,2.563l-.017-.028a15.29,15.29,0,0,1,.705,1.6c.187.468.333.875.452,1.207a3.427,3.427,0,0,1,.312,1.065c-.043.024-.253-.318-.572-.953l-.561-1.157c-.214-.454-.463-.965-.747-1.466l-.007-.011-.01-.018a9.495,9.495,0,0,0-2.1-2.334c-.9-.762-1.983-1.51-2.981-2.5a11.073,11.073,0,0,1-.772-.906c-.2-.339-.434-.657-.6-1a10.251,10.251,0,0,1-.643-2.06,5.93,5.93,0,0,0-.622-1.7,6.371,6.371,0,0,0-.958-1.267,9.335,9.335,0,0,0-1.857-1.426c-.478-.3-.746-.467-.724-.511s.322.052.845.286a7.532,7.532,0,0,1,2.059,1.32,6.383,6.383,0,0,1,1.1,1.318,6.2,6.2,0,0,1,.742,1.832,10.4,10.4,0,0,0,.638,1.932c.155.307.368.59.551.9C347.483,402.482,347.759,402.735,348,403.018Z" transform="translate(-341.347 -394.595)" fill="#f8a510"/>
        </g>
        <g id="Grupo_60275" data-name="Grupo 60275" transform="translate(12.598 4.403)">
          <path id="Trazado_120818" data-name="Trazado 120818" d="M359.368,390.523c-1.03,4.107-.206,7.915.268,10.621a28.254,28.254,0,0,1,.707,4.437,4.4,4.4,0,0,1-.369-1.153c-.189-.751-.483-1.833-.792-3.189a37.979,37.979,0,0,1-.844-4.825q-.049-.7-.1-1.424.015-.732.031-1.5a11.7,11.7,0,0,1,.18-1.543c.068-.529.175-1.032.276-1.546a21.067,21.067,0,0,0,.353-3.008,12.3,12.3,0,0,0-.232-2.782,22.592,22.592,0,0,0-1.656-4.495,24.363,24.363,0,0,1-1.212-3.07,3.885,3.885,0,0,1-.225-1.194,4.912,4.912,0,0,1,.467,1.112c.289.714.758,1.719,1.388,2.952a20.683,20.683,0,0,1,1.827,4.567,12.319,12.319,0,0,1,.284,2.925A20.473,20.473,0,0,1,359.368,390.523Z" transform="translate(-355.741 -375.856)" fill="#f8a510"/>
          <path id="Trazado_120819" data-name="Trazado 120819" d="M361.829,396.547a4.7,4.7,0,0,1,.126-.828c-.118-.126-.233-.251-.364-.382a5.131,5.131,0,0,1-1.126-2.109c-.9,1.677-1.757,3.851-1.156,5.646a16.74,16.74,0,0,0,1.586,2.717,4.435,4.435,0,0,1,.346.8,7.182,7.182,0,0,0,.741-2.107C362.161,399.177,361.757,397.74,361.829,396.547Z" transform="translate(-356.992 -382.306)" fill="#0d134f"/>
        </g>
        <g id="Grupo_60276" data-name="Grupo 60276" transform="translate(19.467 16.811)">
          <path id="Trazado_120820" data-name="Trazado 120820" d="M370.472,403.771a27.889,27.889,0,0,0-1.271,4.176,12.323,12.323,0,0,1-.734,1.841c-.282.538-.556,1.029-.778,1.484a11.254,11.254,0,0,0-.932,3.126,2.011,2.011,0,0,1-.089-.906,6.468,6.468,0,0,1,.6-2.412c.2-.484.455-.991.714-1.536a12.709,12.709,0,0,0,.64-1.767,24.348,24.348,0,0,1,1.262-4.295,7.678,7.678,0,0,1,.632-1.039,9.787,9.787,0,0,1,.763-.895c.54-.532,1.093-1,1.628-1.431,1.081-.843,2.062-1.56,2.841-2.217,1.558-1.309,2.268-2.375,2.367-2.306.038.024-.118.3-.436.794a11.336,11.336,0,0,1-1.622,1.857c-.758.716-1.726,1.486-2.769,2.34A10.189,10.189,0,0,0,370.472,403.771Z" transform="translate(-366.667 -395.592)" fill="#f8a510"/>
        </g>
        <g id="Grupo_60277" data-name="Grupo 60277" transform="translate(20.128 22.628)">
          <path id="Trazado_120821" data-name="Trazado 120821" d="M373.751,410.082a6.6,6.6,0,0,0-1.853.98,9.27,9.27,0,0,0-1.409,1.363,18.1,18.1,0,0,0-1.825,2.844,23.425,23.425,0,0,0-.9,3c-.045,0-.06-.307-.045-.866a7.625,7.625,0,0,1,.517-2.318,15.7,15.7,0,0,1,1.778-3.037,9.3,9.3,0,0,1,1.491-1.494,6.957,6.957,0,0,1,1.993-1.075,5.742,5.742,0,0,0,1.8-1,10.591,10.591,0,0,0,1.265-1.516,4.477,4.477,0,0,1,2.893-2.053,5.808,5.808,0,0,1,2.38.168c.538.136.825.241.817.284s-.316.026-.861-.033a6.717,6.717,0,0,0-2.245.035,4.115,4.115,0,0,0-2.5,1.955,10.376,10.376,0,0,1-1.316,1.631A6.163,6.163,0,0,1,373.751,410.082Z" transform="translate(-367.717 -404.844)" fill="#f8a510"/>
        </g>
        <g id="Grupo_60278" data-name="Grupo 60278" transform="translate(15.254 2.961)">
          <path id="Trazado_120822" data-name="Trazado 120822" d="M366.569,381.81c.715-1.911,1.184-3.767.477-5.768-.3-.845-.741-1.63-1.015-2.479a6.118,6.118,0,0,0-.61.877,12.082,12.082,0,0,0-.469,2.1,13.7,13.7,0,0,1-1.25,3.574c-1.192,2.13-3.178,3.662-3.628,6.217a9.847,9.847,0,0,0,1.889,7.131,6.367,6.367,0,0,1,1.291,2.395c.084.438.079.872.127,1.284a20.02,20.02,0,0,1,2.017-2.9,6.828,6.828,0,0,0,1.077-6.209A10.658,10.658,0,0,1,366.569,381.81Z" transform="translate(-359.964 -373.563)" fill="#73c176"/>
        </g>
        <g id="Grupo_60279" data-name="Grupo 60279" transform="translate(17.941 6.699)">
          <path id="Trazado_120823" data-name="Trazado 120823" d="M365.305,393.134a19.556,19.556,0,0,1,0,5.641c-.193,1.712-.407,3.233-.436,4.514a28.638,28.638,0,0,0,.306,4.143,3.714,3.714,0,0,1-.393-1.068,6.161,6.161,0,0,1-.257-1.312c-.031-.259-.08-.537-.1-.833s-.012-.607-.02-.936a42.882,42.882,0,0,1,.3-4.569,20.309,20.309,0,0,0-.048-5.484c-.319-1.91-.678-3.9-.146-5.657a13.113,13.113,0,0,1,.516-1.208l.595-1.024c.381-.657.732-1.267.994-1.846a8.7,8.7,0,0,0,.837-2.868,4.855,4.855,0,0,1,.079-1.12,3.147,3.147,0,0,1,.175,1.13,7.784,7.784,0,0,1-.668,3.045,19.123,19.123,0,0,1-.944,1.926q-.273.5-.563,1.035c-.159.358-.309.719-.443,1.1A12.8,12.8,0,0,0,365.305,393.134Z" transform="translate(-364.239 -379.508)" fill="#f8a510"/>
        </g>
        <path id="Trazado_120824" data-name="Trazado 120824" d="M372.721,427.988H337.93a11.565,11.565,0,0,1,4.6-4.955,19.847,19.847,0,0,1,4.214-1.3,26.962,26.962,0,0,0,4.049-1.877c3.436-1.475,6.078,1.092,9.357,1.294,1.49.091,2.852-.837,4.408-.7a7.253,7.253,0,0,1,4.4,2.4C370.693,424.664,371.381,426.438,372.721,427.988Z" transform="translate(-336.529 -387.623)" fill="#6f7302"/>
      </g>
    </g>
  </g>
</svg>
