<svg xmlns="http://www.w3.org/2000/svg" xmlns:xlink="http://www.w3.org/1999/xlink" width="1091.607" height="305.307" viewBox="0 0 1091.607 305.307">
  <defs>
    <linearGradient id="linear-gradient" y1="0.5" x2="1" y2="0.5" gradientUnits="objectBoundingBox">
      <stop offset="0" stop-color="#d1b992"/>
      <stop offset="0.382" stop-color="#ebdcc5"/>
      <stop offset="1" stop-color="#d2b78b"/>
    </linearGradient>
    <linearGradient id="linear-gradient-2" x1="-0.091" y1="0.612" x2="1.39" y2="0.5" gradientUnits="objectBoundingBox">
      <stop offset="0" stop-color="#8dd446"/>
      <stop offset="0.621" stop-color="#5db504"/>
      <stop offset="1" stop-color="#50a100"/>
    </linearGradient>
    <linearGradient id="linear-gradient-3" x1="2.608" y1="0.5" x2="-1.481" y2="0.5" gradientUnits="objectBoundingBox">
      <stop offset="0" stop-color="#fff"/>
      <stop offset="0.488" stop-color="#ddfabf"/>
      <stop offset="1" stop-color="#d7f3bc"/>
    </linearGradient>
    <linearGradient id="linear-gradient-4" x1="3.082" y1="0.5" x2="-3.905" y2="0.5" xlink:href="#linear-gradient-3"/>
    <linearGradient id="linear-gradient-5" x1="4.747" y1="0.5" x2="-3.542" y2="0.5" xlink:href="#linear-gradient-3"/>
    <linearGradient id="linear-gradient-6" x1="4.537" y1="0.5" x2="-1.458" y2="0.5" xlink:href="#linear-gradient-3"/>
    <linearGradient id="linear-gradient-7" x1="7.495" y1="0.5" x2="-3.612" y2="0.5" xlink:href="#linear-gradient-3"/>
    <linearGradient id="linear-gradient-8" x1="10.898" y1="0.5" x2="-2.694" y2="0.5" xlink:href="#linear-gradient-3"/>
    <linearGradient id="linear-gradient-9" x1="6.591" y1="0.5" x2="-8.046" y2="0.5" xlink:href="#linear-gradient-3"/>
    <linearGradient id="linear-gradient-10" x1="8.669" y1="0.5" x2="-9.07" y2="0.5" xlink:href="#linear-gradient-3"/>
    <linearGradient id="linear-gradient-11" x1="8.687" y1="0.5" x2="-5.814" y2="0.5" xlink:href="#linear-gradient-3"/>
    <linearGradient id="linear-gradient-12" x1="4.22" y1="0.5" x2="-9.425" y2="0.5" xlink:href="#linear-gradient-3"/>
    <linearGradient id="linear-gradient-13" x1="2.331" y1="0.5" x2="-3.035" y2="0.5" xlink:href="#linear-gradient-3"/>
    <linearGradient id="linear-gradient-14" x1="4.077" y1="0.5" x2="-1.142" y2="0.5" xlink:href="#linear-gradient-3"/>
  </defs>
  <g id="Grupo_57831" data-name="Grupo 57831" transform="translate(-254.641 -2172.8)">
    <g id="Grupo_57830" data-name="Grupo 57830" transform="translate(101.809 1467.188)">
      <g id="Grupo_57827" data-name="Grupo 57827" transform="translate(152.832 714.849)" opacity="0.39">
        <path id="Trazado_116265" data-name="Trazado 116265" d="M173.726,722.34c-5.537,23.992-8.01,180.367-20.484,276.138-4.3,32.979,25.256,14.758,85.873,9.839,57.89-4.7,255.095-17.217,421.79-17.217s457.092,22.953,487.458,24.6c45.463,2.459,98.7,7.125,95.977-7.379-7.379-39.354-17.218-248.422-27.056-280.4C1216.56,725.57,173.726,722.34,173.726,722.34Z" transform="translate(-152.832 -722.34)" fill="#fff"/>
        <path id="Trazado_116266" data-name="Trazado 116266" d="M173.861,722.578c0-.009,1.4-.012,4.084,0,70.41.221,1038.782,3.279,1039.486,5.548,9.854,31.733,19.545,241.049,26.873,280.137a4.732,4.732,0,0,1-1.035,4.078c-7.746,9.34-54.693,5.443-94.924,3.267-30.161-1.632-321.7-24.43-487.273-24.43s-364.13,12.435-421.629,17.1c-57.345,4.654-87.211,21.3-86.29-5.439.046-1.334.159-2.784.362-4.35C165.905,903.361,168.362,746.408,173.861,722.578Z" transform="translate(-152.967 -722.443)" fill="#fefefe"/>
        <path id="Trazado_116267" data-name="Trazado 116267" d="M174,722.812c0-.019,1.4-.03,4.075-.021,69.931.219,1038.8,3.255,1039.508,5.527,9.875,31.49,19.411,241.055,26.69,279.877a4.718,4.718,0,0,1-1.048,4.068c-7.72,9.254-54.937,5.406-94.894,3.245-29.956-1.62-322.645-24.264-487.088-24.264s-364.359,12.35-421.468,16.984c-56.954,4.622-87.138,21.155-86.324-5.4.041-1.325.14-2.773.341-4.338C166.094,904.011,168.534,746.479,174,722.812Z" transform="translate(-153.1 -722.541)" fill="#fdfdfd"/>
        <path id="Trazado_116268" data-name="Trazado 116268" d="M174.13,723.044c0-.028,1.395-.046,4.066-.039,69.452.219,1038.809,3.231,1039.529,5.507,9.888,31.249,19.278,241.062,26.508,279.618a4.7,4.7,0,0,1-1.059,4.057c-7.69,9.172-55.182,5.369-94.866,3.223-29.751-1.609-323.586-24.1-486.9-24.1s-364.59,12.265-421.307,16.868c-56.565,4.589-87.061,21.013-86.358-5.366a43.113,43.113,0,0,1,.32-4.325C166.283,904.66,168.705,746.55,174.13,723.044Z" transform="translate(-153.234 -722.637)" fill="#fcfcfc"/>
        <path id="Trazado_116269" data-name="Trazado 116269" d="M174.263,723.277c0-.038,1.394-.063,4.057-.055,68.973.216,1038.822,3.206,1039.55,5.485,9.9,31.007,19.223,241.054,26.324,279.359a4.673,4.673,0,0,1-1.07,4.047c-7.662,9.087-55.427,5.332-94.837,3.2-29.546-1.6-324.527-23.931-486.718-23.931s-364.819,12.181-421.145,16.752c-56.174,4.558-86.985,20.87-86.391-5.329a41.231,41.231,0,0,1,.3-4.313C166.47,905.309,168.876,746.621,174.263,723.277Z" transform="translate(-153.367 -722.734)" fill="#fbfbfb"/>
        <path id="Trazado_116270" data-name="Trazado 116270" d="M174.4,723.509a40.429,40.429,0,0,1,4.048-.072c68.494.215,1038.836,3.182,1039.572,5.465,9.917,30.765,19.118,241.054,26.142,279.1a4.659,4.659,0,0,1-1.082,4.036c-7.633,9-55.672,5.295-94.808,3.178-29.34-1.587-325.467-23.765-486.532-23.765s-365.049,12.1-420.984,16.636c-55.784,4.526-86.91,20.728-86.425-5.291a39.612,39.612,0,0,1,.278-4.3C166.657,905.958,169.047,746.691,174.4,723.509Z" transform="translate(-153.499 -722.831)" fill="#fafafa"/>
        <path id="Trazado_116271" data-name="Trazado 116271" d="M174.529,723.741a33.631,33.631,0,0,1,4.039-.09c68.015.214,1038.849,3.157,1039.593,5.445,9.925,30.525,19,241.059,25.959,278.84a4.638,4.638,0,0,1-1.094,4.026c-7.6,8.919-55.916,5.258-94.779,3.156-29.136-1.576-326.409-23.6-486.347-23.6s-365.28,12.012-420.823,16.519c-55.394,4.5-86.835,20.585-86.459-5.253a37.438,37.438,0,0,1,.257-4.288C166.628,906.578,169.216,746.76,174.529,723.741Z" transform="translate(-153.631 -722.927)" fill="#f9f9f9"/>
        <path id="Trazado_116272" data-name="Trazado 116272" d="M174.661,723.973a28.729,28.729,0,0,1,4.03-.107c67.536.213,1038.863,3.133,1039.615,5.424,9.938,30.283,18.888,241.062,25.776,278.581a4.618,4.618,0,0,1-1.105,4.015c-7.574,8.837-56.161,5.221-94.75,3.134-28.931-1.565-327.35-23.432-486.162-23.432s-365.509,11.927-420.662,16.4c-55,4.463-86.758,20.441-86.492-5.218a35.9,35.9,0,0,1,.235-4.275C166.781,907.222,169.387,746.831,174.661,723.973Z" transform="translate(-153.762 -723.023)" fill="#f8f8f8"/>
        <path id="Trazado_116273" data-name="Trazado 116273" d="M174.793,724.206a25.029,25.029,0,0,1,4.02-.124c67.057.211,1038.876,3.108,1039.636,5.4,9.943,30.043,18.777,241.064,25.594,278.321a4.6,4.6,0,0,1-1.118,4c-7.545,8.754-56.406,5.184-94.721,3.112-28.725-1.554-328.291-23.267-485.976-23.267s-365.739,11.842-420.5,16.286c-54.614,4.432-86.685,20.3-86.526-5.18a34.464,34.464,0,0,1,.214-4.263C166.935,907.868,169.556,746.9,174.793,724.206Z" transform="translate(-153.893 -723.12)" fill="#f7f7f7"/>
        <path id="Trazado_116274" data-name="Trazado 116274" d="M174.924,724.437a22.319,22.319,0,0,1,4.012-.141c66.578.209,1038.89,3.084,1039.657,5.382,9.948,29.8,18.659,241.068,25.41,278.062a4.579,4.579,0,0,1-1.129,3.993c-7.515,8.67-56.65,5.147-94.691,3.089-28.52-1.542-329.232-23.1-485.791-23.1s-365.969,11.758-420.34,16.17c-54.223,4.4-86.606,20.152-86.559-5.143a33.2,33.2,0,0,1,.193-4.25C167.088,908.512,169.724,746.97,174.924,724.437Z" transform="translate(-154.024 -723.216)" fill="#f6f6f6"/>
        <path id="Trazado_116275" data-name="Trazado 116275" d="M175.053,724.669a20.03,20.03,0,0,1,4-.158c66.1.208,1038.9,3.059,1039.679,5.362,9.955,29.563,18.552,241.069,25.228,277.8a4.566,4.566,0,0,1-1.141,3.983c-7.485,8.587-56.895,5.11-94.663,3.067-28.315-1.531-330.174-22.934-485.606-22.934s-366.2,11.673-420.178,16.054c-53.834,4.368-86.532,20.007-86.594-5.107a32,32,0,0,1,.172-4.237C167.234,909.155,169.891,747.041,175.053,724.669Z" transform="translate(-154.152 -723.312)" fill="#f5f5f5"/>
        <path id="Trazado_116276" data-name="Trazado 116276" d="M175.179,724.9a18.151,18.151,0,0,1,3.993-.175c65.62.207,1038.917,3.034,1039.7,5.341,9.955,29.324,18.432,241.073,25.045,277.543a4.547,4.547,0,0,1-1.152,3.972c-7.453,8.505-57.139,5.073-94.634,3.045-28.109-1.521-331.114-22.768-485.421-22.768s-366.429,11.589-420.017,15.938c-53.444,4.336-86.454,19.862-86.627-5.069a30.769,30.769,0,0,1,.15-4.225C167.39,909.8,170.054,747.11,175.179,724.9Z" transform="translate(-154.277 -723.409)" fill="#f4f4f4"/>
        <path id="Trazado_116277" data-name="Trazado 116277" d="M175.3,725.134a16.588,16.588,0,0,1,3.985-.192c65.141.2,1038.93,3.01,1039.721,5.32,9.959,29.085,18.314,241.078,24.862,277.283a4.528,4.528,0,0,1-1.163,3.962c-7.423,8.422-57.385,5.036-94.605,3.023-27.9-1.51-332.055-22.6-485.236-22.6s-366.659,11.5-419.855,15.821c-53.054,4.305-86.382,19.716-86.661-5.032a29.612,29.612,0,0,1,.129-4.213C167.536,910.446,170.215,747.18,175.3,725.134Z" transform="translate(-154.4 -723.505)" fill="#f3f3f3"/>
        <path id="Trazado_116278" data-name="Trazado 116278" d="M175.426,725.366c0-.122,1.384-.217,3.975-.209,64.662.2,1038.944,2.985,1039.743,5.3,9.959,28.845,18.207,241.079,24.68,277.024a4.512,4.512,0,0,1-1.176,3.951c-7.392,8.339-57.629,5-94.576,3-27.7-1.5-333-22.435-485.05-22.435s-366.889,11.419-419.695,15.7c-52.663,4.274-86.3,19.57-86.695-4.995a28.6,28.6,0,0,1,.108-4.2C167.684,911.09,170.375,747.251,175.426,725.366Z" transform="translate(-154.522 -723.601)" fill="#f2f2f2"/>
        <path id="Trazado_116279" data-name="Trazado 116279" d="M175.547,725.6c0-.13,1.383-.234,3.966-.226,64.184.2,1038.958,2.96,1039.765,5.279,9.954,28.607,18.087,241.083,24.5,276.764a4.493,4.493,0,0,1-1.187,3.94c-7.359,8.258-57.874,4.962-94.547,2.978-27.494-1.487-333.938-22.27-484.865-22.27s-367.119,11.335-419.534,15.589c-52.274,4.242-86.23,19.423-86.728-4.958a27.632,27.632,0,0,1,.087-4.188C167.82,911.734,170.535,747.32,175.547,725.6Z" transform="translate(-154.643 -723.697)" fill="#f1f1f1"/>
        <path id="Trazado_116280" data-name="Trazado 116280" d="M175.667,725.83c0-.14,1.383-.251,3.958-.243,63.7.2,1038.97,2.935,1039.785,5.258,9.953,28.368,17.968,241.087,24.314,276.5a4.474,4.474,0,0,1-1.2,3.93c-7.328,8.176-58.119,4.925-94.519,2.956-27.288-1.477-334.879-22.1-484.68-22.1s-367.349,11.25-419.372,15.472c-51.883,4.21-86.156,19.275-86.762-4.921a26.646,26.646,0,0,1,.066-4.176C167.965,912.379,170.692,747.39,175.667,725.83Z" transform="translate(-154.762 -723.794)" fill="#f0f0f0"/>
        <path id="Trazado_116281" data-name="Trazado 116281" d="M175.787,726.062c0-.15,1.381-.268,3.948-.26,63.225.2,1038.984,2.91,1039.808,5.238,9.948,28.13,17.859,241.089,24.131,276.245a4.459,4.459,0,0,1-1.212,3.919c-7.3,8.093-58.363,4.887-94.489,2.933-27.083-1.464-335.82-21.937-484.494-21.937s-367.579,11.165-419.212,15.356c-51.493,4.178-86.081,19.127-86.8-4.885a25.76,25.76,0,0,1,.045-4.163C168.111,913.024,170.849,747.46,175.787,726.062Z" transform="translate(-154.881 -723.89)" fill="#efefef"/>
        <path id="Trazado_116282" data-name="Trazado 116282" d="M175.906,726.294c0-.159,1.38-.285,3.939-.277,62.746.2,1039,2.885,1039.829,5.217,9.943,27.892,17.739,241.094,23.948,275.986a4.438,4.438,0,0,1-1.222,3.908c-7.262,8.011-58.608,4.85-94.46,2.912-26.878-1.454-336.761-21.771-484.309-21.771s-367.809,11.081-419.05,15.239c-51.1,4.147-86,18.979-86.829-4.847a24.91,24.91,0,0,1,.023-4.15C168.255,913.669,171.006,747.53,175.906,726.294Z" transform="translate(-155 -723.986)" fill="#eee"/>
        <path id="Trazado_116283" data-name="Trazado 116283" d="M176.025,726.526c0-.168,1.379-.3,3.929-.295,62.268.2,1039.011,2.86,1039.851,5.2,9.936,27.655,17.619,241.1,23.765,275.726a4.424,4.424,0,0,1-1.234,3.9c-7.23,7.93-58.853,4.813-94.431,2.889-26.673-1.443-337.7-21.6-484.124-21.6s-368.039,11-418.889,15.123c-50.713,4.115-85.931,18.829-86.863-4.81a24.058,24.058,0,0,1,0-4.138C168.4,914.313,171.162,747.6,176.025,726.526Z" transform="translate(-155.117 -724.082)" fill="#ededed"/>
        <path id="Trazado_116284" data-name="Trazado 116284" d="M176.143,726.758c0-.178,1.378-.319,3.921-.312,61.789.194,1039.025,2.836,1039.872,5.176,9.924,27.419,17.509,241.1,23.583,275.467a4.4,4.4,0,0,1-1.246,3.887c-7.2,7.848-59.1,4.776-94.4,2.866C1121.4,1012.411,809.227,992.4,663.931,992.4s-368.269,10.912-418.727,15.007c-50.323,4.084-85.857,18.68-86.9-4.773a23.3,23.3,0,0,1-.019-4.125C168.545,914.958,171.317,747.67,176.143,726.758Z" transform="translate(-155.235 -724.179)" fill="#ececec"/>
        <path id="Trazado_116285" data-name="Trazado 116285" d="M176.26,726.99c0-.186,1.377-.336,3.912-.328,61.309.192,1039.038,2.81,1039.893,5.155,9.914,27.182,17.389,241.1,23.4,275.207a4.387,4.387,0,0,1-1.257,3.876c-7.165,7.765-59.342,4.74-94.373,2.845-26.263-1.42-339.584-21.272-483.754-21.272s-368.5,10.828-418.567,14.89c-49.933,4.052-85.785,18.53-86.93-4.736a22.518,22.518,0,0,1-.04-4.113C168.689,915.6,171.472,747.74,176.26,726.99Z" transform="translate(-155.352 -724.275)" fill="#ebebeb"/>
        <path id="Trazado_116286" data-name="Trazado 116286" d="M176.378,727.222c0-.2,1.375-.353,3.9-.345,60.83.191,1039.052,2.785,1039.915,5.134,9.9,26.945,17.273,241.107,23.217,274.948a4.37,4.37,0,0,1-1.269,3.866c-7.13,7.685-59.587,4.7-94.344,2.823-26.058-1.409-340.525-21.105-483.568-21.105s-368.729,10.743-418.405,14.774c-49.543,4.02-85.709,18.379-86.965-4.7a21.82,21.82,0,0,1-.061-4.1C168.826,916.248,171.627,747.81,176.378,727.222Z" transform="translate(-155.468 -724.371)" fill="#eaeaea"/>
        <path id="Trazado_116287" data-name="Trazado 116287" d="M176.495,727.454c0-.205,1.374-.369,3.893-.363,60.352.19,1039.065,2.76,1039.936,5.114,9.887,26.71,17.158,241.111,23.034,274.688a4.355,4.355,0,0,1-1.281,3.855c-7.1,7.605-59.832,4.666-94.316,2.8-25.852-1.4-341.466-20.94-483.383-20.94s-368.958,10.658-418.244,14.658c-49.153,3.988-85.64,18.228-87-4.663a21.157,21.157,0,0,1-.082-4.088C168.972,916.893,171.781,747.879,176.495,727.454Z" transform="translate(-155.584 -724.467)" fill="#e9e9e9"/>
        <path id="Trazado_116288" data-name="Trazado 116288" d="M176.611,727.686c0-.215,1.374-.387,3.885-.38,59.872.188,1039.078,2.734,1039.958,5.093,9.873,26.474,17.036,241.116,22.851,274.43a4.335,4.335,0,0,1-1.292,3.844c-7.062,7.523-60.076,4.629-94.286,2.778-25.648-1.386-342.408-20.773-483.2-20.773s-369.189,10.574-418.083,14.541c-48.762,3.957-85.565,18.075-87.031-4.625a20.478,20.478,0,0,1-.1-4.076C169.123,917.539,171.935,747.949,176.611,727.686Z" transform="translate(-155.7 -724.564)" fill="#e8e8e8"/>
        <path id="Trazado_116289" data-name="Trazado 116289" d="M176.728,727.918c0-.224,1.372-.4,3.875-.4,59.393.187,1039.091,2.709,1039.979,5.073,9.857,26.239,16.926,241.118,22.669,274.169a4.321,4.321,0,0,1-1.3,3.834c-7.027,7.443-60.321,4.592-94.258,2.756-25.442-1.376-343.348-20.608-483.012-20.608s-369.418,10.489-417.922,14.425c-48.372,3.925-85.493,17.923-87.066-4.588a19.837,19.837,0,0,1-.125-4.064C169.262,918.183,172.089,748.02,176.728,727.918Z" transform="translate(-155.816 -724.66)" fill="#e7e7e7"/>
        <path id="Trazado_116290" data-name="Trazado 116290" d="M176.844,728.15c0-.234,1.372-.421,3.866-.414,58.915.185,1039.1,2.684,1040,5.052,9.84,26,16.8,241.123,22.485,273.91a4.3,4.3,0,0,1-1.316,3.823c-6.991,7.363-60.565,4.554-94.228,2.734-25.237-1.365-344.29-20.441-482.828-20.441s-369.648,10.4-417.76,14.309c-47.982,3.894-85.422,17.77-87.1-4.552a19.242,19.242,0,0,1-.146-4.05C169.408,918.829,172.243,748.089,176.844,728.15Z" transform="translate(-155.931 -724.756)" fill="#e6e6e6"/>
        <path id="Trazado_116291" data-name="Trazado 116291" d="M176.96,728.382c0-.242,1.371-.437,3.858-.431,58.435.184,1039.117,2.659,1040.022,5.031,9.818,25.77,16.682,241.127,22.3,273.651a4.285,4.285,0,0,1-1.328,3.812c-6.956,7.282-60.81,4.518-94.2,2.712-25.032-1.355-345.231-20.275-482.642-20.275s-369.879,10.32-417.6,14.192c-47.593,3.862-85.351,17.616-87.133-4.514a18.655,18.655,0,0,1-.167-4.038C169.553,919.474,172.4,748.159,176.96,728.382Z" transform="translate(-156.046 -724.852)" fill="#e5e5e5"/>
        <path id="Trazado_116292" data-name="Trazado 116292" d="M177.076,728.614c0-.252,1.369-.456,3.848-.448,57.957.182,1039.131,2.633,1040.043,5.011,9.8,25.536,16.571,241.129,22.121,273.391a4.272,4.272,0,0,1-1.34,3.8c-6.92,7.2-61.055,4.48-94.17,2.689-24.827-1.343-346.171-20.109-482.457-20.109s-370.109,10.235-417.438,14.076c-47.2,3.831-85.279,17.462-87.166-4.477a18.094,18.094,0,0,1-.189-4.025C169.7,920.12,172.549,748.229,177.076,728.614Z" transform="translate(-156.162 -724.949)" fill="#e4e4e4"/>
        <path id="Trazado_116293" data-name="Trazado 116293" d="M177.191,728.846c0-.261,1.368-.472,3.839-.465,57.477.181,1039.144,2.608,1040.065,4.99,9.777,25.3,16.447,241.135,21.937,273.132a4.252,4.252,0,0,1-1.351,3.791c-6.884,7.123-61.3,4.443-94.141,2.667-24.621-1.332-347.112-19.943-482.272-19.943s-370.339,10.151-417.277,13.96c-46.812,3.8-85.21,17.306-87.2-4.441a17.587,17.587,0,0,1-.21-4.013C169.839,920.766,172.7,748.3,177.191,728.846Z" transform="translate(-156.276 -725.045)" fill="#e3e3e3"/>
        <path id="Trazado_116294" data-name="Trazado 116294" d="M177.308,729.078c0-.271,1.367-.489,3.83-.482,57,.179,1039.158,2.583,1040.086,4.97,9.754,25.068,16.329,241.138,21.754,272.872a4.238,4.238,0,0,1-1.363,3.781c-6.848,7.042-61.544,4.406-94.113,2.644-24.415-1.321-348.053-19.776-482.086-19.776S294.848,1003.153,248.3,1006.93c-46.422,3.766-85.141,17.151-87.234-4.4a17.074,17.074,0,0,1-.23-4C169.992,921.412,172.855,748.369,177.308,729.078Z" transform="translate(-156.392 -725.141)" fill="#e2e2e2"/>
        <path id="Trazado_116295" data-name="Trazado 116295" d="M177.423,729.31c0-.28,1.366-.506,3.821-.5,56.519.177,1039.17,2.557,1040.108,4.949,9.73,24.835,16.212,241.142,21.572,272.613a4.221,4.221,0,0,1-1.374,3.77c-6.81,6.964-61.789,4.369-94.083,2.622-24.211-1.309-348.995-19.61-481.9-19.61s-370.8,9.981-416.954,13.727c-46.032,3.736-85.073,17-87.268-4.366a16.578,16.578,0,0,1-.252-3.988C170.14,922.058,173.009,748.439,177.423,729.31Z" transform="translate(-156.506 -725.238)" fill="#e1e1e1"/>
        <path id="Trazado_116296" data-name="Trazado 116296" d="M177.538,729.542c0-.289,1.365-.523,3.812-.516,56.041.176,1039.184,2.531,1040.129,4.928,9.7,24.6,16.089,241.147,21.389,272.353a4.2,4.2,0,0,1-1.385,3.76c-6.774,6.884-62.034,4.333-94.055,2.6-24.006-1.3-349.936-19.444-481.716-19.444s-371.029,9.9-416.794,13.61c-45.642,3.7-85,16.838-87.3-4.329a16.11,16.11,0,0,1-.273-3.976C170.287,922.7,173.161,748.509,177.538,729.542Z" transform="translate(-156.621 -725.334)" fill="#e0e0e0"/>
        <path id="Trazado_116297" data-name="Trazado 116297" d="M177.653,729.774c0-.3,1.363-.54,3.8-.533,55.561.174,1039.2,2.506,1040.151,4.907,9.675,24.371,15.97,241.151,21.206,272.094a4.186,4.186,0,0,1-1.4,3.748c-6.737,6.806-62.279,4.3-94.026,2.579-23.8-1.288-350.877-19.278-481.531-19.278S294.6,1003.1,249.227,1006.786c-45.252,3.672-84.939,16.682-87.335-4.292a15.7,15.7,0,0,1-.294-3.963C170.427,923.349,173.314,748.578,177.653,729.774Z" transform="translate(-156.735 -725.43)" fill="#dfdfdf"/>
        <path id="Trazado_116298" data-name="Trazado 116298" d="M177.768,730.006c0-.308,1.363-.557,3.794-.55,55.083.173,1039.21,2.48,1040.172,4.887,9.647,24.139,15.852,241.155,21.023,271.834a4.172,4.172,0,0,1-1.41,3.738c-6.7,6.726-62.523,4.259-94,2.556-23.6-1.277-351.818-19.112-481.345-19.112s-371.489,9.728-416.471,13.378c-44.862,3.641-84.872,16.524-87.369-4.255a15.247,15.247,0,0,1-.316-3.95C170.576,923.995,173.466,748.649,177.768,730.006Z" transform="translate(-156.849 -725.527)" fill="#dedede"/>
        <path id="Trazado_116299" data-name="Trazado 116299" d="M177.884,730.238c0-.318,1.361-.574,3.785-.568,54.6.172,1039.223,2.455,1040.193,4.866,9.615,23.908,15.728,241.161,20.841,271.575a4.157,4.157,0,0,1-1.421,3.727c-6.66,6.648-62.768,4.222-93.967,2.534-23.391-1.265-352.76-18.945-481.16-18.945s-371.719,9.643-416.31,13.262c-44.471,3.609-84.806,16.365-87.4-4.218a14.872,14.872,0,0,1-.337-3.938C170.724,924.64,173.619,748.718,177.884,730.238Z" transform="translate(-156.964 -725.622)" fill="#ddd"/>
        <path id="Trazado_116300" data-name="Trazado 116300" d="M178,730.47c0-.327,1.361-.591,3.775-.585,54.125.17,1039.237,2.43,1040.216,4.846,9.584,23.677,15.608,241.165,20.657,271.316a4.141,4.141,0,0,1-1.432,3.717c-6.621,6.57-63.012,4.184-93.939,2.512-23.185-1.255-353.7-18.78-480.974-18.78s-371.949,9.558-416.149,13.145c-44.081,3.577-84.743,16.206-87.436-4.181a14.45,14.45,0,0,1-.357-3.925C170.873,925.286,173.771,748.788,178,730.47Z" transform="translate(-157.078 -725.719)" fill="#dcdcdc"/>
        <path id="Trazado_116301" data-name="Trazado 116301" d="M178.1,730.7c0-.336,1.359-.608,3.766-.6,53.646.169,1039.25,2.4,1040.237,4.825,9.552,23.446,15.489,241.169,20.475,271.056a4.124,4.124,0,0,1-1.444,3.706c-6.583,6.492-63.257,4.147-93.909,2.489-22.98-1.243-354.641-18.613-480.789-18.613s-372.179,9.474-415.988,13.029c-43.691,3.546-88.251,16.223-87.47-4.144a9.377,9.377,0,0,1-.379-3.913C171.008,925.933,173.909,748.858,178.1,730.7Z" transform="translate(-157.178 -725.815)" fill="#dbdbdb"/>
        <path id="Trazado_116302" data-name="Trazado 116302" d="M178.214,730.934c0-.346,1.358-.625,3.758-.619,53.167.167,1039.263,2.378,1040.258,4.8,9.516,23.216,15.365,241.174,20.292,270.8a4.109,4.109,0,0,1-1.456,3.7c-6.544,6.413-63.5,4.11-93.881,2.467-22.775-1.231-355.582-18.447-480.6-18.447s-372.409,9.389-415.826,12.913c-43.3,3.514-88.278,16.078-87.5-4.107a9.115,9.115,0,0,1-.4-3.9C171.157,926.579,174.061,748.928,178.214,730.934Z" transform="translate(-157.292 -725.911)" fill="#dadada"/>
        <path id="Trazado_116303" data-name="Trazado 116303" d="M178.329,731.166c0-.355,1.357-.642,3.749-.636,52.688.166,1039.276,2.352,1040.279,4.784,9.484,22.985,15.244,241.179,20.109,270.538a4.094,4.094,0,0,1-1.467,3.685c-6.5,6.337-63.747,4.073-93.852,2.445-22.569-1.221-356.523-18.281-480.418-18.281s-372.639,9.3-415.665,12.8c-42.911,3.483-88.3,15.934-87.537-4.07a8.871,8.871,0,0,1-.421-3.888C171.309,927.226,174.214,749,178.329,731.166Z" transform="translate(-157.406 -726.008)" fill="#d9d9d9"/>
        <path id="Trazado_116304" data-name="Trazado 116304" d="M178.444,731.4c0-.364,1.356-.659,3.739-.653,52.209.164,1039.289,2.326,1040.3,4.763,9.445,22.756,15.124,241.183,19.926,270.278a4.079,4.079,0,0,1-1.479,3.675c-6.464,6.258-63.991,4.036-93.822,2.422-22.365-1.209-357.465-18.114-480.234-18.114s-372.868,9.22-415.5,12.68c-42.521,3.451-88.331,15.788-87.571-4.033a8.63,8.63,0,0,1-.442-3.876C171.451,927.871,174.367,749.068,178.444,731.4Z" transform="translate(-157.521 -726.104)" fill="#d8d8d8"/>
        <path id="Trazado_116305" data-name="Trazado 116305" d="M178.559,731.63c0-.373,1.355-.676,3.73-.67,51.73.162,1039.3,2.3,1040.323,4.743,9.408,22.527,15,241.187,19.743,270.018a4.066,4.066,0,0,1-1.491,3.664c-6.424,6.182-64.236,4-93.794,2.4-22.159-1.2-358.405-17.948-480.048-17.948s-373.1,9.135-415.343,12.564c-42.131,3.418-88.358,15.643-87.605-4a8.407,8.407,0,0,1-.463-3.864C171.6,928.518,174.519,749.137,178.559,731.63Z" transform="translate(-157.635 -726.2)" fill="#d7d7d7"/>
        <path id="Trazado_116306" data-name="Trazado 116306" d="M178.674,731.862c0-.383,1.354-.693,3.721-.687,51.251.161,1039.316,2.274,1040.344,4.722,9.37,22.3,14.877,241.193,19.56,269.759a4.05,4.05,0,0,1-1.5,3.653c-6.383,6.1-64.481,3.961-93.765,2.378C1125.078,1010.5,787.686,993.9,667.169,993.9s-373.328,9.051-415.182,12.447c-41.741,3.387-88.385,15.5-87.638-3.959a8.177,8.177,0,0,1-.485-3.85C171.761,929.165,174.671,749.208,178.674,731.862Z" transform="translate(-157.749 -726.296)" fill="#d6d6d6"/>
        <path id="Trazado_116307" data-name="Trazado 116307" d="M178.789,732.094c0-.392,1.353-.71,3.712-.7,50.772.16,1039.328,2.248,1040.365,4.7,9.328,22.07,14.756,241.2,19.378,269.5a4.036,4.036,0,0,1-1.515,3.643c-6.341,6.029-64.725,3.925-93.736,2.356-21.748-1.177-360.288-17.617-479.677-17.617S293.758,1002.939,252.3,1006.3c-41.35,3.356-88.411,15.354-87.672-3.922a7.973,7.973,0,0,1-.506-3.838C171.906,929.811,174.823,749.277,178.789,732.094Z" transform="translate(-157.863 -726.393)" fill="#d5d5d5"/>
        <path id="Trazado_116308" data-name="Trazado 116308" d="M178.9,732.326c0-.4,1.352-.727,3.7-.721,50.293.158,1039.342,2.222,1040.387,4.68,9.289,21.841,14.635,241.2,19.2,269.24a4.02,4.02,0,0,1-1.526,3.632c-6.3,5.952-64.97,3.888-93.707,2.333-21.543-1.165-361.228-17.449-479.492-17.449s-373.788,8.882-414.859,12.215c-40.96,3.324-88.438,15.209-87.706-3.885a7.769,7.769,0,0,1-.527-3.825C172.058,930.458,174.976,749.347,178.9,732.326Z" transform="translate(-157.977 -726.489)" fill="#d4d4d4"/>
        <path id="Trazado_116309" data-name="Trazado 116309" d="M179.018,732.558c0-.411,1.351-.744,3.694-.738,49.814.156,1039.354,2.2,1040.408,4.66,9.245,21.614,14.513,241.207,19.012,268.981a4,4,0,0,1-1.538,3.621c-6.257,5.877-65.215,3.851-93.677,2.311-21.339-1.154-362.17-17.284-479.307-17.284s-374.019,8.8-414.7,12.1c-40.571,3.292-88.465,15.064-87.74-3.848a7.574,7.574,0,0,1-.548-3.813C172.212,931.1,175.128,749.417,179.018,732.558Z" transform="translate(-158.091 -726.585)" fill="#d3d3d3"/>
        <path id="Trazado_116310" data-name="Trazado 116310" d="M179.134,732.79c0-.42,1.35-.761,3.685-.755,49.335.155,1039.367,2.171,1040.429,4.639,9.2,21.387,14.387,241.212,18.83,268.72a3.992,3.992,0,0,1-1.549,3.611c-6.217,5.8-65.46,3.814-93.649,2.289-21.133-1.143-363.11-17.118-479.122-17.118s-374.248,8.712-414.537,11.982c-40.18,3.261-88.492,14.92-87.774-3.811a7.4,7.4,0,0,1-.569-3.8C172.365,931.751,175.28,749.487,179.134,732.79Z" transform="translate(-158.205 -726.682)" fill="#d2d2d2"/>
        <path id="Trazado_116311" data-name="Trazado 116311" d="M179.248,733.022c0-.43,1.348-.778,3.676-.772,48.856.154,1039.38,2.144,1040.451,4.618,9.157,21.16,14.264,241.217,18.646,268.461a3.976,3.976,0,0,1-1.561,3.6c-6.173,5.725-65.7,3.778-93.62,2.267-20.928-1.131-364.052-16.951-478.937-16.951s-374.478,8.628-414.376,11.866c-39.79,3.229-88.518,14.774-87.807-3.774a7.217,7.217,0,0,1-.591-3.789C172.512,932.4,175.432,749.557,179.248,733.022Z" transform="translate(-158.319 -726.778)" fill="#d1d1d1"/>
        <path id="Trazado_116312" data-name="Trazado 116312" d="M179.362,733.254c0-.439,1.348-.8,3.667-.79,48.377.152,1039.393,2.119,1040.472,4.6,9.109,20.934,14.141,241.222,18.464,268.2a3.961,3.961,0,0,1-1.573,3.589c-6.131,5.65-65.95,3.74-93.591,2.245-20.724-1.121-364.993-16.785-478.752-16.785s-374.708,8.543-414.214,11.75c-39.4,3.2-88.545,14.63-87.841-3.737a7.05,7.05,0,0,1-.612-3.776C172.667,933.044,175.584,749.626,179.362,733.254Z" transform="translate(-158.433 -726.874)" fill="#d0d0d0"/>
        <path id="Trazado_116313" data-name="Trazado 116313" d="M179.477,733.486c0-.448,1.346-.812,3.658-.806,47.9.15,1039.407,2.092,1040.494,4.577,9.062,20.708,14.014,241.228,18.281,267.943a3.946,3.946,0,0,1-1.584,3.578c-6.088,5.575-66.194,3.7-93.562,2.223-20.518-1.109-365.934-16.619-478.566-16.619s-374.938,8.458-414.054,11.633c-39.01,3.165-88.571,14.485-87.874-3.7a6.878,6.878,0,0,1-.633-3.763C172.827,933.692,175.736,749.7,179.477,733.486Z" transform="translate(-158.547 -726.97)" fill="#cfcfcf"/>
        <path id="Trazado_116314" data-name="Trazado 116314" d="M179.592,733.718c0-.458,1.346-.829,3.649-.823,47.419.148,1039.419,2.066,1040.515,4.557,9.014,20.482,13.891,241.232,18.1,267.683a3.932,3.932,0,0,1-1.6,3.567c-6.044,5.5-66.439,3.666-93.533,2.2-20.313-1.1-366.875-16.453-478.381-16.453s-375.168,8.374-413.893,11.516c-38.62,3.134-88.6,14.34-87.908-3.663a6.72,6.72,0,0,1-.654-3.75C172.983,934.339,175.888,749.767,179.592,733.718Z" transform="translate(-158.661 -727.067)" fill="#cecece"/>
        <path id="Trazado_116315" data-name="Trazado 116315" d="M179.707,733.95c0-.467,1.344-.847,3.639-.841,46.94.148,1039.432,2.04,1040.536,4.536,8.963,20.258,13.768,241.238,17.916,267.424a3.92,3.92,0,0,1-1.609,3.557c-6,5.426-66.683,3.629-93.5,2.178-20.107-1.087-367.815-16.286-478.2-16.286s-375.4,8.289-413.731,11.4c-38.23,3.1-88.626,14.2-87.942-3.626a6.573,6.573,0,0,1-.675-3.738C173.132,934.985,176.04,749.836,179.707,733.95Z" transform="translate(-158.774 -727.162)" fill="#cdcdcd"/>
        <path id="Trazado_116316" data-name="Trazado 116316" d="M179.821,734.181c0-.476,1.343-.863,3.631-.858,46.461.146,1039.445,2.014,1040.559,4.516,8.914,20.032,13.643,241.243,17.732,267.165a3.9,3.9,0,0,1-1.62,3.546c-5.955,5.353-66.928,3.592-93.475,2.156-19.9-1.077-368.757-16.12-478.01-16.12s-375.628,8.2-413.57,11.284c-37.84,3.071-88.652,14.05-87.976-3.589a6.422,6.422,0,0,1-.7-3.726C173.288,935.633,176.192,749.907,179.821,734.181Z" transform="translate(-158.888 -727.259)" fill="#ccc"/>
        <path id="Trazado_116317" data-name="Trazado 116317" d="M179.935,734.414c0-.485,1.342-.88,3.622-.875,45.982.145,1039.458,1.988,1040.58,4.495,8.861,19.809,13.515,241.249,17.549,266.905a3.891,3.891,0,0,1-1.631,3.536c-5.909,5.279-67.173,3.554-93.446,2.134-19.7-1.066-369.7-15.954-477.825-15.954s-375.858,8.12-413.409,11.168c-37.45,3.039-88.679,13.906-88.009-3.552a6.29,6.29,0,0,1-.718-3.713C173.445,936.28,176.344,749.976,179.935,734.414Z" transform="translate(-159.002 -727.355)" fill="#cbcbcb"/>
        <path id="Trazado_116318" data-name="Trazado 116318" d="M180.049,734.646c0-.495,1.341-.9,3.612-.892,45.5.143,1039.472,1.961,1040.6,4.474,8.807,19.585,13.391,241.254,17.367,266.646a3.88,3.88,0,0,1-1.643,3.525c-5.864,5.205-67.417,3.517-93.417,2.112-19.492-1.055-370.639-15.788-477.64-15.788s-376.088,8.036-413.248,11.051c-37.059,3.007-88.705,13.76-88.043-3.515a6.152,6.152,0,0,1-.739-3.7C173.6,936.926,176.5,750.046,180.049,734.646Z" transform="translate(-159.116 -727.451)" fill="#cacaca"/>
        <path id="Trazado_116319" data-name="Trazado 116319" d="M180.164,734.878c0-.5,1.34-.914,3.6-.909,45.025.141,1039.484,1.935,1040.623,4.453,8.754,19.361,13.266,241.259,17.184,266.387a3.866,3.866,0,0,1-1.654,3.514c-5.818,5.133-67.662,3.481-93.388,2.089-19.287-1.044-371.58-15.622-477.455-15.622s-376.318,7.951-413.086,10.935c-36.669,2.975-88.733,13.616-88.077-3.478a6.023,6.023,0,0,1-.76-3.688C173.758,937.574,176.648,750.116,180.164,734.878Z" transform="translate(-159.229 -727.548)" fill="#c9c9c9"/>
        <path id="Trazado_116320" data-name="Trazado 116320" d="M180.278,735.11c0-.514,1.339-.932,3.595-.926,44.545.14,1039.5,1.909,1040.644,4.433,8.7,19.138,13.136,241.265,17,266.127a3.851,3.851,0,0,1-1.665,3.5c-5.773,5.06-67.907,3.444-93.359,2.067-19.081-1.032-372.521-15.456-477.269-15.456s-376.548,7.867-412.925,10.819c-36.279,2.944-88.759,13.471-88.11-3.441a5.9,5.9,0,0,1-.781-3.676C173.917,938.222,176.8,750.186,180.278,735.11Z" transform="translate(-159.343 -727.644)" fill="#c8c8c8"/>
        <path id="Trazado_116321" data-name="Trazado 116321" d="M180.393,735.342c0-.522,1.337-.948,3.585-.943,44.066.139,1039.509,1.882,1040.665,4.412,8.642,18.916,13.011,241.271,16.819,265.868a3.839,3.839,0,0,1-1.678,3.493c-5.727,4.987-68.151,3.406-93.33,2.044-18.876-1.021-373.463-15.289-477.084-15.289s-376.778,7.782-412.765,10.7c-35.889,2.913-88.785,13.326-88.144-3.4a5.781,5.781,0,0,1-.8-3.663C174.074,938.869,176.951,750.256,180.393,735.342Z" transform="translate(-159.456 -727.74)" fill="#c7c7c7"/>
        <path id="Trazado_116322" data-name="Trazado 116322" d="M180.507,735.574c0-.532,1.337-.965,3.576-.96,43.587.137,1039.523,1.856,1040.687,4.392,8.585,18.693,12.885,241.276,16.636,265.608a3.826,3.826,0,0,1-1.689,3.482c-5.68,4.916-68.4,3.37-93.3,2.023-18.672-1.01-374.4-15.123-476.9-15.123s-377.008,7.7-412.6,10.586c-35.5,2.88-88.812,13.181-88.178-3.367a5.66,5.66,0,0,1-.824-3.65C174.228,939.516,177.1,750.326,180.507,735.574Z" transform="translate(-159.57 -727.836)" fill="#c6c6c6"/>
        <path id="Trazado_116323" data-name="Trazado 116323" d="M180.621,735.806c0-.542,1.336-.982,3.567-.977,43.108.135,1039.536,1.829,1040.709,4.371,8.525,18.471,12.755,241.282,16.453,265.348.23,1.5-.666,2.581-1.7,3.472-5.634,4.843-68.641,3.333-93.272,2-18.466-1-375.344-14.957-476.714-14.957s-377.238,7.613-412.441,10.469c-35.11,2.849-88.839,13.036-88.211-3.33a5.551,5.551,0,0,1-.845-3.638C174.388,940.164,177.255,750.4,180.621,735.806Z" transform="translate(-159.684 -727.933)" fill="#c5c5c5"/>
        <path id="Trazado_116324" data-name="Trazado 116324" d="M180.736,736.038c0-.551,1.335-1,3.558-.994,42.629.134,1039.548,1.8,1040.73,4.35,8.467,18.249,12.629,241.288,16.27,265.089.229,1.5-.675,2.574-1.713,3.461-5.586,4.772-68.886,3.3-93.244,1.978-18.261-.988-376.285-14.791-476.528-14.791s-377.468,7.528-412.281,10.353c-34.719,2.817-88.866,12.891-88.245-3.293a5.441,5.441,0,0,1-.866-3.625C174.547,940.812,177.406,750.466,180.736,736.038Z" transform="translate(-159.797 -728.029)" fill="#c4c4c4"/>
        <path id="Trazado_116325" data-name="Trazado 116325" d="M180.85,736.27c0-.56,1.334-1.016,3.549-1.011,42.15.133,1039.561,1.776,1040.752,4.33,8.406,18.028,12.5,241.293,16.087,264.83a3.363,3.363,0,0,1-1.724,3.45c-4.623,5.6-69.13,3.258-93.214,1.956-18.056-.977-377.227-14.625-476.344-14.625s-377.7,7.444-412.119,10.237c-34.329,2.786-88.892,12.747-88.279-3.256a5.337,5.337,0,0,1-.887-3.613C174.713,941.46,177.558,750.536,180.85,736.27Z" transform="translate(-159.911 -728.125)" fill="#c3c3c3"/>
        <path id="Trazado_116326" data-name="Trazado 116326" d="M180.965,736.5c0-.57,1.332-1.033,3.539-1.028,41.672.131,1039.574,1.75,1040.773,4.309,8.343,17.808,12.377,241.3,15.905,264.57a3.348,3.348,0,0,1-1.737,3.44c-4.57,5.539-69.375,3.221-93.186,1.934-17.85-.966-378.168-14.458-476.158-14.458s-377.928,7.36-411.958,10.121c-33.939,2.754-88.92,12.6-88.312-3.219a5.237,5.237,0,0,1-.908-3.6C174.869,942.107,177.71,750.605,180.965,736.5Z" transform="translate(-160.024 -728.222)" fill="#c2c2c2"/>
        <path id="Trazado_116327" data-name="Trazado 116327" d="M181.079,736.734c0-.579,1.331-1.05,3.531-1.045,41.192.129,1039.587,1.723,1040.794,4.288,8.282,17.587,12.249,241.305,15.722,264.311a3.333,3.333,0,0,1-1.748,3.429c-4.518,5.475-69.62,3.184-93.157,1.912-17.645-.955-379.109-14.293-475.972-14.293s-378.158,7.275-411.8,10c-33.548,2.723-88.946,12.457-88.346-3.182a5.137,5.137,0,0,1-.929-3.588C175.029,942.755,177.862,750.675,181.079,736.734Z" transform="translate(-160.138 -728.318)" fill="#c1c1c1"/>
        <path id="Trazado_116328" data-name="Trazado 116328" d="M181.193,736.966c0-.589,1.33-1.067,3.521-1.063,40.714.128,1039.6,1.7,1040.816,4.268,8.218,17.368,12.117,241.311,15.538,264.052a3.314,3.314,0,0,1-1.759,3.418c-4.465,5.412-69.865,3.147-93.127,1.889-17.44-.943-380.05-14.126-475.788-14.126s-378.388,7.19-411.636,9.888c-33.158,2.691-88.972,12.313-88.38-3.145a5.052,5.052,0,0,1-.951-3.576C175.19,943.4,178.013,750.745,181.193,736.966Z" transform="translate(-160.251 -728.414)" fill="silver"/>
        <path id="Trazado_116329" data-name="Trazado 116329" d="M181.307,737.2c0-.6,1.329-1.084,3.512-1.079,40.234.126,1039.612,1.67,1040.837,4.247,8.154,17.148,11.99,241.317,15.357,263.792a3.3,3.3,0,0,1-1.771,3.408c-4.412,5.348-70.109,3.11-93.1,1.866-17.235-.932-380.99-13.96-475.6-13.96s-378.618,7.105-411.475,9.772c-32.768,2.659-89,12.167-88.414-3.108a4.963,4.963,0,0,1-.972-3.564C175.347,944.051,178.165,750.815,181.307,737.2Z" transform="translate(-160.364 -728.51)" fill="#bfbfbf"/>
        <path id="Trazado_116330" data-name="Trazado 116330" d="M181.421,737.43c0-.607,1.328-1.1,3.5-1.1,39.755.125,1039.625,1.643,1040.859,4.226,8.088,16.929,11.861,241.323,15.173,263.533a3.285,3.285,0,0,1-1.782,3.4c-4.361,5.284-70.354,3.073-93.07,1.845-17.03-.921-381.933-13.794-475.417-13.794s-378.848,7.021-411.314,9.656c-32.378,2.627-89.026,12.022-88.447-3.071a4.876,4.876,0,0,1-.993-3.551C175.509,944.7,178.316,750.885,181.421,737.43Z" transform="translate(-160.478 -728.607)" fill="#bebebe"/>
        <path id="Trazado_116331" data-name="Trazado 116331" d="M181.536,737.662c0-.616,1.326-1.118,3.494-1.114,39.276.124,1039.637,1.617,1040.88,4.206,8.02,16.71,11.729,241.329,14.991,263.273a3.272,3.272,0,0,1-1.795,3.387c-4.308,5.221-70.6,3.036-93.041,1.822-16.824-.909-382.872-13.627-475.231-13.627s-379.078,6.936-411.152,9.539c-31.989,2.6-89.053,11.877-88.481-3.034a4.789,4.789,0,0,1-1.014-3.538C175.678,945.347,178.468,750.954,181.536,737.662Z" transform="translate(-160.591 -728.703)" fill="#bdbdbd"/>
        <path id="Trazado_116332" data-name="Trazado 116332" d="M181.65,737.894c0-.626,1.326-1.135,3.485-1.131,38.8.122,1039.65,1.591,1040.9,4.185,7.953,16.492,11.6,241.335,14.808,263.014a3.256,3.256,0,0,1-1.807,3.376c-4.255,5.157-70.843,3-93.011,1.8-16.62-.9-383.814-13.461-475.047-13.461s-379.308,6.852-410.991,9.422c-31.6,2.564-89.079,11.733-88.515-3a4.706,4.706,0,0,1-1.035-3.526C175.841,945.995,178.619,751.024,181.65,737.894Z" transform="translate(-160.705 -728.799)" fill="#bcbcbc"/>
        <path id="Trazado_116333" data-name="Trazado 116333" d="M181.764,738.126c0-.635,1.325-1.152,3.477-1.148,38.318.12,1039.663,1.564,1040.923,4.165,7.885,16.274,11.472,241.341,14.625,262.754a3.24,3.24,0,0,1-1.818,3.366c-4.2,5.093-71.088,2.962-92.982,1.777-16.415-.888-384.755-13.295-474.861-13.295s-379.538,6.767-410.83,9.307c-31.208,2.532-89.107,11.588-88.549-2.96a4.63,4.63,0,0,1-1.056-3.513C176,946.643,178.771,751.095,181.764,738.126Z" transform="translate(-160.818 -728.895)" fill="#bbb"/>
        <path id="Trazado_116334" data-name="Trazado 116334" d="M181.877,738.358c0-.644,1.324-1.169,3.468-1.165,37.84.119,1039.675,1.537,1040.944,4.144,7.816,16.056,11.339,241.349,14.443,262.5a3.226,3.226,0,0,1-1.83,3.354c-4.15,5.03-71.333,2.925-92.954,1.756-16.209-.877-385.7-13.129-474.675-13.129S291.5,1002.5,260.6,1005c-30.818,2.5-89.133,11.443-88.582-2.923a4.556,4.556,0,0,1-1.077-3.5C176.165,947.291,178.922,751.164,181.877,738.358Z" transform="translate(-160.932 -728.991)" fill="#bababa"/>
        <path id="Trazado_116335" data-name="Trazado 116335" d="M181.992,738.59c0-.653,1.322-1.186,3.458-1.182,37.36.118,1039.688,1.51,1040.966,4.123,7.745,15.839,11.209,241.355,14.259,262.235a3.21,3.21,0,0,1-1.841,3.343c-4.1,4.967-71.578,2.889-92.924,1.734-16-.865-386.637-12.963-474.491-12.963s-380,6.6-410.508,9.073c-30.428,2.469-89.16,11.3-88.616-2.886a4.481,4.481,0,0,1-1.1-3.488C176.33,947.94,179.074,751.234,181.992,738.59Z" transform="translate(-161.045 -729.088)" fill="#b9b9b9"/>
        <path id="Trazado_116336" data-name="Trazado 116336" d="M182.106,738.822c0-.663,1.321-1.2,3.449-1.2,36.881.116,1039.7,1.484,1040.988,4.1,7.673,15.623,11.08,241.361,14.076,261.975a3.2,3.2,0,0,1-1.853,3.333c-4.045,4.9-71.822,2.851-92.9,1.712-15.8-.855-387.579-12.8-474.305-12.8s-380.228,6.514-410.347,8.958c-30.038,2.437-89.187,11.154-88.65-2.849a4.409,4.409,0,0,1-1.12-3.475C176.491,948.588,179.226,751.3,182.106,738.822Z" transform="translate(-161.158 -729.184)" fill="#b8b8b8"/>
        <path id="Trazado_116337" data-name="Trazado 116337" d="M182.22,739.054c0-.672,1.32-1.22,3.44-1.216,36.4.114,1039.713,1.457,1041.009,4.082,7.6,15.406,10.945,241.367,13.893,261.717a3.18,3.18,0,0,1-1.864,3.322c-3.993,4.839-72.067,2.814-92.867,1.69-15.594-.843-388.52-12.631-474.12-12.631s-380.458,6.429-410.186,8.842c-29.647,2.405-89.213,11.008-88.684-2.812a4.344,4.344,0,0,1-1.141-3.463C176.662,949.237,179.377,751.374,182.22,739.054Z" transform="translate(-161.271 -729.28)" fill="#b7b7b7"/>
        <path id="Trazado_116338" data-name="Trazado 116338" d="M182.334,739.286c0-.682,1.319-1.237,3.431-1.233,35.923.113,1039.726,1.43,1041.03,4.061,7.528,15.19,10.819,241.373,13.711,261.456a3.169,3.169,0,0,1-1.876,3.312c-3.94,4.775-72.311,2.777-92.838,1.667-15.388-.832-389.46-12.464-473.935-12.464s-380.688,6.344-410.024,8.725c-29.257,2.374-89.24,10.864-88.717-2.775a4.278,4.278,0,0,1-1.162-3.451C176.828,949.885,179.528,751.444,182.334,739.286Z" transform="translate(-161.385 -729.377)" fill="#b6b6b6"/>
        <path id="Trazado_116339" data-name="Trazado 116339" d="M182.448,739.518c0-.691,1.319-1.255,3.422-1.25,35.444.111,1039.739,1.4,1041.052,4.04,7.453,14.975,10.684,241.381,13.528,261.2a3.156,3.156,0,0,1-1.888,3.3c-3.887,4.712-72.556,2.74-92.809,1.645-15.183-.821-390.4-12.3-473.75-12.3s-380.918,6.26-409.863,8.609c-28.868,2.342-89.267,10.719-88.751-2.738a4.213,4.213,0,0,1-1.183-3.438C176.995,950.534,179.68,751.514,182.448,739.518Z" transform="translate(-161.498 -729.473)" fill="#b5b5b5"/>
        <path id="Trazado_116340" data-name="Trazado 116340" d="M182.562,739.75c0-.7,1.317-1.271,3.412-1.267,34.966.11,1039.751,1.376,1041.073,4.02,7.378,14.759,10.549,241.388,13.345,260.938a3.14,3.14,0,0,1-1.9,3.29c-3.835,4.648-72.8,2.7-92.78,1.622-14.978-.81-391.343-12.131-473.565-12.131s-381.147,6.175-409.7,8.492c-28.478,2.311-89.294,10.574-88.785-2.7a4.15,4.15,0,0,1-1.2-3.425C177.159,951.182,179.831,751.584,182.562,739.75Z" transform="translate(-161.611 -729.569)" fill="#b4b4b4"/>
        <path id="Trazado_116341" data-name="Trazado 116341" d="M182.676,739.982c0-.71,1.316-1.288,3.4-1.284,34.487.108,1039.764,1.349,1041.095,4,7.3,14.545,10.421,241.394,13.162,260.678a3.128,3.128,0,0,1-1.912,3.28c-3.782,4.584-73.045,2.666-92.75,1.6-14.773-.8-392.284-11.966-473.379-11.966s-381.378,6.09-409.541,8.376c-28.087,2.279-89.32,10.43-88.818-2.664a4.093,4.093,0,0,1-1.226-3.413C177.326,951.831,179.982,751.654,182.676,739.982Z" transform="translate(-161.725 -729.665)" fill="#b3b3b3"/>
        <path id="Trazado_116342" data-name="Trazado 116342" d="M182.79,740.214c0-.719,1.315-1.305,3.395-1.3,34.007.107,1039.776,1.323,1041.116,3.979,7.226,14.33,10.287,241.4,12.98,260.419a3.116,3.116,0,0,1-1.923,3.269c-3.73,4.52-73.29,2.629-92.722,1.578-14.568-.788-393.225-11.8-473.194-11.8s-381.608,6.005-409.38,8.26c-27.7,2.247-89.347,10.284-88.851-2.627a4.036,4.036,0,0,1-1.247-3.4C177.5,952.48,180.134,751.724,182.79,740.214Z" transform="translate(-161.838 -729.762)" fill="#b2b2b2"/>
        <path id="Trazado_116343" data-name="Trazado 116343" d="M182.9,740.446c0-.728,1.314-1.322,3.385-1.319,33.529.105,1039.789,1.3,1041.137,3.958,7.148,14.117,10.151,241.408,12.8,260.16a3.1,3.1,0,0,1-1.934,3.258c-3.677,4.457-73.536,2.592-92.693,1.556-14.362-.777-394.166-11.633-473.009-11.633s-381.838,5.921-409.218,8.143c-27.307,2.216-89.374,10.14-88.886-2.59a3.98,3.98,0,0,1-1.268-3.388C177.669,953.129,180.285,751.793,182.9,740.446Z" transform="translate(-161.951 -729.857)" fill="#b1b1b1"/>
        <path id="Trazado_116344" data-name="Trazado 116344" d="M183.019,740.678c0-.738,1.313-1.34,3.376-1.336,33.05.1,1039.8,1.269,1041.159,3.938,7.069,13.9,10.021,241.413,12.614,259.9a3.09,3.09,0,0,1-1.946,3.248c-3.625,4.393-73.78,2.555-92.664,1.533-14.157-.766-395.108-11.467-472.824-11.467s-382.068,5.837-409.057,8.027c-26.917,2.184-89.4,9.994-88.919-2.553a3.926,3.926,0,0,1-1.289-3.375C177.834,953.777,180.437,751.863,183.019,740.678Z" transform="translate(-162.064 -729.954)" fill="#b0b0b0"/>
        <path id="Trazado_116345" data-name="Trazado 116345" d="M183.132,740.91c0-.747,1.311-1.357,3.367-1.353,32.571.1,1039.814,1.242,1041.18,3.917,6.99,13.69,9.886,241.422,12.431,259.641a3.077,3.077,0,0,1-1.958,3.237c-3.572,4.33-74.025,2.518-92.635,1.511-13.952-.755-396.048-11.3-472.638-11.3s-382.3,5.752-408.9,7.911c-26.527,2.152-89.427,9.85-88.953-2.516a3.874,3.874,0,0,1-1.311-3.363C178,954.426,180.588,751.933,183.132,740.91Z" transform="translate(-162.178 -730.05)" fill="#afafaf"/>
        <path id="Trazado_116346" data-name="Trazado 116346" d="M183.246,741.142c0-.756,1.311-1.373,3.358-1.369,32.092.1,1039.381,1.5,1041.2,3.9,4.453,14.476,9.752,241.427,12.248,259.381a3.066,3.066,0,0,1-1.97,3.227c-3.52,4.266-74.269,2.48-92.606,1.489-13.748-.744-396.989-11.135-472.453-11.135s-382.528,5.668-408.735,7.794c-26.137,2.121-89.454,9.7-88.987-2.479a3.824,3.824,0,0,1-1.332-3.35C178.175,955.076,180.74,752,183.246,741.142Z" transform="translate(-162.291 -730.147)" fill="#aeaeae"/>
        <path id="Trazado_116347" data-name="Trazado 116347" d="M183.36,741.374c0-.766,1.309-1.39,3.349-1.387,31.613.1,1039.388,1.473,1041.223,3.875,4.387,14.26,9.619,241.435,12.066,259.122a3.052,3.052,0,0,1-1.981,3.216c-3.468,4.2-74.515,2.445-92.578,1.467-13.542-.733-397.93-10.969-472.268-10.969s-382.757,5.583-408.573,7.678c-25.747,2.089-89.481,9.56-89.021-2.442a3.776,3.776,0,0,1-1.353-3.338C178.342,955.724,180.891,752.073,183.36,741.374Z" transform="translate(-162.404 -730.243)" fill="#adadad"/>
        <path id="Trazado_116348" data-name="Trazado 116348" d="M183.474,741.606c0-.775,1.309-1.408,3.34-1.4,31.134.1,1039.4,1.451,1041.244,3.855,4.321,14.043,9.482,241.442,11.883,258.862a3.04,3.04,0,0,1-1.993,3.205c-3.415,4.139-74.759,2.407-92.548,1.444-13.336-.721-398.871-10.8-472.082-10.8s-382.987,5.5-408.413,7.562c-25.356,2.057-89.507,9.415-89.054-2.405a3.728,3.728,0,0,1-1.374-3.325C178.514,956.373,181.042,752.143,183.474,741.606Z" transform="translate(-162.517 -730.339)" fill="#acacac"/>
        <path id="Trazado_116349" data-name="Trazado 116349" d="M183.588,741.838c0-.785,1.308-1.424,3.331-1.421,30.654.1,1039.4,1.428,1041.266,3.834,4.254,13.827,9.351,241.449,11.7,258.6a3.027,3.027,0,0,1-2,3.194c-3.362,4.075-75,2.37-92.519,1.422-13.132-.71-399.813-10.636-471.9-10.636s-383.217,5.413-408.251,7.445c-24.967,2.026-89.534,9.27-89.088-2.368a3.682,3.682,0,0,1-1.4-3.313C178.686,957.022,181.194,752.213,183.588,741.838Z" transform="translate(-162.63 -730.435)" fill="#ababab"/>
        <path id="Trazado_116350" data-name="Trazado 116350" d="M183.7,742.07c0-.794,1.306-1.441,3.322-1.438,30.176.095,1039.41,1.406,1041.287,3.813,4.188,13.611,9.214,241.456,11.518,258.344a3.016,3.016,0,0,1-2.017,3.184c-3.31,4.011-75.248,2.332-92.49,1.4-12.926-.7-400.753-10.47-471.712-10.47s-383.447,5.328-408.09,7.329c-24.577,1.994-89.561,9.126-89.121-2.331a3.639,3.639,0,0,1-1.417-3.3C178.863,957.672,181.345,752.283,183.7,742.07Z" transform="translate(-162.743 -730.531)" fill="#aaa"/>
        <path id="Trazado_116351" data-name="Trazado 116351" d="M183.816,742.3c0-.8,1.305-1.458,3.313-1.455,29.7.093,1039.418,1.384,1041.309,3.793,4.122,13.395,9.076,241.463,11.334,258.084a3,3,0,0,1-2.027,3.173c-3.257,3.948-75.494,2.3-92.461,1.378-12.721-.689-401.695-10.3-471.527-10.3s-383.677,5.244-407.929,7.213c-24.186,1.962-89.587,8.98-89.155-2.294a3.6,3.6,0,0,1-1.438-3.288C179.032,958.321,181.5,752.353,183.816,742.3Z" transform="translate(-162.857 -730.628)" fill="#a9a9a9"/>
        <path id="Trazado_116352" data-name="Trazado 116352" d="M183.929,742.534c0-.813,1.3-1.475,3.3-1.472,29.218.092,1039.425,1.362,1041.33,3.772,4.055,13.179,8.944,241.47,11.151,257.825a2.993,2.993,0,0,1-2.04,3.163c-3.2,3.884-75.738,2.259-92.432,1.356-12.516-.677-402.636-10.138-471.342-10.138s-383.907,5.16-407.768,7.1c-23.8,1.931-89.615,8.836-89.189-2.257a3.556,3.556,0,0,1-1.459-3.276C179.206,958.971,181.648,752.423,183.929,742.534Z" transform="translate(-162.97 -730.724)" fill="#a8a8a8"/>
        <path id="Trazado_116353" data-name="Trazado 116353" d="M184.044,742.766c0-.822,1.3-1.493,3.295-1.489,28.739.09,1039.433,1.339,1041.352,3.752,3.989,12.963,8.805,241.477,10.969,257.565a2.982,2.982,0,0,1-2.051,3.152c-3.152,3.82-75.983,2.222-92.4,1.333-12.311-.666-403.577-9.971-471.156-9.971s-384.137,5.075-407.607,6.98c-23.406,1.9-89.641,8.691-89.222-2.22a3.516,3.516,0,0,1-1.48-3.263C179.38,959.62,181.8,752.492,184.044,742.766Z" transform="translate(-163.083 -730.82)" fill="#a7a7a7"/>
        <path id="Trazado_116354" data-name="Trazado 116354" d="M184.157,743c0-.831,1.3-1.509,3.286-1.506,28.26.088,1039.441,1.317,1041.373,3.731,3.922,12.747,8.667,241.485,10.786,257.305a2.971,2.971,0,0,1-2.062,3.142c-3.1,3.756-76.227,2.184-92.374,1.311-12.106-.655-404.517-9.806-470.971-9.806s-384.367,4.991-407.445,6.863c-23.016,1.868-89.668,8.547-89.257-2.183a3.478,3.478,0,0,1-1.5-3.25C179.551,960.27,181.95,752.562,184.157,743Z" transform="translate(-163.196 -730.917)" fill="#a6a6a6"/>
        <path id="Trazado_116355" data-name="Trazado 116355" d="M184.272,743.23c0-.84,1.3-1.526,3.277-1.523,27.78.087,1039.448,1.294,1041.395,3.71,3.856,12.531,8.533,241.492,10.6,257.046a2.96,2.96,0,0,1-2.075,3.131c-3.047,3.693-76.472,2.148-92.345,1.289-11.9-.643-405.458-9.639-470.785-9.639s-384.6,4.906-407.284,6.748c-22.626,1.835-89.695,8.4-89.29-2.146a3.441,3.441,0,0,1-1.522-3.238C179.727,960.919,182.1,752.632,184.272,743.23Z" transform="translate(-163.309 -731.013)" fill="#a5a5a5"/>
        <path id="Trazado_116356" data-name="Trazado 116356" d="M184.386,743.462c0-.85,1.3-1.543,3.268-1.54,27.3.086,1039.456,1.272,1041.416,3.69,3.789,12.314,8.394,241.5,10.42,256.787a2.949,2.949,0,0,1-2.086,3.12c-2.995,3.629-76.717,2.11-92.316,1.266-11.7-.632-406.4-9.473-470.6-9.473s-384.827,4.822-407.123,6.631c-22.236,1.8-89.722,8.256-89.324-2.109a3.405,3.405,0,0,1-1.543-3.226C179.907,961.569,182.253,752.7,184.386,743.462Z" transform="translate(-163.423 -731.109)" fill="#a4a4a4"/>
        <path id="Trazado_116357" data-name="Trazado 116357" d="M184.5,743.694c0-.859,1.3-1.56,3.259-1.557,26.823.084,1039.463,1.25,1041.438,3.669,3.722,12.1,8.255,241.507,10.237,256.527a2.939,2.939,0,0,1-2.1,3.11c-2.942,3.565-76.961,2.073-92.287,1.245-11.49-.622-407.341-9.307-470.415-9.307s-385.057,4.738-406.962,6.515c-21.845,1.773-89.748,8.112-89.357-2.072a3.37,3.37,0,0,1-1.565-3.213C180.083,962.219,182.4,752.772,184.5,743.694Z" transform="translate(-163.536 -731.205)" fill="#a3a3a3"/>
        <path id="Trazado_116358" data-name="Trazado 116358" d="M184.614,743.926c0-.869,1.3-1.578,3.249-1.574,26.344.083,1039.471,1.228,1041.46,3.648,3.656,11.882,8.12,241.514,10.055,256.268a2.928,2.928,0,0,1-2.11,3.1c-2.889,3.5-77.205,2.036-92.258,1.222-11.285-.61-408.282-9.14-470.23-9.14s-385.287,4.652-406.8,6.4c-21.456,1.741-89.775,7.966-89.391-2.035a3.335,3.335,0,0,1-1.586-3.2C180.257,962.868,182.556,752.842,184.614,743.926Z" transform="translate(-163.649 -731.302)" fill="#a2a2a2"/>
        <path id="Trazado_116359" data-name="Trazado 116359" d="M184.727,744.157c0-.877,1.3-1.594,3.241-1.591,25.865.081,1039.478,1.205,1041.48,3.628,3.59,11.667,7.98,241.523,9.872,256.009a2.917,2.917,0,0,1-2.121,3.088c-2.837,3.438-77.45,2-92.229,1.2-11.08-.6-409.223-8.974-470.044-8.974s-385.517,4.568-406.639,6.282c-21.066,1.71-89.8,7.822-89.425-2a3.306,3.306,0,0,1-1.607-3.188C180.434,963.518,182.706,752.912,184.727,744.157Z" transform="translate(-163.762 -731.397)" fill="#a1a1a1"/>
        <path id="Trazado_116360" data-name="Trazado 116360" d="M184.841,744.39c0-.887,1.295-1.611,3.231-1.609,25.386.08,1039.486,1.183,1041.5,3.607,3.522,11.45,7.842,241.529,9.688,255.749a2.907,2.907,0,0,1-2.133,3.077c-2.784,3.375-77.7,1.963-92.2,1.178-10.875-.588-410.164-8.808-469.86-8.808s-385.747,4.483-406.478,6.165c-20.675,1.678-89.828,7.677-89.458-1.961a3.273,3.273,0,0,1-1.629-3.176C180.612,964.168,182.858,752.982,184.841,744.39Z" transform="translate(-163.875 -731.494)" fill="#a0a0a0"/>
        <path id="Trazado_116361" data-name="Trazado 116361" d="M184.955,744.622c0-.9,1.294-1.628,3.222-1.626,24.907.078,1039.494,1.161,1041.524,3.586,3.457,11.235,7.7,241.537,9.506,255.49a2.9,2.9,0,0,1-2.145,3.067c-2.732,3.311-77.94,1.925-92.172,1.156-10.669-.578-411.106-8.642-469.674-8.642s-385.977,4.4-406.317,6.049c-20.286,1.646-89.855,7.532-89.492-1.924a3.244,3.244,0,0,1-1.65-3.163C180.791,964.817,183.009,753.051,184.955,744.622Z" transform="translate(-163.988 -731.59)" fill="#9f9f9f"/>
        <path id="Trazado_116362" data-name="Trazado 116362" d="M185.069,744.854c0-.906,1.293-1.646,3.213-1.643,24.428.077,1039.5,1.139,1041.545,3.566,3.391,11.018,7.564,241.545,9.324,255.23a2.887,2.887,0,0,1-2.156,3.056c-2.679,3.247-78.185,1.889-92.142,1.134-10.464-.565-412.046-8.475-469.488-8.475s-386.207,4.314-406.156,5.933c-19.9,1.614-89.882,7.387-89.526-1.887a3.213,3.213,0,0,1-1.67-3.15C180.97,965.467,183.161,753.121,185.069,744.854Z" transform="translate(-164.101 -731.686)" fill="#9e9e9e"/>
        <path id="Trazado_116363" data-name="Trazado 116363" d="M185.182,745.086c0-.916,1.292-1.663,3.2-1.66,23.949.076,1039.509,1.116,1041.567,3.545,3.324,10.8,7.424,241.553,9.14,254.97a2.878,2.878,0,0,1-2.168,3.046c-2.627,3.184-78.429,1.852-92.114,1.112-10.259-.555-412.987-8.31-469.3-8.31s-386.437,4.23-405.995,5.817c-19.505,1.583-89.909,7.242-89.56-1.85a3.184,3.184,0,0,1-1.692-3.138C181.15,966.117,183.312,753.191,185.182,745.086Z" transform="translate(-164.214 -731.783)" fill="#9d9d9d"/>
        <path id="Trazado_116364" data-name="Trazado 116364" d="M185.3,745.318c0-.925,1.291-1.68,3.195-1.677,23.47.073,1039.516,1.094,1041.588,3.525,3.258,10.587,7.286,241.561,8.958,254.711a2.868,2.868,0,0,1-2.179,3.035c-2.574,3.12-78.675,1.815-92.085,1.089-10.054-.544-413.928-8.144-469.118-8.144s-386.667,4.145-405.834,5.7c-19.115,1.552-89.935,7.1-89.594-1.813a3.157,3.157,0,0,1-1.713-3.125C181.33,966.767,183.463,753.261,185.3,745.318Z" transform="translate(-164.327 -731.879)" fill="#9c9c9c"/>
        <path id="Trazado_116365" data-name="Trazado 116365" d="M185.41,745.55c0-.934,1.29-1.7,3.186-1.694,22.991.072,1039.524,1.071,1041.609,3.5,3.191,10.371,7.143,241.568,8.775,254.452a2.859,2.859,0,0,1-2.191,3.024c-2.522,3.056-78.919,1.777-92.055,1.066-9.849-.532-414.87-7.977-468.934-7.977s-386.9,4.061-405.673,5.584c-18.725,1.52-89.962,6.953-89.627-1.775a3.133,3.133,0,0,1-1.734-3.113C181.508,967.417,183.615,753.331,185.41,745.55Z" transform="translate(-164.441 -731.975)" fill="#9b9b9b"/>
        <path id="Trazado_116366" data-name="Trazado 116366" d="M185.524,745.782c0-.943,1.289-1.713,3.177-1.711,22.512.071,1039.531,1.049,1041.631,3.483,3.124,10.154,7.006,241.576,8.593,254.192a2.851,2.851,0,0,1-2.2,3.014c-2.469,2.992-79.163,1.74-92.026,1.045-9.643-.521-415.81-7.811-468.747-7.811s-387.127,3.976-405.511,5.468c-18.335,1.488-89.989,6.808-89.661-1.739a3.1,3.1,0,0,1-1.755-3.1C181.69,968.067,183.766,753.4,185.524,745.782Z" transform="translate(-164.554 -732.071)" fill="#9a9a9a"/>
        <path id="Trazado_116367" data-name="Trazado 116367" d="M185.638,746.014c0-.953,1.288-1.731,3.168-1.728,22.033.069,1039.539,1.027,1041.652,3.463,3.058,9.938,6.863,241.584,8.409,253.932a2.842,2.842,0,0,1-2.215,3c-2.417,2.929-79.408,1.7-92,1.022-9.438-.51-416.752-7.644-468.563-7.644s-387.357,3.891-405.35,5.351c-17.944,1.456-90.015,6.663-89.695-1.7a3.081,3.081,0,0,1-1.776-3.088C181.872,968.717,183.917,753.47,185.638,746.014Z" transform="translate(-164.667 -732.168)" fill="#999"/>
        <path id="Trazado_116368" data-name="Trazado 116368" d="M185.752,746.246c0-.962,1.287-1.748,3.159-1.745,21.554.068,1039.546,1,1041.674,3.442,2.991,9.722,6.723,241.592,8.226,253.673a2.832,2.832,0,0,1-2.227,2.992c-2.363,2.865-79.653,1.667-91.969,1-9.232-.5-417.692-7.478-468.377-7.478s-387.587,3.806-405.189,5.235c-17.554,1.424-90.042,6.518-89.728-1.665a3.058,3.058,0,0,1-1.8-3.076C182.057,969.368,184.068,753.541,185.752,746.246Z" transform="translate(-164.78 -732.264)" fill="#989898"/>
        <path id="Trazado_116369" data-name="Trazado 116369" d="M185.866,746.478c0-.971,1.285-1.765,3.15-1.762,21.075.066,1039.554.982,1041.695,3.421,2.925,9.506,6.582,241.6,8.044,253.413a2.825,2.825,0,0,1-2.239,2.982c-2.311,2.8-79.9,1.629-91.94.977-9.028-.488-418.633-7.312-468.192-7.312s-387.817,3.722-405.028,5.119c-17.164,1.393-90.069,6.373-89.762-1.628a3.034,3.034,0,0,1-1.819-3.063C182.237,970.018,184.22,753.611,185.866,746.478Z" transform="translate(-164.893 -732.36)" fill="#979797"/>
        <path id="Trazado_116370" data-name="Trazado 116370" d="M185.979,746.71c0-.981,1.284-1.782,3.141-1.779,20.6.065,1039.562.96,1041.716,3.4,2.859,9.29,6.438,241.608,7.861,253.154a2.816,2.816,0,0,1-2.25,2.971c-2.259,2.738-80.143,1.592-91.91.956-8.823-.478-419.575-7.146-468.007-7.146s-388.047,3.637-404.866,5c-16.775,1.361-90.1,6.229-89.8-1.591a3.013,3.013,0,0,1-1.84-3.05C182.422,970.669,184.371,753.68,185.979,746.71Z" transform="translate(-165.006 -732.457)" fill="#969696"/>
        <path id="Trazado_116371" data-name="Trazado 116371" d="M186.094,746.942c0-.99,1.283-1.8,3.131-1.8,20.117.063,1039.569.937,1041.738,3.38,2.792,9.074,6.3,241.616,7.678,252.895a2.807,2.807,0,0,1-2.261,2.96c-2.207,2.674-80.388,1.555-91.882.934-8.617-.467-420.515-6.98-467.821-6.98s-388.277,3.552-404.706,4.885c-16.384,1.33-90.123,6.084-89.83-1.554a2.991,2.991,0,0,1-1.861-3.038C182.605,971.32,184.522,753.751,186.094,746.942Z" transform="translate(-165.119 -732.553)" fill="#959595"/>
        <path id="Trazado_116372" data-name="Trazado 116372" d="M186.207,747.174c0-1,1.282-1.816,3.123-1.814,19.638.062,1039.577.916,1041.759,3.359,2.725,8.858,6.155,241.625,7.5,252.635a2.8,2.8,0,0,1-2.273,2.95c-2.154,2.611-80.632,1.518-91.852.912-8.413-.456-421.457-6.814-467.637-6.814s-388.507,3.468-404.544,4.769c-15.994,1.3-90.149,5.939-89.863-1.517a2.97,2.97,0,0,1-1.882-3.025C182.788,971.969,184.673,753.82,186.207,747.174Z" transform="translate(-165.232 -732.649)" fill="#949494"/>
        <path id="Trazado_116373" data-name="Trazado 116373" d="M186.321,747.406c0-1.008,1.281-1.833,3.114-1.83,19.159.06,1039.584.892,1041.781,3.339,2.66,8.642,6.011,241.633,7.313,252.376a2.79,2.79,0,0,1-2.284,2.939c-2.1,2.547-80.877,1.481-91.824.889-8.208-.444-422.4-6.648-467.452-6.648s-388.737,3.384-404.383,4.654c-15.6,1.266-90.176,5.793-89.9-1.48a2.95,2.95,0,0,1-1.9-3.013C182.973,972.62,184.824,753.89,186.321,747.406Z" transform="translate(-165.345 -732.745)" fill="#939393"/>
        <path id="Trazado_116374" data-name="Trazado 116374" d="M186.435,747.638c0-1.018,1.28-1.849,3.1-1.847,18.68.058,1039.592.87,1041.8,3.318,2.593,8.426,5.867,241.641,7.129,252.117a2.783,2.783,0,0,1-2.3,2.928c-2.049,2.483-81.121,1.444-91.8.867-8-.433-423.339-6.482-467.265-6.482s-388.967,3.3-404.222,4.537c-15.214,1.234-90.2,5.649-89.93-1.443a2.932,2.932,0,0,1-1.925-3C183.161,973.271,184.976,753.96,186.435,747.638Z" transform="translate(-165.458 -732.842)" fill="#929292"/>
        <path id="Trazado_116375" data-name="Trazado 116375" d="M186.548,747.87c0-1.027,1.279-1.866,3.1-1.865,18.2.057,1039.6.849,1041.824,3.3,2.526,8.21,5.725,241.65,6.947,251.857a2.775,2.775,0,0,1-2.309,2.918c-2,2.419-81.365,1.407-91.765.844-7.8-.422-424.28-6.315-467.081-6.315s-389.2,3.215-404.061,4.421c-14.823,1.2-90.229,5.5-89.964-1.406a2.914,2.914,0,0,1-1.946-2.988C183.348,973.921,185.127,754.03,186.548,747.87Z" transform="translate(-165.571 -732.938)" fill="#919191"/>
        <path id="Trazado_116376" data-name="Trazado 116376" d="M186.663,748.1c0-1.036,1.278-1.883,3.086-1.881,17.722.056,1039.607.826,1041.845,3.277,2.46,7.994,5.58,241.658,6.764,251.6a2.766,2.766,0,0,1-2.32,2.907c-1.943,2.356-81.61,1.37-91.737.822-7.591-.41-425.221-6.149-466.895-6.149s-389.427,3.13-403.9,4.3c-14.434,1.171-90.256,5.359-90-1.369a2.9,2.9,0,0,1-1.967-2.975C183.533,974.572,185.278,754.1,186.663,748.1Z" transform="translate(-165.684 -733.034)" fill="#909090"/>
        <path id="Trazado_116377" data-name="Trazado 116377" d="M186.776,748.334c0-1.046,1.277-1.9,3.077-1.9,17.243.054,1039.615.8,1041.867,3.256,2.393,7.778,5.436,241.667,6.581,251.338a2.76,2.76,0,0,1-2.331,2.9c-1.891,2.292-81.855,1.333-91.708.8-7.387-.4-426.163-5.983-466.71-5.983s-389.657,3.045-403.738,4.188c-14.044,1.14-90.283,5.214-90.032-1.332a2.879,2.879,0,0,1-1.988-2.963C183.72,975.223,185.429,754.169,186.776,748.334Z" transform="translate(-165.797 -733.13)" fill="#8f8f8f"/>
        <path id="Trazado_116378" data-name="Trazado 116378" d="M186.89,748.566c0-1.055,1.276-1.917,3.068-1.916,16.764.053,1039.622.781,1041.888,3.235,2.327,7.562,5.292,241.676,6.4,251.079a2.752,2.752,0,0,1-2.344,2.886c-1.838,2.228-82.1,1.3-91.678.777-7.181-.388-427.1-5.816-466.525-5.816s-389.887,2.96-403.577,4.071c-13.653,1.108-90.31,5.07-90.066-1.295a2.862,2.862,0,0,1-2.009-2.95C183.909,975.873,185.58,754.24,186.89,748.566Z" transform="translate(-165.91 -733.226)" fill="#8e8e8e"/>
        <path id="Trazado_116379" data-name="Trazado 116379" d="M187,748.8c0-1.065,1.275-1.934,3.059-1.933,16.286.051,1039.63.759,1041.91,3.215,2.259,7.346,5.146,241.683,6.215,250.82a2.746,2.746,0,0,1-2.355,2.875c-1.786,2.164-82.344,1.259-91.65.755-6.976-.378-428.044-5.651-466.339-5.651s-390.117,2.876-403.416,3.955c-13.263,1.076-90.336,4.924-90.1-1.258a2.848,2.848,0,0,1-2.031-2.938C184.1,976.524,185.732,754.31,187,748.8Z" transform="translate(-166.023 -733.323)" fill="#8d8d8d"/>
        <path id="Trazado_116380" data-name="Trazado 116380" d="M187.117,749.03c0-1.074,1.274-1.951,3.05-1.95,15.806.05,1039.638.737,1041.931,3.194,2.194,7.129,5,241.692,6.033,250.56a2.738,2.738,0,0,1-2.366,2.864c-1.734,2.1-82.59,1.222-91.621.733-6.771-.366-428.986-5.484-466.154-5.484s-390.347,2.791-403.255,3.839c-12.874,1.044-90.363,4.78-90.133-1.221a2.832,2.832,0,0,1-2.052-2.925C184.287,977.176,185.883,754.379,187.117,749.03Z" transform="translate(-166.136 -733.419)" fill="#8c8c8c"/>
        <path id="Trazado_116381" data-name="Trazado 116381" d="M187.231,749.262c0-1.083,1.273-1.969,3.041-1.967,15.328.048,1039.645.714,1041.953,3.173,2.127,6.914,4.855,241.7,5.85,250.3a2.731,2.731,0,0,1-2.378,2.854c-1.682,2.038-82.835,1.185-91.593.712-6.565-.356-429.927-5.319-465.969-5.319s-390.577,2.707-403.094,3.723c-12.483,1.013-90.39,4.635-90.167-1.184a2.817,2.817,0,0,1-2.073-2.913C184.477,977.826,186.034,754.45,187.231,749.262Z" transform="translate(-166.249 -733.515)" fill="#8b8b8b"/>
        <path id="Trazado_116382" data-name="Trazado 116382" d="M187.345,749.494c0-1.093,1.271-1.986,3.032-1.984,14.848.046,1039.652.692,1041.974,3.153,2.06,6.7,4.709,241.709,5.667,250.041a2.724,2.724,0,0,1-2.39,2.843c-1.629,1.973-83.079,1.147-91.563.688-6.36-.344-430.868-5.152-465.784-5.152s-390.807,2.622-402.932,3.606c-12.093.982-90.417,4.49-90.2-1.147a2.8,2.8,0,0,1-2.094-2.9C184.668,978.478,186.185,754.519,187.345,749.494Z" transform="translate(-166.362 -733.612)" fill="#8a8a8a"/>
        <path id="Trazado_116383" data-name="Trazado 116383" d="M187.459,749.726c0-1.1,1.271-2,3.023-2,14.369.045,1039.661.67,1042,3.133,1.994,6.481,4.562,241.717,5.484,249.782a2.715,2.715,0,0,1-2.4,2.832c-1.576,1.911-83.324,1.112-91.534.667-6.156-.332-431.809-4.986-465.6-4.986s-391.037,2.538-402.771,3.49c-11.7.95-90.443,4.346-90.234-1.109a2.791,2.791,0,0,1-2.115-2.889C184.857,979.128,186.337,754.589,187.459,749.726Z" transform="translate(-166.475 -733.708)" fill="#898989"/>
        <path id="Trazado_116384" data-name="Trazado 116384" d="M187.572,749.958c0-1.111,1.269-2.019,3.014-2.018,13.891.044,1039.668.647,1042.017,3.112,1.928,6.265,4.416,241.726,5.3,249.522a2.711,2.711,0,0,1-2.413,2.822c-1.523,1.847-83.569,1.074-91.505.645-5.95-.322-432.75-4.82-465.413-4.82s-391.267,2.453-402.61,3.374c-11.313.918-90.47,4.2-90.268-1.073a2.777,2.777,0,0,1-2.137-2.875C185.049,979.779,186.488,754.659,187.572,749.958Z" transform="translate(-166.588 -733.804)" fill="#888"/>
        <path id="Trazado_116385" data-name="Trazado 116385" d="M187.686,750.19c0-1.12,1.268-2.036,3-2.035,13.411.042,1039.676.625,1042.038,3.091,1.861,6.05,4.269,241.736,5.119,249.263a2.7,2.7,0,0,1-2.425,2.811c-1.47,1.783-83.813,1.037-91.476.622-5.745-.31-433.691-4.653-465.228-4.653s-391.5,2.368-402.449,3.257c-10.923.887-90.5,4.056-90.3-1.036a2.764,2.764,0,0,1-2.158-2.863C185.241,980.431,186.639,754.729,187.686,750.19Z" transform="translate(-166.701 -733.9)" fill="#878787"/>
        <path id="Trazado_116386" data-name="Trazado 116386" d="M187.8,750.422c0-1.13,1.267-2.054,3-2.052,12.933.04,1039.683.6,1042.06,3.07,1.8,5.833,4.122,241.744,4.936,249a2.7,2.7,0,0,1-2.437,2.8c-1.418,1.719-84.057,1-91.447.6-5.541-.3-434.632-4.487-465.043-4.487s-391.727,2.284-402.288,3.141c-10.533.855-90.523,3.911-90.335-1a2.752,2.752,0,0,1-2.178-2.85C185.436,981.083,186.79,754.8,187.8,750.422Z" transform="translate(-166.815 -733.997)" fill="#868686"/>
        <path id="Trazado_116387" data-name="Trazado 116387" d="M187.914,750.654c0-1.139,1.266-2.071,2.986-2.069,12.453.039,1039.69.58,1042.081,3.049,1.728,5.617,3.973,241.753,4.753,248.744a2.692,2.692,0,0,1-2.448,2.79c-1.366,1.655-84.3.964-91.419.578-5.335-.288-435.573-4.321-464.857-4.321s-391.956,2.2-402.126,3.025c-10.143.823-90.55,3.766-90.369-.962a2.741,2.741,0,0,1-2.2-2.838C185.628,981.734,186.941,754.869,187.914,750.654Z" transform="translate(-166.928 -734.093)" fill="#858585"/>
        <path id="Trazado_116388" data-name="Trazado 116388" d="M188.028,750.886c0-1.148,1.265-2.088,2.977-2.087,11.975.038,1039.7.558,1042.1,3.029,1.661,5.4,3.825,241.762,4.57,248.485a2.686,2.686,0,0,1-2.46,2.779c-1.313,1.592-84.547.926-91.389.555-5.129-.277-436.514-4.155-464.672-4.155s-392.187,2.114-401.966,2.908c-9.752.791-90.576,3.621-90.4-.925a2.731,2.731,0,0,1-2.221-2.826C185.822,982.384,187.092,754.938,188.028,750.886Z" transform="translate(-167.041 -734.189)" fill="#848484"/>
        <path id="Trazado_116389" data-name="Trazado 116389" d="M188.141,751.118c0-1.158,1.264-2.1,2.969-2.1,11.5.036,1039.705.535,1042.124,3.008,1.6,5.186,3.678,241.771,4.388,248.226a2.679,2.679,0,0,1-2.472,2.768c-1.261,1.528-84.792.889-91.36.533-4.924-.266-437.455-3.988-464.487-3.988s-392.416,2.03-401.8,2.792c-9.363.76-90.6,3.477-90.436-.888a2.72,2.72,0,0,1-2.242-2.813C186.017,983.037,187.243,755.008,188.141,751.118Z" transform="translate(-167.153 -734.286)" fill="#838383"/>
        <path id="Trazado_116390" data-name="Trazado 116390" d="M188.255,751.35c0-1.167,1.263-2.122,2.959-2.12,11.017.034,1039.713.513,1042.145,2.987,1.529,4.969,3.528,241.78,4.2,247.965a2.674,2.674,0,0,1-2.483,2.758c-1.209,1.464-85.037.851-91.332.511-4.719-.255-438.4-3.823-464.3-3.823S286.8,1001.575,277.8,1002.3c-8.972.728-90.63,3.332-90.47-.851a2.711,2.711,0,0,1-2.264-2.8C186.21,983.688,187.394,755.079,188.255,751.35Z" transform="translate(-167.266 -734.382)" fill="#828282"/>
        <path id="Trazado_116391" data-name="Trazado 116391" d="M188.369,751.581c0-1.176,1.262-2.139,2.95-2.138,10.537.033,1039.72.491,1042.167,2.967,1.462,4.753,3.378,241.79,4.021,247.706a2.668,2.668,0,0,1-2.495,2.747c-1.156,1.4-85.281.815-91.3.489-4.514-.244-439.338-3.657-464.117-3.657s-392.876,1.861-401.482,2.559c-8.582.7-90.657,3.187-90.5-.814a2.7,2.7,0,0,1-2.285-2.788C186.406,984.339,187.546,755.148,188.369,751.581Z" transform="translate(-167.379 -734.478)" fill="#818181"/>
        <path id="Trazado_116392" data-name="Trazado 116392" d="M188.483,751.814c0-1.186,1.26-2.156,2.941-2.155,10.059.031,1039.728.469,1042.188,2.946,1.4,4.537,3.23,241.8,3.839,247.447a2.663,2.663,0,0,1-2.507,2.737c-1.1,1.337-85.526.778-91.273.466-4.308-.232-440.278-3.49-463.931-3.49s-393.107,1.776-401.321,2.443c-8.192.664-90.684,3.042-90.537-.777a2.693,2.693,0,0,1-2.306-2.776C186.6,984.991,187.7,755.218,188.483,751.814Z" transform="translate(-167.492 -734.574)" fill="gray"/>
        <path id="Trazado_116393" data-name="Trazado 116393" d="M188.6,752.046c0-1.2,1.26-2.173,2.932-2.172,9.579.03,1039.736.447,1042.21,2.926,1.329,4.321,3.079,241.807,3.656,247.187a2.657,2.657,0,0,1-2.518,2.726c-1.05,1.273-85.771.74-91.244.445-4.1-.222-441.219-3.324-463.746-3.324s-393.336,1.692-401.16,2.327c-7.8.633-90.71,2.9-90.571-.74a2.683,2.683,0,0,1-2.327-2.762C186.8,985.642,187.848,755.288,188.6,752.046Z" transform="translate(-167.605 -734.67)" fill="#7f7f7f"/>
        <path id="Trazado_116394" data-name="Trazado 116394" d="M188.71,752.278c0-1.2,1.258-2.19,2.923-2.189,9.1.029,1039.743.424,1042.231,2.905,1.263,4.1,2.928,241.817,3.473,246.928a2.652,2.652,0,0,1-2.53,2.716c-1,1.209-86.015.7-91.215.422-3.9-.21-442.161-3.157-463.561-3.157s-393.566,1.607-401,2.21c-7.412.6-90.738,2.752-90.6-.7a2.675,2.675,0,0,1-2.348-2.75C187,986.293,188,755.358,188.71,752.278Z" transform="translate(-167.718 -734.766)" fill="#7e7e7e"/>
        <path id="Trazado_116395" data-name="Trazado 116395" d="M188.824,752.509c0-1.214,1.258-2.207,2.914-2.205,8.622.027,1039.751.4,1042.253,2.885,1.2,3.888,2.778,241.825,3.291,246.668a2.647,2.647,0,0,1-2.542,2.7c-.945,1.146-86.26.667-91.187.4-3.693-.2-443.1-2.991-463.375-2.991s-393.8,1.523-400.837,2.094c-7.022.57-90.764,2.607-90.638-.666a2.669,2.669,0,0,1-2.369-2.738C187.2,986.945,188.151,755.428,188.824,752.509Z" transform="translate(-167.831 -734.863)" fill="#7d7d7d"/>
        <path id="Trazado_116396" data-name="Trazado 116396" d="M188.938,752.742c0-1.223,1.256-2.224,2.905-2.223,8.143.025,1039.758.379,1042.274,2.864,1.13,3.673,2.627,241.835,3.108,246.409a2.641,2.641,0,0,1-2.553,2.694c-.893,1.083-86.5.63-91.157.378-3.488-.189-444.043-2.825-463.19-2.825s-394.026,1.438-400.676,1.977c-6.632.538-90.791,2.463-90.673-.629a2.661,2.661,0,0,1-2.39-2.725C187.395,987.6,188.3,755.5,188.938,752.742Z" transform="translate(-167.944 -734.959)" fill="#7c7c7c"/>
        <path id="Trazado_116397" data-name="Trazado 116397" d="M189.051,752.974c0-1.232,1.255-2.241,2.9-2.24,7.663.024,1039.766.357,1042.3,2.843,1.064,3.457,2.475,241.844,2.925,246.149a2.635,2.635,0,0,1-2.564,2.683c-.841,1.019-86.75.593-91.129.356-3.283-.178-444.984-2.659-463.005-2.659s-394.256,1.353-400.515,1.861c-6.241.507-90.817,2.318-90.706-.591a2.655,2.655,0,0,1-2.412-2.713C187.593,988.249,188.453,755.567,189.051,752.974Z" transform="translate(-168.057 -735.055)" fill="#7b7b7b"/>
        <path id="Trazado_116398" data-name="Trazado 116398" d="M189.165,753.206c0-1.242,1.254-2.258,2.886-2.257,7.185.023,1039.774.335,1042.318,2.823,1,3.24,2.324,241.853,2.742,245.89a2.633,2.633,0,0,1-2.577,2.673c-.788.955-86.994.555-91.1.333-3.078-.166-445.925-2.493-462.82-2.493s-394.486,1.269-400.354,1.745c-5.852.474-90.844,2.172-90.739-.555a2.647,2.647,0,0,1-2.433-2.7C187.795,988.9,188.6,755.638,189.165,753.206Z" transform="translate(-168.17 -735.152)" fill="#7a7a7a"/>
        <path id="Trazado_116399" data-name="Trazado 116399" d="M189.279,753.438c0-1.251,1.253-2.275,2.878-2.274,6.705.021,1039.781.313,1042.338,2.8.931,3.025,2.171,241.863,2.559,245.631a2.626,2.626,0,0,1-2.588,2.661c-.735.891-87.24.519-91.071.311-2.872-.156-446.866-2.326-462.634-2.326s-394.717,1.184-400.193,1.628-90.871,2.028-90.774-.518a2.641,2.641,0,0,1-2.454-2.688C188,989.553,188.755,755.707,189.279,753.438Z" transform="translate(-168.283 -735.248)" fill="#797979"/>
        <path id="Trazado_116400" data-name="Trazado 116400" d="M189.392,753.67a2.611,2.611,0,0,1,2.869-2.291c6.226.019,1039.788.29,1042.36,2.781.864,2.808,2.018,241.872,2.376,245.371a2.622,2.622,0,0,1-2.6,2.652c-.683.828-87.484.481-91.042.289-2.667-.145-447.806-2.161-462.449-2.161s-394.946,1.1-400.031,1.512-90.9,1.883-90.807-.481a2.636,2.636,0,0,1-2.475-2.675C188.2,990.2,188.906,755.777,189.392,753.67Z" transform="translate(-168.396 -735.344)" fill="#787878"/>
        <path id="Trazado_116401" data-name="Trazado 116401" d="M189.506,753.9a2.612,2.612,0,0,1,2.859-2.308c5.748.018,1039.8.268,1042.382,2.76.8,2.593,1.866,241.882,2.194,245.112a2.618,2.618,0,0,1-2.612,2.641c-.63.764-87.729.444-91.013.267-2.462-.133-448.748-1.995-462.264-1.995s-395.177,1.015-399.87,1.4-90.924,1.738-90.841-.443a2.631,2.631,0,0,1-2.5-2.663C188.4,990.857,189.057,755.847,189.506,753.9Z" transform="translate(-168.509 -735.44)" fill="#777"/>
        <path id="Trazado_116402" data-name="Trazado 116402" d="M189.62,754.134a2.614,2.614,0,0,1,2.85-2.325c5.269.016,1039.8.245,1042.4,2.74.731,2.377,1.712,241.891,2.01,244.852a2.614,2.614,0,0,1-2.623,2.63c-.578.7-87.973.407-90.983.244-2.257-.122-449.689-1.828-462.079-1.828s-395.406.931-399.709,1.28-90.951,1.594-90.875-.407a2.625,2.625,0,0,1-2.517-2.65C188.6,991.509,189.209,755.917,189.62,754.134Z" transform="translate(-168.622 -735.537)" fill="#767676"/>
        <path id="Trazado_116403" data-name="Trazado 116403" d="M189.734,754.365a2.617,2.617,0,0,1,2.841-2.342c4.79.016,1039.812.224,1042.424,2.72.665,2.161,1.558,241.9,1.828,244.593a2.61,2.61,0,0,1-2.635,2.62c-.525.637-88.218.37-90.955.222-2.052-.111-450.63-1.661-461.893-1.661s-395.637.846-399.548,1.163-90.978,1.449-90.908-.37a2.621,2.621,0,0,1-2.539-2.638C188.8,992.161,189.36,755.987,189.734,754.365Z" transform="translate(-168.735 -735.632)" fill="#757575"/>
        <path id="Trazado_116404" data-name="Trazado 116404" d="M189.847,754.6a2.618,2.618,0,0,1,2.832-2.359c4.311.014,1039.819.2,1042.446,2.7.6,1.944,1.4,241.91,1.646,244.333a2.6,2.6,0,0,1-2.647,2.609c-.473.573-88.463.333-90.926.2-1.847-.1-451.571-1.5-461.708-1.5s-395.866.761-399.387,1.047-91,1.3-90.942-.333a2.617,2.617,0,0,1-2.56-2.626C189.009,992.813,189.511,756.056,189.847,754.6Z" transform="translate(-168.848 -735.729)" fill="#747474"/>
        <path id="Trazado_116405" data-name="Trazado 116405" d="M189.961,754.83a2.621,2.621,0,0,1,2.823-2.376c3.832.012,1039.827.178,1042.467,2.677.532,1.728,1.25,241.921,1.462,244.074a2.6,2.6,0,0,1-2.658,2.6c-.42.509-88.707.3-90.9.177-1.641-.088-452.513-1.329-461.523-1.329s-396.1.677-399.226.931-91.031,1.159-90.975-.3a2.613,2.613,0,0,1-2.581-2.613C189.213,993.465,189.662,756.127,189.961,754.83Z" transform="translate(-168.961 -735.826)" fill="#737373"/>
        <path id="Trazado_116406" data-name="Trazado 116406" d="M190.075,755.062a2.623,2.623,0,0,1,2.814-2.393c3.353.01,1039.835.156,1042.488,2.657.465,1.512,1.1,241.93,1.281,243.814a2.6,2.6,0,0,1-2.67,2.588c-.368.446-88.952.259-90.868.156-1.436-.078-453.454-1.163-461.338-1.163s-396.326.592-399.064.814-91.058,1.014-91.009-.259a2.609,2.609,0,0,1-2.6-2.6C189.417,994.118,189.813,756.2,190.075,755.062Z" transform="translate(-169.074 -735.922)" fill="#727272"/>
        <path id="Trazado_116407" data-name="Trazado 116407" d="M190.189,755.294a2.626,2.626,0,0,1,2.805-2.411c2.874.009,1039.842.134,1042.51,2.637.4,1.3.94,241.939,1.1,243.555a2.593,2.593,0,0,1-2.681,2.577c-.316.382-89.2.223-90.839.134-1.231-.067-454.395-1-461.152-1s-396.556.507-398.9.7-91.085.869-91.043-.222a2.607,2.607,0,0,1-2.624-2.588C189.624,994.77,189.964,756.266,190.189,755.294Z" transform="translate(-169.187 -736.018)" fill="#717171"/>
        <path id="Trazado_116408" data-name="Trazado 116408" d="M190.3,755.526a2.63,2.63,0,0,1,2.8-2.428c2.395.008,1039.849.112,1042.531,2.616.333,1.08.784,241.949.914,243.3a2.589,2.589,0,0,1-2.694,2.565c-.262.319-89.441.185-90.809.112-1.026-.055-455.335-.831-460.967-.831s-396.786.422-398.742.581-91.111.724-91.077-.185a2.6,2.6,0,0,1-2.645-2.575C189.829,995.422,190.115,756.336,190.3,755.526Z" transform="translate(-169.3 -736.114)" fill="#707070"/>
        <path id="Trazado_116409" data-name="Trazado 116409" d="M190.416,755.757a2.633,2.633,0,0,1,2.787-2.444c1.916.006,1039.857.089,1042.554,2.6.266.864.628,241.959.731,243.036a2.587,2.587,0,0,1-2.706,2.555c-.21.255-89.686.148-90.781.089-.821-.044-456.276-.665-460.782-.665s-397.016.339-398.581.466-91.138.58-91.11-.148a2.6,2.6,0,0,1-2.666-2.563C190.036,996.074,190.266,756.406,190.416,755.757Z" transform="translate(-169.413 -736.21)" fill="#6f6f6f"/>
        <path id="Trazado_116410" data-name="Trazado 116410" d="M190.53,755.99a2.636,2.636,0,0,1,2.778-2.462c1.437,0,1039.864.067,1042.575,2.575.2.648.472,241.969.548,242.777a2.582,2.582,0,0,1-2.717,2.544c-.157.191-89.931.112-90.751.067-.616-.033-457.218-.5-460.6-.5s-397.246.254-398.419.35-91.165.434-91.144-.111a2.6,2.6,0,0,1-2.687-2.551C190.244,996.727,190.417,756.476,190.53,755.99Z" transform="translate(-169.526 -736.307)" fill="#6e6e6e"/>
        <path id="Trazado_116411" data-name="Trazado 116411" d="M190.643,756.222a2.64,2.64,0,0,1,2.769-2.479c.958,0,1039.872.045,1042.6,2.554.134.432.315,241.978.366,242.517a2.579,2.579,0,0,1-2.728,2.534c-.1.127-90.176.074-90.723.045-.41-.023-458.158-.333-460.411-.333s-397.476.169-398.258.233-91.192.29-91.178-.075a2.6,2.6,0,0,1-2.708-2.537C190.452,997.379,190.568,756.546,190.643,756.222Z" transform="translate(-169.639 -736.403)" fill="#6d6d6d"/>
        <path id="Trazado_116412" data-name="Trazado 116412" d="M190.757,756.454a2.644,2.644,0,0,1,2.76-2.5c.479,0,1039.879.023,1042.618,2.533.066.216.157,241.989.183,242.258a2.576,2.576,0,0,1-2.741,2.524c-.052.064-90.42.037-90.693.022-.205-.01-459.1-.166-460.226-.166s-397.706.084-398.1.116-91.218.144-91.211-.038a2.6,2.6,0,0,1-2.729-2.525C190.662,998.031,190.72,756.616,190.757,756.454Z" transform="translate(-169.751 -736.499)" fill="#6c6c6c"/>
        <path id="Trazado_116413" data-name="Trazado 116413" d="M1236.264,998.684a2.648,2.648,0,0,1-2.751,2.513H193.625a2.648,2.648,0,0,1-2.751-2.513v-242a2.648,2.648,0,0,1,2.751-2.513H1233.512a2.648,2.648,0,0,1,2.751,2.513Z" transform="translate(-169.868 -736.595)" fill="#6b6b6b"/>
      </g>
      <g id="Grupo_57829" data-name="Grupo 57829" transform="translate(173.092 705.613)">
        <rect id="Rectngulo_6827" data-name="Rectngulo 6827" width="1049.15" height="276.092" fill="url(#linear-gradient)"/>
        <rect id="Rectngulo_6828" data-name="Rectngulo 6828" width="276.092" height="276.092" transform="translate(773.059 0.001)" fill="url(#linear-gradient-2)"/>
        <g id="Grupo_57828" data-name="Grupo 57828" transform="translate(836.663 36.888)">
          <path id="Trazado_116414" data-name="Trazado 116414" d="M1823.267,933.508c-.1-2.511-.772-7.518,3.129-12.381,10.286-12.818,20.185-22.844,20.8-58.561-2.581,23.884-9.13,40.969-23.119,49.274-.819.486-2.521,1.532-2.754-1.8-1.583-22.633-2.419-47.217-4.291-71.02-2.169,27.584-2.882,56.513-5.067,81.65-.28,3.228-1.153,5.111-4.581,3.109-7.778-4.536-18.733-20.347-24.546-43.854,1.421,21.958,9.721,43.749,22.655,53.468,4.936,3.709,4.185,8.821,4,11.165-2.338,30.06-8.581,42.836-18.949,51.908,12.508-6.622,25.75-2.943,26.486,8.093,2.208-13.242,14.715-14.715,26.486-8.093C1831.6,986.041,1824.686,970.239,1823.267,933.508Z" transform="translate(-1739.698 -802.244)" fill="url(#linear-gradient-3)"/>
          <path id="Trazado_116415" data-name="Trazado 116415" d="M1877.741,839.934a32.078,32.078,0,0,0,5.6,28.475c.771-5.792,1.544-20.08,12.356-30.506-5.406,11.97-6.178,26.645-5.406,33.981,13.176-4.346,18.2-10.933,21.2-18.849,6.11-16.149.682-32.343-3.875-41.964C1889.894,817.147,1880.78,828.794,1877.741,839.934Z" transform="translate(-1781.668 -789.727)" fill="url(#linear-gradient-4)"/>
          <path id="Trazado_116416" data-name="Trazado 116416" d="M1827.421,830.26c-.337-11.212,2.42-27.047,3.524-32.063.791,6.233,3.861,20.08,3.268,31.026,8.076-7.536,11.519-17.021,11.406-23.892-.263-15.947-9.114-25.825-15.7-32.914a44.172,44.172,0,0,0-16.044,33.927C1813.969,816.937,1818.494,825.418,1827.421,830.26Z" transform="translate(-1753.597 -772.417)" fill="url(#linear-gradient-5)"/>
          <path id="Trazado_116417" data-name="Trazado 116417" d="M1756.738,894.106a63.453,63.453,0,0,0-8.211-29.345c4.419,3.06,12.816,11.889,16.118,25.96,6.18-10.559,6.445-19.09,3.71-26.344-6.207-16.46-29.888-27.34-39-30.378-4.557,13.672-5.063,33.927,3.545,46.08C1737.753,886.934,1745.833,891.248,1756.738,894.106Z" transform="translate(-1714.299 -799.994)" fill="url(#linear-gradient-6)"/>
          <path id="Trazado_116418" data-name="Trazado 116418" d="M1783.685,827.333c-1.075-4.719-3.361-13.437-6.546-18.44,3.6,3.6,7.329,11.694,9.323,17.039,3.543-8.688,2.955-15.04-.03-19.595-4.128-6.3-12.23-9.337-18.813-10.856-2.532,5.57-3.869,15.055.108,21.8C1770.808,822.507,1776.214,826.031,1783.685,827.333Z" transform="translate(-1731.804 -782.745)" fill="url(#linear-gradient-7)"/>
          <path id="Trazado_116419" data-name="Trazado 116419" d="M1714.657,913.878a65.473,65.473,0,0,1,9.109,9.631,16.2,16.2,0,0,0-1.976-11.523c-4.639-8.141-12.659-9.622-16.71-10.129-.506,5.064-1.037,12.17,2.446,16.913,3.227,4.395,8.389,6.692,14.245,7.177A51.426,51.426,0,0,0,1714.657,913.878Z" transform="translate(-1704.712 -830.382)" fill="url(#linear-gradient-8)"/>
          <path id="Trazado_116420" data-name="Trazado 116420" d="M1881.494,794.336c-.752,4.609-1.3,9.97-1.591,13.941,5.293-2.6,8.04-5.6,9.3-8.728,3.02-7.493-1.772-12.759-4.3-17.824-5.57,2.532-11.567,6.593-12.567,13.254-.611,4.078.753,8.466,4.961,12.955C1878.005,805.476,1879.31,801.117,1881.494,794.336Z" transform="translate(-1779.714 -776.585)" fill="url(#linear-gradient-9)"/>
          <path id="Trazado_116421" data-name="Trazado 116421" d="M1864.8,906.428c-11.064,8.2-13.9,18.741-7.572,27.706a61.41,61.41,0,0,0,5.362-16.273,45.163,45.163,0,0,1-2.878,16.841C1867.968,930.915,1872.473,924,1864.8,906.428Z" transform="translate(-1771.526 -832.429)" fill="url(#linear-gradient-10)"/>
          <path id="Trazado_116422" data-name="Trazado 116422" d="M1815.024,942.275c10-15.24.962-26.8-6.521-34.428-7.693,12.389-12.666,27.827,3.56,34.86a45.319,45.319,0,0,1-1.707-20.207A58.8,58.8,0,0,0,1815.024,942.275Z" transform="translate(-1747.968 -833.065)" fill="url(#linear-gradient-11)"/>
          <path id="Trazado_116423" data-name="Trazado 116423" d="M1955.006,867.011c-5.064,4.051-12.069,9.224-14.877,17.822-1.194,3.655-1.05,7.865,1.6,13.145a43.205,43.205,0,0,0,8.356-16.368s-.884,11.581-5.9,17.975c4.711-.242,8.623-2.866,11.327-6.922C1960.521,885.156,1959.057,875.62,1955.006,867.011Z" transform="translate(-1809.814 -814.778)" fill="url(#linear-gradient-12)"/>
          <path id="Trazado_116424" data-name="Trazado 116424" d="M1879.763,963.925c4.955-4.164,15.066-11.162,28.631-12.858-8.652,2.847-19.807,12.285-25.837,19.028,8.922,1.628,18.494.838,26.638-3.265,11.458-5.773,18.087-16.986,19.606-34.71-10.128,1.013-24.382-.236-37.472,9.114C1885.536,945.375,1881.126,953.746,1879.763,963.925Z" transform="translate(-1783.102 -843.935)" fill="url(#linear-gradient-13)"/>
          <path id="Trazado_116425" data-name="Trazado 116425" d="M1733.66,963.728c11.087,1.627,23.452,7.019,31.3,12.328-6.469-14.04-14.378-19.654-22.435-22.047-11.522-3.422-20.381-2.6-27.977-2.093,2.027,11.647,6.86,21.7,16.235,26.269,10.9,5.308,23.62,4.6,31.609,2.468A136.34,136.34,0,0,0,1733.66,963.728Z" transform="translate(-1709.116 -852.59)" fill="url(#linear-gradient-14)"/>
        </g>
      </g>
    </g>
    <text id="_Hacia_una_cultura_de_consumo_sostenible_y_transformacin_productiva._Su_objetivo_es_cambiar_los_patrones_de_produccin_oferta_y_consumo_demanda_de_los_colombianos_reduciendo_la_contaminacin_conservando_los_recursos_naturales_y_fomentando_el_uso_sos" data-name="Hacia una cultura de consumo sostenible y transformacin productiva. Su objetivo es cambiar los patrones de produccin (oferta) y consumo (demanda) de los colombianos, reduciendo la contaminacin, conservando los recursos naturales y fomentando el uso sos" transform="translate(375 2242)" fill="#2f2a1c" font-size="17" font-family="Roboto-Medium, Roboto" font-weight="500"><tspan x="0" y="18">Hacia una cultura de consumo sostenible y transformacin productiva. Su </tspan><tspan x="0" y="42">objetivo es cambiar los patrones de produccin (oferta) y consumo (demanda) </tspan><tspan x="0" y="66">de los colombianos, reduciendo la contaminacin, conservando los recursos </tspan><tspan x="0" y="90">naturales y fomentando el uso sostenible de la biodiversidad, como fuentes de </tspan><tspan x="0" y="114">competitividad empresarial</tspan><tspan x="0" y="138">(Ministerio de Ambiente y Desarrollo Sostenible, 2014).</tspan></text>
  </g>
</svg>
