<svg xmlns="http://www.w3.org/2000/svg" width="523.536" height="307.533" viewBox="0 0 523.536 307.533">
  <g id="Grupo_57592" data-name="Grupo 57592" transform="translate(-349.752 -2001.385)">
    <g id="Grupo_57541" data-name="Grupo 57541" transform="translate(356.176 2001.947)">
      <g id="Grupo_57540" data-name="Grupo 57540">
        <rect id="Rectángulo_6652" data-name="Rectángulo 6652" width="489.369" height="275.136" fill="none" stroke="#fff" stroke-miterlimit="10" stroke-width="1.124"/>
        <line id="Línea_265" data-name="Línea 265" x2="489.369" transform="translate(0 229.28)" fill="none" stroke="#fff" stroke-miterlimit="10" stroke-width="1.124"/>
        <line id="Línea_266" data-name="Línea 266" x2="489.369" transform="translate(0 183.424)" fill="none" stroke="#fff" stroke-miterlimit="10" stroke-width="1.124"/>
        <line id="Línea_267" data-name="Línea 267" x2="489.369" transform="translate(0 137.568)" fill="none" stroke="#fff" stroke-miterlimit="10" stroke-width="1.124"/>
        <line id="Línea_268" data-name="Línea 268" x2="489.369" transform="translate(0 91.712)" fill="none" stroke="#fff" stroke-miterlimit="10" stroke-width="1.124"/>
        <line id="Línea_269" data-name="Línea 269" x2="489.369" transform="translate(0 45.856)" fill="none" stroke="#fff" stroke-miterlimit="10" stroke-width="1.124"/>
      </g>
      <line id="Línea_270" data-name="Línea 270" y2="275.136" transform="translate(244.685 0)" fill="none" stroke="#fff" stroke-miterlimit="10" stroke-width="1.124"/>
      <line id="Línea_271" data-name="Línea 271" y2="275.136" transform="translate(195.748 0)" fill="none" stroke="#fff" stroke-miterlimit="10" stroke-width="1.124"/>
      <line id="Línea_272" data-name="Línea 272" y2="275.136" transform="translate(146.811 0)" fill="none" stroke="#fff" stroke-miterlimit="10" stroke-width="1.124"/>
      <line id="Línea_273" data-name="Línea 273" y2="275.136" transform="translate(97.874 0)" fill="none" stroke="#fff" stroke-miterlimit="10" stroke-width="1.124"/>
      <line id="Línea_274" data-name="Línea 274" y2="275.136" transform="translate(48.937 0)" fill="none" stroke="#fff" stroke-miterlimit="10" stroke-width="1.124"/>
      <line id="Línea_275" data-name="Línea 275" y2="275.136" transform="translate(391.496 0)" fill="none" stroke="#fff" stroke-miterlimit="10" stroke-width="1.124"/>
      <line id="Línea_276" data-name="Línea 276" y2="275.136" transform="translate(342.559 0)" fill="none" stroke="#fff" stroke-miterlimit="10" stroke-width="1.124"/>
      <line id="Línea_277" data-name="Línea 277" y2="275.136" transform="translate(293.622 0)" fill="none" stroke="#fff" stroke-miterlimit="10" stroke-width="1.124"/>
      <line id="Línea_278" data-name="Línea 278" y2="275.136" transform="translate(440.433 0)" fill="none" stroke="#fff" stroke-miterlimit="10" stroke-width="1.124"/>
    </g>
    <g id="Grupo_57544" data-name="Grupo 57544" transform="translate(394.755 2037.533)">
      <g id="Grupo_57542" data-name="Grupo 57542">
        <rect id="Rectángulo_6653" data-name="Rectángulo 6653" width="43.289" height="188.201" transform="translate(0 51.349)" fill="#f2f2f2"/>
        <rect id="Rectángulo_6654" data-name="Rectángulo 6654" width="43.289" height="94.817" transform="translate(53.063 144.733)" fill="#f2f2f2"/>
        <rect id="Rectángulo_6655" data-name="Rectángulo 6655" width="43.289" height="213.756" transform="translate(106.125 25.794)" fill="#f2f2f2"/>
        <rect id="Rectángulo_6656" data-name="Rectángulo 6656" width="43.289" height="239.55" transform="translate(159.188)" fill="#f2f2f2"/>
        <rect id="Rectángulo_6657" data-name="Rectángulo 6657" width="43.289" height="163.601" transform="translate(212.251 75.949)" fill="#f2f2f2"/>
        <rect id="Rectángulo_6658" data-name="Rectángulo 6658" width="43.289" height="239.55" transform="translate(265.314)" fill="#f2f2f2"/>
        <rect id="Rectángulo_6659" data-name="Rectángulo 6659" width="43.289" height="182.707" transform="translate(318.376 56.842)" fill="#f2f2f2"/>
        <rect id="Rectángulo_6660" data-name="Rectángulo 6660" width="43.289" height="223.787" transform="translate(371.439 15.763)" fill="#f2f2f2"/>
      </g>
      <g id="Grupo_57543" data-name="Grupo 57543">
        <rect id="Rectángulo_6661" data-name="Rectángulo 6661" width="43.289" height="66.396" transform="translate(0 51.349)" fill="#fff"/>
        <rect id="Rectángulo_6662" data-name="Rectángulo 6662" width="43.289" height="34.631" transform="translate(53.063 144.733)" fill="#fff"/>
        <rect id="Rectángulo_6663" data-name="Rectángulo 6663" width="43.289" height="63.291" transform="translate(106.125 25.794)" fill="#fff"/>
        <rect id="Rectángulo_6664" data-name="Rectángulo 6664" width="43.289" height="135.657" transform="translate(159.188)" fill="#fff"/>
        <rect id="Rectángulo_6665" data-name="Rectángulo 6665" width="43.289" height="46.095" transform="translate(212.251 75.949)" fill="#fff"/>
        <rect id="Rectángulo_6666" data-name="Rectángulo 6666" width="43.289" height="93.384" transform="translate(265.314)" fill="#fff"/>
        <rect id="Rectángulo_6667" data-name="Rectángulo 6667" width="43.289" height="106.758" transform="translate(318.376 56.842)" fill="#fff"/>
        <rect id="Rectángulo_6668" data-name="Rectángulo 6668" width="43.289" height="92.667" transform="translate(371.439 15.763)" fill="#fff"/>
      </g>
    </g>
    <g id="Grupo_57561" data-name="Grupo 57561" transform="translate(392.312 2006.609)">
      <g id="Grupo_57545" data-name="Grupo 57545" transform="translate(0 36.542)">
        <rect id="Rectángulo_6669" data-name="Rectángulo 6669" width="1.732" height="55.698" transform="translate(3.463)" fill="#81badb"/>
        <rect id="Rectángulo_6670" data-name="Rectángulo 6670" width="8.658" height="27.227" transform="translate(0 13.967)" fill="#0475b7"/>
      </g>
      <g id="Grupo_57546" data-name="Grupo 57546" transform="translate(60.545 98.16)">
        <rect id="Rectángulo_6671" data-name="Rectángulo 6671" width="1.731" height="40.113" transform="translate(3.463)" fill="#81badb"/>
        <rect id="Rectángulo_6672" data-name="Rectángulo 6672" width="8.658" height="13.852" transform="translate(0 13.967)" fill="#0475b7"/>
      </g>
      <g id="Grupo_57547" data-name="Grupo 57547" transform="translate(85.264 41.273)">
        <rect id="Rectángulo_6673" data-name="Rectángulo 6673" width="1.732" height="55.698" transform="translate(3.463)" fill="#81badb"/>
        <rect id="Rectángulo_6674" data-name="Rectángulo 6674" width="8.658" height="35.019" transform="translate(0 9.638)" fill="#0475b7"/>
      </g>
      <g id="Grupo_57548" data-name="Grupo 57548" transform="translate(118.94 0.716)">
        <rect id="Rectángulo_6675" data-name="Rectángulo 6675" width="1.732" height="55.698" transform="translate(3.463)" fill="#81badb"/>
        <rect id="Rectángulo_6676" data-name="Rectángulo 6676" width="8.658" height="19.435" transform="translate(0 8.773)" fill="#0475b7"/>
      </g>
      <g id="Grupo_57549" data-name="Grupo 57549" transform="translate(139.718 81.681)">
        <rect id="Rectángulo_6677" data-name="Rectángulo 6677" width="1.732" height="55.698" transform="translate(3.463)" fill="#81badb"/>
        <rect id="Rectángulo_6678" data-name="Rectángulo 6678" width="8.658" height="37.617" transform="translate(0 8.773)" fill="#0475b7"/>
      </g>
      <g id="Grupo_57550" data-name="Grupo 57550" transform="translate(166.229 24.839)">
        <rect id="Rectángulo_6679" data-name="Rectángulo 6679" width="1.732" height="42.711" transform="translate(3.463)" fill="#81badb"/>
        <rect id="Rectángulo_6680" data-name="Rectángulo 6680" width="8.658" height="20.3" transform="translate(0 10.504)" fill="#0475b7"/>
      </g>
      <g id="Grupo_57551" data-name="Grupo 57551" transform="translate(193.097 62.933)">
        <rect id="Rectángulo_6681" data-name="Rectángulo 6681" width="2.084" height="55.698" transform="translate(4.168)" fill="#81badb"/>
        <rect id="Rectángulo_6682" data-name="Rectángulo 6682" width="10.419" height="30.69" transform="translate(0 10.504)" fill="#0475b7"/>
      </g>
      <g id="Grupo_57552" data-name="Grupo 57552" transform="translate(216.219 17.256)">
        <rect id="Rectángulo_6683" data-name="Rectángulo 6683" width="2.084" height="27.992" transform="translate(4.168)" fill="#81badb"/>
        <rect id="Rectángulo_6684" data-name="Rectángulo 6684" width="10.419" height="10.031" transform="translate(0 5.309)" fill="#0475b7"/>
      </g>
      <g id="Grupo_57553" data-name="Grupo 57553" transform="translate(387.9 30.843)">
        <rect id="Rectángulo_6685" data-name="Rectángulo 6685" width="2.084" height="27.992" transform="matrix(0.999, -0.032, 0.032, 0.999, 3.993, 0.068)" fill="#81badb"/>
        <rect id="Rectángulo_6686" data-name="Rectángulo 6686" width="10.419" height="10.031" transform="matrix(0.999, -0.032, 0.032, 0.999, 0, 5.509)" fill="#0475b7"/>
      </g>
      <g id="Grupo_57554" data-name="Grupo 57554" transform="translate(35.826 55.171)">
        <rect id="Rectángulo_6687" data-name="Rectángulo 6687" width="1.732" height="55.698" transform="translate(3.463)" fill="#81badb"/>
        <rect id="Rectángulo_6688" data-name="Rectángulo 6688" width="8.658" height="20.778" transform="translate(0 11.997)" fill="#0475b7"/>
      </g>
      <g id="Grupo_57555" data-name="Grupo 57555" transform="translate(236.281 60.098)">
        <rect id="Rectángulo_6689" data-name="Rectángulo 6689" width="2.084" height="55.698" transform="translate(4.168)" fill="#81badb"/>
        <rect id="Rectángulo_6690" data-name="Rectángulo 6690" width="10.419" height="24.003" transform="translate(0 23.282)" fill="#0475b7"/>
      </g>
      <g id="Grupo_57556" data-name="Grupo 57556" transform="translate(266.016 7.493)">
        <rect id="Rectángulo_6691" data-name="Rectángulo 6691" width="2.084" height="55.698" transform="translate(4.168)" fill="#81badb"/>
        <rect id="Rectángulo_6692" data-name="Rectángulo 6692" width="10.419" height="38.213" transform="translate(0 9.31)" fill="#0475b7"/>
      </g>
      <g id="Grupo_57557" data-name="Grupo 57557" transform="translate(297.184 69.203)">
        <rect id="Rectángulo_6693" data-name="Rectángulo 6693" width="2.084" height="47.04" transform="translate(4.168)" fill="#81badb"/>
        <rect id="Rectángulo_6694" data-name="Rectángulo 6694" width="10.419" height="20.42" transform="translate(0 12.116)" fill="#0475b7"/>
      </g>
      <g id="Grupo_57558" data-name="Grupo 57558" transform="translate(325.486 27.943)">
        <rect id="Rectángulo_6695" data-name="Rectángulo 6695" width="2.084" height="55.698" transform="translate(4.168)" fill="#81badb"/>
        <rect id="Rectángulo_6696" data-name="Rectángulo 6696" width="10.419" height="27.227" transform="translate(0 8.772)" fill="#0475b7"/>
      </g>
      <g id="Grupo_57559" data-name="Grupo 57559" transform="translate(355.22)">
        <rect id="Rectángulo_6697" data-name="Rectángulo 6697" width="2.084" height="44.443" transform="translate(4.168)" fill="#81badb"/>
        <rect id="Rectángulo_6698" data-name="Rectángulo 6698" width="10.419" height="15.971" transform="translate(0 13.967)" fill="#0475b7"/>
      </g>
      <g id="Grupo_57560" data-name="Grupo 57560" transform="translate(370.983 77.994)">
        <rect id="Rectángulo_6699" data-name="Rectángulo 6699" width="2.084" height="44.443" transform="translate(4.168)" fill="#81badb"/>
        <rect id="Rectángulo_6700" data-name="Rectángulo 6700" width="10.419" height="15.971" transform="translate(0 13.967)" fill="#0475b7"/>
      </g>
    </g>
    <g id="Grupo_57562" data-name="Grupo 57562" transform="translate(352.218 2011.585)">
      <path id="Trazado_115584" data-name="Trazado 115584" d="M370.313,2272.751l129.448-134.7,51.588,29.734,131.836-100.429,59.231,54.932,94.1-84.069" transform="translate(-356.939 -2019.912)" fill="none" stroke="#a0a603" stroke-miterlimit="10" stroke-width="11.238"/>
      <circle id="Elipse_4171" data-name="Elipse 4171" cx="10.822" cy="10.822" r="10.822" transform="matrix(0.29, -0.957, 0.957, 0.29, 0, 260.061)" fill="#a0a603"/>
      <circle id="Elipse_4172" data-name="Elipse 4172" cx="10.822" cy="10.822" r="10.822" transform="translate(127.646 117.858) rotate(-44.155)" fill="#a0a603"/>
      <circle id="Elipse_4173" data-name="Elipse 4173" cx="10.822" cy="10.822" r="10.822" transform="matrix(0.765, -0.643, 0.643, 0.765, 179.055, 144.831)" fill="#a0a603"/>
      <circle id="Elipse_4174" data-name="Elipse 4174" cx="10.822" cy="10.822" r="10.822" transform="translate(313.38 55.575) rotate(-76.636)" fill="#a0a603"/>
      <circle id="Elipse_4175" data-name="Elipse 4175" cx="10.822" cy="10.822" r="10.822" transform="translate(370.217 102.359) rotate(-45)" fill="#a0a603"/>
      <path id="Trazado_115585" data-name="Trazado 115585" d="M985.606,2014.457l-22.456,6.017-22.456,6.017,23.652,9.225,9.225,23.652,6.017-22.456Z" transform="translate(-487.88 -2014.457)" fill="#a0a603"/>
    </g>
    <g id="Grupo_57563" data-name="Grupo 57563" transform="translate(681.786 2188.784)">
      <circle id="Elipse_4176" data-name="Elipse 4176" cx="21.596" cy="21.596" r="21.596" transform="matrix(0.431, -0.902, 0.902, 0.431, 20.728, 59.594)" fill="none"/>
      <path id="Trazado_115586" data-name="Trazado 115586" d="M826.612,2272.733a28.933,28.933,0,1,0,37,17.469A28.934,28.934,0,0,0,826.612,2272.733Zm17.521,48.866a22.979,22.979,0,1,1,13.875-29.387A22.979,22.979,0,0,1,844.133,2321.6Z" transform="translate(-786.856 -2250.557)" fill="#7fb8da"/>
      <path id="Trazado_115587" data-name="Trazado 115587" d="M878.006,2307.543a49.56,49.56,0,0,0,1.582-8.071l-8.77-3.5a40.252,40.252,0,0,0-.062-4.895l8.63-4.066a49.715,49.715,0,0,0-1.814-7.9l-9.422.366a40.791,40.791,0,0,0-2.149-4.685l6.227-7.22a49.343,49.343,0,0,0-4.781-6.378l-8.463,4.17a40.531,40.531,0,0,0-4.076-3.56l2.747-9.11a49.9,49.9,0,0,0-6.882-3.8l-6.036,7.252a40.634,40.634,0,0,0-5.365-1.634l-1.194-9.421a49.318,49.318,0,0,0-7.754-.634l-2.57,9.1a40.207,40.207,0,0,0-5.67.754l-4.91-8.1q-1.857.509-3.7,1.167t-3.6,1.45l1.355,9.375a40.253,40.253,0,0,0-4.857,3.021l-7.766-5.393a49.292,49.292,0,0,0-5.584,5.417l5.064,8.033a40.559,40.559,0,0,0-3.1,4.67l-9.269-1.765a49.866,49.866,0,0,0-2.9,7.307l7.909,5.29a40.51,40.51,0,0,0-.885,5.338l-9.184,2.159a49.28,49.28,0,0,0,.362,7.962l9.4,1.619a40.833,40.833,0,0,0,1.318,4.982l-7.509,5.705a49.748,49.748,0,0,0,3.618,7.251l9.248-2.345a40.1,40.1,0,0,0,3.061,3.819l-4.546,8.278a49.59,49.59,0,0,0,6.351,5.227l7.493-5.9a40.913,40.913,0,0,0,4.133,2.149l-.787,9.427a49.683,49.683,0,0,0,8.008,2.265l4.437-8.424a40.317,40.317,0,0,0,4.5.305l3.123,8.953a49.292,49.292,0,0,0,8.291-1.159l.626-9.487q1.061-.316,2.115-.693t2.073-.809l6.512,6.928a49.309,49.309,0,0,0,7.14-4.373l-3.278-8.9a40.244,40.244,0,0,0,3.281-3.095l8.779,3.686a49.691,49.691,0,0,0,4.744-6.838l-6.6-6.779a40.654,40.654,0,0,0,1.827-4.285Zm-37.31,15.472a30.963,30.963,0,1,1,18.7-39.6A30.964,30.964,0,0,1,840.7,2323.015Z" transform="translate(-780.724 -2244.457)" fill="#7fb8da"/>
    </g>
    <path id="Trazado_115588" data-name="Trazado 115588" d="M917.472,2228.512a17.911,17.911,0,0,0-1.293-2.3l2.084-3.549a21.4,21.4,0,0,0-2.443-2.607l-3.675,1.851a17.887,17.887,0,0,0-4.607-2.533l-.4-4.094a21.643,21.643,0,0,0-3.511-.676l-1.884,3.656a17.7,17.7,0,0,0-5.218.656l-2.727-3.076c-.555.207-1.106.437-1.65.694s-1.074.532-1.587.827l.625,4.063a17.693,17.693,0,0,0-3.838,3.6l-4.016-.885a21.648,21.648,0,0,0-1.722,3.133l2.9,2.922a17.9,17.9,0,0,0-.992,5.163L879.742,2237a21.429,21.429,0,0,0,.446,3.546l4.061.662a17.988,17.988,0,0,0,2.236,4.76l-2.084,3.548a21.446,21.446,0,0,0,2.444,2.608l3.675-1.852a17.907,17.907,0,0,0,4.607,2.534l.4,4.094a21.726,21.726,0,0,0,3.511.676l1.884-3.656a17.671,17.671,0,0,0,5.218-.656l2.728,3.075c.554-.207,1.1-.437,1.65-.692s1.073-.533,1.586-.828l-.624-4.063a17.709,17.709,0,0,0,3.838-3.6l4.016.885a21.7,21.7,0,0,0,1.722-3.134l-2.9-2.921a17.873,17.873,0,0,0,.992-5.163l3.772-1.646a21.507,21.507,0,0,0-.446-3.546l-4.062-.662A17.952,17.952,0,0,0,917.472,2228.512Zm-11.617,17.212a10.64,10.64,0,1,1,5.107-14.155A10.641,10.641,0,0,1,905.856,2245.723Z" transform="translate(-121.669 -48.82)" fill="#7fb8da"/>
    <path id="Trazado_115589" data-name="Trazado 115589" d="M855.188,2199.733a25.364,25.364,0,0,0-.106-3.728l4.945-3.068a30.335,30.335,0,0,0-1.342-4.872l-5.818-.1a25.291,25.291,0,0,0-4.1-6.2l2.195-5.387a30.624,30.624,0,0,0-3.949-3.157l-4.764,3.336a25.029,25.029,0,0,0-6.963-2.614l-1.389-5.645c-.83-.106-1.67-.181-2.522-.219s-1.694-.039-2.53-.009l-1.893,5.5a25.013,25.013,0,0,0-7.17,1.975l-4.444-3.751a30.571,30.571,0,0,0-4.217,2.788l1.7,5.563a25.267,25.267,0,0,0-4.641,5.808l-5.8-.424a30.308,30.308,0,0,0-1.775,4.731l4.646,3.5a25.451,25.451,0,0,0-.336,7.428l-4.944,3.069a30.354,30.354,0,0,0,1.342,4.872l5.818.1a25.31,25.31,0,0,0,4.1,6.2l-2.195,5.387a30.681,30.681,0,0,0,3.948,3.156l4.764-3.335a25.045,25.045,0,0,0,6.963,2.614l1.389,5.644q1.245.16,2.521.219c.851.039,1.695.04,2.531.009l1.893-5.5a25.052,25.052,0,0,0,7.17-1.975l4.444,3.752a30.7,30.7,0,0,0,4.217-2.788l-1.7-5.562a25.3,25.3,0,0,0,4.641-5.808l5.8.423a30.275,30.275,0,0,0,1.776-4.731l-4.646-3.5A25.471,25.471,0,0,0,855.188,2199.733Zm-25.869,13.892a15.046,15.046,0,1,1,15.71-14.351A15.046,15.046,0,0,1,829.319,2213.624Z" transform="translate(-103.356 -38.131)" fill="#7fb8da"/>
    <g id="Grupo_57580" data-name="Grupo 57580" transform="translate(464.854 2214.69)">
      <g id="Grupo_57575" data-name="Grupo 57575">
        <g id="Grupo_57564" data-name="Grupo 57564" transform="translate(10.317)">
          <rect id="Rectángulo_6701" data-name="Rectángulo 6701" width="76.54" height="13.185" transform="translate(0 0)" fill="#fcde16"/>
          <rect id="Rectángulo_6702" data-name="Rectángulo 6702" width="2.747" height="13.185" transform="translate(4.833 0)" fill="#d2b982" style="mix-blend-mode: multiply;isolation: isolate"/>
          <rect id="Rectángulo_6703" data-name="Rectángulo 6703" width="2.747" height="13.185" transform="translate(12.924 0)" fill="#d2b982" style="mix-blend-mode: multiply;isolation: isolate"/>
          <rect id="Rectángulo_6704" data-name="Rectángulo 6704" width="2.747" height="13.185" transform="translate(21.015 0)" fill="#d2b982" style="mix-blend-mode: multiply;isolation: isolate"/>
          <rect id="Rectángulo_6705" data-name="Rectángulo 6705" width="2.747" height="13.185" transform="translate(29.105 0)" fill="#d2b982" style="mix-blend-mode: multiply;isolation: isolate"/>
          <rect id="Rectángulo_6706" data-name="Rectángulo 6706" width="2.747" height="13.185" transform="translate(37.196 0)" fill="#d2b982" style="mix-blend-mode: multiply;isolation: isolate"/>
          <rect id="Rectángulo_6707" data-name="Rectángulo 6707" width="2.747" height="13.185" transform="translate(45.287 0)" fill="#d2b982" style="mix-blend-mode: multiply;isolation: isolate"/>
          <rect id="Rectángulo_6708" data-name="Rectángulo 6708" width="2.747" height="13.185" transform="translate(53.378)" fill="#d2b982" style="mix-blend-mode: multiply;isolation: isolate"/>
          <rect id="Rectángulo_6709" data-name="Rectángulo 6709" width="2.747" height="13.185" transform="translate(61.468)" fill="#d2b982" style="mix-blend-mode: multiply;isolation: isolate"/>
          <rect id="Rectángulo_6710" data-name="Rectángulo 6710" width="2.747" height="13.185" transform="translate(69.559)" fill="#d2b982" style="mix-blend-mode: multiply;isolation: isolate"/>
        </g>
        <g id="Grupo_57566" data-name="Grupo 57566" transform="translate(0 13.185)">
          <g id="Grupo_57565" data-name="Grupo 57565">
            <rect id="Rectángulo_6711" data-name="Rectángulo 6711" width="76.54" height="13.185" transform="translate(0 0)" fill="#fcde16"/>
            <rect id="Rectángulo_6712" data-name="Rectángulo 6712" width="2.747" height="13.185" transform="translate(4.833 0)" fill="#d2b982" style="mix-blend-mode: multiply;isolation: isolate"/>
            <rect id="Rectángulo_6713" data-name="Rectángulo 6713" width="2.747" height="13.185" transform="translate(12.924 0)" fill="#d2b982" style="mix-blend-mode: multiply;isolation: isolate"/>
            <rect id="Rectángulo_6714" data-name="Rectángulo 6714" width="2.747" height="13.185" transform="translate(21.015 0)" fill="#d2b982" style="mix-blend-mode: multiply;isolation: isolate"/>
            <rect id="Rectángulo_6715" data-name="Rectángulo 6715" width="2.747" height="13.185" transform="translate(29.105 0)" fill="#d2b982" style="mix-blend-mode: multiply;isolation: isolate"/>
            <rect id="Rectángulo_6716" data-name="Rectángulo 6716" width="2.747" height="13.185" transform="translate(37.196 0)" fill="#d2b982" style="mix-blend-mode: multiply;isolation: isolate"/>
            <rect id="Rectángulo_6717" data-name="Rectángulo 6717" width="2.747" height="13.185" transform="translate(45.287 0)" fill="#d2b982" style="mix-blend-mode: multiply;isolation: isolate"/>
            <rect id="Rectángulo_6718" data-name="Rectángulo 6718" width="2.747" height="13.185" transform="translate(53.378 0)" fill="#d2b982" style="mix-blend-mode: multiply;isolation: isolate"/>
            <rect id="Rectángulo_6719" data-name="Rectángulo 6719" width="2.747" height="13.185" transform="translate(61.468)" fill="#d2b982" style="mix-blend-mode: multiply;isolation: isolate"/>
            <rect id="Rectángulo_6720" data-name="Rectángulo 6720" width="2.747" height="13.185" transform="translate(69.559 0)" fill="#d2b982" style="mix-blend-mode: multiply;isolation: isolate"/>
          </g>
          <rect id="Rectángulo_6721" data-name="Rectángulo 6721" width="76.54" height="1.852" transform="translate(0 0)" fill="#e8dbbf" style="mix-blend-mode: multiply;isolation: isolate"/>
        </g>
        <g id="Grupo_57568" data-name="Grupo 57568" transform="translate(9.717 26.369)">
          <g id="Grupo_57567" data-name="Grupo 57567">
            <rect id="Rectángulo_6722" data-name="Rectángulo 6722" width="76.54" height="13.185" transform="translate(0 0)" fill="#fcde16"/>
            <rect id="Rectángulo_6723" data-name="Rectángulo 6723" width="2.747" height="13.185" transform="translate(4.833 0)" fill="#d2b982" style="mix-blend-mode: multiply;isolation: isolate"/>
            <rect id="Rectángulo_6724" data-name="Rectángulo 6724" width="2.747" height="13.185" transform="translate(12.924 0)" fill="#d2b982" style="mix-blend-mode: multiply;isolation: isolate"/>
            <rect id="Rectángulo_6725" data-name="Rectángulo 6725" width="2.747" height="13.185" transform="translate(21.015 0)" fill="#d2b982" style="mix-blend-mode: multiply;isolation: isolate"/>
            <rect id="Rectángulo_6726" data-name="Rectángulo 6726" width="2.747" height="13.185" transform="translate(29.105 0)" fill="#d2b982" style="mix-blend-mode: multiply;isolation: isolate"/>
            <rect id="Rectángulo_6727" data-name="Rectángulo 6727" width="2.747" height="13.185" transform="translate(37.196 0)" fill="#d2b982" style="mix-blend-mode: multiply;isolation: isolate"/>
            <rect id="Rectángulo_6728" data-name="Rectángulo 6728" width="2.747" height="13.185" transform="translate(45.287)" fill="#d2b982" style="mix-blend-mode: multiply;isolation: isolate"/>
            <rect id="Rectángulo_6729" data-name="Rectángulo 6729" width="2.747" height="13.185" transform="translate(53.378)" fill="#d2b982" style="mix-blend-mode: multiply;isolation: isolate"/>
            <rect id="Rectángulo_6730" data-name="Rectángulo 6730" width="2.747" height="13.185" transform="translate(61.468)" fill="#d2b982" style="mix-blend-mode: multiply;isolation: isolate"/>
            <rect id="Rectángulo_6731" data-name="Rectángulo 6731" width="2.747" height="13.185" transform="translate(69.559)" fill="#d2b982" style="mix-blend-mode: multiply;isolation: isolate"/>
          </g>
          <rect id="Rectángulo_6732" data-name="Rectángulo 6732" width="76.54" height="1.852" transform="translate(0 0)" fill="#e8dbbf" style="mix-blend-mode: multiply;isolation: isolate"/>
        </g>
        <g id="Grupo_57570" data-name="Grupo 57570" transform="translate(16.395 39.554)">
          <g id="Grupo_57569" data-name="Grupo 57569">
            <rect id="Rectángulo_6733" data-name="Rectángulo 6733" width="76.54" height="13.185" transform="translate(0 0)" fill="#fcde16"/>
            <rect id="Rectángulo_6734" data-name="Rectángulo 6734" width="2.747" height="13.185" transform="translate(4.833 0)" fill="#d2b982" style="mix-blend-mode: multiply;isolation: isolate"/>
            <rect id="Rectángulo_6735" data-name="Rectángulo 6735" width="2.747" height="13.185" transform="translate(12.924 0)" fill="#d2b982" style="mix-blend-mode: multiply;isolation: isolate"/>
            <rect id="Rectángulo_6736" data-name="Rectángulo 6736" width="2.747" height="13.185" transform="translate(21.015 0)" fill="#d2b982" style="mix-blend-mode: multiply;isolation: isolate"/>
            <rect id="Rectángulo_6737" data-name="Rectángulo 6737" width="2.747" height="13.185" transform="translate(29.105 0)" fill="#d2b982" style="mix-blend-mode: multiply;isolation: isolate"/>
            <rect id="Rectángulo_6738" data-name="Rectángulo 6738" width="2.747" height="13.185" transform="translate(37.196 0)" fill="#d2b982" style="mix-blend-mode: multiply;isolation: isolate"/>
            <rect id="Rectángulo_6739" data-name="Rectángulo 6739" width="2.747" height="13.185" transform="translate(45.287)" fill="#d2b982" style="mix-blend-mode: multiply;isolation: isolate"/>
            <rect id="Rectángulo_6740" data-name="Rectángulo 6740" width="2.747" height="13.185" transform="translate(53.378)" fill="#d2b982" style="mix-blend-mode: multiply;isolation: isolate"/>
            <rect id="Rectángulo_6741" data-name="Rectángulo 6741" width="2.747" height="13.185" transform="translate(61.468)" fill="#d2b982" style="mix-blend-mode: multiply;isolation: isolate"/>
            <rect id="Rectángulo_6742" data-name="Rectángulo 6742" width="2.747" height="13.185" transform="translate(69.559)" fill="#d2b982" style="mix-blend-mode: multiply;isolation: isolate"/>
          </g>
          <rect id="Rectángulo_6743" data-name="Rectángulo 6743" width="76.54" height="1.852" transform="translate(0 0)" fill="#e8dbbf" style="mix-blend-mode: multiply;isolation: isolate"/>
        </g>
        <g id="Grupo_57572" data-name="Grupo 57572" transform="translate(3.253 52.739)">
          <g id="Grupo_57571" data-name="Grupo 57571">
            <rect id="Rectángulo_6744" data-name="Rectángulo 6744" width="76.54" height="13.185" transform="translate(0 0)" fill="#fcde16"/>
            <rect id="Rectángulo_6745" data-name="Rectángulo 6745" width="2.747" height="13.185" transform="translate(4.833 0)" fill="#d2b982" style="mix-blend-mode: multiply;isolation: isolate"/>
            <rect id="Rectángulo_6746" data-name="Rectángulo 6746" width="2.747" height="13.185" transform="translate(12.924 0)" fill="#d2b982" style="mix-blend-mode: multiply;isolation: isolate"/>
            <rect id="Rectángulo_6747" data-name="Rectángulo 6747" width="2.747" height="13.185" transform="translate(21.015 0)" fill="#d2b982" style="mix-blend-mode: multiply;isolation: isolate"/>
            <rect id="Rectángulo_6748" data-name="Rectángulo 6748" width="2.747" height="13.185" transform="translate(29.105 0)" fill="#d2b982" style="mix-blend-mode: multiply;isolation: isolate"/>
            <rect id="Rectángulo_6749" data-name="Rectángulo 6749" width="2.747" height="13.185" transform="translate(37.196 0)" fill="#d2b982" style="mix-blend-mode: multiply;isolation: isolate"/>
            <rect id="Rectángulo_6750" data-name="Rectángulo 6750" width="2.747" height="13.185" transform="translate(45.287 0)" fill="#d2b982" style="mix-blend-mode: multiply;isolation: isolate"/>
            <rect id="Rectángulo_6751" data-name="Rectángulo 6751" width="2.747" height="13.185" transform="translate(53.378)" fill="#d2b982" style="mix-blend-mode: multiply;isolation: isolate"/>
            <rect id="Rectángulo_6752" data-name="Rectángulo 6752" width="2.747" height="13.185" transform="translate(61.468)" fill="#d2b982" style="mix-blend-mode: multiply;isolation: isolate"/>
            <rect id="Rectángulo_6753" data-name="Rectángulo 6753" width="2.747" height="13.185" transform="translate(69.559)" fill="#d2b982" style="mix-blend-mode: multiply;isolation: isolate"/>
          </g>
          <rect id="Rectángulo_6754" data-name="Rectángulo 6754" width="76.54" height="1.852" transform="translate(0 0)" fill="#e8dbbf" style="mix-blend-mode: multiply;isolation: isolate"/>
        </g>
        <g id="Grupo_57574" data-name="Grupo 57574" transform="translate(12.971 65.924)">
          <g id="Grupo_57573" data-name="Grupo 57573">
            <rect id="Rectángulo_6755" data-name="Rectángulo 6755" width="76.54" height="13.185" transform="translate(0 0)" fill="#fcde16"/>
            <rect id="Rectángulo_6756" data-name="Rectángulo 6756" width="2.747" height="13.185" transform="translate(4.834 0)" fill="#d2b982" style="mix-blend-mode: multiply;isolation: isolate"/>
            <rect id="Rectángulo_6757" data-name="Rectángulo 6757" width="2.747" height="13.185" transform="translate(12.924 0)" fill="#d2b982" style="mix-blend-mode: multiply;isolation: isolate"/>
            <rect id="Rectángulo_6758" data-name="Rectángulo 6758" width="2.747" height="13.185" transform="translate(21.015 0)" fill="#d2b982" style="mix-blend-mode: multiply;isolation: isolate"/>
            <rect id="Rectángulo_6759" data-name="Rectángulo 6759" width="2.747" height="13.185" transform="translate(29.105)" fill="#d2b982" style="mix-blend-mode: multiply;isolation: isolate"/>
            <rect id="Rectángulo_6760" data-name="Rectángulo 6760" width="2.747" height="13.185" transform="translate(37.196)" fill="#d2b982" style="mix-blend-mode: multiply;isolation: isolate"/>
            <rect id="Rectángulo_6761" data-name="Rectángulo 6761" width="2.747" height="13.185" transform="translate(45.287)" fill="#d2b982" style="mix-blend-mode: multiply;isolation: isolate"/>
            <rect id="Rectángulo_6762" data-name="Rectángulo 6762" width="2.747" height="13.185" transform="translate(53.378)" fill="#d2b982" style="mix-blend-mode: multiply;isolation: isolate"/>
            <rect id="Rectángulo_6763" data-name="Rectángulo 6763" width="2.747" height="13.185" transform="translate(61.468)" fill="#d2b982" style="mix-blend-mode: multiply;isolation: isolate"/>
            <rect id="Rectángulo_6764" data-name="Rectángulo 6764" width="2.747" height="13.185" transform="translate(69.559)" fill="#d2b982" style="mix-blend-mode: multiply;isolation: isolate"/>
          </g>
          <rect id="Rectángulo_6765" data-name="Rectángulo 6765" width="76.54" height="1.852" transform="translate(0 0)" fill="#e8dbbf" style="mix-blend-mode: multiply;isolation: isolate"/>
        </g>
      </g>
      <path id="Trazado_115590" data-name="Trazado 115590" d="M604.651,2325.609h-2.443v-12.8c-16.787,1.831-29.878,16.779-29.878,34.952a36.429,36.429,0,0,0,4.381,17.4h28.75v-13.185h-9.717v-13.184h13.142v-13.185Z" transform="translate(-515.95 -2286.054)" fill="#e3d3b1" style="mix-blend-mode: multiply;isolation: isolate"/>
      <g id="Grupo_57579" data-name="Grupo 57579" transform="translate(53.665 16.671)">
        <g id="Grupo_57577" data-name="Grupo 57577">
          <g id="Grupo_57576" data-name="Grupo 57576">
            <circle id="Elipse_4177" data-name="Elipse 4177" cx="32.388" cy="32.388" r="32.388" transform="translate(0 63.155) rotate(-77.154)" fill="#fcde16"/>
            <circle id="Elipse_4178" data-name="Elipse 4178" cx="24.254" cy="24.254" r="24.254" transform="translate(14.524 14.524)" fill="#dcc99e" style="mix-blend-mode: multiply;isolation: isolate"/>
            <path id="Trazado_115591" data-name="Trazado 115591" d="M589.729,2344.75a24.255,24.255,0,0,1,39.686-18.712,24.254,24.254,0,1,0-32.934,35.5A24.172,24.172,0,0,1,589.729,2344.75Z" transform="translate(-573.134 -2304.049)" fill="#dfcda7" style="mix-blend-mode: multiply;isolation: isolate"/>
            <path id="Trazado_115592" data-name="Trazado 115592" d="M632.034,2328.676a24.253,24.253,0,0,1-34.273,34.272,24.253,24.253,0,1,0,34.273-34.272Z" transform="translate(-575.453 -2306.369)" fill="#fde961" style="mix-blend-mode: overlay;isolation: isolate"/>
          </g>
        </g>
        <g id="Grupo_57578" data-name="Grupo 57578" transform="translate(29.401 25.312)">
          <text id="_" data-name="$" transform="translate(1.15 25.152)" fill="#dac699" font-size="30" font-family="SegoeUI, Segoe UI" style="mix-blend-mode: multiply;isolation: isolate"><tspan x="0" y="0">$</tspan></text>
          <text id="_2" data-name="$" transform="translate(0 24)" fill="#fce230" font-size="30" font-family="SegoeUI, Segoe UI"><tspan x="0" y="0">$</tspan></text>
        </g>
      </g>
    </g>
    <g id="Grupo_57582" data-name="Grupo 57582" transform="translate(349.752 2107.272)">
      <path id="Trazado_115593" data-name="Trazado 115593" d="M362.746,2369.283c-.045.407-4.415,11.427-1.688,12.466s11.946.649,12.986-.389-5.454-10.388-5.454-12.336S363.006,2366.946,362.746,2369.283Z" transform="translate(-352.142 -2191.202)" fill="#0475b7"/>
      <path id="Trazado_115594" data-name="Trazado 115594" d="M406.385,2369.264s-1.223,8.744-.329,9.6,23.594,1.125,23.891.122c1.176-3.97-15.85-8.678-16.745-9.651S406.385,2369.264,406.385,2369.264Z" transform="translate(-362.603 -2191.508)" fill="#0475b7"/>
      <path id="Trazado_115595" data-name="Trazado 115595" d="M361.837,2266.48s.042,19.1-.585,35.646a378.226,378.226,0,0,0,1.008,44.4h7.411l9.112-66.017s1.451,11.219,6.818,32.918a319.083,319.083,0,0,0,10.194,33.1h9.61s-6.234-29.593-8.571-45.176-3.9-34.087-3.9-34.087Z" transform="translate(-352.336 -2168)" fill="#212849"/>
      <path id="Trazado_115596" data-name="Trazado 115596" d="M461.578,2153.062a6.692,6.692,0,0,1,1.169-5.194c1.817-2.207,7.271-8.7,7.271-6.882s-2.207,4.935-2.6,5.844.26,2.207.52,3.766.779,2.727-.26,3.9a12.978,12.978,0,0,1-2.986,2.208l-2.078,4.285a6.505,6.505,0,0,1-2.467-.779,13.96,13.96,0,0,1-2.078-1.689Z" transform="translate(-374.619 -2139.118)" fill="#ff9ba5"/>
      <path id="Trazado_115597" data-name="Trazado 115597" d="M381.206,2182.575s-7.531,3.766-9.479,6.882-6.492,15.842-8.57,30.516a238.147,238.147,0,0,0-2.337,24.413,165.521,165.521,0,0,0,19.349,1.559c9.35,0,13.245-1.3,13.245-1.3a188.405,188.405,0,0,1,1.818-22.854c1.688-11.038,4.674-23.244,4.674-23.244s12.75-2.1,20.777-7.012a43.764,43.764,0,0,0,16.752-18.18,68.471,68.471,0,0,0,3.9-8.441l-5.193-2.6s-8.7,11.038-18.31,14.8a84.369,84.369,0,0,1-23.893,5.064,30.116,30.116,0,0,1-6.1-.389Z" transform="translate(-352.293 -2144.088)" fill="#0475b7"/>
      <path id="Trazado_115598" data-name="Trazado 115598" d="M389.542,2162.933s2.273,8.051,8.636,9.61,8.192-3.371,7.726-8.441c-.584-6.363-5.843-13.959-7.921-14.09s-8.051,6.363-8.57,8.441A10.31,10.31,0,0,0,389.542,2162.933Z" transform="translate(-358.811 -2141.263)" fill="#ff9ba5"/>
      <path id="Trazado_115599" data-name="Trazado 115599" d="M390.3,2169.059l-4.285,16.751s1.948,4.74,6.818,3.571a4.433,4.433,0,0,0,3.7-4.8s-1.623-.13-1.169-3.052,1.688-7.532,1.688-7.532Z" transform="translate(-358.077 -2145.636)" fill="#ff9ba5"/>
      <path id="Trazado_115600" data-name="Trazado 115600" d="M389.586,2163.448a26.761,26.761,0,0,0-1.136-5.264,4.4,4.4,0,0,0-1.039-1.623s1.364-3.441,3.571-4.869,4.007-2.762,5.162-2.955a3.568,3.568,0,0,1,3.016,1.2c.2-1.093.609-3.193-1.945-8.045-1.8-3.428-7.215-4.7-9.328-.967-1.152,2.031-1.1,3.758-2.65,5.642-1.3,1.58-2.629,2.542-3.6,4.382-1.364,2.578.133,5.012.1,7.562-.012.94-.311,2.139.486,2.859C384.23,2163.184,389.586,2163.448,389.586,2163.448Z" transform="translate(-356.939 -2138.656)" fill="#212849"/>
      <path id="Trazado_115601" data-name="Trazado 115601" d="M391.2,2169.238s-2.987-1.429-3.636.389.519,3.247,2.337,2.857a5.436,5.436,0,0,0,2.987-2.338Z" transform="translate(-358.391 -2145.554)" fill="#ff9ba5"/>
      <path id="Trazado_115602" data-name="Trazado 115602" d="M400.737,2202.769l-6.882,33.892,23.764-.26,6.752-33.5Z" transform="translate(-359.877 -2153.375)" fill="#212849"/>
      <g id="Grupo_57581" data-name="Grupo 57581" transform="translate(0 38.869)">
        <path id="Trazado_115603" data-name="Trazado 115603" d="M387.45,2226.166l3.506-1.688a13.92,13.92,0,0,1,2.986-5.194,11.727,11.727,0,0,1,3.085-2.273l-.488,2.89s5.454-2.565,6.623-1.656.1,4.74-2.775,6.541a30.812,30.812,0,0,1-7.743,2.873l-3.636,3.182Z" transform="translate(-358.406 -2195.513)" fill="#ff9ba5"/>
        <path id="Trazado_115604" data-name="Trazado 115604" d="M377.887,2189.115s-18.18-.909-25.581,17.531,2.727,25.841,12.076,25.451,17.79-8.18,17.79-8.18l-2.207-4.805s-9.25,3.754-14.543,0c-7.143-5.064,1.817-9.869,1.817-9.869s-.937-4.336,4.026-13.116C372.952,2193.14,377.887,2189.115,377.887,2189.115Z" transform="translate(-349.752 -2189.107)" fill="#0475b7"/>
      </g>
      <path id="Trazado_115605" data-name="Trazado 115605" d="M412.142,2204.717l1.169-5.909,8.83.195-.714,5.973Z" transform="translate(-364.075 -2152.465)" fill="#454a66"/>
      <path id="Trazado_115606" data-name="Trazado 115606" d="M362.779,2242.344s3.7,1.208,9.982-.78c5.7-1.8,12.515-7.255,12.515-7.255" transform="translate(-352.743 -2160.615)" fill="none" stroke="#4297c9" stroke-miterlimit="10" stroke-width="0.916"/>
      <path id="Trazado_115607" data-name="Trazado 115607" d="M369.929,2211.871s-4.446,6.048-2.662,10.129c.665,1.52,1.935,3.128,5.649,3.8a19.239,19.239,0,0,0,10.973-1.462" transform="translate(-353.676 -2155.464)" fill="none" stroke="#4297c9" stroke-miterlimit="10" stroke-width="0.916"/>
    </g>
    <g id="Grupo_57586" data-name="Grupo 57586" transform="translate(468.373 2074.313)">
      <path id="Trazado_115608" data-name="Trazado 115608" d="M695.015,2377.463s-5.794,2.107-4.932,4.42c.753,2.018,12.874.256,18.062-1.857s-1.794-8.134-2.562-8.391S695.015,2377.463,695.015,2377.463Z" transform="translate(-546.483 -2159.18)" fill="#212849"/>
      <path id="Trazado_115609" data-name="Trazado 115609" d="M745.05,2374.587s-4.264,5.207-2.556,6.99c1.489,1.555,11.7-5.836,15.629-9.829s-4.865-6.762-5.671-6.693S745.05,2374.587,745.05,2374.587Z" transform="translate(-558.442 -2157.671)" fill="#212849"/>
      <path id="Trazado_115610" data-name="Trazado 115610" d="M697.968,2301.9s1.537,23.635,3.458,36.7,1.057,16.717,1.057,16.717-8.358,5.188-7.013,6.149,8.455-1.442,10.568-3.555,1.153-3.459,1.153-3.459,3.267-28.149,4.036-37.757a60.9,60.9,0,0,0-1.345-17.869s-5.764-4.8-8.07-3.267S697.968,2301.9,697.968,2301.9Z" transform="translate(-547.706 -2141.648)" fill="#ff9ba5"/>
      <path id="Trazado_115611" data-name="Trazado 115611" d="M722.7,2303.909s9.326,21.771,15.493,33.449,6.41,15,6.41,15-5.993,8.085-4.405,8.542,8.113-5.365,9.4-8.062a2.686,2.686,0,0,0-1.168-3.816s-5.822-26.271-8.3-35.585a60.931,60.931,0,0,0-7.224-16.4s-7.036-2.608-8.7-.39S722.7,2303.909,722.7,2303.909Z" transform="translate(-553.99 -2141.762)" fill="#ff9ba5"/>
      <path id="Trazado_115612" data-name="Trazado 115612" d="M699.15,2243.988s-4.516,4.227-4.9,21.521a194.533,194.533,0,0,0,1.345,29.206h40.928s-1.921-19.6-4.419-31.128-10.761-20.561-10.761-20.561Z" transform="translate(-547.446 -2129.657)" fill="#0475b7"/>
      <path id="Trazado_115613" data-name="Trazado 115613" d="M700.869,2183.5a19.551,19.551,0,0,0-13.45,9.735c-4.143,7.5-12.81,20.368-12.81,20.368l-7.942,4.612L670,2222.83s11.273-3.587,16.909-7.43,14.09-27.157,14.347-29.078A4.135,4.135,0,0,0,700.869,2183.5Z" transform="translate(-541.127 -2115.992)" fill="#2989c1"/>
      <path id="Trazado_115614" data-name="Trazado 115614" d="M710.62,2154.051s2.4-7.686,10.473-5.764,7.59,10.664,9.639,12.33,9.442,3.886,11.53,9.607c1.985,5.444,1.608,14.68-7.046,19.567-10.376,5.861-25.748,1.313-27.029-5.348s-2.178-16.269.256-21.265A20.05,20.05,0,0,0,710.62,2154.051Z" transform="translate(-550.366 -2107.837)" fill="#212849"/>
      <path id="Trazado_115615" data-name="Trazado 115615" d="M705.219,2184.473c-1.057,1.153-5,9.031-6.052,14.892s1.057,30.936,1.057,30.936l23.538,1.345s3.17-29.3,4.227-31.7,4.611-11.4,4.611-11.4-4.419-3.458-12.3-4.547C713.2,2183.011,706.276,2183.32,705.219,2184.473Z" transform="translate(-548.52 -2115.97)" fill="#2989c1"/>
      <path id="Trazado_115616" data-name="Trazado 115616" d="M722.879,2162.911s-3.374,7.531-9.808,8.138-7.512-4.466-6.329-9.347c1.484-6.126,7.707-12.785,9.754-12.614s6.944,7.366,7.152,9.469A10.179,10.179,0,0,1,722.879,2162.911Z" transform="translate(-550.231 -2108.092)" fill="#ff9ba5"/>
      <path id="Trazado_115617" data-name="Trazado 115617" d="M722.574,2167.624s-3.2,9.095-3.715,11.145.128,2.434.128,2.434,6.213.353,5.829,1.377-8.006,7.974-13.13,6.053-3.968-6.229-3.84-7,.253-.784.253-.784l3.459-.416s2.818-10.248,3.715-11.145S722.574,2167.624,722.574,2167.624Z" transform="translate(-550.534 -2112.347)" fill="#ff9ba5"/>
      <path id="Trazado_115618" data-name="Trazado 115618" d="M711.684,2153.93a14.859,14.859,0,0,1,3.923-2.562,5.149,5.149,0,0,1,2.738-.48,40.862,40.862,0,0,1,3.2,6.629,32.855,32.855,0,0,1,.865,7.43s3.619-1.185,4.2-2.915-1.057-10.376-3.651-11.817-4.323-2.306-6.533-1.442S711.684,2153.93,711.684,2153.93Z" transform="translate(-551.461 -2107.941)" fill="#212849"/>
      <path id="Trazado_115619" data-name="Trazado 115619" d="M725.868,2170.9s2.946,1.409,3.586-.384-.512-3.2-2.305-2.818a5.362,5.362,0,0,0-2.947,2.3Z" transform="translate(-554.335 -2112.35)" fill="#ff9ba5"/>
      <g id="Grupo_57584" data-name="Grupo 57584">
        <path id="Trazado_115620" data-name="Trazado 115620" d="M641.981,2187.659l10.568,5.764-6.725,14.411-11.913-6.917Z" transform="translate(-533.607 -2116.947)" fill="#434864"/>
        <path id="Trazado_115621" data-name="Trazado 115621" d="M653.546,2189.987l-9.992,18.959,88.9,45.86s5.519.307,9.159-7.238c3.939-8.167-1.985-11.978-1.985-11.978Z" transform="translate(-535.821 -2117.481)" fill="#212849"/>
        <g id="Grupo_57583" data-name="Grupo 57583">
          <path id="Trazado_115622" data-name="Trazado 115622" d="M563.138,2100.437a52.263,52.263,0,1,0,49.533,54.859A52.264,52.264,0,0,0,563.138,2100.437Z" transform="translate(-504.75 -2096.907)" fill="#fff" opacity="0.3" style="mix-blend-mode: lighten;isolation: isolate"/>
          <path id="Trazado_115623" data-name="Trazado 115623" d="M562.284,2095.95a55.723,55.723,0,1,0,52.812,58.491A55.725,55.725,0,0,0,562.284,2095.95Zm-5.052,99.021a43.426,43.426,0,1,1,45.582-41.157A43.426,43.426,0,0,1,557.232,2194.971Z" transform="translate(-503.719 -2095.876)" fill="#373d5b"/>
          <path id="Trazado_115624" data-name="Trazado 115624" d="M556.76,2127.584c-4.378-3.68-12.3-.936-17.7,6.13s-6.226,15.777-1.848,19.457,12.3.936,17.7-6.13S561.138,2131.264,556.76,2127.584Z" transform="translate(-510.763 -2102.78)" fill="#fff"/>
        </g>
      </g>
      <path id="Trazado_115625" data-name="Trazado 115625" d="M662.139,2226.767c1.173-2.01,5.4-4.778,8.864-2.84s0,9-3.462,8.864S661.17,2228.429,662.139,2226.767Z" transform="translate(-540.044 -2125.122)" fill="#ff9ba5"/>
      <g id="Grupo_57585" data-name="Grupo 57585" transform="translate(173.064 69.175)">
        <path id="Trazado_115626" data-name="Trazado 115626" d="M747.077,2264.975c-.646,2.235-4.072,5.952-7.9,4.917s-2.2-8.729,1.193-9.44S747.611,2263.126,747.077,2264.975Z" transform="translate(-730.329 -2202.811)" fill="#ff9ba5"/>
        <path id="Trazado_115627" data-name="Trazado 115627" d="M741.654,2260.667,745.3,2255l5.381,2.5a58.623,58.623,0,0,1-3.267,6.341C746.265,2265.471,741.654,2260.667,741.654,2260.667Z" transform="translate(-731.406 -2201.581)" fill="#ff9ba5"/>
        <path id="Trazado_115628" data-name="Trazado 115628" d="M731.81,2185.664a22.919,22.919,0,0,1,11.017,6.277c5.252,5.253,14.627,23.667,14.6,28.886-.032,7.173-10.247,24.4-10.247,24.4l-6.79-4.355s5.893-12.81,5.509-19.855-17.55-21.521-17.55-21.521Z" transform="translate(-728.352 -2185.664)" fill="#2989c1"/>
      </g>
    </g>
    <g id="Grupo_57591" data-name="Grupo 57591" transform="translate(779.142 2049.236)">
      <path id="Trazado_115629" data-name="Trazado 115629" d="M962.146,2373.819c-.5.756-14.615,6.552-14.363,8.567s23.182,1.512,24.443.252-2.52-9.071-2.52-9.071Z" transform="translate(-916.43 -2134.548)" fill="#212849"/>
      <path id="Trazado_115630" data-name="Trazado 115630" d="M1017.287,2362.825s-2.695,13.859-1.183,15.622,6.06-.079,9.084-4.112-2.008-14.63-2.008-14.63Z" transform="translate(-932.01 -2131.366)" fill="#212849"/>
      <path id="Trazado_115631" data-name="Trazado 115631" d="M954.973,2259.527s-.321,21.252,1.512,44.853a311.426,311.426,0,0,0,6.3,43.845l9.528-.45s-1.058-17.131-1.465-35.583-.756-39.562-.756-39.562,4.536,25.45,14.614,45.357c8.458,16.7,17.891,23.939,17.891,23.939l7.811-4.788s-13.355-23.182-19.151-43.342a385.175,385.175,0,0,1-8.819-38.3Z" transform="translate(-918.077 -2107.443)" fill="#0475b7"/>
      <path id="Trazado_115632" data-name="Trazado 115632" d="M945.872,2142.26A90.238,90.238,0,0,0,949,2165.634c3.354,11.846,11.081,23.093,11.081,23.093l15.575-1.9s-11.738-15.363-15.593-23.823-7.372-21.068-7.372-21.068Z" transform="translate(-915.992 -2081.374)" fill="#212849"/>
      <path id="Trazado_115633" data-name="Trazado 115633" d="M959.56,2193.318a50.844,50.844,0,0,0-8.127,26.836c-.377,16.252.442,27.214.442,27.214a88.639,88.639,0,0,0,17.134-.756c7.566-1.292,14.111-3.024,14.111-3.024a289.165,289.165,0,0,1-3.15-31.372c-.378-13.985-3.024-20.411-7.559-21.545S959.56,2193.318,959.56,2193.318Z" transform="translate(-917.246 -2092.513)" fill="#212849"/>
      <g id="Grupo_57590" data-name="Grupo 57590" transform="translate(0 0)">
        <g id="Grupo_57588" data-name="Grupo 57588">
          <g id="Grupo_57587" data-name="Grupo 57587">
            <circle id="Elipse_4179" data-name="Elipse 4179" cx="32.324" cy="32.324" r="32.324" fill="#fcde16"/>
            <circle id="Elipse_4180" data-name="Elipse 4180" cx="24.206" cy="24.206" r="24.206" transform="translate(8.118 8.118)" fill="#dcc99e" style="mix-blend-mode: multiply;isolation: isolate"/>
            <path id="Trazado_115634" data-name="Trazado 115634" d="M919.692,2099.989a24.207,24.207,0,0,1,39.607-18.675,24.206,24.206,0,1,0-32.869,35.432A24.127,24.127,0,0,1,919.692,2099.989Z" transform="translate(-909.508 -2065.746)" fill="#dfcda7" style="mix-blend-mode: multiply;isolation: isolate"/>
            <path id="Trazado_115635" data-name="Trazado 115635" d="M961.913,2083.946a24.2,24.2,0,0,1-34.2,34.2,24.2,24.2,0,1,0,34.2-34.2Z" transform="translate(-911.823 -2068.06)" fill="#fde961" style="mix-blend-mode: overlay;isolation: isolate"/>
          </g>
        </g>
        <g id="Grupo_57589" data-name="Grupo 57589" transform="translate(22.965 18.835)">
          <text id="_3" data-name="$" transform="translate(1.148 25.15)" fill="#dac699" font-size="30" font-family="SegoeUI, Segoe UI" style="mix-blend-mode: multiply;isolation: isolate"><tspan x="0" y="0">$</tspan></text>
          <text id="_4" data-name="$" transform="translate(0 24)" fill="#fce230" font-size="30" font-family="SegoeUI, Segoe UI"><tspan x="0" y="0">$</tspan></text>
        </g>
      </g>
      <path id="Trazado_115636" data-name="Trazado 115636" d="M978.179,2172.184s-5.354,6.1-11.576,4.806-6.222-6.6-3.7-10.848c3.17-5.328,11.4-7.235,13.278-6.481s4.394,6.618,3.981,8.654A10.019,10.019,0,0,1,978.179,2172.184Z" transform="translate(-919.539 -2085.406)" fill="#ff9ba5"/>
      <path id="Trazado_115637" data-name="Trazado 115637" d="M964.5,2190.142a23.045,23.045,0,0,1,6.319-2.229c1.746-.373,3.512-.625,5.284-.838-.408-2.045-1.37-7.18-1.244-9.557.158-3,.158-4.268.158-4.268l-8.378,4.584a36.187,36.187,0,0,1-.475,6.956A22.941,22.941,0,0,1,964.5,2190.142Z" transform="translate(-920.269 -2088.562)" fill="#ff9ba5"/>
      <path id="Trazado_115638" data-name="Trazado 115638" d="M920.374,2141.47s1.134-9.7-.126-11.843-2.394,4.032-2.394,4.032-6.174-9.828-7.559-9.323-2.016,7.308.378,11.213a28.257,28.257,0,0,0,5.04,6.174,37.779,37.779,0,0,0,0,4.41,13.309,13.309,0,0,0,.5,3.906l6.8-1.89Z" transform="translate(-907.543 -2077.328)" fill="#ff9ba5"/>
      <path id="Trazado_115639" data-name="Trazado 115639" d="M977.807,2170.607a50.955,50.955,0,0,0,1.039-6.331c0-1.606-5.1-5.669-4.347-9.261s5.1-4.725,7.087-3.024,2.456,6.9,3.023,8.032,2.173.095,2.74,2.08-.661,3.4.19,4.724,1.512,3.213-.757,5.292-7.37,5.2-9.355,4.63-2.646-2.552-2.173-3.5A13.711,13.711,0,0,1,977.807,2170.607Z" transform="translate(-922.547 -2083.503)" fill="#212849"/>
      <path id="Trazado_115640" data-name="Trazado 115640" d="M977.671,2174.664s4.7,1.455,3.145,3.972c-1.237,2-3.532,1-3.907-1.183S977.671,2174.664,977.671,2174.664Z" transform="translate(-923.1 -2088.886)" fill="#ff9ba5"/>
      <path id="Trazado_115641" data-name="Trazado 115641" d="M924.024,2151s3.591,13.8,11.15,24,23.813,11.339,23.813,11.339l-10.016,18.9s-19.4-13.481-26.017-25.387-5.291-27.592-5.291-27.592Z" transform="translate(-909.491 -2083.453)" fill="#212849"/>
    </g>
  </g>
</svg>
