<svg xmlns="http://www.w3.org/2000/svg" width="415" height="173" viewBox="0 0 415 173">
  <g id="Grupo_60373" data-name="Grupo 60373" transform="translate(-593 -1244)">
    <g id="Grupo_58222" data-name="Grupo 58222" transform="translate(-1066.296 358.555)">
      <g id="Grupo_58126" data-name="Grupo 58126">
        <path id="Trazado_116833" data-name="Trazado 116833" d="M1794.935,937.128a.849.849,0,0,1-.757-1.232,81.251,81.251,0,0,1,4.67-8.046.849.849,0,0,1,1.417.935,79.284,79.284,0,0,0-4.572,7.877A.851.851,0,0,1,1794.935,937.128Zm10.124-15.341a.849.849,0,0,1-.649-1.394,81.576,81.576,0,0,1,6.377-6.773.848.848,0,0,1,1.167,1.232,80.144,80.144,0,0,0-6.244,6.631A.848.848,0,0,1,1805.059,921.787Zm13.343-12.645a.848.848,0,0,1-.51-1.526,81.779,81.779,0,0,1,7.742-5.159.848.848,0,1,1,.858,1.464,80.04,80.04,0,0,0-7.58,5.051A.845.845,0,0,1,1818.4,909.142Zm15.855-9.3a.849.849,0,0,1-.343-1.625,81.309,81.309,0,0,1,8.71-3.265.849.849,0,0,1,.5,1.621,79.581,79.581,0,0,0-8.529,3.2A.848.848,0,0,1,1834.257,899.841Zm62.754-.921a.853.853,0,0,1-.319-.062,79.422,79.422,0,0,0-8.621-2.94.848.848,0,0,1,.454-1.635,80.879,80.879,0,0,1,8.806,3,.848.848,0,0,1-.32,1.634Zm-45.2-4.53a.848.848,0,0,1-.157-1.682,81.049,81.049,0,0,1,9.225-1.193.848.848,0,1,1,.12,1.692,79.936,79.936,0,0,0-9.031,1.168A.842.842,0,0,1,1851.808,894.39ZM1879.3,894a.874.874,0,0,1-.134-.011c-1.4-.221-2.831-.407-4.248-.554-1.591-.164-3.212-.283-4.817-.352a.849.849,0,1,1,.073-1.7c1.639.071,3.294.192,4.919.36,1.447.15,2.906.34,4.337.566a.849.849,0,0,1-.13,1.687Z" fill="#6f7302"/>
      </g>
      <g id="Grupo_58127" data-name="Grupo 58127">
        <path id="Trazado_116834" data-name="Trazado 116834" d="M1812.816,1033.2a.845.845,0,0,1-.57-.22,82.512,82.512,0,0,1-6.526-6.628.849.849,0,0,1,1.275-1.12,80.748,80.748,0,0,0,6.391,6.491.849.849,0,0,1-.57,1.477Zm-12.141-13.8a.849.849,0,0,1-.7-.363,81.933,81.933,0,0,1-4.881-7.919.849.849,0,1,1,1.493-.807,80.464,80.464,0,0,0,4.78,7.755.849.849,0,0,1-.695,1.334Zm-8.733-16.174a.848.848,0,0,1-.788-.534,80.453,80.453,0,0,1-2.944-8.826.848.848,0,0,1,1.638-.443,78.827,78.827,0,0,0,2.882,8.639.85.85,0,0,1-.788,1.164Z" fill="#6f7302"/>
      </g>
      <g id="Grupo_58128" data-name="Grupo 58128">
        <path id="Trazado_116835" data-name="Trazado 116835" d="M1871.2,1053.8a.849.849,0,0,1-.046-1.7,79.421,79.421,0,0,0,9.051-1.019.849.849,0,0,1,.286,1.673,81.376,81.376,0,0,1-9.244,1.041Zm-9.2-.023h-.051c-1.2-.072-2.4-.17-3.59-.293-1.888-.2-3.789-.458-5.649-.781a.848.848,0,1,1,.29-1.672c1.822.317,3.684.574,5.534.765,1.161.121,2.344.217,3.516.287a.848.848,0,0,1-.05,1.695Zm27.321-3.08a.849.849,0,0,1-.238-1.664,79.57,79.57,0,0,0,8.58-3.056.849.849,0,0,1,.66,1.564,81.449,81.449,0,0,1-8.764,3.121A.855.855,0,0,1,1889.32,1050.692Zm-45.432-.068a.859.859,0,0,1-.239-.034,81.171,81.171,0,0,1-8.761-3.131.849.849,0,0,1,.662-1.563,79.277,79.277,0,0,0,8.577,3.065.849.849,0,0,1-.239,1.663Z" fill="#6f7302"/>
      </g>
      <g id="Grupo_58129" data-name="Grupo 58129">
        <path id="Trazado_116836" data-name="Trazado 116836" d="M1921.9,1032.013a.848.848,0,0,1-.581-1.467,80.094,80.094,0,0,0,6.263-6.609.849.849,0,1,1,1.3,1.095,81.827,81.827,0,0,1-6.4,6.75A.847.847,0,0,1,1921.9,1032.013Zm11.856-14.04a.849.849,0,0,1-.706-1.319,79.767,79.767,0,0,0,4.6-7.861.849.849,0,1,1,1.512.771,81.156,81.156,0,0,1-4.7,8.03A.847.847,0,0,1,1933.754,1017.973Zm8.352-16.373a.858.858,0,0,1-.3-.053.849.849,0,0,1-.5-1.092,80.177,80.177,0,0,0,2.687-8.7.848.848,0,0,1,1.647.407,81.435,81.435,0,0,1-2.744,8.889A.847.847,0,0,1,1942.106,1001.6Zm4.41-17.845a1.006,1.006,0,0,1-.109-.007.849.849,0,0,1-.733-.951c.084-.656.162-1.325.231-1.99.244-2.354.385-4.742.419-7.1a.849.849,0,1,1,1.7.025c-.035,2.4-.179,4.844-.428,7.247-.07.679-.15,1.363-.236,2.034A.849.849,0,0,1,1946.516,983.755Z" fill="#6f7302"/>
      </g>
      <circle id="Elipse_4209" data-name="Elipse 4209" cx="59.134" cy="59.134" r="59.134" transform="translate(1783.098 972.612) rotate(-45)" fill="#fff"/>
      <g id="Grupo_58144" data-name="Grupo 58144">
        <g id="Grupo_58136" data-name="Grupo 58136">
          <g id="Grupo_58130" data-name="Grupo 58130">
            <path id="Trazado_116837" data-name="Trazado 116837" d="M1870.514,935.368a8.677,8.677,0,0,0,.282-1.853c0-3.741-2.023-9.964-2.023-9.964l-6.762,1.265-2.853-4.775,4.318-5.356-9.582-7.127-3.887,5.676-5.394-1.359-.734-6.84.032-.011c-.549-.031-1.1-.051-1.657-.051a28.466,28.466,0,0,0-10.164,1.87l1.251,6.689-4.775,2.853-5.24-4.225a28.624,28.624,0,0,0-7.08,9.6l5.51,3.774-1.359,5.394-6.617.709c-.04.622-.068,1.246-.068,1.878a28.488,28.488,0,0,0,1.778,9.932l6.547-1.224L1824.89,947l-4.2,5.206a28.622,28.622,0,0,0,9.52,7.189l3.837-5.6,5.393,1.359.732,6.824c.688.049,1.38.083,2.08.083,3.513,0,9.739-1.794,9.739-1.794l-1.265-6.762,4.775-2.853,5.356,4.318,7.131-9.583-5.676-3.888,1.359-5.394Z" fill="#fff"/>
            <path id="Trazado_116838" data-name="Trazado 116838" d="M1842.254,962.906c-.65,0-1.331-.028-2.141-.086a.849.849,0,0,1-.783-.756l-.668-6.235-4.247-1.071-3.5,5.114a.849.849,0,0,1-1.059.29,29.262,29.262,0,0,1-9.8-7.4.848.848,0,0,1-.02-1.088l3.827-4.746-2.247-3.76-5.965,1.115a.848.848,0,0,1-.951-.539,29.269,29.269,0,0,1-1.832-10.227c0-.585.022-1.2.07-1.933a.848.848,0,0,1,.757-.788l6.028-.647,1.071-4.247-5.022-3.44a.849.849,0,0,1-.294-1.05,29.273,29.273,0,0,1,7.29-9.885.848.848,0,0,1,1.1-.026l4.78,3.854,3.76-2.247L1831.256,907a.848.848,0,0,1,.531-.949,29.271,29.271,0,0,1,10.467-1.926c.526,0,1.084.018,1.7.053a.848.848,0,0,1,.788.993l.646,6.027,4.248,1.07,3.553-5.188a.849.849,0,0,1,1.207-.2l9.581,7.127a.85.85,0,0,1,.154,1.214l-3.947,4.895,2.247,3.76,6.181-1.156a.85.85,0,0,1,.963.572c.084.259,2.065,6.4,2.065,10.226a9.455,9.455,0,0,1-.312,2.074.849.849,0,0,1-.729.622l-6.252.671-1.07,4.247,5.188,3.553a.85.85,0,0,1,.2,1.207l-7.132,9.583a.846.846,0,0,1-1.213.154l-4.9-3.947-3.76,2.247,1.156,6.181a.849.849,0,0,1-.6.972C1851.968,961.153,1845.845,962.906,1842.254,962.906Zm-1.312-1.734c.472.025.9.036,1.312.036a42.644,42.644,0,0,0,8.761-1.556l-1.121-5.995a.849.849,0,0,1,.4-.885l4.775-2.853a.849.849,0,0,1,.968.068l4.669,3.765,6.078-8.168-4.948-3.389a.85.85,0,0,1-.344-.907l1.36-5.394a.848.848,0,0,1,.732-.637l6.237-.668a6.042,6.042,0,0,0,.127-1.074c0-2.838-1.245-7.274-1.761-8.991l-6.019,1.126a.849.849,0,0,1-.885-.4l-2.853-4.775a.849.849,0,0,1,.068-.968l3.764-4.669-8.165-6.073-3.389,4.948a.851.851,0,0,1-.908.343l-5.394-1.359a.849.849,0,0,1-.636-.732l-.657-6.129c-.3-.01-.584-.015-.858-.015a27.563,27.563,0,0,0-9.2,1.571l1.119,5.983a.849.849,0,0,1-.4.884L1829,917.113a.849.849,0,0,1-.968-.068l-4.674-3.768a27.559,27.559,0,0,0-6.039,8.19l4.915,3.367a.846.846,0,0,1,.344.907l-1.359,5.394a.849.849,0,0,1-.733.636l-5.9.633c-.018.4-.027.761-.027,1.111a27.616,27.616,0,0,0,1.486,8.965l5.835-1.091a.849.849,0,0,1,.884.4l2.853,4.775a.849.849,0,0,1-.068.968l-3.746,4.646a27.536,27.536,0,0,0,8.119,6.135l3.426-5a.847.847,0,0,1,.907-.343l5.394,1.359a.849.849,0,0,1,.636.733Zm29.572-25.8h0Zm0,0h0Zm-.82-.222Z" fill="#6f7302"/>
          </g>
          <g id="Grupo_58131" data-name="Grupo 58131">
            <circle id="Elipse_4210" data-name="Elipse 4210" cx="16.232" cy="16.232" r="16.232" transform="matrix(0.23, -0.973, 0.973, 0.23, 1822.726, 945.584)" fill="#ffce3b"/>
            <path id="Trazado_116839" data-name="Trazado 116839" d="M1842.254,950.6a17.081,17.081,0,1,1,17.081-17.081A17.1,17.1,0,0,1,1842.254,950.6Zm0-32.465a15.384,15.384,0,1,0,15.383,15.384A15.4,15.4,0,0,0,1842.254,918.131Z" fill="#6f7302"/>
          </g>
          <g id="Grupo_58135" data-name="Grupo 58135">
            <g id="Grupo_58132" data-name="Grupo 58132">
              <path id="Trazado_116840" data-name="Trazado 116840" d="M1842.582,942.1h-3.334a.849.849,0,1,1,0-1.7h3.334a3.005,3.005,0,0,0,3-3v-.072a3,3,0,0,0-3-3h-.656a4.7,4.7,0,0,1,0-9.4h2.943a.848.848,0,1,1,0,1.7h-2.943a3,3,0,0,0,0,6h.656a4.7,4.7,0,0,1,4.7,4.7v.072A4.7,4.7,0,0,1,1842.582,942.1Z" fill="#6f7302"/>
            </g>
            <g id="Grupo_58133" data-name="Grupo 58133">
              <path id="Trazado_116841" data-name="Trazado 116841" d="M1842.254,926.1a.849.849,0,0,1-.849-.849v-3.394a.849.849,0,1,1,1.7,0v3.394A.848.848,0,0,1,1842.254,926.1Z" fill="#6f7302"/>
            </g>
            <g id="Grupo_58134" data-name="Grupo 58134">
              <path id="Trazado_116842" data-name="Trazado 116842" d="M1842.254,946.02a.849.849,0,0,1-.849-.849v-3.394a.849.849,0,1,1,1.7,0v3.394A.848.848,0,0,1,1842.254,946.02Z" fill="#6f7302"/>
            </g>
          </g>
        </g>
        <g id="Grupo_58143" data-name="Grupo 58143">
          <g id="Grupo_58137" data-name="Grupo 58137">
            <path id="Trazado_116843" data-name="Trazado 116843" d="M1822.239,966.284a6.57,6.57,0,0,0,.214-1.4,32.681,32.681,0,0,0-1.535-7.56l-5.13.96-2.164-3.623,3.276-4.063-7.27-5.407-2.949,4.306-4.092-1.031-.557-5.19.024-.008c-.416-.024-.835-.039-1.257-.039a21.587,21.587,0,0,0-7.711,1.419l.949,5.074-3.623,2.165-3.975-3.205a21.692,21.692,0,0,0-5.371,7.283l4.18,2.863-1.031,4.093-5.02.538c-.031.471-.052.945-.052,1.425a21.613,21.613,0,0,0,1.349,7.535l4.967-.929,2.164,3.623-3.185,3.95a21.719,21.719,0,0,0,7.223,5.453l2.911-4.25,4.092,1.032.555,5.176c.522.038,1.047.064,1.578.064a36.413,36.413,0,0,0,7.389-1.361l-.96-5.131,3.623-2.164,4.063,3.276,5.411-7.271-4.307-2.949,1.032-4.092Z" fill="#fff"/>
            <path id="Trazado_116844" data-name="Trazado 116844" d="M1800.8,987.381c-.5,0-1.02-.02-1.639-.065a.848.848,0,0,1-.782-.756l-.493-4.589-2.945-.742-2.577,3.762a.85.85,0,0,1-1.059.29,22.438,22.438,0,0,1-7.505-5.667.849.849,0,0,1-.019-1.089l2.814-3.49-1.559-2.607-4.385.82a.849.849,0,0,1-.951-.539,22.414,22.414,0,0,1-1.4-7.83c0-.449.017-.92.054-1.48a.849.849,0,0,1,.756-.789l4.432-.475.742-2.946-3.692-2.529a.848.848,0,0,1-.293-1.05,22.423,22.423,0,0,1,5.58-7.568.849.849,0,0,1,1.1-.026l3.515,2.834,2.608-1.558-.84-4.493a.848.848,0,0,1,.531-.949,22.419,22.419,0,0,1,8.014-1.474c.4,0,.831.013,1.306.04a.848.848,0,0,1,.793.741.824.824,0,0,1,0,.222l.473,4.4,2.945.743,2.615-3.819a.85.85,0,0,1,1.207-.2l7.269,5.407a.849.849,0,0,1,.154,1.213l-2.905,3.6,1.558,2.608,4.549-.851a.849.849,0,0,1,.963.572,32.965,32.965,0,0,1,1.577,7.822,7.224,7.224,0,0,1-.244,1.626.849.849,0,0,1-.728.623l-4.6.493-.742,2.946,3.818,2.615a.848.848,0,0,1,.2,1.207l-5.41,7.27a.846.846,0,0,1-1.213.154l-3.6-2.9-2.607,1.558.851,4.55a.848.848,0,0,1-.6.971A36.663,36.663,0,0,1,1800.8,987.381Zm-.811-1.716c.287.013.553.019.811.019a31.3,31.3,0,0,0,6.411-1.125l-.816-4.362a.849.849,0,0,1,.4-.884l3.623-2.165a.848.848,0,0,1,.967.068l3.377,2.723,4.357-5.855-3.578-2.451a.848.848,0,0,1-.343-.907l1.031-4.093a.848.848,0,0,1,.732-.636l4.581-.491a3.938,3.938,0,0,0,.065-.627,28.414,28.414,0,0,0-1.275-6.586l-4.386.82a.847.847,0,0,1-.884-.4l-2.165-3.623a.849.849,0,0,1,.068-.968l2.722-3.376-5.853-4.354-2.451,3.578a.851.851,0,0,1-.908.344l-4.092-1.031a.85.85,0,0,1-.636-.733l-.48-4.472c-.16,0-.315-.006-.466-.006a20.724,20.724,0,0,0-6.745,1.122l.817,4.366a.849.849,0,0,1-.4.885l-3.623,2.165a.849.849,0,0,1-.968-.068l-3.407-2.747a20.673,20.673,0,0,0-4.33,5.873l3.583,2.454a.851.851,0,0,1,.344.908l-1.032,4.092a.848.848,0,0,1-.732.636l-4.3.462c-.009.231-.013.447-.013.658a20.729,20.729,0,0,0,1.06,6.567l4.252-.795a.848.848,0,0,1,.884.4l2.165,3.622a.849.849,0,0,1-.068.968l-2.732,3.389a20.689,20.689,0,0,0,5.822,4.4l2.5-3.646a.847.847,0,0,1,.907-.343l4.093,1.031a.849.849,0,0,1,.636.732Zm22.251-19.381h0Zm0,0h0Z" fill="#6f7302"/>
          </g>
          <g id="Grupo_58138" data-name="Grupo 58138">
            <circle id="Elipse_4211" data-name="Elipse 4211" cx="12.315" cy="12.315" r="12.315" transform="translate(1788.484 952.563)" fill="#ffce3b"/>
            <path id="Trazado_116845" data-name="Trazado 116845" d="M1800.8,978.042a13.163,13.163,0,1,1,13.164-13.163A13.179,13.179,0,0,1,1800.8,978.042Zm0-24.63a11.466,11.466,0,1,0,11.467,11.467A11.479,11.479,0,0,0,1800.8,953.412Z" fill="#6f7302"/>
          </g>
          <g id="Grupo_58142" data-name="Grupo 58142">
            <g id="Grupo_58139" data-name="Grupo 58139">
              <path id="Trazado_116846" data-name="Trazado 116846" d="M1801.048,971.6h-2.529a.849.849,0,1,1,0-1.7h2.529a2.075,2.075,0,0,0,2.072-2.073v-.054a2.074,2.074,0,0,0-2.072-2.072h-.5a3.77,3.77,0,0,1,0-7.539h2.233a.849.849,0,0,1,0,1.7h-2.233a2.072,2.072,0,1,0,0,4.144h.5a3.774,3.774,0,0,1,3.769,3.769v.054A3.774,3.774,0,0,1,1801.048,971.6Z" fill="#6f7302"/>
            </g>
            <g id="Grupo_58140" data-name="Grupo 58140">
              <path id="Trazado_116847" data-name="Trazado 116847" d="M1800.8,959.459a.849.849,0,0,1-.849-.849v-2.575a.849.849,0,0,1,1.7,0v2.575A.849.849,0,0,1,1800.8,959.459Z" fill="#6f7302"/>
            </g>
            <g id="Grupo_58141" data-name="Grupo 58141">
              <path id="Trazado_116848" data-name="Trazado 116848" d="M1800.8,974.57a.849.849,0,0,1-.849-.848v-2.575a.849.849,0,0,1,1.7,0v2.575A.849.849,0,0,1,1800.8,974.57Z" fill="#6f7302"/>
            </g>
          </g>
        </g>
      </g>
      <g id="Return-on-investment_ROI_" data-name="Return-on-investment (ROI)">
        <g id="Grupo_58145" data-name="Grupo 58145">
          <path id="Trazado_116849" data-name="Trazado 116849" d="M1848.061,981.905c-18.723,0-33.9,16.141-33.9,36.052a37.431,37.431,0,0,0,6.595,21.371,3.908,3.908,0,0,0,5.106,1.158h0a3.867,3.867,0,0,0,1.311-5.608,28.965,28.965,0,0,1-5.369-16.921c0-15.421,11.755-27.923,26.256-27.923l-.021,3.91a1.451,1.451,0,0,0,2.536.962l7.08-7.979a1.448,1.448,0,0,0,0-1.925l-7.08-7.979a1.451,1.451,0,0,0-2.536.962Z" fill="#5d9af0"/>
          <path id="Trazado_116850" data-name="Trazado 116850" d="M1823.935,1041.838a4.7,4.7,0,0,1-3.876-2.027,38.641,38.641,0,0,1,3.412-47.928,33.565,33.565,0,0,1,23.737-10.816l-.016-3.077a2.3,2.3,0,0,1,4.018-1.53l7.081,7.979a2.3,2.3,0,0,1,0,3.052l-7.081,7.978a2.3,2.3,0,0,1-4.018-1.525l.016-3.046c-13.616.481-24.554,12.434-24.554,27.059a27.983,27.983,0,0,0,5.21,16.427,4.638,4.638,0,0,1,.748,3.718,4.778,4.778,0,0,1-2.337,3.126l-.009,0A4.8,4.8,0,0,1,1823.935,1041.838Zm25.571-64.458a.656.656,0,0,0-.229.043.578.578,0,0,0-.388.562l.02,3.916a.849.849,0,0,1-.848.852c-18.225,0-33.052,15.793-33.052,35.2a36.456,36.456,0,0,0,6.445,20.887,3.042,3.042,0,0,0,4,.9l.006,0a3.074,3.074,0,0,0,1.5-2.01,2.906,2.906,0,0,0-.471-2.358,29.67,29.67,0,0,1-5.529-17.416c0-15.865,12.159-28.771,27.1-28.771a.849.849,0,0,1,.848.853l-.02,3.909a.6.6,0,0,0,1.052.4l7.081-7.979a.6.6,0,0,0,0-.8l-7.081-7.979A.568.568,0,0,0,1849.506,977.38Z" fill="#6f7302"/>
        </g>
        <g id="Grupo_58179" data-name="Grupo 58179">
          <g id="Grupo_58146" data-name="Grupo 58146">
            <path id="Trazado_116851" data-name="Trazado 116851" d="M1894.62,998.123V986.514h4.221a1.45,1.45,0,0,0,.963-2.535l-7.979-7.081a1.45,1.45,0,0,0-1.926,0l-7.979,7.081a1.45,1.45,0,0,0,.963,2.535h4.221v11.609Z" fill="#5d9af0"/>
            <path id="Trazado_116852" data-name="Trazado 116852" d="M1894.62,998.972a.849.849,0,0,1-.848-.849V986.514a.849.849,0,0,1,.848-.849h4.221a.6.6,0,0,0,.4-1.052l-7.979-7.08a.6.6,0,0,0-.8,0l-7.979,7.081a.6.6,0,0,0,.4,1.052h4.221a.849.849,0,0,1,.848.849v11.609a.849.849,0,1,1-1.7,0V987.362h-3.372a2.3,2.3,0,0,1-1.526-4.018l7.979-7.081a2.3,2.3,0,0,1,3.052,0l7.979,7.081a2.3,2.3,0,0,1-1.526,4.018h-3.372v10.761A.849.849,0,0,1,1894.62,998.972Z" fill="#6f7302"/>
          </g>
          <g id="Grupo_58155" data-name="Grupo 58155">
            <g id="Grupo_58150" data-name="Grupo 58150">
              <g id="Grupo_58147" data-name="Grupo 58147">
                <path id="Trazado_116853" data-name="Trazado 116853" d="M1866.372,1009.985l0,12.125a1.531,1.531,0,0,0,1.531,1.53h45.914a1.53,1.53,0,0,0,1.531-1.53v-21.427a1.531,1.531,0,0,0-1.531-1.531h-42.126Z" fill="#5d9af0"/>
                <path id="Trazado_116854" data-name="Trazado 116854" d="M1913.821,1024.489h-45.914a2.382,2.382,0,0,1-2.379-2.379l-.005-12.125a.85.85,0,0,1,.849-.849h0a.849.849,0,0,1,.849.849l0,12.124a.682.682,0,0,0,.682.682h45.914a.682.682,0,0,0,.682-.681v-21.427a.683.683,0,0,0-.682-.682h-42.126a.848.848,0,1,1,0-1.7h42.126a2.382,2.382,0,0,1,2.38,2.379v21.427A2.383,2.383,0,0,1,1913.821,1024.489Z" fill="#6f7302"/>
              </g>
              <g id="Grupo_58149" data-name="Grupo 58149">
                <g id="Grupo_58148" data-name="Grupo 58148">
                  <path id="Trazado_116855" data-name="Trazado 116855" d="M1905.756,1023.64a9.565,9.565,0,0,1,9.567-9.236v-6.028a9.554,9.554,0,0,1-9.567-9.224h-39.384v15.3h0a9.183,9.183,0,0,1,9.183,9.183Z" fill="#fff"/>
                  <path id="Trazado_116856" data-name="Trazado 116856" d="M1905.756,1024.489h-30.2a.849.849,0,0,1-.848-.849,8.344,8.344,0,0,0-8.335-8.334.853.853,0,0,1-.853-.849v-15.3a.849.849,0,0,1,.849-.848h39.384a.849.849,0,0,1,.849.848,8.667,8.667,0,0,0,8.718,8.376.849.849,0,0,1,.849.848v6.028a.849.849,0,0,1-.849.849,8.672,8.672,0,0,0-8.718,8.387A.849.849,0,0,1,1905.756,1024.489Zm-29.384-1.7h28.574a10.432,10.432,0,0,1,9.529-9.2v-4.4a10.429,10.429,0,0,1-9.529-9.189h-37.725v13.643A10.049,10.049,0,0,1,1876.372,1022.791Z" fill="#6f7302"/>
                </g>
              </g>
            </g>
            <g id="Grupo_58154" data-name="Grupo 58154">
              <g id="Grupo_58151" data-name="Grupo 58151">
                <path id="Trazado_116857" data-name="Trazado 116857" d="M1891.111,1017.988h-2.535a.848.848,0,1,1,0-1.7h2.535a2.082,2.082,0,0,0,2.08-2.079v-.055a2.082,2.082,0,0,0-2.08-2.079h-.5a3.777,3.777,0,0,1,0-7.554h2.238a.849.849,0,0,1,0,1.7h-2.238a2.079,2.079,0,1,0,0,4.158h.5a3.781,3.781,0,0,1,3.777,3.777v.055A3.781,3.781,0,0,1,1891.111,1017.988Z" fill="#6f7302"/>
              </g>
              <g id="Grupo_58152" data-name="Grupo 58152">
                <path id="Trazado_116858" data-name="Trazado 116858" d="M1890.862,1005.821a.849.849,0,0,1-.849-.849v-2.581a.849.849,0,0,1,1.7,0v2.581A.849.849,0,0,1,1890.862,1005.821Z" fill="#6f7302"/>
              </g>
              <g id="Grupo_58153" data-name="Grupo 58153">
                <path id="Trazado_116859" data-name="Trazado 116859" d="M1890.862,1020.971a.849.849,0,0,1-.849-.849v-2.581a.849.849,0,0,1,1.7,0v2.581A.849.849,0,0,1,1890.862,1020.971Z" fill="#6f7302"/>
              </g>
            </g>
          </g>
          <g id="Grupo_58164" data-name="Grupo 58164">
            <g id="Grupo_58159" data-name="Grupo 58159">
              <g id="Grupo_58156" data-name="Grupo 58156">
                <path id="Trazado_116860" data-name="Trazado 116860" d="M1858.969,1028.049l0,12.125a1.531,1.531,0,0,0,1.531,1.53h45.914a1.53,1.53,0,0,0,1.531-1.53v-21.427a1.531,1.531,0,0,0-1.531-1.531h-42.126Z" fill="#5d9af0"/>
                <path id="Trazado_116861" data-name="Trazado 116861" d="M1906.418,1042.553H1860.5a2.381,2.381,0,0,1-2.379-2.379l-.005-12.125a.85.85,0,0,1,.849-.849h0a.849.849,0,0,1,.849.849l0,12.124a.683.683,0,0,0,.682.683h45.914a.683.683,0,0,0,.682-.682v-21.427a.683.683,0,0,0-.682-.682h-42.126a.849.849,0,1,1,0-1.7h42.126a2.381,2.381,0,0,1,2.379,2.379v21.427A2.381,2.381,0,0,1,1906.418,1042.553Z" fill="#6f7302"/>
              </g>
              <g id="Grupo_58158" data-name="Grupo 58158">
                <g id="Grupo_58157" data-name="Grupo 58157">
                  <path id="Trazado_116862" data-name="Trazado 116862" d="M1898.353,1041.7a9.565,9.565,0,0,1,9.567-9.236v-6.028a9.554,9.554,0,0,1-9.567-9.224h-39.384v15.3h0a9.183,9.183,0,0,1,9.183,9.183Z" fill="#fff"/>
                  <path id="Trazado_116863" data-name="Trazado 116863" d="M1898.353,1042.553h-30.2a.849.849,0,0,1-.848-.849,8.344,8.344,0,0,0-8.335-8.334.853.853,0,0,1-.853-.849v-15.3a.849.849,0,0,1,.849-.848h39.384a.848.848,0,0,1,.848.848,8.668,8.668,0,0,0,8.719,8.376.849.849,0,0,1,.849.848v6.028a.849.849,0,0,1-.849.849,8.673,8.673,0,0,0-8.719,8.387A.849.849,0,0,1,1898.353,1042.553Zm-29.384-1.7h28.574a10.433,10.433,0,0,1,9.529-9.2v-4.4a10.427,10.427,0,0,1-9.529-9.189h-37.725v13.643A10.049,10.049,0,0,1,1868.969,1040.856Z" fill="#6f7302"/>
                </g>
              </g>
            </g>
            <g id="Grupo_58163" data-name="Grupo 58163">
              <g id="Grupo_58160" data-name="Grupo 58160">
                <path id="Trazado_116864" data-name="Trazado 116864" d="M1883.708,1036.053h-2.535a.849.849,0,1,1,0-1.7h2.535a2.081,2.081,0,0,0,2.08-2.079v-.055a2.082,2.082,0,0,0-2.08-2.079h-.5a3.777,3.777,0,0,1,0-7.554h2.238a.849.849,0,0,1,0,1.7h-2.238a2.079,2.079,0,1,0,0,4.159h.5a3.781,3.781,0,0,1,3.777,3.776v.055A3.781,3.781,0,0,1,1883.708,1036.053Z" fill="#6f7302"/>
              </g>
              <g id="Grupo_58161" data-name="Grupo 58161">
                <path id="Trazado_116865" data-name="Trazado 116865" d="M1883.459,1023.885a.849.849,0,0,1-.849-.849v-2.581a.849.849,0,1,1,1.7,0v2.581A.849.849,0,0,1,1883.459,1023.885Z" fill="#6f7302"/>
              </g>
              <g id="Grupo_58162" data-name="Grupo 58162">
                <path id="Trazado_116866" data-name="Trazado 116866" d="M1883.459,1039.035a.849.849,0,0,1-.849-.849V1035.6a.849.849,0,0,1,1.7,0v2.581A.849.849,0,0,1,1883.459,1039.035Z" fill="#6f7302"/>
              </g>
            </g>
          </g>
          <g id="Grupo_58172" data-name="Grupo 58172">
            <g id="Grupo_58167" data-name="Grupo 58167">
              <g id="Grupo_58166" data-name="Grupo 58166">
                <g id="Grupo_58165" data-name="Grupo 58165">
                  <path id="Trazado_116867" data-name="Trazado 116867" d="M1857.209,1004.988a5.933,5.933,0,0,1-.235-1.354,11.289,11.289,0,0,1,.306-3.923,13.307,13.307,0,1,1,20.268,14.521,13.917,13.917,0,0,1-7.418,2.872l-8.333.112Z" fill="#ffce3b"/>
                  <path id="Trazado_116868" data-name="Trazado 116868" d="M1861.8,1018.065a.849.849,0,0,1-.011-1.7l8.333-.112a13.056,13.056,0,0,0,6.893-2.681c.021-.017.042-.032.064-.047a12.458,12.458,0,1,0-18.975-13.6,10.391,10.391,0,0,0-.281,3.627,4.753,4.753,0,0,0,.184,1.129.849.849,0,0,1-1.588.6,6.365,6.365,0,0,1-.286-1.579,12.066,12.066,0,0,1,.332-4.218,14.158,14.158,0,0,1,22.989-6.963,14.164,14.164,0,0,1-1.4,22.388,14.641,14.641,0,0,1-7.9,3.037l-8.345.112Z" fill="#6f7302"/>
                </g>
              </g>
            </g>
            <g id="Grupo_58171" data-name="Grupo 58171">
              <g id="Grupo_58168" data-name="Grupo 58168">
                <path id="Trazado_116869" data-name="Trazado 116869" d="M1870.441,1010.418h-2.775a.849.849,0,0,1,0-1.7h2.775a2.359,2.359,0,0,0,2.357-2.356v-.06a2.359,2.359,0,0,0-2.357-2.356h-.545a4.054,4.054,0,0,1,0-8.108h2.45a.848.848,0,0,1,0,1.7h-2.45a2.357,2.357,0,1,0,0,4.714h.545a4.058,4.058,0,0,1,4.054,4.053v.06A4.058,4.058,0,0,1,1870.441,1010.418Z" fill="#6f7302"/>
              </g>
              <g id="Grupo_58169" data-name="Grupo 58169">
                <path id="Trazado_116870" data-name="Trazado 116870" d="M1870.168,997.1a.849.849,0,0,1-.848-.849v-2.826a.849.849,0,0,1,1.7,0v2.826A.849.849,0,0,1,1870.168,997.1Z" fill="#6f7302"/>
              </g>
              <g id="Grupo_58170" data-name="Grupo 58170">
                <path id="Trazado_116871" data-name="Trazado 116871" d="M1870.168,1013.682a.848.848,0,0,1-.848-.848v-2.826a.849.849,0,1,1,1.7,0v2.826A.849.849,0,0,1,1870.168,1013.682Z" fill="#6f7302"/>
              </g>
            </g>
          </g>
          <g id="Grupo_58178" data-name="Grupo 58178">
            <g id="Grupo_58173" data-name="Grupo 58173">
              <circle id="Elipse_4212" data-name="Elipse 4212" cx="13.905" cy="13.905" r="13.905" transform="translate(1834.792 1005.125) rotate(-7.47)" fill="#ffce3b"/>
              <path id="Trazado_116872" data-name="Trazado 116872" d="M1850.37,1031.852a14.749,14.749,0,1,1,11.717-5.76A14.684,14.684,0,0,1,1850.37,1031.852Zm.032-27.8a13.05,13.05,0,1,0,7.939,2.7A13.039,13.039,0,0,0,1850.4,1004.053Z" fill="#6f7302"/>
            </g>
            <g id="Grupo_58177" data-name="Grupo 58177">
              <g id="Grupo_58174" data-name="Grupo 58174">
                <path id="Trazado_116873" data-name="Trazado 116873" d="M1850.4,1024.005h-2.775a.849.849,0,1,1,0-1.7h2.775a2.359,2.359,0,0,0,2.357-2.357v-.059a2.359,2.359,0,0,0-2.357-2.357h-.546a4.054,4.054,0,1,1,0-8.108h2.451a.849.849,0,0,1,0,1.7h-2.451a2.357,2.357,0,0,0,0,4.713h.546a4.058,4.058,0,0,1,4.054,4.054v.059A4.059,4.059,0,0,1,1850.4,1024.005Z" fill="#6f7302"/>
              </g>
              <g id="Grupo_58175" data-name="Grupo 58175">
                <path id="Trazado_116874" data-name="Trazado 116874" d="M1850.125,1010.686a.848.848,0,0,1-.848-.848v-2.826a.849.849,0,1,1,1.7,0v2.826A.849.849,0,0,1,1850.125,1010.686Z" fill="#6f7302"/>
              </g>
              <g id="Grupo_58176" data-name="Grupo 58176">
                <path id="Trazado_116875" data-name="Trazado 116875" d="M1850.125,1027.269a.848.848,0,0,1-.848-.848v-2.826a.849.849,0,1,1,1.7,0v2.826A.849.849,0,0,1,1850.125,1027.269Z" fill="#6f7302"/>
              </g>
            </g>
          </g>
        </g>
      </g>
      <g id="marketing_plan" data-name="marketing plan">
        <g id="Grupo_58184" data-name="Grupo 58184">
          <g id="Grupo_58183" data-name="Grupo 58183">
            <g id="Grupo_58182" data-name="Grupo 58182">
              <g id="Grupo_58181" data-name="Grupo 58181">
                <g id="Grupo_58180" data-name="Grupo 58180">
                  <path id="Trazado_116876" data-name="Trazado 116876" d="M1878.654,910.706v58.433h73.971v-58.4h-73.554l27.67-.47V906a1.393,1.393,0,0,1,1.393-1.392h15.011a1.392,1.392,0,0,1,1.392,1.392v4.267Z" fill="#fff"/>
                  <path id="Trazado_116877" data-name="Trazado 116877" d="M1952.625,969.988h-73.971a.849.849,0,0,1-.849-.849V910.706a.848.848,0,0,1,.841-.848l5.032-.049,22.215-.377V906a2.243,2.243,0,0,1,2.241-2.241h15.011a2.243,2.243,0,0,1,2.241,2.241v3.889h27.239a.849.849,0,0,1,.849.848v58.4A.849.849,0,0,1,1952.625,969.988Zm-73.123-1.7h72.274v-56.7H1879.5Zm28.632-62.835a.545.545,0,0,0-.544.544v3.581l16.1-.155V906a.545.545,0,0,0-.544-.544Z" fill="#6f7302"/>
                </g>
              </g>
            </g>
          </g>
        </g>
        <g id="Grupo_58221" data-name="Grupo 58221">
          <g id="Grupo_58185" data-name="Grupo 58185">
            <circle id="Elipse_4213" data-name="Elipse 4213" cx="5.117" cy="5.117" r="5.117" transform="translate(1926.534 917.257)" fill="#fff"/>
            <path id="Trazado_116878" data-name="Trazado 116878" d="M1931.651,928.34a5.966,5.966,0,1,1,5.966-5.966A5.972,5.972,0,0,1,1931.651,928.34Zm0-10.234a4.268,4.268,0,1,0,4.269,4.268A4.273,4.273,0,0,0,1931.651,918.106Z" fill="#6f7302"/>
          </g>
          <g id="Grupo_58192" data-name="Grupo 58192">
            <g id="Grupo_58188" data-name="Grupo 58188">
              <g id="Grupo_58186" data-name="Grupo 58186">
                <path id="Trazado_116879" data-name="Trazado 116879" d="M1905.39,923.8a11.616,11.616,0,1,1-2.25-4.127Z" fill="#ffce3b"/>
                <path id="Trazado_116880" data-name="Trazado 116880" d="M1894.281,939.628a12.455,12.455,0,1,1,9.506-20.5.849.849,0,0,1-1.3,1.1,10.71,10.71,0,1,0,2.086,3.825.848.848,0,0,1,1.624-.492,12.464,12.464,0,0,1-11.921,16.073Z" fill="#6f7302"/>
              </g>
              <g id="Grupo_58187" data-name="Grupo 58187">
                <circle id="Elipse_4214" data-name="Elipse 4214" cx="5.803" cy="5.803" r="5.803" transform="translate(1886.699 924.033) rotate(-22.5)" fill="#fff"/>
                <path id="Trazado_116881" data-name="Trazado 116881" d="M1894.281,933.825a6.652,6.652,0,1,1,6.652-6.652A6.659,6.659,0,0,1,1894.281,933.825Zm0-11.606a4.954,4.954,0,1,0,4.955,4.954A4.959,4.959,0,0,0,1894.281,922.219Z" fill="#6f7302"/>
              </g>
            </g>
            <g id="Grupo_58191" data-name="Grupo 58191">
              <g id="Grupo_58189" data-name="Grupo 58189">
                <path id="Trazado_116882" data-name="Trazado 116882" d="M1894.281,927.173l7.419-4.038Z" fill="#fff"/>
                <path id="Trazado_116883" data-name="Trazado 116883" d="M1894.282,928.022a.849.849,0,0,1-.406-1.594l7.418-4.038a.848.848,0,1,1,.811,1.49l-7.418,4.038A.837.837,0,0,1,1894.282,928.022Z" fill="#6f7302"/>
              </g>
              <g id="Grupo_58190" data-name="Grupo 58190">
                <path id="Trazado_116884" data-name="Trazado 116884" d="M1904.265,924.411l-2.569-1.278.324-2.851,5.966-3.244.038,2.655,2.208,1.475Z" fill="#5d9af0"/>
                <path id="Trazado_116885" data-name="Trazado 116885" d="M1904.265,925.26a.854.854,0,0,1-.378-.089l-2.569-1.278a.847.847,0,0,1-.465-.856l.323-2.851a.853.853,0,0,1,.438-.65l5.967-3.244a.849.849,0,0,1,1.254.733l.031,2.209,1.837,1.227a.849.849,0,0,1-.066,1.451l-5.967,3.245A.853.853,0,0,1,1904.265,925.26Zm-1.659-2.622,1.642.817,4.344-2.363-1.039-.694a.848.848,0,0,1-.378-.694l-.017-1.25-4.345,2.362Z" fill="#6f7302"/>
              </g>
            </g>
          </g>
          <g id="Grupo_58197" data-name="Grupo 58197">
            <g id="Grupo_58193" data-name="Grupo 58193">
              <path id="Trazado_116886" data-name="Trazado 116886" d="M1945.864,959.535h-.58v-1.75a1.732,1.732,0,0,0-1.733-1.732h-1.111a13.178,13.178,0,0,0,2.708-8.1,12.935,12.935,0,0,0-4.012-9.523,8.287,8.287,0,0,0-4.656-2.128l-.137-.469a3.248,3.248,0,0,0-4.03-2.208l.851,2.912a8.872,8.872,0,0,0-2.182.9l-1.374.8a1.393,1.393,0,0,0-.507,1.9l.4.69-3.314,1.913a1.394,1.394,0,0,0-.51,1.9l1.152,1.994a1.857,1.857,0,0,0,1.606.929l1.96,0a1.379,1.379,0,0,0,1.38-1.379h0l4.539-1.417a5.708,5.708,0,0,1-1.163,3.08,5.6,5.6,0,0,1-1.653,1.4,7.783,7.783,0,0,0-3.957,6.811h-.628a1.731,1.731,0,0,0-1.732,1.732v1.75h-.58a.928.928,0,0,0-.929.928v2.962a.929.929,0,0,0,.929.929h19.266a.929.929,0,0,0,.929-.929v-2.962A.928.928,0,0,0,1945.864,959.535Z" fill="#ffce3b"/>
              <path id="Trazado_116887" data-name="Trazado 116887" d="M1945.864,965.2H1926.6a1.779,1.779,0,0,1-1.777-1.777v-2.962a1.779,1.779,0,0,1,1.508-1.757v-.921a2.583,2.583,0,0,1,2.4-2.574,8.641,8.641,0,0,1,4.343-6.7,4.794,4.794,0,0,0,1.407-1.181,4.715,4.715,0,0,0,.719-1.324l-2.671.833a2.232,2.232,0,0,1-2.131,1.573h0l-1.96,0a2.714,2.714,0,0,1-2.34-1.352l-1.152-1.995a2.245,2.245,0,0,1,.821-3.062l2.58-1.489a2.245,2.245,0,0,1,.842-3.013l1.374-.8a9.545,9.545,0,0,1,1.56-.725l-.618-2.113a.85.85,0,0,1,.577-1.053,4.1,4.1,0,0,1,5.068,2.734,9.069,9.069,0,0,1,4.569,2.263A13.783,13.783,0,0,1,1946,947.95a14.257,14.257,0,0,1-1.98,7.3,2.586,2.586,0,0,1,2.115,2.539v.921a1.78,1.78,0,0,1,1.509,1.757v2.962A1.779,1.779,0,0,1,1945.864,965.2Zm-19.266-4.819a.08.08,0,0,0-.08.08v2.962a.08.08,0,0,0,.08.08h19.266a.08.08,0,0,0,.08-.08v-2.962a.08.08,0,0,0-.08-.08h-.58a.849.849,0,0,1-.849-.849v-1.749a.885.885,0,0,0-.884-.884h-1.111a.848.848,0,0,1-.67-1.369,12.38,12.38,0,0,0,2.53-7.582,12.083,12.083,0,0,0-3.74-8.9,7.43,7.43,0,0,0-4.182-1.909.848.848,0,0,1-.712-.6l-.137-.469a2.407,2.407,0,0,0-2.121-1.721l.57,1.95a.848.848,0,0,1-.6,1.058,8.04,8.04,0,0,0-1.974.811l-1.374.8a.545.545,0,0,0-.2.743l.4.689a.847.847,0,0,1-.31,1.159l-3.315,1.914a.545.545,0,0,0-.2.744l1.151,1.994a1.011,1.011,0,0,0,.873.5l1.959,0h0a.529.529,0,0,0,.53-.53.851.851,0,0,1,.6-.811l4.54-1.416a.849.849,0,0,1,1.1.878,6.283,6.283,0,0,1-3.235,5.142,6.946,6.946,0,0,0-3.536,6.078.848.848,0,0,1-.848.848h-.628a.886.886,0,0,0-.884.884v1.749a.849.849,0,0,1-.848.849Z" fill="#6f7302"/>
            </g>
            <g id="Grupo_58196" data-name="Grupo 58196">
              <g id="Grupo_58194" data-name="Grupo 58194">
                <path id="Trazado_116888" data-name="Trazado 116888" d="M1942.147,924.371a20.377,20.377,0,0,1,1.563,17.162Z" fill="#fff"/>
                <path id="Trazado_116889" data-name="Trazado 116889" d="M1943.71,942.382a.85.85,0,0,1-.8-1.142,19.413,19.413,0,0,0-1.5-16.437.848.848,0,1,1,1.46-.864,21.12,21.12,0,0,1,1.63,17.887A.85.85,0,0,1,1943.71,942.382Z" fill="#6f7302"/>
              </g>
              <g id="Grupo_58195" data-name="Grupo 58195">
                <path id="Trazado_116890" data-name="Trazado 116890" d="M1940.839,929.075a.85.85,0,0,1-.8-1.123l1.313-3.854a.85.85,0,0,1,1.128-.511l4.127,1.706a.848.848,0,0,1-.648,1.568l-3.292-1.36-1.022,3A.848.848,0,0,1,1940.839,929.075Z" fill="#6f7302"/>
              </g>
            </g>
          </g>
          <g id="Grupo_58205" data-name="Grupo 58205">
            <g id="Grupo_58201" data-name="Grupo 58201">
              <g id="Grupo_58200" data-name="Grupo 58200">
                <g id="Grupo_58198" data-name="Grupo 58198">
                  <path id="Trazado_116891" data-name="Trazado 116891" d="M1910.725,928.4a19.839,19.839,0,0,0,16.331-3Z" fill="#fff"/>
                  <path id="Trazado_116892" data-name="Trazado 116892" d="M1915.546,929.88a19.036,19.036,0,0,1-5.046-.666.848.848,0,1,1,.45-1.636,18.93,18.93,0,0,0,15.613-2.874.849.849,0,1,1,.985,1.382A20.92,20.92,0,0,1,1915.546,929.88Z" fill="#6f7302"/>
                </g>
                <g id="Grupo_58199" data-name="Grupo 58199">
                  <path id="Trazado_116893" data-name="Trazado 116893" d="M1913.459,932.784a.848.848,0,0,1-.672-.33l-2.731-3.534a.849.849,0,0,1,.2-1.222l3.373-2.281a.848.848,0,0,1,.95,1.406l-2.624,1.775,2.178,2.818a.849.849,0,0,1-.671,1.368Z" fill="#6f7302"/>
                </g>
              </g>
            </g>
            <g id="Grupo_58204" data-name="Grupo 58204">
              <g id="Grupo_58202" data-name="Grupo 58202">
                <path id="Trazado_116894" data-name="Trazado 116894" d="M1933.7,920.326l-4.1,4.1Z" fill="#fff"/>
                <path id="Trazado_116895" data-name="Trazado 116895" d="M1929.6,925.271a.848.848,0,0,1-.6-1.448l4.1-4.1a.849.849,0,1,1,1.2,1.2l-4.1,4.1A.845.845,0,0,1,1929.6,925.271Z" fill="#6f7302"/>
              </g>
              <g id="Grupo_58203" data-name="Grupo 58203">
                <path id="Trazado_116896" data-name="Trazado 116896" d="M1933.7,924.423l-4.1-4.1Z" fill="#fff"/>
                <path id="Trazado_116897" data-name="Trazado 116897" d="M1933.7,925.271a.845.845,0,0,1-.6-.248l-4.1-4.1a.849.849,0,0,1,1.2-1.2l4.1,4.1a.848.848,0,0,1-.6,1.448Z" fill="#6f7302"/>
              </g>
            </g>
          </g>
          <g id="Grupo_58220" data-name="Grupo 58220">
            <g id="Grupo_58215" data-name="Grupo 58215">
              <g id="Grupo_58207" data-name="Grupo 58207">
                <g id="Grupo_58206" data-name="Grupo 58206">
                  <path id="Trazado_116898" data-name="Trazado 116898" d="M1886.657,951.885l13.447-9.278,3.049,2.636,12.487-8.4Z" fill="#fff"/>
                  <path id="Trazado_116899" data-name="Trazado 116899" d="M1886.658,952.734a.848.848,0,0,1-.483-1.547l13.446-9.279a.849.849,0,0,1,1.037.057l2.558,2.212,11.95-8.041a.848.848,0,0,1,.947,1.408l-12.487,8.4a.849.849,0,0,1-1.029-.062l-2.552-2.207-12.906,8.905A.842.842,0,0,1,1886.658,952.734Z" fill="#6f7302"/>
                </g>
              </g>
              <g id="Grupo_58214" data-name="Grupo 58214">
                <g id="Grupo_58208" data-name="Grupo 58208">
                  <path id="Trazado_116900" data-name="Trazado 116900" d="M1886.417,956.015v2.829h29.222V945.2Z" fill="#fff"/>
                  <path id="Trazado_116901" data-name="Trazado 116901" d="M1915.639,959.693h-29.222a.848.848,0,0,1-.848-.848v-2.83a.849.849,0,0,1,1.7,0V958h27.525V945.2a.849.849,0,1,1,1.7,0v13.643A.848.848,0,0,1,1915.639,959.693Z" fill="#6f7302"/>
                </g>
                <g id="Grupo_58209" data-name="Grupo 58209">
                  <path id="Trazado_116902" data-name="Trazado 116902" d="M1891.278,953.865v0Z" fill="#fff"/>
                  <path id="Trazado_116903" data-name="Trazado 116903" d="M1891.279,959.693a.848.848,0,0,1-.849-.848v-4.98a.848.848,0,1,1,1.7,0v4.98A.848.848,0,0,1,1891.279,959.693Z" fill="#6f7302"/>
                </g>
                <g id="Grupo_58210" data-name="Grupo 58210">
                  <path id="Trazado_116904" data-name="Trazado 116904" d="M1896.14,950.581v0Z" fill="#fff"/>
                  <path id="Trazado_116905" data-name="Trazado 116905" d="M1896.14,959.414a.849.849,0,0,1-.849-.849v-7.984a.849.849,0,0,1,1.7,0v7.984A.849.849,0,0,1,1896.14,959.414Z" fill="#6f7302"/>
                </g>
                <g id="Grupo_58211" data-name="Grupo 58211">
                  <path id="Trazado_116906" data-name="Trazado 116906" d="M1901,947.856v0Z" fill="#fff"/>
                  <path id="Trazado_116907" data-name="Trazado 116907" d="M1901,959.414a.849.849,0,0,1-.849-.849V947.856a.849.849,0,0,1,1.7,0v10.709A.849.849,0,0,1,1901,959.414Z" fill="#6f7302"/>
                </g>
                <g id="Grupo_58212" data-name="Grupo 58212">
                  <path id="Trazado_116908" data-name="Trazado 116908" d="M1905.862,953.044v0Z" fill="#fff"/>
                  <path id="Trazado_116909" data-name="Trazado 116909" d="M1905.862,959.414a.849.849,0,0,1-.849-.849v-5.521a.849.849,0,1,1,1.7,0v5.521A.848.848,0,0,1,1905.862,959.414Z" fill="#6f7302"/>
                </g>
                <g id="Grupo_58213" data-name="Grupo 58213">
                  <path id="Trazado_116910" data-name="Trazado 116910" d="M1910.723,948.555v0Z" fill="#fff"/>
                  <path id="Trazado_116911" data-name="Trazado 116911" d="M1910.723,959.414a.849.849,0,0,1-.849-.849v-10.01a.849.849,0,1,1,1.7,0v10.01A.849.849,0,0,1,1910.723,959.414Z" fill="#6f7302"/>
                </g>
              </g>
            </g>
            <g id="Grupo_58219" data-name="Grupo 58219">
              <g id="Grupo_58216" data-name="Grupo 58216">
                <path id="Trazado_116912" data-name="Trazado 116912" d="M1913,961.646v0Z" fill="#fff"/>
                <path id="Trazado_116913" data-name="Trazado 116913" d="M1913,967.051a.849.849,0,0,1-.849-.849v-4.556a.849.849,0,1,1,1.7,0V966.2A.849.849,0,0,1,1913,967.051Z" fill="#6f7302"/>
              </g>
              <g id="Grupo_58217" data-name="Grupo 58217">
                <path id="Trazado_116914" data-name="Trazado 116914" d="M1915.282,963.924h0Z" fill="#fff"/>
                <path id="Trazado_116915" data-name="Trazado 116915" d="M1915.282,964.772h-4.557a.848.848,0,0,1,0-1.7h4.557a.848.848,0,0,1,0,1.7Z" fill="#6f7302"/>
              </g>
              <g id="Grupo_58218" data-name="Grupo 58218">
                <path id="Trazado_116916" data-name="Trazado 116916" d="M1891.281,963.924h0Z" fill="#fff"/>
                <path id="Trazado_116917" data-name="Trazado 116917" d="M1891.281,964.772h-4.556a.848.848,0,1,1,0-1.7h4.556a.848.848,0,1,1,0,1.7Z" fill="#6f7302"/>
              </g>
            </g>
          </g>
        </g>
      </g>
    </g>
    <rect id="Rectángulo_7497" data-name="Rectángulo 7497" width="415" height="173" transform="translate(593 1244)" fill="none"/>
  </g>
</svg>
