<svg xmlns="http://www.w3.org/2000/svg" width="320" height="212.409" viewBox="0 0 320 212.409">
  <g id="Grupo_58464" data-name="Grupo 58464" transform="translate(-2827.604 -178.32)">
    <g id="Grupo_58332" data-name="Grupo 58332" transform="translate(2829.532 178.32)">
      <g id="Grupo_58317" data-name="Grupo 58317" transform="translate(2.562 23.291)" opacity="0.5">
        <path id="Trazado_117197" data-name="Trazado 117197" d="M2922.2,406.371h198.9a169.6,169.6,0,0,0,21.527-105.259c-1.509-12.136-4.445-24.349-10.945-34.708s-17-18.7-29.111-20.366c-15.579-2.143-30.27,6.6-45.175,11.614-22.269,7.487-46.833,6.675-69.413.183-24.692-7.1-48.262-20.9-73.939-20.043-23.359.777-45.269,14.287-59.079,33.142s-20.059,42.513-20.667,65.876,4.122,46.571,10.6,69.027Z" transform="translate(-2834.242 -220.842)" fill="#a0a603"/>
        <path id="Trazado_117198" data-name="Trazado 117198" d="M2886.209,235.669c7.2-4.64,15.282-8.1,23.79-9.063,2.843-.322,6.183-.632,7.664-3.08,1.232-2.038.491-4.825-1.162-6.54a12.791,12.791,0,0,0-6.317-3.127c-11.733-2.884-24.422.084-34.718,6.405A36.813,36.813,0,0,0,2865.332,229a21.388,21.388,0,0,0-4.647,12.389,12.911,12.911,0,0,0,1.571,6.739c.987,1.7,2.82,3.93,4.96,3.1,2.116-.819,4.226-3.821,5.9-5.336A102.438,102.438,0,0,1,2886.209,235.669Z" transform="translate(-2842.797 -212.752)" fill="#a0a603"/>
      </g>
      <g id="Grupo_58331" data-name="Grupo 58331" transform="translate(182.212)">
        <g id="Grupo_58330" data-name="Grupo 58330">
          <g id="Grupo_58329" data-name="Grupo 58329">
            <rect id="Rectángulo_6985" data-name="Rectángulo 6985" width="105.689" height="203.184" fill="#6f7302"/>
            <g id="Grupo_58321" data-name="Grupo 58321" transform="translate(5.826 8.009)">
              <rect id="Rectángulo_6986" data-name="Rectángulo 6986" width="94.038" height="195.175" fill="#00464e"/>
              <rect id="Rectángulo_6987" data-name="Rectángulo 6987" width="94.038" height="26.866" transform="translate(0 168.309)" fill="#004e57" opacity="0.5" style="mix-blend-mode: multiply;isolation: isolate"/>
            </g>
            <g id="Grupo_58328" data-name="Grupo 58328" transform="translate(42.065 8.009)">
              <path id="Trazado_117203" data-name="Trazado 117203" d="M3162.016,365.252l57.822,20.083V190.161l-57.822,6.261Z" transform="translate(-3162.016 -190.161)" fill="#e7e7e7"/>
              <g id="Grupo_58327" data-name="Grupo 58327" transform="translate(3.484 9.875)">
                <g id="Grupo_58322" data-name="Grupo 58322">
                  <path id="Trazado_117204" data-name="Trazado 117204" d="M3167.167,225.113v-16.1l49.7-4.25v18.172l-.259.011Zm.541-15.609v15.044l48.616-2.135V205.347Z" transform="translate(-3167.167 -204.759)" fill="#4dc9d6"/>
                </g>
                <g id="Grupo_58323" data-name="Grupo 58323" transform="translate(0 116.427)">
                  <path id="Trazado_117205" data-name="Trazado 117205" d="M3216.865,436.851l-.355-.116-49.343-16.257v-43.6l49.7,10.655Zm-49.157-16.764,48.616,16.017V387.972l-48.616-10.424Z" transform="translate(-3167.167 -376.88)" fill="#4dc9d6"/>
                </g>
                <g id="Grupo_58324" data-name="Grupo 58324" transform="translate(24.818 26.657)">
                  <path id="Trazado_117206" data-name="Trazado 117206" d="M3228.736,327.082l-24.879-4.274V244.731l24.879-.563Zm-24.339-4.729,23.8,4.088v-81.72l-23.8.538Z" transform="translate(-3203.857 -244.168)" fill="#4dc9d6"/>
                </g>
                <g id="Grupo_58325" data-name="Grupo 58325" transform="translate(0 27.287)">
                  <path id="Trazado_117207" data-name="Trazado 117207" d="M3189.033,322.6l-21.866-3.756V245.593l21.866-.494Zm-21.326-4.211,20.785,3.57v-76.31l-20.785.47Z" transform="translate(-3167.167 -245.099)" fill="#4dc9d6"/>
                </g>
                <g id="Grupo_58326" data-name="Grupo 58326" transform="translate(15.122 107.857)">
                  <path id="Trazado_117208" data-name="Trazado 117208" d="M3206.352,373.962l-16.829-3.35v-6.4l16.829,3.1Zm-16.288-3.793,15.747,3.135v-5.547l-15.747-2.9Z" transform="translate(-3189.523 -364.21)" fill="#4dc9d6"/>
                </g>
              </g>
            </g>
          </g>
        </g>
      </g>
    </g>
    <g id="Grupo_58344" data-name="Grupo 58344" transform="translate(2850.083 315.766)">
      <g id="Grupo_58343" data-name="Grupo 58343">
        <g id="Grupo_58337" data-name="Grupo 58337" transform="translate(0 29.553)">
          <path id="Trazado_117209" data-name="Trazado 117209" d="M2910.813,425.2v3.346h-49.977l8.106-2.734,1.813-.612Z" transform="translate(-2860.835 -425.204)" fill="#df7724"/>
          <g id="Grupo_58335" data-name="Grupo 58335" transform="translate(0 3.345)">
            <rect id="Rectángulo_6988" data-name="Rectángulo 6988" width="43.399" height="41.381" fill="#ffaf3e"/>
            <g id="Grupo_58334" data-name="Grupo 58334" transform="translate(1.96 31.916)">
              <g id="Grupo_58333" data-name="Grupo 58333">
                <rect id="Rectángulo_6989" data-name="Rectángulo 6989" width="18.238" height="2.539" transform="translate(0 2.943)" fill="#df7724"/>
                <rect id="Rectángulo_6990" data-name="Rectángulo 6990" width="12.235" height="1.847" fill="#df7724"/>
              </g>
            </g>
            <path id="Trazado_117210" data-name="Trazado 117210" d="M2916.872,437.394a3.318,3.318,0,1,1-3.318-3.319A3.319,3.319,0,0,1,2916.872,437.394Z" transform="translate(-2876.82 -431.42)" fill="#df7724"/>
            <rect id="Rectángulo_6991" data-name="Rectángulo 6991" width="1.96" height="41.381" transform="translate(1.96 41.381) rotate(180)" fill="#ffaf3e" opacity="0.5" style="mix-blend-mode: screen;isolation: isolate"/>
          </g>
          <g id="Grupo_58336" data-name="Grupo 58336" transform="translate(43.4 0)">
            <path id="Trazado_117211" data-name="Trazado 117211" d="M2931.573,425.2v40.92L2925,469.933V428.55l1.758-.891Z" transform="translate(-2924.996 -425.204)" fill="#fc8d31"/>
            <path id="Trazado_117212" data-name="Trazado 117212" d="M2931.573,459.625V467.3L2925,471.107V429.725l1.757-.892a133.878,133.878,0,0,0,.822,18.847,29.7,29.7,0,0,0,1.987,8.644A14.073,14.073,0,0,0,2931.573,459.625Z" transform="translate(-2924.996 -426.378)" fill="#fc8d31" opacity="0.5" style="mix-blend-mode: multiply;isolation: isolate"/>
          </g>
          <path id="Trazado_117213" data-name="Trazado 117213" d="M2914.691,425.2v.463a170.869,170.869,0,0,1-41.871.149l1.812-.612Z" transform="translate(-2864.713 -425.204)" fill="#df7724" opacity="0.5" style="mix-blend-mode: multiply;isolation: isolate"/>
        </g>
        <g id="Grupo_58342" data-name="Grupo 58342" transform="translate(6.578)">
          <path id="Trazado_117214" data-name="Trazado 117214" d="M2907.382,381.514v2.465H2870.56l5.972-2.014,1.335-.451Z" transform="translate(-2870.56 -381.514)" fill="#df7724"/>
          <g id="Grupo_58340" data-name="Grupo 58340" transform="translate(0 2.465)">
            <rect id="Rectángulo_6992" data-name="Rectángulo 6992" width="31.975" height="30.489" transform="translate(0 0)" fill="#ffaf3e"/>
            <g id="Grupo_58339" data-name="Grupo 58339" transform="translate(1.444 23.515)">
              <g id="Grupo_58338" data-name="Grupo 58338">
                <rect id="Rectángulo_6993" data-name="Rectángulo 6993" width="13.437" height="1.871" transform="translate(0 2.169)" fill="#df7724"/>
                <rect id="Rectángulo_6994" data-name="Rectángulo 6994" width="9.015" height="1.361" fill="#df7724"/>
              </g>
            </g>
            <path id="Trazado_117215" data-name="Trazado 117215" d="M2911.846,390.495a2.445,2.445,0,1,1-2.445-2.445A2.445,2.445,0,0,1,2911.846,390.495Z" transform="translate(-2882.337 -386.094)" fill="#df7724"/>
            <rect id="Rectángulo_6995" data-name="Rectángulo 6995" width="1.444" height="30.489" transform="translate(1.444 30.489) rotate(180)" fill="#ffaf3e" opacity="0.5" style="mix-blend-mode: screen;isolation: isolate"/>
          </g>
          <g id="Grupo_58341" data-name="Grupo 58341" transform="translate(31.976 0)">
            <path id="Trazado_117216" data-name="Trazado 117216" d="M2922.677,381.514v30.149l-4.846,2.807v-30.49l1.295-.657Z" transform="translate(-2917.831 -381.514)" fill="#fc8d31"/>
            <path id="Trazado_117217" data-name="Trazado 117217" d="M2922.678,406.875v5.653l-4.847,2.806V384.845l1.3-.657a98.7,98.7,0,0,0,.6,13.886,21.9,21.9,0,0,0,1.464,6.369A10.389,10.389,0,0,0,2922.678,406.875Z" transform="translate(-2917.831 -382.379)" fill="#fc8d31" opacity="0.5" style="mix-blend-mode: multiply;isolation: isolate"/>
          </g>
          <path id="Trazado_117218" data-name="Trazado 117218" d="M2910.239,381.514v.341a125.885,125.885,0,0,1-30.85.11l1.335-.451Z" transform="translate(-2873.417 -381.514)" fill="#df7724" opacity="0.5" style="mix-blend-mode: multiply;isolation: isolate"/>
        </g>
      </g>
    </g>
    <g id="Grupo_58357" data-name="Grupo 58357" transform="translate(3077.226 259.535)">
      <g id="Grupo_58346" data-name="Grupo 58346" transform="translate(5.899 30.737)">
        <g id="Grupo_58345" data-name="Grupo 58345">
          <path id="Trazado_117219" data-name="Trazado 117219" d="M3205.355,343.825a87.584,87.584,0,0,1,6.852,8.2,99.282,99.282,0,0,1,5.834,8.969,121.633,121.633,0,0,1,8.908,19.455,176.661,176.661,0,0,1,5.864,20.586q1.164,5.223,2.114,10.487c.625,3.509,1.194,7.027,1.732,10.549l-.984.156c-.576-3.509-1.182-7.012-1.844-10.5-.646-3.494-1.343-6.977-2.12-10.442a184.193,184.193,0,0,0-5.7-20.5,124.715,124.715,0,0,0-8.52-19.477,99.9,99.9,0,0,0-5.583-9.065A87.35,87.35,0,0,0,3205.355,343.825Z" transform="translate(-3205.355 -343.825)" fill="#10203f"/>
        </g>
      </g>
      <g id="Grupo_58348" data-name="Grupo 58348" transform="translate(25.658 6.067)">
        <g id="Grupo_58347" data-name="Grupo 58347">
          <path id="Trazado_117220" data-name="Trazado 117220" d="M3234.565,307.354a252.42,252.42,0,0,1,9.056,24.17c.621,2.062,1.186,4.142,1.678,6.239.258,1.046.475,2.1.7,3.156.2,1.058.378,2.121.569,3.182a119.424,119.424,0,0,1,1.4,12.847c.509,8.607.332,17.227.295,25.826-.013,4.3.007,8.6.158,12.889.171,4.289.482,8.569,1,12.822l-.988.122c-.482-4.295-.754-8.6-.884-12.916-.11-4.311-.089-8.619-.034-12.923.12-8.606.38-17.208-.045-25.791a118.972,118.972,0,0,0-1.274-12.814c-.18-1.059-.344-2.12-.537-3.176-.211-1.053-.418-2.106-.665-3.152-.47-2.1-1.014-4.176-1.613-6.239A252.532,252.532,0,0,0,3234.565,307.354Z" transform="translate(-3234.565 -307.354)" fill="#10203f"/>
        </g>
      </g>
      <g id="Grupo_58350" data-name="Grupo 58350" transform="translate(41.94 32.334)">
        <g id="Grupo_58349" data-name="Grupo 58349">
          <path id="Trazado_117221" data-name="Trazado 117221" d="M3282.78,346.186a106.782,106.782,0,0,0-22.948,74.045l-.993.069A107.274,107.274,0,0,1,3282.78,346.186Z" transform="translate(-3258.636 -346.186)" fill="#10203f"/>
        </g>
      </g>
      <g id="Grupo_58352" data-name="Grupo 58352" transform="translate(22.961 102.445)">
        <g id="Grupo_58351" data-name="Grupo 58351">
          <path id="Trazado_117222" data-name="Trazado 117222" d="M3254.781,478.448h-16.794a3.08,3.08,0,0,1-3.065-2.788l-1.892-19.938h26.709l-1.892,19.938A3.079,3.079,0,0,1,3254.781,478.448Z" transform="translate(-3231.371 -451.739)" fill="#ff4644"/>
          <path id="Trazado_117223" data-name="Trazado 117223" d="M3259.178,461.625l.561-5.9H3233.03l.56,5.9Z" transform="translate(-3231.371 -451.739)" fill="#9e1313" opacity="0.5" style="mix-blend-mode: multiply;isolation: isolate"/>
          <rect id="Rectángulo_6996" data-name="Rectángulo 6996" width="30.026" height="5.474" fill="#ff4644"/>
        </g>
      </g>
      <g id="Grupo_58354" data-name="Grupo 58354" transform="translate(41.135 29.353)">
        <g id="Grupo_58353" data-name="Grupo 58353">
          <path id="Trazado_117224" data-name="Trazado 117224" d="M3285.872,349.129a21.238,21.238,0,0,1-3.814,4.412c-.682.687-1.339,1.4-1.966,2.141a40.227,40.227,0,0,0-6.1,9.65,39.557,39.557,0,0,0-2.6,7.962l-.134.652c-.732,3.73-1.011,7.558-2.111,11.2a22.871,22.871,0,0,1-1.3,3.232c-1.389,2.843-3.625,5.965-6.179,5.3a3.185,3.185,0,0,1-.966-.423,5.3,5.3,0,0,1-1.6-1.623c-1.539-2.365-1.792-6.035-1.583-8.814.04-.547.1-1.055.169-1.513a41.1,41.1,0,0,1,2.784-9.082c.5-1.255,1.025-2.51,1.514-3.77.911-2.35,1.732-4.74,2.609-7.105a67.123,67.123,0,0,1,3.077-7.26,32.329,32.329,0,0,1,3.316-5.258,20.834,20.834,0,0,1,6.986-5.925,9.165,9.165,0,0,1,4.173-1.12,4.771,4.771,0,0,1,3.8,1.8A5.322,5.322,0,0,1,3285.872,349.129Z" transform="translate(-3257.446 -341.779)" fill="#3ad5a8"/>
        </g>
        <path id="Trazado_117225" data-name="Trazado 117225" d="M3285.872,349.129a21.238,21.238,0,0,1-3.814,4.412c-.682.687-1.339,1.4-1.966,2.141-.538.264-1.071.543-1.594.841-2.031,1.18-3.948,2.893-4.481,5.183a10.7,10.7,0,0,0-.025,3.625,39.557,39.557,0,0,0-2.6,7.962l-.134.652c-1.549,1.782-3.276,3.5-3.949,5.716a11.8,11.8,0,0,0-.04,5.407c.189,1.1.428,2.2.578,3.306-1.389,2.843-3.625,5.965-6.179,5.3a3.185,3.185,0,0,1-.966-.423,5.3,5.3,0,0,1-1.6-1.623c-1.539-2.365-1.792-6.035-1.583-8.814,1.1-1.185,2.484-2.16,3.2-3.6,1.076-2.156.384-4.561-.249-6.991.5-1.255,1.025-2.51,1.514-3.77.911-2.35,1.732-4.74,2.609-7.105,1.847-1.25,3.76-2.49,4.825-4.372,1.185-2.111,1.09-4.671,1.4-7.071.044-.358.1-.717.169-1.076a20.834,20.834,0,0,1,6.986-5.925,9.165,9.165,0,0,1,4.173-1.12,4.771,4.771,0,0,1,3.8,1.8A5.322,5.322,0,0,1,3285.872,349.129Z" transform="translate(-3257.446 -341.779)" fill="#3ad5a8" opacity="0.19" style="mix-blend-mode: screen;isolation: isolate"/>
      </g>
      <g id="Grupo_58355" data-name="Grupo 58355" transform="translate(20.596 0)">
        <path id="Trazado_117226" data-name="Trazado 117226" d="M3250.607,345.783a81.539,81.539,0,0,0,.463,8.739c.03.553.055,1.105.055,1.658v0a15.851,15.851,0,0,1-1.264,6.916c-1.265,2.694-4.985,6.434-7.813,3.749a9.694,9.694,0,0,1-2.345-3.65,20.121,20.121,0,0,1-1.08-7.618c.1-3.317.677-6.648.632-9.949a20.536,20.536,0,0,0-.229-2.978,20,20,0,0,0-.816-3.3c-1.967-5.821-6.294-10.83-8.764-16.566a28.274,28.274,0,0,1-1.345-3.864,29.54,29.54,0,0,1-.582-12.747c.1-.588.224-1.17.363-1.748.613-2.539,1.987-5.353,4.477-5.94a2.719,2.719,0,0,1,.293-.06c2.753-.438,5.054,2.016,6.613,4.326a90.767,90.767,0,0,1,4.949,8.386c.677,1.26,1.334,2.524,1.992,3.789a60.627,60.627,0,0,1,5.228,12.224l0,0a23.463,23.463,0,0,1,.831,6.484v.139C3252.155,337.827,3250.816,341.75,3250.607,345.783Z" transform="translate(-3227.081 -298.384)" fill="#3ad5a8"/>
        <path id="Trazado_117227" data-name="Trazado 117227" d="M3250.781,354.9q.179.634.344,1.285v0a15.851,15.851,0,0,1-1.264,6.916c-1.265,2.694-4.985,6.434-7.813,3.749a9.694,9.694,0,0,1-2.345-3.65,3.354,3.354,0,0,0,2.022-.9,5.669,5.669,0,0,0,1.573-3.585c.483-4.6-2.435-8.7-4.043-13.085a20.536,20.536,0,0,0-.229-2.978,20,20,0,0,0-.816-3.3c.064-4.282,1.125-8.729-1.056-12.324-2.116-3.486-6.618-4.865-9.053-8.106a29.54,29.54,0,0,1-.582-12.747q.149-.449.313-.881a17.376,17.376,0,0,1,2.733-5.164,8.943,8.943,0,0,1,1.793-1.643,2.719,2.719,0,0,1,.293-.06c2.753-.438,5.054,2.016,6.613,4.326a90.767,90.767,0,0,1,4.949,8.386c.015.542.025,1.085.045,1.623.109,3.336.508,6.852,2.485,9.54a48.022,48.022,0,0,0,4.033,4.093c.229.239.448.493.657.757l0,0a23.463,23.463,0,0,1,.831,6.484c-.353.687-.787,1.349-1.169,2.016a18.166,18.166,0,0,0-2.355,10.4A46.434,46.434,0,0,0,3250.781,354.9Z" transform="translate(-3227.081 -298.384)" fill="#3ad5a8" opacity="0.19" style="mix-blend-mode: screen;isolation: isolate"/>
      </g>
      <g id="Grupo_58356" data-name="Grupo 58356" transform="translate(0 23.982)">
        <path id="Trazado_117228" data-name="Trazado 117228" d="M3231.827,382.286q-.022.411-.06.822c-.2,2.261-.682,7.549-3.6,8.066-2.061.363-5.059-3.256-6.7-4.4-.921-.637-1.867-1.274-2.769-1.957a14.922,14.922,0,0,1-3.764-3.819,13.332,13.332,0,0,1-1.748-4.586c-.532-2.579-.622-5.333-1.1-7.932a26.384,26.384,0,0,0-.871-3.415A40.064,40.064,0,0,0,3205,353.719h0c-1.294-1.738-2.674-3.415-4.078-5.043-.488-.563-.981-1.145-1.459-1.748-1.653-2.1-3.047-4.432-2.793-7.016.333-3.346,3.63-5.911,6.991-6.065a11.27,11.27,0,0,1,8.769,4.247,17.453,17.453,0,0,1,1.673,2.326,32.15,32.15,0,0,1,2.878,6.607c.538,1.628,1.021,3.277,1.558,4.9a38.879,38.879,0,0,0,1.8,4.6,36.254,36.254,0,0,0,2.524,4.362c1.912,2.893,4.078,5.641,5.791,8.624a26.569,26.569,0,0,1,1.708,3.491A22,22,0,0,1,3231.827,382.286Z" transform="translate(-3196.634 -333.838)" fill="#3ad5a8"/>
        <path id="Trazado_117229" data-name="Trazado 117229" d="M3233.177,385.434q-.022.411-.06.822c-.2,2.261-.682,7.549-3.6,8.066-2.061.363-5.059-3.256-6.7-4.4-.921-.637-1.867-1.274-2.769-1.957.349-1.717.667-3.54-.139-5.064-1-1.9-3.271-2.539-5.373-3.341-.532-2.579-.622-5.333-1.1-7.932a26.384,26.384,0,0,0-.871-3.415,20.615,20.615,0,0,0,1.524-3.561c.737-2.495.418-5.6-1.7-7.1-1.554-1.1-3.635-1.055-5.517-.772-.169.025-.344.055-.518.085h0c-1.294-1.738-2.674-3.415-4.078-5.043-.488-.563-.981-1.145-1.459-1.748a32.669,32.669,0,0,1,8.545-4.845,32.03,32.03,0,0,1,5.835-1.618l.259-.045a32.15,32.15,0,0,1,2.878,6.607c.538,1.628,1.021,3.277,1.558,4.9a15.683,15.683,0,0,0-.637,1.693c-.657,2.156-.483,4.845,1.3,6.214a6.446,6.446,0,0,0,3.655,1.056c1.912,2.893,4.078,5.641,5.791,8.624-.542,1.216-1.195,2.385-1.683,3.625-.727,1.862-1.03,4.083.025,5.776C3229.378,383.732,3231.43,384.459,3233.177,385.434Z" transform="translate(-3197.984 -336.987)" fill="#3ad5a8" opacity="0.19" style="mix-blend-mode: screen;isolation: isolate"/>
      </g>
    </g>
    <g id="Grupo_58368" data-name="Grupo 58368" transform="translate(2827.604 189.28)">
      <g id="Grupo_58366" data-name="Grupo 58366" transform="translate(0 8.865)">
        <g id="Grupo_58360" data-name="Grupo 58360" transform="translate(55.574 34.227)">
          <g id="Grupo_58358" data-name="Grupo 58358" transform="translate(3.552 3.452)">
            <path id="Trazado_117230" data-name="Trazado 117230" d="M2919.791,274.666V276.2h-1.368v-1.493a6.488,6.488,0,0,1-3.409-1.1l.753-1.67a5.529,5.529,0,0,0,2.656.972v-2.286c-1.52-.37-3.218-.876-3.218-2.834,0-1.452,1.055-2.7,3.218-2.944V263.33h1.368v1.492a6.2,6.2,0,0,1,2.779.835l-.684,1.685a5.585,5.585,0,0,0-2.095-.712v2.328c1.521.356,3.19.862,3.19,2.793C2922.98,273.173,2921.94,274.406,2919.791,274.666Zm-1.368-6.051V266.67c-.726.165-1.013.561-1.013,1.014C2917.409,268.162,2917.819,268.423,2918.422,268.615Zm2.355,3.3c0-.479-.4-.739-.986-.944v1.889C2920.475,272.708,2920.777,272.352,2920.777,271.914Z" transform="translate(-2915.013 -263.33)" fill="#fff"/>
          </g>
          <g id="Grupo_58359" data-name="Grupo 58359">
            <path id="Trazado_117231" data-name="Trazado 117231" d="M2912.109,263.8v.754h-.672v-.734a3.187,3.187,0,0,1-1.675-.538l.37-.821a2.716,2.716,0,0,0,1.3.478v-1.124c-.747-.182-1.581-.43-1.581-1.392,0-.714.518-1.325,1.581-1.446v-.747h.672v.733a3.04,3.04,0,0,1,1.365.41l-.336.828a2.748,2.748,0,0,0-1.029-.35v1.144c.747.175,1.567.423,1.567,1.372C2913.677,263.063,2913.165,263.669,2912.109,263.8Zm-.672-2.973v-.955c-.356.081-.5.276-.5.5S2911.141,260.729,2911.437,260.823Zm1.157,1.621c0-.235-.2-.363-.484-.464v.928C2912.445,262.835,2912.594,262.66,2912.594,262.445Z" transform="translate(-2909.762 -258.227)" fill="#fff"/>
          </g>
        </g>
        <g id="Grupo_58361" data-name="Grupo 58361" transform="translate(122.966)">
          <path id="Trazado_117232" data-name="Trazado 117232" d="M3024.071,214.968c0,3.036-4.116,9.321-6.183,12.287a1.409,1.409,0,0,1-2.313,0c-2.067-2.966-6.184-9.251-6.184-12.287a7.34,7.34,0,1,1,14.68,0Z" transform="translate(-3009.391 -207.628)" fill="#a0a603" opacity="0.5"/>
          <path id="Trazado_117233" data-name="Trazado 117233" d="M3021.834,217.019a3.051,3.051,0,1,1-3.052-3.051A3.052,3.052,0,0,1,3021.834,217.019Z" transform="translate(-3011.443 -209.679)" fill="#fff"/>
        </g>
        <g id="Grupo_58363" data-name="Grupo 58363" transform="translate(0 1.696)">
          <path id="Trazado_117234" data-name="Trazado 117234" d="M2849.048,210.136h-20.609a.835.835,0,0,0-.834.835V224.01a.835.835,0,0,0,.834.835h13.87l6.588,2.629a.719.719,0,0,0,.986-.668V210.971A.834.834,0,0,0,2849.048,210.136Z" transform="translate(-2827.604 -210.136)" fill="#ffaf3e"/>
          <g id="Grupo_58362" data-name="Grupo 58362" transform="translate(4.037 6.332)">
            <path id="Trazado_117235" data-name="Trazado 117235" d="M2835.515,220.469a.971.971,0,1,1-.971-.972A.971.971,0,0,1,2835.515,220.469Z" transform="translate(-2833.572 -219.497)" fill="#fff"/>
            <path id="Trazado_117236" data-name="Trazado 117236" d="M2844.579,220.469a.971.971,0,1,1-.971-.972A.971.971,0,0,1,2844.579,220.469Z" transform="translate(-2836.505 -219.497)" fill="#fff"/>
            <path id="Trazado_117237" data-name="Trazado 117237" d="M2853.643,220.469a.971.971,0,1,1-.971-.972A.971.971,0,0,1,2853.643,220.469Z" transform="translate(-2839.438 -219.497)" fill="#fff"/>
          </g>
        </g>
        <g id="Grupo_58365" data-name="Grupo 58365" transform="translate(23.908 61.856)">
          <path id="Trazado_117238" data-name="Trazado 117238" d="M2869.95,312.053c-2.836,8.574-.654,18.364,4.654,25.67s13.439,12.257,22.095,14.835,17.838,2.928,26.847,2.305c12.674-.875,25.133-3.622,37.705-5.44s25.508-2.69,37.887.16,24.247,9.843,30.672,20.8" transform="translate(-2864.811 -303.273)" fill="none" stroke="#fff" stroke-miterlimit="10" stroke-width="1" stroke-dasharray="9"/>
          <g id="Grupo_58364" data-name="Grupo 58364">
            <path id="Trazado_117239" data-name="Trazado 117239" d="M2886.625,299.073l-19.071,6.314-4.6-4.63Z" transform="translate(-2862.949 -299.073)" fill="#4dc9d6" opacity="0.5" style="mix-blend-mode: multiply;isolation: isolate"/>
            <path id="Trazado_117240" data-name="Trazado 117240" d="M2871.272,311.4l-1.834,2.062,3.112-1.012Z" transform="translate(-2865.049 -303.06)" fill="#407cb7"/>
            <path id="Trazado_117241" data-name="Trazado 117241" d="M2872.15,307.409l5.158,7.224s12.328-15.646,12.293-15.56S2872.15,307.409,2872.15,307.409Z" transform="translate(-2865.926 -299.072)" fill="#4dc9d6" opacity="0.5" style="mix-blend-mode: multiply;isolation: isolate"/>
            <path id="Trazado_117242" data-name="Trazado 117242" d="M2869.438,309.471l.215-4.085,19.071-6.314-17.452,8.336Z" transform="translate(-2865.049 -299.073)" fill="#3870a5"/>
          </g>
        </g>
      </g>
      <g id="Grupo_58367" data-name="Grupo 58367" transform="translate(4.49)">
        <path id="Trazado_117243" data-name="Trazado 117243" d="M2845.814,283.866a3.339,3.339,0,1,1-3.339-3.339A3.339,3.339,0,0,1,2845.814,283.866Z" transform="translate(-2835.825 -222.352)" fill="#a0a603" opacity="0.5"/>
        <circle id="Elipse_4223" data-name="Elipse 4223" cx="2.346" cy="2.346" r="2.346" transform="translate(0 69.741)" fill="#a0a603" opacity="0.5"/>
        <path id="Trazado_117244" data-name="Trazado 117244" d="M2909.232,295.007a2.731,2.731,0,1,1-2.732-2.731A2.731,2.731,0,0,1,2909.232,295.007Z" transform="translate(-2856.739 -226.153)" fill="#fff"/>
        <path id="Trazado_117245" data-name="Trazado 117245" d="M2919.384,312.7a2.121,2.121,0,1,1-2.121-2.121A2.121,2.121,0,0,1,2919.384,312.7Z" transform="translate(-2860.418 -232.074)" fill="#fff"/>
        <path id="Trazado_117246" data-name="Trazado 117246" d="M3075.54,323.78a.929.929,0,1,1-.93-.929A.929.929,0,0,1,3075.54,323.78Z" transform="translate(-2911.718 -236.046)" fill="#fff"/>
        <path id="Trazado_117247" data-name="Trazado 117247" d="M2869.777,361.209a1.533,1.533,0,1,1-1.533-1.533A1.533,1.533,0,0,1,2869.777,361.209Z" transform="translate(-2844.748 -247.962)" fill="#fff"/>
        <circle id="Elipse_4224" data-name="Elipse 4224" cx="1.408" cy="1.408" r="1.408" transform="translate(132.671 145.922)" fill="#fff"/>
        <path id="Trazado_117248" data-name="Trazado 117248" d="M3264.326,241.888" transform="translate(-2973.405 -209.849)" fill="#c6eef2"/>
        <circle id="Elipse_4225" data-name="Elipse 4225" cx="1.526" cy="1.526" r="1.526" transform="translate(295.067 71.203)" fill="#fff"/>
        <path id="Trazado_117249" data-name="Trazado 117249" d="M2922.167,195.584a1.06,1.06,0,1,1-1.061-1.061A1.06,1.06,0,0,1,2922.167,195.584Z" transform="translate(-2862.006 -194.523)" fill="#c6eef2"/>
      </g>
    </g>
    <g id="Grupo_58425" data-name="Grupo 58425" transform="translate(2964.764 206.851)">
      <g id="Grupo_58424" data-name="Grupo 58424" transform="translate(0)">
        <g id="Grupo_58377" data-name="Grupo 58377" transform="translate(36.418 107.637)">
          <g id="Grupo_58372" data-name="Grupo 58372" transform="translate(0 1.748)">
            <g id="Grupo_58370" data-name="Grupo 58370" transform="translate(4.556)">
              <g id="Grupo_58369" data-name="Grupo 58369">
                <path id="Trazado_117250" data-name="Trazado 117250" d="M3107.119,401.016a160.437,160.437,0,0,1,.264,19.125c-.926,19.519-5.293,30.673-5.293,30.673l-6.563-.15-4.113-59.433-.463-6.692c1.36-.12,2.714-.254,4.043-.373,5.283-.463,10.546-1.165,15.79-1.957A179.641,179.641,0,0,1,3107.119,401.016Z" transform="translate(-3090.951 -382.209)" fill="#e16836"/>
              </g>
              <path id="Trazado_117251" data-name="Trazado 117251" d="M3107.119,401.016a160.437,160.437,0,0,1,.264,19.125l-1.465-15.7a14.567,14.567,0,0,0-14.5-13.213h0l-.463-6.692c1.36-.12,2.714-.254,4.043-.373,5.283-.463,10.546-1.165,15.79-1.957A179.641,179.641,0,0,1,3107.119,401.016Z" transform="translate(-3090.951 -382.209)" fill="#e16836" opacity="0.5" style="mix-blend-mode: multiply;isolation: isolate"/>
            </g>
            <g id="Grupo_58371" data-name="Grupo 58371" transform="translate(0 58.088)">
              <path id="Trazado_117252" data-name="Trazado 117252" d="M3100.722,478.3s1.27,3.874.468,6.025h-16.865s-1.105-3.1,3.685-2.763l4.83-2.963-.593-9.874a3.449,3.449,0,0,1,4.745.762l5.891.508Z" transform="translate(-3084.215 -468.083)" fill="#e7e7e7"/>
              <path id="Trazado_117253" data-name="Trazado 117253" d="M3098.807,469.488s-1.184,8.091-1.543,9.112-2.142,3.684-4.088,3.7a7.474,7.474,0,0,1-3.351-.741l4.83-2.963-.593-9.874A3.449,3.449,0,0,1,3098.807,469.488Z" transform="translate(-3086.03 -468.083)" fill="#a0c1c6"/>
            </g>
          </g>
          <g id="Grupo_58376" data-name="Grupo 58376" transform="translate(16.973)">
            <g id="Grupo_58374" data-name="Grupo 58374">
              <g id="Grupo_58373" data-name="Grupo 58373">
                <path id="Trazado_117254" data-name="Trazado 117254" d="M3126.879,379.625c-2.651.535-5.334,1-8.053,1.423-3.167.492-6.339.957-9.519,1.365,7.068,20.516,16.551,45.4,24.982,62.246,2.649.846,4.182-1.666,6.4-2.127-.431-15.682-6.575-31.819-12.352-46.1C3128.039,391.531,3127.622,385.72,3126.879,379.625Z" transform="translate(-3109.307 -379.625)" fill="#ee7848"/>
              </g>
            </g>
            <g id="Grupo_58375" data-name="Grupo 58375" transform="translate(19.72 53.975)">
              <path id="Trazado_117255" data-name="Trazado 117255" d="M3151.355,467.857s2.792,2.97,2.978,5.259l-15.274,7.151s-2.316-2.341,2.166-4.065l3.118-4.731-4.723-8.691a3.45,3.45,0,0,1,4.621-1.322l5.55-2.037Z" transform="translate(-3138.46 -459.419)" fill="#e7e7e7"/>
              <path id="Trazado_117256" data-name="Trazado 117256" d="M3144.794,462.217s2.357,7.83,2.466,8.907-.377,4.245-2.132,5.088a7.477,7.477,0,0,1-3.349.749l3.118-4.731-4.723-8.691A3.45,3.45,0,0,1,3144.794,462.217Z" transform="translate(-3139.015 -460.18)" fill="#a0c1c6"/>
            </g>
          </g>
        </g>
        <g id="Grupo_58406" data-name="Grupo 58406" transform="translate(0 14.922)">
          <g id="Grupo_58382" data-name="Grupo 58382" transform="translate(47.666 12.919)">
            <g id="Grupo_58381" data-name="Grupo 58381">
              <g id="Grupo_58380" data-name="Grupo 58380" transform="translate(8.494 17.43)">
                <g id="Grupo_58379" data-name="Grupo 58379">
                  <g id="Grupo_58378" data-name="Grupo 58378">
                    <path id="Trazado_117257" data-name="Trazado 117257" d="M3135.972,330.821c-1.7.533-3.311,1.26-5.029,1.688-3.227-9.291-6.632-19.3-10.844-27.754-.961-1.927-1.9-3.729-2.819-5.452-1.3-2.45-2.584-4.74-3.879-7.016,2.754-1.115,5.452-2.37,8.151-3.62l2.694-1.24c1.015,2.256,1.926,4.551,2.763,6.857.692,1.907,1.334,3.819,1.937,5.721A218.057,218.057,0,0,1,3135.972,330.821Z" transform="translate(-3113.401 -287.426)" fill="#ee7848"/>
                  </g>
                  <path id="Trazado_117258" data-name="Trazado 117258" d="M3141.1,347.484a8.224,8.224,0,0,1,2.48,1.715c1.278,1.25,1.435,3.76,2.176,4.852s1.441,2,1.19,2.3-.695-.128-2.014-1.734c0,0-.823-.619-.449.315s1.82,2.861,1.371,3.346c-.365.392-2.236-2.628-2.458-2.675s1.516,3.965.793,4.525-1.464-4.256-2-4.315.39,3.347-.082,3.521c-1.034.379-1.371-5.208-1.832-5.091s-.818,2.189-1.443,2.066.188-2.242.153-2.668S3138.066,348.289,3141.1,347.484Z" transform="translate(-3121.554 -306.859)" fill="#ee7848"/>
                </g>
                <path id="Trazado_117259" data-name="Trazado 117259" d="M3127.009,294.283l-9.73,5.019c-1.3-2.45-2.584-4.74-3.879-7.016,2.754-1.115,5.452-2.37,8.151-3.62l2.694-1.24C3125.261,289.682,3126.172,291.977,3127.009,294.283Z" transform="translate(-3113.401 -287.426)" fill="#d96231"/>
              </g>
              <path id="Trazado_117260" data-name="Trazado 117260" d="M3122.2,281.792s-7.883,5.4-11.442,5.657l-9.9-18.05a15.586,15.586,0,0,1,.08-2.38,5.983,5.983,0,0,1,9.714-4.013l.1.089a17.979,17.979,0,0,1,2.729,3.361c2.738,4.028,6.055,10.207,7.693,13.349C3121.816,281.03,3122.2,281.792,3122.2,281.792Z" transform="translate(-3100.844 -261.658)" fill="#ef9525"/>
            </g>
            <path id="Trazado_117261" data-name="Trazado 117261" d="M3122.2,281.792s-7.883,5.4-11.442,5.657l-9.9-18.05a15.586,15.586,0,0,1,.08-2.38,5.983,5.983,0,0,1,9.714-4.013l.1.089a17.979,17.979,0,0,1,2.729,3.361q-.493,5.736-.986,11.478a4.676,4.676,0,0,0,.294,2.674,3.517,3.517,0,0,0,3.007,1.548,6.856,6.856,0,0,0,5.378-2.351C3121.816,281.03,3122.2,281.792,3122.2,281.792Z" transform="translate(-3100.844 -261.658)" fill="#ef9525" opacity="0.5" style="mix-blend-mode: multiply;isolation: isolate"/>
          </g>
          <g id="Grupo_58387" data-name="Grupo 58387" transform="translate(35.214)">
            <g id="Grupo_58383" data-name="Grupo 58383" transform="translate(2.881)">
              <path id="Trazado_117262" data-name="Trazado 117262" d="M3100.394,253.854V242.559h-7.508v11.856a9.114,9.114,0,0,0-4.517,3.578c-.609.928-1.172,1.709-1.676,2.435a19.126,19.126,0,0,0,2.181.891c.272-.032.532-.063.754-.086A19.36,19.36,0,0,0,3096,259.6a11.846,11.846,0,0,0,4.122-2.978,2.145,2.145,0,0,1,.073-.323,12.319,12.319,0,0,1,1.088-2.363C3100.982,253.908,3100.684,253.878,3100.394,253.854Z" transform="translate(-3086.694 -242.559)" fill="#ee7848"/>
              <path id="Trazado_117263" data-name="Trazado 117263" d="M3103.246,246.682a12.482,12.482,0,0,1-2.564,4.487,8.3,8.3,0,0,1-3.142,2.031,6.809,6.809,0,0,1-1.687.359v-1.972a6.231,6.231,0,0,0,2.535-.358,8.343,8.343,0,0,0,3.146-2.027A9.438,9.438,0,0,0,3103.246,246.682Z" transform="translate(-3089.657 -243.893)" fill="#d96231"/>
            </g>
            <g id="Grupo_58386" data-name="Grupo 58386" transform="translate(0 11.135)">
              <path id="Trazado_117264" data-name="Trazado 117264" d="M3122,343.494c-.523.135-1.449.348-2.674.622-6.583,1.454-21.824,4.511-30.02,4.924-.98.05-1.868.065-2.619.03l-.762-55.165s-.747-4.531-1.524-9.2c-.751-4.477-1.533-9.078-1.717-9.934-.384-1.747-.733-2.863,2.32-8.9s6.548-6.155,6.548-6.155c-2.648.538-5.522,5.283-5.522,5.283s6.124-1.692,8.4-4.063a5.91,5.91,0,0,1,5.019-1.872,6.986,6.986,0,0,1,4.761,3.206,9.235,9.235,0,0,1,1.249,6.688,75.843,75.843,0,0,0-.936,9.615c-.259,5.5-.174,10.466-.174,10.466,9.142,8.992,7.39,23.129,7.39,23.129Z" transform="translate(-3082.435 -259.02)" fill="#ffaf3e"/>
              <g id="Grupo_58385" data-name="Grupo 58385" transform="translate(14.53 20.103)">
                <g id="Grupo_58384" data-name="Grupo 58384">
                  <path id="Trazado_117265" data-name="Trazado 117265" d="M3105.388,288.739c-.407,2.825-.754,5.66-.965,8.5-.111,1.421-.184,2.844-.186,4.266,0,.356,0,.711.017,1.065s.024.709.062,1.06l.046.528c.022.175.056.349.084.524.06.349.112.7.179,1.046,1.131,5.586,2.422,11.151,3.711,16.711l3.843,16.689,1.912,8.348,1.877,8.357c-1.437-5.526-2.808-11.069-4.161-16.616s-2.655-11.107-3.955-16.667l-1.871-8.359c-.6-2.793-1.232-5.576-1.731-8.394-.062-.353-.109-.712-.164-1.067-.026-.178-.057-.355-.077-.534l-.039-.539c-.032-.36-.04-.719-.045-1.078s-.01-.718,0-1.076c.026-1.433.119-2.861.258-4.285C3104.475,294.378,3104.87,291.548,3105.388,288.739Z" transform="translate(-3103.916 -288.739)" fill="#dc6124"/>
                </g>
              </g>
              <path id="Trazado_117266" data-name="Trazado 117266" d="M3103.156,274.306l-5.84,17.905v0a59.528,59.528,0,0,0-8.092,32.072l1.023,28.956c-.981.05-1.868.065-2.619.03l-.762-55.165s-.747-4.531-1.524-9.2l15.506-16.9Z" transform="translate(-3083.375 -263.222)" fill="#ffaf3e" opacity="0.5" style="mix-blend-mode: screen;isolation: isolate"/>
              <path id="Trazado_117267" data-name="Trazado 117267" d="M3131.461,352.847c-.523.135-1.449.348-2.674.622l-10.307-32.226c2.246-9.983-6.8-21.271-6.8-21.271l2.3-12.045c-.259,5.5-.174,10.466-.174,10.466,9.142,8.992,7.389,23.129,7.389,23.129Z" transform="translate(-3091.897 -268.374)" fill="#ffaf3e" opacity="0.5" style="mix-blend-mode: multiply;isolation: isolate"/>
            </g>
          </g>
          <g id="Grupo_58405" data-name="Grupo 58405" transform="translate(0 14.355)">
            <g id="Grupo_58399" data-name="Grupo 58399" transform="translate(0 2.718)">
              <g id="Grupo_58397" data-name="Grupo 58397">
                <g id="Grupo_58390" data-name="Grupo 58390" transform="translate(0 0.044)">
                  <path id="Trazado_117268" data-name="Trazado 117268" d="M3039.833,280.19a9.223,9.223,0,0,0-3.573,1.4c-2.106-3.756-4.146-7.463-5.884-11.432,1.812-.789,3.666-1.475,5.463-2.3C3037.662,272.106,3039.557,275.49,3039.833,280.19Z" transform="translate(-3030.376 -267.864)" fill="#15b48a"/>
                  <path id="Trazado_117269" data-name="Trazado 117269" d="M3036.737,280.769c-2.067-2.75-3.2-6.163-4.71-9.238a.544.544,0,0,0,.271-.7c1.085-.437,2.174-.862,3.247-1.325a.549.549,0,0,0,.7.272c1.521,3.152,3.324,6.185,3.481,9.766a.587.587,0,0,0-.435.606,3.663,3.663,0,0,0-1.933.823A.459.459,0,0,0,3036.737,280.769Z" transform="translate(-3030.91 -268.396)" fill="#3ad5a8"/>
                  <path id="Trazado_117270" data-name="Trazado 117270" d="M3039.365,276.58a1.939,1.939,0,0,1-3.559,1.519,1.886,1.886,0,0,1,.979-2.528A1.939,1.939,0,0,1,3039.365,276.58Z" transform="translate(-3032.079 -270.303)" fill="#15b48a"/>
                  <g id="Grupo_58389" data-name="Grupo 58389" transform="translate(3.994 5.919)">
                    <g id="Grupo_58388" data-name="Grupo 58388">
                      <path id="Trazado_117271" data-name="Trazado 117271" d="M3038.815,277.079c.122-.046.23-.1.348-.143.043.1.087.2.129.3l-.334.139a1.511,1.511,0,0,1,.057.841c-.145,0-.291-.008-.437-.007a1.3,1.3,0,0,0-.021-.663c-.168.075-.343.147-.507.223.025.412.1.74-.368.952a.742.742,0,0,1-.923-.391c-.124.045-.233.093-.352.139q-.063-.15-.126-.3l.344-.135a1.82,1.82,0,0,1-.083-.7h.452a1.711,1.711,0,0,0,.046.536c.174-.071.354-.141.517-.227-.022-.4-.15-.76.316-.98A.774.774,0,0,1,3038.815,277.079Zm-1.2.895-.438.187a.261.261,0,0,0,.313.112C3037.612,278.218,3037.608,278.093,3037.61,277.974Zm.5-.838c-.125.057-.12.184-.12.3q.211-.09.42-.185C3038.336,277.16,3038.239,277.079,3038.115,277.136Z" transform="translate(-3036.281 -276.614)" fill="#3ad5a8"/>
                    </g>
                  </g>
                </g>
                <g id="Grupo_58393" data-name="Grupo 58393" transform="translate(2.903 0.009)">
                  <path id="Trazado_117272" data-name="Trazado 117272" d="M3041.072,280.759a9.223,9.223,0,0,0-3.819.389c-1.016-4.185-1.981-8.3-2.586-12.594,1.958-.272,3.927-.433,5.88-.741C3041.16,272.39,3042.073,276.159,3041.072,280.759Z" transform="translate(-3034.667 -267.813)" fill="#15b48a"/>
                  <path id="Trazado_117273" data-name="Trazado 117273" d="M3037.97,280.231c-1.25-3.206-1.425-6.8-2.047-10.165a.542.542,0,0,0,.449-.6c1.162-.129,2.326-.245,3.484-.4a.548.548,0,0,0,.6.451c.616,3.445,1.535,6.852.721,10.343a.589.589,0,0,0-.583.467,3.665,3.665,0,0,0-2.083.272C3038.42,280.341,3038.255,280.179,3037.97,280.231Z" transform="translate(-3035.073 -268.219)" fill="#3ad5a8"/>
                  <path id="Trazado_117274" data-name="Trazado 117274" d="M3041.612,276.668a1.939,1.939,0,0,1-3.837.5A1.886,1.886,0,0,1,3039.4,275,1.939,1.939,0,0,1,3041.612,276.668Z" transform="translate(-3035.667 -270.133)" fill="#15b48a"/>
                  <g id="Grupo_58392" data-name="Grupo 58392" transform="translate(2.451 5.776)">
                    <g id="Grupo_58391" data-name="Grupo 58391">
                      <path id="Trazado_117275" data-name="Trazado 117275" d="M3041.025,277.011c.13-.011.248-.03.373-.043.015.108.03.216.044.323l-.36.044a1.512,1.512,0,0,1-.171.826c-.139-.043-.278-.087-.419-.124a1.29,1.29,0,0,0,.158-.645c-.181.028-.369.05-.547.078-.088.4-.105.739-.612.818a.742.742,0,0,1-.784-.625c-.13.009-.25.026-.376.039-.013-.108-.026-.215-.041-.322l.367-.038a1.806,1.806,0,0,1,.109-.7l.436.122a1.732,1.732,0,0,0-.1.529c.187-.022.379-.041.56-.079.086-.392.059-.772.568-.858A.774.774,0,0,1,3041.025,277.011Zm-1.4.538c-.158.02-.315.04-.472.062.053.117.134.212.271.192S3039.59,277.662,3039.624,277.549Zm.712-.672c-.135.021-.165.145-.2.259.152-.02.3-.041.455-.064C3040.542,276.96,3040.471,276.856,3040.336,276.877Z" transform="translate(-3038.291 -276.352)" fill="#3ad5a8"/>
                    </g>
                  </g>
                </g>
                <g id="Grupo_58396" data-name="Grupo 58396" transform="translate(5.223)">
                  <path id="Trazado_117276" data-name="Trazado 117276" d="M3041.88,281.278a9.232,9.232,0,0,0-3.782-.654c.149-4.3.329-8.531.9-12.825,1.958.266,3.9.641,5.863.871C3044.22,273.242,3044.083,277.118,3041.88,281.278Z" transform="translate(-3038.098 -267.799)" fill="#15b48a"/>
                  <path id="Trazado_117277" data-name="Trazado 117277" d="M3039.027,279.836c-.339-3.423.459-6.93.768-10.341a.544.544,0,0,0,.593-.455c1.154.189,2.305.391,3.464.552a.548.548,0,0,0,.456.6c-.335,3.484-.368,7.012-2.092,10.155a.587.587,0,0,0-.687.293,3.663,3.663,0,0,0-2.08-.3C3039.432,280.063,3039.316,279.862,3039.027,279.836Z" transform="translate(-3038.372 -268.201)" fill="#3ad5a8"/>
                  <path id="Trazado_117278" data-name="Trazado 117278" d="M3043.747,277.354a1.939,1.939,0,0,1-3.831-.549,1.886,1.886,0,0,1,2.149-1.653A1.94,1.94,0,0,1,3043.747,277.354Z" transform="translate(-3038.68 -270.172)" fill="#15b48a"/>
                  <g id="Grupo_58395" data-name="Grupo 58395" transform="translate(1.583 5.921)">
                    <g id="Grupo_58394" data-name="Grupo 58394">
                      <path id="Trazado_117279" data-name="Trazado 117279" d="M3043.218,277.512c.128.024.246.038.371.058-.015.108-.029.216-.045.324l-.358-.055a1.517,1.517,0,0,1-.387.749c-.123-.08-.245-.158-.371-.233a1.294,1.294,0,0,0,.327-.578c-.183-.023-.37-.051-.549-.072-.193.365-.3.683-.809.623a.742.742,0,0,1-.586-.813c-.129-.026-.248-.042-.373-.064.016-.107.032-.214.047-.321l.364.063a1.8,1.8,0,0,1,.292-.641l.387.235a1.72,1.72,0,0,0-.239.483c.185.029.375.063.559.074.189-.354.266-.728.779-.673A.774.774,0,0,1,3043.218,277.512Zm-1.5.14q-.236-.036-.471-.068c.02.127.072.24.209.258S3041.66,277.753,3041.723,277.652Zm.866-.455c-.136-.016-.2.1-.259.2q.227.033.455.06C3042.766,277.333,3042.726,277.213,3042.589,277.2Z" transform="translate(-3040.438 -276.552)" fill="#3ad5a8"/>
                    </g>
                  </g>
                </g>
              </g>
              <g id="Grupo_58398" data-name="Grupo 58398" transform="translate(3.138 8.72)">
                <path id="Trazado_117280" data-name="Trazado 117280" d="M3080.334,290.336c-1.021,1.419-2.1,2.809-3.212,4.163-.08.1-.169.21-.254.314-1.075,1.3-2.933,3.351-4.566,5.114a6.6,6.6,0,0,1-7.568,1.539c-1.718-.777-3.576-1.628-4.805-2.226a107.791,107.791,0,0,1-9.625-5.467c-3.152-1.962-6.279-4.008-9.5-5.946-.921-.523-2.241-1.369-2.241-1.369a1.243,1.243,0,0,1-.975-1.2c-.737-.035-.717-.827-.717-.827a.9.9,0,0,1-.568-1.3s1.27.5,1.31.353-3.266-2.221-2.474-2.5,4.327,1.813,5.666,1.922a1.414,1.414,0,0,0,1.569-1.115l.289-1.09a2.621,2.621,0,0,1,.741.921,7.909,7.909,0,0,1-.139,2.3c7.111,2.773,14.6,5.711,21.849,7.912.917-1.379,1.782-2.723,2.629-4.048,1.135-1.777,2.226-3.53,3.331-5.308.957.912,1.942,1.8,2.938,2.669Q3077.1,287.828,3080.334,290.336Z" transform="translate(-3035.015 -280.691)" fill="#ee7848"/>
                <path id="Trazado_117281" data-name="Trazado 117281" d="M3095.989,291.183c-1.021,1.419-2.1,2.809-3.212,4.163-4.346-.966-7.593-4.381-9.38-6.727,1.135-1.777,2.226-3.53,3.331-5.308.957.912,1.942,1.8,2.938,2.669Q3092.751,288.676,3095.989,291.183Z" transform="translate(-3050.67 -281.539)" fill="#d96231"/>
              </g>
            </g>
            <g id="Grupo_58404" data-name="Grupo 58404" transform="translate(37.041)">
              <path id="Trazado_117282" data-name="Trazado 117282" d="M3085.241,278.888l9.853-14.4s7.805-3.56,9.719,5.275l-9,16.909A16.391,16.391,0,0,1,3085.241,278.888Z" transform="translate(-3085.169 -263.781)" fill="#ffaf3e"/>
              <g id="Grupo_58403" data-name="Grupo 58403" transform="translate(0 3.473)">
                <g id="Grupo_58402" data-name="Grupo 58402">
                  <g id="Grupo_58400" data-name="Grupo 58400">
                    <path id="Trazado_117283" data-name="Trazado 117283" d="M3085.677,281.239c-.175-.217-.351-.434-.52-.656l-.023-.03.023-.038c.624-1.017,1.292-2,1.946-3s1.348-1.961,2.041-2.928,1.392-1.931,2.121-2.873,1.451-1.889,2.22-2.8c-.612,1.025-1.261,2.024-1.92,3.015s-1.334,1.972-2.019,2.945-1.387,1.934-2.1,2.888-1.437,1.9-2.194,2.821v-.068C3085.4,280.754,3085.539,281,3085.677,281.239Z" transform="translate(-3085.135 -268.915)" fill="#dc6124"/>
                  </g>
                  <g id="Grupo_58401" data-name="Grupo 58401" transform="translate(10.074 3.494)">
                    <path id="Trazado_117284" data-name="Trazado 117284" d="M3100.028,290.007c.3.137.6.273.9.417l-.076.024c.607-1.4,1.264-2.781,1.9-4.167q.987-2.067,2.011-4.114c.687-1.363,1.375-2.725,2.1-4.07s1.44-2.693,2.208-4.016c-.594,1.41-1.23,2.8-1.878,4.18s-1.313,2.757-1.988,4.126-1.371,2.728-2.076,4.082c-.721,1.346-1.427,2.7-2.182,4.029l-.029.051-.047-.027C3100.589,290.355,3100.31,290.18,3100.028,290.007Z" transform="translate(-3100.028 -274.081)" fill="#dc6124"/>
                  </g>
                </g>
              </g>
            </g>
          </g>
        </g>
        <g id="Grupo_58423" data-name="Grupo 58423" transform="translate(35.328)">
          <g id="Grupo_58421" data-name="Grupo 58421" transform="translate(0 1.293)">
            <path id="Trazado_117285" data-name="Trazado 117285" d="M3082.635,235.064a6.114,6.114,0,0,1,1.042-1.829,5.89,5.89,0,0,0,.67-1.144,27.15,27.15,0,0,1,1.538-7.465c.729-1.437,4.652-2.731,8.511-2.007,3.863.7,7.063,3.308,7.232,4.912.063.609.352,3.041-1.709,9.019a13.033,13.033,0,0,1-2.675,4.8,8.377,8.377,0,0,1-3.143,2.03,5.755,5.755,0,0,1-3.2.26l-.736-.135a6.026,6.026,0,0,1-3.452-1.9,8.819,8.819,0,0,1-1.66-2.5,9.212,9.212,0,0,1-.669-2.608,2.4,2.4,0,0,1-1.469-.518A.873.873,0,0,1,3082.635,235.064Z" transform="translate(-3082.603 -222.411)" fill="#ee7848"/>
            <g id="Grupo_58420" data-name="Grupo 58420" transform="translate(2.255 7.171)">
              <g id="Grupo_58419" data-name="Grupo 58419">
                <g id="Grupo_58409" data-name="Grupo 58409" transform="translate(9.93 3.095)">
                  <g id="Grupo_58407" data-name="Grupo 58407">
                    <path id="Trazado_117286" data-name="Trazado 117286" d="M3102.952,239.763a2.228,2.228,0,0,0,.127-.747,1.676,1.676,0,0,0-.082-.7.685.685,0,0,0-1.056-.206,2.629,2.629,0,0,0-.938,1.053,5.105,5.105,0,0,0-.3,1.471,3.263,3.263,0,0,1,.026-1.577,2.519,2.519,0,0,1,1.02-1.271,1.224,1.224,0,0,1,.866-.173.849.849,0,0,1,.661.607,1.651,1.651,0,0,1-.013.825A1.864,1.864,0,0,1,3102.952,239.763Z" transform="translate(-3100.617 -237.589)" fill="#d96231"/>
                  </g>
                  <g id="Grupo_58408" data-name="Grupo 58408" transform="translate(0.571 0.967)">
                    <path id="Trazado_117287" data-name="Trazado 117287" d="M3101.938,241.241a1.978,1.978,0,0,0,.2-.643,3.108,3.108,0,0,0,.018-.642,1.125,1.125,0,0,0-.163-.556.651.651,0,0,0-.528-.292.61.61,0,0,1,.743.091,1.073,1.073,0,0,1,.325.729,1.746,1.746,0,0,1-.111.747A1.045,1.045,0,0,1,3101.938,241.241Z" transform="translate(-3101.461 -239.019)" fill="#d96231"/>
                  </g>
                </g>
                <g id="Grupo_58412" data-name="Grupo 58412" transform="translate(0 6.543)">
                  <g id="Grupo_58410" data-name="Grupo 58410" transform="translate(1.55 1.617)">
                    <path id="Trazado_117288" data-name="Trazado 117288" d="M3089.323,245.077a1.13,1.13,0,0,1-1.1.511c.186-.112.368-.175.542-.267C3088.953,245.247,3089.119,245.149,3089.323,245.077Z" transform="translate(-3088.228 -245.077)" fill="#d96231"/>
                  </g>
                  <g id="Grupo_58411" data-name="Grupo 58411">
                    <path id="Trazado_117289" data-name="Trazado 117289" d="M3089.073,242.686a2.642,2.642,0,0,1-1.237,1.46,2.517,2.517,0,0,1-.934.31,2.3,2.3,0,0,1-.965-.072,5.179,5.179,0,0,0,1.715-.568A6.169,6.169,0,0,0,3089.073,242.686Z" transform="translate(-3085.937 -242.686)" fill="#d96231"/>
                  </g>
                </g>
                <g id="Grupo_58414" data-name="Grupo 58414" transform="translate(0.593 6.401)">
                  <g id="Grupo_58413" data-name="Grupo 58413">
                    <path id="Trazado_117290" data-name="Trazado 117290" d="M3087.331,242.537a.419.419,0,0,1-.168.3.413.413,0,0,1-.346.026.335.335,0,0,1,.143-.343A.338.338,0,0,1,3087.331,242.537Z" transform="translate(-3086.814 -242.475)" fill="#d96231"/>
                  </g>
                </g>
                <g id="Grupo_58416" data-name="Grupo 58416" transform="translate(1.226 2.594)">
                  <g id="Grupo_58415" data-name="Grupo 58415">
                    <path id="Trazado_117291" data-name="Trazado 117291" d="M3088.33,237.971c0,.54.327.979.731.979s.731-.438.731-.979-.328-.978-.731-.978S3088.33,237.431,3088.33,237.971Z" transform="translate(-3087.938 -236.895)" fill="#6b2709"/>
                    <path id="Trazado_117292" data-name="Trazado 117292" d="M3087.75,236.848s.081.373,1.1.393" transform="translate(-3087.75 -236.848)" fill="none" stroke="#6b2709" stroke-linecap="round" stroke-linejoin="round" stroke-width="0.871"/>
                  </g>
                </g>
                <g id="Grupo_58418" data-name="Grupo 58418" transform="translate(0.664)">
                  <g id="Grupo_58417" data-name="Grupo 58417">
                    <path id="Trazado_117293" data-name="Trazado 117293" d="M3087.684,233.837a6.611,6.611,0,0,1,.815-.028,6.1,6.1,0,0,1,.837.07,5.136,5.136,0,0,1,.825.2,7.153,7.153,0,0,1,.807.33l.012.005a.19.19,0,0,0,.206-.313,3.737,3.737,0,0,0-.783-.569,3.95,3.95,0,0,0-.91-.37,3.837,3.837,0,0,0-.976-.15,3.349,3.349,0,0,0-1.005.12.362.362,0,0,0,.131.708Z" transform="translate(-3087.027 -233.013)" fill="#6b2709"/>
                    <path id="Trazado_117294" data-name="Trazado 117294" d="M3086.932,233.275a.441.441,0,0,0,.122.415.88.88,0,0,0,.378.211l.009,0a.193.193,0,1,0,.113-.369.209.209,0,0,0-.07-.008.592.592,0,0,1-.277-.033.258.258,0,0,1-.156-.2l0-.013a.06.06,0,0,0-.117-.006Z" transform="translate(-3086.919 -233.083)" fill="#6b2709"/>
                  </g>
                </g>
              </g>
              <circle id="Elipse_4226" data-name="Elipse 4226" cx="3.348" cy="3.348" r="3.348" transform="translate(3.399 6.02)" fill="#f06c42"/>
            </g>
          </g>
          <g id="Grupo_58422" data-name="Grupo 58422" transform="translate(1.461)">
            <path id="Trazado_117295" data-name="Trazado 117295" d="M3091.511,251.836a6.02,6.02,0,0,1-3.45-1.9,8.272,8.272,0,0,1-1.285-1.757,38.408,38.408,0,0,0,3.754,9.042,5.262,5.262,0,0,1,2.385-1.007v-4.142a3.582,3.582,0,0,1-.667-.1Z" transform="translate(-3085.415 -229.455)" fill="#0e1c39"/>
            <path id="Trazado_117296" data-name="Trazado 117296" d="M3110.3,247.467c-1.926-2.2-4.237-4.207-5.308-6.931-1.583-4.043-.094-8.733-1.359-12.887a10.217,10.217,0,0,0-6.409-6.6,11.793,11.793,0,0,0-6.075-.289,8.052,8.052,0,0,0-4.979,2.793c-1.245,1.684-1.434,3.909-1.409,6,.01.762.04,1.529.1,2.29a2.817,2.817,0,0,0,.179-.373,35.648,35.648,0,0,1,.539-3.863,9.23,9.23,0,0,0,6.922-.833,5.263,5.263,0,0,0,1.92,6.538,6.347,6.347,0,0,1,1.813-1.613,2.07,2.07,0,0,1,2.238.342,2.018,2.018,0,0,1,.214,2.2,4.924,4.924,0,0,1-1.569,1.719,5.27,5.27,0,0,0,1.19,2.887,5.147,5.147,0,0,0,1.457,1.2v6.506a3.234,3.234,0,0,1,.428.04,6.838,6.838,0,0,1,4.118,2.35,5.88,5.88,0,0,1,1.135.737l.1.089c1.514,1.275,3.868,4.949,6.044,8.714a6.262,6.262,0,0,0,1.728-3.112C3113.924,252.511,3112.236,249.673,3110.3,247.467Z" transform="translate(-3084.763 -220.499)" fill="#0e1c39"/>
          </g>
        </g>
      </g>
    </g>
    <g id="Grupo_58463" data-name="Grupo 58463" transform="translate(2905.105 207.279)">
      <g id="Grupo_58462" data-name="Grupo 58462">
        <g id="Grupo_58431" data-name="Grupo 58431" transform="translate(2.728 67.061)">
          <g id="Grupo_58428" data-name="Grupo 58428" transform="translate(13.835 0.001)">
            <g id="Grupo_58426" data-name="Grupo 58426">
              <path id="Trazado_117297" data-name="Trazado 117297" d="M3000.215,429.773h-11.537l-22.013-64.467,1.016-40.646,13.942-4.387,4.646,27.371Z" transform="translate(-2966.664 -320.273)" fill="#10203f"/>
              <path id="Trazado_117298" data-name="Trazado 117298" d="M2991.685,429.773h-3.007l-22.014-64.467,1.016-40.647,13.942-4.387,4.646,27.372h0a83.985,83.985,0,0,0-2.549,55.658Z" transform="translate(-2966.664 -320.273)" fill="#10203f" opacity="0.5" style="mix-blend-mode: multiply;isolation: isolate"/>
            </g>
            <g id="Grupo_58427" data-name="Grupo 58427" transform="translate(22.164 109.502)">
              <path id="Trazado_117299" data-name="Trazado 117299" d="M3000.107,483a6.1,6.1,0,0,0,0,5.655h18.53s.6-1.046,0-1.587-6.735-.708-9.469-4.915h-9.187Z" transform="translate(-2999.43 -482.156)" fill="#e7e7e7"/>
              <rect id="Rectángulo_6997" data-name="Rectángulo 6997" width="19.105" height="0.742" transform="translate(0.371 6.144)" fill="#a0c1c6"/>
            </g>
          </g>
          <g id="Grupo_58430" data-name="Grupo 58430">
            <path id="Trazado_117300" data-name="Trazado 117300" d="M2949.77,321.417s-1.949,7.661-.53,13.556l.466,46.228-3.5,48.575h10.87l14.682-94.056,3.244-15.447Z" transform="translate(-2946.211 -320.272)" fill="#1b335e"/>
            <g id="Grupo_58429" data-name="Grupo 58429" transform="translate(0.339 109.503)">
              <path id="Trazado_117301" data-name="Trazado 117301" d="M2947.39,483a6.1,6.1,0,0,0,0,5.655h18.529s.6-1.046,0-1.587-6.735-.708-9.47-4.915h-9.187Z" transform="translate(-2946.711 -482.156)" fill="#e7e7e7"/>
              <rect id="Rectángulo_6998" data-name="Rectángulo 6998" width="19.105" height="0.742" transform="translate(0.371 6.144)" fill="#a0c1c6"/>
            </g>
          </g>
        </g>
        <g id="Grupo_58448" data-name="Grupo 58448" transform="translate(0 15.256)">
          <g id="Grupo_58435" data-name="Grupo 58435" transform="translate(5.759)">
            <g id="Grupo_58432" data-name="Grupo 58432" transform="translate(9.946)">
              <path id="Trazado_117302" data-name="Trazado 117302" d="M2968.718,258.594c1.941,1.637,4.572,3.927,7.188,4.313a3.527,3.527,0,0,0,3.146-.959c.067-.178.137-.356.206-.534-.362-.545-.742-1.123-1.143-1.768-1.074-1.73-1.964-3.078-3.4-3.86v-12.1h-7.169v11.232c-.676.039-1.4.106-2.152.2A23.278,23.278,0,0,0,2968.718,258.594Z" transform="translate(-2965.395 -243.686)" fill="#feb17d"/>
              <path id="Trazado_117303" data-name="Trazado 117303" d="M2976.665,254.118v2.012a6.392,6.392,0,0,1-.8-.229,8.418,8.418,0,0,1-4.437-3.754,8.1,8.1,0,0,0,2.7,1.613A6.228,6.228,0,0,0,2976.665,254.118Z" transform="translate(-2967.347 -246.423)" fill="#fe8951"/>
            </g>
            <g id="Grupo_58434" data-name="Grupo 58434" transform="translate(0 7.923)">
              <path id="Trazado_117304" data-name="Trazado 117304" d="M2977.4,294.206c-.329,4.631-.607,8.111-.607,8.111s-2.56.528-6.424.911c-.169.016-.339.035-.513.05-5.2.483-12.538.667-19.165-.961l3.43-14.365,1.13-10.287,1.838-16.75a15.211,15.211,0,0,1,5.7-.726s5.552,4.526,7.145,4.142c.005,0,.015,0,.02,0a.872.872,0,0,0,.458-.274c.483-.543.129-1.643-.165-2.336-.154-.358-.293-.607-.293-.607s.1.02.253.07a3.692,3.692,0,0,1,1.419.7,113.959,113.959,0,0,1,6.563,9.59C2978.8,272.631,2978.017,285.463,2977.4,294.206Z" transform="translate(-2950.691 -256.931)" fill="#ff4644"/>
              <path id="Trazado_117305" data-name="Trazado 117305" d="M2968.17,258.854s-.382-3.422.032-3.454,6.1,2.347,6.515,3.2a30.013,30.013,0,0,1,1.023,4.121S2974,263.992,2968.17,258.854Z" transform="translate(-2956.295 -255.4)" fill="#ff824b"/>
              <path id="Trazado_117306" data-name="Trazado 117306" d="M2979.332,263.576l-.221-4.282.04-1.258a6.291,6.291,0,0,1,2.082,1.1c.413.54.276,2.932.276,2.932A2.071,2.071,0,0,1,2979.332,263.576Z" transform="translate(-2959.887 -256.252)" fill="#ff824b"/>
              <g id="Grupo_58433" data-name="Grupo 58433" transform="translate(19.165 7.12)">
                <path id="Trazado_117307" data-name="Trazado 117307" d="M2979.537,305.1c-.169.016-.339.035-.513.05,1.778-9.6.612-30.861.079-38.948.005,0,.016,0,.02,0a.871.871,0,0,0,.458-.274C2980.1,273.793,2981.3,295.273,2979.537,305.1Z" transform="translate(-2979.024 -265.926)" fill="#ff824b"/>
              </g>
              <path id="Trazado_117308" data-name="Trazado 117308" d="M2977.4,302.145c-.329,4.631-.607,8.111-.607,8.111s-2.56.528-6.424.911c-.169.016-.339.035-.513.05-5.2.483-12.538.667-19.165-.961l3.43-14.365,1.13-10.287a16.415,16.415,0,0,1,4.412-.936,18.284,18.284,0,0,0,17.737,17.478Z" transform="translate(-2950.691 -264.87)" fill="#9e1313" opacity="0.5" style="mix-blend-mode: multiply;isolation: isolate"/>
            </g>
          </g>
          <g id="Grupo_58447" data-name="Grupo 58447" transform="translate(0 11.594)">
            <g id="Grupo_58440" data-name="Grupo 58440" transform="translate(24.385 26.064)">
              <path id="Trazado_117309" data-name="Trazado 117309" d="M3015.049,299.358v2.465h-36.822l5.972-2.014,1.335-.451Z" transform="translate(-2978.227 -299.358)" fill="#df7724"/>
              <g id="Grupo_58438" data-name="Grupo 58438" transform="translate(0 2.465)">
                <rect id="Rectángulo_6999" data-name="Rectángulo 6999" width="31.975" height="30.489" transform="translate(0 0)" fill="#ffaf3e"/>
                <g id="Grupo_58437" data-name="Grupo 58437" transform="translate(1.444 23.515)">
                  <g id="Grupo_58436" data-name="Grupo 58436">
                    <rect id="Rectángulo_7000" data-name="Rectángulo 7000" width="13.437" height="1.871" transform="translate(0 2.169)" fill="#df7724"/>
                    <rect id="Rectángulo_7001" data-name="Rectángulo 7001" width="9.015" height="1.361" fill="#df7724"/>
                  </g>
                </g>
                <path id="Trazado_117310" data-name="Trazado 117310" d="M3019.513,308.339a2.445,2.445,0,1,1-2.445-2.445A2.445,2.445,0,0,1,3019.513,308.339Z" transform="translate(-2990.004 -303.938)" fill="#df7724"/>
                <rect id="Rectángulo_7002" data-name="Rectángulo 7002" width="1.444" height="30.489" transform="translate(1.444 30.489) rotate(180)" fill="#ffaf3e" opacity="0.5" style="mix-blend-mode: screen;isolation: isolate"/>
              </g>
              <g id="Grupo_58439" data-name="Grupo 58439" transform="translate(31.976 0)">
                <path id="Trazado_117311" data-name="Trazado 117311" d="M3030.345,299.358v30.149l-4.846,2.807v-30.49l1.3-.657Z" transform="translate(-3025.499 -299.358)" fill="#fc8d31"/>
                <path id="Trazado_117312" data-name="Trazado 117312" d="M3030.345,324.719v5.654l-4.846,2.807v-30.49l1.295-.657a98.7,98.7,0,0,0,.605,13.886,21.92,21.92,0,0,0,1.464,6.369A10.367,10.367,0,0,0,3030.345,324.719Z" transform="translate(-3025.499 -300.223)" fill="#fc8d31" opacity="0.5" style="mix-blend-mode: multiply;isolation: isolate"/>
              </g>
              <path id="Trazado_117313" data-name="Trazado 117313" d="M3017.906,299.358v.342a125.905,125.905,0,0,1-30.849.11l1.335-.451Z" transform="translate(-2981.084 -299.358)" fill="#df7724" opacity="0.5" style="mix-blend-mode: multiply;isolation: isolate"/>
            </g>
            <g id="Grupo_58446" data-name="Grupo 58446">
              <path id="Trazado_117314" data-name="Trazado 117314" d="M2980.506,339.97s2.508.189,2.658-.171-2.345-1.163-2.345-1.163l-2.166-1.429c-1.445-1.723-2.914-3.473-4.381-5.241-.1.066-.2.133-.295.2a30.407,30.407,0,0,1-3.574,2.533c-.457.421-.925.839-1.4,1.248q2.807,2.49,5.719,4.955c.663.95,2.257,2.845,2.257,2.845a5.289,5.289,0,0,0,1.678.038,7.141,7.141,0,0,0,1.749-.158,1.651,1.651,0,0,0,1.312-.436,3.813,3.813,0,0,0,3.06-.382h-1.447Z" transform="translate(-2950.856 -283.845)" fill="#feb17d"/>
              <g id="Grupo_58445" data-name="Grupo 58445">
                <path id="Trazado_117315" data-name="Trazado 117315" d="M2969.885,312.416l-1.075.9-3.8,3.157-.9.747s-20.853-18.593-21.74-21.775c-.374-1.319-.134-3.9.264-6.458a68.993,68.993,0,0,1,2.833-11.348c1.634-4.83,4.367-12.393,6.249-14.764.084-.11.17-.209.249-.294.1-.1.21-.2.314-.3,3.934-3.535,10.138-.15,9.66,5.114a7.546,7.546,0,0,1-.354,1.8l-.493,1.544-.015.035-1.12,3.5L2954.5,292.9Z" transform="translate(-2942.177 -260.826)" fill="#ff4644"/>
                <path id="Trazado_117316" data-name="Trazado 117316" d="M2973.875,317.172l-1.076.9-17.612-21.028,1.359-.931-2.036-3.232,3.391,1.235,7.16-18.588-1.12,3.5-5.448,18.638Z" transform="translate(-2946.168 -265.582)" fill="#9e1313" opacity="0.5" style="mix-blend-mode: multiply;isolation: isolate"/>
                <path id="Trazado_117317" data-name="Trazado 117317" d="M2965.005,317.447l-.9.747s-20.853-18.593-21.74-21.775c-.374-1.319-.134-3.9.264-6.458a68.992,68.992,0,0,1,2.833-11.348c1.634-4.83,4.367-12.393,6.249-14.764-1.8,5.567-9.385,29.348-8.584,32C2943.953,298.58,2961.779,314.569,2965.005,317.447Z" transform="translate(-2942.177 -261.805)" fill="#ff7b41" opacity="0.5" style="mix-blend-mode: screen;isolation: isolate"/>
                <g id="Grupo_58444" data-name="Grupo 58444" transform="translate(11.055 9.91)">
                  <g id="Grupo_58443" data-name="Grupo 58443">
                    <g id="Grupo_58441" data-name="Grupo 58441" transform="translate(0 20.618)">
                      <path id="Trazado_117318" data-name="Trazado 117318" d="M2968.416,318.445c-.9-.977-1.767-1.988-2.623-3s-1.69-2.049-2.52-3.086-1.64-2.089-2.429-3.158l-1.182-1.6c-.38-.546-.773-1.082-1.141-1.637.457.486.887.991,1.333,1.485l1.291,1.518c.86,1.013,1.69,2.049,2.519,3.086s1.639,2.089,2.428,3.158S2967.672,317.341,2968.416,318.445Z" transform="translate(-2958.521 -305.957)" fill="#aa1413"/>
                    </g>
                    <g id="Grupo_58442" data-name="Grupo 58442" transform="translate(1.398)">
                      <path id="Trazado_117319" data-name="Trazado 117319" d="M2967.042,275.476c-.439,1.874-.931,3.733-1.431,5.589s-1.04,3.7-1.558,5.552c-.556,1.84-1.092,3.686-1.668,5.52l-.873,2.748c-.308.911-.6,1.827-.924,2.734.214-.939.461-1.868.689-2.8l.74-2.788c.5-1.856,1.04-3.7,1.559-5.552.558-1.839,1.093-3.686,1.669-5.52S2966.405,277.292,2967.042,275.476Z" transform="translate(-2960.588 -275.476)" fill="#aa1413"/>
                    </g>
                  </g>
                </g>
              </g>
            </g>
          </g>
        </g>
        <g id="Grupo_58461" data-name="Grupo 58461" transform="translate(14.456)">
          <g id="Grupo_58459" data-name="Grupo 58459" transform="translate(0.454 1.628)">
            <g id="Grupo_58458" data-name="Grupo 58458">
              <path id="Trazado_117320" data-name="Trazado 117320" d="M2983.263,236.191a6.122,6.122,0,0,0-1.042-1.829,5.879,5.879,0,0,1-.67-1.143,27.093,27.093,0,0,0-1.538-7.465c-.728-1.437-4.652-2.731-8.511-2.007-3.863.7-7.063,3.308-7.232,4.912-.064.609-.353,3.041,1.709,9.019a13.033,13.033,0,0,0,2.675,4.8,8.365,8.365,0,0,0,3.143,2.029,5.752,5.752,0,0,0,3.2.26l.735-.136a6.023,6.023,0,0,0,3.453-1.9,8.845,8.845,0,0,0,1.66-2.5,9.218,9.218,0,0,0,.669-2.608,2.406,2.406,0,0,0,1.469-.518A.875.875,0,0,0,2983.263,236.191Z" transform="translate(-2964.22 -223.539)" fill="#feb17d"/>
              <g id="Grupo_58457" data-name="Grupo 58457" transform="translate(4.309 7.171)">
                <g id="Grupo_58456" data-name="Grupo 58456">
                  <g id="Grupo_58449" data-name="Grupo 58449" transform="translate(0 3.277)">
                    <path id="Trazado_117321" data-name="Trazado 117321" d="M2970.836,240.978a1.967,1.967,0,0,1-.216-.712,1.218,1.218,0,0,1,.229-1.1.837.837,0,0,1,.778-.149,1.681,1.681,0,0,1,.693.436,2.474,2.474,0,0,1,.579.807,3.813,3.813,0,0,1,.186,1.582" transform="translate(-2970.591 -238.985)" fill="none" stroke="#fe8951" stroke-miterlimit="10" stroke-width="0.558"/>
                    <path id="Trazado_117322" data-name="Trazado 117322" d="M2972.662,242.4a1.567,1.567,0,0,1-.407-1.092,1.28,1.28,0,0,1,.185-.77.636.636,0,0,1,.7-.27" transform="translate(-2971.129 -239.39)" fill="none" stroke="#fe8951" stroke-miterlimit="10" stroke-width="0.558"/>
                  </g>
                  <g id="Grupo_58450" data-name="Grupo 58450" transform="translate(9.374 6.543)">
                    <path id="Trazado_117323" data-name="Trazado 117323" d="M2985.176,246.2a2.3,2.3,0,0,0,1.1.511" transform="translate(-2984.684 -244.588)" fill="none" stroke="#fe8951" stroke-linecap="round" stroke-linejoin="round" stroke-width="0.279"/>
                    <path id="Trazado_117324" data-name="Trazado 117324" d="M2984.449,243.814a3.441,3.441,0,0,0,3.136,1.7" transform="translate(-2984.449 -243.814)" fill="none" stroke="#fe8951" stroke-linecap="round" stroke-linejoin="round" stroke-width="0.558"/>
                  </g>
                  <g id="Grupo_58451" data-name="Grupo 58451" transform="translate(11.4 6.463)">
                    <path id="Trazado_117325" data-name="Trazado 117325" d="M2987.443,243.695a2.049,2.049,0,0,1,.515.329" transform="translate(-2987.443 -243.695)" fill="none" stroke="#fe8951" stroke-linecap="round" stroke-linejoin="round" stroke-width="0.558"/>
                  </g>
                  <g id="Grupo_58453" data-name="Grupo 58453" transform="translate(9.43 2.692)">
                    <g id="Grupo_58452" data-name="Grupo 58452">
                      <path id="Trazado_117326" data-name="Trazado 117326" d="M2985.993,239.1c0,.54-.327.978-.73.978s-.731-.438-.731-.978.328-.978.731-.978S2985.993,238.559,2985.993,239.1Z" transform="translate(-2984.531 -238.121)" fill="#6b2709"/>
                    </g>
                  </g>
                  <g id="Grupo_58455" data-name="Grupo 58455" transform="translate(7.625)">
                    <g id="Grupo_58454" data-name="Grupo 58454">
                      <path id="Trazado_117327" data-name="Trazado 117327" d="M2985.427,234.964a6.76,6.76,0,0,0-.815-.028,6.218,6.218,0,0,0-.837.071,4.994,4.994,0,0,0-.825.2,7.192,7.192,0,0,0-.807.329l-.012.005a.19.19,0,0,1-.206-.313,3.784,3.784,0,0,1,.783-.569,3.988,3.988,0,0,1,.909-.369,3.82,3.82,0,0,1,.977-.15,3.327,3.327,0,0,1,1.005.119.362.362,0,0,1-.131.708Z" transform="translate(-2981.863 -234.141)" fill="#6b2709"/>
                      <path id="Trazado_117328" data-name="Trazado 117328" d="M2987.722,234.4a.439.439,0,0,1-.122.415.874.874,0,0,1-.377.212l-.01,0a.193.193,0,1,1-.042-.377.593.593,0,0,0,.277-.034.261.261,0,0,0,.1-.076.269.269,0,0,0,.054-.124l0-.013a.059.059,0,0,1,.068-.049A.06.06,0,0,1,2987.722,234.4Z" transform="translate(-2983.513 -234.211)" fill="#6b2709"/>
                    </g>
                  </g>
                </g>
                <path id="Trazado_117329" data-name="Trazado 117329" d="M2980.857,246.388a3.348,3.348,0,1,1-3.348-3.348A3.348,3.348,0,0,1,2980.857,246.388Z" transform="translate(-2971.746 -237.02)" fill="#fea96d"/>
              </g>
            </g>
            <path id="Trazado_117330" data-name="Trazado 117330" d="M2973.855,229.406a8.766,8.766,0,0,1-1.9,6.39,2.91,2.91,0,0,0-1.961-2.325,1.657,1.657,0,0,0-1.5.154,1.765,1.765,0,0,0-.479,1.747,3.547,3.547,0,0,0,1.958,2.5,10.332,10.332,0,0,1-.846,2.041,3.132,3.132,0,0,1-1.415,1.5,11.654,11.654,0,0,1-2.816-7.906c.061-1.523-.363-3.179.242-4.577a7.964,7.964,0,0,1,2.96-3.4,12.879,12.879,0,0,1,4.211-1.72,4.945,4.945,0,0,1,1.4-.169,2.015,2.015,0,0,1,1.289.514,2.347,2.347,0,0,1,.591,1.661A4.338,4.338,0,0,1,2973.855,229.406Z" transform="translate(-2964.41 -223.571)" fill="#6b2709"/>
          </g>
          <g id="Grupo_58460" data-name="Grupo 58460">
            <path id="Trazado_117331" data-name="Trazado 117331" d="M2971.1,222.441s-.6-.381-.085-.8,1.494-.328,1.345.339Z" transform="translate(-2965.895 -221.212)" fill="#ff824b"/>
            <path id="Trazado_117332" data-name="Trazado 117332" d="M2964.47,234.136s-3.051-6.313,1.949-10.382,12.967-2.754,14.4,2.755l-5.631,3.093Z" transform="translate(-2963.548 -221.212)" fill="#ff4644"/>
            <path id="Trazado_117333" data-name="Trazado 117333" d="M2972.44,221.918s5.967,3.123,5.49,7.636l6.96-2.861S2981.823,218.636,2972.44,221.918Z" transform="translate(-2966.426 -221.132)" fill="#e42827"/>
            <path id="Trazado_117334" data-name="Trazado 117334" d="M2963.669,235.641a.928.928,0,0,1,1.027-.112,1.28,1.28,0,0,1,.647.842l.183.7-1.4.614A6.732,6.732,0,0,1,2963.669,235.641Z" transform="translate(-2963.587 -225.756)" fill="#6b2709"/>
            <path id="Trazado_117335" data-name="Trazado 117335" d="M2974.312,232.9s10.138-4.136,10.148-5.617c0,0,4.8-1.947,6.452.151s-18,6.06-18,6.06Z" transform="translate(-2966.577 -222.856)" fill="#ff824b"/>
          </g>
        </g>
      </g>
    </g>
  </g>
</svg>
