<svg xmlns="http://www.w3.org/2000/svg" width="387" height="238" viewBox="0 0 387 238">
  <g id="Grupo_60377" data-name="Grupo 60377" transform="translate(-1020 -1108)">
    <g id="Grupo_60142" data-name="Grupo 60142" transform="translate(741.225 923.462)">
      <path id="Trazado_120276" data-name="Trazado 120276" d="M622.068,275.246c-2.471-39.922-27.55-71.868-69.348-73.424a92.61,92.61,0,0,0-36.054,6.25c-14.957,5.621-27.906,15.617-43.255,20.318-21.4,6.554-43.214,4.344-65.247,4.872-15.023.36-30.27,2.039-44.109,7.9-57.842,24.477-50.85,99.68-32.119,147.745q1.362,3.495,2.838,6.952H591.55C611.7,358.895,624.538,315.154,622.068,275.246Z" transform="translate(0)" fill="#fff" opacity="0.2"/>
      <g id="Grupo_60092" data-name="Grupo 60092" transform="translate(367.336 237.863)" opacity="0.5">
        <rect id="Rectángulo_7289" data-name="Rectángulo 7289" width="30.961" height="40.712" transform="translate(0 117.28)" fill="#a0a603"/>
        <rect id="Rectángulo_7290" data-name="Rectángulo 7290" width="31.131" height="55.423" transform="translate(53.371 102.568)" fill="#a0a603"/>
        <rect id="Rectángulo_7291" data-name="Rectángulo 7291" width="32.592" height="73.345" transform="translate(106.241 84.647)" fill="#a0a603"/>
        <rect id="Rectángulo_7292" data-name="Rectángulo 7292" width="34.131" height="96.676" transform="translate(162.871 61.316)" fill="#a0a603"/>
        <g id="Grupo_60091" data-name="Grupo 60091" transform="translate(1.447 0)">
          <g id="Grupo_60089" data-name="Grupo 60089" transform="translate(0 4.362)">
            <path id="Trazado_120277" data-name="Trazado 120277" d="M719.7,605.845l-.1-6.025c8.916-.148,33.25-2.452,61.528-10.1a311.526,311.526,0,0,0,59.033-22.5,271.483,271.483,0,0,0,62.054-42.846l4.093,4.422a277.528,277.528,0,0,1-63.538,43.857,317.634,317.634,0,0,1-60.254,22.935C746.5,605.309,720.782,605.828,719.7,605.845Z" transform="translate(-719.607 -524.369)" fill="#a0a603"/>
          </g>
          <g id="Grupo_60090" data-name="Grupo 60090" transform="translate(171.88)">
            <path id="Trazado_120278" data-name="Trazado 120278" d="M2108.712,508.213l-18.625-18.624h18.625Z" transform="translate(-2090.088 -489.589)" fill="#a0a603"/>
          </g>
        </g>
      </g>
      <g id="Grupo_60101" data-name="Grupo 60101" transform="translate(484.499 245.81)">
        <g id="Grupo_60093" data-name="Grupo 60093" transform="translate(0 0)">
          <path id="Trazado_120279" data-name="Trazado 120279" d="M1676.819,567.311l-6.934-4.267c-.057-.28-.122-.56-.2-.839a10.715,10.715,0,0,0-20.914,4.424l-4.977,6.086a.122.122,0,0,0,.13.193l6.425-1.986a10.716,10.716,0,0,0,19.392-3.007l7-.31A.158.158,0,0,0,1676.819,567.311Z" transform="translate(-1643.576 -554.255)" fill="#fff"/>
          <path id="Trazado_120280" data-name="Trazado 120280" d="M1658.062,574.769a10.823,10.823,0,0,1-3.918-.738,11,11,0,0,1-5.188-4.189l-6.288,1.944a.31.31,0,0,1-.331-.492l4.925-6.023a10.9,10.9,0,0,1,21.292-4.42c.068.236.13.49.189.774l6.865,4.225a.347.347,0,0,1-.166.641l-6.867.3a10.931,10.931,0,0,1-10.511,7.973Zm-8.944-5.37.077.121a10.586,10.586,0,0,0,11.781,4.459,10.453,10.453,0,0,0,7.271-7.414l.036-.133,7.045-.312-6.921-4.259-.016-.08c-.062-.306-.127-.576-.2-.825a10.527,10.527,0,0,0-20.547,4.346l.011.082-4.889,5.979Z" transform="translate(-1642.266 -552.955)" fill="#5254cf"/>
        </g>
        <g id="Grupo_60100" data-name="Grupo 60100" transform="translate(9.928 2.723)">
          <g id="Grupo_60094" data-name="Grupo 60094" transform="translate(2.963 4.473)">
            <path id="Trazado_120281" data-name="Trazado 120281" d="M1752.193,614.655a2.822,2.822,0,1,0-5.15,1.589,1.311,1.311,0,0,1,.227.743v1.744h4.2v-1.744a1.292,1.292,0,0,1,.222-.736A2.8,2.8,0,0,0,1752.193,614.655Z" transform="translate(-1746.361 -611.646)" fill="#fff"/>
            <path id="Trazado_120282" data-name="Trazado 120282" d="M1750.353,617.611h-4.58v-1.932a1.119,1.119,0,0,0-.194-.637,3.01,3.01,0,1,1,4.962.008,1.1,1.1,0,0,0-.188.629Zm-4.2-.376h3.828v-1.555a1.473,1.473,0,0,1,.255-.843,2.611,2.611,0,0,0,.465-1.49,2.634,2.634,0,1,0-4.807,1.483,1.5,1.5,0,0,1,.26.849Z" transform="translate(-1745.053 -610.337)" fill="#5254cf"/>
          </g>
          <g id="Grupo_60095" data-name="Grupo 60095" transform="translate(3.683 12.567)">
            <rect id="Rectángulo_7293" data-name="Rectángulo 7293" width="4.204" height="1.55" transform="translate(0.188 0.188)" fill="#fff"/>
            <path id="Trazado_120283" data-name="Trazado 120283" d="M1755.37,676.795h-4.58v-1.926h4.58Zm-4.2-.376h3.827v-1.174h-3.827Z" transform="translate(-1750.79 -674.869)" fill="#5254cf"/>
          </g>
          <g id="Grupo_60096" data-name="Grupo 60096" transform="translate(4.261 6.134)">
            <path id="Trazado_120284" data-name="Trazado 120284" d="M1757.41,624.833a1.243,1.243,0,0,0-.407,1.536" transform="translate(-1756.702 -624.676)" fill="#fff"/>
            <path id="Trazado_120285" data-name="Trazado 120285" d="M1755.526,625.343a1.426,1.426,0,0,1,.479-1.765l.206.315-.1-.157.1.157a1.054,1.054,0,0,0-.337,1.309Z" transform="translate(-1755.399 -623.578)" fill="#5254cf"/>
          </g>
          <g id="Grupo_60097" data-name="Grupo 60097" transform="translate(0 2.909)">
            <line id="Línea_452" data-name="Línea 452" x1="2.414" y1="1.724" transform="translate(0.109 0.153)" fill="#fff"/>
            <rect id="Rectángulo_7294" data-name="Rectángulo 7294" width="0.376" height="2.967" transform="translate(0 0.306) rotate(-54.462)" fill="#5254cf"/>
          </g>
          <g id="Grupo_60098" data-name="Grupo 60098" transform="translate(9.124 2.752)">
            <line id="Línea_453" data-name="Línea 453" y1="1.724" x2="2.414" transform="translate(0.109 0.153)" fill="#fff"/>
            <rect id="Rectángulo_7295" data-name="Rectángulo 7295" width="2.967" height="0.376" transform="translate(0 1.725) rotate(-35.541)" fill="#5254cf"/>
          </g>
          <g id="Grupo_60099" data-name="Grupo 60099" transform="translate(5.718 0)">
            <line id="Línea_454" data-name="Línea 454" y1="2.965" x2="0.095" transform="translate(0.188 0.006)" fill="#fff"/>
            <rect id="Rectángulo_7296" data-name="Rectángulo 7296" width="2.967" height="0.376" transform="translate(0 2.965) rotate(-88.172)" fill="#5254cf"/>
          </g>
        </g>
      </g>
      <g id="Grupo_60104" data-name="Grupo 60104" transform="translate(414.584 260.244)">
        <g id="Grupo_60102" data-name="Grupo 60102" transform="translate(0)">
          <path id="Trazado_120286" data-name="Trazado 120286" d="M1097.867,669.542a8.336,8.336,0,0,0-7.915,10.987l-3.636,4.416a.088.088,0,0,0,.1.138l4.886-2.045a8.327,8.327,0,0,0,6.563,3.2,8.47,8.47,0,0,0,7.225-4.164,8.035,8.035,0,0,0,1.123-4.184A8.348,8.348,0,0,0,1097.867,669.542Z" transform="translate(-1086.107 -669.354)" fill="#fff"/>
          <path id="Trazado_120287" data-name="Trazado 120287" d="M1096.557,685.114a8.486,8.486,0,0,1-6.621-3.159l-4.755,1.99a.277.277,0,0,1-.32-.431l3.57-4.336a8.533,8.533,0,1,1,8.126,5.936Zm-6.5-3.617.089.113a8.173,8.173,0,1,0-1.322-2.452l.033.1-3.446,4.186Z" transform="translate(-1084.798 -668.042)" fill="#5254cf"/>
        </g>
        <g id="Grupo_60103" data-name="Grupo 60103" transform="translate(8.983 4.375)">
          <path id="Trazado_120288" data-name="Trazado 120288" d="M1157.5,708.14l2.383,2.446,2.947-7.086" transform="translate(-1157.365 -703.428)" fill="#fff"/>
          <path id="Trazado_120289" data-name="Trazado 120289" d="M1159.008,710.417l-2.582-2.65.269-.263,2.184,2.241,2.838-6.823.347.145Z" transform="translate(-1156.426 -702.924)" fill="#5254cf"/>
        </g>
      </g>
      <g id="Grupo_60105" data-name="Grupo 60105" transform="translate(572.424 265.004)">
        <path id="Trazado_120290" data-name="Trazado 120290" d="M2365.991,717.36a11.329,11.329,0,1,1-11.445-11.327c-.038,1.233-.076,2.681-.106,4.125a7.206,7.206,0,1,0,7.426,7.2,7.05,7.05,0,0,0-.363-2.246l3.939-1.233A11.154,11.154,0,0,1,2365.991,717.36Z" transform="translate(-2343.333 -706.029)" fill="#c3c761"/>
        <path id="Trazado_120291" data-name="Trazado 120291" d="M2442.9,713.853l-3.939,1.233a7.192,7.192,0,0,0-6.844-4.961c-.072,0-.148,0-.219,0,.03-1.444.067-2.892.105-4.125a1.047,1.047,0,0,1,.114,0A11.332,11.332,0,0,1,2442.9,713.853Z" transform="translate(-2420.791 -706)" fill="#a1a44c"/>
      </g>
      <g id="Grupo_60112" data-name="Grupo 60112" transform="translate(330.462 334.317)">
        <g id="Grupo_60107" data-name="Grupo 60107" transform="translate(9.765 25.015)">
          <circle id="Elipse_4755" data-name="Elipse 4755" cx="8.738" cy="8.738" r="8.738" fill="#c3c761"/>
          <g id="Grupo_60106" data-name="Grupo 60106" transform="translate(5.618 3.03)">
            <path id="Trazado_120292" data-name="Trazado 120292" d="M539.086,1493.693v-1.328a5.635,5.635,0,0,1-2.379-.6l.42-1.637a4.946,4.946,0,0,0,2.322.615c.8,0,1.343-.308,1.343-.867,0-.532-.448-.868-1.483-1.218-1.5-.5-2.519-1.2-2.519-2.56a2.585,2.585,0,0,1,2.365-2.49v-1.33h1.371v1.232a5.049,5.049,0,0,1,2.029.461l-.406,1.581a4.64,4.64,0,0,0-2.015-.476c-.91,0-1.2.392-1.2.784,0,.461.49.755,1.679,1.2,1.665.588,2.337,1.357,2.337,2.617a2.682,2.682,0,0,1-2.49,2.588v1.426Z" transform="translate(-536.707 -1482.277)" fill="#fff"/>
          </g>
        </g>
        <g id="Grupo_60109" data-name="Grupo 60109" transform="translate(0 12.157)">
          <circle id="Elipse_4756" data-name="Elipse 4756" cx="4.596" cy="4.596" r="4.596" fill="#c3c761"/>
          <g id="Grupo_60108" data-name="Grupo 60108" transform="translate(2.955 1.594)">
            <path id="Trazado_120293" data-name="Trazado 120293" d="M438.863,1374.314v-.7a2.964,2.964,0,0,1-1.251-.317l.221-.861a2.6,2.6,0,0,0,1.222.324c.419,0,.707-.162.707-.456s-.236-.457-.78-.641c-.788-.265-1.325-.633-1.325-1.347a1.36,1.36,0,0,1,1.244-1.31v-.7h.721v.648a2.66,2.66,0,0,1,1.067.243l-.213.832a2.44,2.44,0,0,0-1.06-.251c-.479,0-.633.206-.633.412,0,.243.258.4.883.633.876.309,1.229.714,1.229,1.377a1.411,1.411,0,0,1-1.31,1.362v.75Z" transform="translate(-437.612 -1368.309)" fill="#c3c761"/>
          </g>
        </g>
        <g id="Grupo_60111" data-name="Grupo 60111" transform="translate(18.813)">
          <circle id="Elipse_4757" data-name="Elipse 4757" cx="4.596" cy="4.596" r="4.596" fill="#c3c761"/>
          <g id="Grupo_60110" data-name="Grupo 60110" transform="translate(2.955 1.594)">
            <path id="Trazado_120294" data-name="Trazado 120294" d="M588.866,1277.38v-.7a2.964,2.964,0,0,1-1.251-.317l.221-.861a2.6,2.6,0,0,0,1.222.324c.42,0,.707-.162.707-.456s-.235-.457-.78-.641c-.788-.265-1.325-.633-1.325-1.347a1.36,1.36,0,0,1,1.244-1.31v-.7h.721v.648a2.658,2.658,0,0,1,1.067.243l-.213.832a2.44,2.44,0,0,0-1.06-.251c-.479,0-.633.206-.633.412,0,.243.258.4.883.633.876.309,1.229.714,1.229,1.377a1.411,1.411,0,0,1-1.31,1.362v.75Z" transform="translate(-587.615 -1271.374)" fill="#fff"/>
          </g>
        </g>
      </g>
      <g id="Grupo_60117" data-name="Grupo 60117" transform="translate(574.934 314.691)">
        <g id="Grupo_60114" data-name="Grupo 60114" transform="translate(0 25.158)">
          <circle id="Elipse_4758" data-name="Elipse 4758" cx="9.302" cy="9.302" r="9.302" fill="#c3c761"/>
          <g id="Grupo_60113" data-name="Grupo 60113" transform="translate(5.981 3.225)">
            <path id="Trazado_120295" data-name="Trazado 120295" d="M2413.569,1340.645v-1.414a6,6,0,0,1-2.532-.64l.447-1.743a5.264,5.264,0,0,0,2.472.655c.849,0,1.43-.328,1.43-.923,0-.566-.477-.924-1.578-1.3-1.594-.536-2.682-1.281-2.682-2.725a2.752,2.752,0,0,1,2.517-2.651v-1.416h1.46v1.311a5.374,5.374,0,0,1,2.16.491l-.432,1.683a4.944,4.944,0,0,0-2.145-.507c-.968,0-1.281.417-1.281.834,0,.491.522.8,1.788,1.281,1.772.626,2.488,1.444,2.488,2.786a2.855,2.855,0,0,1-2.651,2.755v1.518Z" transform="translate(-2411.037 -1328.491)" fill="#fff"/>
          </g>
        </g>
        <g id="Grupo_60116" data-name="Grupo 60116" transform="translate(7.951 0)">
          <path id="Trazado_120377" data-name="Trazado 120377" d="M5.691,0A5.691,5.691,0,1,1,0,5.691,5.691,5.691,0,0,1,5.691,0Z" transform="translate(0 8.049) rotate(-45)" fill="#c3c761"/>
          <g id="Grupo_60115" data-name="Grupo 60115" transform="translate(6.016 4.331)">
            <path id="Trazado_120296" data-name="Trazado 120296" d="M2476.273,1144.145v-.865a3.671,3.671,0,0,1-1.549-.392l.273-1.066a3.22,3.22,0,0,0,1.513.4c.519,0,.875-.2.875-.565,0-.346-.292-.566-.966-.793-.975-.328-1.641-.784-1.641-1.667a1.684,1.684,0,0,1,1.54-1.622v-.866h.893v.8a3.288,3.288,0,0,1,1.321.3l-.264,1.03a3.026,3.026,0,0,0-1.312-.31c-.592,0-.784.255-.784.51,0,.3.319.492,1.094.784,1.084.383,1.522.884,1.522,1.7a1.747,1.747,0,0,1-1.622,1.686v.929Z" transform="translate(-2474.724 -1136.709)" fill="#fff"/>
          </g>
        </g>
      </g>
      <g id="Grupo_60125" data-name="Grupo 60125" transform="translate(454.911 262.116)">
        <g id="Grupo_60118" data-name="Grupo 60118" transform="translate(3.061)">
          <path id="Trazado_120297" data-name="Trazado 120297" d="M1571.8,739.536c.146.073,2.222,2.368,1.311,2.8a4.331,4.331,0,0,1-2.149.255Z" transform="translate(-1553.379 -732.442)" fill="#d28572"/>
          <path id="Trazado_120298" data-name="Trazado 120298" d="M1487.283,778.52l-2.523,7.419,6.7,3.527,1.736-9.883-5.907-1.063Z" transform="translate(-1477.987 -766.536)" fill="#ffbc96"/>
          <path id="Trazado_120299" data-name="Trazado 120299" d="M1523,785.1l-.883,5.273a19.562,19.562,0,0,1-3.12-5.865l1.239-.07Z" transform="translate(-1507.932 -771.714)" fill="#d28572"/>
          <path id="Trazado_120300" data-name="Trazado 120300" d="M1513.982,700.179s1.5,10.4-1.383,11.187-7.7-2.887-7.7-2.887l1.443-8.661,4.21-1.383Z" transform="translate(-1495.601 -696.495)" fill="#ffbc96"/>
          <path id="Trazado_120301" data-name="Trazado 120301" d="M1508.53,686.653s-2.707-1.083-4.511,3.549l-.9,1.564-4.451-.481.722-5.654,3.909-1.925S1507.688,680.759,1508.53,686.653Z" transform="translate(-1490.149 -682.969)" fill="#1b1b43"/>
          <path id="Trazado_120302" data-name="Trazado 120302" d="M1482.532,691.1s-2.265-1.624-5.874,1.985-1.764,10.786,2.085,10.706c3.752-.078,2.706-3.789,2.466-4.451S1482.532,691.1,1482.532,691.1Z" transform="translate(-1469.203 -689.761)" fill="#1b1b43"/>
          <ellipse id="Elipse_4760" data-name="Elipse 4760" cx="1.733" cy="1.977" rx="1.733" ry="1.977" transform="matrix(0.866, -0.5, 0.5, 0.866, 10.343, 7.628)" fill="#ffbc96"/>
          <path id="Trazado_120303" data-name="Trazado 120303" d="M1528.573,745.516a1.492,1.492,0,0,0-.383-.973,1,1,0,0,0-.791-.219l-.034-.375a1.353,1.353,0,0,1,1.08.318,1.853,1.853,0,0,1,.5,1.249h-.376Z" transform="translate(-1515.247 -736.294)" fill="#1b1b43"/>
          <circle id="Elipse_4761" data-name="Elipse 4761" cx="1.442" cy="1.442" r="1.442" transform="translate(14.673 8.093)" fill="#fe5b52" opacity="0.4"/>
          <circle id="Elipse_4762" data-name="Elipse 4762" cx="3.248" cy="3.248" r="3.248" transform="translate(0 6.471) rotate(-74.068)" fill="#1b1b43"/>
        </g>
        <g id="Grupo_60121" data-name="Grupo 60121" transform="translate(2.068 55.836)">
          <g id="Grupo_60119" data-name="Grupo 60119" transform="translate(3.677 64.905)">
            <path id="Trazado_120304" data-name="Trazado 120304" d="M1459.917,1651.3a47.2,47.2,0,0,1-.895-5.6l-6.875.424.168,4.452a17.32,17.32,0,0,0,8.727,2.974A6.491,6.491,0,0,1,1459.917,1651.3Z" transform="translate(-1452.148 -1645.693)" fill="#d28572"/>
            <path id="Trazado_120305" data-name="Trazado 120305" d="M1466.5,1691.465c-.865-.944-2.922-2.1-4.29-3.923a17.319,17.319,0,0,1-8.727-2.974l.3,8.026h1.365l.753-3.814s4.568,3.673,7.769,3.861S1467.021,1692.03,1466.5,1691.465Z" transform="translate(-1453.319 -1679.693)" fill="#1b1b43"/>
          </g>
          <path id="Trazado_120306" data-name="Trazado 120306" d="M1423.308,1128.177c-1.6,1.39,1.271,51.7,2.26,66.958l9.464-.141-1.554-64.839Z" transform="translate(-1422.833 -1128.177)" fill="#1b1b43"/>
          <g id="Grupo_60120" data-name="Grupo 60120" transform="translate(10.033 64.905)">
            <path id="Trazado_120307" data-name="Trazado 120307" d="M1510.6,1651.3a47.212,47.212,0,0,1-.895-5.6l-6.875.424.168,4.452a17.318,17.318,0,0,0,8.727,2.974A6.493,6.493,0,0,1,1510.6,1651.3Z" transform="translate(-1502.833 -1645.693)" fill="#ffbc96"/>
            <path id="Trazado_120308" data-name="Trazado 120308" d="M1517.188,1691.465c-.865-.944-2.922-2.1-4.29-3.923a17.319,17.319,0,0,1-8.727-2.974l.3,8.026h1.366l.753-3.814s4.568,3.673,7.77,3.861S1517.706,1692.03,1517.188,1691.465Z" transform="translate(-1504.004 -1679.693)" fill="#1b1b43"/>
          </g>
          <path id="Trazado_120309" data-name="Trazado 120309" d="M1451.4,1134.935l5.343,66.1,9.913.29s.424-53.255-1.836-65.545Z" transform="translate(-1447.814 -1134.087)" fill="#5254cf"/>
          <path id="Trazado_120310" data-name="Trazado 120310" d="M1544.15,1380.152l-.068,0-.986-.082.031-.375.986.082a.425.425,0,1,0,.042-.848l-3.179-.05.006-.376,3.179.05a.8.8,0,0,1-.011,1.6Z" transform="translate(-1526.16 -1347.106)" fill="#1b1b43"/>
        </g>
        <g id="Grupo_60124" data-name="Grupo 60124" transform="translate(0 14.659)">
          <path id="Trazado_120311" data-name="Trazado 120311" d="M1490.068,802.793l.659-2.943a33.9,33.9,0,0,1,5.2,3.039,3.76,3.76,0,0,1,1.462,2.718l.186,2.648-5.65-1.554Z" transform="translate(-1479.567 -799.85)" fill="#fed3d1"/>
          <path id="Trazado_120312" data-name="Trazado 120312" d="M1721.649,1029.414a10.938,10.938,0,0,1-7.345-3.014l-.094-4.85,8.287.659,2.307,2.166Z" transform="translate(-1675.598 -993.746)" fill="#d28572"/>
          <path id="Trazado_120313" data-name="Trazado 120313" d="M1616.217,1020.5s3.531-.8,3.861-7.581l-3.108,2.448Z" transform="translate(-1589.896 -986.194)" fill="#1b1b43"/>
          <path id="Trazado_120314" data-name="Trazado 120314" d="M1416.843,823.315l5.133,2.657a7.149,7.149,0,0,1,3.694,4.781c1.448,6.455,4.064,21.583,1.438,38.048a47.945,47.945,0,0,1-20.765-6.4l3.982-30.118a10.376,10.376,0,0,1,3.712-6.667Z" transform="translate(-1406.343 -820.372)" fill="#fe5b52"/>
          <path id="Trazado_120315" data-name="Trazado 120315" d="M1592.109,1011.789l9.283.412a6.237,6.237,0,0,1,2.7.736,21,21,0,0,1,3.7,2.571,1.9,1.9,0,0,1,.405,2.375h0a1.9,1.9,0,0,1-.451.536l-1.134.927a1.9,1.9,0,0,1-.309.206l-1.618.863a1.841,1.841,0,0,1-.792.221,5.545,5.545,0,0,1-4.347-1.808l-11.866-1.342,1.978-4.45Z" transform="translate(-1564.94 -985.208)" fill="#ffbc96"/>
          <path id="Trazado_120316" data-name="Trazado 120316" d="M1702.911,1013.375l-5.6-1.844a1.624,1.624,0,0,0-.837-.048c-1.333.275-5.258,1.185-4.583,2.246.494.777,4.426-.447,4.426-.447Z" transform="translate(-1656.013 -984.911)" fill="#d28572"/>
          <g id="Grupo_60122" data-name="Grupo 60122" transform="translate(33.078 31.41)">
            <path id="Trazado_120317" data-name="Trazado 120317" d="M1670.423,1052.925h0a.756.756,0,0,1-.2-1.052l.854-1.25a.757.757,0,0,1,1.052-.2h0a.757.757,0,0,1,.2,1.052l-.854,1.25A.757.757,0,0,1,1670.423,1052.925Z" transform="translate(-1670.093 -1050.293)" fill="#d28572"/>
            <path id="Trazado_120318" data-name="Trazado 120318" d="M1679.014,1055.019h0a.757.757,0,0,1-.2-1.052l1.14-1.668a.757.757,0,0,1,1.052-.2h0a.757.757,0,0,1,.2,1.052l-1.14,1.668A.757.757,0,0,1,1679.014,1055.019Z" transform="translate(-1677.607 -1051.759)" fill="#d28572"/>
            <path id="Trazado_120319" data-name="Trazado 120319" d="M1689.429,1062.741h0a.757.757,0,0,1-.2-1.052l.854-1.25a.757.757,0,0,1,1.052-.2h0a.757.757,0,0,1,.2,1.052l-.854,1.25A.757.757,0,0,1,1689.429,1062.741Z" transform="translate(-1686.716 -1058.878)" fill="#d28572"/>
            <rect id="Rectángulo_7297" data-name="Rectángulo 7297" width="1.327" height="2.353" rx="0.664" transform="matrix(0.826, 0.564, -0.564, 0.826, 4.671, 2.045)" fill="#d28572"/>
          </g>
          <path id="Trazado_120320" data-name="Trazado 120320" d="M1492.618,865.729s3.3-1.883,4.144,16.292l11.018,2.119a20.222,20.222,0,0,0-3.861,7.581l-9.383-1.008a6.172,6.172,0,0,1-3.506-1.582h0a6.173,6.173,0,0,1-1.99-4.083l-1.225-15.929Z" transform="translate(-1477.597 -857.418)" fill="#fe5b52"/>
          <path id="Trazado_120321" data-name="Trazado 120321" d="M1505.248,916.506l-9.977-1.019a6.243,6.243,0,0,1-5.6-5.943l-.5-11.632.376-.016.5,11.632a5.867,5.867,0,0,0,5.266,5.585l9.647.985a17.515,17.515,0,0,1,3.64-7.256l-10.819-2.081-1.919-12.927.372-.055,1.88,12.663,11.236,2.161-.252.251a16.688,16.688,0,0,0-3.81,7.49Z" transform="translate(-1478.78 -882)" fill="#1b1b43"/>
          <rect id="Rectángulo_7298" data-name="Rectángulo 7298" width="0.376" height="6.348" transform="translate(11.955 36.907) rotate(-77.062)" fill="#1b1b43"/>
          <g id="Grupo_60123" data-name="Grupo 60123" transform="translate(38.697 30.226)">
            <path id="Trazado_120322" data-name="Trazado 120322" d="M1732.132,1043.757l-1.172-2.1-1.157-.578.112-.224,1.226.613,1.21,2.166Z" transform="translate(-1727.933 -1040.855)" fill="#d28572"/>
            <rect id="Rectángulo_7299" data-name="Rectángulo 7299" width="0.251" height="2.6" transform="translate(1.536 1.744) rotate(-30.875)" fill="#d28572"/>
            <rect id="Rectángulo_7300" data-name="Rectángulo 7300" width="0.251" height="2.6" transform="translate(0 2.591) rotate(-30.875)" fill="#d28572"/>
          </g>
        </g>
      </g>
      <g id="Grupo_60132" data-name="Grupo 60132" transform="translate(500.962 260.333)">
        <g id="Grupo_60128" data-name="Grupo 60128" transform="translate(8.994 53.947)">
          <g id="Grupo_60126" data-name="Grupo 60126" transform="translate(0 68.182)">
            <path id="Trazado_120323" data-name="Trazado 120323" d="M1853.244,1643.48l-.094,7.157-7.911,5.179h14.974l.565-13.278Z" transform="translate(-1845.239 -1642.538)" fill="#1b1b43"/>
            <rect id="Rectángulo_7301" data-name="Rectángulo 7301" width="0.502" height="3.045" transform="matrix(0.586, -0.811, 0.811, 0.586, 7.764, 8.302)" fill="#fefefe"/>
          </g>
          <g id="Grupo_60127" data-name="Grupo 60127" transform="translate(33.055 66.11)">
            <path id="Trazado_120324" data-name="Trazado 120324" d="M2115.065,1626.019l1.7,9.182,5.368,6.168h-11.159l-2.166-13.279Z" transform="translate(-2108.802 -1626.019)" fill="#1b1b43"/>
            <rect id="Rectángulo_7302" data-name="Rectángulo 7302" width="2.815" height="0.502" transform="translate(5.899 11.118) rotate(-48.345)" fill="#fefefe"/>
          </g>
          <path id="Trazado_120325" data-name="Trazado 120325" d="M1895.374,1102.558s-4.615,18.646-3.2,68.652h10.736s2.825-41.813,6.781-70.065Z" transform="translate(-1886.051 -1100.862)" fill="#5254cf"/>
          <path id="Trazado_120326" data-name="Trazado 120326" d="M2002.644,1098.893l8.428,69.076-11.065,1.836-13.34-70.774Z" transform="translate(-1968.93 -1098.893)" fill="#5254cf"/>
          <path id="Trazado_120327" data-name="Trazado 120327" d="M1987.6,1227.3l-2.988-17.094-3.55-.646.067-.37,3.808.692.023.129,3.01,17.224Z" transform="translate(-1964.03 -1195.358)" fill="#1b1b43"/>
          <path id="Trazado_120328" data-name="Trazado 120328" d="M1894.85,1426.166a.678.678,0,0,1-.673-.61.68.68,0,0,1,.556-.735l3.1-.548.066.37-3.1.548a.3.3,0,0,0-.248.327.3.3,0,0,0,.331.27l1.33-.137.039.374-1.33.138C1894.9,1426.165,1894.874,1426.166,1894.85,1426.166Z" transform="translate(-1888.037 -1383.465)" fill="#1b1b43"/>
          <path id="Trazado_120329" data-name="Trazado 120329" d="M2048.871,1420.32a.678.678,0,0,1-.117-1.345l3.1-.548.065.37-3.1.548a.3.3,0,0,0-.248.327.3.3,0,0,0,.331.27l1.33-.138.039.374-1.33.138A.7.7,0,0,1,2048.871,1420.32Z" transform="translate(-2022.741 -1378.352)" fill="#1b1b43"/>
        </g>
        <g id="Grupo_60130" data-name="Grupo 60130" transform="translate(0 18.056)">
          <path id="Trazado_120330" data-name="Trazado 120330" d="M1930.195,812.721l-9.581,24.59-1.036,13,20.624,1.413-3-38.8Z" transform="translate(-1901.261 -812.721)" fill="#fff"/>
          <path id="Trazado_120331" data-name="Trazado 120331" d="M1922.667,931.443a16.218,16.218,0,0,0,4.676-.364,18.554,18.554,0,0,0,4.342-1.564,19.463,19.463,0,0,0,1.982-1.2c.316-.223.657-.414.956-.662s.6-.489.913-.729a9.543,9.543,0,0,0,.883-.771l.873-.795c.561-.554,1.09-1.142,1.679-1.695-.409.684-.842,1.364-1.31,2.021l-.774.93a8.035,8.035,0,0,1-.825.889,16.64,16.64,0,0,1-3.919,2.9,14.52,14.52,0,0,1-4.671,1.441A10.667,10.667,0,0,1,1922.667,931.443Z" transform="translate(-1903.963 -909.753)" fill="#1b1b43" opacity="0.2"/>
          <path id="Trazado_120332" data-name="Trazado 120332" d="M1902.941,812.721s-3.958,5.769-7.758,47.671a.3.3,0,0,1-.471.219l-6.3-4.513,5.509-35.88Z" transform="translate(-1874.007 -812.721)" fill="#1b1b43"/>
          <path id="Trazado_120333" data-name="Trazado 120333" d="M1802.463,812.721l-8.36,2.273a3.767,3.767,0,0,0-2.642,2.628l-5.5,19.83-11.583,2.119-.848,7.2,15.031-.7a3.873,3.873,0,0,0,3.623-3.143l4.089-21.438Z" transform="translate(-1773.529 -812.721)" fill="#1b1b43"/>
          <path id="Trazado_120334" data-name="Trazado 120334" d="M2030.254,814.3s-4.4,30.313-4.272,47.62l13.8-.627.026-29.1Z" transform="translate(-1994.318 -814.103)" fill="#1b1b43"/>
          <rect id="Rectángulo_7303" data-name="Rectángulo 7303" width="21.1" height="16.004" rx="4.507" transform="translate(27.649 26.188) rotate(7.565)" fill="#cbcbff"/>
          <path id="Trazado_120335" data-name="Trazado 120335" d="M2058.754,1086.727l-.026,0h0l-2.543-.338a.2.2,0,0,1-.17-.223l.251-1.894a.2.2,0,0,1,.223-.17l2.543.338a.2.2,0,0,1,.17.222l-.252,1.895a.2.2,0,0,1-.2.172Zm-2.484-.581,2.439.324.238-1.79-2.439-.324Zm-.007.052h0Zm.192-1.849h0Z" transform="translate(-2020.585 -1050.063)" fill="#fff"/>
          <path id="Trazado_120336" data-name="Trazado 120336" d="M2051.851,1089.078l-.607.867a3.361,3.361,0,0,1-1.673,1.261c-1.372.464-4.186,1.342-3.81,2.209.215.5,2.836-.18,2.836-.18s-3.028,3.571-1.763,4.656a4.056,4.056,0,0,0,1.644.711,6.479,6.479,0,0,0,2.427.056,2.717,2.717,0,0,0,1.631-.9,12.842,12.842,0,0,0,1.408-1.948,23.4,23.4,0,0,0,2.337-5.1Z" transform="translate(-2011.589 -1054.418)" fill="#d28572"/>
          <path id="Trazado_120337" data-name="Trazado 120337" d="M2060.067,814.3l6.215,1.376a5.23,5.23,0,0,1,3.74,3.2l6.232,14.362a7.49,7.49,0,0,1-.4,6.753l-7.038,12.075-5.462-2.919,5.18-13Z" transform="translate(-2024.13 -814.103)" fill="#1b1b43"/>
          <path id="Trazado_120338" data-name="Trazado 120338" d="M2005.082,839.592a5.9,5.9,0,0,1-3.356-1.134l.236-.293a5.062,5.062,0,0,0,5.311.483l.18.331A4.909,4.909,0,0,1,2005.082,839.592Z" transform="translate(-1973.106 -834.974)" fill="#1b1b43"/>
          <rect id="Rectángulo_7304" data-name="Rectángulo 7304" width="34.918" height="0.376" transform="matrix(0.142, -0.99, 0.99, 0.142, 14.226, 43.351)" fill="#5254cf"/>
          <path id="Trazado_120339" data-name="Trazado 120339" d="M2085.242,921.913l-.346-.148,5.87-13.739-4.4-10.462.347-.146,4.462,10.608Z" transform="translate(-2045.846 -886.796)" fill="#5254cf"/>
          <g id="Grupo_60129" data-name="Grupo 60129" transform="translate(35.406 41.435)">
            <rect id="Rectángulo_7305" data-name="Rectángulo 7305" width="2.528" height="0.251" transform="matrix(0.562, -0.827, 0.827, 0.562, 0, 2.09)" fill="#925d4f"/>
            <rect id="Rectángulo_7306" data-name="Rectángulo 7306" width="2.528" height="0.251" transform="matrix(0.562, -0.827, 0.827, 0.562, 1.338, 2.717)" fill="#925d4f"/>
            <rect id="Rectángulo_7307" data-name="Rectángulo 7307" width="2.528" height="0.251" transform="translate(3.303 2.759) rotate(-55.781)" fill="#925d4f"/>
          </g>
        </g>
        <g id="Grupo_60131" data-name="Grupo 60131" transform="translate(23.649 0)">
          <path id="Trazado_120340" data-name="Trazado 120340" d="M1972.553,719.239s-3.083,2.642-2.114,3.523a4.74,4.74,0,0,0,2.29,1.057Z" transform="translate(-1969.228 -712.907)" fill="#925d4f"/>
          <path id="Trazado_120341" data-name="Trazado 120341" d="M2011.439,743.72l-.2,8.854c-3.5,3.632-7-.2-7-.2l.251-1.816.11-.808.5-3.617.131-.958,3.652-.853Z" transform="translate(-1998.954 -734.318)" fill="#d28572"/>
          <path id="Trazado_120342" data-name="Trazado 120342" d="M2010.976,756.9a15.6,15.6,0,0,1-4.736,4.856l.11-.808.5-3.617,3.752-.808Z" transform="translate(-2000.703 -745.512)" fill="#925d4f"/>
          <path id="Trazado_120343" data-name="Trazado 120343" d="M1982.161,688.516s-2.026,10.922.7,10.746,7.839-2.995,7.839-2.995l.616-5.2-2.29-3.435-3.964.088Z" transform="translate(-1979.013 -685.267)" fill="#d28572"/>
          <path id="Trazado_120344" data-name="Trazado 120344" d="M1971.51,677.307s2.312,4,3.468,3.864,3.237-7.531.693-10.6-8.323-1.321-8.786-1.321-3.039-.066-4.79-.1c0,0,1.42,5.252,7.234,3.666,0,0,.694,2.543,2.081,2.873Z" transform="translate(-1962.096 -668.751)" fill="#1b1b43"/>
          <ellipse id="Elipse_4763" data-name="Elipse 4763" cx="2.015" cy="1.641" rx="2.015" ry="1.641" transform="translate(7.207 8.934) rotate(-71.126)" fill="#d28572"/>
          <circle id="Elipse_4764" data-name="Elipse 4764" cx="1.474" cy="1.474" r="1.474" transform="translate(3.813 7.525)" fill="#be443d" opacity="0.3"/>
          <path id="Trazado_120345" data-name="Trazado 120345" d="M2031.025,724.662a1.7,1.7,0,0,1,.2-1.233,1.6,1.6,0,0,1,1.142-.659l.061.371a1.248,1.248,0,0,0-.889.5,1.318,1.318,0,0,0-.15.936Z" transform="translate(-2022.346 -715.995)" fill="#1b1b43"/>
        </g>
      </g>
      <g id="Grupo_60141" data-name="Grupo 60141" transform="translate(381.987 265.295)">
        <g id="Grupo_60135" data-name="Grupo 60135" transform="translate(2.652 50.114)">
          <g id="Grupo_60133" data-name="Grupo 60133" transform="translate(16.31 28.441)">
            <path id="Trazado_120346" data-name="Trazado 120346" d="M985.546,1338.3l-9.464-3.626c1.046,5.577,1.608,38.082,1.686,42.906l6.574,1.244C985.452,1363.49,985.546,1338.3,985.546,1338.3Z" transform="translate(-976.082 -1334.673)" fill="#ffbc96"/>
            <path id="Trazado_120347" data-name="Trazado 120347" d="M1001.518,1685.154c-2.92-3.533-4.192-2.4-6.687-7.017.006-.036.013-.076.019-.112l-6.574-1.244c.006.389.01.6.01.6l-.188,8.476h1.789l1.036-3.814,4.285,3.814h5.854C1001.424,1685.859,1001.749,1685.433,1001.518,1685.154Z" transform="translate(-986.59 -1633.875)" fill="#fe5b52"/>
          </g>
          <g id="Grupo_60134" data-name="Grupo 60134" transform="translate(0 26.88)">
            <path id="Trazado_120348" data-name="Trazado 120348" d="M871.246,1327.179l-8.843-4.952c.231,5.669-3.9,37.915-4.518,42.7l6.326,2.178C867.52,1352.094,871.246,1327.179,871.246,1327.179Z" transform="translate(-856.399 -1322.227)" fill="#ffbc96"/>
            <path id="Trazado_120349" data-name="Trazado 120349" d="M859.42,1672.893c-2.38-3.917-3.8-2.982-5.606-7.908.012-.034.024-.073.035-.108l-6.326-2.179c-.05.386-.078.6-.078.6l-1.408,8.36,1.771.258,1.575-3.625,4.065,5.16,5.418.076C859.226,1673.577,859.609,1673.2,859.42,1672.893Z" transform="translate(-846.038 -1619.997)" fill="#fe5b52"/>
          </g>
          <path id="Trazado_120350" data-name="Trazado 120350" d="M879.03,1109.881s-1.978,17.657.848,30.653c0,0,10.594,3.391,20.2-.565,0,0,.848-27.828-2.966-32.066Z" transform="translate(-874.304 -1107.903)" fill="#1b1b43"/>
          <path id="Trazado_120351" data-name="Trazado 120351" d="M899.69,1331.466a69.311,69.311,0,0,1-9.935-.752l.061-.371c.129.021,12.954,2.09,20.345-.743l.135.351A31.154,31.154,0,0,1,899.69,1331.466Z" transform="translate(-884.273 -1301.796)" fill="#5254cf"/>
          <path id="Trazado_120352" data-name="Trazado 120352" d="M963.63,1124.8c-.116-.861-1.13-8.426-1.13-8.8h.376c0,.267.674,5.381,1.127,8.754Z" transform="translate(-947.894 -1114.984)" fill="#5254cf"/>
          <path id="Trazado_120353" data-name="Trazado 120353" d="M1025.3,1409.559a2.173,2.173,0,0,1-1.575-.721.39.39,0,0,1-.063-.435c.106-.211.407-.414,1.882-.47.765-.029,1.49,0,1.521,0l-.017.5a11.341,11.341,0,0,0-2.863.171,1.718,1.718,0,0,0,1.116.456Z" transform="translate(-1001.35 -1370.292)" fill="#d28572"/>
          <path id="Trazado_120354" data-name="Trazado 120354" d="M929.3,1417.558a2.173,2.173,0,0,1-1.575-.721.39.39,0,0,1-.063-.435c.106-.211.407-.414,1.882-.47.765-.029,1.49,0,1.521,0l-.017.5a11.345,11.345,0,0,0-2.863.171,1.719,1.719,0,0,0,1.116.456Z" transform="translate(-917.39 -1377.288)" fill="#d28572"/>
        </g>
        <g id="Grupo_60138" data-name="Grupo 60138" transform="translate(0 19.734)">
          <path id="Trazado_120355" data-name="Trazado 120355" d="M886.8,865.667l3.032,3.541a8.272,8.272,0,0,1,1.97,5.929l-.922,13.848s.283,7.157,1.224,8.287-1.789,2.166-5.651,2.825-15.821.565-16.386-1.224,2.354-3.014,1.413-7.44l1.884-20.342,2.5-4.332,6.545-.283Z" transform="translate(-864.341 -865.667)" fill="#cbcbff"/>
          <path id="Trazado_120356" data-name="Trazado 120356" d="M989,975.243l4.515-16.743,13.5.727-4.944,16.6Z" transform="translate(-968.418 -946.857)" fill="#5254cf"/>
          <path id="Trazado_120357" data-name="Trazado 120357" d="M931.417,1021.617s6.616-1.7,8.452-1.342,2.613,1.625,2.26,1.978a1.682,1.682,0,0,1-1.13.282s-.353,3.32-1.625,3.814-10.689,2.142-10.689,2.142l-1.036-2.708Z" transform="translate(-914.762 -1000.842)" fill="#ffbc96"/>
          <path id="Trazado_120358" data-name="Trazado 120358" d="M841.546,894.071l-2.735,6.877-8.77.068h-.028a5.114,5.114,0,0,1-4.888-6.656L830.268,878c.023-.079.051-.158.079-.237a3.958,3.958,0,0,1,2.582-2.362l3.481-1.011-.04.26-2.927,19.042Z" transform="translate(-824.89 -873.297)" fill="#cbcbff"/>
          <path id="Trazado_120359" data-name="Trazado 120359" d="M964.846,903.693a.847.847,0,1,1,.847-.847A.848.848,0,0,1,964.846,903.693Zm0-1.317a.47.47,0,1,0,.47.47A.471.471,0,0,0,964.846,902.376Z" transform="translate(-946.553 -897.443)" fill="#5254cf"/>
          <path id="Trazado_120360" data-name="Trazado 120360" d="M888.883,969.148,882,969.13v-.376l6.631.018,2.59-6.512-8.066-.377,2.3-9.726.366.086-2.194,9.285,8.14.38Z" transform="translate(-874.834 -941.308)" fill="#5254cf"/>
          <path id="Trazado_120361" data-name="Trazado 120361" d="M1061.667,953.833l-.334,1.893,4.143.245.267-1.849Z" transform="translate(-1031.679 -942.776)" fill="#1b1b43"/>
          <g id="Grupo_60136" data-name="Grupo 60136" transform="translate(23.454 21.025)">
            <path id="Trazado_120362" data-name="Trazado 120362" d="M1014.627,1034.091l-1.108-.524-1.6.164-.026-.25,1.665-.171,1.172.554Z" transform="translate(-1011.898 -1033.31)" fill="#d28572"/>
            <rect id="Rectángulo_7308" data-name="Rectángulo 7308" width="0.251" height="1.499" transform="matrix(0.502, -0.865, 0.865, 0.502, 1.141, 1.554)" fill="#d28572"/>
            <rect id="Rectángulo_7309" data-name="Rectángulo 7309" width="0.251" height="1.624" transform="translate(0.574 2.827) rotate(-58.152)" fill="#d28572"/>
          </g>
          <g id="Grupo_60137" data-name="Grupo 60137" transform="translate(33.345 16.866)">
            <path id="Trazado_120363" data-name="Trazado 120363" d="M1092.4,1007.726s-2.147-4.6-1.507-5.085c.377-.282.8.094.8.094s-.612-1.412-.141-1.648.8.282.8.282.047-1.083.424-1.083.8.659.8.659-.047-.753.471-.8,1.7,2.4,1.931,4.52c.219,1.971.141,5.415-4.1,4.991Z" transform="translate(-1090.769 -1000.145)" fill="#ffbc96"/>
            <rect id="Rectángulo_7310" data-name="Rectángulo 7310" width="0.251" height="2.216" transform="matrix(0.936, -0.353, 0.353, 0.936, 0.802, 2.635)" fill="#d28572"/>
            <rect id="Rectángulo_7311" data-name="Rectángulo 7311" width="0.251" height="2.813" transform="matrix(0.93, -0.367, 0.367, 0.93, 1.472, 1.278)" fill="#d28572"/>
            <rect id="Rectángulo_7312" data-name="Rectángulo 7312" width="0.251" height="2.81" transform="translate(2.643 0.757) rotate(-22.477)" fill="#d28572"/>
          </g>
        </g>
        <g id="Grupo_60140" data-name="Grupo 60140" transform="translate(4.236)">
          <path id="Trazado_120364" data-name="Trazado 120364" d="M942.482,796.925l-7.149.251,1-10.73,4.447,2.757,1.232.763.305,4.26Z" transform="translate(-925.718 -776.648)" fill="#ffbc96"/>
          <path id="Trazado_120365" data-name="Trazado 120365" d="M955.617,813.456c-3.289-.622-5.08-4.52-5.08-4.52l3.543-.5,1.232.763Z" transform="translate(-939.015 -795.877)" fill="#d28572"/>
          <path id="Trazado_120366" data-name="Trazado 120366" d="M943.3,734.862s2.264,10.7-1.852,10.769a17.6,17.6,0,0,1-8.163-2.4l.1-5.762,2.5-2.4,4.047-1.3Z" transform="translate(-923.928 -730.574)" fill="#ffbc96"/>
          <path id="Trazado_120367" data-name="Trazado 120367" d="M878.772,713.116a1.658,1.658,0,0,1-.777.928c-1.043.487-2.293-.632-3.376-.236s-1.169,1.921-2.032,2.674c-.813.7-2.052.522-3.1.261l.742,1.51a5.371,5.371,0,0,0-.993,3.928,7.421,7.421,0,0,1-.552,3.978c-1.241,2.773-2.662,3.065-2.662,3.065l-3.553.933a3.966,3.966,0,0,0-2.584,2.363,7.617,7.617,0,0,1-.928-1.585,3.41,3.41,0,0,1,.1-2.98,16,16,0,0,0,1.164-1.58c.522-1.189-.241-2.729.492-3.808a3.812,3.812,0,0,1,1.791-1.129c.652-.286,1.35-.722,1.485-1.42a2.7,2.7,0,0,0-.662-1.866,2.094,2.094,0,0,1-.446-1.891c.406-.923,1.761-.863,2.538-1.5.727-.612.778-1.686.978-2.614a4.771,4.771,0,0,1,2.985-3.647c1.766-.552,3.662.281,5.172,1.339a1.641,1.641,0,0,0,.487.266,2.368,2.368,0,0,0,1.064-.12,2.361,2.361,0,0,1,2.664,3.135Z" transform="translate(-858.669 -708.321)" fill="#1b1b43"/>
          <g id="Grupo_60139" data-name="Grupo 60139" transform="translate(8.875 7.007)">
            <ellipse id="Elipse_4765" data-name="Elipse 4765" cx="1.869" cy="2.109" rx="1.869" ry="2.109" transform="translate(0 2.011) rotate(-32.55)" fill="#ffbc96"/>
            <path id="Trazado_120368" data-name="Trazado 120368" d="M943.521,781.277a1.7,1.7,0,0,0-.467-1.072,1.158,1.158,0,0,0-.9-.253l-.031-.375a1.518,1.518,0,0,1,1.179.348,2.06,2.06,0,0,1,.592,1.338Z" transform="translate(-940.534 -777.64)" fill="#1b1b43"/>
          </g>
          <circle id="Elipse_4766" data-name="Elipse 4766" cx="0.93" cy="0.93" r="0.93" transform="translate(13.2 9.649)" fill="#fe5b52" opacity="0.4"/>
          <path id="Trazado_120369" data-name="Trazado 120369" d="M1000.1,779.815a4.757,4.757,0,0,1,.656.574,3.546,3.546,0,0,1,.544.706,1.347,1.347,0,0,1,.1.223.635.635,0,0,1,.035.288.383.383,0,0,1-.072.173.387.387,0,0,1-.142.114.5.5,0,0,1-.141.043c-.039.006-.077.011-.115.015a3.925,3.925,0,0,1-.878-.021v-.136c.281-.048.566-.083.833-.138.033-.007.065-.015.1-.023a.249.249,0,0,0,.062-.024c.027-.021.022-.019.026-.046a.362.362,0,0,0-.026-.133,1.265,1.265,0,0,0-.078-.168,5.606,5.606,0,0,0-.466-.677l-.524-.671Z" transform="translate(-982.277 -770.848)" fill="#d28572"/>
          <circle id="Elipse_4767" data-name="Elipse 4767" cx="0.321" cy="0.321" r="0.321" transform="translate(16.024 8.668)" fill="#1b1b43"/>
          <circle id="Elipse_4768" data-name="Elipse 4768" cx="0.321" cy="0.321" r="0.321" transform="translate(18.995 8.488)" fill="#1b1b43"/>
          <path id="Trazado_120370" data-name="Trazado 120370" d="M980.38,769.371l-1,.162a.281.281,0,0,1-.322-.232h0a.28.28,0,0,1,.232-.322l1-.162a.28.28,0,0,1,.322.232h0A.28.28,0,0,1,980.38,769.371Z" transform="translate(-963.954 -761.227)" fill="#1b1b43"/>
          <path id="Trazado_120371" data-name="Trazado 120371" d="M1007.7,768.4h-.8a.281.281,0,0,1-.281-.281h0a.281.281,0,0,1,.281-.281h.8a.281.281,0,0,1,.281.281h0A.28.28,0,0,1,1007.7,768.4Z" transform="translate(-988.069 -760.372)" fill="#1b1b43"/>
          <path id="Trazado_120372" data-name="Trazado 120372" d="M984.567,799.487a3.057,3.057,0,0,0,.539.484,2.289,2.289,0,0,0,.636.313,2.156,2.156,0,0,0,.7.1,2.786,2.786,0,0,0,.36-.024c.121-.014.239-.046.364-.062l.033.093a3.223,3.223,0,0,1-.361.141,2.047,2.047,0,0,1-.385.072,1.882,1.882,0,0,1-.786-.083,2.067,2.067,0,0,1-1.184-.983Z" transform="translate(-968.704 -788.053)" fill="#1b1b43"/>
          <path id="Trazado_120373" data-name="Trazado 120373" d="M924.426,853.264l-2.308,3.2-4.078-2.809.075-.06a7.667,7.667,0,0,0,2.5-3.035Z" transform="translate(-910.594 -832.721)" fill="#cbcbff"/>
          <path id="Trazado_120374" data-name="Trazado 120374" d="M968.949,851.437l2.778,3.108,2.621-2.789-2.621-3.285Z" transform="translate(-955.118 -830.893)" fill="#cbcbff"/>
          <path id="Trazado_120375" data-name="Trazado 120375" d="M920.288,855.739l-4.391-3.022.213-.31,4.088,2.813,2.087-2.9-3.744-2.582.214-.31,4.06,2.8Z" transform="translate(-908.72 -831.734)" fill="#5254cf"/>
          <path id="Trazado_120376" data-name="Trazado 120376" d="M969.945,853.926l-3.03-3.389,2.9-3.092.275.257-2.661,2.841,2.527,2.826,2.439-2.6.274.258Z" transform="translate(-953.34 -829.996)" fill="#5254cf"/>
        </g>
      </g>
      <rect id="Rectángulo_7313" data-name="Rectángulo 7313" width="286.57" height="0.502" transform="translate(319.358 395.604)" fill="#1b1b43"/>
    </g>
    <rect id="Rectángulo_7501" data-name="Rectángulo 7501" width="387" height="238" transform="translate(1020 1108)" fill="none"/>
  </g>
</svg>
