<svg xmlns="http://www.w3.org/2000/svg" xmlns:xlink="http://www.w3.org/1999/xlink" width="357" height="281" viewBox="0 0 357 281">
  <defs>
    <clipPath id="clip-path">
      <path id="Rectángulo_7186" data-name="Rectángulo 7186" d="M54.666,0H86.407a54.665,54.665,0,0,1,54.665,54.665v0a54.665,54.665,0,0,1-54.665,54.665H54.665A54.665,54.665,0,0,1,0,54.666v0A54.666,54.666,0,0,1,54.666,0Z" transform="translate(141.072 109.331) rotate(180)" fill="none"/>
    </clipPath>
    <clipPath id="clip-path-2">
      <rect id="Rectángulo_7189" data-name="Rectángulo 7189" width="167.106" height="129.507" rx="64.754" transform="translate(167.106 129.507) rotate(-180)" fill="none"/>
    </clipPath>
  </defs>
  <g id="Grupo_59870" data-name="Grupo 59870" transform="translate(-1020 -2068)">
    <rect id="Rectángulo_7064" data-name="Rectángulo 7064" width="357" height="281" transform="translate(1020 2068)" fill="none"/>
    <g id="Grupo_59869" data-name="Grupo 59869" transform="translate(-718.296 375.609)">
      <g id="Grupo_59823" data-name="Grupo 59823" transform="translate(1929.169 1709.37)">
        <path id="Trazado_119178" data-name="Trazado 119178" d="M2533.948,1785.112v-16.975l-10.3-1.747a32.858,32.858,0,0,0-1.964-4.743l6.048-8.518-12-12-8.518,6.048a32.817,32.817,0,0,0-4.742-1.965l-1.747-10.3h-16.975l-1.747,10.3a32.817,32.817,0,0,0-4.742,1.965l-8.518-6.048-12,12,6.048,8.518a32.832,32.832,0,0,0-1.965,4.743l-10.3,1.747v16.975l10.3,1.747a32.835,32.835,0,0,0,1.965,4.743l-6.048,8.518,12,12,8.518-6.048a32.844,32.844,0,0,0,4.742,1.965l1.747,10.3h16.975l1.747-10.3a32.844,32.844,0,0,0,4.742-1.965l8.518,6.048,12-12-6.048-8.518a32.861,32.861,0,0,0,1.964-4.743Zm-41.714,17.289a25.777,25.777,0,1,1,25.777-25.777A25.776,25.776,0,0,1,2492.234,1802.4Z" transform="translate(-2450.52 -1734.91)" fill="#fff"/>
        <path id="Trazado_119179" data-name="Trazado 119179" d="M2554.708,1861.3a22.2,22.2,0,1,1,22.2-22.2A22.2,22.2,0,0,1,2554.708,1861.3Z" transform="translate(-2512.994 -1797.384)" fill="#eee9d3"/>
        <path id="Trazado_119180" data-name="Trazado 119180" d="M2597.82,1898.6l-5.545-5.545,2.205-2.205,3.34,3.34,8.192-8.192,2.2,2.205Z" transform="translate(-2558.532 -1850.031)" fill="#fefefe"/>
      </g>
      <g id="Grupo_59825" data-name="Grupo 59825" transform="translate(1766.296 1792.855)">
        <g id="Grupo_59824" data-name="Grupo 59824" transform="translate(0 0)">
          <rect id="Rectángulo_7164" data-name="Rectángulo 7164" width="167.106" height="129.507" rx="64.754" fill="#fff"/>
          <path id="Trazado_119181" data-name="Trazado 119181" d="M2336.605,2510.149l-8.19-19.027-8.19-19.026-10.837,10.836-10.837,10.837,19.027,8.19Z" transform="translate(-2171.854 -2380.102)" fill="#fff"/>
        </g>
      </g>
      <g id="Grupo_59831" data-name="Grupo 59831" transform="translate(1861.55 1701.391)">
        <g id="Grupo_59829" data-name="Grupo 59829" transform="translate(5.852 22.744)">
          <path id="Trazado_119182" data-name="Trazado 119182" d="M2204.659,1826.187h-13.623v-13.623h13.623Zm-13-.624h12.375v-12.375H2191.66Z" transform="translate(-2191.036 -1808.844)" fill="#ebf1ff"/>
          <g id="Grupo_59826" data-name="Grupo 59826" transform="translate(19.536 7.112)">
            <rect id="Rectángulo_7165" data-name="Rectángulo 7165" width="17.916" height="1.737" fill="#c1ccff"/>
            <rect id="Rectángulo_7166" data-name="Rectángulo 7166" width="7.177" height="1.737" transform="translate(0 5.1)" fill="#c1ccff"/>
            <rect id="Rectángulo_7167" data-name="Rectángulo 7167" width="11.887" height="1.737" transform="translate(9.085 5.1)" fill="#c1ccff"/>
            <rect id="Rectángulo_7168" data-name="Rectángulo 7168" width="7.472" height="1.737" transform="translate(20.972)" fill="#c1ccff"/>
          </g>
          <path id="Trazado_119183" data-name="Trazado 119183" d="M2204.818,1809.52l-5.014-3.1.983-1.592,3.341,2.064a47.374,47.374,0,0,1,7.693-9.955l1.316,1.33a45.218,45.218,0,0,0-7.847,10.382Z" transform="translate(-2197.717 -1796.939)" fill="#f2727c"/>
          <path id="Trazado_119184" data-name="Trazado 119184" d="M2204.659,1917.637h-13.623v-13.623h13.623Zm-13-.624h12.375v-12.375H2191.66Z" transform="translate(-2191.036 -1878.526)" fill="#ebf1ff"/>
          <g id="Grupo_59827" data-name="Grupo 59827" transform="translate(19.536 28.881)">
            <rect id="Rectángulo_7169" data-name="Rectángulo 7169" width="17.916" height="1.737" fill="#c1ccff"/>
            <rect id="Rectángulo_7170" data-name="Rectángulo 7170" width="7.177" height="1.737" transform="translate(0 5.1)" fill="#c1ccff"/>
            <rect id="Rectángulo_7171" data-name="Rectángulo 7171" width="11.887" height="1.737" transform="translate(9.085 5.1)" fill="#c1ccff"/>
            <rect id="Rectángulo_7172" data-name="Rectángulo 7172" width="7.472" height="1.737" transform="translate(20.972)" fill="#c1ccff"/>
          </g>
          <path id="Trazado_119185" data-name="Trazado 119185" d="M2204.818,1900.969l-5.014-3.1.983-1.592,3.341,2.064a47.381,47.381,0,0,1,7.693-9.956l1.316,1.331a45.222,45.222,0,0,0-7.847,10.382Z" transform="translate(-2197.717 -1866.619)" fill="#f2727c"/>
          <path id="Trazado_119186" data-name="Trazado 119186" d="M2204.659,2009.086h-13.623v-13.623h13.623Zm-13-.624h12.375v-12.375H2191.66Z" transform="translate(-2191.036 -1948.206)" fill="#ebf1ff"/>
          <g id="Grupo_59828" data-name="Grupo 59828" transform="translate(19.536 50.649)">
            <rect id="Rectángulo_7173" data-name="Rectángulo 7173" width="17.916" height="1.737" fill="#c1ccff"/>
            <rect id="Rectángulo_7174" data-name="Rectángulo 7174" width="7.177" height="1.737" transform="translate(0 5.1)" fill="#c1ccff"/>
            <rect id="Rectángulo_7175" data-name="Rectángulo 7175" width="11.887" height="1.737" transform="translate(9.085 5.1)" fill="#c1ccff"/>
            <rect id="Rectángulo_7176" data-name="Rectángulo 7176" width="7.472" height="1.737" transform="translate(20.972)" fill="#c1ccff"/>
          </g>
          <path id="Trazado_119187" data-name="Trazado 119187" d="M2204.818,1992.418l-5.014-3.1.983-1.592,3.341,2.064a47.386,47.386,0,0,1,7.693-9.955l1.316,1.331a45.217,45.217,0,0,0-7.847,10.381Z" transform="translate(-2197.717 -1936.301)" fill="#f2727c"/>
        </g>
        <path id="Trazado_119188" data-name="Trazado 119188" d="M2224.859,1826.982h-43.747v-.468h43.279v-82.619h-57.469v78.875h-.468v-79.343h58.405Z" transform="translate(-2166.454 -1733.421)" fill="#382b71"/>
        <g id="Grupo_59830" data-name="Grupo 59830" transform="translate(14.521)">
          <rect id="Rectángulo_7177" data-name="Rectángulo 7177" width="29.363" height="6.415" rx="3.208" transform="translate(0 5.675)" fill="#382b71"/>
          <path id="Trazado_119189" data-name="Trazado 119189" d="M2274.916,1701.391a4.441,4.441,0,0,0-4.441,4.441v4.441h8.883v-4.441A4.441,4.441,0,0,0,2274.916,1701.391Zm0,5.675a1.727,1.727,0,1,1,1.727-1.728A1.728,1.728,0,0,1,2274.916,1707.066Z" transform="translate(-2260.234 -1701.391)" fill="#382b71"/>
        </g>
      </g>
      <g id="Grupo_59833" data-name="Grupo 59833" transform="translate(1899.901 1780.399)">
        <g id="Grupo_59832" data-name="Grupo 59832" transform="translate(0)">
          <path id="Trazado_119190" data-name="Trazado 119190" d="M2354.151,2086.472a26.585,26.585,0,1,1,26.585-26.585A26.615,26.615,0,0,1,2354.151,2086.472Zm0-52.858a26.273,26.273,0,1,0,26.273,26.273A26.3,26.3,0,0,0,2354.151,2033.614Z" transform="translate(-2327.566 -2033.302)" fill="#d6e2ff"/>
          <path id="Trazado_119191" data-name="Trazado 119191" d="M2384.352,2086.472c-9.457,0-17.15-11.926-17.15-26.585s7.694-26.585,17.15-26.585,17.15,11.926,17.15,26.585S2393.809,2086.472,2384.352,2086.472Zm0-52.858c-9.284,0-16.838,11.786-16.838,26.273s7.553,26.273,16.838,26.273,16.838-11.786,16.838-26.273S2393.636,2033.614,2384.352,2033.614Z" transform="translate(-2357.767 -2033.302)" fill="#d6e2ff"/>
          <path id="Trazado_119192" data-name="Trazado 119192" d="M2369.657,2084.253a75.319,75.319,0,0,1-21.741-3.011l.091-.3a79.674,79.674,0,0,0,43.3,0l.091.3A75.319,75.319,0,0,1,2369.657,2084.253Z" transform="translate(-2343.072 -2069.603)" fill="#d6e2ff"/>
          <path id="Trazado_119193" data-name="Trazado 119193" d="M2348.01,2198.432l-.092-.3a80.026,80.026,0,0,1,43.349-.04l-.09.3a79.728,79.728,0,0,0-43.167.04Z" transform="translate(-2343.073 -2156.603)" fill="#d6e2ff"/>
          <rect id="Rectángulo_7178" data-name="Rectángulo 7178" width="52.858" height="0.312" transform="translate(0.156 26.429)" fill="#d6e2ff"/>
          <rect id="Rectángulo_7179" data-name="Rectángulo 7179" width="0.312" height="52.858" transform="translate(26.429 0.156)" fill="#d6e2ff"/>
        </g>
      </g>
      <path id="Trazado_119194" data-name="Trazado 119194" d="M2414.479,2110.964v-4.579l-2.779-.471a8.868,8.868,0,0,0-.53-1.28l1.632-2.3-3.238-3.239-2.3,1.632a8.825,8.825,0,0,0-1.28-.53l-.471-2.779h-4.58l-.471,2.779a8.825,8.825,0,0,0-1.28.53l-2.3-1.632-3.238,3.239,1.632,2.3a8.813,8.813,0,0,0-.53,1.28l-2.779.471v4.579l2.779.472a8.821,8.821,0,0,0,.53,1.279l-1.632,2.3,3.238,3.239,2.3-1.632a8.825,8.825,0,0,0,1.28.53l.471,2.779h4.58l.471-2.779a8.825,8.825,0,0,0,1.28-.53l2.3,1.632,3.238-3.239-1.632-2.3a8.877,8.877,0,0,0,.53-1.279Zm-11.254,2.308a4.6,4.6,0,1,1,4.6-4.6A4.6,4.6,0,0,1,2403.225,2113.271Z" transform="translate(-476.739 -301.758)" fill="#93deff"/>
      <g id="Grupo_59835" data-name="Grupo 59835" transform="translate(1926.917 1813.433)">
        <g id="Grupo_59834" data-name="Grupo 59834" transform="translate(0 0)">
          <path id="Rectángulo_7180" data-name="Rectángulo 7180" d="M54.666,0H86.407a54.665,54.665,0,0,1,54.665,54.665v0a54.665,54.665,0,0,1-54.665,54.665H54.665A54.665,54.665,0,0,1,0,54.666v0A54.666,54.666,0,0,1,54.666,0Z" fill="#fff"/>
          <path id="Trazado_119195" data-name="Trazado 119195" d="M2475.059,2553.175l30.569-18.222-10.446-8.012-10.446-8.012Z" transform="translate(-2466.966 -2436.365)" fill="#fff"/>
        </g>
      </g>
      <g id="Grupo_59850" data-name="Grupo 59850" transform="translate(1926.766 1743.4)">
        <g id="Grupo_59838" data-name="Grupo 59838" transform="translate(0 70.033)">
          <g id="Grupo_59837" data-name="Grupo 59837" transform="translate(0 0)" clip-path="url(#clip-path)">
            <g id="Grupo_59836" data-name="Grupo 59836" transform="translate(59.116 51.748)">
              <path id="Trazado_119196" data-name="Trazado 119196" d="M2779.658,2389.737,2790.38,2447h30.056l-11.974-57.261Z" transform="translate(-2758.023 -2389.674)" fill="#69b1ed"/>
              <path id="Trazado_119197" data-name="Trazado 119197" d="M2688.769,2389.737,2694.3,2447h33.344l-9.457-57.261Z" transform="translate(-2688.769 -2389.674)" fill="#69b1ed"/>
              <rect id="Rectángulo_7181" data-name="Rectángulo 7181" width="0.624" height="31.807" transform="matrix(0.997, -0.077, 0.077, 0.997, 25.716, 25.635)" fill="#fff" opacity="0.2"/>
              <path id="Trazado_119198" data-name="Trazado 119198" d="M2793.318,2508.995l-4.126-31.146s-5.6-3.762-9.534-6.747C2779.658,2471.1,2781.838,2494.411,2793.318,2508.995Z" transform="translate(-2758.023 -2451.671)" fill="#0c0a0b"/>
              <rect id="Rectángulo_7182" data-name="Rectángulo 7182" width="0.624" height="58.336" transform="translate(44.766 0.123) rotate(-11.017)" fill="#fff" opacity="0.2"/>
              <rect id="Rectángulo_7183" data-name="Rectángulo 7183" width="50.866" height="0.468" transform="translate(0.367 3.621)" fill="#0c0a0b"/>
              <path id="Trazado_119199" data-name="Trazado 119199" d="M2745.54,2406.009l-.448-.277c-5.686-3.517-9.148-15.622-9.292-16.135l.45-.127c.034.121,3.365,11.772,8.635,15.561l-2.837-15.455.46-.084Z" transform="translate(-2724.605 -2389.471)" fill="#0c0a0b"/>
              <rect id="Rectángulo_7184" data-name="Rectángulo 7184" width="0.468" height="6.392" transform="translate(35.065 0.104) rotate(-9.957)" fill="#0c0a0b"/>
              <rect id="Rectángulo_7185" data-name="Rectángulo 7185" width="0.468" height="6.392" transform="translate(3.228 0.104) rotate(-9.957)" fill="#0c0a0b"/>
            </g>
          </g>
        </g>
        <g id="Grupo_59849" data-name="Grupo 59849" transform="translate(6.398)">
          <path id="Trazado_119200" data-name="Trazado 119200" d="M2634.477,1903.146s-6.828-4.708-7.855-9.786c-.608-3.006,4.445-7.835,4.445-7.835s-2.287-5.461-1.6-6.355,11.34,2.049,11.34,2.049.67-2.973,1.618-3.331,10.807,5.031,10.807,5.031.324-2.995.894-3.064,1.282,3.51,1.282,3.51,3.96-2.251,5.043-1.769-2.792,3.779-2.792,3.779,3.889.447,4.088,1.395-1.9,16.9-1.9,16.9Z" transform="translate(-2588.659 -1877.87)" fill="#0c0a0b"/>
          <path id="Trazado_119201" data-name="Trazado 119201" d="M2575.021,2352.343s11.626,5.375,24.156,1.484C2599.177,2353.827,2589.74,2346.08,2575.021,2352.343Z" transform="translate(-2549.38 -2237.537)" fill="#0c0a0b"/>
          <path id="Trazado_119202" data-name="Trazado 119202" d="M2604.477,2355.438l9.526.012,4.916-47.65s-6.955-8.576-10.128-9c0,0-4.013,2.346-4.862,5.7S2604.477,2355.438,2604.477,2355.438Z" transform="translate(-2571.197 -2198.602)" fill="#ffa1a8"/>
          <path id="Trazado_119203" data-name="Trazado 119203" d="M2602.647,2081.653c-7.526,1.01-11.4,60.013-11.4,60.013l20.172,3.016S2609.1,2080.788,2602.647,2081.653Z" transform="translate(-2561.74 -2033.138)" fill="#283271"/>
          <path id="Trazado_119204" data-name="Trazado 119204" d="M2598.576,2337.857s3.223-3.141.236-6.046c-2.946-2.866-19.314-2.872-19.314-2.872s-5,.3-3.519,4.091a2.452,2.452,0,0,0-1.559,3.343S2588.692,2331.508,2598.576,2337.857Z" transform="translate(-2548.779 -2221.567)" fill="#c1ccff"/>
          <path id="Trazado_119205" data-name="Trazado 119205" d="M2701.544,2149.088H2651.1s-6.739-5.693-6.374-9.187c.533-5.094-.716-38.193-5.588-64.142-.269-1.432,15.75-1.851,15.75-1.851l12.138.665c5.795,1.006,16.01,3.991,19.565,9.042,2.507,3.563,9.856,37.438,14.124,55.459,0,0,3.45,3.32,4.129,5.686S2701.544,2149.088,2701.544,2149.088Z" transform="translate(-2598.235 -2027.244)" fill="#283271"/>
          <path id="Trazado_119206" data-name="Trazado 119206" d="M2649.786,2169.41c-.3-11.9-3.414-37.276-3.446-37.531l.465-.057c.031.255,3.147,25.656,3.449,37.576Z" transform="translate(-2603.722 -2071.372)" fill="#0c0a0b"/>
          <path id="Trazado_119207" data-name="Trazado 119207" d="M2702.974,2098.417c-10.028-7.135-11.221-23.905-11.232-24.074l.467-.03c.011.166,1.191,16.718,11.036,23.723Z" transform="translate(-2638.317 -2027.552)" fill="#0c0a0b"/>
          <path id="Trazado_119208" data-name="Trazado 119208" d="M2814.765,2231.849c7.013-11.364,2.93-21,2.93-21l-4.689,18.77Z" transform="translate(-2730.715 -2131.588)" fill="#0c0a0b"/>
          <path id="Trazado_119209" data-name="Trazado 119209" d="M2490.662,2257.044s-8.988-2.442-11.28-2.39-4.314,2.683-4.314,2.683-6.722,6.867-7.281,7.934c-1.639,3.129,1.412,1.7,1.412,1.7a1.27,1.27,0,0,0,1.245,1.8c1.6.1,2.312.1,2.312.1s-.207.809,1.239,1.325,10.735,1.3,15.69-4.066Z" transform="translate(-2467.303 -2164.964)" fill="#ffa1a8"/>
          <path id="Trazado_119210" data-name="Trazado 119210" d="M2760.761,2109.372c-3.73-.613-11.779,34.576-11.779,34.576s11.469,9.583,13.327,13.747C2762.309,2157.694,2779.924,2112.521,2760.761,2109.372Z" transform="translate(-2681.931 -2054.259)" fill="#283271"/>
          <path id="Trazado_119211" data-name="Trazado 119211" d="M2731.4,2254.652s4.4,14.228,18.234,15.914C2749.638,2270.566,2744.757,2255.632,2731.4,2254.652Z" transform="translate(-2668.537 -2164.963)" fill="#0c0a0b"/>
          <path id="Trazado_119212" data-name="Trazado 119212" d="M2561.33,2268.446l.976-9.088,48.625-1.668s8.047,7.561,8.24,10.757c0,0-2.632,3.832-6.039,4.434S2561.33,2268.446,2561.33,2268.446Z" transform="translate(-2538.948 -2167.277)" fill="#ffa1a8"/>
          <path id="Trazado_119213" data-name="Trazado 119213" d="M2731.4,2240.346s-.087-4.5,4.08-4.469c4.11.03,15.762,11.525,15.762,11.525s3.347,3.732-.37,5.384a2.452,2.452,0,0,1-1.239,3.474S2742.9,2242.772,2731.4,2240.346Z" transform="translate(-2668.537 -2150.657)" fill="#c1ccff"/>
          <path id="Trazado_119214" data-name="Trazado 119214" d="M2752.088,2137.59l-.449-.13c.309-1.069,7.577-26.217,8.943-29.29a2.593,2.593,0,0,1,1.733-1.452,3.771,3.771,0,0,1,2.873.329l-.264.386a3.373,3.373,0,0,0-2.482-.266,2.114,2.114,0,0,0-1.433,1.192C2759.656,2111.4,2752.164,2137.328,2752.088,2137.59Z" transform="translate(-2683.956 -2052.136)" fill="#0c0a0b"/>
          <path id="Trazado_119215" data-name="Trazado 119215" d="M2868.521,2336.506c-2.386-2.682-8.863-3.22-8.927-3.226l.037-.466c.273.021,6.729.558,9.24,3.381Z" transform="translate(-2766.213 -2224.519)" fill="#0c0a0b"/>
          <path id="Trazado_119216" data-name="Trazado 119216" d="M2564.479,2650.642l2.74,31.677s-30.6,10.654-54.543.775l-.275-30.179Z" transform="translate(-2501.666 -2466.692)" fill="#9b646a"/>
          <path id="Trazado_119217" data-name="Trazado 119217" d="M2566.028,2707.64l.211,2.708s-22.058,7.756-26.687,7.714-26.651-5.416-26.651-5.416l-.039-4.269Z" transform="translate(-2502.017 -2510.122)" fill="#0c0a0b"/>
          <path id="Trazado_119218" data-name="Trazado 119218" d="M2571.93,2566.364l-23.206,1.539-3.863,12.044,4.1,1.061,1.444-9.943,19.146-1.868,4.62,11.478,4.4-.506Z" transform="translate(-2526.399 -2402.475)" fill="#a0606e"/>
          <path id="Trazado_119219" data-name="Trazado 119219" d="M2566.028,2638.029l-1.919-21.747-51.134.7-.113,21.785s18.474,7.746,26.97,7.221S2566.028,2638.029,2566.028,2638.029Z" transform="translate(-2502.017 -2440.511)" fill="#a0606e"/>
          <path id="Trazado_119220" data-name="Trazado 119220" d="M2622.335,2727.682l.507,5.962s-3.193,2.77-6.319.567l-.455-6.312Z" transform="translate(-2580.656 -2525.393)" fill="#fbca8c"/>
          <path id="Trazado_119221" data-name="Trazado 119221" d="M2495.542,2619.218l-3.634,1.5-1.925,36.346,5.611,2.084Z" transform="translate(-2484.584 -2442.748)" fill="#0c0a0b"/>
          <path id="Trazado_119222" data-name="Trazado 119222" d="M2596.33,2536.738s-2.961,4.613-3.33,5.208,2.065,7.048,3.434,7.227,1.52-4.677,1.52-4.677l6.655-.441s2.713-3.493,1.248-7.3Z" transform="translate(-2563.051 -2379.902)" fill="#ffa1a8"/>
          <path id="Trazado_119223" data-name="Trazado 119223" d="M2612.466,2562.776a4.642,4.642,0,0,1,1.786-1.761c1.012-.409,1.89,1.517,1.89,1.517s.163-1.885.69-1.8,1.352,1.107,1.352,1.107.524-1.174,1.056-.875.641,5.549-.173,5.717a3.153,3.153,0,0,1-1.93-.657s-.533.922-1.254.971-1.134-.844-1.134-.844-1.4,1.409-1.847,1.126S2611.407,2564.07,2612.466,2562.776Z" transform="translate(-2577.563 -2398.183)" fill="#ffa1a8"/>
          <path id="Trazado_119224" data-name="Trazado 119224" d="M2610.492,2558.662l-.44-.159c.533-1.468-.4-3.647-.415-3.669l-.094-.215.216-.093c.9-.39,1.874-2.239,2.171-2.919l.429.188c-.044.1-1.041,2.352-2.211,3.055A6.134,6.134,0,0,1,2610.492,2558.662Z" transform="translate(-2575.685 -2391.23)" fill="#0c0a0b"/>
          <path id="Trazado_119225" data-name="Trazado 119225" d="M2617.963,2560.737l-.465-.045a.62.62,0,0,0-.149-.483,2.693,2.693,0,0,0-1.589-.595l.031-.467a3.187,3.187,0,0,1,1.915.759A1.081,1.081,0,0,1,2617.963,2560.737Z" transform="translate(-2580.42 -2396.977)" fill="#0c0a0b"/>
          <path id="Trazado_119226" data-name="Trazado 119226" d="M2623.008,2560.026l-.437-.168c.071-.185.717-1.812,1.488-2.033a.6.6,0,0,1,.485.07c.562.342.835,1.625.864,1.77l-.458.093a2.9,2.9,0,0,0-.648-1.463.131.131,0,0,0-.113-.02C2623.8,2558.388,2623.262,2559.367,2623.008,2560.026Z" transform="translate(-2585.612 -2395.952)" fill="#0c0a0b"/>
          <path id="Trazado_119227" data-name="Trazado 119227" d="M2634.622,2558.883c-.069-.526-.45-1.464-.941-1.464a.336.336,0,0,0-.044,0c-.48.055-.938.972-1.06,1.289l-.437-.168c.059-.152.6-1.489,1.444-1.585.918-.107,1.419,1.236,1.5,1.865Z" transform="translate(-2592.902 -2395.303)" fill="#0c0a0b"/>
          <path id="Trazado_119228" data-name="Trazado 119228" d="M2731.029,2103.926l-.341-.321c6.147-6.53,9.35-25.182,9.382-25.37l.461.078C2740.4,2079.084,2737.273,2097.292,2731.029,2103.926Z" transform="translate(-2667.992 -2030.541)" fill="#0c0a0b"/>
          <g id="Grupo_59842" data-name="Grupo 59842" transform="translate(56.746 25.604)">
            <g id="Grupo_59841" data-name="Grupo 59841">
              <path id="Trazado_119229" data-name="Trazado 119229" d="M2705.694,2075.56a34.389,34.389,0,0,0,7.543,19.147s3.874-11.735,4.5-18.876l-6.015.347Z" transform="translate(-2705.694 -2054.106)" fill="#93deff"/>
              <path id="Trazado_119230" data-name="Trazado 119230" d="M2717.742,2007.159l-1.06-21.726-10.927,1.191-.06,20.262s.892,4.077,6.024,4.077S2717.742,2007.159,2717.742,2007.159Z" transform="translate(-2705.694 -1985.433)" fill="#ff848e"/>
              <g id="Grupo_59840" data-name="Grupo 59840" transform="translate(0.012 7.951)">
                <g id="Grupo_59839" data-name="Grupo 59839">
                  <path id="Trazado_119231" data-name="Trazado 119231" d="M2705.745,2028.258l.011-3.952s4.846-.1,8.629-5.472C2714.386,2018.834,2713,2027.382,2705.745,2028.258Z" transform="translate(-2705.745 -2018.834)" fill="#0c0a0b"/>
                </g>
              </g>
            </g>
          </g>
          <g id="Grupo_59844" data-name="Grupo 59844" transform="translate(44.003 7.684)">
            <g id="Grupo_59843" data-name="Grupo 59843">
              <path id="Trazado_119232" data-name="Trazado 119232" d="M2652.175,1928.178a18.874,18.874,0,0,0,.3,2.632,16.452,16.452,0,0,0,1.346,4.168,10.906,10.906,0,0,0,8.542,6.516c4.424.541,8.725-1.963,11.173-5.719,4.436-6.79,5.593-19.726-2.307-24.332a9.341,9.341,0,0,0-2.723-1.072c-4.382-.965-9.04,1.338-12.05,4.834A18.921,18.921,0,0,0,2652.175,1928.178Z" transform="translate(-2652.16 -1910.151)" fill="#ff848e"/>
            </g>
          </g>
          <path id="Trazado_119233" data-name="Trazado 119233" d="M2693.159,1970.9a.233.233,0,0,1-.135-.043,3.513,3.513,0,0,0-2.855-.542.234.234,0,0,1-.114-.454,3.986,3.986,0,0,1,3.24.615.234.234,0,0,1-.136.424Z" transform="translate(-2636.896 -1947.88)" fill="#0c0a0b"/>
          <path id="Trazado_119234" data-name="Trazado 119234" d="M2667.871,1970.9a.233.233,0,0,1-.135-.044,3.512,3.512,0,0,0-2.855-.542.234.234,0,1,1-.114-.454,3.985,3.985,0,0,1,3.24.615.234.234,0,0,1-.136.425Z" transform="translate(-2617.627 -1947.879)" fill="#0c0a0b"/>
          <g id="Grupo_59845" data-name="Grupo 59845" transform="translate(53.495 24.157)">
            <path id="Trazado_119235" data-name="Trazado 119235" d="M2692.035,1980.266a.936.936,0,1,0,.961-.91A.936.936,0,0,0,2692.035,1980.266Z" transform="translate(-2692.034 -1979.355)" fill="#0c0a0b"/>
          </g>
          <g id="Grupo_59846" data-name="Grupo 59846" transform="translate(47.802 24.003)">
            <path id="Trazado_119236" data-name="Trazado 119236" d="M2668.12,1979.618a.936.936,0,1,0,.961-.911A.936.936,0,0,0,2668.12,1979.618Z" transform="translate(-2668.12 -1978.707)" fill="#0c0a0b"/>
          </g>
          <path id="Trazado_119237" data-name="Trazado 119237" d="M2673.408,1998.46a1.226,1.226,0,0,1-.414.6,2.8,2.8,0,0,1-.627.379c-.217.1-.443.182-.643.271a1.131,1.131,0,0,0-.242.136c-.023.021-.017.028-.013.009a.017.017,0,0,0,0-.005v.034a.215.215,0,0,0,.007.044c.024.112.175.244.356.34a3.545,3.545,0,0,0,.6.253c.429.141.88.255,1.338.386a4.487,4.487,0,0,1-1.43-.024,2.964,2.964,0,0,1-.714-.214,1.488,1.488,0,0,1-.346-.221.807.807,0,0,1-.258-.4.737.737,0,0,1-.021-.129v-.1l.007-.048a.47.47,0,0,1,.175-.277,1.222,1.222,0,0,1,.375-.189c.235-.08.457-.137.677-.2A2.206,2.206,0,0,0,2673.408,1998.46Z" transform="translate(-2622.517 -1969.755)" fill="#0c0a0b"/>
          <path id="Trazado_119238" data-name="Trazado 119238" d="M2698.637,1996.76c-.167,1.267,1.187,2.49,3.024,2.732s3.461-.59,3.627-1.857-1.187-2.49-3.024-2.732S2698.8,1995.493,2698.637,1996.76Z" transform="translate(-2643.56 -1967.013)" fill="#f2727c"/>
          <path id="Trazado_119239" data-name="Trazado 119239" d="M2653.466,1996.922a16.461,16.461,0,0,0,1.346,4.168,2.521,2.521,0,0,0,1.532-2.634C2656.081,1997.446,2654.88,1996.851,2653.466,1996.922Z" transform="translate(-2609.152 -1968.579)" fill="#f2727c"/>
          <path id="Trazado_119240" data-name="Trazado 119240" d="M2677.2,2019.214s2.364,4.6,5.437-.5Z" transform="translate(-2627.236 -1985.19)" fill="#fff"/>
          <g id="Grupo_59848" data-name="Grupo 59848" transform="translate(65.958 22.62)">
            <g id="Grupo_59847" data-name="Grupo 59847">
              <path id="Trazado_119241" data-name="Trazado 119241" d="M2744.393,1981.352a4.811,4.811,0,0,0,4.825-.073,5.227,5.227,0,0,0,2.253-4.339,4.237,4.237,0,0,0-2.093-3.776,3,3,0,0,0-3.874,1.286Z" transform="translate(-2744.393 -1972.897)" fill="#ff848e"/>
            </g>
          </g>
          <path id="Trazado_119242" data-name="Trazado 119242" d="M2753.794,1985.359a5.963,5.963,0,0,0,.761-.433,4.091,4.091,0,0,0,.638-.555,2.342,2.342,0,0,0,.66-1.428,1.72,1.72,0,0,0-.593-1.387,3.3,3.3,0,0,0-1.528-.714,2.535,2.535,0,0,1,1.756.429,1.931,1.931,0,0,1,.832,1.7,2.422,2.422,0,0,1-.874,1.664,3.227,3.227,0,0,1-.78.493A3.264,3.264,0,0,1,2753.794,1985.359Z" transform="translate(-2685.55 -1956.318)" fill="#0c0a0b"/>
          <path id="Trazado_119243" data-name="Trazado 119243" d="M2651.769,1908.357s.852,5.915,4.846,8.541,11.033,2.914,12.241,2.553-1.639-4.306-1.639-4.306,6.073,3.258,8.583,1.446S2675.446,1899.743,2651.769,1908.357Z" transform="translate(-2607.859 -1899.085)" fill="#0c0a0b"/>
          <path id="Trazado_119244" data-name="Trazado 119244" d="M2739.658,1927.9s-3.5,7.742-2.826,9.871c.585,1.838,4.57.978,4.57.978S2745.62,1930.481,2739.658,1927.9Z" transform="translate(-2672.608 -1915.992)" fill="#0c0a0b"/>
        </g>
      </g>
      <g id="Grupo_59865" data-name="Grupo 59865" transform="translate(1766.296 1741.265)">
        <g id="Grupo_59853" data-name="Grupo 59853" transform="translate(0 51.591)">
          <g id="Grupo_59852" data-name="Grupo 59852" clip-path="url(#clip-path-2)">
            <g id="Grupo_59851" data-name="Grupo 59851" transform="translate(24.421 72.208)">
              <path id="Trazado_119245" data-name="Trazado 119245" d="M1896.78,2389.737s-18.311,9.373-27.891,57.261h72.545l7.256-57.261Z" transform="translate(-1868.889 -2389.555)" fill="#69b1ed"/>
              <rect id="Rectángulo_7187" data-name="Rectángulo 7187" width="56.125" height="0.468" transform="translate(23.196 3.739)" fill="#0c0a0b"/>
              <rect id="Rectángulo_7188" data-name="Rectángulo 7188" width="23.907" height="0.624" transform="translate(45.651 57.401) rotate(-82.374)" fill="#fff" opacity="0.2"/>
              <path id="Trazado_119246" data-name="Trazado 119246" d="M1902.837,2446.45l-.62-.068c1.751-15.893,7.772-30.654,12.516-40.239a136.724,136.724,0,0,1,9.976-17.17l.507.364a136.1,136.1,0,0,0-9.93,17.094C1910.567,2415.969,1904.577,2430.653,1902.837,2446.45Z" transform="translate(-1894.284 -2388.974)" fill="#fff" opacity="0.2"/>
              <path id="Trazado_119247" data-name="Trazado 119247" d="M2040.678,2498.265s-6.792,18.706-15.722,31.427h-3.61l5.564-23.2S2036.792,2502.807,2040.678,2498.265Z" transform="translate(-1985.055 -2472.25)" fill="#0c0a0b"/>
              <path id="Trazado_119248" data-name="Trazado 119248" d="M2115.324,2409.333l.266-.481c2.712-4.9,5.062-19.13,5.086-19.273l.462.075c-.093.568-2.234,13.532-4.859,18.889a13.729,13.729,0,0,0,4.449-3.135c2.421-2.471,5.57-7.222,6.827-15.825l.463.067c-1.278,8.75-4.5,13.591-6.981,16.111a12.651,12.651,0,0,1-5.181,3.43Z" transform="translate(-2056.663 -2389.435)" fill="#0c0a0b"/>
            </g>
          </g>
        </g>
        <g id="Grupo_59864" data-name="Grupo 59864" transform="translate(20.846)">
          <path id="Trazado_119249" data-name="Trazado 119249" d="M2400.285,2247.285s5.235,9.567-2.91,15.6A12.775,12.775,0,0,1,2400.285,2247.285Z" transform="translate(-2266.867 -2157.214)" fill="#0c0a0b"/>
          <path id="Trazado_119250" data-name="Trazado 119250" d="M2460.67,2251.722l2.3-.349s1.813,3.208,2.719,3.208,1.116-3.208.558-4.114-3.277-3.556-4.393-3.138-13.448,4.1-13.448,4.1l.977,9.088a4.968,4.968,0,0,0,3.612.923,3.066,3.066,0,0,1,.845-2.389C2455.066,2257.647,2460.67,2251.722,2460.67,2251.722Z" transform="translate(-2306.883 -2157.214)" fill="#ff848e"/>
          <path id="Trazado_119251" data-name="Trazado 119251" d="M1993.525,2073.909s14.253.354,15.75,1.851-8.678,40.4-8.678,44.9c0,2.264,6.991,15.464,8.833,18.457s-3.16,9.977-3.16,9.977h-61.814s13.813-60.422,17.368-65.473,13.86-8.429,19.655-9.436Z" transform="translate(-1922.892 -2025.108)" fill="#93deff"/>
          <path id="Trazado_119252" data-name="Trazado 119252" d="M2099.466,2059.872s3.29.342,4.076,1.394-.841,11.458-3.581,14.4l-5.373-3.871-5.264,5.118s-6.136-6.976-5.8-11.512c.314-4.281,4.122-6.975,4.122-6.975Z" transform="translate(-2028.845 -2013.311)" fill="#c1ecff"/>
          <path id="Trazado_119253" data-name="Trazado 119253" d="M1877.74,2090.9l18.081,66.811s35.073-2.765,44.056-16.307l-23.517-65.089S1885.263,2090.271,1877.74,2090.9Z" transform="translate(-1872.058 -2026.942)" fill="#fe7682"/>
          <path id="Trazado_119254" data-name="Trazado 119254" d="M1909.134,2099.8l21.35,65.839s34.894-4.49,43.2-18.457l-26.695-63.852S1916.617,2098.8,1909.134,2099.8Z" transform="translate(-1895.979 -2032.289)" fill="#382b71"/>
          <path id="Trazado_119255" data-name="Trazado 119255" d="M2103.289,1879.283s3.446-3.842,8.159-3.842c3.54,0,10.257,8.773,11.18,15.633,1.122,8.338-3.554,18.5-20.577,13.987C2080.2,1899.269,2095.129,1883.126,2103.289,1879.283Z" transform="translate(-2034.312 -1873.884)" fill="#fbca8c"/>
          <g id="Grupo_59855" data-name="Grupo 59855" transform="translate(58.523 9.82)">
            <g id="Grupo_59854" data-name="Grupo 59854">
              <path id="Trazado_119256" data-name="Trazado 119256" d="M2124.56,1928.178a18.911,18.911,0,0,1-.3,2.632,16.451,16.451,0,0,1-1.346,4.168,10.906,10.906,0,0,1-8.542,6.516c-4.423.541-8.725-1.963-11.172-5.719-4.436-6.79-5.593-19.726,2.307-24.332a9.337,9.337,0,0,1,2.722-1.072c4.382-.965,9.04,1.338,12.05,4.834A18.921,18.921,0,0,1,2124.56,1928.178Z" transform="translate(-2099.721 -1910.151)" fill="#ff848e"/>
            </g>
          </g>
          <path id="Trazado_119257" data-name="Trazado 119257" d="M2151.881,1970.9a.234.234,0,0,1-.136-.425,3.985,3.985,0,0,1,3.24-.615.234.234,0,0,1-.113.454,3.514,3.514,0,0,0-2.856.542A.232.232,0,0,1,2151.881,1970.9Z" transform="translate(-2080.764 -1945.744)" fill="#fbca8c"/>
          <path id="Trazado_119258" data-name="Trazado 119258" d="M2177.168,1970.9a.234.234,0,0,1-.136-.425,3.986,3.986,0,0,1,3.24-.615.234.234,0,1,1-.113.454,3.513,3.513,0,0,0-2.855.542A.234.234,0,0,1,2177.168,1970.9Z" transform="translate(-2100.032 -1945.744)" fill="#fbca8c"/>
          <g id="Grupo_59859" data-name="Grupo 59859" transform="translate(39.866)">
            <g id="Grupo_59858" data-name="Grupo 59858">
              <path id="Trazado_119259" data-name="Trazado 119259" d="M2100.988,1985.433l-1.06,21.726c-.245,4.011,2.03,7.409,5.191,7.754h0c3.651.4,6.9-3.4,6.857-8.026l-.061-20.262Z" transform="translate(-2081.209 -1957.693)" fill="#ff848e"/>
              <g id="Grupo_59857" data-name="Grupo 59857" transform="translate(22.115 35.69)">
                <g id="Grupo_59856" data-name="Grupo 59856">
                  <path id="Trazado_119260" data-name="Trazado 119260" d="M2122.89,2028.258l-.012-3.952s-4.846-.1-8.629-5.472C2114.249,2018.834,2115.638,2027.382,2122.89,2028.258Z" transform="translate(-2114.249 -2018.834)" fill="#0c0a0b"/>
                </g>
              </g>
              <path id="Trazado_119261" data-name="Trazado 119261" d="M2044.187,1868.9c-3.967.2-19.231,13.832-19.231,24.235,0,8.366,12.154,17.856,9.313,20.565s-12.923,11.475-12.923,17.835,17.972,5.238,18.152,9.728a6.959,6.959,0,0,1-3.675,6.36s11.422-1.87,10.257-9.353-7.628-5.238-7.763-8.6,15.539-9.28,2.511-26.947l.962-7.515s8.813-1.081,12.33-9.218S2049.842,1868.624,2044.187,1868.9Z" transform="translate(-2021.346 -1868.899)" fill="#fbca8c"/>
            </g>
          </g>
          <g id="Grupo_59860" data-name="Grupo 59860" transform="translate(72.012 26.293)">
            <path id="Trazado_119262" data-name="Trazado 119262" d="M2158.264,1980.266a.936.936,0,1,1-.961-.91A.936.936,0,0,1,2158.264,1980.266Z" transform="translate(-2156.391 -1979.355)" fill="#0c0a0b"/>
          </g>
          <g id="Grupo_59861" data-name="Grupo 59861" transform="translate(77.705 26.139)">
            <path id="Trazado_119263" data-name="Trazado 119263" d="M2182.179,1979.618a.936.936,0,1,1-.961-.911A.936.936,0,0,1,2182.179,1979.618Z" transform="translate(-2180.307 -1978.707)" fill="#0c0a0b"/>
          </g>
          <path id="Trazado_119264" data-name="Trazado 119264" d="M2174.019,1998.46a2.205,2.205,0,0,0,1.166.644c.22.063.441.12.677.2a1.218,1.218,0,0,1,.375.189.468.468,0,0,1,.175.277l.007.048v.1a.694.694,0,0,1-.02.129.8.8,0,0,1-.258.4,1.487,1.487,0,0,1-.346.221,2.962,2.962,0,0,1-.715.214,4.485,4.485,0,0,1-1.43.024c.458-.131.909-.245,1.338-.386a3.542,3.542,0,0,0,.6-.253c.181-.1.333-.228.356-.34a.2.2,0,0,0,.008-.044v-.034a.027.027,0,0,0,0,.005c0,.019.011.012-.013-.009a1.119,1.119,0,0,0-.242-.136c-.2-.089-.426-.167-.643-.271a2.788,2.788,0,0,1-.627-.379A1.226,1.226,0,0,1,2174.019,1998.46Z" transform="translate(-2097.529 -1967.619)" fill="#0c0a0b"/>
          <path id="Trazado_119265" data-name="Trazado 119265" d="M2136.273,1996.76c.167,1.267-1.187,2.49-3.024,2.732s-3.461-.59-3.628-1.857,1.187-2.49,3.024-2.732S2136.107,1995.493,2136.273,1996.76Z" transform="translate(-2063.971 -1964.877)" fill="#f2727c"/>
          <path id="Trazado_119266" data-name="Trazado 119266" d="M2193.447,1996.922a16.461,16.461,0,0,1-1.346,4.168,2.521,2.521,0,0,1-1.532-2.634C2190.832,1997.446,2192.032,1996.851,2193.447,1996.922Z" transform="translate(-2110.381 -1966.443)" fill="#f2727c"/>
          <path id="Trazado_119267" data-name="Trazado 119267" d="M2161.688,2019.214s-2.364,4.6-5.437-.5Z" transform="translate(-2084.272 -1983.054)" fill="#fff"/>
          <g id="Grupo_59863" data-name="Grupo 59863" transform="translate(54.344 24.756)">
            <g id="Grupo_59862" data-name="Grupo 59862">
              <path id="Trazado_119268" data-name="Trazado 119268" d="M2089.244,1981.352a4.811,4.811,0,0,1-4.826-.073,5.226,5.226,0,0,1-2.252-4.339,4.236,4.236,0,0,1,2.093-3.776,3,3,0,0,1,3.875,1.286Z" transform="translate(-2082.166 -1972.897)" fill="#ff848e"/>
            </g>
          </g>
          <path id="Trazado_119269" data-name="Trazado 119269" d="M2094.208,1985.359a3.026,3.026,0,0,1-1.652-.726,2.424,2.424,0,0,1-.874-1.664,1.931,1.931,0,0,1,.832-1.7,2.535,2.535,0,0,1,1.756-.429,3.3,3.3,0,0,0-1.528.714,1.717,1.717,0,0,0-.593,1.387,2.339,2.339,0,0,0,.66,1.428,4.065,4.065,0,0,0,.637.555A6,6,0,0,0,2094.208,1985.359Z" transform="translate(-2035.072 -1954.182)" fill="#0c0a0b"/>
          <path id="Trazado_119270" data-name="Trazado 119270" d="M1968.608,2266.7s11.306,9.947,5.986,15.713C1974.594,2282.412,1963.744,2277.175,1968.608,2266.7Z" transform="translate(-1940.34 -2172.007)" fill="#0c0a0b"/>
          <path id="Trazado_119271" data-name="Trazado 119271" d="M1995.913,2225.548l-29.577,12.29s1.746,8.979,6.485,11.723l27.98-16.288Z" transform="translate(-1939.564 -2140.652)" fill="#ff848e"/>
          <path id="Trazado_119272" data-name="Trazado 119272" d="M2343.218,2258.212l-31.965-2.026s-2.4,8.828.646,13.381l32.3-2.267Z" transform="translate(-2201.694 -2163.996)" fill="#ff848e"/>
          <path id="Trazado_119273" data-name="Trazado 119273" d="M1865.006,2222.122s-18.786,20.089-7.562,28.32c5.14,3.769,30.679-2,30.679-2s-7.981-11.224-5.986-15.713l-13.631,2.157Z" transform="translate(-1853.868 -2138.041)" fill="#93deff"/>
          <path id="Trazado_119274" data-name="Trazado 119274" d="M2090.588,2200.221a29.314,29.314,0,0,1,4.094-5c.423-.375,7.152-3.383,7.552-2.849s-.279,1.789-.846,2.2c0,0,.527,1.081.384,1.365a6.108,6.108,0,0,0-.258,1.212s.847.074.73.668-.254,1.23-.254,1.23,1.155.659,1.281,1.049c.378,1.168-2.443,6.405-7.8,7.846Z" transform="translate(-2034.239 -2115.325)" fill="#ff848e"/>
          <rect id="Rectángulo_7190" data-name="Rectángulo 7190" width="5.718" height="0.468" transform="translate(8.961 97.579) rotate(-9.668)" fill="#0c0a0b"/>
          <path id="Trazado_119275" data-name="Trazado 119275" d="M2185.194,2081.66c4.409.236,15.963,39.42,15.963,39.42h31.072a50.813,50.813,0,0,0-2.91,15.6s-30.781,0-35.271.374-15.142-21.738-18.1-31.3C2173.69,2098.453,2177.836,2081.267,2185.194,2081.66Z" transform="translate(-2098.811 -2031.009)" fill="#93deff"/>
          <path id="Trazado_119276" data-name="Trazado 119276" d="M2190.664,2170.139s7.148-4.417,6.774-14.509c0,0,4.489,14.342-2.123,24.368Z" transform="translate(-2110.493 -2087.377)" fill="#0c0a0b"/>
          <path id="Trazado_119277" data-name="Trazado 119277" d="M2166.809,2242.942c-.631-1.48-3.77-8.911-3.543-9.867.1-.431.54-.6,1.169-.455.917.214,2.122,1.081,1.922,1.955l-.456-.1c.115-.5-.788-1.212-1.572-1.4-.092-.021-.555-.117-.608.107-.132.555,1.714,5.348,3.519,9.575Z" transform="translate(-2089.608 -2146.001)" fill="#0c0a0b"/>
          <rect id="Rectángulo_7191" data-name="Rectángulo 7191" width="5.455" height="0.468" transform="matrix(0.532, -0.847, 0.847, 0.532, 99.249, 94.567)" fill="#0c0a0b"/>
          <path id="Trazado_119278" data-name="Trazado 119278" d="M1953.276,2286.61c-4.544-6.418-3.786-16.413-3.777-16.513l.466.038c-.008.1-.752,9.927,3.693,16.2Z" transform="translate(-1926.695 -2174.596)" fill="#0c0a0b"/>
          <path id="Trazado_119279" data-name="Trazado 119279" d="M2379.1,2262.59c-1.528-6.732,1.507-15.541,1.538-15.629l.442.154c-.03.087-3.021,8.772-1.523,15.372Z" transform="translate(-2253.746 -2156.967)" fill="#0c0a0b"/>
        </g>
      </g>
      <g id="Grupo_59867" data-name="Grupo 59867" transform="translate(2011.458 1770.823)">
        <g id="Grupo_59866" data-name="Grupo 59866" transform="translate(0 0)">
          <path id="Trazado_119280" data-name="Trazado 119280" d="M2835.51,2026.365h-32.97l-6.323-18.615h32.97Zm-32.635-.468h31.982l-6.005-17.679h-31.982Z" transform="translate(-2796.218 -2004.256)" fill="#382b71"/>
          <path id="Trazado_119281" data-name="Trazado 119281" d="M2825.338,1993.072l6.164,18.147h32.476l-6.164-18.147Z" transform="translate(-2818.406 -1993.072)" fill="#c1ecff"/>
          <path id="Trazado_119282" data-name="Trazado 119282" d="M2944.4,2077.031l10.3-7.725h-10.3Z" transform="translate(-2909.13 -2051.16)" fill="#c1ccff"/>
        </g>
      </g>
      <rect id="Rectángulo_7192" data-name="Rectángulo 7192" width="6.169" height="1.468" transform="translate(2046.269 1780.689)" fill="#fefefe"/>
      <rect id="Rectángulo_7193" data-name="Rectángulo 7193" width="10.857" height="1.468" transform="translate(2041.58 1784.312)" fill="#fefefe"/>
      <path id="Trazado_119283" data-name="Trazado 119283" d="M1878.268,1870.857a19.2,19.2,0,1,1,19.2-19.2A19.223,19.223,0,0,1,1878.268,1870.857Zm0-37.936A18.734,18.734,0,1,0,1897,1851.656,18.755,18.755,0,0,0,1878.268,1832.921Z" transform="translate(-70.688 -99.865)" fill="#382b71"/>
      <circle id="Elipse_4616" data-name="Elipse 4616" cx="18.968" cy="18.968" r="18.968" transform="translate(1781.99 1729.297)" fill="#dbf7ff"/>
      <path id="Trazado_119284" data-name="Trazado 119284" d="M1939.374,1941.406l13.41,6.393-5.834-13.753Z" transform="translate(-131.878 -177.274)" fill="#dbe3ff"/>
      <g id="Grupo_59868" data-name="Grupo 59868" transform="translate(1791.071 1738.378)">
        <path id="Trazado_119285" data-name="Trazado 119285" d="M1880.259,1876.545a9.893,9.893,0,1,1,9.887-9.887A9.885,9.885,0,0,1,1880.259,1876.545Z" transform="translate(-1870.372 -1856.772)" fill="#f2727c"/>
        <path id="Trazado_119286" data-name="Trazado 119286" d="M1911.906,1866.659v-9.887a9.9,9.9,0,0,1,8.7,5.184Z" transform="translate(-1902.019 -1856.772)" fill="#fefefe"/>
        <path id="Trazado_119287" data-name="Trazado 119287" d="M1921.793,1883.252h-9.887l8.7-4.7A9.858,9.858,0,0,1,1921.793,1883.252Z" transform="translate(-1902.019 -1873.365)" fill="#382b71"/>
      </g>
    </g>
  </g>
</svg>
