<svg xmlns="http://www.w3.org/2000/svg" xmlns:xlink="http://www.w3.org/1999/xlink" width="1022.275" height="288.979" viewBox="0 0 1022.275 288.979">
  <defs>
    <filter id="Elipse_4141" x="657.608" y="21.023" width="140.284" height="141.284" filterUnits="userSpaceOnUse">
      <feOffset dy="10" input="SourceAlpha"/>
      <feGaussianBlur stdDeviation="3" result="blur"/>
      <feFlood flood-opacity="0.2"/>
      <feComposite operator="in" in2="blur"/>
      <feComposite in="SourceGraphic"/>
    </filter>
    <filter id="Elipse_4142" x="873.39" y="21.011" width="140.284" height="141.284" filterUnits="userSpaceOnUse">
      <feOffset dy="10" input="SourceAlpha"/>
      <feGaussianBlur stdDeviation="3" result="blur-2"/>
      <feFlood flood-opacity="0.2"/>
      <feComposite operator="in" in2="blur-2"/>
      <feComposite in="SourceGraphic"/>
    </filter>
    <filter id="Elipse_4143" x="11.855" y="20.855" width="140.284" height="141.284" filterUnits="userSpaceOnUse">
      <feOffset dy="10" input="SourceAlpha"/>
      <feGaussianBlur stdDeviation="3" result="blur-3"/>
      <feFlood flood-opacity="0.2"/>
      <feComposite operator="in" in2="blur-3"/>
      <feComposite in="SourceGraphic"/>
    </filter>
    <filter id="Elipse_4144" x="442.82" y="21.012" width="140.284" height="141.284" filterUnits="userSpaceOnUse">
      <feOffset dy="10" input="SourceAlpha"/>
      <feGaussianBlur stdDeviation="3" result="blur-4"/>
      <feFlood flood-opacity="0.2"/>
      <feComposite operator="in" in2="blur-4"/>
      <feComposite in="SourceGraphic"/>
    </filter>
    <filter id="Elipse_4145" x="227.141" y="20.934" width="140.284" height="141.284" filterUnits="userSpaceOnUse">
      <feOffset dy="10" input="SourceAlpha"/>
      <feGaussianBlur stdDeviation="3" result="blur-5"/>
      <feFlood flood-opacity="0.2"/>
      <feComposite operator="in" in2="blur-5"/>
      <feComposite in="SourceGraphic"/>
    </filter>
  </defs>
  <g id="Grupo_57306" data-name="Grupo 57306" transform="translate(-285 -476.069)">
    <path id="Trazado_120894" data-name="Trazado 120894" d="M23.328,11.151a4.536,4.536,0,0,1-.209,1.441A3.42,3.42,0,0,1,22.39,13.7l-.754.777a2.177,2.177,0,0,0-.659,1.489A1.358,1.358,0,0,0,21.336,17a1.409,1.409,0,0,0,1.011.341,1.442,1.442,0,0,0,1.033-.367A1.28,1.28,0,0,0,23.767,16h1.78a2.635,2.635,0,0,1-.89,2.06,3.37,3.37,0,0,1-2.3.762,3.4,3.4,0,0,1-2.336-.737A2.646,2.646,0,0,1,19.2,16a3.527,3.527,0,0,1,1.135-2.4l.674-.682a2.034,2.034,0,0,0,.645-1.371l.015-.389Zm.146-2.274a.952.952,0,0,1-.26.682.977.977,0,0,1-.743.274.989.989,0,0,1-.747-.274,1,1,0,0,1,0-1.357.989.989,0,0,1,.747-.274.977.977,0,0,1,.743.274A.942.942,0,0,1,23.474,8.877Zm12.092,2.069a6.583,6.583,0,0,1-.48,2.626,4.277,4.277,0,0,1-1.344,1.761l1.831,1.428-1.2,1.084L32.1,16.051a4.6,4.6,0,0,1-.959.1,4.258,4.258,0,0,1-2.3-.634,4.161,4.161,0,0,1-1.567-1.805,6.338,6.338,0,0,1-.56-2.7v-.6a6.487,6.487,0,0,1,.553-2.754,4.156,4.156,0,0,1,1.56-1.827,4.234,4.234,0,0,1,2.3-.634,4.312,4.312,0,0,1,2.325.626,4.1,4.1,0,0,1,1.556,1.8,6.473,6.473,0,0,1,.557,2.736Zm-1.86-.557a4.631,4.631,0,0,0-.674-2.732,2.213,2.213,0,0,0-1.9-.93,2.179,2.179,0,0,0-1.871.941,4.557,4.557,0,0,0-.692,2.655v.623a4.677,4.677,0,0,0,.677,2.7,2.368,2.368,0,0,0,3.8.037,4.726,4.726,0,0,0,.663-2.739Zm8.372,4.834a2.76,2.76,0,0,1-2.227.923,2.46,2.46,0,0,1-1.952-.754,3.209,3.209,0,0,1-.663-2.183V8.075h1.78v5.112q0,1.509,1.252,1.509a1.759,1.759,0,0,0,1.75-.93V8.075H43.8V16H42.122Zm7.024.923a3.682,3.682,0,0,1-2.743-1.066,3.866,3.866,0,0,1-1.051-2.838v-.22a4.755,4.755,0,0,1,.458-2.12,3.484,3.484,0,0,1,1.285-1.454,3.4,3.4,0,0,1,1.846-.52,3.11,3.11,0,0,1,2.5,1.033,4.367,4.367,0,0,1,.883,2.922V12.6H47.1a2.38,2.38,0,0,0,.656,1.553,1.968,1.968,0,0,0,1.447.571,2.41,2.41,0,0,0,1.992-.989l.959.916a3.2,3.2,0,0,1-1.271,1.1A3.978,3.978,0,0,1,49.1,16.146Zm-.212-6.79a1.5,1.5,0,0,0-1.183.513,2.657,2.657,0,0,0-.575,1.428h3.391v-.132a2.163,2.163,0,0,0-.476-1.351A1.487,1.487,0,0,0,48.889,9.357Zm.4-4.607h2.029L49.292,6.969l-1.428,0Zm12.546,9.1a.807.807,0,0,0-.392-.725,4.167,4.167,0,0,0-1.3-.439,6.683,6.683,0,0,1-1.516-.483A2.023,2.023,0,0,1,57.3,10.331a2.109,2.109,0,0,1,.864-1.714,3.417,3.417,0,0,1,2.2-.688,3.555,3.555,0,0,1,2.3.7,2.231,2.231,0,0,1,.875,1.824h-1.78A1.1,1.1,0,0,0,61.37,9.6a1.46,1.46,0,0,0-1.011-.341,1.577,1.577,0,0,0-.956.271.854.854,0,0,0-.37.725.721.721,0,0,0,.344.637,4.734,4.734,0,0,0,1.392.458,6.587,6.587,0,0,1,1.644.549,2.328,2.328,0,0,1,.886.765,1.952,1.952,0,0,1,.289,1.084,2.065,2.065,0,0,1-.886,1.732,3.779,3.779,0,0,1-2.322.663,4.1,4.1,0,0,1-1.736-.352,2.857,2.857,0,0,1-1.187-.967,2.288,2.288,0,0,1-.425-1.326h1.729a1.254,1.254,0,0,0,.476.97,1.85,1.85,0,0,0,1.165.341,1.8,1.8,0,0,0,1.069-.267A.827.827,0,0,0,61.839,13.847Zm6.79,2.3a3.682,3.682,0,0,1-2.743-1.066,3.866,3.866,0,0,1-1.051-2.838v-.22a4.755,4.755,0,0,1,.458-2.12,3.484,3.484,0,0,1,1.285-1.454,3.4,3.4,0,0,1,1.846-.52,3.11,3.11,0,0,1,2.5,1.033,4.367,4.367,0,0,1,.883,2.922V12.6H66.629a2.38,2.38,0,0,0,.656,1.553,1.968,1.968,0,0,0,1.447.571,2.41,2.41,0,0,0,1.992-.989l.959.916a3.2,3.2,0,0,1-1.271,1.1A3.978,3.978,0,0,1,68.628,16.146Zm-.212-6.79a1.5,1.5,0,0,0-1.183.513,2.657,2.657,0,0,0-.575,1.428h3.391v-.132a2.163,2.163,0,0,0-.476-1.351A1.487,1.487,0,0,0,68.416,9.357Zm11.3,4.387,1.677-5.669h1.838L80.486,16H78.941L76.172,8.075h1.846ZM88.968,16a2.747,2.747,0,0,1-.205-.74,2.994,2.994,0,0,1-4.028.205,2.179,2.179,0,0,1-.754-1.685,2.25,2.25,0,0,1,.941-1.945,4.561,4.561,0,0,1,2.692-.677H88.7v-.52a1.388,1.388,0,0,0-.344-.985,1.365,1.365,0,0,0-1.047-.37,1.568,1.568,0,0,0-1,.3.941.941,0,0,0-.388.773h-1.78a1.975,1.975,0,0,1,.432-1.219,2.879,2.879,0,0,1,1.176-.89,4.129,4.129,0,0,1,1.659-.322,3.325,3.325,0,0,1,2.219.7,2.494,2.494,0,0,1,.85,1.967v3.574a4.051,4.051,0,0,0,.3,1.707V16Zm-1.956-1.282A2.025,2.025,0,0,0,88,14.462a1.713,1.713,0,0,0,.7-.688V12.279h-.959a2.624,2.624,0,0,0-1.487.344,1.115,1.115,0,0,0-.5.974,1.04,1.04,0,0,0,.341.817A1.319,1.319,0,0,0,87.012,14.718ZM100.818,16a2.747,2.747,0,0,1-.205-.74,2.994,2.994,0,0,1-4.028.205,2.179,2.179,0,0,1-.754-1.685,2.25,2.25,0,0,1,.941-1.945,4.561,4.561,0,0,1,2.692-.677h1.091v-.52a1.388,1.388,0,0,0-.344-.985,1.365,1.365,0,0,0-1.047-.37,1.568,1.568,0,0,0-1,.3.941.941,0,0,0-.388.773H96a1.975,1.975,0,0,1,.432-1.219,2.879,2.879,0,0,1,1.176-.89,4.129,4.129,0,0,1,1.659-.322,3.325,3.325,0,0,1,2.219.7,2.494,2.494,0,0,1,.85,1.967v3.574a4.051,4.051,0,0,0,.3,1.707V16Zm-1.956-1.282a2.025,2.025,0,0,0,.992-.256,1.713,1.713,0,0,0,.7-.688V12.279h-.959a2.624,2.624,0,0,0-1.487.344,1.115,1.115,0,0,0-.5.974,1.04,1.04,0,0,0,.341.817A1.319,1.319,0,0,0,98.863,14.718Zm-60.6,18.026,1.677-5.669h1.838L39.027,35H37.482l-2.769-7.925h1.846Zm8.115,2.4a3.682,3.682,0,0,1-2.743-1.066,3.866,3.866,0,0,1-1.051-2.838v-.22a4.755,4.755,0,0,1,.458-2.12,3.484,3.484,0,0,1,1.285-1.454,3.4,3.4,0,0,1,1.846-.52,3.11,3.11,0,0,1,2.5,1.033,4.367,4.367,0,0,1,.883,2.922V31.6H44.374a2.38,2.38,0,0,0,.656,1.553,1.968,1.968,0,0,0,1.447.571,2.41,2.41,0,0,0,1.992-.989l.959.916a3.2,3.2,0,0,1-1.271,1.1A3.978,3.978,0,0,1,46.374,35.146Zm-.212-6.79a1.5,1.5,0,0,0-1.183.513A2.657,2.657,0,0,0,44.4,30.3h3.391v-.132a2.163,2.163,0,0,0-.476-1.351A1.487,1.487,0,0,0,46.161,28.357Zm6.423-1.282.051.916a2.849,2.849,0,0,1,2.307-1.062q2.476,0,2.52,2.834V35h-1.78V29.866a1.632,1.632,0,0,0-.326-1.117,1.371,1.371,0,0,0-1.066-.363,1.715,1.715,0,0,0-1.6.974V35h-1.78V27.075Zm6.357,3.9a4.712,4.712,0,0,1,.85-2.941,2.722,2.722,0,0,1,2.278-1.11,2.587,2.587,0,0,1,2.036.879V23.75h1.78V35H64.274l-.088-.82a2.624,2.624,0,0,1-2.131.967A2.707,2.707,0,0,1,59.8,34.026,4.884,4.884,0,0,1,58.942,30.979Zm1.78.154a3.3,3.3,0,0,0,.465,1.886,1.509,1.509,0,0,0,1.322.677,1.681,1.681,0,0,0,1.6-.974V29.338a1.655,1.655,0,0,0-1.582-.952,1.52,1.52,0,0,0-1.333.685A3.674,3.674,0,0,0,60.722,31.133Zm10.51,4.014a3.682,3.682,0,0,1-2.743-1.066,3.866,3.866,0,0,1-1.051-2.838v-.22A4.755,4.755,0,0,1,67.9,28.9a3.484,3.484,0,0,1,1.285-1.454,3.4,3.4,0,0,1,1.846-.52,3.11,3.11,0,0,1,2.5,1.033,4.367,4.367,0,0,1,.883,2.922V31.6H69.232a2.38,2.38,0,0,0,.656,1.553,1.968,1.968,0,0,0,1.447.571,2.41,2.41,0,0,0,1.992-.989l.959.916a3.2,3.2,0,0,1-1.271,1.1A3.978,3.978,0,0,1,71.232,35.146Zm-.212-6.79a1.5,1.5,0,0,0-1.183.513,2.657,2.657,0,0,0-.575,1.428h3.391v-.132a2.163,2.163,0,0,0-.476-1.351A1.487,1.487,0,0,0,71.02,28.357Zm8.921.344a4.4,4.4,0,0,0-.725-.059,1.633,1.633,0,0,0-1.648.938V35h-1.78V27.075h1.7l.044.886a2.005,2.005,0,0,1,1.787-1.033,1.666,1.666,0,0,1,.63.1Zm2.776,3.171a4.114,4.114,0,0,1,.242-1.554,4.074,4.074,0,0,1,.956-1.272,7.3,7.3,0,0,0,.9-.986,1.725,1.725,0,0,0,.293-.965,1.476,1.476,0,0,0-.341-1.049,1.308,1.308,0,0,0-1-.362,1.439,1.439,0,0,0-1.014.354,1.24,1.24,0,0,0-.385.96h-1.78a2.623,2.623,0,0,1,.883-2.053,3.374,3.374,0,0,1,2.3-.755,3.293,3.293,0,0,1,2.3.748,2.678,2.678,0,0,1,.824,2.089,3.421,3.421,0,0,1-1.113,2.353l-.9.887a2.416,2.416,0,0,0-.5,1.606Zm-.125,2.274a.933.933,0,0,1,.271-.7,1.139,1.139,0,0,1,1.472.007.94.94,0,0,1,.271.69.923.923,0,0,1-.264.671,1,1,0,0,1-.747.27.984.984,0,0,1-.743-.27A.93.93,0,0,1,82.592,34.147Z" transform="translate(306 708.001)" fill="#69787d"/>
    <path id="Trazado_120895" data-name="Trazado 120895" d="M9.419,11.151a4.536,4.536,0,0,1-.209,1.441A3.42,3.42,0,0,1,8.482,13.7l-.754.777a2.177,2.177,0,0,0-.659,1.489A1.358,1.358,0,0,0,7.427,17a1.409,1.409,0,0,0,1.011.341,1.442,1.442,0,0,0,1.033-.367A1.28,1.28,0,0,0,9.859,16h1.78a2.635,2.635,0,0,1-.89,2.06,3.37,3.37,0,0,1-2.3.762,3.4,3.4,0,0,1-2.336-.737A2.646,2.646,0,0,1,5.288,16a3.527,3.527,0,0,1,1.135-2.4l.674-.682a2.034,2.034,0,0,0,.645-1.371l.015-.389Zm.146-2.274a.952.952,0,0,1-.26.682.977.977,0,0,1-.743.274.989.989,0,0,1-.747-.274,1,1,0,0,1,0-1.357.989.989,0,0,1,.747-.274.977.977,0,0,1,.743.274A.942.942,0,0,1,9.566,8.877Zm9.587,4.64H15.022L14.158,16H12.232L16.26,5.336h1.663L21.958,16H20.025Zm-3.611-1.494h3.091L17.088,7.6ZM26.4,11.972a4.683,4.683,0,0,1,.85-2.952,2.761,2.761,0,0,1,2.3-1.091,2.6,2.6,0,0,1,2.1.93l.1-.784h1.582V19.047h-1.78V15.326a2.656,2.656,0,0,1-2.021.82,2.735,2.735,0,0,1-2.278-1.11A4.9,4.9,0,0,1,26.4,11.972Zm1.78.154a3.307,3.307,0,0,0,.48,1.908,1.529,1.529,0,0,0,1.329.692,1.686,1.686,0,0,0,1.567-.9v-3.6A1.687,1.687,0,0,0,30,9.357a1.555,1.555,0,0,0-1.337.681A3.608,3.608,0,0,0,28.177,12.125Zm11.873,3.1a2.76,2.76,0,0,1-2.227.923,2.46,2.46,0,0,1-1.952-.754,3.209,3.209,0,0,1-.663-2.183V8.075h1.78v5.112q0,1.509,1.252,1.509a1.759,1.759,0,0,0,1.75-.93V8.075h1.78V16H40.093ZM45.476,16H43.7V8.075h1.78Zm-1.89-9.983a.945.945,0,0,1,.26-.681.982.982,0,0,1,.743-.271,1,1,0,0,1,.747.271.937.937,0,0,1,.264.681.916.916,0,0,1-.264.67,1,1,0,0,1-.747.267.99.99,0,0,1-.743-.267A.923.923,0,0,1,43.587,6.017ZM50.9,16.146a3.682,3.682,0,0,1-2.743-1.066,3.866,3.866,0,0,1-1.051-2.838v-.22a4.755,4.755,0,0,1,.458-2.12,3.484,3.484,0,0,1,1.285-1.454,3.4,3.4,0,0,1,1.846-.52,3.11,3.11,0,0,1,2.5,1.033,4.367,4.367,0,0,1,.883,2.922V12.6H48.9a2.38,2.38,0,0,0,.656,1.553,1.968,1.968,0,0,0,1.447.571A2.41,2.41,0,0,0,53,13.737l.959.916a3.2,3.2,0,0,1-1.271,1.1A3.978,3.978,0,0,1,50.9,16.146Zm-.212-6.79a1.5,1.5,0,0,0-1.183.513,2.657,2.657,0,0,0-.575,1.428h3.391v-.132a2.163,2.163,0,0,0-.476-1.351A1.487,1.487,0,0,0,50.691,9.357Zm.4-4.607h2.029L51.094,6.969l-1.428,0Zm6.021,3.325.051.916a2.849,2.849,0,0,1,2.307-1.062q2.476,0,2.52,2.834V16h-1.78V10.866a1.632,1.632,0,0,0-.326-1.117,1.371,1.371,0,0,0-1.066-.363,1.715,1.715,0,0,0-1.6.974V16h-1.78V8.075Zm14.868,5.771a.807.807,0,0,0-.392-.725,4.167,4.167,0,0,0-1.3-.439,6.683,6.683,0,0,1-1.516-.483,2.023,2.023,0,0,1-1.333-1.868,2.109,2.109,0,0,1,.864-1.714,3.417,3.417,0,0,1,2.2-.688,3.555,3.555,0,0,1,2.3.7,2.231,2.231,0,0,1,.875,1.824h-1.78a1.1,1.1,0,0,0-.381-.853A1.46,1.46,0,0,0,70.5,9.262a1.577,1.577,0,0,0-.956.271.854.854,0,0,0-.37.725.721.721,0,0,0,.344.637,4.734,4.734,0,0,0,1.392.458,6.587,6.587,0,0,1,1.644.549,2.328,2.328,0,0,1,.886.765,1.952,1.952,0,0,1,.289,1.084,2.065,2.065,0,0,1-.886,1.732,3.779,3.779,0,0,1-2.322.663,4.1,4.1,0,0,1-1.736-.352,2.857,2.857,0,0,1-1.187-.967,2.288,2.288,0,0,1-.425-1.326h1.729a1.254,1.254,0,0,0,.476.97,1.85,1.85,0,0,0,1.165.341,1.8,1.8,0,0,0,1.069-.267A.827.827,0,0,0,71.983,13.847Zm6.79,2.3a3.682,3.682,0,0,1-2.743-1.066,3.866,3.866,0,0,1-1.051-2.838v-.22a4.755,4.755,0,0,1,.458-2.12,3.484,3.484,0,0,1,1.285-1.454,3.4,3.4,0,0,1,1.846-.52,3.11,3.11,0,0,1,2.5,1.033,4.367,4.367,0,0,1,.883,2.922V12.6H76.773a2.38,2.38,0,0,0,.656,1.553,1.968,1.968,0,0,0,1.447.571,2.41,2.41,0,0,0,1.992-.989l.959.916a3.2,3.2,0,0,1-1.271,1.1A3.978,3.978,0,0,1,78.772,16.146Zm-.212-6.79a1.5,1.5,0,0,0-1.183.513A2.657,2.657,0,0,0,76.8,11.3h3.391v-.132a2.163,2.163,0,0,0-.476-1.351A1.487,1.487,0,0,0,78.56,9.357ZM88.96,16H87.18V4.75h1.78Zm5.427.146a3.682,3.682,0,0,1-2.743-1.066,3.866,3.866,0,0,1-1.051-2.838v-.22a4.755,4.755,0,0,1,.458-2.12,3.484,3.484,0,0,1,1.285-1.454,3.4,3.4,0,0,1,1.846-.52,3.11,3.11,0,0,1,2.5,1.033,4.367,4.367,0,0,1,.883,2.922V12.6H92.388a2.38,2.38,0,0,0,.656,1.553,1.968,1.968,0,0,0,1.447.571,2.41,2.41,0,0,0,1.992-.989l.959.916a3.2,3.2,0,0,1-1.271,1.1A3.978,3.978,0,0,1,94.387,16.146Zm-.212-6.79a1.5,1.5,0,0,0-1.183.513,2.657,2.657,0,0,0-.575,1.428h3.391v-.132a2.163,2.163,0,0,0-.476-1.351A1.487,1.487,0,0,0,94.175,9.357Zm11.3,4.387,1.677-5.669h1.838L106.245,16H104.7l-2.769-7.925h1.846ZM114.727,16a2.747,2.747,0,0,1-.205-.74,2.994,2.994,0,0,1-4.028.205,2.179,2.179,0,0,1-.754-1.685,2.25,2.25,0,0,1,.941-1.945,4.561,4.561,0,0,1,2.692-.677h1.091v-.52a1.388,1.388,0,0,0-.344-.985,1.365,1.365,0,0,0-1.047-.37,1.568,1.568,0,0,0-1,.3.941.941,0,0,0-.388.773h-1.78a1.975,1.975,0,0,1,.432-1.219,2.879,2.879,0,0,1,1.176-.89,4.129,4.129,0,0,1,1.659-.322,3.325,3.325,0,0,1,2.219.7,2.494,2.494,0,0,1,.85,1.967v3.574a4.051,4.051,0,0,0,.3,1.707V16Zm-1.956-1.282a2.025,2.025,0,0,0,.992-.256,1.713,1.713,0,0,0,.7-.688V12.279H113.5a2.624,2.624,0,0,0-1.487.344,1.115,1.115,0,0,0-.5.974,1.04,1.04,0,0,0,.341.817A1.319,1.319,0,0,0,112.771,14.718ZM34.274,35a2.747,2.747,0,0,1-.205-.74,2.994,2.994,0,0,1-4.028.205,2.179,2.179,0,0,1-.754-1.685,2.25,2.25,0,0,1,.941-1.945,4.561,4.561,0,0,1,2.692-.677H34.01v-.52a1.388,1.388,0,0,0-.344-.985,1.365,1.365,0,0,0-1.047-.37,1.568,1.568,0,0,0-1,.3.941.941,0,0,0-.388.773h-1.78a1.975,1.975,0,0,1,.432-1.219,2.879,2.879,0,0,1,1.176-.89,4.129,4.129,0,0,1,1.659-.322,3.325,3.325,0,0,1,2.219.7,2.494,2.494,0,0,1,.85,1.967v3.574a4.051,4.051,0,0,0,.3,1.707V35Zm-1.956-1.282a2.025,2.025,0,0,0,.992-.256,1.713,1.713,0,0,0,.7-.688V31.279h-.959a2.624,2.624,0,0,0-1.487.344,1.115,1.115,0,0,0-.5.974,1.04,1.04,0,0,0,.341.817A1.319,1.319,0,0,0,32.318,33.718Zm11.865-.974,1.677-5.669H47.7L44.953,35H43.407l-2.769-7.925h1.846Zm8.115,2.4a3.682,3.682,0,0,1-2.743-1.066A3.866,3.866,0,0,1,48.5,31.243v-.22a4.755,4.755,0,0,1,.458-2.12,3.484,3.484,0,0,1,1.285-1.454,3.4,3.4,0,0,1,1.846-.52,3.11,3.11,0,0,1,2.5,1.033,4.367,4.367,0,0,1,.883,2.922V31.6H50.3a2.38,2.38,0,0,0,.656,1.553,1.968,1.968,0,0,0,1.447.571,2.41,2.41,0,0,0,1.992-.989l.959.916a3.2,3.2,0,0,1-1.271,1.1A3.978,3.978,0,0,1,52.3,35.146Zm-.212-6.79a1.5,1.5,0,0,0-1.183.513,2.657,2.657,0,0,0-.575,1.428H53.72v-.132a2.163,2.163,0,0,0-.476-1.351A1.487,1.487,0,0,0,52.086,28.357Zm6.423-1.282.051.916a2.849,2.849,0,0,1,2.307-1.062q2.476,0,2.52,2.834V35h-1.78V29.866a1.632,1.632,0,0,0-.326-1.117,1.371,1.371,0,0,0-1.066-.363,1.715,1.715,0,0,0-1.6.974V35h-1.78V27.075Zm6.357,3.9a4.712,4.712,0,0,1,.85-2.941,2.722,2.722,0,0,1,2.278-1.11,2.587,2.587,0,0,1,2.036.879V23.75h1.78V35H70.2l-.088-.82a2.624,2.624,0,0,1-2.131.967,2.707,2.707,0,0,1-2.252-1.121A4.884,4.884,0,0,1,64.867,30.979Zm1.78.154a3.3,3.3,0,0,0,.465,1.886,1.509,1.509,0,0,0,1.322.677,1.681,1.681,0,0,0,1.6-.974V29.338a1.655,1.655,0,0,0-1.582-.952,1.52,1.52,0,0,0-1.333.685A3.674,3.674,0,0,0,66.647,31.133Zm10.51,4.014a3.682,3.682,0,0,1-2.743-1.066,3.866,3.866,0,0,1-1.051-2.838v-.22a4.755,4.755,0,0,1,.458-2.12,3.484,3.484,0,0,1,1.285-1.454,3.4,3.4,0,0,1,1.846-.52,3.11,3.11,0,0,1,2.5,1.033,4.367,4.367,0,0,1,.883,2.922V31.6H75.158a2.38,2.38,0,0,0,.656,1.553,1.968,1.968,0,0,0,1.447.571,2.41,2.41,0,0,0,1.992-.989l.959.916a3.2,3.2,0,0,1-1.271,1.1A3.978,3.978,0,0,1,77.157,35.146Zm-.212-6.79a1.5,1.5,0,0,0-1.183.513,2.657,2.657,0,0,0-.575,1.428h3.391v-.132a2.163,2.163,0,0,0-.476-1.351A1.487,1.487,0,0,0,76.945,28.357Zm8.921.344a4.4,4.4,0,0,0-.725-.059,1.633,1.633,0,0,0-1.648.938V35h-1.78V27.075h1.7l.044.886a2.005,2.005,0,0,1,1.787-1.033,1.666,1.666,0,0,1,.63.1Zm2.776,3.171a4.114,4.114,0,0,1,.242-1.554,4.074,4.074,0,0,1,.956-1.272,7.3,7.3,0,0,0,.9-.986,1.725,1.725,0,0,0,.293-.965,1.476,1.476,0,0,0-.341-1.049,1.308,1.308,0,0,0-1-.362,1.439,1.439,0,0,0-1.014.354A1.24,1.24,0,0,0,88.3,27h-1.78a2.623,2.623,0,0,1,.883-2.053,3.374,3.374,0,0,1,2.3-.755,3.293,3.293,0,0,1,2.3.748,2.678,2.678,0,0,1,.824,2.089A3.421,3.421,0,0,1,91.7,29.38l-.9.887a2.416,2.416,0,0,0-.5,1.606Zm-.125,2.274a.933.933,0,0,1,.271-.7,1.139,1.139,0,0,1,1.472.007.94.94,0,0,1,.271.69.923.923,0,0,1-.264.671,1,1,0,0,1-.747.27.984.984,0,0,1-.743-.27A.93.93,0,0,1,88.517,34.147Z" transform="translate(524 708.001)" fill="#6f7302"/>
    <path id="Trazado_120896" data-name="Trazado 120896" d="M12.752,11.151a4.536,4.536,0,0,1-.209,1.441,3.42,3.42,0,0,1-.729,1.111l-.754.777a2.177,2.177,0,0,0-.659,1.489A1.358,1.358,0,0,0,10.76,17a1.409,1.409,0,0,0,1.011.341,1.442,1.442,0,0,0,1.033-.367A1.28,1.28,0,0,0,13.191,16h1.78a2.635,2.635,0,0,1-.89,2.06,3.37,3.37,0,0,1-2.3.762,3.4,3.4,0,0,1-2.336-.737A2.646,2.646,0,0,1,8.621,16a3.527,3.527,0,0,1,1.135-2.4l.674-.682a2.034,2.034,0,0,0,.645-1.371l.015-.389ZM12.9,8.877a.952.952,0,0,1-.26.682.977.977,0,0,1-.743.274.989.989,0,0,1-.747-.274,1,1,0,0,1,0-1.357.989.989,0,0,1,.747-.274.977.977,0,0,1,.743.274A.942.942,0,0,1,12.9,8.877Zm11.755,3.651a3.85,3.85,0,0,1-1.26,2.662,4.3,4.3,0,0,1-2.922.956,4.158,4.158,0,0,1-2.245-.6,3.966,3.966,0,0,1-1.5-1.718,6.2,6.2,0,0,1-.549-2.585v-1a6.243,6.243,0,0,1,.535-2.659,4.029,4.029,0,0,1,1.534-1.772,4.28,4.28,0,0,1,2.311-.623,4.122,4.122,0,0,1,2.842.956,3.994,3.994,0,0,1,1.252,2.706H22.808a2.634,2.634,0,0,0-.67-1.659,2.215,2.215,0,0,0-1.578-.509,2.164,2.164,0,0,0-1.857.883,4.415,4.415,0,0,0-.663,2.592V11.1a4.684,4.684,0,0,0,.619,2.639,2.054,2.054,0,0,0,1.813.909,2.4,2.4,0,0,0,1.641-.491,2.559,2.559,0,0,0,.7-1.633Zm6.284,2.7a2.76,2.76,0,0,1-2.227.923,2.46,2.46,0,0,1-1.952-.754,3.209,3.209,0,0,1-.663-2.183V8.075h1.78v5.112q0,1.509,1.252,1.509a1.759,1.759,0,0,0,1.75-.93V8.075h1.78V16H30.982ZM39.207,16A2.747,2.747,0,0,1,39,15.26a2.994,2.994,0,0,1-4.028.205,2.179,2.179,0,0,1-.754-1.685,2.25,2.25,0,0,1,.941-1.945,4.561,4.561,0,0,1,2.692-.677h1.091v-.52a1.388,1.388,0,0,0-.344-.985,1.365,1.365,0,0,0-1.047-.37,1.568,1.568,0,0,0-1,.3.941.941,0,0,0-.388.773h-1.78a1.975,1.975,0,0,1,.432-1.219A2.879,2.879,0,0,1,36,8.251a4.129,4.129,0,0,1,1.659-.322,3.325,3.325,0,0,1,2.219.7,2.494,2.494,0,0,1,.85,1.967v3.574a4.051,4.051,0,0,0,.3,1.707V16Zm-1.956-1.282a2.025,2.025,0,0,0,.992-.256,1.713,1.713,0,0,0,.7-.688V12.279h-.959a2.624,2.624,0,0,0-1.487.344,1.115,1.115,0,0,0-.5.974,1.04,1.04,0,0,0,.341.817A1.319,1.319,0,0,0,37.251,14.718ZM38.24,4.75h2.029L38.24,6.969l-1.428,0Zm6,3.325.051.916A2.849,2.849,0,0,1,46.6,7.929q2.476,0,2.52,2.834V16h-1.78V10.866a1.632,1.632,0,0,0-.326-1.117,1.371,1.371,0,0,0-1.066-.363,1.715,1.715,0,0,0-1.6.974V16h-1.78V8.075Zm8.921-1.926V8.075h1.4V9.394h-1.4v4.424a.974.974,0,0,0,.179.656.832.832,0,0,0,.641.2A2.742,2.742,0,0,0,54.6,14.6v1.377a4.383,4.383,0,0,1-1.172.168q-2.051,0-2.051-2.263V9.394h-1.3V8.075h1.3V6.149Zm2.2,5.815a4.673,4.673,0,0,1,.461-2.1,3.37,3.37,0,0,1,1.3-1.436,3.653,3.653,0,0,1,1.919-.5,3.462,3.462,0,0,1,2.6,1.033,4.062,4.062,0,0,1,1.08,2.739l.007.417a4.715,4.715,0,0,1-.45,2.095,3.329,3.329,0,0,1-1.289,1.428,3.679,3.679,0,0,1-1.937.505,3.438,3.438,0,0,1-2.684-1.117,4.278,4.278,0,0,1-1.007-2.977Zm1.78.154a3.193,3.193,0,0,0,.505,1.915,1.643,1.643,0,0,0,1.406.692,1.625,1.625,0,0,0,1.4-.7,3.527,3.527,0,0,0,.5-2.058,3.152,3.152,0,0,0-.516-1.9,1.74,1.74,0,0,0-2.787-.011A3.46,3.46,0,0,0,57.144,12.118Zm15.271,1.729a.807.807,0,0,0-.392-.725,4.167,4.167,0,0,0-1.3-.439,6.683,6.683,0,0,1-1.516-.483,2.023,2.023,0,0,1-1.333-1.868,2.109,2.109,0,0,1,.864-1.714,3.417,3.417,0,0,1,2.2-.688,3.555,3.555,0,0,1,2.3.7,2.231,2.231,0,0,1,.875,1.824h-1.78a1.1,1.1,0,0,0-.381-.853,1.46,1.46,0,0,0-1.011-.341,1.577,1.577,0,0,0-.956.271.854.854,0,0,0-.37.725.721.721,0,0,0,.344.637,4.734,4.734,0,0,0,1.392.458,6.587,6.587,0,0,1,1.644.549,2.328,2.328,0,0,1,.886.765,1.952,1.952,0,0,1,.289,1.084,2.065,2.065,0,0,1-.886,1.732,3.779,3.779,0,0,1-2.322.663,4.1,4.1,0,0,1-1.736-.352,2.857,2.857,0,0,1-1.187-.967A2.288,2.288,0,0,1,67.61,13.5h1.729a1.254,1.254,0,0,0,.476.97,1.85,1.85,0,0,0,1.165.341,1.8,1.8,0,0,0,1.069-.267A.827.827,0,0,0,72.415,13.847Zm6.79,2.3a3.682,3.682,0,0,1-2.743-1.066,3.866,3.866,0,0,1-1.051-2.838v-.22a4.755,4.755,0,0,1,.458-2.12,3.484,3.484,0,0,1,1.285-1.454A3.4,3.4,0,0,1,79,7.929a3.11,3.11,0,0,1,2.5,1.033,4.367,4.367,0,0,1,.883,2.922V12.6H77.2a2.38,2.38,0,0,0,.656,1.553,1.968,1.968,0,0,0,1.447.571,2.41,2.41,0,0,0,1.992-.989l.959.916a3.2,3.2,0,0,1-1.271,1.1A3.978,3.978,0,0,1,79.2,16.146Zm-.212-6.79a1.5,1.5,0,0,0-1.183.513,2.657,2.657,0,0,0-.575,1.428h3.391v-.132a2.163,2.163,0,0,0-.476-1.351A1.487,1.487,0,0,0,78.992,9.357Zm11.3,4.387L91.97,8.075h1.838L91.062,16H89.517L86.748,8.075h1.846ZM99.544,16a2.747,2.747,0,0,1-.205-.74,2.994,2.994,0,0,1-4.028.205,2.179,2.179,0,0,1-.754-1.685,2.25,2.25,0,0,1,.941-1.945,4.561,4.561,0,0,1,2.692-.677H99.28v-.52a1.388,1.388,0,0,0-.344-.985,1.365,1.365,0,0,0-1.047-.37,1.568,1.568,0,0,0-1,.3.941.941,0,0,0-.388.773h-1.78a1.975,1.975,0,0,1,.432-1.219,2.879,2.879,0,0,1,1.176-.89,4.129,4.129,0,0,1,1.659-.322,3.325,3.325,0,0,1,2.219.7,2.494,2.494,0,0,1,.85,1.967v3.574a4.051,4.051,0,0,0,.3,1.707V16Zm-1.956-1.282a2.025,2.025,0,0,0,.992-.256,1.713,1.713,0,0,0,.7-.688V12.279h-.959a2.624,2.624,0,0,0-1.487.344,1.115,1.115,0,0,0-.5.974,1.04,1.04,0,0,0,.341.817A1.319,1.319,0,0,0,97.588,14.718ZM111.394,16a2.747,2.747,0,0,1-.205-.74,2.994,2.994,0,0,1-4.028.205,2.179,2.179,0,0,1-.754-1.685,2.25,2.25,0,0,1,.941-1.945,4.561,4.561,0,0,1,2.692-.677h1.091v-.52a1.388,1.388,0,0,0-.344-.985,1.365,1.365,0,0,0-1.047-.37,1.568,1.568,0,0,0-1,.3.941.941,0,0,0-.388.773h-1.78a1.975,1.975,0,0,1,.432-1.219,2.879,2.879,0,0,1,1.176-.89,4.129,4.129,0,0,1,1.659-.322,3.325,3.325,0,0,1,2.219.7,2.494,2.494,0,0,1,.85,1.967v3.574a4.051,4.051,0,0,0,.3,1.707V16Zm-1.956-1.282a2.025,2.025,0,0,0,.992-.256,1.713,1.713,0,0,0,.7-.688V12.279h-.959a2.624,2.624,0,0,0-1.487.344,1.115,1.115,0,0,0-.5.974,1.04,1.04,0,0,0,.341.817A1.319,1.319,0,0,0,109.439,14.718ZM38.258,32.744l1.677-5.669h1.838L39.027,35H37.482l-2.769-7.925h1.846Zm8.115,2.4a3.682,3.682,0,0,1-2.743-1.066,3.866,3.866,0,0,1-1.051-2.838v-.22a4.755,4.755,0,0,1,.458-2.12,3.484,3.484,0,0,1,1.285-1.454,3.4,3.4,0,0,1,1.846-.52,3.11,3.11,0,0,1,2.5,1.033,4.367,4.367,0,0,1,.883,2.922V31.6H44.374a2.38,2.38,0,0,0,.656,1.553,1.968,1.968,0,0,0,1.447.571,2.41,2.41,0,0,0,1.992-.989l.959.916a3.2,3.2,0,0,1-1.271,1.1A3.978,3.978,0,0,1,46.374,35.146Zm-.212-6.79a1.5,1.5,0,0,0-1.183.513A2.657,2.657,0,0,0,44.4,30.3h3.391v-.132a2.163,2.163,0,0,0-.476-1.351A1.487,1.487,0,0,0,46.161,28.357Zm6.423-1.282.051.916a2.849,2.849,0,0,1,2.307-1.062q2.476,0,2.52,2.834V35h-1.78V29.866a1.632,1.632,0,0,0-.326-1.117,1.371,1.371,0,0,0-1.066-.363,1.715,1.715,0,0,0-1.6.974V35h-1.78V27.075Zm6.357,3.9a4.712,4.712,0,0,1,.85-2.941,2.722,2.722,0,0,1,2.278-1.11,2.587,2.587,0,0,1,2.036.879V23.75h1.78V35H64.274l-.088-.82a2.624,2.624,0,0,1-2.131.967A2.707,2.707,0,0,1,59.8,34.026,4.884,4.884,0,0,1,58.942,30.979Zm1.78.154a3.3,3.3,0,0,0,.465,1.886,1.509,1.509,0,0,0,1.322.677,1.681,1.681,0,0,0,1.6-.974V29.338a1.655,1.655,0,0,0-1.582-.952,1.52,1.52,0,0,0-1.333.685A3.674,3.674,0,0,0,60.722,31.133Zm10.51,4.014a3.682,3.682,0,0,1-2.743-1.066,3.866,3.866,0,0,1-1.051-2.838v-.22A4.755,4.755,0,0,1,67.9,28.9a3.484,3.484,0,0,1,1.285-1.454,3.4,3.4,0,0,1,1.846-.52,3.11,3.11,0,0,1,2.5,1.033,4.367,4.367,0,0,1,.883,2.922V31.6H69.232a2.38,2.38,0,0,0,.656,1.553,1.968,1.968,0,0,0,1.447.571,2.41,2.41,0,0,0,1.992-.989l.959.916a3.2,3.2,0,0,1-1.271,1.1A3.978,3.978,0,0,1,71.232,35.146Zm-.212-6.79a1.5,1.5,0,0,0-1.183.513,2.657,2.657,0,0,0-.575,1.428h3.391v-.132a2.163,2.163,0,0,0-.476-1.351A1.487,1.487,0,0,0,71.02,28.357Zm8.921.344a4.4,4.4,0,0,0-.725-.059,1.633,1.633,0,0,0-1.648.938V35h-1.78V27.075h1.7l.044.886a2.005,2.005,0,0,1,1.787-1.033,1.666,1.666,0,0,1,.63.1Zm2.776,3.171a4.114,4.114,0,0,1,.242-1.554,4.074,4.074,0,0,1,.956-1.272,7.3,7.3,0,0,0,.9-.986,1.725,1.725,0,0,0,.293-.965,1.476,1.476,0,0,0-.341-1.049,1.308,1.308,0,0,0-1-.362,1.439,1.439,0,0,0-1.014.354,1.24,1.24,0,0,0-.385.96h-1.78a2.623,2.623,0,0,1,.883-2.053,3.374,3.374,0,0,1,2.3-.755,3.293,3.293,0,0,1,2.3.748,2.678,2.678,0,0,1,.824,2.089,3.421,3.421,0,0,1-1.113,2.353l-.9.887a2.416,2.416,0,0,0-.5,1.606Zm-.125,2.274a.933.933,0,0,1,.271-.7,1.139,1.139,0,0,1,1.472.007.94.94,0,0,1,.271.69.923.923,0,0,1-.264.671,1,1,0,0,1-.747.27.984.984,0,0,1-.743-.27A.93.93,0,0,1,82.592,34.147Z" transform="translate(739 708.001)" fill="#a0a603"/>
    <path id="Trazado_120897" data-name="Trazado 120897" d="M15.1,11.151a4.536,4.536,0,0,1-.209,1.441,3.42,3.42,0,0,1-.729,1.111l-.754.777a2.177,2.177,0,0,0-.659,1.489A1.358,1.358,0,0,0,13.107,17a1.409,1.409,0,0,0,1.011.341,1.442,1.442,0,0,0,1.033-.367A1.28,1.28,0,0,0,15.539,16h1.78a2.635,2.635,0,0,1-.89,2.06,3.37,3.37,0,0,1-2.3.762,3.4,3.4,0,0,1-2.336-.737A2.646,2.646,0,0,1,10.968,16a3.527,3.527,0,0,1,1.135-2.4l.674-.682a2.034,2.034,0,0,0,.645-1.371l.015-.389Zm.146-2.274a.952.952,0,0,1-.26.682.977.977,0,0,1-.743.274.989.989,0,0,1-.747-.274,1,1,0,0,1,0-1.357.989.989,0,0,1,.747-.274.977.977,0,0,1,.743.274A.942.942,0,0,1,15.246,8.877ZM18.864,16V5.336h3.149a4.94,4.94,0,0,1,2.509.63,4.3,4.3,0,0,1,1.7,1.787,5.673,5.673,0,0,1,.6,2.651v.535a5.649,5.649,0,0,1-.6,2.666,4.243,4.243,0,0,1-1.721,1.772,5.169,5.169,0,0,1-2.56.623Zm1.853-9.17v7.69h1.208a2.783,2.783,0,0,0,2.238-.912,3.972,3.972,0,0,0,.795-2.618V10.4A4.076,4.076,0,0,0,24.2,7.746a2.675,2.675,0,0,0-2.19-.916Zm7.441,5.134a4.673,4.673,0,0,1,.461-2.1,3.37,3.37,0,0,1,1.3-1.436,3.653,3.653,0,0,1,1.919-.5,3.462,3.462,0,0,1,2.6,1.033,4.062,4.062,0,0,1,1.08,2.739l.007.417a4.715,4.715,0,0,1-.45,2.095,3.329,3.329,0,0,1-1.289,1.428,3.679,3.679,0,0,1-1.937.505,3.438,3.438,0,0,1-2.684-1.117,4.278,4.278,0,0,1-1.007-2.977Zm1.78.154a3.193,3.193,0,0,0,.505,1.915,1.643,1.643,0,0,0,1.406.692,1.625,1.625,0,0,0,1.4-.7,3.527,3.527,0,0,0,.5-2.058,3.152,3.152,0,0,0-.516-1.9,1.74,1.74,0,0,0-2.787-.011A3.46,3.46,0,0,0,29.938,12.118ZM32.326,4.75h2.029L32.326,6.969l-1.428,0Zm6.357,3.325.051.916a2.849,2.849,0,0,1,2.307-1.062q2.476,0,2.52,2.834V16h-1.78V10.866a1.632,1.632,0,0,0-.326-1.117,1.371,1.371,0,0,0-1.066-.363,1.715,1.715,0,0,0-1.6.974V16h-1.78V8.075Zm6.357,3.9a4.712,4.712,0,0,1,.85-2.941,2.722,2.722,0,0,1,2.278-1.11,2.587,2.587,0,0,1,2.036.879V4.75h1.78V16H50.373l-.088-.82a2.624,2.624,0,0,1-2.131.967A2.707,2.707,0,0,1,45.9,15.026,4.884,4.884,0,0,1,45.041,11.979Zm1.78.154a3.3,3.3,0,0,0,.465,1.886,1.509,1.509,0,0,0,1.322.677,1.681,1.681,0,0,0,1.6-.974V10.338a1.655,1.655,0,0,0-1.582-.952,1.52,1.52,0,0,0-1.333.685A3.674,3.674,0,0,0,46.82,12.133Zm10.51,4.014a3.682,3.682,0,0,1-2.743-1.066,3.866,3.866,0,0,1-1.051-2.838v-.22a4.755,4.755,0,0,1,.458-2.12A3.484,3.484,0,0,1,55.28,8.449a3.4,3.4,0,0,1,1.846-.52,3.11,3.11,0,0,1,2.5,1.033,4.367,4.367,0,0,1,.883,2.922V12.6H55.331a2.38,2.38,0,0,0,.656,1.553,1.968,1.968,0,0,0,1.447.571,2.41,2.41,0,0,0,1.992-.989l.959.916a3.2,3.2,0,0,1-1.271,1.1A3.978,3.978,0,0,1,57.331,16.146Zm-.212-6.79a1.5,1.5,0,0,0-1.183.513A2.657,2.657,0,0,0,55.36,11.3h3.391v-.132a2.163,2.163,0,0,0-.476-1.351A1.487,1.487,0,0,0,57.118,9.357Zm12.949,4.49a.807.807,0,0,0-.392-.725,4.167,4.167,0,0,0-1.3-.439,6.683,6.683,0,0,1-1.516-.483,2.023,2.023,0,0,1-1.333-1.868,2.109,2.109,0,0,1,.864-1.714,3.417,3.417,0,0,1,2.2-.688,3.555,3.555,0,0,1,2.3.7,2.231,2.231,0,0,1,.875,1.824h-1.78A1.1,1.1,0,0,0,69.6,9.6a1.46,1.46,0,0,0-1.011-.341,1.577,1.577,0,0,0-.956.271.854.854,0,0,0-.37.725.721.721,0,0,0,.344.637A4.734,4.734,0,0,0,69,11.353a6.587,6.587,0,0,1,1.644.549,2.328,2.328,0,0,1,.886.765,1.952,1.952,0,0,1,.289,1.084,2.065,2.065,0,0,1-.886,1.732,3.779,3.779,0,0,1-2.322.663,4.1,4.1,0,0,1-1.736-.352,2.857,2.857,0,0,1-1.187-.967,2.288,2.288,0,0,1-.425-1.326h1.729a1.254,1.254,0,0,0,.476.97,1.85,1.85,0,0,0,1.165.341,1.8,1.8,0,0,0,1.069-.267A.827.827,0,0,0,70.067,13.847Zm6.79,2.3a3.682,3.682,0,0,1-2.743-1.066,3.866,3.866,0,0,1-1.051-2.838v-.22a4.755,4.755,0,0,1,.458-2.12,3.484,3.484,0,0,1,1.285-1.454,3.4,3.4,0,0,1,1.846-.52,3.11,3.11,0,0,1,2.5,1.033,4.367,4.367,0,0,1,.883,2.922V12.6H74.857a2.38,2.38,0,0,0,.656,1.553,1.968,1.968,0,0,0,1.447.571,2.41,2.41,0,0,0,1.992-.989l.959.916a3.2,3.2,0,0,1-1.271,1.1A3.978,3.978,0,0,1,76.857,16.146Zm-.212-6.79a1.5,1.5,0,0,0-1.183.513,2.657,2.657,0,0,0-.575,1.428h3.391v-.132A2.163,2.163,0,0,0,77.8,9.815,1.487,1.487,0,0,0,76.645,9.357Zm11.3,4.387,1.677-5.669h1.838L88.715,16H87.169L84.4,8.075h1.846ZM97.2,16a2.747,2.747,0,0,1-.205-.74,2.994,2.994,0,0,1-4.028.205,2.179,2.179,0,0,1-.754-1.685,2.25,2.25,0,0,1,.941-1.945,4.561,4.561,0,0,1,2.692-.677h1.091v-.52a1.388,1.388,0,0,0-.344-.985,1.365,1.365,0,0,0-1.047-.37,1.568,1.568,0,0,0-1,.3.941.941,0,0,0-.388.773h-1.78a1.975,1.975,0,0,1,.432-1.219,2.879,2.879,0,0,1,1.176-.89,4.129,4.129,0,0,1,1.659-.322,3.325,3.325,0,0,1,2.219.7,2.494,2.494,0,0,1,.85,1.967v3.574a4.051,4.051,0,0,0,.3,1.707V16Zm-1.956-1.282a2.025,2.025,0,0,0,.992-.256,1.713,1.713,0,0,0,.7-.688V12.279h-.959a2.624,2.624,0,0,0-1.487.344,1.115,1.115,0,0,0-.5.974,1.04,1.04,0,0,0,.341.817A1.319,1.319,0,0,0,95.241,14.718ZM109.047,16a2.747,2.747,0,0,1-.205-.74,2.994,2.994,0,0,1-4.028.205,2.179,2.179,0,0,1-.754-1.685A2.25,2.25,0,0,1,105,11.836a4.561,4.561,0,0,1,2.692-.677h1.091v-.52a1.388,1.388,0,0,0-.344-.985,1.365,1.365,0,0,0-1.047-.37,1.568,1.568,0,0,0-1,.3.941.941,0,0,0-.388.773h-1.78a1.975,1.975,0,0,1,.432-1.219,2.879,2.879,0,0,1,1.176-.89,4.129,4.129,0,0,1,1.659-.322,3.325,3.325,0,0,1,2.219.7,2.494,2.494,0,0,1,.85,1.967v3.574a4.051,4.051,0,0,0,.3,1.707V16Zm-1.956-1.282a2.025,2.025,0,0,0,.992-.256,1.713,1.713,0,0,0,.7-.688V12.279h-.959a2.624,2.624,0,0,0-1.487.344,1.115,1.115,0,0,0-.5.974,1.04,1.04,0,0,0,.341.817A1.319,1.319,0,0,0,107.091,14.718ZM38.258,32.744l1.677-5.669h1.838L39.027,35H37.482l-2.769-7.925h1.846Zm8.115,2.4a3.682,3.682,0,0,1-2.743-1.066,3.866,3.866,0,0,1-1.051-2.838v-.22a4.755,4.755,0,0,1,.458-2.12,3.484,3.484,0,0,1,1.285-1.454,3.4,3.4,0,0,1,1.846-.52,3.11,3.11,0,0,1,2.5,1.033,4.367,4.367,0,0,1,.883,2.922V31.6H44.374a2.38,2.38,0,0,0,.656,1.553,1.968,1.968,0,0,0,1.447.571,2.41,2.41,0,0,0,1.992-.989l.959.916a3.2,3.2,0,0,1-1.271,1.1A3.978,3.978,0,0,1,46.374,35.146Zm-.212-6.79a1.5,1.5,0,0,0-1.183.513A2.657,2.657,0,0,0,44.4,30.3h3.391v-.132a2.163,2.163,0,0,0-.476-1.351A1.487,1.487,0,0,0,46.161,28.357Zm6.423-1.282.051.916a2.849,2.849,0,0,1,2.307-1.062q2.476,0,2.52,2.834V35h-1.78V29.866a1.632,1.632,0,0,0-.326-1.117,1.371,1.371,0,0,0-1.066-.363,1.715,1.715,0,0,0-1.6.974V35h-1.78V27.075Zm6.357,3.9a4.712,4.712,0,0,1,.85-2.941,2.722,2.722,0,0,1,2.278-1.11,2.587,2.587,0,0,1,2.036.879V23.75h1.78V35H64.274l-.088-.82a2.624,2.624,0,0,1-2.131.967A2.707,2.707,0,0,1,59.8,34.026,4.884,4.884,0,0,1,58.942,30.979Zm1.78.154a3.3,3.3,0,0,0,.465,1.886,1.509,1.509,0,0,0,1.322.677,1.681,1.681,0,0,0,1.6-.974V29.338a1.655,1.655,0,0,0-1.582-.952,1.52,1.52,0,0,0-1.333.685A3.674,3.674,0,0,0,60.722,31.133Zm10.51,4.014a3.682,3.682,0,0,1-2.743-1.066,3.866,3.866,0,0,1-1.051-2.838v-.22A4.755,4.755,0,0,1,67.9,28.9a3.484,3.484,0,0,1,1.285-1.454,3.4,3.4,0,0,1,1.846-.52,3.11,3.11,0,0,1,2.5,1.033,4.367,4.367,0,0,1,.883,2.922V31.6H69.232a2.38,2.38,0,0,0,.656,1.553,1.968,1.968,0,0,0,1.447.571,2.41,2.41,0,0,0,1.992-.989l.959.916a3.2,3.2,0,0,1-1.271,1.1A3.978,3.978,0,0,1,71.232,35.146Zm-.212-6.79a1.5,1.5,0,0,0-1.183.513,2.657,2.657,0,0,0-.575,1.428h3.391v-.132a2.163,2.163,0,0,0-.476-1.351A1.487,1.487,0,0,0,71.02,28.357Zm8.921.344a4.4,4.4,0,0,0-.725-.059,1.633,1.633,0,0,0-1.648.938V35h-1.78V27.075h1.7l.044.886a2.005,2.005,0,0,1,1.787-1.033,1.666,1.666,0,0,1,.63.1Zm2.776,3.171a4.114,4.114,0,0,1,.242-1.554,4.074,4.074,0,0,1,.956-1.272,7.3,7.3,0,0,0,.9-.986,1.725,1.725,0,0,0,.293-.965,1.476,1.476,0,0,0-.341-1.049,1.308,1.308,0,0,0-1-.362,1.439,1.439,0,0,0-1.014.354,1.24,1.24,0,0,0-.385.96h-1.78a2.623,2.623,0,0,1,.883-2.053,3.374,3.374,0,0,1,2.3-.755,3.293,3.293,0,0,1,2.3.748,2.678,2.678,0,0,1,.824,2.089,3.421,3.421,0,0,1-1.113,2.353l-.9.887a2.416,2.416,0,0,0-.5,1.606Zm-.125,2.274a.933.933,0,0,1,.271-.7,1.139,1.139,0,0,1,1.472.007.94.94,0,0,1,.271.69.923.923,0,0,1-.264.671,1,1,0,0,1-.747.27.984.984,0,0,1-.743-.27A.93.93,0,0,1,82.592,34.147Z" transform="translate(961 708.001)" fill="#543535"/>
    <path id="Trazado_120898" data-name="Trazado 120898" d="M17.878,11.151a4.536,4.536,0,0,1-.209,1.441,3.42,3.42,0,0,1-.729,1.111l-.754.777a2.177,2.177,0,0,0-.659,1.489A1.358,1.358,0,0,0,15.886,17a1.409,1.409,0,0,0,1.011.341,1.442,1.442,0,0,0,1.033-.367A1.28,1.28,0,0,0,18.318,16H20.1a2.635,2.635,0,0,1-.89,2.06,3.37,3.37,0,0,1-2.3.762,3.4,3.4,0,0,1-2.336-.737A2.646,2.646,0,0,1,13.747,16a3.527,3.527,0,0,1,1.135-2.4l.674-.682A2.034,2.034,0,0,0,16.2,11.54l.015-.389Zm.146-2.274a.952.952,0,0,1-.26.682.977.977,0,0,1-.743.274.989.989,0,0,1-.747-.274,1,1,0,0,1,0-1.357.989.989,0,0,1,.747-.274.977.977,0,0,1,.743.274A.942.942,0,0,1,18.025,8.877ZM29.78,12.528a3.85,3.85,0,0,1-1.26,2.662,4.3,4.3,0,0,1-2.922.956,4.158,4.158,0,0,1-2.245-.6,3.966,3.966,0,0,1-1.5-1.718,6.2,6.2,0,0,1-.549-2.585v-1a6.243,6.243,0,0,1,.535-2.659,4.029,4.029,0,0,1,1.534-1.772,4.28,4.28,0,0,1,2.311-.623,4.122,4.122,0,0,1,2.842.956A3.994,3.994,0,0,1,29.78,8.852H27.934a2.634,2.634,0,0,0-.67-1.659,2.215,2.215,0,0,0-1.578-.509,2.164,2.164,0,0,0-1.857.883,4.415,4.415,0,0,0-.663,2.592V11.1a4.684,4.684,0,0,0,.619,2.639,2.054,2.054,0,0,0,1.813.909,2.4,2.4,0,0,0,1.641-.491,2.559,2.559,0,0,0,.7-1.633Zm1.15-.564a4.673,4.673,0,0,1,.461-2.1,3.37,3.37,0,0,1,1.3-1.436,3.653,3.653,0,0,1,1.919-.5,3.462,3.462,0,0,1,2.6,1.033,4.062,4.062,0,0,1,1.08,2.739l.007.417a4.715,4.715,0,0,1-.45,2.095,3.329,3.329,0,0,1-1.289,1.428,3.679,3.679,0,0,1-1.937.505,3.438,3.438,0,0,1-2.684-1.117,4.278,4.278,0,0,1-1.007-2.977Zm1.78.154a3.193,3.193,0,0,0,.505,1.915,1.643,1.643,0,0,0,1.406.692,1.625,1.625,0,0,0,1.4-.7,3.527,3.527,0,0,0,.5-2.058,3.152,3.152,0,0,0-.516-1.9,1.74,1.74,0,0,0-2.787-.011A3.46,3.46,0,0,0,32.71,12.118ZM35.1,4.75h2.029L35.1,6.969l-1.428,0Zm6.379,3.325.051.828a2.852,2.852,0,0,1,2.285-.974,2.191,2.191,0,0,1,2.175,1.216A2.811,2.811,0,0,1,48.42,7.929a2.471,2.471,0,0,1,1.952.725,3.192,3.192,0,0,1,.656,2.139V16h-1.78V10.844a1.576,1.576,0,0,0-.33-1.106,1.443,1.443,0,0,0-1.091-.352,1.482,1.482,0,0,0-.992.326,1.719,1.719,0,0,0-.538.853L46.3,16h-1.78V10.785a1.27,1.27,0,0,0-1.428-1.4,1.567,1.567,0,0,0-1.516.872V16H39.8V8.075Zm11.045,3.889a4.673,4.673,0,0,1,.461-2.1,3.37,3.37,0,0,1,1.3-1.436,3.653,3.653,0,0,1,1.919-.5,3.462,3.462,0,0,1,2.6,1.033,4.062,4.062,0,0,1,1.08,2.739l.007.417a4.715,4.715,0,0,1-.45,2.095,3.329,3.329,0,0,1-1.289,1.428,3.679,3.679,0,0,1-1.937.505,3.438,3.438,0,0,1-2.684-1.117,4.278,4.278,0,0,1-1.007-2.977Zm1.78.154a3.193,3.193,0,0,0,.505,1.915,1.643,1.643,0,0,0,1.406.692,1.625,1.625,0,0,0,1.4-.7,3.527,3.527,0,0,0,.5-2.058,3.152,3.152,0,0,0-.516-1.9,1.74,1.74,0,0,0-2.787-.011A3.46,3.46,0,0,0,54.3,12.118Zm15.271,1.729a.807.807,0,0,0-.392-.725,4.167,4.167,0,0,0-1.3-.439,6.683,6.683,0,0,1-1.516-.483,2.023,2.023,0,0,1-1.333-1.868A2.109,2.109,0,0,1,65.9,8.617a3.417,3.417,0,0,1,2.2-.688,3.555,3.555,0,0,1,2.3.7,2.231,2.231,0,0,1,.875,1.824h-1.78A1.1,1.1,0,0,0,69.1,9.6a1.46,1.46,0,0,0-1.011-.341,1.577,1.577,0,0,0-.956.271.854.854,0,0,0-.37.725.721.721,0,0,0,.344.637,4.734,4.734,0,0,0,1.392.458,6.587,6.587,0,0,1,1.644.549,2.328,2.328,0,0,1,.886.765,1.952,1.952,0,0,1,.289,1.084,2.065,2.065,0,0,1-.886,1.732,3.779,3.779,0,0,1-2.322.663,4.1,4.1,0,0,1-1.736-.352,2.857,2.857,0,0,1-1.187-.967,2.288,2.288,0,0,1-.425-1.326H66.5a1.254,1.254,0,0,0,.476.97,1.85,1.85,0,0,0,1.165.341,1.8,1.8,0,0,0,1.069-.267A.827.827,0,0,0,69.573,13.847Zm6.79,2.3a3.682,3.682,0,0,1-2.743-1.066,3.866,3.866,0,0,1-1.051-2.838v-.22a4.755,4.755,0,0,1,.458-2.12,3.484,3.484,0,0,1,1.285-1.454,3.4,3.4,0,0,1,1.846-.52,3.11,3.11,0,0,1,2.5,1.033,4.367,4.367,0,0,1,.883,2.922V12.6H74.363a2.38,2.38,0,0,0,.656,1.553,1.968,1.968,0,0,0,1.447.571,2.41,2.41,0,0,0,1.992-.989l.959.916a3.2,3.2,0,0,1-1.271,1.1A3.978,3.978,0,0,1,76.362,16.146Zm-.212-6.79a1.5,1.5,0,0,0-1.183.513,2.657,2.657,0,0,0-.575,1.428h3.391v-.132a2.163,2.163,0,0,0-.476-1.351A1.487,1.487,0,0,0,76.15,9.357Zm11.3,4.387,1.677-5.669h1.838L88.22,16H86.675L83.906,8.075h1.846Zm8.115,2.4a3.682,3.682,0,0,1-2.743-1.066,3.866,3.866,0,0,1-1.051-2.838v-.22A4.755,4.755,0,0,1,92.23,9.9a3.484,3.484,0,0,1,1.285-1.454,3.4,3.4,0,0,1,1.846-.52,3.11,3.11,0,0,1,2.5,1.033,4.367,4.367,0,0,1,.883,2.922V12.6H93.567a2.38,2.38,0,0,0,.656,1.553,1.968,1.968,0,0,0,1.447.571,2.41,2.41,0,0,0,1.992-.989l.959.916a3.2,3.2,0,0,1-1.271,1.1A3.978,3.978,0,0,1,95.566,16.146Zm-.212-6.79a1.5,1.5,0,0,0-1.183.513A2.657,2.657,0,0,0,93.6,11.3h3.391v-.132a2.163,2.163,0,0,0-.476-1.351A1.487,1.487,0,0,0,95.354,9.357Zm6.423-1.282.051.916a2.849,2.849,0,0,1,2.307-1.062q2.476,0,2.52,2.834V16h-1.78V10.866a1.632,1.632,0,0,0-.326-1.117,1.371,1.371,0,0,0-1.066-.363,1.715,1.715,0,0,0-1.6.974V16H100.1V8.075Zm6.357,3.9a4.712,4.712,0,0,1,.85-2.941,2.722,2.722,0,0,1,2.278-1.11,2.587,2.587,0,0,1,2.036.879V4.75h1.78V16h-1.611l-.088-.82a2.624,2.624,0,0,1-2.131.967A2.707,2.707,0,0,1,109,15.026,4.884,4.884,0,0,1,108.135,11.979Zm1.78.154a3.3,3.3,0,0,0,.465,1.886,1.509,1.509,0,0,0,1.322.677,1.681,1.681,0,0,0,1.6-.974V10.338a1.655,1.655,0,0,0-1.582-.952,1.52,1.52,0,0,0-1.333.685A3.674,3.674,0,0,0,109.914,12.133Zm10.51,4.014a3.682,3.682,0,0,1-2.743-1.066,3.866,3.866,0,0,1-1.051-2.838v-.22a4.755,4.755,0,0,1,.458-2.12,3.484,3.484,0,0,1,1.285-1.454,3.4,3.4,0,0,1,1.846-.52,3.11,3.11,0,0,1,2.5,1.033,4.367,4.367,0,0,1,.883,2.922V12.6h-5.178a2.38,2.38,0,0,0,.656,1.553,1.968,1.968,0,0,0,1.447.571,2.41,2.41,0,0,0,1.992-.989l.959.916a3.2,3.2,0,0,1-1.271,1.1A3.978,3.978,0,0,1,120.425,16.146Zm-.212-6.79a1.5,1.5,0,0,0-1.183.513,2.657,2.657,0,0,0-.575,1.428h3.391v-.132a2.163,2.163,0,0,0-.476-1.351A1.487,1.487,0,0,0,120.212,9.357Zm8.921.344a4.4,4.4,0,0,0-.725-.059,1.633,1.633,0,0,0-1.648.938V16h-1.78V8.075h1.7l.044.886a2.005,2.005,0,0,1,1.787-1.033,1.666,1.666,0,0,1,.63.1Zm5.859,6.3a2.747,2.747,0,0,1-.205-.74,2.994,2.994,0,0,1-4.028.205A2.179,2.179,0,0,1,130,13.781a2.25,2.25,0,0,1,.941-1.945,4.561,4.561,0,0,1,2.692-.677h1.091v-.52a1.388,1.388,0,0,0-.344-.985,1.365,1.365,0,0,0-1.047-.37,1.568,1.568,0,0,0-1,.3.941.941,0,0,0-.388.773h-1.78a1.975,1.975,0,0,1,.432-1.219,2.879,2.879,0,0,1,1.176-.89,4.129,4.129,0,0,1,1.659-.322,3.325,3.325,0,0,1,2.219.7,2.494,2.494,0,0,1,.85,1.967v3.574a4.051,4.051,0,0,0,.3,1.707V16Zm-1.956-1.282a2.025,2.025,0,0,0,.992-.256,1.713,1.713,0,0,0,.7-.688V12.279h-.959a2.624,2.624,0,0,0-1.487.344,1.115,1.115,0,0,0-.5.974,1.04,1.04,0,0,0,.341.817A1.319,1.319,0,0,0,133.037,14.718Zm.989-9.968h2.029l-2.029,2.219-1.428,0Zm7.749,7.214a4.673,4.673,0,0,1,.461-2.1,3.37,3.37,0,0,1,1.3-1.436,3.653,3.653,0,0,1,1.919-.5,3.462,3.462,0,0,1,2.6,1.033,4.062,4.062,0,0,1,1.08,2.739l.007.417a4.715,4.715,0,0,1-.45,2.095,3.329,3.329,0,0,1-1.289,1.428,3.679,3.679,0,0,1-1.937.505,3.438,3.438,0,0,1-2.684-1.117,4.278,4.278,0,0,1-1.007-2.977Zm1.78.154a3.193,3.193,0,0,0,.505,1.915,1.643,1.643,0,0,0,1.406.692,1.625,1.625,0,0,0,1.4-.7,3.527,3.527,0,0,0,.5-2.058,3.152,3.152,0,0,0-.516-1.9,1.74,1.74,0,0,0-2.787-.011A3.46,3.46,0,0,0,143.554,12.118ZM9.148,30.972A4.683,4.683,0,0,1,10,28.02a2.761,2.761,0,0,1,2.3-1.091,2.6,2.6,0,0,1,2.1.93l.1-.784h1.582V38.047H14.3V34.326a2.656,2.656,0,0,1-2.021.82A2.735,2.735,0,0,1,10,34.037,4.9,4.9,0,0,1,9.148,30.972Zm1.78.154a3.307,3.307,0,0,0,.48,1.908,1.529,1.529,0,0,0,1.329.692,1.686,1.686,0,0,0,1.567-.9v-3.6a1.687,1.687,0,0,0-1.553-.864,1.555,1.555,0,0,0-1.337.681A3.608,3.608,0,0,0,10.927,31.125Zm11.873,3.1a2.76,2.76,0,0,1-2.227.923,2.46,2.46,0,0,1-1.952-.754,3.209,3.209,0,0,1-.663-2.183V27.075h1.78v5.112q0,1.509,1.252,1.509a1.759,1.759,0,0,0,1.75-.93V27.075h1.78V35H22.844Zm7.024.923a3.682,3.682,0,0,1-2.743-1.066,3.866,3.866,0,0,1-1.051-2.838v-.22a4.755,4.755,0,0,1,.458-2.12,3.484,3.484,0,0,1,1.285-1.454,3.4,3.4,0,0,1,1.846-.52,3.11,3.11,0,0,1,2.5,1.033A4.367,4.367,0,0,1,33,30.884V31.6H27.824a2.38,2.38,0,0,0,.656,1.553,1.968,1.968,0,0,0,1.447.571,2.41,2.41,0,0,0,1.992-.989l.959.916a3.2,3.2,0,0,1-1.271,1.1A3.978,3.978,0,0,1,29.824,35.146Zm-.212-6.79a1.5,1.5,0,0,0-1.183.513,2.657,2.657,0,0,0-.575,1.428h3.391v-.132a2.163,2.163,0,0,0-.476-1.351A1.487,1.487,0,0,0,29.612,28.357Zm.4-4.607h2.029l-2.029,2.219-1.428,0ZM42.268,28.7a4.4,4.4,0,0,0-.725-.059,1.633,1.633,0,0,0-1.648.938V35h-1.78V27.075h1.7l.044.886a2.005,2.005,0,0,1,1.787-1.033,1.666,1.666,0,0,1,.63.1Zm4.614,6.445a3.682,3.682,0,0,1-2.743-1.066,3.866,3.866,0,0,1-1.051-2.838v-.22a4.755,4.755,0,0,1,.458-2.12,3.484,3.484,0,0,1,1.285-1.454,3.4,3.4,0,0,1,1.846-.52,3.11,3.11,0,0,1,2.5,1.033,4.367,4.367,0,0,1,.883,2.922V31.6H44.883a2.38,2.38,0,0,0,.656,1.553,1.968,1.968,0,0,0,1.447.571,2.41,2.41,0,0,0,1.992-.989l.959.916a3.2,3.2,0,0,1-1.271,1.1A3.978,3.978,0,0,1,46.882,35.146Zm-.212-6.79a1.5,1.5,0,0,0-1.183.513,2.657,2.657,0,0,0-.575,1.428H48.3v-.132a2.163,2.163,0,0,0-.476-1.351A1.487,1.487,0,0,0,46.67,28.357ZM54.7,33.726a1.609,1.609,0,0,0,1.106-.388,1.326,1.326,0,0,0,.469-.959h1.677a2.614,2.614,0,0,1-.461,1.381,3.027,3.027,0,0,1-1.172,1.014,3.492,3.492,0,0,1-1.6.374,3.379,3.379,0,0,1-2.637-1.077,4.27,4.27,0,0,1-.974-2.974v-.183a4.2,4.2,0,0,1,.967-2.9,3.348,3.348,0,0,1,2.637-1.088,3.256,3.256,0,0,1,2.3.824,2.952,2.952,0,0,1,.934,2.164H56.272a1.63,1.63,0,0,0-.465-1.121,1.5,1.5,0,0,0-1.11-.439,1.566,1.566,0,0,0-1.333.626,3.2,3.2,0,0,0-.476,1.9v.286a3.248,3.248,0,0,0,.465,1.923A1.565,1.565,0,0,0,54.7,33.726Zm9.4.5a2.76,2.76,0,0,1-2.227.923,2.46,2.46,0,0,1-1.952-.754,3.209,3.209,0,0,1-.663-2.183V27.075h1.78v5.112q0,1.509,1.252,1.509a1.759,1.759,0,0,0,1.75-.93V27.075h1.78V35H64.138ZM71.777,28.7a4.4,4.4,0,0,0-.725-.059,1.633,1.633,0,0,0-1.648.938V35h-1.78V27.075h1.7l.044.886a2.005,2.005,0,0,1,1.787-1.033,1.666,1.666,0,0,1,.63.1Zm5.566,4.146a.807.807,0,0,0-.392-.725,4.167,4.167,0,0,0-1.3-.439,6.683,6.683,0,0,1-1.516-.483A2.023,2.023,0,0,1,72.8,29.331a2.109,2.109,0,0,1,.864-1.714,3.417,3.417,0,0,1,2.2-.688,3.555,3.555,0,0,1,2.3.7,2.231,2.231,0,0,1,.875,1.824h-1.78a1.1,1.1,0,0,0-.381-.853,1.46,1.46,0,0,0-1.011-.341,1.577,1.577,0,0,0-.956.271.854.854,0,0,0-.37.725.721.721,0,0,0,.344.637,4.734,4.734,0,0,0,1.392.458,6.587,6.587,0,0,1,1.644.549,2.328,2.328,0,0,1,.886.765,1.952,1.952,0,0,1,.289,1.084,2.065,2.065,0,0,1-.886,1.732,3.779,3.779,0,0,1-2.322.663,4.1,4.1,0,0,1-1.736-.352,2.857,2.857,0,0,1-1.187-.967,2.288,2.288,0,0,1-.425-1.326h1.729a1.254,1.254,0,0,0,.476.97,1.85,1.85,0,0,0,1.165.341,1.8,1.8,0,0,0,1.069-.267A.827.827,0,0,0,77.344,32.847Zm2.966-1.882a4.673,4.673,0,0,1,.461-2.1,3.37,3.37,0,0,1,1.3-1.436,3.653,3.653,0,0,1,1.919-.5,3.462,3.462,0,0,1,2.6,1.033,4.062,4.062,0,0,1,1.08,2.739l.007.417a4.715,4.715,0,0,1-.45,2.095,3.329,3.329,0,0,1-1.289,1.428A3.679,3.679,0,0,1,84,35.146a3.438,3.438,0,0,1-2.684-1.117,4.278,4.278,0,0,1-1.007-2.977Zm1.78.154a3.193,3.193,0,0,0,.505,1.915A1.643,1.643,0,0,0,84,33.726a1.625,1.625,0,0,0,1.4-.7,3.527,3.527,0,0,0,.5-2.058,3.152,3.152,0,0,0-.516-1.9,1.74,1.74,0,0,0-2.787-.011A3.46,3.46,0,0,0,82.09,31.118Zm11.536,1.729a.807.807,0,0,0-.392-.725,4.167,4.167,0,0,0-1.3-.439,6.683,6.683,0,0,1-1.516-.483,2.023,2.023,0,0,1-1.333-1.868,2.109,2.109,0,0,1,.864-1.714,3.417,3.417,0,0,1,2.2-.688,3.555,3.555,0,0,1,2.3.7,2.231,2.231,0,0,1,.875,1.824h-1.78a1.1,1.1,0,0,0-.381-.853,1.46,1.46,0,0,0-1.011-.341,1.577,1.577,0,0,0-.956.271.854.854,0,0,0-.37.725.721.721,0,0,0,.344.637,4.734,4.734,0,0,0,1.392.458A6.587,6.587,0,0,1,94.2,30.9a2.328,2.328,0,0,1,.886.765,1.952,1.952,0,0,1,.289,1.084,2.065,2.065,0,0,1-.886,1.732,3.779,3.779,0,0,1-2.322.663,4.1,4.1,0,0,1-1.736-.352,2.857,2.857,0,0,1-1.187-.967,2.288,2.288,0,0,1-.425-1.326h1.729a1.254,1.254,0,0,0,.476.97,1.85,1.85,0,0,0,1.165.341,1.8,1.8,0,0,0,1.069-.267A.827.827,0,0,0,93.625,32.847Zm10.291.879a1.609,1.609,0,0,0,1.106-.388,1.326,1.326,0,0,0,.469-.959h1.677a2.614,2.614,0,0,1-.461,1.381,3.027,3.027,0,0,1-1.172,1.014,3.492,3.492,0,0,1-1.6.374A3.379,3.379,0,0,1,101.3,34.07a4.27,4.27,0,0,1-.974-2.974v-.183a4.2,4.2,0,0,1,.967-2.9,3.348,3.348,0,0,1,2.637-1.088,3.256,3.256,0,0,1,2.3.824,2.952,2.952,0,0,1,.934,2.164H105.49a1.63,1.63,0,0,0-.465-1.121,1.5,1.5,0,0,0-1.11-.439,1.566,1.566,0,0,0-1.333.626,3.2,3.2,0,0,0-.476,1.9v.286a3.248,3.248,0,0,0,.465,1.923A1.565,1.565,0,0,0,103.916,33.726ZM110.405,35h-1.78V23.75h1.78Zm6.672,0a2.747,2.747,0,0,1-.205-.74,2.994,2.994,0,0,1-4.028.205,2.179,2.179,0,0,1-.754-1.685,2.25,2.25,0,0,1,.941-1.945,4.561,4.561,0,0,1,2.692-.677h1.091v-.52a1.388,1.388,0,0,0-.344-.985,1.365,1.365,0,0,0-1.047-.37,1.568,1.568,0,0,0-1,.3.941.941,0,0,0-.388.773h-1.78a1.975,1.975,0,0,1,.432-1.219,2.879,2.879,0,0,1,1.176-.89,4.129,4.129,0,0,1,1.659-.322,3.325,3.325,0,0,1,2.219.7,2.494,2.494,0,0,1,.85,1.967v3.574a4.051,4.051,0,0,0,.3,1.707V35Zm-1.956-1.282a2.025,2.025,0,0,0,.992-.256,1.713,1.713,0,0,0,.7-.688V31.279h-.959a2.624,2.624,0,0,0-1.487.344,1.115,1.115,0,0,0-.5.974,1.04,1.04,0,0,0,.341.817A1.319,1.319,0,0,0,115.122,33.718Zm8.02-.974,1.677-5.669h1.838L123.911,35h-1.545L119.6,27.075h1.846Zm8.115,2.4a3.682,3.682,0,0,1-2.743-1.066,3.866,3.866,0,0,1-1.051-2.838v-.22a4.755,4.755,0,0,1,.458-2.12,3.484,3.484,0,0,1,1.285-1.454,3.4,3.4,0,0,1,1.846-.52,3.11,3.11,0,0,1,2.5,1.033,4.367,4.367,0,0,1,.883,2.922V31.6h-5.178a2.38,2.38,0,0,0,.656,1.553,1.968,1.968,0,0,0,1.447.571,2.41,2.41,0,0,0,1.992-.989l.959.916a3.2,3.2,0,0,1-1.271,1.1A3.978,3.978,0,0,1,131.257,35.146Zm-.212-6.79a1.5,1.5,0,0,0-1.183.513,2.657,2.657,0,0,0-.575,1.428h3.391v-.132a2.163,2.163,0,0,0-.476-1.351A1.487,1.487,0,0,0,131.045,28.357Zm12.949,4.49a.807.807,0,0,0-.392-.725,4.167,4.167,0,0,0-1.3-.439,6.683,6.683,0,0,1-1.516-.483,2.023,2.023,0,0,1-1.333-1.868,2.109,2.109,0,0,1,.864-1.714,3.417,3.417,0,0,1,2.2-.688,3.555,3.555,0,0,1,2.3.7,2.231,2.231,0,0,1,.875,1.824h-1.78a1.1,1.1,0,0,0-.381-.853,1.46,1.46,0,0,0-1.011-.341,1.577,1.577,0,0,0-.956.271.854.854,0,0,0-.37.725.721.721,0,0,0,.344.637,4.734,4.734,0,0,0,1.392.458,6.587,6.587,0,0,1,1.644.549,2.328,2.328,0,0,1,.886.765,1.952,1.952,0,0,1,.289,1.084,2.065,2.065,0,0,1-.886,1.732,3.779,3.779,0,0,1-2.322.663,4.1,4.1,0,0,1-1.736-.352,2.857,2.857,0,0,1-1.187-.967,2.288,2.288,0,0,1-.425-1.326h1.729a1.254,1.254,0,0,0,.476.97,1.85,1.85,0,0,0,1.165.341,1.8,1.8,0,0,0,1.069-.267A.827.827,0,0,0,143.994,32.847Zm6.79,2.3a3.682,3.682,0,0,1-2.743-1.066,3.866,3.866,0,0,1-1.051-2.838v-.22a4.755,4.755,0,0,1,.458-2.12,3.484,3.484,0,0,1,1.285-1.454,3.4,3.4,0,0,1,1.846-.52,3.11,3.11,0,0,1,2.5,1.033,4.367,4.367,0,0,1,.883,2.922V31.6h-5.178a2.38,2.38,0,0,0,.656,1.553,1.968,1.968,0,0,0,1.447.571,2.41,2.41,0,0,0,1.992-.989l.959.916a3.2,3.2,0,0,1-1.271,1.1A3.978,3.978,0,0,1,150.783,35.146Zm-.212-6.79a1.5,1.5,0,0,0-1.183.513,2.657,2.657,0,0,0-.575,1.428H152.2v-.132a2.163,2.163,0,0,0-.476-1.351A1.487,1.487,0,0,0,150.571,28.357ZM17.9,47.7a4.4,4.4,0,0,0-.725-.059,1.633,1.633,0,0,0-1.648.938V54h-1.78V46.075h1.7l.044.886a2.005,2.005,0,0,1,1.787-1.033,1.666,1.666,0,0,1,.63.1Zm4.614,6.445a3.682,3.682,0,0,1-2.743-1.066,3.866,3.866,0,0,1-1.051-2.838v-.22a4.755,4.755,0,0,1,.458-2.12,3.484,3.484,0,0,1,1.285-1.454,3.4,3.4,0,0,1,1.846-.52,3.11,3.11,0,0,1,2.5,1.033,4.367,4.367,0,0,1,.883,2.922V50.6H20.519a2.38,2.38,0,0,0,.656,1.553,1.968,1.968,0,0,0,1.447.571,2.41,2.41,0,0,0,1.992-.989l.959.916a3.2,3.2,0,0,1-1.271,1.1A3.978,3.978,0,0,1,22.518,54.146Zm-.212-6.79a1.5,1.5,0,0,0-1.183.513,2.657,2.657,0,0,0-.575,1.428h3.391v-.132a2.163,2.163,0,0,0-.476-1.351A1.487,1.487,0,0,0,22.306,47.357Zm4.438,2.615a4.683,4.683,0,0,1,.85-2.952,2.761,2.761,0,0,1,2.3-1.091,2.6,2.6,0,0,1,2.1.93l.1-.784H33.68V57.047H31.9V53.326a2.656,2.656,0,0,1-2.021.82,2.735,2.735,0,0,1-2.278-1.11A4.9,4.9,0,0,1,26.744,49.972Zm1.78.154A3.307,3.307,0,0,0,29,52.033a1.529,1.529,0,0,0,1.329.692,1.686,1.686,0,0,0,1.567-.9v-3.6a1.687,1.687,0,0,0-1.553-.864,1.555,1.555,0,0,0-1.337.681A3.608,3.608,0,0,0,28.524,50.125Zm11.873,3.1a2.76,2.76,0,0,1-2.227.923,2.46,2.46,0,0,1-1.952-.754,3.209,3.209,0,0,1-.663-2.183V46.075h1.78v5.112q0,1.509,1.252,1.509a1.759,1.759,0,0,0,1.75-.93V46.075h1.78V54H40.44ZM45.824,54h-1.78V46.075h1.78Zm-1.89-9.983a.945.945,0,0,1,.26-.681.982.982,0,0,1,.743-.271,1,1,0,0,1,.747.271.937.937,0,0,1,.264.681.916.916,0,0,1-.264.67,1,1,0,0,1-.747.267.99.99,0,0,1-.743-.267A.923.923,0,0,1,43.934,44.017Zm7.317,10.129a3.682,3.682,0,0,1-2.743-1.066,3.866,3.866,0,0,1-1.051-2.838v-.22a4.755,4.755,0,0,1,.458-2.12A3.484,3.484,0,0,1,49.2,46.449a3.4,3.4,0,0,1,1.846-.52,3.11,3.11,0,0,1,2.5,1.033,4.367,4.367,0,0,1,.883,2.922V50.6H49.251a2.38,2.38,0,0,0,.656,1.553,1.968,1.968,0,0,0,1.447.571,2.41,2.41,0,0,0,1.992-.989l.959.916a3.2,3.2,0,0,1-1.271,1.1A3.978,3.978,0,0,1,51.251,54.146Zm-.212-6.79a1.5,1.5,0,0,0-1.183.513,2.657,2.657,0,0,0-.575,1.428h3.391v-.132a2.163,2.163,0,0,0-.476-1.351A1.487,1.487,0,0,0,51.039,47.357Zm8.921.344a4.4,4.4,0,0,0-.725-.059,1.633,1.633,0,0,0-1.648.938V54h-1.78V46.075h1.7l.044.886a2.005,2.005,0,0,1,1.787-1.033,1.666,1.666,0,0,1,.63.1Zm4.614,6.445a3.682,3.682,0,0,1-2.743-1.066,3.866,3.866,0,0,1-1.051-2.838v-.22a4.755,4.755,0,0,1,.458-2.12,3.484,3.484,0,0,1,1.285-1.454,3.4,3.4,0,0,1,1.846-.52,3.11,3.11,0,0,1,2.5,1.033,4.367,4.367,0,0,1,.883,2.922V50.6H62.574a2.38,2.38,0,0,0,.656,1.553,1.968,1.968,0,0,0,1.447.571,2.41,2.41,0,0,0,1.992-.989l.959.916a3.2,3.2,0,0,1-1.271,1.1A3.978,3.978,0,0,1,64.574,54.146Zm-.212-6.79a1.5,1.5,0,0,0-1.183.513A2.657,2.657,0,0,0,62.6,49.3h3.391v-.132a2.163,2.163,0,0,0-.476-1.351A1.487,1.487,0,0,0,64.361,47.357Zm6.423-1.282.051.916a2.849,2.849,0,0,1,2.307-1.062q2.476,0,2.52,2.834V54h-1.78V48.866a1.632,1.632,0,0,0-.326-1.117,1.371,1.371,0,0,0-1.066-.363,1.715,1.715,0,0,0-1.6.974V54h-1.78V46.075ZM88.15,50.118a4.718,4.718,0,0,1-.835,2.933,2.9,2.9,0,0,1-4.329.238v3.757h-1.78V46.075h1.641l.073.806a2.614,2.614,0,0,1,2.131-.952,2.7,2.7,0,0,1,2.274,1.08,4.844,4.844,0,0,1,.824,3Zm-1.772-.154a3.305,3.305,0,0,0-.472-1.882,1.536,1.536,0,0,0-1.351-.7,1.638,1.638,0,0,0-1.567.9V51.8a1.653,1.653,0,0,0,1.582.923,1.534,1.534,0,0,0,1.329-.685A3.638,3.638,0,0,0,86.378,49.964ZM94.391,54a2.747,2.747,0,0,1-.205-.74,2.994,2.994,0,0,1-4.028.205,2.179,2.179,0,0,1-.754-1.685,2.25,2.25,0,0,1,.941-1.945,4.561,4.561,0,0,1,2.692-.677h1.091v-.52a1.388,1.388,0,0,0-.344-.985,1.365,1.365,0,0,0-1.047-.37,1.568,1.568,0,0,0-1,.3.941.941,0,0,0-.388.773h-1.78A1.975,1.975,0,0,1,90,47.141a2.879,2.879,0,0,1,1.176-.89,4.129,4.129,0,0,1,1.659-.322,3.325,3.325,0,0,1,2.219.7,2.494,2.494,0,0,1,.85,1.967v3.574a4.051,4.051,0,0,0,.3,1.707V54Zm-1.956-1.282a2.025,2.025,0,0,0,.992-.256,1.713,1.713,0,0,0,.7-.688V50.279h-.959a2.624,2.624,0,0,0-1.487.344,1.115,1.115,0,0,0-.5.974,1.04,1.04,0,0,0,.341.817A1.319,1.319,0,0,0,92.435,52.718ZM101.92,47.7a4.4,4.4,0,0,0-.725-.059,1.633,1.633,0,0,0-1.648.938V54h-1.78V46.075h1.7l.044.886a2.005,2.005,0,0,1,1.787-1.033,1.666,1.666,0,0,1,.63.1Zm5.64,6.3a2.747,2.747,0,0,1-.205-.74,2.994,2.994,0,0,1-4.028.205,2.179,2.179,0,0,1-.754-1.685,2.25,2.25,0,0,1,.941-1.945,4.561,4.561,0,0,1,2.692-.677H107.3v-.52a1.388,1.388,0,0,0-.344-.985,1.365,1.365,0,0,0-1.047-.37,1.568,1.568,0,0,0-1,.3.941.941,0,0,0-.388.773h-1.78a1.975,1.975,0,0,1,.432-1.219,2.879,2.879,0,0,1,1.176-.89,4.129,4.129,0,0,1,1.659-.322,3.325,3.325,0,0,1,2.219.7,2.494,2.494,0,0,1,.85,1.967v3.574a4.051,4.051,0,0,0,.3,1.707V54ZM105.6,52.718a2.025,2.025,0,0,0,.992-.256,1.713,1.713,0,0,0,.7-.688V50.279h-.959a2.624,2.624,0,0,0-1.487.344,1.115,1.115,0,0,0-.5.974,1.04,1.04,0,0,0,.341.817A1.319,1.319,0,0,0,105.6,52.718Zm12.561,1.428a3.682,3.682,0,0,1-2.743-1.066,3.866,3.866,0,0,1-1.051-2.838v-.22a4.755,4.755,0,0,1,.458-2.12,3.484,3.484,0,0,1,1.285-1.454,3.4,3.4,0,0,1,1.846-.52,3.11,3.11,0,0,1,2.5,1.033,4.367,4.367,0,0,1,.883,2.922V50.6h-5.178a2.38,2.38,0,0,0,.656,1.553,1.968,1.968,0,0,0,1.447.571,2.41,2.41,0,0,0,1.992-.989l.959.916a3.2,3.2,0,0,1-1.271,1.1A3.978,3.978,0,0,1,118.165,54.146Zm-.212-6.79a1.5,1.5,0,0,0-1.183.513,2.657,2.657,0,0,0-.575,1.428h3.391v-.132a2.163,2.163,0,0,0-.476-1.351A1.487,1.487,0,0,0,117.953,47.357Zm9.214,4.49a.807.807,0,0,0-.392-.725,4.167,4.167,0,0,0-1.3-.439,6.683,6.683,0,0,1-1.516-.483,2.023,2.023,0,0,1-1.333-1.868,2.109,2.109,0,0,1,.864-1.714,3.417,3.417,0,0,1,2.2-.688,3.555,3.555,0,0,1,2.3.7,2.231,2.231,0,0,1,.875,1.824h-1.78a1.1,1.1,0,0,0-.381-.853,1.46,1.46,0,0,0-1.011-.341,1.577,1.577,0,0,0-.956.271.854.854,0,0,0-.37.725.721.721,0,0,0,.344.637,4.734,4.734,0,0,0,1.392.458,6.587,6.587,0,0,1,1.644.549,2.328,2.328,0,0,1,.886.765,1.952,1.952,0,0,1,.289,1.084,2.065,2.065,0,0,1-.886,1.732,3.779,3.779,0,0,1-2.322.663,4.1,4.1,0,0,1-1.736-.352,2.857,2.857,0,0,1-1.187-.967,2.288,2.288,0,0,1-.425-1.326h1.729a1.254,1.254,0,0,0,.476.97,1.85,1.85,0,0,0,1.165.341,1.8,1.8,0,0,0,1.069-.267A.827.827,0,0,0,127.167,51.847Zm5.53-7.7v1.926h1.4v1.318h-1.4v4.424a.974.974,0,0,0,.179.656.832.832,0,0,0,.641.2,2.742,2.742,0,0,0,.623-.073v1.377a4.383,4.383,0,0,1-1.172.168q-2.051,0-2.051-2.263v-4.49h-1.3V46.075h1.3V44.149Zm2.2,5.815a4.673,4.673,0,0,1,.461-2.1,3.37,3.37,0,0,1,1.3-1.436,3.653,3.653,0,0,1,1.919-.5,3.462,3.462,0,0,1,2.6,1.033,4.062,4.062,0,0,1,1.08,2.739l.007.417a4.715,4.715,0,0,1-.45,2.095,3.329,3.329,0,0,1-1.289,1.428,3.679,3.679,0,0,1-1.937.505,3.438,3.438,0,0,1-2.684-1.117,4.278,4.278,0,0,1-1.007-2.977Zm1.78.154a3.193,3.193,0,0,0,.505,1.915,1.643,1.643,0,0,0,1.406.692,1.625,1.625,0,0,0,1.4-.7,3.527,3.527,0,0,0,.5-2.058,3.152,3.152,0,0,0-.516-1.9,1.74,1.74,0,0,0-2.787-.011A3.46,3.46,0,0,0,136.681,50.118Zm8.745.754a3.26,3.26,0,0,1,1.2-2.826,7.3,7.3,0,0,0,.9-.986,1.725,1.725,0,0,0,.293-.965,1.476,1.476,0,0,0-.341-1.049,1.308,1.308,0,0,0-1-.362,1.439,1.439,0,0,0-1.014.354,1.24,1.24,0,0,0-.385.96H143.3a2.623,2.623,0,0,1,.883-2.053,3.374,3.374,0,0,1,2.3-.755,3.293,3.293,0,0,1,2.3.748,2.678,2.678,0,0,1,.824,2.089,3.421,3.421,0,0,1-1.113,2.353l-.9.887a2.416,2.416,0,0,0-.5,1.606Zm-.125,2.274a.933.933,0,0,1,.271-.7,1.139,1.139,0,0,1,1.472.007.94.94,0,0,1,.271.69.923.923,0,0,1-.264.671,1,1,0,0,1-.747.27.984.984,0,0,1-.743-.27A.93.93,0,0,1,145.3,53.147Z" transform="translate(1147 708.001)" fill="#3a7cb5"/>
    <g transform="matrix(1, 0, 0, 1, 285, 476.07)" filter="url(#Elipse_4141)">
      <circle id="Elipse_4141-2" data-name="Elipse 4141" cx="61.142" cy="61.142" r="61.142" transform="translate(666.61 21.02)" fill="#d6cca6"/>
    </g>
    <g id="Grupo_57282" data-name="Grupo 57282" transform="translate(934.008 479.494)">
      <path id="Trazado_114839" data-name="Trazado 114839" d="M2244.766,831.543a1.184,1.184,0,0,1-1.025-.592l-12-20.788a78.762,78.762,0,0,1-65.716-77.667h2.367a75.979,75.979,0,0,0,64.279,75.421,1.182,1.182,0,0,1,.839.577l11.259,19.5,11.258-19.5a1.183,1.183,0,0,1,.839-.577,76.381,76.381,0,0,0-12.1-151.8v-2.367a78.749,78.749,0,0,1,13.027,156.41l-12,20.788A1.183,1.183,0,0,1,2244.766,831.543Z" transform="translate(-2166.023 -653.752)" fill="#606060"/>
    </g>
    <g id="Grupo_57283" data-name="Grupo 57283" transform="translate(930.754 476.239)">
      <path id="Trazado_114840" data-name="Trazado 114840" d="M2165.513,726.364h-8.876a82,82,0,0,1,82-82v8.876A73.2,73.2,0,0,0,2165.513,726.364Z" transform="translate(-2156.637 -644.366)" fill="#d6cca6"/>
    </g>
    <g transform="matrix(1, 0, 0, 1, 285, 476.07)" filter="url(#Elipse_4142)">
      <circle id="Elipse_4142-2" data-name="Elipse 4142" cx="61.142" cy="61.142" r="61.142" transform="translate(882.39 21.01)" fill="#529ad9"/>
    </g>
    <g id="Grupo_57284" data-name="Grupo 57284" transform="translate(1149.789 479.479)">
      <path id="Trazado_114841" data-name="Trazado 114841" d="M2867.007,831.513a1.184,1.184,0,0,1-1.025-.592l-12.011-20.8a78.76,78.76,0,0,1-65.707-77.667h2.367a75.983,75.983,0,0,0,64.27,75.42,1.183,1.183,0,0,1,.839.577l11.267,19.515,11.267-19.515a1.182,1.182,0,0,1,.839-.577,76.381,76.381,0,0,0-12.106-151.8v-2.367a78.749,78.749,0,0,1,13.036,156.41l-12.012,20.8A1.183,1.183,0,0,1,2867.007,831.513Z" transform="translate(-2788.264 -653.707)" fill="#606060"/>
    </g>
    <g id="Grupo_57285" data-name="Grupo 57285" transform="translate(1146.534 476.224)">
      <path id="Trazado_114842" data-name="Trazado 114842" d="M2787.755,726.32h-8.877a82,82,0,0,1,82-82V653.2A73.2,73.2,0,0,0,2787.755,726.32Z" transform="translate(-2778.878 -644.322)" fill="#529ad9"/>
    </g>
    <g transform="matrix(1, 0, 0, 1, 285, 476.07)" filter="url(#Elipse_4143)">
      <circle id="Elipse_4143-2" data-name="Elipse 4143" cx="61.142" cy="61.142" r="61.142" transform="translate(20.86 20.86)" fill="#69787d"/>
    </g>
    <g id="Grupo_57286" data-name="Grupo 57286" transform="translate(285 476.069)">
      <path id="Trazado_114843" data-name="Trazado 114843" d="M303.367,725.874h-8.877a82,82,0,0,1,82-82v8.877A73.2,73.2,0,0,0,303.367,725.874Z" transform="translate(-294.491 -643.876)" fill="#69787d"/>
    </g>
    <g id="Grupo_57287" data-name="Grupo 57287" transform="translate(288.255 479.324)">
      <path id="Trazado_114844" data-name="Trazado 114844" d="M382.619,831.223a1.183,1.183,0,0,1-1.025-.592l-12.111-20.975a78.759,78.759,0,0,1-65.608-77.651h2.367a76,76,0,0,0,64.173,75.405,1.181,1.181,0,0,1,.837.577l11.366,19.685,11.366-19.685a1.181,1.181,0,0,1,.837-.577,76.382,76.382,0,0,0-12.2-151.781v-2.367a78.75,78.75,0,0,1,13.136,156.394l-12.111,20.975A1.184,1.184,0,0,1,382.619,831.223Z" transform="translate(-303.876 -653.262)" fill="#606060"/>
    </g>
    <g transform="matrix(1, 0, 0, 1, 285, 476.07)" filter="url(#Elipse_4144)">
      <circle id="Elipse_4144-2" data-name="Elipse 4144" cx="61.142" cy="61.142" r="61.142" transform="translate(451.82 21.01)" fill="#a0a603"/>
    </g>
    <g id="Grupo_57288" data-name="Grupo 57288" transform="translate(719.222 479.479)">
      <path id="Trazado_114845" data-name="Trazado 114845" d="M1625.39,831.513a1.184,1.184,0,0,1-1.025-.592l-12.011-20.8a78.761,78.761,0,0,1-65.707-77.667h2.367a75.984,75.984,0,0,0,64.27,75.42,1.182,1.182,0,0,1,.839.577l11.267,19.515,11.267-19.515a1.183,1.183,0,0,1,.839-.577,76.381,76.381,0,0,0-12.106-151.8v-2.367a78.749,78.749,0,0,1,13.036,156.41l-12.011,20.8A1.183,1.183,0,0,1,1625.39,831.513Z" transform="translate(-1546.647 -653.707)" fill="#606060"/>
    </g>
    <g id="Grupo_57289" data-name="Grupo 57289" transform="translate(715.967 476.224)">
      <path id="Trazado_114846" data-name="Trazado 114846" d="M1546.138,726.32h-8.877a82,82,0,0,1,82-82V653.2A73.2,73.2,0,0,0,1546.138,726.32Z" transform="translate(-1537.261 -644.322)" fill="#a0a603"/>
    </g>
    <g transform="matrix(1, 0, 0, 1, 285, 476.07)" filter="url(#Elipse_4145)">
      <circle id="Elipse_4145-2" data-name="Elipse 4145" cx="61.142" cy="61.142" r="61.142" transform="translate(236.14 20.93)" fill="#6f7302"/>
    </g>
    <g id="Grupo_57290" data-name="Grupo 57290" transform="translate(503.539 479.401)">
      <path id="Trazado_114847" data-name="Trazado 114847" d="M1003.43,831.367h0a1.184,1.184,0,0,1-1.025-.592l-12.061-20.891a78.757,78.757,0,0,1-65.657-77.657h2.367a75.989,75.989,0,0,0,64.221,75.411,1.184,1.184,0,0,1,.838.577l11.317,19.6,11.32-19.6a1.183,1.183,0,0,1,.838-.577,76.381,76.381,0,0,0-12.158-151.787v-2.367a78.749,78.749,0,0,1,13.089,156.4l-12.065,20.891A1.183,1.183,0,0,1,1003.43,831.367Z" transform="translate(-924.687 -653.484)" fill="#606060"/>
    </g>
    <g id="Grupo_57291" data-name="Grupo 57291" transform="translate(500.284 476.146)">
      <path id="Trazado_114848" data-name="Trazado 114848" d="M924.178,726.1H915.3a82,82,0,0,1,82-82v8.876A73.2,73.2,0,0,0,924.178,726.1Z" transform="translate(-915.302 -644.099)" fill="#6f7302"/>
    </g>
    <circle id="Elipse_4146" data-name="Elipse 4146" cx="6.509" cy="6.509" r="6.509" transform="translate(360.598 677.046)" fill="#69787d"/>
    <circle id="Elipse_4147" data-name="Elipse 4147" cx="6.509" cy="6.509" r="6.509" transform="translate(575.409 677.046)" fill="#6f7302"/>
    <circle id="Elipse_4148" data-name="Elipse 4148" cx="6.509" cy="6.509" r="6.509" transform="translate(791.699 677.046)" fill="#a0a603"/>
    <circle id="Elipse_4149" data-name="Elipse 4149" cx="6.509" cy="6.509" r="6.509" transform="translate(1006.51 677.046)" fill="#d6cca6"/>
    <path id="Trazado_114849" data-name="Trazado 114849" d="M1369.987,1208.071a11.849,11.849,0,0,0-11.8,10.947h-191.51a11.832,11.832,0,0,0-23.6,0H951.868a11.832,11.832,0,0,0-23.6,0H735.578a11.832,11.832,0,0,0-23.6,0H520.767a11.833,11.833,0,1,0-.059,2.367H712.04a11.832,11.832,0,0,0,23.479,0H928.33a11.832,11.832,0,0,0,23.479,0h191.331a11.832,11.832,0,0,0,23.479,0h191.628a11.834,11.834,0,1,0,11.74-13.315Zm-861.019,21.3a9.468,9.468,0,1,1,9.468-9.469A9.479,9.479,0,0,1,508.968,1229.375Zm214.811,0a9.468,9.468,0,1,1,9.468-9.469A9.479,9.479,0,0,1,723.779,1229.375Zm216.29,0a9.468,9.468,0,1,1,9.468-9.469A9.479,9.479,0,0,1,940.07,1229.375Zm214.811,0a9.468,9.468,0,1,1,9.469-9.469A9.479,9.479,0,0,1,1154.88,1229.375Zm215.107,0a9.468,9.468,0,1,1,9.468-9.469A9.479,9.479,0,0,1,1369.987,1229.375Z" transform="translate(-141.861 -536.351)" fill="#606060"/>
    <circle id="Elipse_4150" data-name="Elipse 4150" cx="6.509" cy="6.509" r="6.509" transform="translate(1221.617 677.046)" fill="#529ad9"/>
    <g id="Shopping_Bag-Hands-Bag-Purchase-Buy" data-name="Shopping Bag-Hands-Bag-Purchase-Buy" transform="translate(323.639 509)">
      <path id="Trazado_114850" data-name="Trazado 114850" d="M183.459,26.2h-4.08V23.14a7.14,7.14,0,1,0-14.279,0V26.2h-4.08A1.02,1.02,0,0,0,160,27.22V49.659a3.069,3.069,0,0,0,3.06,3.06h13.259v-2.04H163.06a1.02,1.02,0,0,1-1.02-1.02v-1.02h14.279V46.6H162.04V28.239h3.06V31.3h2.04v-3.06h10.2V31.3h2.04v-3.06h3.06V31.3h2.04V27.22A1.02,1.02,0,0,0,183.459,26.2Zm-6.12,0h-10.2V23.14a5.1,5.1,0,1,1,10.2,0Z" transform="translate(-128.984)" fill="#fff"/>
      <path id="Trazado_114851" data-name="Trazado 114851" d="M323.379,152H305.02a1.02,1.02,0,0,0-1.02,1.02v15.3a3.069,3.069,0,0,0,3.06,3.06h14.279a3.069,3.069,0,0,0,3.06-3.06v-15.3A1.02,1.02,0,0,0,323.379,152Zm-1.02,16.319a1.02,1.02,0,0,1-1.02,1.02H307.06a1.02,1.02,0,0,1-1.02-1.02V167.3h16.319Zm0-3.06H306.04V154.04h16.319Z" transform="translate(-254.625 -118.661)" fill="#fff"/>
      <path id="Trazado_114852" data-name="Trazado 114852" d="M349.1,191.14a5.106,5.106,0,0,0,5.1-5.1V184h-2.04v2.04a3.06,3.06,0,0,1-6.12,0V184H344v2.04A5.106,5.106,0,0,0,349.1,191.14Z" transform="translate(-289.525 -146.581)" fill="#fff"/>
      <path id="Trazado_114853" data-name="Trazado 114853" d="M74.193,327.606a4.191,4.191,0,0,0-5.279-2.1l-9.108,3.315a4.08,4.08,0,0,0-3.237-3.018l-12.3-2.169a15.318,15.318,0,0,0-7.889.691l-1.585.582a17.253,17.253,0,0,0-4.182,2.222l-.225-.619a1.02,1.02,0,0,0-1.306-.612h0l-11.5,4.182a1.02,1.02,0,0,0-.612,1.306h0l-4.794,1.744.7,1.917,4.794-1.744,4.16,11.432,1.917-.7-4.5-12.388,9.588-3.488,5.233,14.381-2.448.892.7,1.915,3.4-1.244a1.02,1.02,0,0,0,.613-1.306v0l-.349-.959,2.346-.855a11.161,11.161,0,0,1,4.613-.651l4.839.336a13.1,13.1,0,0,0,5.452-.768l18.645-6.786a4.08,4.08,0,0,0,2.44-5.228q-.052-.142-.113-.279Zm-1.875,2.533a2.023,2.023,0,0,1-1.149,1.056l-18.645,6.787a11.109,11.109,0,0,1-4.613.65l-4.839-.336a13.219,13.219,0,0,0-5.451.768l-2.352.856-3.932-10.8a15.219,15.219,0,0,1,4.151-2.3l1.583-.576a13.276,13.276,0,0,1,6.839-.6l12.3,2.169a2.04,2.04,0,0,1-.656,4.027l-.052-.009-11.049-1.948-.355,2.009,11.049,1.948a4.061,4.061,0,0,0,4.6-2.825l9.865-3.591a2.173,2.173,0,0,1,2.72,1.02A2.05,2.05,0,0,1,72.318,330.138Z" transform="translate(0 -268.207)" fill="#fff"/>
    </g>
    <g id="Grupo_57293" data-name="Grupo 57293" transform="translate(146.918 438.352)">
      <g id="Grupo_57292" data-name="Grupo 57292" transform="translate(408 84.648)">
        <path id="Trazado_114854" data-name="Trazado 114854" d="M457.846,130.34a5.161,5.161,0,0,0-1.768-3.873,4.113,4.113,0,0,0,.73-2.338v-.556a4.115,4.115,0,0,0-.213-1.307l-4.414-13.246a8.3,8.3,0,0,0-7.881-5.68h-3.437a9.33,9.33,0,0,0,3.484-7.269V92.7a8.061,8.061,0,0,0-8.052-8.052h-2.588a8.061,8.061,0,0,0-8.052,8.052v3.371a9.33,9.33,0,0,0,3.484,7.269H425.7a8.3,8.3,0,0,0-7.881,5.68l-4.415,13.245a4.12,4.12,0,0,0-.213,1.307v.556a4.106,4.106,0,0,0,.73,2.339,5.161,5.161,0,0,0-1.768,3.873H408v16.615h16.615v2.077h20.769v-2.077H462V130.34Zm-2.077,0h-6.231a3.108,3.108,0,0,1,1.289-2.512,4.131,4.131,0,0,0,1.846.435,4.089,4.089,0,0,0,1.808-.434A3.105,3.105,0,0,1,455.769,130.34Zm-1.144-7.417a2.033,2.033,0,0,1,.106.649v.556a2.038,2.038,0,0,1-.475,1.3,4.737,4.737,0,0,0-3.185-.005,2.082,2.082,0,0,1-.308-.528l-3.886-9.715,4.429-2.214Zm-5.367,3.52a5.161,5.161,0,0,0-1.8,3.9h-2.077v-13.3l3.449,8.623A4.145,4.145,0,0,0,449.258,126.444ZM427.731,92.7a5.982,5.982,0,0,1,5.975-5.974h2.588a5.982,5.982,0,0,1,5.975,5.975v.4a7.932,7.932,0,0,1-1.5-1.669A3.565,3.565,0,0,0,437.8,89.84H432.2a3.593,3.593,0,0,0-3.009,1.646,7.69,7.69,0,0,1-1.462,1.618Zm0,3.372v-.446a9.9,9.9,0,0,0,3.228-3.043,1.492,1.492,0,0,1,1.245-.666H437.8a1.525,1.525,0,0,1,1.281.721,9.8,9.8,0,0,0,3.19,2.988v.446a7.269,7.269,0,0,1-14.538,0Zm11.168,9.346a4.7,4.7,0,0,1-7.8,0h7.8Zm-23.629,18.156a2.035,2.035,0,0,1,.106-.65l3.319-9.959,4.429,2.215-3.886,9.714a2.062,2.062,0,0,1-.309.529,4.717,4.717,0,0,0-3.184.005,2.038,2.038,0,0,1-.475-1.3Zm.249,4.256a4.056,4.056,0,0,0,3.653,0,3.106,3.106,0,0,1,1.29,2.512h-6.231A3.105,3.105,0,0,1,415.518,127.829Zm9.1,17.049H410.077V132.417h2.077v2.077h2.077v-2.077h6.231v2.077h2.077v-2.077h2.077Zm0-14.538h-2.077a5.156,5.156,0,0,0-1.8-3.9,4.183,4.183,0,0,0,.426-.78l3.449-8.623Zm9.346,16.615h-7.269v-2.077h7.269Zm9.346,0h-7.269v-2.077h7.269Zm0-4.154h-7.269V131.379h-2.077V142.8h-7.269v-10.49a5.2,5.2,0,0,0,4.154-5.087h8.308a5.2,5.2,0,0,0,4.154,5.087Zm-16.615-12.653v-2.924h2.077A3.111,3.111,0,0,1,426.692,130.149Zm16.615,0a3.11,3.11,0,0,1-2.077-2.924h2.077Zm0-19.54v14.538H426.692V110.61h-2.077v.838l-.719,1.8-4.54-2.27.432-1.3a6.225,6.225,0,0,1,5.912-4.26h3.194c.578,2.367,3.1,4.154,6.105,4.154s5.526-1.787,6.105-4.154H444.3a6.222,6.222,0,0,1,5.911,4.261l.432,1.3-4.54,2.27-.718-1.8v-.838Zm16.615,34.269H445.385V132.417h2.077v2.077h2.077v-2.077h6.231v2.077h2.077v-2.077h2.077Z" transform="translate(-408 -84.648)" fill="#fff"/>
      </g>
    </g>
    <g id="Grupo_57295" data-name="Grupo 57295" transform="translate(574.791 383.953)">
      <g id="Grupo_57294" data-name="Grupo 57294" transform="translate(189.246 149.047)">
        <path id="Trazado_114855" data-name="Trazado 114855" d="M256.774,186.46l-8.713-31.547a4,4,0,0,0-6.542-4.5,3.99,3.99,0,0,0-6.016,0,3.99,3.99,0,0,0-6.017,0,3.99,3.99,0,0,0-6.016,0,3.99,3.99,0,0,0-6.016,0,3.99,3.99,0,0,0-6.016,0,3.99,3.99,0,0,0-6.016,0,4,4,0,0,0-6.888,1.662H197.8a.991.991,0,0,0-1.176.761l-5.271,24.613a.99.99,0,1,0,1.937.415l2.423-11.315-1.423,21.672-2.756-.35a.35.35,0,0,1-.3-.42L192.3,182.5a.99.99,0,1,0-1.937-.415l-1.061,4.952a2.33,2.33,0,0,0,1.985,2.8l3.6.456,5.794,3.4.01.005a2.31,2.31,0,0,0,1.284.392h44.146a2.33,2.33,0,0,0,2.323-2.512l-.17-2.167h6.259a2.33,2.33,0,0,0,2.246-2.951Zm-57.883-32.424h5.275a2.018,2.018,0,0,1-1.756,1.027.99.99,0,0,0,0,1.981,4.006,4.006,0,0,0,3.874-3.008h3.9a2.018,2.018,0,0,1-1.756,1.027.99.99,0,0,0,0,1.981,4.006,4.006,0,0,0,3.874-3.008h3.9a2.018,2.018,0,0,1-1.756,1.027.99.99,0,1,0,0,1.981,4.006,4.006,0,0,0,3.874-3.008h3.9a2.018,2.018,0,0,1-1.756,1.027.99.99,0,1,0,0,1.981,4.006,4.006,0,0,0,3.874-3.008h3.9a2.018,2.018,0,0,1-1.756,1.027.99.99,0,1,0,0,1.981,4.006,4.006,0,0,0,3.874-3.008h3.9a2.018,2.018,0,0,1-1.756,1.027.99.99,0,1,0,0,1.981,4.006,4.006,0,0,0,3.874-3.008h3.9a2.018,2.018,0,0,1-1.756,1.027.99.99,0,0,0,0,1.981,4.006,4.006,0,0,0,3.874-3.008H245.5a.35.35,0,0,1,.337.256l.063.229a2.008,2.008,0,0,1-1.371.542.99.99,0,0,0,0,1.981,3.975,3.975,0,0,0,1.93-.5l1.179,4.27H200.764Zm45.635-3.009a2.02,2.02,0,0,1,1.843,1.2,2.314,2.314,0,0,0-.872-.172h-2.728A2.018,2.018,0,0,1,244.527,151.028Zm-6.017,0a2.018,2.018,0,0,1,1.758,1.03l-3.517,0A2.018,2.018,0,0,1,238.51,151.028Zm-6.016,0a2.019,2.019,0,0,1,1.76,1.033l-3.52,0A2.018,2.018,0,0,1,232.493,151.028Zm-6.017,0a2.018,2.018,0,0,1,1.761,1.036l-3.523,0A2.019,2.019,0,0,1,226.477,151.028Zm-6.016,0a2.018,2.018,0,0,1,1.763,1.039l-3.527,0A2.019,2.019,0,0,1,220.46,151.028Zm-6.017,0a2.019,2.019,0,0,1,1.765,1.041l-3.53,0A2.019,2.019,0,0,1,214.444,151.028Zm-6.016,0a2.019,2.019,0,0,1,1.766,1.044l-3.533,0A2.019,2.019,0,0,1,208.427,151.028Zm-6.017,0a2.019,2.019,0,0,1,1.768,1.047l-3.537,0A2.019,2.019,0,0,1,202.411,151.028Zm-4.733,15.8,1.875,23.907-3.317-1.946Zm57.128,20.461a.343.343,0,0,1-.278.138h-13.38a.99.99,0,0,0,0,1.981h5.134l.182,2.322a.349.349,0,0,1-.348.377H201.97a.351.351,0,0,1-.348-.322l-2.237-28.523,3.38,12.237a.99.99,0,0,0,1.909-.528L201.311,162.8h46.872l6.681,24.191a.343.343,0,0,1-.059.3Z" transform="translate(-189.246 -149.047)" fill="#fff"/>
        <path id="Trazado_114856" data-name="Trazado 114856" d="M333.32,383.123H305.3a.35.35,0,0,1-.337-.256l-2.106-7.625a.99.99,0,0,0-1.909.528l2.106,7.625a2.336,2.336,0,0,0,2.246,1.71H333.32a.99.99,0,0,0,0-1.981Z" transform="translate(-286.163 -344.74)" fill="#fff"/>
        <path id="Trazado_114857" data-name="Trazado 114857" d="M320.106,281.946a2.323,2.323,0,0,0,2.219,1.618h3.926a2.33,2.33,0,0,0,2.219-3.042l-1.706-5.318a2.323,2.323,0,0,0-2.219-1.618h-3.926a2.33,2.33,0,0,0-2.219,3.042Zm.231-6.235a.342.342,0,0,1,.282-.143h3.926a.348.348,0,0,1,.333.243l1.706,5.318a.349.349,0,0,1-.333.456h-3.926a.348.348,0,0,1-.333-.243l-1.706-5.318A.342.342,0,0,1,320.337,275.711Z" transform="translate(-301.246 -257.141)" fill="#fff"/>
        <path id="Trazado_114858" data-name="Trazado 114858" d="M406.929,278.612h1.828a.99.99,0,1,0,0-1.981h-1.828a.99.99,0,0,0,0,1.981Z" transform="translate(-377.323 -259.783)" fill="#fff"/>
        <path id="Trazado_114859" data-name="Trazado 114859" d="M453.749,278.612h1.828a.99.99,0,0,0,0-1.981h-1.828a.99.99,0,0,0,0,1.981Z" transform="translate(-417.96 -259.783)" fill="#fff"/>
        <path id="Trazado_114860" data-name="Trazado 114860" d="M500.568,278.612H502.4a.99.99,0,0,0,0-1.981h-1.828a.99.99,0,1,0,0,1.981Z" transform="translate(-458.597 -259.783)" fill="#fff"/>
        <path id="Trazado_114861" data-name="Trazado 114861" d="M547.387,278.612h1.828a.99.99,0,1,0,0-1.981h-1.828a.99.99,0,1,0,0,1.981Z" transform="translate(-499.233 -259.783)" fill="#fff"/>
        <path id="Trazado_114862" data-name="Trazado 114862" d="M594.206,278.612h1.828a.99.99,0,0,0,0-1.981h-1.828a.99.99,0,0,0,0,1.981Z" transform="translate(-539.869 -259.783)" fill="#fff"/>
        <path id="Trazado_114863" data-name="Trazado 114863" d="M415.906,318.509a.99.99,0,0,0,.99.99h1.828a.99.99,0,1,0,0-1.981H416.9A.99.99,0,0,0,415.906,318.509Z" transform="translate(-385.974 -295.271)" fill="#fff"/>
        <path id="Trazado_114864" data-name="Trazado 114864" d="M462.725,318.509a.99.99,0,0,0,.99.99h1.828a.99.99,0,0,0,0-1.981h-1.828A.99.99,0,0,0,462.725,318.509Z" transform="translate(-426.61 -295.271)" fill="#fff"/>
        <path id="Trazado_114865" data-name="Trazado 114865" d="M509.543,318.509a.99.99,0,0,0,.99.99h1.828a.99.99,0,0,0,0-1.981h-1.828A.99.99,0,0,0,509.543,318.509Z" transform="translate(-467.246 -295.271)" fill="#fff"/>
        <path id="Trazado_114866" data-name="Trazado 114866" d="M560.172,318.509a.99.99,0,0,0-.99-.99h-1.828a.99.99,0,0,0,0,1.981h1.828A.99.99,0,0,0,560.172,318.509Z" transform="translate(-507.883 -295.271)" fill="#fff"/>
        <path id="Trazado_114867" data-name="Trazado 114867" d="M606.99,318.509a.99.99,0,0,0-.99-.99h-1.828a.99.99,0,1,0,0,1.981H606A.99.99,0,0,0,606.99,318.509Z" transform="translate(-548.518 -295.271)" fill="#fff"/>
        <path id="Trazado_114868" data-name="Trazado 114868" d="M425.872,359.4a.99.99,0,0,0,.99.99h1.828a.99.99,0,0,0,0-1.981h-1.828A.99.99,0,0,0,425.872,359.4Z" transform="translate(-394.624 -330.76)" fill="#fff"/>
        <path id="Trazado_114869" data-name="Trazado 114869" d="M472.69,359.4a.99.99,0,0,0,.99.99h1.828a.99.99,0,0,0,0-1.981H473.68A.99.99,0,0,0,472.69,359.4Z" transform="translate(-435.259 -330.76)" fill="#fff"/>
        <path id="Trazado_114870" data-name="Trazado 114870" d="M519.51,359.4a.99.99,0,0,0,.99.99h1.828a.99.99,0,1,0,0-1.981H520.5A.99.99,0,0,0,519.51,359.4Z" transform="translate(-475.897 -330.76)" fill="#fff"/>
        <path id="Trazado_114871" data-name="Trazado 114871" d="M569.147,360.389a.99.99,0,0,0,0-1.981h-1.828a.99.99,0,0,0,0,1.981Z" transform="translate(-516.532 -330.76)" fill="#fff"/>
        <path id="Trazado_114872" data-name="Trazado 114872" d="M615.966,360.389a.99.99,0,0,0,0-1.981h-1.828a.99.99,0,1,0,0,1.981Z" transform="translate(-557.168 -330.76)" fill="#fff"/>
        <path id="Trazado_114873" data-name="Trazado 114873" d="M435.613,399.3h-1.828a.99.99,0,1,0,0,1.981h1.828a.99.99,0,1,0,0-1.981Z" transform="translate(-400.632 -366.248)" fill="#fff"/>
        <path id="Trazado_114874" data-name="Trazado 114874" d="M482.432,399.3H480.6a.99.99,0,1,0,0,1.981h1.828a.99.99,0,1,0,0-1.981Z" transform="translate(-441.268 -366.248)" fill="#fff"/>
        <path id="Trazado_114875" data-name="Trazado 114875" d="M529.251,399.3h-1.828a.99.99,0,1,0,0,1.981h1.828a.99.99,0,1,0,0-1.981Z" transform="translate(-481.904 -366.248)" fill="#fff"/>
        <path id="Trazado_114876" data-name="Trazado 114876" d="M576.07,399.3h-1.828a.99.99,0,1,0,0,1.981h1.828a.99.99,0,1,0,0-1.981Z" transform="translate(-522.541 -366.248)" fill="#fff"/>
        <path id="Trazado_114877" data-name="Trazado 114877" d="M622.889,399.3H621.06a.99.99,0,1,0,0,1.981h1.828a.99.99,0,1,0,0-1.981Z" transform="translate(-563.177 -366.248)" fill="#fff"/>
        <path id="Trazado_114878" data-name="Trazado 114878" d="M353.683,366.476a.991.991,0,0,0-.691,1.219l1.222,4.424a.99.99,0,1,0,1.909-.527l-1.222-4.424a.99.99,0,0,0-1.218-.691Z" transform="translate(-331.337 -337.732)" fill="#fff"/>
        <path id="Trazado_114879" data-name="Trazado 114879" d="M383.83,383.224a.991.991,0,0,0-.691,1.219l.611,2.212a.99.99,0,1,0,1.909-.527l-.611-2.212a.99.99,0,0,0-1.218-.691Z" transform="translate(-357.503 -352.268)" fill="#fff"/>
      </g>
    </g>
    <g id="Grupo_57304" data-name="Grupo 57304" transform="translate(987.426 494.66)">
      <g id="Grupo_57297" data-name="Grupo 57297" transform="translate(0 37.34)">
        <g id="Grupo_57296" data-name="Grupo 57296">
          <path id="Trazado_114880" data-name="Trazado 114880" d="M53.745,51.236l-.036-.2c-.007-.031-.01-.062-.016-.093l-3.775-9.116V37.34H3.844v4.485L.131,50.941c-.008.036-.013.072-.02.108l-.034.188a6.491,6.491,0,0,0-.077,1,6.4,6.4,0,0,0,3.364,5.64V83.313h47.1V57.877a6.407,6.407,0,0,0,3.364-5.64A6.49,6.49,0,0,0,53.745,51.236Zm-2.534-.44H42.972l-.99-6.658H48.5ZM6.087,39.582H47.676v2.243H6.087ZM41.038,53.038l.122.814-.664.883a4.165,4.165,0,0,1-6.666,0l-.677-.9-.039-.795ZM33,50.8l-.327-6.658h7.035l.992,6.658Zm-2.135,2.242h0l.039.813-.665.884a4.165,4.165,0,0,1-6.666,0l-.68-.908.039-.789ZM23.05,50.8l.337-6.658h7.047l.325,6.658Zm-9.92,0,.979-6.658h7.034L20.8,50.8Zm7.559,2.242-.041.822-.657.875a4.165,4.165,0,0,1-6.666,0l-.647-.861.123-.835Zm-15.366-8.9h6.519L10.864,50.8H2.612Zm-3,8.9h8.216l-.176.871-.619.825a4.166,4.166,0,0,1-7.421-1.7ZM43.732,81.073H34.76V73.221h1.122a1.12,1.12,0,1,0,0-2.24H34.76V63.129h8.972Zm4.484,0H45.974V60.889H32.518V81.073H5.606V58.6a6.408,6.408,0,0,0,5.926-2.513,6.408,6.408,0,0,0,10.253,0,6.406,6.406,0,0,0,10.251,0,6.408,6.408,0,0,0,10.253,0A6.408,6.408,0,0,0,48.217,58.6V81.073Zm-.8-24.671a4.133,4.133,0,0,1-3.331-1.667l-.652-.866-.126-.831h8.2A4.17,4.17,0,0,1,47.415,56.4Z" transform="translate(0 -37.34)" fill="#543535"/>
        </g>
      </g>
      <g id="Grupo_57299" data-name="Grupo 57299" transform="translate(7.848 60.889)">
        <g id="Grupo_57298" data-name="Grupo 57298">
          <path id="Trazado_114881" data-name="Trazado 114881" d="M74.656,261.348v15.7H97.084v-15.7ZM94.84,274.8H76.9V263.588H94.84Z" transform="translate(-74.656 -261.348)" fill="#543535"/>
        </g>
      </g>
      <g id="Grupo_57301" data-name="Grupo 57301" transform="translate(22.418 68.737)">
        <g id="Grupo_57300" data-name="Grupo 57300">
          <path id="Trazado_114882" data-name="Trazado 114882" d="M216.614,336a1.113,1.113,0,0,0-.793.328l-2.242,2.244a1.12,1.12,0,0,0,1.585,1.583l2.242-2.24a1.122,1.122,0,0,0-.792-1.915Z" transform="translate(-213.25 -336.004)" fill="#543535"/>
        </g>
      </g>
      <g id="Grupo_57303" data-name="Grupo 57303" transform="translate(17.932 64.253)">
        <g id="Grupo_57302" data-name="Grupo 57302">
          <path id="Trazado_114883" data-name="Trazado 114883" d="M178.428,293.348a1.113,1.113,0,0,0-.793.329l-6.728,6.726a1.121,1.121,0,1,0,1.585,1.585l6.728-6.726a1.121,1.121,0,0,0-.792-1.914Z" transform="translate(-170.578 -293.348)" fill="#543535"/>
        </g>
      </g>
    </g>
    <g id="Grupo_57305" data-name="Grupo 57305" transform="translate(1200.999 514)">
      <path id="Trazado_114884" data-name="Trazado 114884" d="M59.192,140.246a5.048,5.048,0,0,0-6.07-3.894l-6.181,1.415V135.24a24.417,24.417,0,0,0,3.448-4.086,23.952,23.952,0,0,0,3.386-7.974,24.433,24.433,0,0,0,.047-10.371,1.158,1.158,0,0,0-2.265.485,22.087,22.087,0,0,1-.042,9.38,21.646,21.646,0,0,1-3.06,7.205,20.629,20.629,0,0,1-1.514,2V119.039a1.158,1.158,0,0,0-1.158-1.158H36.621V105.513a1.158,1.158,0,0,0-1.154-1.158l-10.32-.035h0a1.158,1.158,0,0,0-1.158,1.158v6.434H14.822a1.158,1.158,0,0,0-1.158,1.158v11.469H11.083v-1.573a1.158,1.158,0,0,0-1.158-1.158H8.737a21.918,21.918,0,0,1,.946-11.359c.216-.6.461-1.189.729-1.763a1.158,1.158,0,1,0-2.1-.978c-.3.636-.568,1.293-.806,1.952a24.2,24.2,0,0,0-1.118,12.149H1.158A1.158,1.158,0,0,0,0,122.967v20.358a1.158,1.158,0,0,0,1.158,1.158H9.925a1.158,1.158,0,0,0,1.158-1.158v-1.1H15.44l17.648,6.922a13.941,13.941,0,0,0,8.572.536l13.833-3.516A5.039,5.039,0,0,0,59.192,140.246ZM44.626,120.2v18.1l-3.1.709c-.333.076-.67.136-1.008.183a11.756,11.756,0,0,1-3.884-.113l-.016,0v-1.756a5.364,5.364,0,0,0,.713-4.512,5.209,5.209,0,0,0-.545-1.214q-.08-.129-.166-.252l0,0V120.2h8ZM26.3,106.641l8,.027v22.827l-4.473-1.851L26.3,126.181ZM15.98,114.228h8v10.993l-1.436-.594a1.157,1.157,0,0,0-.443-.088H15.98ZM8.767,142.167H2.316V124.125H8.767Zm46.155,1.754L41.09,147.437a11.64,11.64,0,0,1-7.155-.448l-17.852-7a1.156,1.156,0,0,0-.423-.08H11.083V126.856H21.874l7.494,3.1,4.1,1.7a2.9,2.9,0,0,1,1.55,3.753,3.308,3.308,0,0,1-.464.814,2.986,2.986,0,0,1-3.036,1.047l-.027-.007c-.067-.017-.133-.036-.2-.058l-7.793-3-.1-.037a1.158,1.158,0,0,0-.831,2.162s4.394,1.689,7.744,2.981c.067.026.134.051.2.073l2.573.989a21.239,21.239,0,0,0,2.361.8,14.052,14.052,0,0,0,6.594.083l4-.914.012,0,7.585-1.736a2.732,2.732,0,0,1,1.283,5.311Z" transform="translate(0 -80.744)" fill="#fff"/>
      <path id="Trazado_114885" data-name="Trazado 114885" d="M119.035,21.238a1.154,1.154,0,0,0,.776-.3,21.764,21.764,0,0,1,16.081-5.576,21.727,21.727,0,0,1,6.314,1.375,1.158,1.158,0,1,0,.824-2.164,24.038,24.038,0,0,0-6.987-1.522,24.082,24.082,0,0,0-17.785,6.168,1.158,1.158,0,0,0,.776,2.018Z" transform="translate(-104.224 0)" fill="#fff"/>
      <path id="Trazado_114886" data-name="Trazado 114886" d="M351.844,56.241a1.159,1.159,0,0,0,1.634-.114l9.529-10.969a1.158,1.158,0,1,0-1.748-1.519l-9.529,10.969A1.158,1.158,0,0,0,351.844,56.241Z" transform="translate(-310.741 -26.738)" fill="#fff"/>
      <path id="Trazado_114887" data-name="Trazado 114887" d="M406.42,112.738a2.908,2.908,0,1,0,2.908,2.908A2.911,2.911,0,0,0,406.42,112.738Zm0,3.5a.591.591,0,1,1,.591-.591A.592.592,0,0,1,406.42,116.237Z" transform="translate(-356.778 -88.187)" fill="#fff"/>
      <path id="Trazado_114888" data-name="Trazado 114888" d="M350.888,46.081a2.908,2.908,0,1,0-2.908-2.908A2.911,2.911,0,0,0,350.888,46.081Zm0-3.5a.592.592,0,1,1-.591.592A.592.592,0,0,1,350.888,42.582Z" transform="translate(-307.677 -24.108)" fill="#fff"/>
      <path id="Trazado_114889" data-name="Trazado 114889" d="M91.668,95.424a1.158,1.158,0,1,0,.426-1.406A1.168,1.168,0,0,0,91.668,95.424Z" transform="translate(-80.974 -71.465)" fill="#fff"/>
    </g>
  </g>
</svg>
