<svg xmlns="http://www.w3.org/2000/svg" width="145" height="91" viewBox="0 0 145 91">
  <g id="Grupo_58252" data-name="Grupo 58252" transform="translate(-1222 -617)">
    <rect id="BG" width="145" height="91" transform="translate(1222 617)" fill="#fff" opacity="0"/>
    <g id="Grupo_58227" data-name="Grupo 58227" transform="translate(1259 628)">
      <path id="Trazado_116948" data-name="Trazado 116948" d="M533.824,187.149a6.961,6.961,0,0,0-6.863,5.844H511.727a6.951,6.951,0,0,0-13.725,0H482.768a6.952,6.952,0,1,0,0,2.215H498a6.951,6.951,0,0,0,13.725,0h15.235a6.951,6.951,0,1,0,6.863-8.059Zm-57.919,11.688a4.737,4.737,0,1,1,4.737-4.737A4.737,4.737,0,0,1,475.905,198.837Zm28.959,0A4.737,4.737,0,1,1,509.6,194.1,4.736,4.736,0,0,1,504.865,198.837Zm28.959,0a4.737,4.737,0,1,1,4.737-4.737A4.737,4.737,0,0,1,533.824,198.837Z" transform="translate(-468.954 -131.657)" fill="#a0a603"/>
      <path id="Trazado_116949" data-name="Trazado 116949" d="M566.412,42.991h.31a7.611,7.611,0,0,0,7.6-7.6v-2.97a7.611,7.611,0,0,0-7.6-7.6h-.31a7.612,7.612,0,0,0-7.6,7.6v2.969A7.612,7.612,0,0,0,566.412,42.991Zm-5.388-10.572a5.394,5.394,0,0,1,5.389-5.388h.309a5.394,5.394,0,0,1,5.388,5.388v2.969a5.394,5.394,0,0,1-5.388,5.388h-.309a5.394,5.394,0,0,1-5.389-5.388Z" transform="translate(-530.656 -20.185)" fill="#a0a603"/>
      <path id="Trazado_116950" data-name="Trazado 116950" d="M648.472,59.819,644.12,59.8h0a1.107,1.107,0,0,0-1.034,1.5l1.044,2.725a1.106,1.106,0,0,0,1.034.712h2.264a1.107,1.107,0,0,0,1.033-.709l1.044-2.71a1.107,1.107,0,0,0-1.03-1.505Zm-1.808,2.71h-.742l-.193-.5,1.128,0Z" transform="translate(-588.475 -44.21)" fill="#a0a603"/>
      <path id="Trazado_116951" data-name="Trazado 116951" d="M639.036,24.783h.242a6.215,6.215,0,0,0,6.208-6.208V16.243a6.215,6.215,0,0,0-6.208-6.208h-.242a6.215,6.215,0,0,0-6.209,6.208v2.332A6.215,6.215,0,0,0,639.036,24.783Zm-3.994-8.54a4,4,0,0,1,3.994-3.993h.242a4,4,0,0,1,3.992,3.993v2.332a4,4,0,0,1-3.993,3.993h-.242a4,4,0,0,1-3.993-3.993Z" transform="translate(-581.483 -10.035)" fill="#a0a603"/>
      <path id="Trazado_116952" data-name="Trazado 116952" d="M509.554,59.819,505.2,59.8h0a1.108,1.108,0,0,0-1.028,1.519l1.045,2.608a1.106,1.106,0,0,0,1.028.7h2.263a1.108,1.108,0,0,0,1.028-.693l1.044-2.593a1.107,1.107,0,0,0-1.023-1.521Zm-1.8,2.593h-.766l-.155-.388,1.076,0Z" transform="translate(-493.082 -44.21)" fill="#a0a603"/>
      <path id="Trazado_116953" data-name="Trazado 116953" d="M500.118,24.783h.242a6.214,6.214,0,0,0,6.208-6.208V16.243a6.215,6.215,0,0,0-6.208-6.208h-.243a6.215,6.215,0,0,0-6.207,6.208v2.332A6.214,6.214,0,0,0,500.118,24.783Zm-3.993-8.54a4,4,0,0,1,3.993-3.993h.242a4,4,0,0,1,3.994,3.993v2.332a4,4,0,0,1-3.994,3.993h-.243a4,4,0,0,1-3.993-3.993Z" transform="translate(-486.091 -10.035)" fill="#a0a603"/>
      <path id="Trazado_116954" data-name="Trazado 116954" d="M472.586,79.546h9.749l-.094,1.17a1.107,1.107,0,0,0,.495,1.014l1.719,1.131a1.107,1.107,0,0,0,1.228-.007l1.677-1.132a1.108,1.108,0,0,0,.485-1.007l-.094-1.17h2.141V90.772A1.107,1.107,0,0,0,491,91.879H503.56a1.106,1.106,0,0,0,.5.952l2.2,1.441a1.107,1.107,0,0,0,1.222-.007l2.15-1.441a1.1,1.1,0,0,0,.489-.945H522.2a1.107,1.107,0,0,0,1.108-1.108V79.546h2.554l-.095,1.17a1.108,1.108,0,0,0,.5,1.014l1.719,1.131a1.107,1.107,0,0,0,1.229-.007l1.677-1.132a1.108,1.108,0,0,0,.484-1.007l-.094-1.17h9.335a1.108,1.108,0,0,0,1.107-1.108V65.18a6.592,6.592,0,0,0-6.584-6.584H533.4a1.108,1.108,0,0,0-1.04.728l-2.223,6.095-.025-.316a1.107,1.107,0,0,0-1.1-1.019h-.89a1.107,1.107,0,0,0-1.1,1.019l-.055.68-2.62-6.494a1.109,1.109,0,0,0-1.027-.693h-1.73A6.592,6.592,0,0,0,515,65.178v2.208h-2.1a1.108,1.108,0,0,0-1.076.844l-2.377,9.711L509.3,74.71a1.107,1.107,0,0,0-1.1-1.056l-2.66-.02a1.112,1.112,0,0,0-1.114,1.051l-.2,3.95L501.366,68.2a1.106,1.106,0,0,0-1.068-.815h-2.1V65.18A6.591,6.591,0,0,0,491.61,58.6h-1.729a1.107,1.107,0,0,0-1.04.727l-2.223,6.095-.025-.316a1.108,1.108,0,0,0-1.1-1.019h-.89a1.107,1.107,0,0,0-1.1,1.019l-.055.68-2.621-6.494a1.106,1.106,0,0,0-1.026-.693h-1.729a6.591,6.591,0,0,0-6.584,6.585V78.438A1.107,1.107,0,0,0,472.586,79.546Zm12.47,1.06-.555-.365.541-6.748.542,6.757Zm43.524,0-.555-.365.541-6.748.542,6.756Zm5.6-19.795h.955A4.375,4.375,0,0,1,539.5,65.18V77.331H531.1l-.531-6.616Zm-12.593,0h.982l4,9.909-.531,6.612h-2.731V75.469a8.1,8.1,0,0,0-6.088-7.833V65.18a4.376,4.376,0,0,1,4.37-4.369Zm-7.82,8.792h1.457a5.874,5.874,0,0,1,5.867,5.867v14.2H510.01l-.193-3.7-.009-.187Zm-6.634,6.258.472,10.211.273,5.262-1.018.683-1.058-.692.781-15.469Zm-3.265,9.849-.2,3.955H492.106v-14.2a5.873,5.873,0,0,1,5.867-5.867h1.481Zm-13.213-24.9h.955a4.374,4.374,0,0,1,4.369,4.369v2.457a8.1,8.1,0,0,0-6.088,7.832V77.33h-2.318l-.531-6.616ZM473.694,65.18a4.375,4.375,0,0,1,4.369-4.369h.982l4,9.909-.53,6.613h-8.819Z" transform="translate(-470.688 -43.38)" fill="#a0a603"/>
      <path id="Trazado_116955" data-name="Trazado 116955" d="M578.682,88.217l-5.543-.02h0a1.107,1.107,0,0,0-.99,1.6l1.441,2.883a1.108,1.108,0,0,0,.983.612l2.66.019h.009a1.106,1.106,0,0,0,.99-.612l1.442-2.883a1.107,1.107,0,0,0-.987-1.6Zm-2.127,2.877-1.291-.009-.332-.667,1.959.008Z" transform="translate(-539.733 -63.708)" fill="#a0a603"/>
    </g>
  </g>
</svg>
