<svg xmlns="http://www.w3.org/2000/svg" width="310" height="100" viewBox="0 0 310 100">
  <g id="Grupo_60378" data-name="Grupo 60378" transform="translate(-180 -4875)">
    <g id="Grupo_60339" data-name="Grupo 60339" transform="translate(295.293 4881)">
      <g id="Grupo_60334" data-name="Grupo 60334" transform="translate(0 68.918)">
        <path id="Trazado_120867" data-name="Trazado 120867" d="M668.529,441.923a2.533,2.533,0,0,1-1.8-.745,50.03,50.03,0,0,0-70.749,0,2.537,2.537,0,0,1-3.588-3.588,55.166,55.166,0,0,1,77.928,0,2.539,2.539,0,0,1-1.8,4.334Z" transform="translate(-591.653 -421.476)" fill="#6f7302"/>
      </g>
      <g id="Grupo_60335" data-name="Grupo 60335" transform="translate(31.415)">
        <path id="Trazado_120868" data-name="Trazado 120868" d="M615.414,419.69a8.3,8.3,0,0,1-8.291-8.291c0-3.314,4.494-17.746,5.873-22.09a2.538,2.538,0,0,1,4.839,0c1.377,4.344,5.873,18.776,5.873,22.09A8.3,8.3,0,0,1,615.414,419.69Zm0-20.949c-1.8,6.1-3.215,11.433-3.215,12.657a3.216,3.216,0,0,0,6.431,0C618.631,410.174,617.218,404.838,615.414,398.741Z" transform="translate(-607.123 -387.538)" fill="#6f7302"/>
      </g>
      <g id="Grupo_60336" data-name="Grupo 60336" transform="translate(8.687 31.939)">
        <path id="Trazado_120869" data-name="Trazado 120869" d="M598.468,424.757a2.538,2.538,0,0,1-1.872-4.25c3.072-3.365,13.323-14.475,16.193-16.13a8.291,8.291,0,1,1,8.291,14.361c-2.867,1.657-17.614,4.981-22.066,5.958A2.516,2.516,0,0,1,598.468,424.757Zm18.461-16.414a3.192,3.192,0,0,0-1.6.431h0c-1.06.611-4.975,4.5-9.353,9.112,6.179-1.486,11.508-2.93,12.568-3.544a3.215,3.215,0,0,0-1.612-6Zm-2.871-1.769h0Z" transform="translate(-595.931 -403.266)" fill="#6f7302"/>
      </g>
      <g id="Grupo_60337" data-name="Grupo 60337" transform="translate(41.427 31.941)">
        <path id="Trazado_120870" data-name="Trazado 120870" d="M638.815,424.756a2.5,2.5,0,0,1-.544-.061c-4.451-.977-19.2-4.3-22.068-5.958a8.291,8.291,0,0,1,8.291-14.361c2.87,1.655,13.12,12.765,16.195,16.13a2.538,2.538,0,0,1-1.874,4.25Zm-18.461-16.414a3.217,3.217,0,0,0-2.788,1.606,3.218,3.218,0,0,0,1.176,4.392c1.06.613,6.389,2.057,12.568,3.544-4.376-4.608-8.293-8.5-9.353-9.112A3.181,3.181,0,0,0,620.354,408.342Z" transform="translate(-612.054 -403.267)" fill="#6f7302"/>
      </g>
      <g id="Grupo_60338" data-name="Grupo 60338" transform="translate(37.168 47.335)">
        <path id="Trazado_120871" data-name="Trazado 120871" d="M612.494,437.483a2.539,2.539,0,0,1-2.538-2.538V413.386a2.538,2.538,0,1,1,5.077,0v21.558A2.538,2.538,0,0,1,612.494,437.483Z" transform="translate(-609.956 -410.848)" fill="#6f7302"/>
      </g>
    </g>
    <rect id="Rectángulo_7502" data-name="Rectángulo 7502" width="310" height="100" transform="translate(180 4875)" fill="none"/>
  </g>
</svg>
