<svg xmlns="http://www.w3.org/2000/svg" width="310" height="100.178" viewBox="0 0 310 100.178">
  <g id="Grupo_60381" data-name="Grupo 60381" transform="translate(-1110 -4875)">
    <g id="Grupo_60363" data-name="Grupo 60363" transform="translate(1212.2 4876)">
      <g id="Grupo_60348" data-name="Grupo 60348" transform="translate(23.333 56.565)">
        <path id="Trazado_120879" data-name="Trazado 120879" d="M1000.29,456.9a2.538,2.538,0,0,1-2.538-2.538v-35H967.243v35a2.538,2.538,0,1,1-5.077,0V416.822a2.539,2.539,0,0,1,2.538-2.538h35.586a2.539,2.539,0,0,1,2.538,2.538v37.535A2.539,2.539,0,0,1,1000.29,456.9Z" transform="translate(-962.166 -414.284)" fill="#6f7302"/>
      </g>
      <g id="Grupo_60349" data-name="Grupo 60349" transform="translate(8.243 31.064)">
        <path id="Trazado_120880" data-name="Trazado 120880" d="M957.273,469.84a2.538,2.538,0,0,1-2.538-2.538V404.264a2.537,2.537,0,0,1,2.538-2.538h25.934a2.537,2.537,0,0,1,2.538,2.538v25.5a2.538,2.538,0,0,1-5.077,0V406.8H959.812v60.5A2.539,2.539,0,0,1,957.273,469.84Z" transform="translate(-954.735 -401.726)" fill="#6f7302"/>
      </g>
      <g id="Grupo_60350" data-name="Grupo 60350" transform="translate(49.657)">
        <path id="Trazado_120881" data-name="Trazado 120881" d="M998.98,485.606a2.539,2.539,0,0,1-2.538-2.538V393.809L980.206,405.03v40.5a2.538,2.538,0,0,1-5.077,0V403.7a2.535,2.535,0,0,1,1.095-2.088l21.312-14.733a2.539,2.539,0,0,1,3.982,2.088v94.1A2.538,2.538,0,0,1,998.98,485.606Z" transform="translate(-975.129 -386.429)" fill="#6f7302"/>
      </g>
      <g id="Grupo_60351" data-name="Grupo 60351" transform="translate(70.969 35.046)">
        <path id="Trazado_120882" data-name="Trazado 120882" d="M1009.477,467.819a2.538,2.538,0,0,1-2.538-2.538V422.29L990.7,411.069V465.28a2.538,2.538,0,1,1-5.077,0V406.228a2.539,2.539,0,0,1,3.982-2.09l21.312,14.733a2.541,2.541,0,0,1,1.1,2.09v44.32A2.539,2.539,0,0,1,1009.477,467.819Z" transform="translate(-985.624 -403.687)" fill="#6f7302"/>
      </g>
      <g id="Grupo_60352" data-name="Grupo 60352" transform="translate(92.283 94.101)">
        <path id="Trazado_120883" data-name="Trazado 120883" d="M1006.9,437.845h-8.24a2.538,2.538,0,1,1,0-5.077h8.24a2.538,2.538,0,1,1,0,5.077Z" transform="translate(-996.12 -432.768)" fill="#6f7302"/>
      </g>
      <g id="Grupo_60353" data-name="Grupo 60353" transform="translate(0 94.101)">
        <path id="Trazado_120884" data-name="Trazado 120884" d="M961.457,437.845h-8.242a2.538,2.538,0,1,1,0-5.077h8.242a2.538,2.538,0,1,1,0,5.077Z" transform="translate(-950.676 -432.768)" fill="#6f7302"/>
      </g>
      <g id="Grupo_60354" data-name="Grupo 60354" transform="translate(33.598 69.574)">
        <path id="Trazado_120885" data-name="Trazado 120885" d="M984.813,425.767H969.759a2.538,2.538,0,0,1,0-5.077h15.053a2.538,2.538,0,0,1,0,5.077Z" transform="translate(-967.221 -420.69)" fill="#6f7302"/>
      </g>
      <g id="Grupo_60355" data-name="Grupo 60355" transform="translate(33.598 80.129)">
        <path id="Trazado_120886" data-name="Trazado 120886" d="M984.813,430.965H969.759a2.538,2.538,0,0,1,0-5.077h15.053a2.538,2.538,0,0,1,0,5.077Z" transform="translate(-967.221 -425.888)" fill="#6f7302"/>
      </g>
      <g id="Grupo_60356" data-name="Grupo 60356" transform="translate(33.598 90.683)">
        <path id="Trazado_120887" data-name="Trazado 120887" d="M984.813,436.162H969.759a2.538,2.538,0,0,1,0-5.077h15.053a2.538,2.538,0,0,1,0,5.077Z" transform="translate(-967.221 -431.085)" fill="#6f7302"/>
      </g>
      <g id="Grupo_60357" data-name="Grupo 60357" transform="translate(50.262 22.846)">
        <path id="Trazado_120888" data-name="Trazado 120888" d="M986.622,402.756h-8.657a2.538,2.538,0,0,1,0-5.077h8.657a2.538,2.538,0,1,1,0,5.077Z" transform="translate(-975.427 -397.679)" fill="#6f7302"/>
      </g>
      <g id="Grupo_60358" data-name="Grupo 60358" transform="translate(50.262 34.014)">
        <path id="Trazado_120889" data-name="Trazado 120889" d="M986.622,408.256h-8.657a2.538,2.538,0,0,1,0-5.077h8.657a2.538,2.538,0,1,1,0,5.077Z" transform="translate(-975.427 -403.179)" fill="#6f7302"/>
      </g>
      <g id="Grupo_60359" data-name="Grupo 60359" transform="translate(50.262 45.183)">
        <path id="Trazado_120890" data-name="Trazado 120890" d="M986.622,413.756h-8.657a2.538,2.538,0,0,1,0-5.077h8.657a2.538,2.538,0,1,1,0,5.077Z" transform="translate(-975.427 -408.679)" fill="#6f7302"/>
      </g>
      <g id="Grupo_60360" data-name="Grupo 60360" transform="translate(83.626 60.139)">
        <path id="Trazado_120891" data-name="Trazado 120891" d="M1003.052,421.121H994.4a2.538,2.538,0,0,1,0-5.077h8.657a2.538,2.538,0,0,1,0,5.077Z" transform="translate(-991.857 -416.044)" fill="#6f7302"/>
      </g>
      <g id="Grupo_60361" data-name="Grupo 60361" transform="translate(83.626 71.308)">
        <path id="Trazado_120892" data-name="Trazado 120892" d="M1003.052,426.621H994.4a2.538,2.538,0,0,1,0-5.077h8.657a2.538,2.538,0,0,1,0,5.077Z" transform="translate(-991.857 -421.544)" fill="#6f7302"/>
      </g>
      <g id="Grupo_60362" data-name="Grupo 60362" transform="translate(83.626 82.477)">
        <path id="Trazado_120893" data-name="Trazado 120893" d="M1003.052,432.121H994.4a2.538,2.538,0,0,1,0-5.077h8.657a2.538,2.538,0,0,1,0,5.077Z" transform="translate(-991.857 -427.044)" fill="#6f7302"/>
      </g>
    </g>
    <rect id="Rectángulo_7505" data-name="Rectángulo 7505" width="310" height="100" transform="translate(1110 4875)" fill="none"/>
  </g>
</svg>
